<?xml version="1.0" encoding="UTF-8"?>
<!DOCTYPE svg PUBLIC "-//W3C//DTD SVG 1.1//EN" "http://www.w3.org/Graphics/SVG/1.1/DTD/svg11.dtd">
<svg xmlns="http://www.w3.org/2000/svg" version="1.1" width="501px" height="150px" style="shape-rendering:geometricPrecision; text-rendering:geometricPrecision; image-rendering:optimizeQuality; fill-rule:evenodd; clip-rule:evenodd" xmlns:xlink="http://www.w3.org/1999/xlink">
<g><path style="opacity:1" fill="#fefdfd" d="M -0.5,-0.5 C 166.5,-0.5 333.5,-0.5 500.5,-0.5C 500.5,49.5 500.5,99.5 500.5,149.5C 333.5,149.5 166.5,149.5 -0.5,149.5C -0.5,99.5 -0.5,49.5 -0.5,-0.5 Z"/></g>
<g><path style="opacity:1" fill="#bd302c" d="M 15.5,45.5 C 27.9529,50.8929 40.2862,56.5596 52.5,62.5C 53.4553,68.4093 53.7886,74.4093 53.5,80.5C 46.3795,77.7729 39.3795,74.7729 32.5,71.5C 31.791,70.596 30.791,70.2627 29.5,70.5C 29.1713,83.3443 29.5046,96.011 30.5,108.5C 38.0458,112.352 45.7125,116.019 53.5,119.5C 52.8833,125.598 53.55,131.265 55.5,136.5C 55.2648,137.097 54.7648,137.43 54,137.5C 40.1077,131.801 26.6077,125.468 13.5,118.5C 12.843,93.8104 13.5097,69.4771 15.5,45.5 Z"/></g>
<g><path style="opacity:1" fill="#d57a71" d="M 15.5,45.5 C 13.5097,69.4771 12.843,93.8104 13.5,118.5C 12.5023,94.0056 12.169,69.339 12.5,44.5C 13.791,44.2627 14.791,44.596 15.5,45.5 Z"/></g>
<g><path style="opacity:1" fill="#751c15" d="M 91.5,45.5 C 93.4904,69.8107 94.1571,94.4774 93.5,119.5C 80.8333,125.167 68.1667,130.833 55.5,136.5C 53.55,131.265 52.8833,125.598 53.5,119.5C 61.3984,115.925 69.2317,112.259 77,108.5C 77.8326,95.8202 77.666,83.1535 76.5,70.5C 68.9179,74.1268 61.2512,77.4601 53.5,80.5C 53.7886,74.4093 53.4553,68.4093 52.5,62.5C 65.6106,57.1119 78.6106,51.4453 91.5,45.5 Z"/></g>
<g><path style="opacity:1" fill="#fee8ea" d="M 190.5,44.5 C 190.56,43.9569 190.893,43.6236 191.5,43.5C 192.829,68.9968 192.829,94.3301 191.5,119.5C 191.831,94.3278 191.498,69.3278 190.5,44.5 Z"/></g>
<g><path style="opacity:1" fill="#702b24" d="M 91.5,45.5 C 91.8417,44.6618 92.5084,44.3284 93.5,44.5C 94.4977,68.9944 94.831,93.661 94.5,118.5C 94.5,119.167 94.1667,119.5 93.5,119.5C 94.1571,94.4774 93.4904,69.8107 91.5,45.5 Z"/></g>
<g><path style="opacity:1" fill="#f1d6ce" d="M 93.5,44.5 C 93.56,43.9569 93.8933,43.6236 94.5,43.5C 95.829,68.6634 95.829,93.6634 94.5,118.5C 94.831,93.661 94.4977,68.9944 93.5,44.5 Z"/></g>
<g><path style="opacity:1" fill="#b24146" d="M 190.5,44.5 C 191.498,69.3278 191.831,94.3278 191.5,119.5C 186.167,119.5 180.833,119.5 175.5,119.5C 175.5,119.167 175.5,118.833 175.5,118.5C 180.5,118.5 185.5,118.5 190.5,118.5C 191.157,94.1434 190.49,70.1434 188.5,46.5C 188.833,45.5 189.5,44.8333 190.5,44.5 Z"/></g>
<g><path style="opacity:1" fill="#c12127" d="M 188.5,46.5 C 190.49,70.1434 191.157,94.1434 190.5,118.5C 185.5,118.5 180.5,118.5 175.5,118.5C 175.833,104.484 175.499,90.4841 174.5,76.5C 173.893,76.6236 173.56,76.9569 173.5,77.5C 168.766,80.9527 163.932,84.286 159,87.5C 154.068,84.286 149.234,80.9527 144.5,77.5C 144.44,76.9569 144.107,76.6236 143.5,76.5C 142.501,90.4841 142.167,104.484 142.5,118.5C 137.167,118.5 131.833,118.5 126.5,118.5C 126.333,93.8311 126.5,69.1644 127,44.5C 137.667,52.5 148.333,60.5 159,68.5C 168.774,61.0358 178.607,53.7025 188.5,46.5 Z"/></g>
<g><path style="opacity:1" fill="#c12329" d="M 321.5,116.5 C 316.604,118.446 311.271,119.113 305.5,118.5C 303.974,114.615 302.308,110.781 300.5,107C 291.833,106.333 283.167,106.333 274.5,107C 272.69,110.786 271.023,114.619 269.5,118.5C 263.729,119.113 258.396,118.446 253.5,116.5C 262.064,96.3735 270.897,76.3735 280,56.5C 279.908,52.3794 279.075,48.3794 277.5,44.5C 282.544,44.1725 287.544,44.5059 292.5,45.5C 302.462,69.0849 312.129,92.7516 321.5,116.5 Z"/></g>
<g><path style="opacity:1" fill="#b75759" d="M 477.5,61.5 C 479.288,60.3775 481.288,60.2109 483.5,61C 482.004,63.2012 481.004,65.7012 480.5,68.5C 480.062,65.7051 479.062,63.3717 477.5,61.5 Z"/></g>
<g><path style="opacity:1" fill="#c8656c" d="M 484.5,60.5 C 485.5,60.5 486.5,60.5 487.5,60.5C 488.101,66.196 489.101,66.5293 490.5,61.5C 491.325,60.6143 492.325,60.281 493.5,60.5C 493.813,63.2469 493.48,65.9135 492.5,68.5C 491.719,67.2713 491.219,65.938 491,64.5C 490.19,69.0462 488.857,69.3795 487,65.5C 486.751,66.624 486.251,67.624 485.5,68.5C 484.52,65.9135 484.187,63.2469 484.5,60.5 Z"/></g>
<g><path style="opacity:1" fill="#fefcfc" d="M 53.5,119.5 C 45.7125,116.019 38.0458,112.352 30.5,108.5C 29.8536,95.788 30.5203,83.4547 32.5,71.5C 39.3795,74.7729 46.3795,77.7729 53.5,80.5C 61.2512,77.4601 68.9179,74.1268 76.5,70.5C 77.666,83.1535 77.8326,95.8202 77,108.5C 69.2317,112.259 61.3984,115.925 53.5,119.5 Z"/></g>
<g><path style="opacity:1" fill="#fdd1cf" d="M 32.5,71.5 C 30.5203,83.4547 29.8536,95.788 30.5,108.5C 29.5046,96.011 29.1713,83.3443 29.5,70.5C 30.791,70.2627 31.791,70.596 32.5,71.5 Z"/></g>
<g><path style="opacity:1" fill="#c02127" d="M 345.5,71.5 C 348.287,72.4767 351.287,72.81 354.5,72.5C 354.5,76.8333 354.5,81.1667 354.5,85.5C 351.5,85.5 348.5,85.5 345.5,85.5C 344.505,96.3206 344.172,107.321 344.5,118.5C 339.833,118.5 335.167,118.5 330.5,118.5C 330.5,107.5 330.5,96.5 330.5,85.5C 328.167,85.5 325.833,85.5 323.5,85.5C 323.5,80.8333 323.5,76.1667 323.5,71.5C 325.833,71.5 328.167,71.5 330.5,71.5C 329.147,52.019 338.147,43.1856 357.5,45C 359.651,45.2649 361.318,46.2649 362.5,48C 360.636,52.2275 358.636,56.3942 356.5,60.5C 346.691,57.641 343.024,61.3077 345.5,71.5 Z"/></g>
<g><path style="opacity:1" fill="#b14b52" d="M 345.5,71.5 C 348.833,71.5 352.167,71.5 355.5,71.5C 355.819,76.3633 355.486,81.03 354.5,85.5C 354.5,81.1667 354.5,76.8333 354.5,72.5C 351.287,72.81 348.287,72.4767 345.5,71.5 Z"/></g>
<g><path style="opacity:1" fill="#cf8483" d="M 144.5,77.5 C 143.504,91.3234 143.171,105.323 143.5,119.5C 137.642,119.822 131.975,119.489 126.5,118.5C 131.833,118.5 137.167,118.5 142.5,118.5C 142.167,104.484 142.501,90.4841 143.5,76.5C 144.107,76.6236 144.44,76.9569 144.5,77.5 Z"/></g>
<g><path style="opacity:1" fill="#fcf4f2" d="M 286.5,75.5 C 287.496,75.4142 288.329,75.7476 289,76.5C 290.704,81.4034 292.537,86.2367 294.5,91C 289.798,91.8283 285.131,91.6616 280.5,90.5C 283.28,85.8287 285.28,80.8287 286.5,75.5 Z"/></g>
<g><path style="opacity:1" fill="#c22027" d="M 478.5,86.5 C 478.5,89.5 478.5,92.5 478.5,95.5C 465.163,95.6666 451.829,95.4999 438.5,95C 437.333,94.5 436.5,93.6667 436,92.5C 435.751,93.624 435.251,94.624 434.5,95.5C 430.467,91.013 428.3,91.6797 428,97.5C 426.89,95.9632 425.39,95.2965 423.5,95.5C 423.336,92.8127 423.503,90.146 424,87.5C 425.583,85.0887 426.583,82.422 427,79.5C 427.333,80.1667 427.667,80.8333 428,81.5C 429.676,80.9389 431.009,79.9389 432,78.5C 432.49,79.7932 432.657,81.1266 432.5,82.5C 434.484,82.3832 436.15,83.0499 437.5,84.5C 445.725,85.1806 453.891,85.8473 462,86.5C 462.75,85.8742 463.584,85.3742 464.5,85C 463.223,81.7176 461.723,78.5509 460,75.5C 459.692,76.3081 459.192,76.9747 458.5,77.5C 455.242,75.3198 451.909,74.9864 448.5,76.5C 447.167,76.5 445.833,76.5 444.5,76.5C 442.876,76.3601 441.71,77.0267 441,78.5C 440.781,77.062 440.281,75.7287 439.5,74.5C 439.274,77.5812 437.608,78.0812 434.5,76C 433.221,73.5024 433.221,71.0024 434.5,68.5C 436.7,66.3596 439.367,64.8596 442.5,64C 457.812,60.9094 469.312,66.0761 477,79.5C 477.977,81.74 478.477,84.0733 478.5,86.5 Z"/></g>
<g><path style="opacity:1" fill="#ad4045" d="M 345.5,85.5 C 345.5,96.8333 345.5,108.167 345.5,119.5C 340.305,119.821 335.305,119.487 330.5,118.5C 335.167,118.5 339.833,118.5 344.5,118.5C 344.172,107.321 344.505,96.3206 345.5,85.5 Z"/></g>
<g><path style="opacity:1" fill="#d9888a" d="M 173.5,77.5 C 173.56,76.9569 173.893,76.6236 174.5,76.5C 175.499,90.4841 175.833,104.484 175.5,118.5C 175.5,118.833 175.5,119.167 175.5,119.5C 174.833,105.5 174.167,91.5 173.5,77.5 Z"/></g>
<g><path style="opacity:1" fill="#c0272b" d="M 434.5,68.5 C 433.221,71.0024 433.221,73.5024 434.5,76C 437.608,78.0812 439.274,77.5812 439.5,74.5C 440.281,75.7287 440.781,77.062 441,78.5C 441.71,77.0267 442.876,76.3601 444.5,76.5C 442.587,78.2911 440.92,80.2911 439.5,82.5C 438.957,82.56 438.624,82.8933 438.5,83.5C 446.323,84.8199 453.99,84.8199 461.5,83.5C 458.85,78.3707 454.517,76.0374 448.5,76.5C 451.909,74.9864 455.242,75.3198 458.5,77.5C 459.192,76.9747 459.692,76.3081 460,75.5C 461.723,78.5509 463.223,81.7176 464.5,85C 463.584,85.3742 462.75,85.8742 462,86.5C 453.891,85.8473 445.725,85.1806 437.5,84.5C 436.15,83.0499 434.484,82.3832 432.5,82.5C 432.657,81.1266 432.49,79.7932 432,78.5C 431.009,79.9389 429.676,80.9389 428,81.5C 427.667,80.8333 427.333,80.1667 427,79.5C 426.583,82.422 425.583,85.0887 424,87.5C 423.503,90.146 423.336,92.8127 423.5,95.5C 425.39,95.2965 426.89,95.9632 428,97.5C 428.3,91.6797 430.467,91.013 434.5,95.5C 435.251,94.624 435.751,93.624 436,92.5C 436.5,93.6667 437.333,94.5 438.5,95C 451.829,95.4999 465.163,95.6666 478.5,95.5C 478.5,92.5 478.5,89.5 478.5,86.5C 479.479,89.6248 479.813,92.9581 479.5,96.5C 465.833,96.5 452.167,96.5 438.5,96.5C 438.263,97.791 438.596,98.791 439.5,99.5C 446.341,108.044 454.008,108.711 462.5,101.5C 466.828,103.329 470.828,105.662 474.5,108.5C 462.234,120.827 448.568,122.661 433.5,114C 421.842,103.363 419.342,90.8631 426,76.5C 428.068,72.9295 430.901,70.2629 434.5,68.5 Z"/></g>
<g><path style="opacity:1" fill="#f0c8cd" d="M 439.5,82.5 C 446.648,83.4916 453.981,83.825 461.5,83.5C 453.99,84.8199 446.323,84.8199 438.5,83.5C 438.624,82.8933 438.957,82.56 439.5,82.5 Z"/></g>
<g><path style="opacity:1" fill="#fdf8f8" d="M 444.5,76.5 C 445.833,76.5 447.167,76.5 448.5,76.5C 454.517,76.0374 458.85,78.3707 461.5,83.5C 453.981,83.825 446.648,83.4916 439.5,82.5C 440.92,80.2911 442.587,78.2911 444.5,76.5 Z"/></g>
<g><path style="opacity:1" fill="#f0b3b6" d="M 416.5,86.5 C 417.482,89.9619 417.815,93.6286 417.5,97.5C 403.833,97.5 390.167,97.5 376.5,97.5C 389.656,96.5044 402.99,96.1711 416.5,96.5C 416.5,93.1667 416.5,89.8333 416.5,86.5 Z"/></g>
<g><path style="opacity:1" fill="#f8c0bf" d="M 479.5,96.5 C 465.969,96.8395 452.635,97.8395 439.5,99.5C 438.596,98.791 438.263,97.791 438.5,96.5C 452.167,96.5 465.833,96.5 479.5,96.5 Z"/></g>
<g><path style="opacity:1" fill="#c12328" d="M 416.5,86.5 C 416.5,89.8333 416.5,93.1667 416.5,96.5C 402.99,96.1711 389.656,96.5044 376.5,97.5C 380.025,104.596 385.692,107.429 393.5,106C 396.225,104.87 398.725,103.37 401,101.5C 404.232,103.2 407.399,105.034 410.5,107C 411.451,107.718 411.617,108.551 411,109.5C 407.709,113.561 403.543,116.227 398.5,117.5C 393.848,117.998 389.181,118.331 384.5,118.5C 365.447,114.104 357.614,102.104 361,82.5C 367.834,66.9977 379.668,60.8311 396.5,64C 407.616,67.6125 414.283,75.1125 416.5,86.5 Z"/></g>
<g><path style="opacity:1" fill="#e7c2be" d="M 377.5,82.5 C 384.648,83.4916 391.981,83.825 399.5,83.5C 396.591,84.2022 392.925,84.5355 388.5,84.5C 384.5,84.1667 380.5,83.8333 376.5,83.5C 376.624,82.8933 376.957,82.56 377.5,82.5 Z"/></g>
<g><path style="opacity:1" fill="#fdf8f5" d="M 399.5,83.5 C 391.981,83.825 384.648,83.4916 377.5,82.5C 378.254,79.909 379.921,78.0757 382.5,77C 387.403,76.0631 392.07,76.7298 396.5,79C 398.141,80.129 399.141,81.629 399.5,83.5 Z"/></g>
<g><path style="opacity:1" fill="#c12429" d="M 222.5,62.5 C 235.542,61.1884 245.542,66.0218 252.5,77C 248.668,79.7503 244.668,82.2503 240.5,84.5C 235.479,77.2151 228.812,75.0484 220.5,78C 213.436,83.2588 211.603,90.0921 215,98.5C 223.823,108.022 232.323,107.689 240.5,97.5C 244.668,99.7497 248.668,102.25 252.5,105C 240.78,120.178 226.447,123.178 209.5,114C 197.844,103.323 195.344,90.8235 202,76.5C 206.962,68.9472 213.795,64.2805 222.5,62.5 Z"/></g>
<g><path style="opacity:1" fill="#bb5559" d="M 253.5,116.5 C 258.396,118.446 263.729,119.113 269.5,118.5C 264.025,119.489 258.358,119.822 252.5,119.5C 252.263,118.209 252.596,117.209 253.5,116.5 Z"/></g>
<g><path style="opacity:1" fill="#bb5354" d="M 321.5,116.5 C 322.404,117.209 322.737,118.209 322.5,119.5C 316.642,119.822 310.975,119.489 305.5,118.5C 311.271,119.113 316.604,118.446 321.5,116.5 Z"/></g>
<g><path style="opacity:1" fill="#be5655" d="M 398.5,117.5 C 393.928,119.558 389.262,119.891 384.5,118.5C 389.181,118.331 393.848,117.998 398.5,117.5 Z"/></g>
</svg>
