<?xml version="1.0" encoding="UTF-8"?>
<!DOCTYPE svg PUBLIC "-//W3C//DTD SVG 1.1//EN" "http://www.w3.org/Graphics/SVG/1.1/DTD/svg11.dtd">
<svg xmlns="http://www.w3.org/2000/svg" version="1.1" width="270px" height="238px" style="shape-rendering:geometricPrecision; text-rendering:geometricPrecision; image-rendering:optimizeQuality; fill-rule:evenodd; clip-rule:evenodd" xmlns:xlink="http://www.w3.org/1999/xlink">
<g><path style="opacity:1" fill="#030202" d="M -0.5,-0.5 C 11.5,-0.5 23.5,-0.5 35.5,-0.5C 31.9252,1.28739 28.2585,3.12073 24.5,5C 22.9586,6.37121 21.6253,7.87121 20.5,9.5C 17.183,12.1301 14.8497,15.4635 13.5,19.5C 12.596,20.209 12.2627,21.209 12.5,22.5C 11.5655,23.5676 11.2322,24.901 11.5,26.5C 10.0227,30.2335 9.18939,34.2335 9,38.5C 8.1728,52.3396 8.33947,66.0062 9.5,79.5C 9.21886,107.185 9.5522,134.852 10.5,162.5C 10.5,167.167 10.5,171.833 10.5,176.5C 10.5,184.167 10.5,191.833 10.5,199.5C 10.5,212.167 10.5,224.833 10.5,237.5C 6.83333,237.5 3.16667,237.5 -0.5,237.5C -0.5,158.167 -0.5,78.8333 -0.5,-0.5 Z"/></g>
<g><path style="opacity:1" fill="#010000" d="M 76.5,-0.5 C 140.833,-0.5 205.167,-0.5 269.5,-0.5C 269.5,25.1667 269.5,50.8333 269.5,76.5C 259.104,79.9655 248.771,83.6321 238.5,87.5C 237.818,86.7573 237.151,86.0906 236.5,85.5C 231.393,71.7292 222.393,61.3959 209.5,54.5C 204.88,51.6947 199.88,49.6947 194.5,48.5C 189.284,45.2021 183.617,42.8688 177.5,41.5C 164.609,35.0541 151.275,29.7208 137.5,25.5C 117.221,16.6818 96.8874,8.01509 76.5,-0.5 Z"/></g>
<g><path style="opacity:1" fill="#67635d" d="M 35.5,-0.5 C 37.1667,-0.5 38.8333,-0.5 40.5,-0.5C 38.8729,1.62976 37.0396,3.62976 35,5.5C 34.6667,4.83333 34.3333,4.16667 34,3.5C 29.8448,6.12435 25.3448,8.12435 20.5,9.5C 21.6253,7.87121 22.9586,6.37121 24.5,5C 28.2585,3.12073 31.9252,1.28739 35.5,-0.5 Z"/></g>
<g><path style="opacity:1" fill="#afa89d" d="M 46.5,-0.5 C 54.8333,-0.5 63.1667,-0.5 71.5,-0.5C 71.5,-0.166667 71.5,0.166667 71.5,0.5C 71.9175,1.22158 72.5842,1.72158 73.5,2C 68.863,2.14584 64.1963,3.14584 59.5,5C 58.5,6 57.5,7 56.5,8C 62.5,8.33333 68.5,8.66667 74.5,9C 75.5707,9.85175 76.5707,10.6851 77.5,11.5C 73.471,11.047 69.471,10.3803 65.5,9.5C 60.1924,9.82136 55.5257,11.6547 51.5,15C 52.4581,16.1475 52.1247,17.1475 50.5,18C 52.0369,20.6119 54.0369,21.1119 56.5,19.5C 52.4918,22.3698 48.6585,25.7031 45,29.5C 42.1359,38.9596 40.9692,48.6263 41.5,58.5C 38.5351,43.3217 40.8684,28.9883 48.5,15.5C 46.4028,15.0033 44.5695,14.67 43,14.5C 39.9284,20.9322 37.4284,27.2655 35.5,33.5C 35.8333,34.1667 36.1667,34.8333 36.5,35.5C 35.7695,38.1092 35.2695,40.7759 35,43.5C 34.5001,58.8297 34.3334,74.163 34.5,89.5C 34.6666,110.169 34.5,130.836 34,151.5C 33.8227,155.356 33.3227,159.023 32.5,162.5C 32.3333,118.832 32.5,75.1654 33,31.5C 32.951,18.631 37.451,7.96438 46.5,-0.5 Z"/></g>
<g><path style="opacity:1" fill="#6f6a64" d="M 71.5,0.5 C 71.5,0.166667 71.5,-0.166667 71.5,-0.5C 73.1667,-0.5 74.8333,-0.5 76.5,-0.5C 96.8874,8.01509 117.221,16.6818 137.5,25.5C 135.784,25.3713 134.117,25.038 132.5,24.5C 112.307,16.1031 91.9734,8.10309 71.5,0.5 Z"/></g>
<g><path style="opacity:1" fill="#d6cfc8" d="M 40.5,-0.5 C 41.8333,-0.5 43.1667,-0.5 44.5,-0.5C 39.9525,3.21683 36.7859,7.8835 35,13.5C 33.587,17.7387 32.587,22.0721 32,26.5C 31.8285,33.6787 31.3285,40.6787 30.5,47.5C 29.5,47.5 28.5,47.5 27.5,47.5C 27.5,42.1667 27.5,36.8333 27.5,31.5C 27.431,26.3844 28.0976,21.3844 29.5,16.5C 31.0334,12.3866 30.3667,11.8866 27.5,15C 22.7695,16.2441 18.2695,18.0774 14,20.5C 13.6012,20.2716 13.4346,19.9382 13.5,19.5C 14.8497,15.4635 17.183,12.1301 20.5,9.5C 25.3448,8.12435 29.8448,6.12435 34,3.5C 34.3333,4.16667 34.6667,4.83333 35,5.5C 37.0396,3.62976 38.8729,1.62976 40.5,-0.5 Z"/></g>
<g><path style="opacity:1" fill="#c5bbaf" d="M 71.5,0.5 C 91.9734,8.10309 112.307,16.1031 132.5,24.5C 132.389,25.1174 132.056,25.6174 131.5,26C 135.118,26.1288 136.785,27.9621 136.5,31.5C 145.049,34.2487 150.716,39.9154 153.5,48.5C 146.746,41.2817 138.746,35.7817 129.5,32C 112.186,24.8512 94.8522,18.0179 77.5,11.5C 76.5707,10.6851 75.5707,9.85175 74.5,9C 68.5,8.66667 62.5,8.33333 56.5,8C 57.5,7 58.5,6 59.5,5C 64.1963,3.14584 68.863,2.14584 73.5,2C 72.5842,1.72158 71.9175,1.22158 71.5,0.5 Z"/></g>
<g><path style="opacity:1" fill="#716b64" d="M 29.5,16.5 C 29.5654,16.0618 29.3988,15.7284 29,15.5C 24.9889,18.9506 20.4889,21.6172 15.5,23.5C 14.3366,22.944 13.3366,22.6107 12.5,22.5C 12.2627,21.209 12.596,20.209 13.5,19.5C 13.4346,19.9382 13.6012,20.2716 14,20.5C 18.2695,18.0774 22.7695,16.2441 27.5,15C 30.3667,11.8866 31.0334,12.3866 29.5,16.5 Z"/></g>
<g><path style="opacity:1" fill="#4c453f" d="M 29.5,16.5 C 28.0976,21.3844 27.431,26.3844 27.5,31.5C 26.0322,32.8057 24.6988,34.3057 23.5,36C 22.5509,36.6172 21.7175,36.4506 21,35.5C 20.6667,36.5 20.3333,37.5 20,38.5C 18.7318,38.3842 17.3985,38.0509 16,37.5C 15.6827,39.3008 15.016,39.6341 14,38.5C 13.2904,39.9733 12.1238,40.6399 10.5,40.5C 10.9071,36.797 11.5737,33.1303 12.5,29.5C 12.315,28.4163 11.9817,27.4163 11.5,26.5C 11.2322,24.901 11.5655,23.5676 12.5,22.5C 13.3366,22.6107 14.3366,22.944 15.5,23.5C 20.4889,21.6172 24.9889,18.9506 29,15.5C 29.3988,15.7284 29.5654,16.0618 29.5,16.5 Z"/></g>
<g><path style="opacity:1" fill="#655e59" d="M 137.5,25.5 C 151.275,29.7208 164.609,35.0541 177.5,41.5C 163.704,37.1281 150.371,31.7948 137.5,25.5 Z"/></g>
<g><path style="opacity:1" fill="#ddd8cc" d="M 66.5,22.5 C 63.4731,24.529 61.1398,27.1956 59.5,30.5C 60.4135,35.7195 61.5801,35.7195 63,30.5C 63.1699,32.8454 62.8365,35.1788 62,37.5C 61.7917,43.6937 61.625,49.6937 61.5,55.5C 61.0371,52.5176 60.7038,49.5176 60.5,46.5C 60.665,43.1501 60.4983,39.8168 60,36.5C 58.5599,42.9607 57.5599,42.9607 57,36.5C 56.187,38.4357 55.687,40.4357 55.5,42.5C 54.6981,43.9516 54.1981,45.6183 54,47.5C 51.5037,36.1884 55.337,27.5217 65.5,21.5C 66.1067,21.6236 66.44,21.9569 66.5,22.5 Z"/></g>
<g><path style="opacity:1" fill="#b6aca0" d="M 132.5,24.5 C 134.117,25.038 135.784,25.3713 137.5,25.5C 150.371,31.7948 163.704,37.1281 177.5,41.5C 182.86,44.4027 188.527,46.736 194.5,48.5C 199.117,51.2656 204.117,53.2656 209.5,54.5C 222.393,61.3959 231.393,71.7292 236.5,85.5C 236.586,86.4959 236.252,87.3292 235.5,88C 227.833,91 220.167,94 212.5,97C 209.079,98.6985 206.079,100.865 203.5,103.5C 201.563,102.41 199.73,101.076 198,99.5C 195.619,100.435 193.119,100.768 190.5,100.5C 190.5,98.8333 190.5,97.1667 190.5,95.5C 187.948,95.6455 185.615,96.1455 183.5,97C 183.833,96.6667 184.167,96.3333 184.5,96C 181.962,93.3968 179.962,91.0635 178.5,89C 178.86,87.3485 179.193,85.6818 179.5,84C 176.078,83.3264 172.911,82.1598 170,80.5C 169.002,85.6037 168.169,90.6037 167.5,95.5C 167.324,88.0954 166.491,80.7621 165,73.5C 164.245,69.4202 162.745,65.7536 160.5,62.5C 158.678,57.5232 156.345,52.8566 153.5,48.5C 150.716,39.9154 145.049,34.2487 136.5,31.5C 136.785,27.9621 135.118,26.1288 131.5,26C 132.056,25.6174 132.389,25.1174 132.5,24.5 Z"/></g>
<g><path style="opacity:1" fill="#5e5851" d="M 177.5,41.5 C 183.617,42.8688 189.284,45.2021 194.5,48.5C 188.527,46.736 182.86,44.4027 177.5,41.5 Z"/></g>
<g><path style="opacity:1" fill="#bcb5a9" d="M 66.5,22.5 C 66.44,21.9569 66.1067,21.6236 65.5,21.5C 55.337,27.5217 51.5037,36.1884 54,47.5C 54.1981,45.6183 54.6981,43.9516 55.5,42.5C 55.5,46.1667 55.5,49.8333 55.5,53.5C 54.8365,55.0419 54.1698,56.7086 53.5,58.5C 52.3325,53.7348 51.3325,49.0682 50.5,44.5C 50.7084,39.3344 51.7084,34.3344 53.5,29.5C 53.1667,28.5 52.8333,27.5 52.5,26.5C 49.6796,30.1113 47.5129,34.1113 46,38.5C 45.5,69.1649 45.3334,99.8315 45.5,130.5C 44.2502,130.423 43.4169,129.756 43,128.5C 42.6667,126.167 42.3333,123.833 42,121.5C 41.5,100.503 41.3334,79.5026 41.5,58.5C 40.9692,48.6263 42.1359,38.9596 45,29.5C 48.6585,25.7031 52.4918,22.3698 56.5,19.5C 60.1993,15.2112 64.866,13.3779 70.5,14C 67.8232,14.2494 65.4899,15.2494 63.5,17C 65.7271,17.121 67.5604,17.9544 69,19.5C 69.7175,18.5494 70.5509,18.3828 71.5,19C 69.8043,20.1764 68.1376,21.343 66.5,22.5 Z"/></g>
<g><path style="opacity:1" fill="#928b84" d="M 27.5,31.5 C 27.5,36.8333 27.5,42.1667 27.5,47.5C 28.5,47.5 29.5,47.5 30.5,47.5C 30.5,49.1667 30.5,50.8333 30.5,52.5C 29.5,52.5 28.5,52.5 27.5,52.5C 27.5,51.1667 27.5,49.8333 27.5,48.5C 21.737,50.2143 16.0703,52.2143 10.5,54.5C 10.5,49.8333 10.5,45.1667 10.5,40.5C 12.1238,40.6399 13.2904,39.9733 14,38.5C 15.016,39.6341 15.6827,39.3008 16,37.5C 17.3985,38.0509 18.7318,38.3842 20,38.5C 20.3333,37.5 20.6667,36.5 21,35.5C 21.7175,36.4506 22.5509,36.6172 23.5,36C 24.6988,34.3057 26.0322,32.8057 27.5,31.5 Z"/></g>
<g><path style="opacity:1" fill="#b4aea2" d="M 134.5,45.5 C 131.665,43.0825 128.831,43.0825 126,45.5C 124.691,49.6171 123.191,53.6171 121.5,57.5C 121.667,58.5 121.833,59.5 122,60.5C 123.122,57.9237 124.122,55.257 125,52.5C 125.497,54.8098 125.663,57.1432 125.5,59.5C 124.37,61.6684 124.37,64.0017 125.5,66.5C 124.552,70.4185 123.385,70.4185 122,66.5C 121.226,62.853 120.559,59.1864 120,55.5C 118.883,56.9494 118.216,58.6161 118,60.5C 117.661,56.3317 115.828,52.9984 112.5,50.5C 111.702,50.9569 111.369,51.6236 111.5,52.5C 110.797,50.3713 109.797,48.3713 108.5,46.5C 106.61,39.5528 103.276,33.3861 98.5,28C 112.037,32.7454 125.371,38.412 138.5,45C 137.207,45.49 135.873,45.6567 134.5,45.5 Z"/></g>
<g><path style="opacity:1" fill="#282521" d="M 11.5,26.5 C 11.9817,27.4163 12.315,28.4163 12.5,29.5C 11.5737,33.1303 10.9071,36.797 10.5,40.5C 10.5,45.1667 10.5,49.8333 10.5,54.5C 10.5,56.1667 10.5,57.8333 10.5,59.5C 9.50929,65.979 9.17596,72.6457 9.5,79.5C 8.33947,66.0062 8.1728,52.3396 9,38.5C 9.18939,34.2335 10.0227,30.2335 11.5,26.5 Z"/></g>
<g><path style="opacity:1" fill="#59524e" d="M 194.5,48.5 C 199.88,49.6947 204.88,51.6947 209.5,54.5C 204.117,53.2656 199.117,51.2656 194.5,48.5 Z"/></g>
<g><path style="opacity:1" fill="#787067" d="M 27.5,52.5 C 21.7148,54.5597 16.0482,56.893 10.5,59.5C 10.5,57.8333 10.5,56.1667 10.5,54.5C 16.0703,52.2143 21.737,50.2143 27.5,48.5C 27.5,49.8333 27.5,51.1667 27.5,52.5 Z"/></g>
<g><path style="opacity:1" fill="#d3cfc3" d="M 134.5,45.5 C 136.603,46.5825 138.936,48.2491 141.5,50.5C 141.389,51.1174 141.056,51.6174 140.5,52C 142.127,54.7542 143.627,57.5875 145,60.5C 145.333,59.8333 145.667,59.1667 146,58.5C 146.333,61.8333 146.667,65.1667 147,68.5C 147.556,66.4049 148.056,66.2382 148.5,68C 148.257,68.9021 147.923,69.7354 147.5,70.5C 144.091,76.3121 139.757,76.9788 134.5,72.5C 132.5,70.329 130.666,67.9957 129,65.5C 128.683,67.3008 128.016,67.6341 127,66.5C 126.023,64.26 125.523,61.9267 125.5,59.5C 125.663,57.1432 125.497,54.8098 125,52.5C 124.122,55.257 123.122,57.9237 122,60.5C 121.833,59.5 121.667,58.5 121.5,57.5C 123.191,53.6171 124.691,49.6171 126,45.5C 128.831,43.0825 131.665,43.0825 134.5,45.5 Z"/></g>
<g><path style="opacity:1" fill="#a09c8f" d="M 125.5,59.5 C 125.523,61.9267 126.023,64.26 127,66.5C 128.016,67.6341 128.683,67.3008 129,65.5C 130.666,67.9957 132.5,70.329 134.5,72.5C 133.778,72.9175 133.278,73.5842 133,74.5C 132.035,72.7397 130.868,72.4063 129.5,73.5C 129.778,76.6955 131.445,78.6955 134.5,79.5C 129.204,82.3004 124.037,85.3004 119,88.5C 115.925,88.3677 113.258,89.701 111,92.5C 106.657,99.5396 104.657,107.206 105,115.5C 103.927,115.799 102.76,115.799 101.5,115.5C 101.176,106.473 103.842,98.4733 109.5,91.5C 108.098,90.1575 108.431,89.3242 110.5,89C 109.167,88.3333 108.167,87.3333 107.5,86C 108.711,84.8869 108.711,83.7202 107.5,82.5C 112.246,72.9689 113.579,62.9689 111.5,52.5C 111.369,51.6236 111.702,50.9569 112.5,50.5C 115.828,52.9984 117.661,56.3317 118,60.5C 118.216,58.6161 118.883,56.9494 120,55.5C 120.559,59.1864 121.226,62.853 122,66.5C 123.385,70.4185 124.552,70.4185 125.5,66.5C 124.37,64.0017 124.37,61.6684 125.5,59.5 Z"/></g>
<g><path style="opacity:1" fill="#a8a296" d="M 160.5,62.5 C 164.883,77.7925 166.383,93.4591 165,109.5C 163.991,107.975 163.491,106.308 163.5,104.5C 163.929,95.4046 163.262,86.4046 161.5,77.5C 161.167,76.8333 160.833,76.1667 160.5,75.5C 160.167,76.5 159.833,77.5 159.5,78.5C 160.381,85.136 160.714,91.8027 160.5,98.5C 155.584,90.7564 148.918,84.923 140.5,81C 145.499,79.9283 148.166,76.7616 148.5,71.5C 148.376,70.8933 148.043,70.56 147.5,70.5C 147.923,69.7354 148.257,68.9021 148.5,68C 148.056,66.2382 147.556,66.4049 147,68.5C 146.667,65.1667 146.333,61.8333 146,58.5C 145.667,59.1667 145.333,59.8333 145,60.5C 143.627,57.5875 142.127,54.7542 140.5,52C 141.056,51.6174 141.389,51.1174 141.5,50.5C 143.144,52.4807 144.81,54.4807 146.5,56.5C 146.723,55.0333 147.056,53.5333 147.5,52C 146.672,51.0853 145.672,50.4186 144.5,50C 146.022,48.4188 147.689,47.4188 149.5,47C 151.971,51.4303 154.471,56.2637 157,61.5C 158.011,62.3366 159.178,62.67 160.5,62.5 Z"/></g>
<g><path style="opacity:1" fill="#554e46" d="M 60.5,46.5 C 60.7038,49.5176 61.0371,52.5176 61.5,55.5C 64.4357,68.4028 71.1024,78.7362 81.5,86.5C 81.44,87.0431 81.1067,87.3764 80.5,87.5C 77.6594,86.0254 74.6594,84.8587 71.5,84C 68.5862,80.5996 65.9195,77.0996 63.5,73.5C 60.9054,67.7162 58.9054,61.7162 57.5,55.5C 58.9736,53.2546 59.9736,50.2546 60.5,46.5 Z"/></g>
<g><path style="opacity:1" fill="#898478" d="M 60.5,46.5 C 59.9736,50.2546 58.9736,53.2546 57.5,55.5C 58.9054,61.7162 60.9054,67.7162 63.5,73.5C 63.1961,74.1499 62.8627,74.8165 62.5,75.5C 64.9043,78.0809 65.9043,80.9142 65.5,84C 66.7892,86.0346 67.7892,88.2012 68.5,90.5C 64.714,89.6375 62.214,87.3042 61,83.5C 57.8161,73.7474 55.9828,63.7474 55.5,53.5C 55.5,49.8333 55.5,46.1667 55.5,42.5C 55.687,40.4357 56.187,38.4357 57,36.5C 57.5599,42.9607 58.5599,42.9607 60,36.5C 60.4983,39.8168 60.665,43.1501 60.5,46.5 Z"/></g>
<g><path style="opacity:1" fill="#0e0c0b" d="M 269.5,78.5 C 269.5,80.8333 269.5,83.1667 269.5,85.5C 252.623,90.9393 235.957,96.9393 219.5,103.5C 205.459,107.344 195.792,116.011 190.5,129.5C 187.565,136.504 185.898,143.837 185.5,151.5C 185.5,165.833 185.5,180.167 185.5,194.5C 185.5,208.833 185.5,223.167 185.5,237.5C 183.833,237.5 182.167,237.5 180.5,237.5C 180.5,210.5 180.5,183.5 180.5,156.5C 180.377,150.394 181.044,144.394 182.5,138.5C 183.75,135.994 184.416,133.327 184.5,130.5C 188.611,120.078 194.944,111.411 203.5,104.5C 206.864,101.873 210.531,99.7062 214.5,98C 232.657,91.0031 250.991,84.5031 269.5,78.5 Z"/></g>
<g><path style="opacity:1" fill="#9b968c" d="M 77.5,11.5 C 94.8522,18.0179 112.186,24.8512 129.5,32C 138.746,35.7817 146.746,41.2817 153.5,48.5C 156.345,52.8566 158.678,57.5232 160.5,62.5C 159.178,62.67 158.011,62.3366 157,61.5C 154.471,56.2637 151.971,51.4303 149.5,47C 147.689,47.4188 146.022,48.4188 144.5,50C 145.672,50.4186 146.672,51.0853 147.5,52C 147.056,53.5333 146.723,55.0333 146.5,56.5C 144.81,54.4807 143.144,52.4807 141.5,50.5C 138.936,48.2491 136.603,46.5825 134.5,45.5C 135.873,45.6567 137.207,45.49 138.5,45C 125.371,38.412 112.037,32.7454 98.5,28C 103.276,33.3861 106.61,39.5528 108.5,46.5C 111.732,58.7847 111.065,70.7847 106.5,82.5C 104.37,84.1271 102.37,85.9604 100.5,88C 93.7159,90.9357 86.7159,92.6024 79.5,93C 77.5,92 75.5,91 73.5,90C 74.5,89.5 75.5,89 76.5,88.5C 79.7786,88.3678 83.1119,88.5344 86.5,89C 84.8068,88.1534 83.1401,87.3201 81.5,86.5C 71.1024,78.7362 64.4357,68.4028 61.5,55.5C 61.625,49.6937 61.7917,43.6937 62,37.5C 62.8365,35.1788 63.1699,32.8454 63,30.5C 61.5801,35.7195 60.4135,35.7195 59.5,30.5C 61.1398,27.1956 63.4731,24.529 66.5,22.5C 68.1376,21.343 69.8043,20.1764 71.5,19C 70.5509,18.3828 69.7175,18.5494 69,19.5C 67.5604,17.9544 65.7271,17.121 63.5,17C 65.4899,15.2494 67.8232,14.2494 70.5,14C 64.866,13.3779 60.1993,15.2112 56.5,19.5C 54.0369,21.1119 52.0369,20.6119 50.5,18C 52.1247,17.1475 52.4581,16.1475 51.5,15C 55.5257,11.6547 60.1924,9.82136 65.5,9.5C 69.471,10.3803 73.471,11.047 77.5,11.5 Z"/></g>
<g><path style="opacity:1" fill="#504e4a" d="M 108.5,56.5 C 110.101,63.5057 109.101,70.1724 105.5,76.5C 104.957,76.44 104.624,76.1067 104.5,75.5C 106.626,69.3294 107.959,62.9961 108.5,56.5 Z"/></g>
<g><path style="opacity:1" fill="#242527" d="M 108.5,56.5 C 107.959,62.9961 106.626,69.3294 104.5,75.5C 104.624,76.1067 104.957,76.44 105.5,76.5C 99.4535,86.1118 91.4535,87.9451 81.5,82C 64.1382,66.7161 60.3048,48.5494 70,27.5C 77.2621,21.0843 84.7621,20.9176 92.5,27C 101.634,34.7678 106.967,44.6011 108.5,56.5 Z"/></g>
<g><path style="opacity:1" fill="#333239" d="M 74.5,39.5 C 78.9104,39.0307 82.9104,40.0307 86.5,42.5C 96.3605,52.9765 98.3605,64.6432 92.5,77.5C 82.6938,76.2161 75.8605,70.8828 72,61.5C 69.7364,55.3375 69.0697,49.0042 70,42.5C 71.6516,41.6006 73.1516,40.6006 74.5,39.5 Z"/></g>
<g><path style="opacity:1" fill="#47464a" d="M 78.5,46.5 C 81.7845,46.2693 84.2845,47.6026 86,50.5C 89.2347,57.4808 87.9013,62.1474 82,64.5C 80.9326,63.8095 79.7659,63.3095 78.5,63C 84.539,60.7939 84.8723,59.1272 79.5,58C 79.8333,57.6667 80.1667,57.3333 80.5,57C 78.5,56.6667 76.5,56.3333 74.5,56C 75.1905,54.9326 75.6905,53.7659 76,52.5C 77.5069,53.5348 79.0069,53.3681 80.5,52C 79.552,51.5172 78.552,51.3505 77.5,51.5C 77.6287,49.7839 77.962,48.1172 78.5,46.5 Z"/></g>
<g><path style="opacity:1" fill="#dad1c5" d="M 50.5,44.5 C 50.5,48.5 50.5,52.5 50.5,56.5C 49.7784,56.9175 49.2784,57.5842 49,58.5C 48.2582,82.0078 48.4249,105.508 49.5,129C 49.3333,131.833 49.1667,134.667 49,137.5C 48.6667,138.167 48.3333,138.833 48,139.5C 47.7216,138.584 47.2216,137.918 46.5,137.5C 45.6314,135.283 45.298,132.95 45.5,130.5C 45.3334,99.8315 45.5,69.1649 46,38.5C 47.5129,34.1113 49.6796,30.1113 52.5,26.5C 52.8333,27.5 53.1667,28.5 53.5,29.5C 51.7084,34.3344 50.7084,39.3344 50.5,44.5 Z"/></g>
<g><path style="opacity:1" fill="#898579" d="M 108.5,46.5 C 109.797,48.3713 110.797,50.3713 111.5,52.5C 113.579,62.9689 112.246,72.9689 107.5,82.5C 108.711,83.7202 108.711,84.8869 107.5,86C 108.167,87.3333 109.167,88.3333 110.5,89C 108.431,89.3242 108.098,90.1575 109.5,91.5C 103.842,98.4733 101.176,106.473 101.5,115.5C 97.2058,111.026 92.5391,107.026 87.5,103.5C 87.0825,102.778 86.4158,102.278 85.5,102C 88.5,101.667 91.5,101.333 94.5,101C 86.1661,100.479 85.8328,99.8128 93.5,99C 95.4682,97.4558 97.6349,96.2891 100,95.5C 103.397,91.3761 105.564,87.0428 106.5,82.5C 111.065,70.7847 111.732,58.7847 108.5,46.5 Z"/></g>
<g><path style="opacity:1" fill="#86807a" d="M 269.5,76.5 C 269.5,77.1667 269.5,77.8333 269.5,78.5C 250.991,84.5031 232.657,91.0031 214.5,98C 210.531,99.7062 206.864,101.873 203.5,104.5C 203.5,104.167 203.5,103.833 203.5,103.5C 206.079,100.865 209.079,98.6985 212.5,97C 220.167,94 227.833,91 235.5,88C 236.252,87.3292 236.586,86.4959 236.5,85.5C 237.151,86.0906 237.818,86.7573 238.5,87.5C 248.771,83.6321 259.104,79.9655 269.5,76.5 Z"/></g>
<g><path style="opacity:1" fill="#050303" d="M 269.5,93.5 C 269.5,102.167 269.5,110.833 269.5,119.5C 265.417,121.696 261.084,122.529 256.5,122C 254.93,120.603 253.596,119.103 252.5,117.5C 252.5,114.833 252.5,112.167 252.5,109.5C 254.242,100.094 259.908,94.7604 269.5,93.5 Z"/></g>
<g><path style="opacity:1" fill="#787369" d="M 63.5,73.5 C 65.9195,77.0996 68.5862,80.5996 71.5,84C 74.6594,84.8587 77.6594,86.0254 80.5,87.5C 81.1067,87.3764 81.44,87.0431 81.5,86.5C 83.1401,87.3201 84.8068,88.1534 86.5,89C 83.1119,88.5344 79.7786,88.3678 76.5,88.5C 75.5,89 74.5,89.5 73.5,90C 75.5,91 77.5,92 79.5,93C 86.7159,92.6024 93.7159,90.9357 100.5,88C 102.37,85.9604 104.37,84.1271 106.5,82.5C 105.564,87.0428 103.397,91.3761 100,95.5C 97.6349,96.2891 95.4682,97.4558 93.5,99C 85.8328,99.8128 86.1661,100.479 94.5,101C 91.5,101.333 88.5,101.667 85.5,102C 86.4158,102.278 87.0825,102.778 87.5,103.5C 83.181,102.965 78.8477,102.465 74.5,102C 76.6314,101.457 78.6314,100.624 80.5,99.5C 79.624,98.7492 78.624,98.2492 77.5,98C 78.056,97.6174 78.3893,97.1174 78.5,96.5C 79.9778,96.762 81.3112,96.4287 82.5,95.5C 77.3524,95.0076 72.6857,93.341 68.5,90.5C 67.7892,88.2012 66.7892,86.0346 65.5,84C 65.9043,80.9142 64.9043,78.0809 62.5,75.5C 62.8627,74.8165 63.1961,74.1499 63.5,73.5 Z"/></g>
<g><path style="opacity:1" fill="#989289" d="M 78.5,96.5 C 78.3893,97.1174 78.056,97.6174 77.5,98C 78.624,98.2492 79.624,98.7492 80.5,99.5C 78.6314,100.624 76.6314,101.457 74.5,102C 78.8477,102.465 83.181,102.965 87.5,103.5C 92.5391,107.026 97.2058,111.026 101.5,115.5C 105.931,122.954 109.098,130.954 111,139.5C 111.823,145.629 111.323,151.629 109.5,157.5C 108.007,163.158 105.007,167.825 100.5,171.5C 98.7028,172.73 96.7028,173.396 94.5,173.5C 90.815,173.895 87.1483,174.062 83.5,174C 84.8333,173.667 86.1667,173.333 87.5,173C 85.1457,172.153 82.8123,171.32 80.5,170.5C 69.4128,160.665 62.7461,148.332 60.5,133.5C 60.4953,125.405 62.4953,117.738 66.5,110.5C 65.8333,110.167 65.1667,109.833 64.5,109.5C 64.8627,108.817 65.1961,108.15 65.5,107.5C 67.9639,105.43 70.6305,103.596 73.5,102C 71.6675,101.252 70.0009,100.252 68.5,99C 69.6405,98.2588 69.6405,97.4255 68.5,96.5C 71.7395,96.0244 75.0729,96.0244 78.5,96.5 Z"/></g>
<g><path style="opacity:1" fill="#a49f93" d="M 41.5,58.5 C 41.3334,79.5026 41.5,100.503 42,121.5C 42.3333,123.833 42.6667,126.167 43,128.5C 43.4169,129.756 44.2502,130.423 45.5,130.5C 45.298,132.95 45.6314,135.283 46.5,137.5C 46.5,139.833 46.5,142.167 46.5,144.5C 47.8333,144.5 49.1667,144.5 50.5,144.5C 49.9581,134.36 50.7915,124.36 53,114.5C 60.5408,107.783 60.2075,107.116 52,112.5C 51.4333,93.8331 50.9333,75.1664 50.5,56.5C 50.5,52.5 50.5,48.5 50.5,44.5C 51.3325,49.0682 52.3325,53.7348 53.5,58.5C 54.1698,56.7086 54.8365,55.0419 55.5,53.5C 55.9828,63.7474 57.8161,73.7474 61,83.5C 62.214,87.3042 64.714,89.6375 68.5,90.5C 72.6857,93.341 77.3524,95.0076 82.5,95.5C 81.3112,96.4287 79.9778,96.762 78.5,96.5C 75.0729,96.0244 71.7395,96.0244 68.5,96.5C 69.6405,97.4255 69.6405,98.2588 68.5,99C 70.0009,100.252 71.6675,101.252 73.5,102C 70.6305,103.596 67.9639,105.43 65.5,107.5C 64.5768,106.697 63.5768,106.53 62.5,107C 53.4864,115.209 50.153,125.375 52.5,137.5C 51.5151,141.634 51.1818,145.968 51.5,150.5C 50.0222,150.762 48.6888,150.429 47.5,149.5C 46.2533,146.671 44.7533,144.005 43,141.5C 42.7586,138.711 42.092,136.044 41,133.5C 39.9734,108.836 38.9734,84.1697 38,59.5C 36.1258,69.5557 34.9591,79.5557 34.5,89.5C 34.3334,74.163 34.5001,58.8297 35,43.5C 35.2695,40.7759 35.7695,38.1092 36.5,35.5C 36.1667,34.8333 35.8333,34.1667 35.5,33.5C 37.4284,27.2655 39.9284,20.9322 43,14.5C 44.5695,14.67 46.4028,15.0033 48.5,15.5C 40.8684,28.9883 38.5351,43.3217 41.5,58.5 Z"/></g>
<g><path style="opacity:1" fill="#beb7ab" d="M 50.5,56.5 C 50.9333,75.1664 51.4333,93.8331 52,112.5C 60.2075,107.116 60.5408,107.783 53,114.5C 50.7915,124.36 49.9581,134.36 50.5,144.5C 49.1667,144.5 47.8333,144.5 46.5,144.5C 46.5,142.167 46.5,139.833 46.5,137.5C 47.2216,137.918 47.7216,138.584 48,139.5C 48.3333,138.833 48.6667,138.167 49,137.5C 49.1667,134.667 49.3333,131.833 49.5,129C 48.4249,105.508 48.2582,82.0078 49,58.5C 49.2784,57.5842 49.7784,56.9175 50.5,56.5 Z"/></g>
<g><path style="opacity:1" fill="#1c1c1c" d="M 108.5,143.5 C 104.674,145.291 100.674,146.124 96.5,146C 97.5,145 98.5,144 99.5,143C 98.2625,142.768 97.2625,142.268 96.5,141.5C 98.9327,140.452 98.9327,139.786 96.5,139.5C 95.6787,136.359 95.1787,133.025 95,129.5C 93.2494,127.51 92.2494,125.177 92,122.5C 89.9521,123.423 88.1188,122.923 86.5,121C 78.7057,119.952 74.7057,123.452 74.5,131.5C 73.8801,139.579 76.5467,146.245 82.5,151.5C 80.6181,152.751 78.6181,153.918 76.5,155C 75.365,155.749 74.365,155.583 73.5,154.5C 70.6604,149.823 68.6604,144.823 67.5,139.5C 67.6799,138.446 68.0133,137.446 68.5,136.5C 66.7442,132.712 66.0775,128.712 66.5,124.5C 66.8728,109.621 74.2062,104.121 88.5,108C 101.508,116.176 108.175,128.009 108.5,143.5 Z"/></g>
<g><path style="opacity:1" fill="#af958a" d="M 269.5,85.5 C 269.5,88.1667 269.5,90.8333 269.5,93.5C 259.908,94.7604 254.242,100.094 252.5,109.5C 250.72,110.745 250.387,112.245 251.5,114C 250.763,116.799 249.93,116.966 249,114.5C 247.951,115.517 246.784,115.684 245.5,115C 246.167,114.667 246.833,114.333 247.5,114C 246.299,113.097 245.465,111.931 245,110.5C 244.51,111.793 244.343,113.127 244.5,114.5C 243.325,114.281 242.325,114.614 241.5,115.5C 242.262,115.911 243.262,116.077 244.5,116C 242.168,117.982 240.335,117.482 239,114.5C 238.676,116.569 237.842,116.902 236.5,115.5C 232.408,119.518 228.908,119.185 226,114.5C 225.667,115.167 225.333,115.833 225,116.5C 224.333,115.167 223.667,115.167 223,116.5C 222.097,115.299 220.931,114.465 219.5,114C 220.5,113.667 221.5,113.333 222.5,113C 220.365,112.13 219.365,110.963 219.5,109.5C 217.061,107.31 217.728,105.81 221.5,105C 220.584,104.722 219.918,104.222 219.5,103.5C 235.957,96.9393 252.623,90.9393 269.5,85.5 Z"/></g>
<g><path style="opacity:1" fill="#dad6cc" d="M 10.5,138.5 C 10.5,120.167 10.5,101.833 10.5,83.5C 12.8333,83.5 15.1667,83.5 17.5,83.5C 17.3433,82.1266 17.51,80.7932 18,79.5C 19,80.8333 20,80.8333 21,79.5C 21.3333,80.1667 21.6667,80.8333 22,81.5C 24.286,76.489 25.6193,71.1556 26,65.5C 26.2109,71.2182 26.7109,76.8848 27.5,82.5C 27.1671,94.6627 27.1671,107.163 27.5,120C 27.3333,122.167 27.1667,124.333 27,126.5C 25.6439,127.38 24.1439,127.714 22.5,127.5C 22.6621,129.527 22.4955,131.527 22,133.5C 21.5,133 21,132.5 20.5,132C 21.6023,129.599 21.769,127.099 21,124.5C 21.1578,128.416 19.4911,131.082 16,132.5C 15.6667,132.167 15.3333,131.833 15,131.5C 13.8372,133.285 13.1705,135.285 13,137.5C 12.6667,137.167 12.3333,136.833 12,136.5C 11.7216,137.416 11.2216,138.082 10.5,138.5 Z"/></g>
<g><path style="opacity:1" fill="#5f584f" d="M 44.5,-0.5 C 45.1667,-0.5 45.8333,-0.5 46.5,-0.5C 37.451,7.96438 32.951,18.631 33,31.5C 32.5,75.1654 32.3333,118.832 32.5,162.5C 32.5,187.5 32.5,212.5 32.5,237.5C 32.1667,237.5 31.8333,237.5 31.5,237.5C 31.8324,175.664 31.4991,113.998 30.5,52.5C 30.5,50.8333 30.5,49.1667 30.5,47.5C 31.3285,40.6787 31.8285,33.6787 32,26.5C 32.587,22.0721 33.587,17.7387 35,13.5C 36.7859,7.8835 39.9525,3.21683 44.5,-0.5 Z"/></g>
<g><path style="opacity:1" fill="#a48b80" d="M 219.5,109.5 C 219.365,110.963 220.365,112.13 222.5,113C 221.5,113.333 220.5,113.667 219.5,114C 220.931,114.465 222.097,115.299 223,116.5C 223.667,115.167 224.333,115.167 225,116.5C 225.333,115.833 225.667,115.167 226,114.5C 228.908,119.185 232.408,119.518 236.5,115.5C 237.842,116.902 238.676,116.569 239,114.5C 240.335,117.482 242.168,117.982 244.5,116C 243.262,116.077 242.262,115.911 241.5,115.5C 242.325,114.614 243.325,114.281 244.5,114.5C 244.343,113.127 244.51,111.793 245,110.5C 245.465,111.931 246.299,113.097 247.5,114C 246.833,114.333 246.167,114.667 245.5,115C 246.784,115.684 247.951,115.517 249,114.5C 249.93,116.966 250.763,116.799 251.5,114C 250.387,112.245 250.72,110.745 252.5,109.5C 252.5,112.167 252.5,114.833 252.5,117.5C 251.215,119.855 251.215,121.688 252.5,123C 255.06,123.227 256.726,124.56 257.5,127C 254.874,129.029 253.874,128.195 254.5,124.5C 252.61,124.297 251.11,124.963 250,126.5C 247.904,125.285 248.071,124.451 250.5,124C 249.333,123.5 248.5,122.667 248,121.5C 247.51,122.793 247.343,124.127 247.5,125.5C 244.925,124.721 242.592,124.887 240.5,126C 241.603,128.969 242.936,129.136 244.5,126.5C 250.266,128.4 249.766,130.067 243,131.5C 241.984,130.366 241.317,130.699 241,132.5C 239.989,131.663 238.822,131.33 237.5,131.5C 237.587,128.402 237.087,128.068 236,130.5C 235.5,128.667 234.333,127.5 232.5,127C 234.686,126.396 234.852,125.23 233,123.5C 230.891,124.035 230.391,125.035 231.5,126.5C 230.252,129.07 229.252,131.737 228.5,134.5C 229.016,133.242 228.35,132.242 226.5,131.5C 227.167,131.167 227.833,130.833 228.5,130.5C 225.148,129.095 224.982,127.761 228,126.5C 228.667,125.833 228.667,125.167 228,124.5C 225.667,126.167 223.667,128.167 222,130.5C 221.51,129.207 221.343,127.873 221.5,126.5C 220.325,126.281 219.325,126.614 218.5,127.5C 218.846,128.696 219.346,128.696 220,127.5C 220.916,131.779 219.083,133.612 214.5,133C 216.294,134.473 217.96,135.306 219.5,135.5C 218.349,136.731 217.183,136.731 216,135.5C 215.749,137.433 215.249,139.266 214.5,141C 216.017,142.779 216.851,142.279 217,139.5C 217.5,140.667 218.333,141.5 219.5,142C 217.381,142.342 217.047,143.175 218.5,144.5C 217.833,144.833 217.167,145.167 216.5,145.5C 216.607,143.621 216.107,143.288 215,144.5C 214.5,143.333 213.667,142.5 212.5,142C 213.573,140.75 213.573,139.416 212.5,138C 212.759,136.739 213.426,135.739 214.5,135C 213.298,132.308 211.464,131.474 209,132.5C 208.005,131.934 207.172,131.267 206.5,130.5C 207.339,129.359 208.006,128.026 208.5,126.5C 207.397,126.002 206.397,125.669 205.5,125.5C 206.605,124.108 207.939,122.941 209.5,122C 209.167,121.667 208.833,121.333 208.5,121C 211.033,119.084 211.033,117.084 208.5,115C 209.449,114.383 210.282,114.549 211,115.5C 212.641,111.677 215.474,109.677 219.5,109.5 Z"/></g>
<g><path style="opacity:1" fill="#6b5c52" d="M 219.5,103.5 C 219.918,104.222 220.584,104.722 221.5,105C 217.728,105.81 217.061,107.31 219.5,109.5C 215.474,109.677 212.641,111.677 211,115.5C 210.282,114.549 209.449,114.383 208.5,115C 211.033,117.084 211.033,119.084 208.5,121C 208.833,121.333 209.167,121.667 209.5,122C 207.939,122.941 206.605,124.108 205.5,125.5C 206.397,125.669 207.397,126.002 208.5,126.5C 208.006,128.026 207.339,129.359 206.5,130.5C 205.342,127.866 204.342,128.033 203.5,131C 206.167,131.667 206.167,132.333 203.5,133C 204.308,133.308 204.975,133.808 205.5,134.5C 205.062,135.506 204.396,135.506 203.5,134.5C 202.269,135.651 202.269,136.817 203.5,138C 201.564,139.362 200.231,141.195 199.5,143.5C 199.595,142.309 199.262,140.975 198.5,139.5C 199.936,136.727 198.936,135.227 195.5,135C 196.833,134.667 198.167,134.333 199.5,134C 198.366,132.984 198.699,132.317 200.5,132C 199.019,131.02 197.685,129.853 196.5,128.5C 195.41,129.391 195.41,130.391 196.5,131.5C 195.282,131.109 194.448,131.776 194,133.5C 193.584,131.45 192.417,130.116 190.5,129.5C 195.792,116.011 205.459,107.344 219.5,103.5 Z"/></g>
<g><path style="opacity:1" fill="#d4cfc3" d="M 65.5,107.5 C 65.1961,108.15 64.8627,108.817 64.5,109.5C 65.1667,109.833 65.8333,110.167 66.5,110.5C 62.4953,117.738 60.4953,125.405 60.5,133.5C 60.5,131.833 60.5,130.167 60.5,128.5C 60.6646,125.482 60.498,122.482 60,119.5C 59,124.833 58,124.833 57,119.5C 54.5482,125.928 53.0482,131.928 52.5,137.5C 50.153,125.375 53.4864,115.209 62.5,107C 63.5768,106.53 64.5768,106.697 65.5,107.5 Z"/></g>
<g><path style="opacity:1" fill="#d2cbc1" d="M 27.5,52.5 C 28.5,52.5 29.5,52.5 30.5,52.5C 30.5,99.1667 30.5,145.833 30.5,192.5C 29.6981,193.952 29.1981,195.618 29,197.5C 28.6667,178.167 28.3333,158.833 28,139.5C 27.6667,140.167 27.3333,140.833 27,141.5C 26.8184,138.774 26.3184,136.107 25.5,133.5C 24.9513,137.443 23.9513,140.11 22.5,141.5C 20.7314,139.542 20.0647,137.542 20.5,135.5C 19.8333,138.5 19.1667,141.5 18.5,144.5C 17.3534,136.579 16.52,136.579 16,144.5C 15,143.833 14,143.167 13,142.5C 12.7105,144.952 12.0438,147.285 11,149.5C 10.5014,145.848 10.3347,142.182 10.5,138.5C 11.2216,138.082 11.7216,137.416 12,136.5C 12.3333,136.833 12.6667,137.167 13,137.5C 13.1705,135.285 13.8372,133.285 15,131.5C 15.3333,131.833 15.6667,132.167 16,132.5C 19.4911,131.082 21.1578,128.416 21,124.5C 21.769,127.099 21.6023,129.599 20.5,132C 21,132.5 21.5,133 22,133.5C 22.4955,131.527 22.6621,129.527 22.5,127.5C 24.1439,127.714 25.6439,127.38 27,126.5C 27.1667,124.333 27.3333,122.167 27.5,120C 27.1671,107.163 27.1671,94.6627 27.5,82.5C 26.7109,76.8848 26.2109,71.2182 26,65.5C 25.6193,71.1556 24.286,76.489 22,81.5C 21.6667,80.8333 21.3333,80.1667 21,79.5C 20,80.8333 19,80.8333 18,79.5C 17.51,80.7932 17.3433,82.1266 17.5,83.5C 15.1667,83.5 12.8333,83.5 10.5,83.5C 10.5,75.5 10.5,67.5 10.5,59.5C 16.0482,56.893 21.7148,54.5597 27.5,52.5 Z"/></g>
<g><path style="opacity:1" fill="#a59f95" d="M 30.5,52.5 C 31.4991,113.998 31.8324,175.664 31.5,237.5C 30.5,237.5 29.5,237.5 28.5,237.5C 28.5,229.5 28.5,221.5 28.5,213.5C 29.3213,216.641 29.8213,219.975 30,223.5C 30.4998,213.172 30.6665,202.839 30.5,192.5C 30.5,145.833 30.5,99.1667 30.5,52.5 Z"/></g>
<g><path style="opacity:1" fill="#aaa196" d="M 203.5,103.5 C 203.5,103.833 203.5,104.167 203.5,104.5C 194.944,111.411 188.611,120.078 184.5,130.5C 183.603,129.402 182.77,129.402 182,130.5C 179.187,136.937 177.187,143.604 176,150.5C 175.667,174.5 175.333,198.5 175,222.5C 174.781,227.582 174.281,232.582 173.5,237.5C 172.167,237.5 170.833,237.5 169.5,237.5C 171.233,216.502 172.4,195.502 173,174.5C 172.667,174.833 172.333,175.167 172,175.5C 170.862,165.204 170.196,154.87 170,144.5C 168.488,140.629 167.655,136.629 167.5,132.5C 167.5,120.167 167.5,107.833 167.5,95.5C 168.169,90.6037 169.002,85.6037 170,80.5C 172.911,82.1598 176.078,83.3264 179.5,84C 179.193,85.6818 178.86,87.3485 178.5,89C 179.962,91.0635 181.962,93.3968 184.5,96C 184.167,96.3333 183.833,96.6667 183.5,97C 185.615,96.1455 187.948,95.6455 190.5,95.5C 190.5,97.1667 190.5,98.8333 190.5,100.5C 193.119,100.768 195.619,100.435 198,99.5C 199.73,101.076 201.563,102.41 203.5,103.5 Z"/></g>
<g><path style="opacity:1" fill="#202027" d="M 96.5,139.5 C 94.7857,140.738 92.7857,141.405 90.5,141.5C 90.5,139.833 90.5,138.167 90.5,136.5C 85.6249,133.843 80.2916,132.177 74.5,131.5C 74.7057,123.452 78.7057,119.952 86.5,121C 88.1188,122.923 89.9521,123.423 92,122.5C 92.2494,125.177 93.2494,127.51 95,129.5C 95.1787,133.025 95.6787,136.359 96.5,139.5 Z"/></g>
<g><path style="opacity:1" fill="#8f7970" d="M 252.5,117.5 C 253.596,119.103 254.93,120.603 256.5,122C 261.084,122.529 265.417,121.696 269.5,119.5C 269.5,124.5 269.5,129.5 269.5,134.5C 268.778,134.082 268.278,133.416 268,132.5C 267.316,133.784 267.483,134.951 268.5,136C 266.658,138.55 264.825,140.383 263,141.5C 261.991,139.975 261.491,138.308 261.5,136.5C 260.178,136.33 259.011,136.663 258,137.5C 257.676,135.431 256.842,135.098 255.5,136.5C 253.286,134.076 252.286,134.743 252.5,138.5C 255.888,137.835 256.888,138.835 255.5,141.5C 255.529,143.029 256.196,144.196 257.5,145C 256.333,145.5 255.5,146.333 255,147.5C 253.269,143.665 251.935,143.998 251,148.5C 250.365,146.365 250.699,144.365 252,142.5C 252.718,143.451 253.551,143.617 254.5,143C 251.691,140.289 248.358,138.455 244.5,137.5C 244.291,136.914 243.957,136.414 243.5,136C 244.833,136 246.167,136 247.5,136C 246.874,135.25 246.374,134.416 246,133.5C 245,134.833 244,134.833 243,133.5C 242.89,135.848 241.723,137.348 239.5,138C 240.624,138.249 241.624,138.749 242.5,139.5C 242.062,140.506 241.396,140.506 240.5,139.5C 239.304,139.846 239.304,140.346 240.5,141C 239.175,140.852 238.008,141.018 237,141.5C 236.689,140.258 237.189,139.258 238.5,138.5C 237.132,137.406 235.965,137.74 235,139.5C 234.667,141.833 234.333,144.167 234,146.5C 232.933,145.809 231.766,145.309 230.5,145C 231.5,144.667 232.5,144.333 233.5,144C 232.359,143.259 232.359,142.425 233.5,141.5C 232.635,140.417 231.635,140.251 230.5,141C 230.07,141.92 229.736,142.753 229.5,143.5C 228.808,142.975 228.308,142.308 228,141.5C 227.667,141.833 227.333,142.167 227,142.5C 227.077,141.262 226.911,140.262 226.5,139.5C 225.618,140.76 224.618,141.926 223.5,143C 225.26,145.029 226.427,147.196 227,149.5C 224.856,147.337 222.523,147.337 220,149.5C 219.098,149.257 218.265,148.923 217.5,148.5C 217.775,146.158 218.608,146.158 220,148.5C 220.5,148 221,147.5 221.5,147C 220.429,146.148 219.429,145.315 218.5,144.5C 217.047,143.175 217.381,142.342 219.5,142C 218.333,141.5 217.5,140.667 217,139.5C 216.851,142.279 216.017,142.779 214.5,141C 215.249,139.266 215.749,137.433 216,135.5C 217.183,136.731 218.349,136.731 219.5,135.5C 217.96,135.306 216.294,134.473 214.5,133C 219.083,133.612 220.916,131.779 220,127.5C 219.346,128.696 218.846,128.696 218.5,127.5C 219.325,126.614 220.325,126.281 221.5,126.5C 221.343,127.873 221.51,129.207 222,130.5C 223.667,128.167 225.667,126.167 228,124.5C 228.667,125.167 228.667,125.833 228,126.5C 224.982,127.761 225.148,129.095 228.5,130.5C 227.833,130.833 227.167,131.167 226.5,131.5C 228.35,132.242 229.016,133.242 228.5,134.5C 229.252,131.737 230.252,129.07 231.5,126.5C 230.391,125.035 230.891,124.035 233,123.5C 234.852,125.23 234.686,126.396 232.5,127C 234.333,127.5 235.5,128.667 236,130.5C 237.087,128.068 237.587,128.402 237.5,131.5C 238.822,131.33 239.989,131.663 241,132.5C 241.317,130.699 241.984,130.366 243,131.5C 249.766,130.067 250.266,128.4 244.5,126.5C 242.936,129.136 241.603,128.969 240.5,126C 242.592,124.887 244.925,124.721 247.5,125.5C 247.343,124.127 247.51,122.793 248,121.5C 248.5,122.667 249.333,123.5 250.5,124C 248.071,124.451 247.904,125.285 250,126.5C 251.11,124.963 252.61,124.297 254.5,124.5C 253.874,128.195 254.874,129.029 257.5,127C 256.726,124.56 255.06,123.227 252.5,123C 251.215,121.688 251.215,119.855 252.5,117.5 Z"/></g>
<g><path style="opacity:1" fill="#373741" d="M 74.5,131.5 C 80.2916,132.177 85.6249,133.843 90.5,136.5C 90.5,138.167 90.5,139.833 90.5,141.5C 92.7857,141.405 94.7857,140.738 96.5,139.5C 98.9327,139.786 98.9327,140.452 96.5,141.5C 92.9512,142.104 90.2845,143.937 88.5,147C 86.144,147.155 83.8107,147.155 81.5,147C 84.9103,148.905 88.4103,149.405 92,148.5C 94.1667,150 94,151.167 91.5,152C 91.8333,152.333 92.1667,152.667 92.5,153C 88.6965,155.271 85.3632,154.771 82.5,151.5C 76.5467,146.245 73.8801,139.579 74.5,131.5 Z"/></g>
<g><path style="opacity:1" fill="#c4bebe" d="M 79.5,139.5 C 81.4806,140.686 83.4806,142.019 85.5,143.5C 82.3089,144.352 80.3089,143.019 79.5,139.5 Z"/></g>
<g><path style="opacity:1" fill="#8c8579" d="M 160.5,62.5 C 162.745,65.7536 164.245,69.4202 165,73.5C 166.491,80.7621 167.324,88.0954 167.5,95.5C 167.5,107.833 167.5,120.167 167.5,132.5C 166.675,136.647 166.175,140.981 166,145.5C 165.667,143.5 165.333,141.5 165,139.5C 164.617,140.056 164.117,140.389 163.5,140.5C 163.5,140.833 163.5,141.167 163.5,141.5C 162.928,142.973 162.095,144.307 161,145.5C 160.501,150.489 160.334,155.489 160.5,160.5C 159.989,164.203 158.323,167.369 155.5,170C 156.981,174.312 155.315,176.145 150.5,175.5C 150.649,174.448 150.483,173.448 150,172.5C 146.055,173.622 145.555,172.622 148.5,169.5C 150.51,168.498 152.51,167.498 154.5,166.5C 154,166.167 153.5,165.833 153,165.5C 149.553,167.321 146.053,168.654 142.5,169.5C 139.465,164.649 135.132,162.483 129.5,163C 125.961,166.387 124.628,170.553 125.5,175.5C 124.698,174.048 124.198,172.382 124,170.5C 121.985,171.842 119.818,172.342 117.5,172C 119.664,171.086 121.664,169.919 123.5,168.5C 122.726,167.289 121.893,167.289 121,168.5C 120.667,167.167 120.333,165.833 120,164.5C 119.395,166.481 118.395,166.815 117,165.5C 116.716,167.886 115.716,168.552 114,167.5C 113.667,168.5 113.333,169.5 113,170.5C 110.581,172.85 108.248,175.184 106,177.5C 105.667,176.833 105.333,176.167 105,175.5C 103.25,180.085 100.084,183.085 95.5,184.5C 94.391,184.443 93.391,184.11 92.5,183.5C 98.0807,180.587 102.747,176.587 106.5,171.5C 107.042,167.084 108.375,162.918 110.5,159C 110.43,158.235 110.097,157.735 109.5,157.5C 111.323,151.629 111.823,145.629 111,139.5C 109.098,130.954 105.931,122.954 101.5,115.5C 102.76,115.799 103.927,115.799 105,115.5C 104.657,107.206 106.657,99.5396 111,92.5C 113.258,89.701 115.925,88.3677 119,88.5C 124.037,85.3004 129.204,82.3004 134.5,79.5C 131.445,78.6955 129.778,76.6955 129.5,73.5C 130.868,72.4063 132.035,72.7397 133,74.5C 133.278,73.5842 133.778,72.9175 134.5,72.5C 139.757,76.9788 144.091,76.3121 147.5,70.5C 148.043,70.56 148.376,70.8933 148.5,71.5C 148.166,76.7616 145.499,79.9283 140.5,81C 148.918,84.923 155.584,90.7564 160.5,98.5C 160.992,100.819 161.992,102.819 163.5,104.5C 163.491,106.308 163.991,107.975 165,109.5C 166.383,93.4591 164.883,77.7925 160.5,62.5 Z"/></g>
<g><path style="opacity:1" fill="#2d2b27" d="M 124.5,100.5 C 122.735,112.262 125.069,123.428 131.5,134C 138.152,131.787 144.986,129.954 152,128.5C 153.833,128.833 155.667,129.167 157.5,129.5C 158.48,130.981 159.647,132.315 161,133.5C 162.376,128.245 163.209,122.912 163.5,117.5C 165.713,126.065 164.213,134.065 159,141.5C 152.267,147.485 145.1,147.985 137.5,143C 125.96,132.411 120.627,119.244 121.5,103.5C 122.9,102.9 123.9,101.9 124.5,100.5 Z"/></g>
<g><path style="opacity:1" fill="#514a43" d="M 112.5,107.5 C 113.581,110.627 114.247,113.96 114.5,117.5C 115.5,117.5 116.5,117.5 117.5,117.5C 117.232,115.901 117.566,114.568 118.5,113.5C 118.5,114.167 118.5,114.833 118.5,115.5C 120.863,128.736 127.197,139.569 137.5,148C 135.893,148.115 134.393,147.615 133,146.5C 131.316,146.683 131.15,147.35 132.5,148.5C 128.13,149.705 124.296,148.038 121,143.5C 118.868,140.228 117.035,136.895 115.5,133.5C 114.68,131.86 113.847,130.193 113,128.5C 112.5,121.508 112.334,114.508 112.5,107.5 Z"/></g>
<g><path style="opacity:1" fill="#706860" d="M 119.5,94.5 C 117.589,100.772 117.256,107.106 118.5,113.5C 117.566,114.568 117.232,115.901 117.5,117.5C 116.5,117.5 115.5,117.5 114.5,117.5C 114.247,113.96 113.581,110.627 112.5,107.5C 112.629,105.784 112.962,104.117 113.5,102.5C 114.479,103.693 114.979,106.36 115,110.5C 115.279,104.702 116.779,99.3683 119.5,94.5 Z"/></g>
<g><path style="opacity:1" fill="#d0c8bf" d="M 119.5,109.5 C 119.795,111.735 119.461,113.735 118.5,115.5C 118.5,114.833 118.5,114.167 118.5,113.5C 117.256,107.106 117.589,100.772 119.5,94.5C 120.892,92.7274 122.059,90.7274 123,88.5C 123.654,87.3044 124.154,87.3044 124.5,88.5C 120.164,94.8599 118.497,101.86 119.5,109.5 Z"/></g>
<g><path style="opacity:1" fill="#bbb4a8" d="M 119.5,94.5 C 116.779,99.3683 115.279,104.702 115,110.5C 114.979,106.36 114.479,103.693 113.5,102.5C 112.175,101.047 111.342,101.381 111,103.5C 110.778,97.9378 112.778,93.2711 117,89.5C 117.492,90.549 117.326,91.549 116.5,92.5C 117.355,93.293 118.189,92.9597 119,91.5C 119.483,92.448 119.649,93.448 119.5,94.5 Z"/></g>
<g><path style="opacity:1" fill="#1c1c1d" d="M 161.5,107.5 C 162.787,110.698 163.453,114.031 163.5,117.5C 163.209,122.912 162.376,128.245 161,133.5C 159.647,132.315 158.48,130.981 157.5,129.5C 155.667,129.167 153.833,128.833 152,128.5C 144.986,129.954 138.152,131.787 131.5,134C 125.069,123.428 122.735,112.262 124.5,100.5C 124.152,91.6853 128.318,86.6853 137,85.5C 142.523,86.1791 147.356,88.3458 151.5,92C 155.516,96.8245 158.849,101.991 161.5,107.5 Z"/></g>
<g><path style="opacity:1" fill="#dad4c8" d="M 163.5,104.5 C 161.992,102.819 160.992,100.819 160.5,98.5C 160.714,91.8027 160.381,85.136 159.5,78.5C 159.833,77.5 160.167,76.5 160.5,75.5C 160.833,76.1667 161.167,76.8333 161.5,77.5C 163.262,86.4046 163.929,95.4046 163.5,104.5 Z"/></g>
<g><path style="opacity:1" fill="#7c6a62" d="M 206.5,130.5 C 207.172,131.267 208.005,131.934 209,132.5C 211.464,131.474 213.298,132.308 214.5,135C 213.426,135.739 212.759,136.739 212.5,138C 213.573,139.416 213.573,140.75 212.5,142C 213.667,142.5 214.5,143.333 215,144.5C 216.107,143.288 216.607,143.621 216.5,145.5C 215.639,147.386 214.639,149.22 213.5,151C 214.167,151.333 214.833,151.667 215.5,152C 213.693,152.928 212.026,154.094 210.5,155.5C 208.739,153.32 206.573,151.654 204,150.5C 203.549,152.929 202.715,153.096 201.5,151C 204.148,148.95 207.148,147.784 210.5,147.5C 210.202,150.336 210.869,150.836 212.5,149C 212.043,148.586 211.709,148.086 211.5,147.5C 208.308,146.299 205.141,145.299 202,144.5C 200.274,144.946 198.774,145.779 197.5,147C 200.14,149.203 200.14,150.037 197.5,149.5C 194.983,147.406 194.983,145.24 197.5,143C 194.8,141.168 195.133,140.001 198.5,139.5C 199.262,140.975 199.595,142.309 199.5,143.5C 200.231,141.195 201.564,139.362 203.5,138C 202.269,136.817 202.269,135.651 203.5,134.5C 204.396,135.506 205.062,135.506 205.5,134.5C 204.975,133.808 204.308,133.308 203.5,133C 206.167,132.333 206.167,131.667 203.5,131C 204.342,128.033 205.342,127.866 206.5,130.5 Z"/></g>
<g><path style="opacity:1" fill="#a2978e" d="M 121.5,103.5 C 120.627,119.244 125.96,132.411 137.5,143C 145.1,147.985 152.267,147.485 159,141.5C 164.213,134.065 165.713,126.065 163.5,117.5C 163.453,114.031 162.787,110.698 161.5,107.5C 163.395,109.144 164.562,111.81 165,115.5C 165.993,123.982 165.493,132.316 163.5,140.5C 161.674,142.147 160.34,144.147 159.5,146.5C 156.095,148.252 152.595,149.919 149,151.5C 142.888,153.469 137.388,152.469 132.5,148.5C 131.15,147.35 131.316,146.683 133,146.5C 134.393,147.615 135.893,148.115 137.5,148C 127.197,139.569 120.863,128.736 118.5,115.5C 119.461,113.735 119.795,111.735 119.5,109.5C 120.317,107.031 120.817,104.365 121,101.5C 121.464,102.094 121.631,102.761 121.5,103.5 Z"/></g>
<g><path style="opacity:1" fill="#91919c" d="M 138.5,123.5 C 137.326,122.486 136.66,121.153 136.5,119.5C 138.684,118.017 140.017,118.684 140.5,121.5C 140.253,122.713 139.586,123.38 138.5,123.5 Z"/></g>
<g><path style="opacity:1" fill="#353a48" d="M 138.5,123.5 C 139.586,123.38 140.253,122.713 140.5,121.5C 140.017,118.684 138.684,118.017 136.5,119.5C 135.776,117.782 135.109,115.948 134.5,114C 135.672,111.945 137.339,111.278 139.5,112C 141.32,113.805 142.486,115.972 143,118.5C 143.667,117.833 144.333,117.167 145,116.5C 146.752,121.349 145.252,124.349 140.5,125.5C 139.478,125.145 138.811,124.478 138.5,123.5 Z"/></g>
<g><path style="opacity:1" fill="#b3aba3" d="M 10.5,59.5 C 10.5,67.5 10.5,75.5 10.5,83.5C 10.5,101.833 10.5,120.167 10.5,138.5C 10.3347,142.182 10.5014,145.848 11,149.5C 12.0438,147.285 12.7105,144.952 13,142.5C 14,143.167 15,143.833 16,144.5C 16.52,136.579 17.3534,136.579 18.5,144.5C 19.1667,141.5 19.8333,138.5 20.5,135.5C 20.0647,137.542 20.7314,139.542 22.5,141.5C 23.9513,140.11 24.9513,137.443 25.5,133.5C 26.3184,136.107 26.8184,138.774 27,141.5C 27.3333,140.833 27.6667,140.167 28,139.5C 28.3333,158.833 28.6667,178.167 29,197.5C 29.1981,195.618 29.6981,193.952 30.5,192.5C 30.6665,202.839 30.4998,213.172 30,223.5C 29.8213,219.975 29.3213,216.641 28.5,213.5C 28.4249,210.794 28.0916,208.127 27.5,205.5C 27.6665,193.829 27.4999,182.162 27,170.5C 26.483,167.08 25.6497,163.747 24.5,160.5C 23.7189,161.729 23.2189,163.062 23,164.5C 21.6439,163.62 20.1439,163.286 18.5,163.5C 18.6567,164.873 18.49,166.207 18,167.5C 17.5034,160.497 16.8368,160.163 16,166.5C 15.6667,166.833 15.3333,167.167 15,167.5C 13.8899,162.521 12.8899,162.854 12,168.5C 11.8091,166.292 11.3091,164.292 10.5,162.5C 9.5522,134.852 9.21886,107.185 9.5,79.5C 9.17596,72.6457 9.50929,65.979 10.5,59.5 Z"/></g>
<g><path style="opacity:1" fill="#8f8072" d="M 198.5,139.5 C 195.133,140.001 194.8,141.168 197.5,143C 194.983,145.24 194.983,147.406 197.5,149.5C 196.316,150.688 196.316,151.855 197.5,153C 194.997,154.549 194.997,156.216 197.5,158C 197.353,160.51 196.687,163.177 195.5,166C 196,167.5 196.5,169 197,170.5C 197.333,169.5 197.667,168.5 198,167.5C 198.756,169.809 198.256,171.809 196.5,173.5C 197.641,174.425 197.641,175.259 196.5,176C 197.167,176.333 197.833,176.667 198.5,177C 197.643,177.689 196.977,178.522 196.5,179.5C 196.596,181.215 196.596,182.881 196.5,184.5C 195.819,181.42 194.819,178.253 193.5,175C 193.501,173.601 193.835,172.101 194.5,170.5C 193.738,170.089 192.738,169.923 191.5,170C 192.872,168.758 193.872,167.258 194.5,165.5C 193.964,162.895 193.798,160.228 194,157.5C 189.547,159.372 187.88,158.039 189,153.5C 188.086,154.654 187.253,154.487 186.5,153C 188.904,152.492 189.571,151.325 188.5,149.5C 187.735,150.612 186.735,151.279 185.5,151.5C 185.898,143.837 187.565,136.504 190.5,129.5C 192.417,130.116 193.584,131.45 194,133.5C 194.448,131.776 195.282,131.109 196.5,131.5C 195.41,130.391 195.41,129.391 196.5,128.5C 197.685,129.853 199.019,131.02 200.5,132C 198.699,132.317 198.366,132.984 199.5,134C 198.167,134.333 196.833,134.667 195.5,135C 198.936,135.227 199.936,136.727 198.5,139.5 Z"/></g>
<g><path style="opacity:1" fill="#302e2b" d="M 66.5,124.5 C 66.0775,128.712 66.7442,132.712 68.5,136.5C 68.0133,137.446 67.6799,138.446 67.5,139.5C 68.6604,144.823 70.6604,149.823 73.5,154.5C 74.365,155.583 75.365,155.749 76.5,155C 78.6181,153.918 80.6181,152.751 82.5,151.5C 85.3632,154.771 88.6965,155.271 92.5,153C 92.1667,152.667 91.8333,152.333 91.5,152C 94,151.167 94.1667,150 92,148.5C 88.4103,149.405 84.9103,148.905 81.5,147C 83.8107,147.155 86.144,147.155 88.5,147C 90.2845,143.937 92.9512,142.104 96.5,141.5C 97.2625,142.268 98.2625,142.768 99.5,143C 98.5,144 97.5,145 96.5,146C 100.674,146.124 104.674,145.291 108.5,143.5C 109.568,151.256 107.568,157.922 102.5,163.5C 102.389,162.883 102.056,162.383 101.5,162C 104.769,158.671 106.103,154.837 105.5,150.5C 96.7805,153.84 88.1138,157.173 79.5,160.5C 83.4138,165.921 88.7471,168.254 95.5,167.5C 90.2443,169.186 85.2443,168.353 80.5,165C 67.6778,154.027 63.0112,140.527 66.5,124.5 Z"/></g>
<g><path style="opacity:1" fill="#736259" d="M 269.5,134.5 C 269.5,142.5 269.5,150.5 269.5,158.5C 268.849,157.909 268.182,157.243 267.5,156.5C 267.167,156.833 266.833,157.167 266.5,157.5C 267.485,159.098 267.651,160.765 267,162.5C 266.803,160.139 265.636,158.472 263.5,157.5C 262.459,159.991 261.626,159.991 261,157.5C 260.086,158.654 259.253,158.487 258.5,157C 256.141,156.792 253.974,156.626 252,156.5C 251.019,159.689 249.686,160.022 248,157.5C 246.615,158.551 245.615,159.884 245,161.5C 244.333,160.167 243.667,160.167 243,161.5C 242.86,159.479 242.693,157.645 242.5,156C 244.929,155.549 245.096,154.715 243,153.5C 241.956,154.623 241.29,155.956 241,157.5C 239.417,157.507 237.751,157.174 236,156.5C 234.667,159.167 233.333,159.167 232,156.5C 231.692,157.308 231.192,157.975 230.5,158.5C 229.167,157.167 227.833,155.833 226.5,154.5C 225.033,154.723 223.533,155.056 222,155.5C 221.689,154.258 222.189,153.258 223.5,152.5C 223.167,151.5 222.5,150.833 221.5,150.5C 220.719,151.729 220.219,153.062 220,154.5C 219.935,152.117 219.102,151.45 217.5,152.5C 216.218,151.042 216.218,149.708 217.5,148.5C 218.265,148.923 219.098,149.257 220,149.5C 222.523,147.337 224.856,147.337 227,149.5C 226.427,147.196 225.26,145.029 223.5,143C 224.618,141.926 225.618,140.76 226.5,139.5C 226.911,140.262 227.077,141.262 227,142.5C 227.333,142.167 227.667,141.833 228,141.5C 228.308,142.308 228.808,142.975 229.5,143.5C 229.736,142.753 230.07,141.92 230.5,141C 231.635,140.251 232.635,140.417 233.5,141.5C 232.359,142.425 232.359,143.259 233.5,144C 232.5,144.333 231.5,144.667 230.5,145C 231.766,145.309 232.933,145.809 234,146.5C 234.333,144.167 234.667,141.833 235,139.5C 235.965,137.74 237.132,137.406 238.5,138.5C 237.189,139.258 236.689,140.258 237,141.5C 238.008,141.018 239.175,140.852 240.5,141C 239.304,140.346 239.304,139.846 240.5,139.5C 241.396,140.506 242.062,140.506 242.5,139.5C 241.624,138.749 240.624,138.249 239.5,138C 241.723,137.348 242.89,135.848 243,133.5C 244,134.833 245,134.833 246,133.5C 246.374,134.416 246.874,135.25 247.5,136C 246.167,136 244.833,136 243.5,136C 243.957,136.414 244.291,136.914 244.5,137.5C 248.358,138.455 251.691,140.289 254.5,143C 253.551,143.617 252.718,143.451 252,142.5C 250.699,144.365 250.365,146.365 251,148.5C 251.935,143.998 253.269,143.665 255,147.5C 255.5,146.333 256.333,145.5 257.5,145C 256.196,144.196 255.529,143.029 255.5,141.5C 256.888,138.835 255.888,137.835 252.5,138.5C 252.286,134.743 253.286,134.076 255.5,136.5C 256.842,135.098 257.676,135.431 258,137.5C 259.011,136.663 260.178,136.33 261.5,136.5C 261.491,138.308 261.991,139.975 263,141.5C 264.825,140.383 266.658,138.55 268.5,136C 267.483,134.951 267.316,133.784 268,132.5C 268.278,133.416 268.778,134.082 269.5,134.5 Z"/></g>
<g><path style="opacity:1" fill="#d8cabd" d="M 163.5,141.5 C 165.154,157.132 164.654,172.799 162,188.5C 160.669,190.996 158.836,192.996 156.5,194.5C 159.232,183.368 160.565,172.035 160.5,160.5C 160.334,155.489 160.501,150.489 161,145.5C 162.095,144.307 162.928,142.973 163.5,141.5 Z"/></g>
<g><path style="opacity:1" fill="#796f63" d="M 115.5,133.5 C 117.035,136.895 118.868,140.228 121,143.5C 124.296,148.038 128.13,149.705 132.5,148.5C 137.388,152.469 142.888,153.469 149,151.5C 152.595,149.919 156.095,148.252 159.5,146.5C 159.5,150.167 159.5,153.833 159.5,157.5C 158.448,157.351 157.448,157.517 156.5,158C 154.767,160.275 152.933,162.442 151,164.5C 148.516,161.741 147.35,162.074 147.5,165.5C 140.63,164.262 133.963,161.429 127.5,157C 129.5,156.667 131.5,156.333 133.5,156C 127.133,153.298 121.967,149.131 118,143.5C 117.383,142.551 117.549,141.718 118.5,141C 117.552,140.517 116.552,140.351 115.5,140.5C 115.5,138.167 115.5,135.833 115.5,133.5 Z"/></g>
<g><path style="opacity:1" fill="#171616" d="M 102.5,163.5 C 100.664,165.588 98.3311,166.921 95.5,167.5C 88.7471,168.254 83.4138,165.921 79.5,160.5C 88.1138,157.173 96.7805,153.84 105.5,150.5C 106.103,154.837 104.769,158.671 101.5,162C 102.056,162.383 102.389,162.883 102.5,163.5 Z"/></g>
<g><path style="opacity:1" fill="#5b5047" d="M 216.5,145.5 C 217.167,145.167 217.833,144.833 218.5,144.5C 219.429,145.315 220.429,146.148 221.5,147C 221,147.5 220.5,148 220,148.5C 218.608,146.158 217.775,146.158 217.5,148.5C 216.218,149.708 216.218,151.042 217.5,152.5C 219.102,151.45 219.935,152.117 220,154.5C 220.219,153.062 220.719,151.729 221.5,150.5C 222.5,150.833 223.167,151.5 223.5,152.5C 222.189,153.258 221.689,154.258 222,155.5C 223.533,155.056 225.033,154.723 226.5,154.5C 227.833,155.833 229.167,157.167 230.5,158.5C 231.192,157.975 231.692,157.308 232,156.5C 233.333,159.167 234.667,159.167 236,156.5C 237.751,157.174 239.417,157.507 241,157.5C 241.29,155.956 241.956,154.623 243,153.5C 245.096,154.715 244.929,155.549 242.5,156C 242.693,157.645 242.86,159.479 243,161.5C 243.667,160.167 244.333,160.167 245,161.5C 245.615,159.884 246.615,158.551 248,157.5C 249.686,160.022 251.019,159.689 252,156.5C 253.974,156.626 256.141,156.792 258.5,157C 259.253,158.487 260.086,158.654 261,157.5C 261.626,159.991 262.459,159.991 263.5,157.5C 265.636,158.472 266.803,160.139 267,162.5C 267.651,160.765 267.485,159.098 266.5,157.5C 266.833,157.167 267.167,156.833 267.5,156.5C 268.182,157.243 268.849,157.909 269.5,158.5C 269.5,161.167 269.5,163.833 269.5,166.5C 268.078,168.971 267.078,171.304 266.5,173.5C 265.522,173.023 264.689,172.357 264,171.5C 261.929,174.416 260.595,174.082 260,170.5C 256.801,171.236 256.635,170.403 259.5,168C 258.675,166.312 257.675,166.145 256.5,167.5C 255.749,166.624 255.249,165.624 255,164.5C 254.716,166.886 253.716,167.552 252,166.5C 251.667,167.833 251.333,169.167 251,170.5C 250.333,169.167 249.667,169.167 249,170.5C 249.077,169.262 248.911,168.262 248.5,167.5C 245.873,167.64 243.54,168.306 241.5,169.5C 240.07,167.614 238.403,165.947 236.5,164.5C 236.167,165.167 235.833,165.833 235.5,166.5C 234.719,165.271 234.219,163.938 234,162.5C 232.984,163.634 232.317,163.301 232,161.5C 231.667,161.833 231.333,162.167 231,162.5C 229.401,160.964 227.567,160.464 225.5,161C 228.182,163.33 227.849,163.83 224.5,162.5C 222.866,162.968 221.7,163.968 221,165.5C 220.138,163.913 219.471,162.246 219,160.5C 218.692,161.308 218.192,161.975 217.5,162.5C 215.681,160.089 213.681,159.922 211.5,162C 213.904,162.508 214.571,163.675 213.5,165.5C 212.146,163.816 210.479,163.316 208.5,164C 209.308,164.308 209.975,164.808 210.5,165.5C 210.154,166.696 209.654,166.696 209,165.5C 208.431,169.361 207.598,169.361 206.5,165.5C 204.692,168.687 203.359,172.02 202.5,175.5C 202.062,175.435 201.728,175.601 201.5,176C 204.194,178.815 203.861,181.315 200.5,183.5C 201.695,184.967 201.695,186.467 200.5,188C 201.022,188.95 201.689,189.784 202.5,190.5C 200.721,192.193 200.221,194.193 201,196.5C 204.438,200.378 207.104,204.712 209,209.5C 209.333,209.167 209.667,208.833 210,208.5C 213.149,210.471 215.316,213.138 216.5,216.5C 217.833,216.5 219.167,216.5 220.5,216.5C 220.498,218.831 221.331,220.831 223,222.5C 223.986,223.171 225.153,223.171 226.5,222.5C 226.167,223.167 225.833,223.833 225.5,224.5C 224.25,224.577 223.417,225.244 223,226.5C 221.513,225.747 221.346,224.914 222.5,224C 217.296,218.96 211.963,214.126 206.5,209.5C 205.594,206.281 203.928,203.614 201.5,201.5C 200.462,198.223 199.129,195.057 197.5,192C 197.493,190.417 197.826,188.751 198.5,187C 197.619,186.292 196.953,185.458 196.5,184.5C 196.596,182.881 196.596,181.215 196.5,179.5C 196.977,178.522 197.643,177.689 198.5,177C 197.833,176.667 197.167,176.333 196.5,176C 197.641,175.259 197.641,174.425 196.5,173.5C 198.256,171.809 198.756,169.809 198,167.5C 197.667,168.5 197.333,169.5 197,170.5C 196.5,169 196,167.5 195.5,166C 196.687,163.177 197.353,160.51 197.5,158C 194.997,156.216 194.997,154.549 197.5,153C 196.316,151.855 196.316,150.688 197.5,149.5C 200.14,150.037 200.14,149.203 197.5,147C 198.774,145.779 200.274,144.946 202,144.5C 205.141,145.299 208.308,146.299 211.5,147.5C 211.709,148.086 212.043,148.586 212.5,149C 210.869,150.836 210.202,150.336 210.5,147.5C 207.148,147.784 204.148,148.95 201.5,151C 202.715,153.096 203.549,152.929 204,150.5C 206.573,151.654 208.739,153.32 210.5,155.5C 212.026,154.094 213.693,152.928 215.5,152C 214.833,151.667 214.167,151.333 213.5,151C 214.639,149.22 215.639,147.386 216.5,145.5 Z"/></g>
<g><path style="opacity:1" fill="#5f594f" d="M 60.5,128.5 C 60.5,130.167 60.5,131.833 60.5,133.5C 62.7461,148.332 69.4128,160.665 80.5,170.5C 77.001,170.259 76.6677,171.092 79.5,173C 77.5826,172.973 75.916,172.139 74.5,170.5C 73.2679,171.145 71.9346,171.311 70.5,171C 77.9676,177.46 85.9676,178.294 94.5,173.5C 96.7028,173.396 98.7028,172.73 100.5,171.5C 102.379,171.393 102.712,171.893 101.5,173C 95.5,175.333 89.5,177.667 83.5,180C 86.2932,181.654 89.2932,182.821 92.5,183.5C 93.391,184.11 94.391,184.443 95.5,184.5C 96.391,185.11 97.391,185.443 98.5,185.5C 98.0831,186.124 97.4164,186.457 96.5,186.5C 89.882,185.079 83.2153,183.913 76.5,183C 72.6997,181.021 69.3664,178.521 66.5,175.5C 61.7162,168.267 57.7162,160.6 54.5,152.5C 53.9862,150.488 53.8195,148.488 54,146.5C 55.3926,150.286 57.0593,153.952 59,157.5C 59.1667,157 59.3333,156.5 59.5,156C 58.3708,153.695 58.3708,151.362 59.5,149C 57.3696,143.684 56.5363,138.184 57,132.5C 57.3333,132.833 57.6667,133.167 58,133.5C 58.0496,131.256 58.8829,129.589 60.5,128.5 Z"/></g>
<g><path style="opacity:1" fill="#7f796e" d="M 80.5,170.5 C 82.8123,171.32 85.1457,172.153 87.5,173C 86.1667,173.333 84.8333,173.667 83.5,174C 87.1483,174.062 90.815,173.895 94.5,173.5C 85.9676,178.294 77.9676,177.46 70.5,171C 71.9346,171.311 73.2679,171.145 74.5,170.5C 75.916,172.139 77.5826,172.973 79.5,173C 76.6677,171.092 77.001,170.259 80.5,170.5 Z"/></g>
<g><path style="opacity:1" fill="#413a35" d="M 142.5,169.5 C 144.929,175.405 145.096,181.405 143,187.5C 138.253,191.591 133.753,191.258 129.5,186.5C 126.98,183.273 125.646,179.607 125.5,175.5C 124.628,170.553 125.961,166.387 129.5,163C 135.132,162.483 139.465,164.649 142.5,169.5 Z"/></g>
<g><path style="opacity:1" fill="#4c413d" d="M 269.5,166.5 C 269.5,175.167 269.5,183.833 269.5,192.5C 268.234,191.91 266.901,191.41 265.5,191C 266.624,190.751 267.624,190.251 268.5,189.5C 267.934,188.709 267.101,188.709 266,189.5C 264.108,189.223 262.775,188.223 262,186.5C 261.333,187.167 260.667,187.833 260,188.5C 260.077,187.262 259.911,186.262 259.5,185.5C 257.492,187.762 257.159,187.262 258.5,184C 255.332,183.418 254.999,182.418 257.5,181C 256.216,180.316 255.049,180.483 254,181.5C 252.967,178.783 253.8,176.949 256.5,176C 255.07,174.56 253.403,174.226 251.5,175C 251.944,176.533 252.277,178.033 252.5,179.5C 251,181.833 249.5,184.167 248,186.5C 247.289,184.633 247.789,183.133 249.5,182C 248.747,180.513 247.914,180.346 247,181.5C 246.707,177.02 245.874,176.687 244.5,180.5C 245.645,181.891 245.645,183.224 244.5,184.5C 243.808,183.975 243.308,183.308 243,182.5C 242.667,184.167 242.333,185.833 242,187.5C 241.13,186.892 240.63,186.059 240.5,185C 241.409,183.211 241.576,181.377 241,179.5C 239.09,180.991 237.923,182.491 237.5,184C 237.833,184.333 238.167,184.667 238.5,185C 237.175,184.852 236.008,185.018 235,185.5C 234.5,184.333 233.667,183.5 232.5,183C 235.038,181.829 235.538,180.329 234,178.5C 233.086,182.185 232.419,181.852 232,177.5C 231.751,178.624 231.251,179.624 230.5,180.5C 229.267,178.596 227.934,177.596 226.5,177.5C 224.069,176.259 224.069,175.092 226.5,174C 225.773,172.601 225.273,171.101 225,169.5C 223.853,170.458 222.853,170.125 222,168.5C 221.667,169.167 221.333,169.833 221,170.5C 220.275,168.842 219.108,168.342 217.5,169C 219.929,169.451 220.096,170.285 218,171.5C 215.771,168.844 213.938,169.177 212.5,172.5C 211.914,172.291 211.414,171.957 211,171.5C 208.954,173.882 206.621,175.882 204,177.5C 203.722,176.584 203.222,175.918 202.5,175.5C 203.359,172.02 204.692,168.687 206.5,165.5C 207.598,169.361 208.431,169.361 209,165.5C 209.654,166.696 210.154,166.696 210.5,165.5C 209.975,164.808 209.308,164.308 208.5,164C 210.479,163.316 212.146,163.816 213.5,165.5C 214.571,163.675 213.904,162.508 211.5,162C 213.681,159.922 215.681,160.089 217.5,162.5C 218.192,161.975 218.692,161.308 219,160.5C 219.471,162.246 220.138,163.913 221,165.5C 221.7,163.968 222.866,162.968 224.5,162.5C 227.849,163.83 228.182,163.33 225.5,161C 227.567,160.464 229.401,160.964 231,162.5C 231.333,162.167 231.667,161.833 232,161.5C 232.317,163.301 232.984,163.634 234,162.5C 234.219,163.938 234.719,165.271 235.5,166.5C 235.833,165.833 236.167,165.167 236.5,164.5C 238.403,165.947 240.07,167.614 241.5,169.5C 243.54,168.306 245.873,167.64 248.5,167.5C 248.911,168.262 249.077,169.262 249,170.5C 249.667,169.167 250.333,169.167 251,170.5C 251.333,169.167 251.667,167.833 252,166.5C 253.716,167.552 254.716,166.886 255,164.5C 255.249,165.624 255.749,166.624 256.5,167.5C 257.675,166.145 258.675,166.312 259.5,168C 256.635,170.403 256.801,171.236 260,170.5C 260.595,174.082 261.929,174.416 264,171.5C 264.689,172.357 265.522,173.023 266.5,173.5C 267.078,171.304 268.078,168.971 269.5,166.5 Z"/></g>
<g><path style="opacity:1" fill="#9b938b" d="M 27.5,205.5 C 26.7784,205.918 26.2784,206.584 26,207.5C 25.8319,198.814 25.3319,190.148 24.5,181.5C 23.5745,182.641 22.7412,182.641 22,181.5C 21.6667,183.5 21.3333,185.5 21,187.5C 19.4421,179.715 18.1087,179.715 17,187.5C 16.6667,185.5 16.3333,183.5 16,181.5C 15.3893,185.272 14.3893,185.272 13,181.5C 12.6667,182.167 12.3333,182.833 12,183.5C 11.8138,180.964 11.3138,178.631 10.5,176.5C 10.5,171.833 10.5,167.167 10.5,162.5C 11.3091,164.292 11.8091,166.292 12,168.5C 12.8899,162.854 13.8899,162.521 15,167.5C 15.3333,167.167 15.6667,166.833 16,166.5C 16.8368,160.163 17.5034,160.497 18,167.5C 18.49,166.207 18.6567,164.873 18.5,163.5C 20.1439,163.286 21.6439,163.62 23,164.5C 23.2189,163.062 23.7189,161.729 24.5,160.5C 25.6497,163.747 26.483,167.08 27,170.5C 27.4999,182.162 27.6665,193.829 27.5,205.5 Z"/></g>
<g><path style="opacity:1" fill="#776e62" d="M 109.5,157.5 C 110.097,157.735 110.43,158.235 110.5,159C 108.375,162.918 107.042,167.084 106.5,171.5C 102.747,176.587 98.0807,180.587 92.5,183.5C 89.2932,182.821 86.2932,181.654 83.5,180C 89.5,177.667 95.5,175.333 101.5,173C 102.712,171.893 102.379,171.393 100.5,171.5C 105.007,167.825 108.007,163.158 109.5,157.5 Z"/></g>
<g><path style="opacity:1" fill="#a9a194" d="M 160.5,160.5 C 160.565,172.035 159.232,183.368 156.5,194.5C 155.025,196.41 153.025,197.576 150.5,198C 146.848,198.499 143.182,198.665 139.5,198.5C 125.693,194.631 112.026,190.298 98.5,185.5C 97.391,185.443 96.391,185.11 95.5,184.5C 100.084,183.085 103.25,180.085 105,175.5C 105.333,176.167 105.667,176.833 106,177.5C 108.248,175.184 110.581,172.85 113,170.5C 113.333,169.5 113.667,168.5 114,167.5C 115.716,168.552 116.716,167.886 117,165.5C 118.395,166.815 119.395,166.481 120,164.5C 120.333,165.833 120.667,167.167 121,168.5C 121.893,167.289 122.726,167.289 123.5,168.5C 121.664,169.919 119.664,171.086 117.5,172C 119.818,172.342 121.985,171.842 124,170.5C 124.198,172.382 124.698,174.048 125.5,175.5C 125.646,179.607 126.98,183.273 129.5,186.5C 133.753,191.258 138.253,191.591 143,187.5C 145.096,181.405 144.929,175.405 142.5,169.5C 146.053,168.654 149.553,167.321 153,165.5C 153.5,165.833 154,166.167 154.5,166.5C 152.51,167.498 150.51,168.498 148.5,169.5C 145.555,172.622 146.055,173.622 150,172.5C 150.483,173.448 150.649,174.448 150.5,175.5C 155.315,176.145 156.981,174.312 155.5,170C 158.323,167.369 159.989,164.203 160.5,160.5 Z"/></g>
<g><path style="opacity:1" fill="#8e887d" d="M 52.5,137.5 C 53.0482,131.928 54.5482,125.928 57,119.5C 58,124.833 59,124.833 60,119.5C 60.498,122.482 60.6646,125.482 60.5,128.5C 58.8829,129.589 58.0496,131.256 58,133.5C 57.6667,133.167 57.3333,132.833 57,132.5C 56.5363,138.184 57.3696,143.684 59.5,149C 58.3708,151.362 58.3708,153.695 59.5,156C 59.3333,156.5 59.1667,157 59,157.5C 57.0593,153.952 55.3926,150.286 54,146.5C 53.8195,148.488 53.9862,150.488 54.5,152.5C 54.9433,157.936 55.9433,163.269 57.5,168.5C 56.7515,170.036 55.7515,171.369 54.5,172.5C 55.8777,176.099 57.0443,179.765 58,183.5C 59.3561,184.38 60.8561,184.714 62.5,184.5C 62.0807,187.325 63.0807,189.491 65.5,191C 69.4859,192.867 73.6526,194.367 78,195.5C 79.2502,197.706 81.0835,199.039 83.5,199.5C 83.9175,200.222 84.5842,200.722 85.5,201C 83.8333,201.333 82.1667,201.667 80.5,202C 82.9913,202.626 82.9913,203.459 80.5,204.5C 76.6229,205.197 72.7896,205.864 69,206.5C 68.8265,210.541 68.3265,214.541 67.5,218.5C 64.6687,217.204 62.002,217.537 59.5,219.5C 61.3615,220.528 62.6948,222.028 63.5,224C 61.3143,224.604 61.1476,225.77 63,227.5C 66.0185,228.761 65.8518,230.095 62.5,231.5C 63.5,232.167 64.5,232.833 65.5,233.5C 64.0905,234.569 63.0905,235.903 62.5,237.5C 52.5,237.5 42.5,237.5 32.5,237.5C 32.5,212.5 32.5,187.5 32.5,162.5C 33.3227,159.023 33.8227,155.356 34,151.5C 34.5,130.836 34.6666,110.169 34.5,89.5C 34.9591,79.5557 36.1258,69.5557 38,59.5C 38.9734,84.1697 39.9734,108.836 41,133.5C 42.092,136.044 42.7586,138.711 43,141.5C 44.7533,144.005 46.2533,146.671 47.5,149.5C 48.6888,150.429 50.0222,150.762 51.5,150.5C 51.1818,145.968 51.5151,141.634 52.5,137.5 Z"/></g>
<g><path style="opacity:1" fill="#8f867d" d="M 184.5,130.5 C 184.416,133.327 183.75,135.994 182.5,138.5C 181.504,138.414 180.671,138.748 180,139.5C 177.923,172.13 177.089,204.797 177.5,237.5C 176.167,237.5 174.833,237.5 173.5,237.5C 174.281,232.582 174.781,227.582 175,222.5C 175.333,198.5 175.667,174.5 176,150.5C 177.187,143.604 179.187,136.937 182,130.5C 182.77,129.402 183.603,129.402 184.5,130.5 Z"/></g>
<g><path style="opacity:1" fill="#48463f" d="M 180.5,156.5 C 180.5,183.5 180.5,210.5 180.5,237.5C 179.833,237.5 179.167,237.5 178.5,237.5C 178.116,210.313 178.783,183.313 180.5,156.5 Z"/></g>
<g><path style="opacity:1" fill="#89827b" d="M 10.5,176.5 C 11.3138,178.631 11.8138,180.964 12,183.5C 12.3333,182.833 12.6667,182.167 13,181.5C 14.3893,185.272 15.3893,185.272 16,181.5C 16.3333,183.5 16.6667,185.5 17,187.5C 18.1087,179.715 19.4421,179.715 21,187.5C 21.3333,185.5 21.6667,183.5 22,181.5C 22.7412,182.641 23.5745,182.641 24.5,181.5C 25.3319,190.148 25.8319,198.814 26,207.5C 26.2784,206.584 26.7784,205.918 27.5,205.5C 28.0916,208.127 28.4249,210.794 28.5,213.5C 28.5,221.5 28.5,229.5 28.5,237.5C 27.8333,237.5 27.1667,237.5 26.5,237.5C 25.8827,222.095 24.3827,206.762 22,191.5C 20.3116,189.152 18.4783,188.985 16.5,191C 17.7932,191.49 19.1266,191.657 20.5,191.5C 20.5,206.833 20.5,222.167 20.5,237.5C 20.1667,237.5 19.8333,237.5 19.5,237.5C 19.6665,227.828 19.4998,218.161 19,208.5C 18.6667,208.167 18.3333,207.833 18,207.5C 17.2493,221.753 16.2493,221.419 15,206.5C 14.6667,209.167 14.3333,211.833 14,214.5C 13.6667,207.833 13.3333,201.167 13,194.5C 12.6667,196.833 12.3333,199.167 12,201.5C 11.7216,200.584 11.2216,199.918 10.5,199.5C 10.5,191.833 10.5,184.167 10.5,176.5 Z"/></g>
<g><path style="opacity:1" fill="#352e2b" d="M 269.5,192.5 C 269.5,202.833 269.5,213.167 269.5,223.5C 268.542,223.047 267.708,222.381 267,221.5C 266.751,222.624 266.251,223.624 265.5,224.5C 265.167,223.833 264.833,223.167 264.5,222.5C 263.692,222.808 263.025,223.308 262.5,224C 263.711,224.893 263.711,225.726 262.5,226.5C 261.833,225.5 261.167,224.5 260.5,223.5C 256.849,224.325 256.682,223.659 260,221.5C 260.333,221.833 260.667,222.167 261,222.5C 261.309,221.234 261.809,220.067 262.5,219C 264.313,219.046 265.979,218.88 267.5,218.5C 265.985,216.453 265.151,214.119 265,211.5C 264.586,211.043 264.086,210.709 263.5,210.5C 263.002,211.603 262.669,212.603 262.5,213.5C 261.5,212.5 260.5,211.5 259.5,210.5C 260.025,209.808 260.692,209.308 261.5,209C 259.892,208.342 258.725,208.842 258,210.5C 257.333,207.833 256.667,207.833 256,210.5C 254.148,208.77 254.314,207.604 256.5,207C 254.936,205.356 253.27,203.856 251.5,202.5C 250.558,202.392 249.725,202.059 249,201.5C 247.331,204.909 244.998,205.242 242,202.5C 240.691,204.891 239.691,204.891 239,202.5C 237.48,204.835 235.98,204.668 234.5,202C 235.517,200.951 235.684,199.784 235,198.5C 234.424,201.124 233.09,201.791 231,200.5C 231.077,201.738 230.911,202.738 230.5,203.5C 228.913,201.915 228.08,200.248 228,198.5C 227.667,199.5 227.333,200.5 227,201.5C 226.244,199.191 226.744,197.191 228.5,195.5C 227.833,193.5 226.5,192.167 224.5,191.5C 224.089,192.262 223.923,193.262 224,194.5C 222.984,193.366 222.317,193.699 222,195.5C 221.333,192.833 220.667,192.833 220,195.5C 219.275,193.842 218.108,193.342 216.5,194C 218.394,195.079 218.727,196.413 217.5,198C 219.298,197.994 220.965,197.661 222.5,197C 221.601,198.652 220.601,200.152 219.5,201.5C 219.217,200.711 218.717,200.044 218,199.5C 216.602,200.051 215.268,200.384 214,200.5C 213.323,198.311 212.156,197.978 210.5,199.5C 208.164,198.406 208.164,197.073 210.5,195.5C 211.167,196.167 211.833,196.833 212.5,197.5C 212.833,197.167 213.167,196.833 213.5,196.5C 212.752,194.584 212.752,192.584 213.5,190.5C 212.448,190.649 211.448,190.483 210.5,190C 212,189.167 213.167,188 214,186.5C 214.617,187.449 214.451,188.282 213.5,189C 214.676,191.301 216.01,191.634 217.5,190C 216.833,189.667 216.167,189.333 215.5,189C 217.146,187.445 217.479,185.779 216.5,184C 217.328,183.085 218.328,182.419 219.5,182C 218.062,181.781 216.729,181.281 215.5,180.5C 215.938,179.494 216.604,179.494 217.5,180.5C 218.826,179.01 220.326,177.676 222,176.5C 222.49,177.793 222.657,179.127 222.5,180.5C 223.5,180.5 224.5,180.5 225.5,180.5C 225.263,179.209 225.596,178.209 226.5,177.5C 227.934,177.596 229.267,178.596 230.5,180.5C 231.251,179.624 231.751,178.624 232,177.5C 232.419,181.852 233.086,182.185 234,178.5C 235.538,180.329 235.038,181.829 232.5,183C 233.667,183.5 234.5,184.333 235,185.5C 236.008,185.018 237.175,184.852 238.5,185C 238.167,184.667 237.833,184.333 237.5,184C 237.923,182.491 239.09,180.991 241,179.5C 241.576,181.377 241.409,183.211 240.5,185C 240.63,186.059 241.13,186.892 242,187.5C 242.333,185.833 242.667,184.167 243,182.5C 243.308,183.308 243.808,183.975 244.5,184.5C 245.645,183.224 245.645,181.891 244.5,180.5C 245.874,176.687 246.707,177.02 247,181.5C 247.914,180.346 248.747,180.513 249.5,182C 247.789,183.133 247.289,184.633 248,186.5C 249.5,184.167 251,181.833 252.5,179.5C 252.277,178.033 251.944,176.533 251.5,175C 253.403,174.226 255.07,174.56 256.5,176C 253.8,176.949 252.967,178.783 254,181.5C 255.049,180.483 256.216,180.316 257.5,181C 254.999,182.418 255.332,183.418 258.5,184C 257.159,187.262 257.492,187.762 259.5,185.5C 259.911,186.262 260.077,187.262 260,188.5C 260.667,187.833 261.333,187.167 262,186.5C 262.775,188.223 264.108,189.223 266,189.5C 267.101,188.709 267.934,188.709 268.5,189.5C 267.624,190.251 266.624,190.751 265.5,191C 266.901,191.41 268.234,191.91 269.5,192.5 Z"/></g>
<g><path style="opacity:1" fill="#817a6f" d="M 54.5,152.5 C 57.7162,160.6 61.7162,168.267 66.5,175.5C 65.5041,175.586 64.6708,175.252 64,174.5C 63.3333,175.167 63.3333,175.833 64,176.5C 67.4084,179.453 70.9084,182.287 74.5,185C 85.1437,190.771 96.1437,195.771 107.5,200C 105.983,201.508 104.149,202.342 102,202.5C 96.0736,200.09 89.9069,199.09 83.5,199.5C 81.0835,199.039 79.2502,197.706 78,195.5C 73.6526,194.367 69.4859,192.867 65.5,191C 63.0807,189.491 62.0807,187.325 62.5,184.5C 60.8561,184.714 59.3561,184.38 58,183.5C 57.0443,179.765 55.8777,176.099 54.5,172.5C 55.7515,171.369 56.7515,170.036 57.5,168.5C 55.9433,163.269 54.9433,157.936 54.5,152.5 Z"/></g>
<g><path style="opacity:1" fill="#baada2" d="M 111.5,194.5 C 116.231,196.889 121.231,198.722 126.5,200C 133.744,201.652 141.077,202.652 148.5,203C 143.451,205.747 138.117,206.247 132.5,204.5C 118.321,200.44 104.321,195.774 90.5,190.5C 91.5,190.167 92.5,189.833 93.5,189.5C 99.4423,191.485 105.442,193.151 111.5,194.5 Z"/></g>
<g><path style="opacity:1" fill="#3f3730" d="M 226.5,177.5 C 225.596,178.209 225.263,179.209 225.5,180.5C 224.5,180.5 223.5,180.5 222.5,180.5C 222.657,179.127 222.49,177.793 222,176.5C 220.326,177.676 218.826,179.01 217.5,180.5C 216.604,179.494 215.938,179.494 215.5,180.5C 216.729,181.281 218.062,181.781 219.5,182C 218.328,182.419 217.328,183.085 216.5,184C 217.479,185.779 217.146,187.445 215.5,189C 216.167,189.333 216.833,189.667 217.5,190C 216.01,191.634 214.676,191.301 213.5,189C 214.451,188.282 214.617,187.449 214,186.5C 213.167,188 212,189.167 210.5,190C 211.448,190.483 212.448,190.649 213.5,190.5C 212.752,192.584 212.752,194.584 213.5,196.5C 213.167,196.833 212.833,197.167 212.5,197.5C 211.833,196.833 211.167,196.167 210.5,195.5C 208.164,197.073 208.164,198.406 210.5,199.5C 212.156,197.978 213.323,198.311 214,200.5C 215.268,200.384 216.602,200.051 218,199.5C 218.717,200.044 219.217,200.711 219.5,201.5C 219.671,204.797 219.005,205.131 217.5,202.5C 215.003,202.935 213.837,204.269 214,206.5C 214.667,205.833 215.333,205.167 216,204.5C 216.862,206.087 217.529,207.754 218,209.5C 218.333,208.5 218.667,207.5 219,206.5C 220.008,206.982 221.175,207.148 222.5,207C 219.818,210.42 220.651,211.253 225,209.5C 225.688,210.332 225.521,210.998 224.5,211.5C 223.365,212.103 222.365,212.436 221.5,212.5C 222.376,213.251 223.376,213.751 224.5,214C 223.167,214.667 223.167,215.333 224.5,216C 225.833,216.333 227.167,216.667 228.5,217C 227.833,217.333 227.167,217.667 226.5,218C 227.728,219.49 227.728,220.99 226.5,222.5C 225.153,223.171 223.986,223.171 223,222.5C 221.331,220.831 220.498,218.831 220.5,216.5C 219.167,216.5 217.833,216.5 216.5,216.5C 215.316,213.138 213.149,210.471 210,208.5C 209.667,208.833 209.333,209.167 209,209.5C 207.104,204.712 204.438,200.378 201,196.5C 200.221,194.193 200.721,192.193 202.5,190.5C 201.689,189.784 201.022,188.95 200.5,188C 201.695,186.467 201.695,184.967 200.5,183.5C 203.861,181.315 204.194,178.815 201.5,176C 201.728,175.601 202.062,175.435 202.5,175.5C 203.222,175.918 203.722,176.584 204,177.5C 206.621,175.882 208.954,173.882 211,171.5C 211.414,171.957 211.914,172.291 212.5,172.5C 213.938,169.177 215.771,168.844 218,171.5C 220.096,170.285 219.929,169.451 217.5,169C 219.108,168.342 220.275,168.842 221,170.5C 221.333,169.833 221.667,169.167 222,168.5C 222.853,170.125 223.853,170.458 225,169.5C 225.273,171.101 225.773,172.601 226.5,174C 224.069,175.092 224.069,176.259 226.5,177.5 Z"/></g>
<g><path style="opacity:1" fill="#cab7a6" d="M 196.5,184.5 C 196.953,185.458 197.619,186.292 198.5,187C 197.826,188.751 197.493,190.417 197.5,192C 199.129,195.057 200.462,198.223 201.5,201.5C 200.12,202.706 198.953,202.373 198,200.5C 195.336,201.534 195.169,203.2 197.5,205.5C 195.237,209.087 191.903,210.921 187.5,211C 187.802,212.655 189.136,213.988 191.5,215C 189.814,217.325 188.314,220.159 187,223.5C 186.501,218.511 186.334,213.511 186.5,208.5C 188.484,208.617 190.15,207.95 191.5,206.5C 190.89,203.286 191.723,200.286 194,197.5C 195.661,201.517 196.828,201.35 197.5,197C 196.765,192.882 195.265,188.716 193,184.5C 192.28,186.112 192.446,187.612 193.5,189C 192.167,188.667 190.833,188.333 189.5,188C 190.634,189.016 190.301,189.683 188.5,190C 189.833,191.84 189.666,192.34 188,191.5C 187.764,193.119 186.931,194.119 185.5,194.5C 185.5,180.167 185.5,165.833 185.5,151.5C 186.735,151.279 187.735,150.612 188.5,149.5C 189.571,151.325 188.904,152.492 186.5,153C 187.253,154.487 188.086,154.654 189,153.5C 187.88,158.039 189.547,159.372 194,157.5C 193.798,160.228 193.964,162.895 194.5,165.5C 193.872,167.258 192.872,168.758 191.5,170C 192.738,169.923 193.738,170.089 194.5,170.5C 193.835,172.101 193.501,173.601 193.5,175C 194.819,178.253 195.819,181.42 196.5,184.5 Z"/></g>
<g><path style="opacity:1" fill="#96897e" d="M 66.5,175.5 C 69.3664,178.521 72.6997,181.021 76.5,183C 83.2153,183.913 89.882,185.079 96.5,186.5C 97.4164,186.457 98.0831,186.124 98.5,185.5C 112.026,190.298 125.693,194.631 139.5,198.5C 136.696,199.638 133.696,199.805 130.5,199C 124.162,197.433 117.829,195.933 111.5,194.5C 105.442,193.151 99.4423,191.485 93.5,189.5C 92.5,189.833 91.5,190.167 90.5,190.5C 104.321,195.774 118.321,200.44 132.5,204.5C 133.99,206.28 135.99,206.946 138.5,206.5C 139.635,207.474 140.635,208.641 141.5,210C 137.328,211.563 133.162,212.063 129,211.5C 125.333,212.833 121.667,214.167 118,215.5C 116.757,214.664 115.59,214.997 114.5,216.5C 113.418,223.136 113.418,229.803 114.5,236.5C 115.791,236.263 116.791,236.596 117.5,237.5C 99.1667,237.5 80.8333,237.5 62.5,237.5C 63.0905,235.903 64.0905,234.569 65.5,233.5C 64.5,232.833 63.5,232.167 62.5,231.5C 65.8518,230.095 66.0185,228.761 63,227.5C 61.1476,225.77 61.3143,224.604 63.5,224C 62.6948,222.028 61.3615,220.528 59.5,219.5C 62.002,217.537 64.6687,217.204 67.5,218.5C 68.3265,214.541 68.8265,210.541 69,206.5C 72.7896,205.864 76.6229,205.197 80.5,204.5C 82.9913,203.459 82.9913,202.626 80.5,202C 82.1667,201.667 83.8333,201.333 85.5,201C 84.5842,200.722 83.9175,200.222 83.5,199.5C 89.9069,199.09 96.0736,200.09 102,202.5C 104.149,202.342 105.983,201.508 107.5,200C 96.1437,195.771 85.1437,190.771 74.5,185C 70.9084,182.287 67.4084,179.453 64,176.5C 63.3333,175.833 63.3333,175.167 64,174.5C 64.6708,175.252 65.5041,175.586 66.5,175.5 Z"/></g>
<g><path style="opacity:1" fill="#2e2625" d="M 269.5,223.5 C 269.5,228.167 269.5,232.833 269.5,237.5C 261.5,237.5 253.5,237.5 245.5,237.5C 244.766,236.292 244.433,234.959 244.5,233.5C 241.31,233.487 238.476,232.487 236,230.5C 234.187,229.309 233.354,227.976 233.5,226.5C 232.583,227.127 231.583,227.461 230.5,227.5C 228.739,226.687 227.072,225.687 225.5,224.5C 225.833,223.833 226.167,223.167 226.5,222.5C 227.728,220.99 227.728,219.49 226.5,218C 227.167,217.667 227.833,217.333 228.5,217C 227.167,216.667 225.833,216.333 224.5,216C 223.167,215.333 223.167,214.667 224.5,214C 223.376,213.751 222.376,213.251 221.5,212.5C 222.365,212.436 223.365,212.103 224.5,211.5C 225.521,210.998 225.688,210.332 225,209.5C 220.651,211.253 219.818,210.42 222.5,207C 221.175,207.148 220.008,206.982 219,206.5C 218.667,207.5 218.333,208.5 218,209.5C 217.529,207.754 216.862,206.087 216,204.5C 215.333,205.167 214.667,205.833 214,206.5C 213.837,204.269 215.003,202.935 217.5,202.5C 219.005,205.131 219.671,204.797 219.5,201.5C 220.601,200.152 221.601,198.652 222.5,197C 220.965,197.661 219.298,197.994 217.5,198C 218.727,196.413 218.394,195.079 216.5,194C 218.108,193.342 219.275,193.842 220,195.5C 220.667,192.833 221.333,192.833 222,195.5C 222.317,193.699 222.984,193.366 224,194.5C 223.923,193.262 224.089,192.262 224.5,191.5C 226.5,192.167 227.833,193.5 228.5,195.5C 226.744,197.191 226.244,199.191 227,201.5C 227.333,200.5 227.667,199.5 228,198.5C 228.08,200.248 228.913,201.915 230.5,203.5C 230.911,202.738 231.077,201.738 231,200.5C 233.09,201.791 234.424,201.124 235,198.5C 235.684,199.784 235.517,200.951 234.5,202C 235.98,204.668 237.48,204.835 239,202.5C 239.691,204.891 240.691,204.891 242,202.5C 244.998,205.242 247.331,204.909 249,201.5C 249.725,202.059 250.558,202.392 251.5,202.5C 253.27,203.856 254.936,205.356 256.5,207C 254.314,207.604 254.148,208.77 256,210.5C 256.667,207.833 257.333,207.833 258,210.5C 258.725,208.842 259.892,208.342 261.5,209C 260.692,209.308 260.025,209.808 259.5,210.5C 260.5,211.5 261.5,212.5 262.5,213.5C 262.669,212.603 263.002,211.603 263.5,210.5C 264.086,210.709 264.586,211.043 265,211.5C 265.151,214.119 265.985,216.453 267.5,218.5C 265.979,218.88 264.313,219.046 262.5,219C 261.809,220.067 261.309,221.234 261,222.5C 260.667,222.167 260.333,221.833 260,221.5C 256.682,223.659 256.849,224.325 260.5,223.5C 261.167,224.5 261.833,225.5 262.5,226.5C 263.711,225.726 263.711,224.893 262.5,224C 263.025,223.308 263.692,222.808 264.5,222.5C 264.833,223.167 265.167,223.833 265.5,224.5C 266.251,223.624 266.751,222.624 267,221.5C 267.708,222.381 268.542,223.047 269.5,223.5 Z"/></g>
<g><path style="opacity:1" fill="#706861" d="M 182.5,138.5 C 181.044,144.394 180.377,150.394 180.5,156.5C 178.783,183.313 178.116,210.313 178.5,237.5C 178.167,237.5 177.833,237.5 177.5,237.5C 177.089,204.797 177.923,172.13 180,139.5C 180.671,138.748 181.504,138.414 182.5,138.5 Z"/></g>
<g><path style="opacity:1" fill="#a3968a" d="M 138.5,206.5 C 140.827,206.247 142.827,206.914 144.5,208.5C 142.952,212.884 140.119,216.218 136,218.5C 135.21,224.915 135.376,231.248 136.5,237.5C 130.167,237.5 123.833,237.5 117.5,237.5C 116.791,236.596 115.791,236.263 114.5,236.5C 113.418,229.803 113.418,223.136 114.5,216.5C 115.59,214.997 116.757,214.664 118,215.5C 121.667,214.167 125.333,212.833 129,211.5C 133.162,212.063 137.328,211.563 141.5,210C 140.635,208.641 139.635,207.474 138.5,206.5 Z"/></g>
<g><path style="opacity:1" fill="#afa093" d="M 167.5,132.5 C 167.655,136.629 168.488,140.629 170,144.5C 170.196,154.87 170.862,165.204 172,175.5C 172.333,175.167 172.667,174.833 173,174.5C 172.4,195.502 171.233,216.502 169.5,237.5C 158.5,237.5 147.5,237.5 136.5,237.5C 135.376,231.248 135.21,224.915 136,218.5C 140.119,216.218 142.952,212.884 144.5,208.5C 142.827,206.914 140.827,206.247 138.5,206.5C 135.99,206.946 133.99,206.28 132.5,204.5C 138.117,206.247 143.451,205.747 148.5,203C 141.077,202.652 133.744,201.652 126.5,200C 121.231,198.722 116.231,196.889 111.5,194.5C 117.829,195.933 124.162,197.433 130.5,199C 133.696,199.805 136.696,199.638 139.5,198.5C 143.182,198.665 146.848,198.499 150.5,198C 153.025,197.576 155.025,196.41 156.5,194.5C 158.836,192.996 160.669,190.996 162,188.5C 164.654,172.799 165.154,157.132 163.5,141.5C 163.5,141.167 163.5,140.833 163.5,140.5C 164.117,140.389 164.617,140.056 165,139.5C 165.333,141.5 165.667,143.5 166,145.5C 166.175,140.981 166.675,136.647 167.5,132.5 Z"/></g>
<g><path style="opacity:1" fill="#645e58" d="M 19.5,237.5 C 16.5,237.5 13.5,237.5 10.5,237.5C 10.5,224.833 10.5,212.167 10.5,199.5C 11.2216,199.918 11.7216,200.584 12,201.5C 12.3333,199.167 12.6667,196.833 13,194.5C 13.3333,201.167 13.6667,207.833 14,214.5C 14.3333,211.833 14.6667,209.167 15,206.5C 16.2493,221.419 17.2493,221.753 18,207.5C 18.3333,207.833 18.6667,208.167 19,208.5C 19.4998,218.161 19.6665,227.828 19.5,237.5 Z"/></g>
<g><path style="opacity:1" fill="#d9c4b1" d="M 201.5,201.5 C 203.928,203.614 205.594,206.281 206.5,209.5C 206.962,211.757 207.962,213.757 209.5,215.5C 209.291,216.086 208.957,216.586 208.5,217C 210.134,217.494 211.801,217.66 213.5,217.5C 213.714,219.144 213.38,220.644 212.5,222C 213.833,222.333 215.167,222.667 216.5,223C 214.842,223.725 214.342,224.892 215,226.5C 216.833,226.333 218.667,226.167 220.5,226C 218.734,227.698 216.734,229.031 214.5,230C 216.432,230.138 218.266,229.638 220,228.5C 221.837,228.665 223.837,229.332 226,230.5C 227.011,229.663 228.178,229.33 229.5,229.5C 229.693,232.308 230.36,234.975 231.5,237.5C 216.167,237.5 200.833,237.5 185.5,237.5C 185.5,223.167 185.5,208.833 185.5,194.5C 186.931,194.119 187.764,193.119 188,191.5C 189.666,192.34 189.833,191.84 188.5,190C 190.301,189.683 190.634,189.016 189.5,188C 190.833,188.333 192.167,188.667 193.5,189C 192.446,187.612 192.28,186.112 193,184.5C 195.265,188.716 196.765,192.882 197.5,197C 196.828,201.35 195.661,201.517 194,197.5C 191.723,200.286 190.89,203.286 191.5,206.5C 190.15,207.95 188.484,208.617 186.5,208.5C 186.334,213.511 186.501,218.511 187,223.5C 188.314,220.159 189.814,217.325 191.5,215C 189.136,213.988 187.802,212.655 187.5,211C 191.903,210.921 195.237,209.087 197.5,205.5C 195.169,203.2 195.336,201.534 198,200.5C 198.953,202.373 200.12,202.706 201.5,201.5 Z"/></g>
<g><path style="opacity:1" fill="#59534c" d="M 26.5,237.5 C 24.5,237.5 22.5,237.5 20.5,237.5C 20.5,222.167 20.5,206.833 20.5,191.5C 19.1266,191.657 17.7932,191.49 16.5,191C 18.4783,188.985 20.3116,189.152 22,191.5C 24.3827,206.762 25.8827,222.095 26.5,237.5 Z"/></g>
<g><path style="opacity:1" fill="#ad9888" d="M 206.5,209.5 C 211.963,214.126 217.296,218.96 222.5,224C 221.346,224.914 221.513,225.747 223,226.5C 223.417,225.244 224.25,224.577 225.5,224.5C 227.072,225.687 228.739,226.687 230.5,227.5C 234.522,229.826 238.189,233.159 241.5,237.5C 238.167,237.5 234.833,237.5 231.5,237.5C 230.36,234.975 229.693,232.308 229.5,229.5C 228.178,229.33 227.011,229.663 226,230.5C 223.837,229.332 221.837,228.665 220,228.5C 218.266,229.638 216.432,230.138 214.5,230C 216.734,229.031 218.734,227.698 220.5,226C 218.667,226.167 216.833,226.333 215,226.5C 214.342,224.892 214.842,223.725 216.5,223C 215.167,222.667 213.833,222.333 212.5,222C 213.38,220.644 213.714,219.144 213.5,217.5C 211.801,217.66 210.134,217.494 208.5,217C 208.957,216.586 209.291,216.086 209.5,215.5C 207.962,213.757 206.962,211.757 206.5,209.5 Z"/></g>
<g><path style="opacity:1" fill="#604f47" d="M 245.5,237.5 C 244.167,237.5 242.833,237.5 241.5,237.5C 238.189,233.159 234.522,229.826 230.5,227.5C 231.583,227.461 232.583,227.127 233.5,226.5C 233.354,227.976 234.187,229.309 236,230.5C 238.476,232.487 241.31,233.487 244.5,233.5C 244.433,234.959 244.766,236.292 245.5,237.5 Z"/></g>
</svg>
