<?xml version="1.0" encoding="UTF-8"?>
<!DOCTYPE svg PUBLIC "-//W3C//DTD SVG 1.1//EN" "http://www.w3.org/Graphics/SVG/1.1/DTD/svg11.dtd">
<svg xmlns="http://www.w3.org/2000/svg" version="1.1" width="256px" height="263px" style="shape-rendering:geometricPrecision; text-rendering:geometricPrecision; image-rendering:optimizeQuality; fill-rule:evenodd; clip-rule:evenodd" xmlns:xlink="http://www.w3.org/1999/xlink">
<g><path style="opacity:1" fill="#7b9a9c" d="M 138.5,-0.5 C 142.5,-0.5 146.5,-0.5 150.5,-0.5C 171.401,5.63088 189.734,16.4642 205.5,32C 206.766,32.3095 207.933,32.8095 209,33.5C 215.788,41.7777 221.955,50.4444 227.5,59.5C 226.193,61.4822 224.859,63.4822 223.5,65.5C 225.151,67.4021 225.484,69.4021 224.5,71.5C 226.089,74.421 227.589,77.421 229,80.5C 229.684,79.2161 229.517,78.0495 228.5,77C 228.833,76.8333 229.167,76.6667 229.5,76.5C 229.833,77.5 230.167,78.5 230.5,79.5C 228.793,86.3974 227.793,93.3974 227.5,100.5C 229.167,100.5 230.833,100.5 232.5,100.5C 232.568,106.707 232.235,113.041 231.5,119.5C 230.28,118.289 229.113,118.289 228,119.5C 227.61,123.514 227.11,127.514 226.5,131.5C 229.075,136.919 228.075,141.752 223.5,146C 224.203,152.622 224.87,159.289 225.5,166C 224.793,168.54 223.127,169.707 220.5,169.5C 220.5,170.833 220.5,172.167 220.5,173.5C 221.552,173.351 222.552,173.517 223.5,174C 221.479,174.513 219.979,175.68 219,177.5C 217.096,181.169 216.096,184.835 216,188.5C 213.182,192.318 210.015,195.818 206.5,199C 205.167,199.667 203.833,200.333 202.5,201C 202.966,202.299 202.966,203.799 202.5,205.5C 198.096,206.165 195.263,208.165 194,211.5C 193.055,211.095 192.388,210.428 192,209.5C 188.958,212.08 185.625,212.746 182,211.5C 181.167,213 180,214.167 178.5,215C 171.534,214.678 164.367,214.511 157,214.5C 156.751,215.624 156.251,216.624 155.5,217.5C 154.83,215.709 154.163,214.042 153.5,212.5C 153.5,209.833 153.5,207.167 153.5,204.5C 152.5,204.5 151.5,204.5 150.5,204.5C 150.737,203.209 150.404,202.209 149.5,201.5C 149.267,198.458 148.267,195.792 146.5,193.5C 147.244,188.686 147.911,183.852 148.5,179C 148.083,173.584 146.749,168.418 144.5,163.5C 144.5,162.833 144.167,162.5 143.5,162.5C 143.17,159.843 142.837,157.176 142.5,154.5C 144.655,150.152 145.655,145.486 145.5,140.5C 151.651,139.756 156.651,136.923 160.5,132C 161.5,131.333 162.5,131.333 163.5,132C 163.399,139.201 166.399,144.701 172.5,148.5C 171.051,149.172 169.718,149.839 168.5,150.5C 164.379,149.658 161.379,150.991 159.5,154.5C 155.348,155.142 153.348,157.642 153.5,162C 153.639,163.301 154.305,164.134 155.5,164.5C 156.806,165.467 157.473,166.801 157.5,168.5C 156.167,170.167 156.167,171.833 157.5,173.5C 157.953,174.458 158.619,175.292 159.5,176C 162.471,176.471 165.138,177.638 167.5,179.5C 168.736,178.754 170.07,178.421 171.5,178.5C 171.5,179.167 171.833,179.5 172.5,179.5C 173.946,180.613 175.613,180.78 177.5,180C 180.647,179.044 183.647,177.877 186.5,176.5C 187.496,176.586 188.329,176.252 189,175.5C 190.166,172.497 191.833,169.83 194,167.5C 194.941,165.011 194.441,163.011 192.5,161.5C 192.276,159.213 191.609,157.047 190.5,155C 195.354,149.113 197.854,142.28 198,134.5C 203.607,130.929 206.607,125.929 207,119.5C 206.184,118.177 205.017,117.511 203.5,117.5C 202.833,117.5 202.167,117.5 201.5,117.5C 201.5,114.833 201.5,112.167 201.5,109.5C 201.647,103.589 199.647,98.5887 195.5,94.5C 197.606,93.2171 199.94,92.3838 202.5,92C 201.376,91.7508 200.376,91.2508 199.5,90.5C 200.709,87.6921 202.043,85.0255 203.5,82.5C 204.5,78 205.5,73.5 206.5,69C 205.225,63.9029 204.391,58.7362 204,53.5C 203.667,53.1667 203.333,52.8333 203,52.5C 202.072,55.0352 200.238,56.0352 197.5,55.5C 198.137,50.999 197.137,46.999 194.5,43.5C 193.548,41.9547 193.215,40.288 193.5,38.5C 190.603,38.3187 187.77,38.6521 185,39.5C 184.5,39.1667 184,38.8333 183.5,38.5C 185.892,31.7476 183.559,29.9143 176.5,33C 175.228,34.3068 174.228,35.8068 173.5,37.5C 172.513,34.2317 172.18,30.8984 172.5,27.5C 170.5,27.5 168.5,27.5 166.5,27.5C 166.5,26.1667 166.5,24.8333 166.5,23.5C 163.15,23.335 159.817,23.5017 156.5,24C 158.946,25.4828 158.612,26.6495 155.5,27.5C 154.667,26.5 153.833,25.5 153,24.5C 152.161,25.6241 150.994,26.2908 149.5,26.5C 147.231,25.7967 145.231,24.6301 143.5,23C 138.447,22.7826 133.447,22.2826 128.5,21.5C 127.995,23.7695 126.662,25.1028 124.5,25.5C 123.773,20.5818 122.44,15.9151 120.5,11.5C 118.423,8.76229 115.757,6.76229 112.5,5.5C 111.571,4.68509 110.571,3.85175 109.5,3C 110.108,2.13008 110.941,1.63008 112,1.5C 114.668,2.67018 117.002,4.33685 119,6.5C 121.952,4.83404 124.952,3.16737 128,1.5C 129.473,3.00712 131.307,3.67379 133.5,3.5C 136.993,2.24665 140.66,1.41331 144.5,1C 142.292,0.809116 140.292,0.309116 138.5,-0.5 Z"/></g>
<g><path style="opacity:1" fill="#82868b" d="M 150.5,-0.5 C 160.5,-0.5 170.5,-0.5 180.5,-0.5C 184.638,0.587505 188.638,2.25417 192.5,4.5C 193.803,3.28217 194.803,3.6155 195.5,5.5C 199.36,6.54721 203.026,8.04721 206.5,10C 210.518,14.2212 214.852,18.0545 219.5,21.5C 221.689,24.5455 223.356,27.8788 224.5,31.5C 225.325,32.3857 226.325,32.719 227.5,32.5C 227.338,34.5273 227.505,36.5273 228,38.5C 232.79,47.2821 236.623,56.4488 239.5,66C 238.941,66.7247 238.608,67.5581 238.5,68.5C 240.5,72.5 242.5,76.5 244.5,80.5C 244.32,81.5539 243.987,82.5539 243.5,83.5C 245.798,87.8693 246.964,92.536 247,97.5C 247.333,97.1667 247.667,96.8333 248,96.5C 248.163,98.676 248.996,100.509 250.5,102C 250.678,106.277 250.344,110.611 249.5,115C 252.285,122.001 251.785,128.834 248,135.5C 248.535,141.921 247.369,148.088 244.5,154C 245.409,155.789 245.576,157.623 245,159.5C 243.915,162.092 242.248,164.759 240,167.5C 239.667,166.5 239.333,165.5 239,164.5C 238.749,166.433 238.249,168.266 237.5,170C 238.019,172.026 238.353,174.026 238.5,176C 236.311,176.677 235.978,177.844 237.5,179.5C 236.103,181.982 235.269,184.648 235,187.5C 234.667,187.167 234.333,186.833 234,186.5C 231.218,190.703 229.884,195.37 230,200.5C 229.667,200.167 229.333,199.833 229,199.5C 227.167,201.333 225.333,203.167 223.5,205C 223.833,205.333 224.167,205.667 224.5,206C 221.202,210.3 217.535,214.3 213.5,218C 212.167,218.333 210.833,218.667 209.5,219C 211.405,219.826 211.739,220.993 210.5,222.5C 206.55,225.264 202.217,227.264 197.5,228.5C 192.126,228.523 186.793,229.023 181.5,230C 182.416,230.278 183.082,230.778 183.5,231.5C 180.167,231.5 176.833,231.5 173.5,231.5C 174.953,230.175 174.619,229.342 172.5,229C 175.882,228.824 179.215,228.324 182.5,227.5C 187.616,224.419 192.616,221.252 197.5,218C 203.708,211.125 210.541,204.958 218,199.5C 220.023,197.231 220.856,194.564 220.5,191.5C 221.833,191.5 223.167,191.5 224.5,191.5C 224.343,190.127 224.51,188.793 225,187.5C 231.752,177.883 235.586,167.383 236.5,156C 237.448,155.517 238.448,155.351 239.5,155.5C 241.454,146.558 243.287,137.225 245,127.5C 245.634,110.739 243.301,94.4053 238,78.5C 234.977,71.7774 231.477,65.4441 227.5,59.5C 221.955,50.4444 215.788,41.7777 209,33.5C 207.933,32.8095 206.766,32.3095 205.5,32C 189.734,16.4642 171.401,5.63088 150.5,-0.5 Z"/></g>
<g><path style="opacity:1" fill="#807f85" d="M 180.5,-0.5 C 205.5,-0.5 230.5,-0.5 255.5,-0.5C 255.5,62.1667 255.5,124.833 255.5,187.5C 254.634,190.424 253.634,193.424 252.5,196.5C 251.5,195.833 250.5,195.167 249.5,194.5C 246.001,196.978 244.334,200.311 244.5,204.5C 246.527,204.338 248.527,204.505 250.5,205C 249.552,205.483 248.552,205.649 247.5,205.5C 246.781,209.165 245.948,212.832 245,216.5C 242.959,217.423 240.792,217.756 238.5,217.5C 238.322,220.322 237.655,222.989 236.5,225.5C 237.175,228.178 237.842,230.844 238.5,233.5C 236.089,233.863 234.589,232.863 234,230.5C 233.941,225.652 233.274,220.985 232,216.5C 230.681,220.829 227.848,223.495 223.5,224.5C 224.853,225.524 225.52,226.857 225.5,228.5C 222.972,229.023 220.639,230.023 218.5,231.5C 211.458,229.974 204.458,228.974 197.5,228.5C 202.217,227.264 206.55,225.264 210.5,222.5C 211.739,220.993 211.405,219.826 209.5,219C 210.833,218.667 212.167,218.333 213.5,218C 217.535,214.3 221.202,210.3 224.5,206C 224.167,205.667 223.833,205.333 223.5,205C 225.333,203.167 227.167,201.333 229,199.5C 229.333,199.833 229.667,200.167 230,200.5C 229.884,195.37 231.218,190.703 234,186.5C 234.333,186.833 234.667,187.167 235,187.5C 235.269,184.648 236.103,181.982 237.5,179.5C 235.978,177.844 236.311,176.677 238.5,176C 238.353,174.026 238.019,172.026 237.5,170C 238.249,168.266 238.749,166.433 239,164.5C 239.333,165.5 239.667,166.5 240,167.5C 242.248,164.759 243.915,162.092 245,159.5C 245.576,157.623 245.409,155.789 244.5,154C 247.369,148.088 248.535,141.921 248,135.5C 251.785,128.834 252.285,122.001 249.5,115C 250.344,110.611 250.678,106.277 250.5,102C 248.996,100.509 248.163,98.676 248,96.5C 247.667,96.8333 247.333,97.1667 247,97.5C 246.964,92.536 245.798,87.8693 243.5,83.5C 243.987,82.5539 244.32,81.5539 244.5,80.5C 242.5,76.5 240.5,72.5 238.5,68.5C 238.608,67.5581 238.941,66.7247 239.5,66C 236.623,56.4488 232.79,47.2821 228,38.5C 227.505,36.5273 227.338,34.5273 227.5,32.5C 226.325,32.719 225.325,32.3857 224.5,31.5C 223.356,27.8788 221.689,24.5455 219.5,21.5C 214.852,18.0545 210.518,14.2212 206.5,10C 203.026,8.04721 199.36,6.54721 195.5,5.5C 194.803,3.6155 193.803,3.28217 192.5,4.5C 188.638,2.25417 184.638,0.587505 180.5,-0.5 Z"/></g>
<g><path style="opacity:1" fill="#818489" d="M -0.5,-0.5 C 25.1667,-0.5 50.8333,-0.5 76.5,-0.5C 52.9988,7.41274 32.9988,20.5794 16.5,39C 13.8793,41.2013 11.0459,43.0347 8,44.5C 5.24833,48.9938 2.415,53.3271 -0.5,57.5C -0.5,38.1667 -0.5,18.8333 -0.5,-0.5 Z"/></g>
<g><path style="opacity:1" fill="#7b979a" d="M 76.5,-0.5 C 97.1667,-0.5 117.833,-0.5 138.5,-0.5C 140.292,0.309116 142.292,0.809116 144.5,1C 140.66,1.41331 136.993,2.24665 133.5,3.5C 131.307,3.67379 129.473,3.00712 128,1.5C 124.952,3.16737 121.952,4.83404 119,6.5C 117.002,4.33685 114.668,2.67018 112,1.5C 110.941,1.63008 110.108,2.13008 109.5,3C 110.571,3.85175 111.571,4.68509 112.5,5.5C 104.822,5.52911 99.1552,8.86245 95.5,15.5C 91.1833,16.7668 89.5166,19.4335 90.5,23.5C 88.2829,24.2376 86.1163,24.5709 84,24.5C 80.2137,21.8712 76.7137,22.0379 73.5,25C 66.7636,26.0177 60.097,27.3511 53.5,29C 52.4271,31.6566 50.7605,33.8232 48.5,35.5C 45.3529,34.0251 42.3529,34.1918 39.5,36C 43.7319,39.4695 43.0652,41.3028 37.5,41.5C 37.5,42.8333 37.5,44.1667 37.5,45.5C 34.3959,44.9711 32.0625,45.9711 30.5,48.5C 31.325,49.3857 32.325,49.719 33.5,49.5C 33.5,50.8333 33.5,52.1667 33.5,53.5C 31.8008,53.3398 30.1341,53.5065 28.5,54C 29.5,54.3333 30.5,54.6667 31.5,55C 29.8645,56.434 28.8645,58.2674 28.5,60.5C 29.2193,63.3125 29.886,66.1459 30.5,69C 30.3699,70.0588 29.8699,70.8921 29,71.5C 28.5034,69.1902 28.3367,66.8568 28.5,64.5C 27.1667,64.5 25.8333,64.5 24.5,64.5C 24.6663,71.5079 24.4996,78.5079 24,85.5C 23.5503,87.519 22.717,89.3523 21.5,91C 22.7932,91.49 24.1266,91.6567 25.5,91.5C 25.3505,92.552 25.5172,93.552 26,94.5C 26.6667,95.8333 27.3333,95.8333 28,94.5C 28.1829,91.6353 28.6829,88.9686 29.5,86.5C 29.6655,90.5138 29.4988,94.5138 29,98.5C 26.6127,101.377 23.946,104.044 21,106.5C 20.1283,109.361 18.9616,112.028 17.5,114.5C 16.3065,115.272 15.3065,116.272 14.5,117.5C 13.3509,117.791 12.6842,118.624 12.5,120C 12.528,121.07 12.8614,121.903 13.5,122.5C 14.7751,126.773 17.4418,129.773 21.5,131.5C 19.2776,131.822 17.4443,131.155 16,129.5C 15.4644,131.567 15.9644,133.401 17.5,135C 15.9242,135.388 14.5909,134.888 13.5,133.5C 12.9851,131.775 12.3184,130.108 11.5,128.5C 10.5159,131.428 10.1826,134.428 10.5,137.5C 11.8333,137.5 13.1667,137.5 14.5,137.5C 16.0279,151.667 18.5279,165.667 22,179.5C 23.2547,180.211 24.4214,181.044 25.5,182C 25.6198,183.713 25.4531,185.546 25,187.5C 27.2949,190.065 30.1282,191.731 33.5,192.5C 34.1667,193.833 34.8333,195.167 35.5,196.5C 38.2762,197.089 40.6096,198.422 42.5,200.5C 39.8534,203.061 40.52,204.561 44.5,205C 44.1667,205.333 43.8333,205.667 43.5,206C 44.4162,206.374 45.2496,206.874 46,207.5C 46.804,206.196 47.9707,205.529 49.5,205.5C 51.5,206 53.5,206.5 55.5,207C 56.8804,208.925 58.3804,210.759 60,212.5C 60.3879,211.572 61.0546,210.905 62,210.5C 63.4064,211.414 64.9064,212.08 66.5,212.5C 67.4054,213.702 67.4054,215.036 66.5,216.5C 65.8485,217.091 65.1818,217.757 64.5,218.5C 63.1877,217.54 61.8544,217.706 60.5,219C 61.3081,219.308 61.9747,219.808 62.5,220.5C 61.7958,222.101 60.6292,223.435 59,224.5C 57.8032,222.208 56.1365,221.875 54,223.5C 43.4374,220.245 33.604,215.578 24.5,209.5C 19.1506,204.309 13.4839,199.476 7.5,195C 4.39557,190.92 1.7289,186.753 -0.5,182.5C -0.5,140.833 -0.5,99.1667 -0.5,57.5C 2.415,53.3271 5.24833,48.9938 8,44.5C 11.0459,43.0347 13.8793,41.2013 16.5,39C 32.9988,20.5794 52.9988,7.41274 76.5,-0.5 Z"/></g>
<g><path style="opacity:1" fill="#6e504a" d="M 112.5,5.5 C 115.757,6.76229 118.423,8.76229 120.5,11.5C 120.657,12.8734 120.49,14.2068 120,15.5C 118.312,9.89794 114.478,7.73128 108.5,9C 110.952,9.28953 113.285,9.9562 115.5,11C 116.517,12.0495 116.684,13.2161 116,14.5C 115.667,14.1667 115.333,13.8333 115,13.5C 114.385,15.1161 113.385,16.4495 112,17.5C 109.169,15.2336 106.003,14.9002 102.5,16.5C 99.5,18.5 96.5,20.5 93.5,22.5C 93.4455,21.4699 93.1122,20.3033 92.5,19C 93.7101,17.9609 94.7101,16.7942 95.5,15.5C 99.1552,8.86245 104.822,5.52911 112.5,5.5 Z"/></g>
<g><path style="opacity:1" fill="#7b9ea0" d="M 195.5,94.5 C 193.883,93.962 192.216,93.6287 190.5,93.5C 192.048,71.0467 182.048,63.0467 160.5,69.5C 159.416,69.315 158.416,68.9817 157.5,68.5C 155.111,65.2586 152.111,64.2586 148.5,65.5C 147.833,65.1667 147.167,64.8333 146.5,64.5C 143.992,62.0764 140.992,60.4097 137.5,59.5C 136.01,57.7202 134.01,57.0535 131.5,57.5C 129.957,55.4433 128.957,55.4433 128.5,57.5C 128.167,57.5 127.833,57.5 127.5,57.5C 127.5,54.8333 127.5,52.1667 127.5,49.5C 128.461,47.7354 128.795,45.7354 128.5,43.5C 129.993,42.6879 130.66,41.3545 130.5,39.5C 130.714,37.0582 129.714,35.3915 127.5,34.5C 126.791,33.596 125.791,33.2627 124.5,33.5C 123.343,30.9741 123.343,28.3074 124.5,25.5C 126.662,25.1028 127.995,23.7695 128.5,21.5C 133.447,22.2826 138.447,22.7826 143.5,23C 145.231,24.6301 147.231,25.7967 149.5,26.5C 150.994,26.2908 152.161,25.6241 153,24.5C 153.833,25.5 154.667,26.5 155.5,27.5C 158.612,26.6495 158.946,25.4828 156.5,24C 159.817,23.5017 163.15,23.335 166.5,23.5C 166.5,24.8333 166.5,26.1667 166.5,27.5C 168.5,27.5 170.5,27.5 172.5,27.5C 172.18,30.8984 172.513,34.2317 173.5,37.5C 174.228,35.8068 175.228,34.3068 176.5,33C 183.559,29.9143 185.892,31.7476 183.5,38.5C 184,38.8333 184.5,39.1667 185,39.5C 187.77,38.6521 190.603,38.3187 193.5,38.5C 193.215,40.288 193.548,41.9547 194.5,43.5C 197.137,46.999 198.137,50.999 197.5,55.5C 200.238,56.0352 202.072,55.0352 203,52.5C 203.333,52.8333 203.667,53.1667 204,53.5C 204.391,58.7362 205.225,63.9029 206.5,69C 205.5,73.5 204.5,78 203.5,82.5C 202.043,85.0255 200.709,87.6921 199.5,90.5C 200.376,91.2508 201.376,91.7508 202.5,92C 199.94,92.3838 197.606,93.2171 195.5,94.5 Z"/></g>
<g><path style="opacity:1" fill="#7c9fa1" d="M 90.5,23.5 C 94.0085,25.3791 95.3419,28.3791 94.5,32.5C 91.715,31.9162 90.0483,32.9162 89.5,35.5C 88.3709,37.6282 88.2042,39.9615 89,42.5C 89.9853,44.1749 90.8186,45.8415 91.5,47.5C 90.8333,48.8333 90.1667,50.1667 89.5,51.5C 88.5269,53.9479 88.1936,56.6146 88.5,59.5C 85.7718,59.1706 83.4385,59.8372 81.5,61.5C 75.8443,63.3332 70.511,65.6665 65.5,68.5C 65.1583,69.3382 64.4916,69.6716 63.5,69.5C 59.7591,68.2728 55.9257,67.2728 52,66.5C 50.9302,66.528 50.0968,66.8614 49.5,67.5C 38.2774,69.0563 31.6107,75.3897 29.5,86.5C 28.6829,88.9686 28.1829,91.6353 28,94.5C 27.3333,95.8333 26.6667,95.8333 26,94.5C 25.5172,93.552 25.3505,92.552 25.5,91.5C 24.1266,91.6567 22.7932,91.49 21.5,91C 22.717,89.3523 23.5503,87.519 24,85.5C 24.4996,78.5079 24.6663,71.5079 24.5,64.5C 25.8333,64.5 27.1667,64.5 28.5,64.5C 28.3367,66.8568 28.5034,69.1902 29,71.5C 29.8699,70.8921 30.3699,70.0588 30.5,69C 29.886,66.1459 29.2193,63.3125 28.5,60.5C 28.8645,58.2674 29.8645,56.434 31.5,55C 30.5,54.6667 29.5,54.3333 28.5,54C 30.1341,53.5065 31.8008,53.3398 33.5,53.5C 33.5,52.1667 33.5,50.8333 33.5,49.5C 32.325,49.719 31.325,49.3857 30.5,48.5C 32.0625,45.9711 34.3959,44.9711 37.5,45.5C 37.5,44.1667 37.5,42.8333 37.5,41.5C 43.0652,41.3028 43.7319,39.4695 39.5,36C 42.3529,34.1918 45.3529,34.0251 48.5,35.5C 50.7605,33.8232 52.4271,31.6566 53.5,29C 60.097,27.3511 66.7636,26.0177 73.5,25C 76.7137,22.0379 80.2137,21.8712 84,24.5C 86.1163,24.5709 88.2829,24.2376 90.5,23.5 Z"/></g>
<g><path style="opacity:1" fill="#48262c" d="M 120.5,11.5 C 122.44,15.9151 123.773,20.5818 124.5,25.5C 123.343,28.3074 123.343,30.9741 124.5,33.5C 124.068,34.7095 123.401,35.7095 122.5,36.5C 121.805,33.7198 120.805,31.0531 119.5,28.5C 119.5,26.1667 119.5,23.8333 119.5,21.5C 116.934,21.6556 114.434,21.3223 112,20.5C 108.588,22.2985 105.088,23.6318 101.5,24.5C 100.22,25.9313 98.5529,26.5979 96.5,26.5C 96.6641,29.1873 96.4974,31.854 96,34.5C 95.6232,35.9423 94.7899,36.9423 93.5,37.5C 93.6287,35.7839 93.962,34.1172 94.5,32.5C 95.3419,28.3791 94.0085,25.3791 90.5,23.5C 89.5166,19.4335 91.1833,16.7668 95.5,15.5C 94.7101,16.7942 93.7101,17.9609 92.5,19C 93.1122,20.3033 93.4455,21.4699 93.5,22.5C 96.5,20.5 99.5,18.5 102.5,16.5C 106.003,14.9002 109.169,15.2336 112,17.5C 113.385,16.4495 114.385,15.1161 115,13.5C 115.333,13.8333 115.667,14.1667 116,14.5C 116.684,13.2161 116.517,12.0495 115.5,11C 113.285,9.9562 110.952,9.28953 108.5,9C 114.478,7.73128 118.312,9.89794 120,15.5C 120.49,14.2068 120.657,12.8734 120.5,11.5 Z"/></g>
<g><path style="opacity:1" fill="#ba8476" d="M 101.5,24.5 C 95.267,24.4441 95.4337,23.4441 102,21.5C 102.5,21.6667 103,21.8333 103.5,22C 102.619,22.7083 101.953,23.5416 101.5,24.5 Z"/></g>
<g><path style="opacity:1" fill="#502a2a" d="M 116.5,29.5 C 113.975,29.39 111.308,29.7233 108.5,30.5C 107.075,28.9689 106.409,29.3023 106.5,31.5C 103.567,30.7264 100.901,30.393 98.5,30.5C 99.8618,28.2229 101.695,27.8896 104,29.5C 106.478,28.6925 108.978,27.6925 111.5,26.5C 113.445,27.1276 115.112,28.1276 116.5,29.5 Z"/></g>
<g><path style="opacity:1" fill="#80514a" d="M 97.5,30.5 C 97.8333,30.5 98.1667,30.5 98.5,30.5C 100.901,30.393 103.567,30.7264 106.5,31.5C 106.721,34.2788 106.388,36.9455 105.5,39.5C 104.662,39.1583 104.328,38.4916 104.5,37.5C 104.089,32.7065 102.089,31.7065 98.5,34.5C 98.6618,33.4082 98.3284,32.0749 97.5,30.5 Z"/></g>
<g><path style="opacity:1" fill="#744842" d="M 127.5,34.5 C 129.714,35.3915 130.714,37.0582 130.5,39.5C 130.66,41.3545 129.993,42.6879 128.5,43.5C 127.508,43.3284 126.842,43.6618 126.5,44.5C 125.957,44.44 125.624,44.1067 125.5,43.5C 126.325,42.6143 127.325,42.281 128.5,42.5C 128.819,40.2495 128.319,38.2495 127,36.5C 124.893,40.5149 124.227,40.1816 125,35.5C 125.671,34.7476 126.504,34.4142 127.5,34.5 Z"/></g>
<g><path style="opacity:1" fill="#b47464" d="M 94.5,32.5 C 93.962,34.1172 93.6287,35.7839 93.5,37.5C 92.1497,38.4831 91.1497,39.8164 90.5,41.5C 89.5344,39.604 89.2011,37.604 89.5,35.5C 90.0483,32.9162 91.715,31.9162 94.5,32.5 Z"/></g>
<g><path style="opacity:1" fill="#b08a7f" d="M 104.5,37.5 C 102.801,37.6602 101.134,37.4935 99.5,37C 98.7476,36.3292 98.4142,35.4959 98.5,34.5C 102.089,31.7065 104.089,32.7065 104.5,37.5 Z"/></g>
<g><path style="opacity:1" fill="#e39e85" d="M 119.5,28.5 C 118.539,26.7354 118.205,24.7354 118.5,22.5C 115.482,22.3354 112.482,22.502 109.5,23C 106.036,25.0465 102.37,26.7132 98.5,28C 97.7476,28.6708 97.4142,29.5041 97.5,30.5C 98.3284,32.0749 98.6618,33.4082 98.5,34.5C 98.4142,35.4959 98.7476,36.3292 99.5,37C 101.134,37.4935 102.801,37.6602 104.5,37.5C 104.328,38.4916 104.662,39.1583 105.5,39.5C 104.396,41.5959 105.23,42.5959 108,42.5C 110.188,42.646 111.521,41.646 112,39.5C 113.521,39.5186 115.021,39.852 116.5,40.5C 115.13,42.7073 115.797,44.374 118.5,45.5C 117.66,46.735 116.66,47.735 115.5,48.5C 110.489,48.3341 105.489,48.5007 100.5,49C 104.73,50.2899 109.064,50.7899 113.5,50.5C 111.369,51.3138 109.036,51.8138 106.5,52C 111.104,53.458 111.271,54.2913 107,54.5C 103.812,53.8039 101.312,52.1372 99.5,49.5C 99.4142,48.5041 99.7476,47.6708 100.5,47C 97.8333,45 97.8333,43 100.5,41C 98.4473,40.6753 96.4473,41.0087 94.5,42C 96.2908,43.8531 97.6241,46.0198 98.5,48.5C 96.857,48.5198 95.5237,47.8532 94.5,46.5C 93.5832,47.1272 92.5832,47.4606 91.5,47.5C 92.2572,44.2089 92.9239,40.8756 93.5,37.5C 94.7899,36.9423 95.6232,35.9423 96,34.5C 96.4974,31.854 96.6641,29.1873 96.5,26.5C 98.5529,26.5979 100.22,25.9313 101.5,24.5C 105.088,23.6318 108.588,22.2985 112,20.5C 114.434,21.3223 116.934,21.6556 119.5,21.5C 119.5,23.8333 119.5,26.1667 119.5,28.5 Z"/></g>
<g><path style="opacity:1" fill="#f8b693" d="M 119.5,28.5 C 120.805,31.0531 121.805,33.7198 122.5,36.5C 123.301,38.0418 123.634,39.7085 123.5,41.5C 121.833,41.5 120.167,41.5 118.5,41.5C 117.833,41.1667 117.167,40.8333 116.5,40.5C 115.021,39.852 113.521,39.5186 112,39.5C 111.521,41.646 110.188,42.646 108,42.5C 105.23,42.5959 104.396,41.5959 105.5,39.5C 106.388,36.9455 106.721,34.2788 106.5,31.5C 106.409,29.3023 107.075,28.9689 108.5,30.5C 108.211,33.6492 108.711,36.6492 110,39.5C 110.489,37.3956 111.655,37.0622 113.5,38.5C 114.938,38.2811 116.271,37.7811 117.5,37C 116.906,36.5357 116.239,36.369 115.5,36.5C 116.058,35.2101 117.058,34.3768 118.5,34C 117.619,33.2917 116.953,32.4584 116.5,31.5C 117.833,30.8333 117.833,30.1667 116.5,29.5C 115.112,28.1276 113.445,27.1276 111.5,26.5C 108.978,27.6925 106.478,28.6925 104,29.5C 101.695,27.8896 99.8618,28.2229 98.5,30.5C 98.1667,30.5 97.8333,30.5 97.5,30.5C 97.4142,29.5041 97.7476,28.6708 98.5,28C 102.37,26.7132 106.036,25.0465 109.5,23C 112.482,22.502 115.482,22.3354 118.5,22.5C 118.205,24.7354 118.539,26.7354 119.5,28.5 Z"/></g>
<g><path style="opacity:1" fill="#efdfde" d="M 112.5,32.5 C 113.552,32.3505 114.552,32.5172 115.5,33C 114.244,33.4169 113.577,34.2502 113.5,35.5C 111.448,34.9473 111.115,33.9473 112.5,32.5 Z"/></g>
<g><path style="opacity:1" fill="#6a4d43" d="M 112.5,32.5 C 113.568,31.5655 114.901,31.2322 116.5,31.5C 116.953,32.4584 117.619,33.2917 118.5,34C 117.058,34.3768 116.058,35.2101 115.5,36.5C 114.508,36.6716 113.842,36.3382 113.5,35.5C 113.577,34.2502 114.244,33.4169 115.5,33C 114.552,32.5172 113.552,32.3505 112.5,32.5 Z"/></g>
<g><path style="opacity:1" fill="#b6715e" d="M 116.5,29.5 C 117.833,30.1667 117.833,30.8333 116.5,31.5C 114.901,31.2322 113.568,31.5655 112.5,32.5C 111.115,33.9473 111.448,34.9473 113.5,35.5C 113.842,36.3382 114.508,36.6716 115.5,36.5C 116.239,36.369 116.906,36.5357 117.5,37C 116.271,37.7811 114.938,38.2811 113.5,38.5C 111.655,37.0622 110.489,37.3956 110,39.5C 108.711,36.6492 108.211,33.6492 108.5,30.5C 111.308,29.7233 113.975,29.39 116.5,29.5 Z"/></g>
<g><path style="opacity:1" fill="#794335" d="M 116.5,40.5 C 117.167,40.8333 117.833,41.1667 118.5,41.5C 119.263,42.2679 120.263,42.7679 121.5,43C 120.944,43.3826 120.611,43.8826 120.5,44.5C 119.951,47.2498 118.285,48.9165 115.5,49.5C 115.5,49.1667 115.5,48.8333 115.5,48.5C 116.66,47.735 117.66,46.735 118.5,45.5C 115.797,44.374 115.13,42.7073 116.5,40.5 Z"/></g>
<g><path style="opacity:1" fill="#3f2526" d="M 89.5,35.5 C 89.2011,37.604 89.5344,39.604 90.5,41.5C 91.1497,39.8164 92.1497,38.4831 93.5,37.5C 92.9239,40.8756 92.2572,44.2089 91.5,47.5C 90.8186,45.8415 89.9853,44.1749 89,42.5C 88.2042,39.9615 88.3709,37.6282 89.5,35.5 Z"/></g>
<g><path style="opacity:1" fill="#853b35" d="M 102.5,41.5 C 105.81,45.3627 109.31,45.3627 113,41.5C 113.167,42 113.333,42.5 113.5,43C 110.798,46.2848 107.465,47.1182 103.5,45.5C 102.754,44.2638 102.421,42.9305 102.5,41.5 Z"/></g>
<g><path style="opacity:1" fill="#31302d" d="M 128.5,43.5 C 128.795,45.7354 128.461,47.7354 127.5,49.5C 127.567,48.0413 127.234,46.7079 126.5,45.5C 126.5,45.1667 126.5,44.8333 126.5,44.5C 126.842,43.6618 127.508,43.3284 128.5,43.5 Z"/></g>
<g><path style="opacity:1" fill="#7f453c" d="M 99.5,49.5 C 98.8333,49.5 98.5,49.1667 98.5,48.5C 97.6241,46.0198 96.2908,43.8531 94.5,42C 96.4473,41.0087 98.4473,40.6753 100.5,41C 97.8333,43 97.8333,45 100.5,47C 99.7476,47.6708 99.4142,48.5041 99.5,49.5 Z"/></g>
<g><path style="opacity:1" fill="#e2c1b3" d="M 126.5,45.5 C 127.234,46.7079 127.567,48.0413 127.5,49.5C 127.5,52.1667 127.5,54.8333 127.5,57.5C 127.509,59.3084 127.009,60.9751 126,62.5C 125.833,61.8333 125.667,61.1667 125.5,60.5C 126.302,57.5514 126.636,54.5514 126.5,51.5C 125.258,49.3888 125.258,47.3888 126.5,45.5 Z"/></g>
<g><path style="opacity:1" fill="#211315" d="M 131.5,57.5 C 130.5,57.5 129.5,57.5 128.5,57.5C 128.957,55.4433 129.957,55.4433 131.5,57.5 Z"/></g>
<g><path style="opacity:1" fill="#504b48" d="M 131.5,57.5 C 134.01,57.0535 136.01,57.7202 137.5,59.5C 135.214,59.405 133.214,58.7384 131.5,57.5 Z"/></g>
<g><path style="opacity:1" fill="#241b1c" d="M 89.5,51.5 C 89.5,53.1667 89.5,54.8333 89.5,56.5C 89.5,58.8333 89.5,61.1667 89.5,63.5C 89.1667,63.5 88.8333,63.5 88.5,63.5C 88.5,62.5 88.5,61.5 88.5,60.5C 86.1944,60.9926 83.861,61.3259 81.5,61.5C 83.4385,59.8372 85.7718,59.1706 88.5,59.5C 88.1936,56.6146 88.5269,53.9479 89.5,51.5 Z"/></g>
<g><path style="opacity:1" fill="#20181e" d="M 137.5,59.5 C 140.992,60.4097 143.992,62.0764 146.5,64.5C 144.801,64.5271 143.467,65.1938 142.5,66.5C 142.649,65.448 142.483,64.448 142,63.5C 140.333,62.2668 138.833,60.9335 137.5,59.5 Z"/></g>
<g><path style="opacity:1" fill="#7c9397" d="M 227.5,59.5 C 231.477,65.4441 234.977,71.7774 238,78.5C 243.301,94.4053 245.634,110.739 245,127.5C 243.287,137.225 241.454,146.558 239.5,155.5C 238.448,155.351 237.448,155.517 236.5,156C 235.586,167.383 231.752,177.883 225,187.5C 224.51,188.793 224.343,190.127 224.5,191.5C 223.167,191.5 221.833,191.5 220.5,191.5C 220.856,194.564 220.023,197.231 218,199.5C 210.541,204.958 203.708,211.125 197.5,218C 192.616,221.252 187.616,224.419 182.5,227.5C 179.215,228.324 175.882,228.824 172.5,229C 174.619,229.342 174.953,230.175 173.5,231.5C 171.167,231.5 168.833,231.5 166.5,231.5C 165.71,230.206 164.71,229.039 163.5,228C 160.438,226.795 157.438,225.628 154.5,224.5C 154.5,224.167 154.5,223.833 154.5,223.5C 155.439,222.673 155.105,222.006 153.5,221.5C 153.5,220.833 153.167,220.5 152.5,220.5C 152.196,219.85 151.863,219.183 151.5,218.5C 153.104,216.821 153.771,214.821 153.5,212.5C 154.163,214.042 154.83,215.709 155.5,217.5C 156.251,216.624 156.751,215.624 157,214.5C 164.367,214.511 171.534,214.678 178.5,215C 180,214.167 181.167,213 182,211.5C 185.625,212.746 188.958,212.08 192,209.5C 192.388,210.428 193.055,211.095 194,211.5C 195.263,208.165 198.096,206.165 202.5,205.5C 202.966,203.799 202.966,202.299 202.5,201C 203.833,200.333 205.167,199.667 206.5,199C 210.015,195.818 213.182,192.318 216,188.5C 216.096,184.835 217.096,181.169 219,177.5C 219.979,175.68 221.479,174.513 223.5,174C 222.552,173.517 221.552,173.351 220.5,173.5C 220.5,172.167 220.5,170.833 220.5,169.5C 223.127,169.707 224.793,168.54 225.5,166C 224.87,159.289 224.203,152.622 223.5,146C 228.075,141.752 229.075,136.919 226.5,131.5C 227.11,127.514 227.61,123.514 228,119.5C 229.113,118.289 230.28,118.289 231.5,119.5C 232.235,113.041 232.568,106.707 232.5,100.5C 230.833,100.5 229.167,100.5 227.5,100.5C 227.793,93.3974 228.793,86.3974 230.5,79.5C 230.167,78.5 229.833,77.5 229.5,76.5C 229.167,76.6667 228.833,76.8333 228.5,77C 229.517,78.0495 229.684,79.2161 229,80.5C 227.589,77.421 226.089,74.421 224.5,71.5C 225.484,69.4021 225.151,67.4021 223.5,65.5C 224.859,63.4822 226.193,61.4822 227.5,59.5 Z"/></g>
<g><path style="opacity:1" fill="#f6b693" d="M 120.5,44.5 C 120.821,46.0481 121.821,46.7148 123.5,46.5C 124.584,55.8265 121.251,62.9932 113.5,68C 109.833,68.6667 106.167,68.6667 102.5,68C 99.1171,66.6196 97.2838,64.1196 97,60.5C 96.6667,61.5 96.3333,62.5 96,63.5C 92.9197,61.9231 90.753,59.5898 89.5,56.5C 89.5,54.8333 89.5,53.1667 89.5,51.5C 90.1667,50.1667 90.8333,48.8333 91.5,47.5C 92.5832,47.4606 93.5832,47.1272 94.5,46.5C 95.5237,47.8532 96.857,48.5198 98.5,48.5C 98.5,49.1667 98.8333,49.5 99.5,49.5C 101.312,52.1372 103.812,53.8039 107,54.5C 111.271,54.2913 111.104,53.458 106.5,52C 109.036,51.8138 111.369,51.3138 113.5,50.5C 113.842,49.6618 114.508,49.3284 115.5,49.5C 118.285,48.9165 119.951,47.2498 120.5,44.5 Z"/></g>
<g><path style="opacity:1" fill="#f1dfc8" d="M 115.5,48.5 C 115.5,48.8333 115.5,49.1667 115.5,49.5C 114.508,49.3284 113.842,49.6618 113.5,50.5C 109.064,50.7899 104.73,50.2899 100.5,49C 105.489,48.5007 110.489,48.3341 115.5,48.5 Z"/></g>
<g><path style="opacity:1" fill="#e19377" d="M 88.5,65.5 C 90.7805,68.318 92.1138,71.6513 92.5,75.5C 93.5,75.5 94.5,75.5 95.5,75.5C 95.9528,76.4584 96.6195,77.2917 97.5,78C 92.2655,77.0144 86.9321,76.0144 81.5,75C 82.8333,73.6667 84.1667,72.3333 85.5,71C 83.6133,70.8374 82.1133,71.6707 81,73.5C 81.1503,71.4944 81.6503,69.4944 82.5,67.5C 84.2143,66.2616 86.2143,65.595 88.5,65.5 Z"/></g>
<g><path style="opacity:1" fill="#f1b495" d="M 128.5,57.5 C 129.5,57.5 130.5,57.5 131.5,57.5C 133.214,58.7384 135.214,59.405 137.5,59.5C 138.833,60.9335 140.333,62.2668 142,63.5C 142.483,64.448 142.649,65.448 142.5,66.5C 141.766,67.7079 141.433,69.0413 141.5,70.5C 139.193,70.6125 137.027,69.6125 135,67.5C 135.554,72.3954 134.388,72.3954 131.5,67.5C 129.615,65.9468 128.615,63.9468 128.5,61.5C 128.5,60.1667 128.5,58.8333 128.5,57.5 Z"/></g>
<g><path style="opacity:1" fill="#f6c3a6" d="M 88.5,63.5 C 88.5,64.1667 88.5,64.8333 88.5,65.5C 86.2143,65.595 84.2143,66.2616 82.5,67.5C 79.7673,70.2394 76.7673,72.5727 73.5,74.5C 73.5,72.1667 73.5,69.8333 73.5,67.5C 73.5,67.1667 73.5,66.8333 73.5,66.5C 76.2028,64.8193 78.8695,63.1526 81.5,61.5C 83.861,61.3259 86.1944,60.9926 88.5,60.5C 88.5,61.5 88.5,62.5 88.5,63.5 Z"/></g>
<g><path style="opacity:1" fill="#d3846d" d="M 124.5,33.5 C 125.791,33.2627 126.791,33.596 127.5,34.5C 126.504,34.4142 125.671,34.7476 125,35.5C 124.227,40.1816 124.893,40.5149 127,36.5C 128.319,38.2495 128.819,40.2495 128.5,42.5C 127.325,42.281 126.325,42.6143 125.5,43.5C 125.624,44.1067 125.957,44.44 126.5,44.5C 126.5,44.8333 126.5,45.1667 126.5,45.5C 125.258,47.3888 125.258,49.3888 126.5,51.5C 125.486,56.9965 123.652,62.3299 121,67.5C 111.097,73.1437 101.597,72.8103 92.5,66.5C 91.6935,65.2719 90.6935,64.2719 89.5,63.5C 89.5,61.1667 89.5,58.8333 89.5,56.5C 90.753,59.5898 92.9197,61.9231 96,63.5C 96.3333,62.5 96.6667,61.5 97,60.5C 97.2838,64.1196 99.1171,66.6196 102.5,68C 106.167,68.6667 109.833,68.6667 113.5,68C 121.251,62.9932 124.584,55.8265 123.5,46.5C 121.821,46.7148 120.821,46.0481 120.5,44.5C 120.611,43.8826 120.944,43.3826 121.5,43C 120.263,42.7679 119.263,42.2679 118.5,41.5C 120.167,41.5 121.833,41.5 123.5,41.5C 123.634,39.7085 123.301,38.0418 122.5,36.5C 123.401,35.7095 124.068,34.7095 124.5,33.5 Z"/></g>
<g><path style="opacity:1" fill="#f1dfcd" d="M 50.5,69.5 C 56.5411,68.5928 61.8744,70.0928 66.5,74C 65.9056,74.4643 65.2389,74.631 64.5,74.5C 61.6866,72.2815 58.52,71.9481 55,73.5C 53.8333,73.3333 52.6667,73.1667 51.5,73C 53.1667,72.6667 54.8333,72.3333 56.5,72C 48.8916,71.3994 42.2249,73.5661 36.5,78.5C 39.5417,73.1503 44.2084,70.1503 50.5,69.5 Z"/></g>
<g><path style="opacity:1" fill="#e09378" d="M 128.5,61.5 C 128.615,63.9468 129.615,65.9468 131.5,67.5C 130.475,67.8966 130.308,68.5632 131,69.5C 132.728,72.3297 134.895,74.663 137.5,76.5C 134.287,76.19 131.287,76.5233 128.5,77.5C 128.167,77.5 127.833,77.5 127.5,77.5C 123.774,77.8226 120.107,77.4892 116.5,76.5C 118.252,74.7541 119.585,72.7541 120.5,70.5C 123.167,67.5 125.833,64.5 128.5,61.5 Z"/></g>
<g><path style="opacity:1" fill="#3e161f" d="M 126.5,51.5 C 126.636,54.5514 126.302,57.5514 125.5,60.5C 125.667,61.1667 125.833,61.8333 126,62.5C 127.009,60.9751 127.509,59.3084 127.5,57.5C 127.833,57.5 128.167,57.5 128.5,57.5C 128.5,58.8333 128.5,60.1667 128.5,61.5C 125.833,64.5 123.167,67.5 120.5,70.5C 113.43,73.2687 106.096,74.102 98.5,73C 95.5914,71.5945 93.5914,69.4278 92.5,66.5C 101.597,72.8103 111.097,73.1437 121,67.5C 123.652,62.3299 125.486,56.9965 126.5,51.5 Z"/></g>
<g><path style="opacity:1" fill="#422f2f" d="M 81.5,61.5 C 78.8695,63.1526 76.2028,64.8193 73.5,66.5C 70.1075,66.3753 68.7741,68.042 69.5,71.5C 71.1962,81.0874 71.8629,90.754 71.5,100.5C 70.8333,98.1667 70.1667,95.8333 69.5,93.5C 70.994,88.4522 70.8273,83.4522 69,78.5C 68.0934,76.3909 66.5934,75.0576 64.5,74.5C 65.2389,74.631 65.9056,74.4643 66.5,74C 61.8744,70.0928 56.5411,68.5928 50.5,69.5C 51.2625,68.7321 52.2625,68.2321 53.5,68C 52.2068,67.51 50.8734,67.3433 49.5,67.5C 50.0968,66.8614 50.9302,66.528 52,66.5C 55.9257,67.2728 59.7591,68.2728 63.5,69.5C 64.8333,70.9335 66.3333,72.2668 68,73.5C 68.6667,71.5 68.6667,69.5 68,67.5C 67.3292,68.2524 66.4959,68.5858 65.5,68.5C 70.511,65.6665 75.8443,63.3332 81.5,61.5 Z"/></g>
<g><path style="opacity:1" fill="#f2b69f" d="M 63.5,69.5 C 64.4916,69.6716 65.1583,69.3382 65.5,68.5C 66.4959,68.5858 67.3292,68.2524 68,67.5C 68.6667,69.5 68.6667,71.5 68,73.5C 66.3333,72.2668 64.8333,70.9335 63.5,69.5 Z"/></g>
<g><path style="opacity:1" fill="#2e1c23" d="M 148.5,65.5 C 152.111,64.2586 155.111,65.2586 157.5,68.5C 158.416,68.9817 159.416,69.315 160.5,69.5C 182.048,63.0467 192.048,71.0467 190.5,93.5C 189.167,93.5 188.5,94.1667 188.5,95.5C 187.674,98.8074 185.674,101.141 182.5,102.5C 182.733,100.938 183.4,99.6049 184.5,98.5C 187.774,92.2739 188.108,85.9406 185.5,79.5C 185.358,76.383 184.024,73.883 181.5,72C 174.423,67.7039 167.09,67.3706 159.5,71C 156.367,71.8596 153.7,73.3596 151.5,75.5C 147.615,77.4125 147.615,79.2459 151.5,81C 147.944,81.7823 146.111,80.2823 146,76.5C 145.092,78.4386 143.592,79.4386 141.5,79.5C 143.5,77.1667 145.5,74.8333 147.5,72.5C 148.96,70.5372 150.627,68.7038 152.5,67C 151.437,65.8118 150.103,65.3118 148.5,65.5 Z"/></g>
<g><path style="opacity:1" fill="#f2e2ce" d="M 185.5,79.5 C 185.631,80.2389 185.464,80.9056 185,81.5C 183.904,76.7396 181.071,73.5729 176.5,72C 167.825,70.8077 159.492,71.9743 151.5,75.5C 153.7,73.3596 156.367,71.8596 159.5,71C 167.09,67.3706 174.423,67.7039 181.5,72C 184.024,73.883 185.358,76.383 185.5,79.5 Z"/></g>
<g><path style="opacity:1" fill="#d3a49d" d="M 157.5,68.5 C 155.947,71.254 153.614,72.0874 150.5,71C 152.441,69.0972 154.774,68.2639 157.5,68.5 Z"/></g>
<g><path style="opacity:1" fill="#a0554d" d="M 88.5,63.5 C 88.8333,63.5 89.1667,63.5 89.5,63.5C 90.6935,64.2719 91.6935,65.2719 92.5,66.5C 93.5914,69.4278 95.5914,71.5945 98.5,73C 106.096,74.102 113.43,73.2687 120.5,70.5C 119.585,72.7541 118.252,74.7541 116.5,76.5C 120.107,77.4892 123.774,77.8226 127.5,77.5C 123.989,78.6641 120.323,79.6641 116.5,80.5C 113.236,81.9274 110.736,84.2608 109,87.5C 106.63,84.9614 104.13,82.6281 101.5,80.5C 100.089,78.086 98.0892,76.4194 95.5,75.5C 94.5,75.5 93.5,75.5 92.5,75.5C 92.1138,71.6513 90.7805,68.318 88.5,65.5C 88.5,64.8333 88.5,64.1667 88.5,63.5 Z"/></g>
<g><path style="opacity:1" fill="#f5ba98" d="M 185.5,79.5 C 188.108,85.9406 187.774,92.2739 184.5,98.5C 185.007,93.8791 184.174,89.5458 182,85.5C 181.115,88 179.948,90.3333 178.5,92.5C 176.591,91.6518 174.591,91.3184 172.5,91.5C 172.881,93.9418 172.214,94.6085 170.5,93.5C 169.818,94.2427 169.151,94.9094 168.5,95.5C 166.646,92.4905 164.313,89.8238 161.5,87.5C 161.167,87.6667 160.833,87.8333 160.5,88C 162.808,90.1277 164.474,92.6277 165.5,95.5C 162.863,94.3697 160.197,94.3697 157.5,95.5C 157.579,96.9305 157.246,98.2638 156.5,99.5C 151.396,103.951 145.396,106.284 138.5,106.5C 138.5,100.167 138.5,93.8333 138.5,87.5C 138.5,87.1667 138.5,86.8333 138.5,86.5C 139.736,84.351 140.736,82.0177 141.5,79.5C 143.592,79.4386 145.092,78.4386 146,76.5C 146.111,80.2823 147.944,81.7823 151.5,81C 147.615,79.2459 147.615,77.4125 151.5,75.5C 159.492,71.9743 167.825,70.8077 176.5,72C 181.071,73.5729 183.904,76.7396 185,81.5C 185.464,80.9056 185.631,80.2389 185.5,79.5 Z"/></g>
<g><path style="opacity:1" fill="#f6bf9d" d="M 64.5,74.5 C 66.5934,75.0576 68.0934,76.3909 69,78.5C 70.8273,83.4522 70.994,88.4522 69.5,93.5C 69.5,94.8333 69.5,96.1667 69.5,97.5C 68.7745,104.034 65.1078,106.534 58.5,105C 55.1297,103.497 51.7964,101.997 48.5,100.5C 50.4397,93.0514 55.1064,87.8847 62.5,85C 57.4253,85.5494 53.092,87.7161 49.5,91.5C 46.0164,92.4692 43.183,94.4692 41,97.5C 39.5283,93.2795 38.5283,88.9461 38,84.5C 35.5266,86.6005 34.3599,89.2672 34.5,92.5C 34.6567,93.8734 34.49,95.2068 34,96.5C 30.6375,89.9415 31.4708,83.9415 36.5,78.5C 42.2249,73.5661 48.8916,71.3994 56.5,72C 54.8333,72.3333 53.1667,72.6667 51.5,73C 52.6667,73.1667 53.8333,73.3333 55,73.5C 58.52,71.9481 61.6866,72.2815 64.5,74.5 Z"/></g>
<g><path style="opacity:1" fill="#281821" d="M 49.5,67.5 C 50.8734,67.3433 52.2068,67.51 53.5,68C 52.2625,68.2321 51.2625,68.7321 50.5,69.5C 44.2084,70.1503 39.5417,73.1503 36.5,78.5C 31.4708,83.9415 30.6375,89.9415 34,96.5C 34.49,95.2068 34.6567,93.8734 34.5,92.5C 36.414,95.1512 37.2474,98.1512 37,101.5C 36.6174,100.944 36.1174,100.611 35.5,100.5C 33.2104,102.033 32.5437,101.7 33.5,99.5C 32.9984,98.479 32.3317,98.3123 31.5,99C 28.989,101.843 26.1557,104.343 23,106.5C 22.5357,107.094 22.369,107.761 22.5,108.5C 21.5489,109.919 21.2155,111.585 21.5,113.5C 20.2921,114.234 18.9587,114.567 17.5,114.5C 18.9616,112.028 20.1283,109.361 21,106.5C 23.946,104.044 26.6127,101.377 29,98.5C 29.4988,94.5138 29.6655,90.5138 29.5,86.5C 31.6107,75.3897 38.2774,69.0563 49.5,67.5 Z"/></g>
<g><path style="opacity:1" fill="#5e5e5f" d="M 147.5,72.5 C 145.5,74.8333 143.5,77.1667 141.5,79.5C 140.736,82.0177 139.736,84.351 138.5,86.5C 138.714,84.8561 138.38,83.3561 137.5,82C 140.066,77.9319 143.399,74.7652 147.5,72.5 Z"/></g>
<g><path style="opacity:1" fill="#321319" d="M 48.5,100.5 C 46.8763,102.137 45.8763,101.803 45.5,99.5C 46.4181,96.5943 47.7515,93.9276 49.5,91.5C 53.092,87.7161 57.4253,85.5494 62.5,85C 55.1064,87.8847 50.4397,93.0514 48.5,100.5 Z"/></g>
<g><path style="opacity:1" fill="#482021" d="M 168.5,95.5 C 168.662,97.5273 168.495,99.5273 168,101.5C 167.155,99.3885 166.322,97.3885 165.5,95.5C 164.474,92.6277 162.808,90.1277 160.5,88C 160.833,87.8333 161.167,87.6667 161.5,87.5C 164.313,89.8238 166.646,92.4905 168.5,95.5 Z"/></g>
<g><path style="opacity:1" fill="#969f98" d="M 146.5,64.5 C 147.167,64.8333 147.833,65.1667 148.5,65.5C 150.103,65.3118 151.437,65.8118 152.5,67C 150.627,68.7038 148.96,70.5372 147.5,72.5C 143.399,74.7652 140.066,77.9319 137.5,82C 138.38,83.3561 138.714,84.8561 138.5,86.5C 138.5,86.8333 138.5,87.1667 138.5,87.5C 137.801,94.4001 137.134,101.4 136.5,108.5C 115.162,107.406 93.8289,107.406 72.5,108.5C 71.7347,105.904 71.4013,103.237 71.5,100.5C 71.8629,90.754 71.1962,81.0874 69.5,71.5C 68.7741,68.042 70.1075,66.3753 73.5,66.5C 73.5,66.8333 73.5,67.1667 73.5,67.5C 72.7948,70.2281 72.1281,73.0614 71.5,76C 72.3734,77.045 73.3734,77.8783 74.5,78.5C 76.4559,80.1139 78.4559,81.7806 80.5,83.5C 81.1667,84.1667 81.8333,84.8333 82.5,85.5C 81.4036,87.1032 80.0703,88.6032 78.5,90C 82.577,92.5404 86.9103,94.0404 91.5,94.5C 94.5499,95.9352 97.8832,96.6019 101.5,96.5C 103.696,96.4954 105.696,96.162 107.5,95.5C 108.833,95.5 110.167,95.5 111.5,95.5C 117.87,95.4596 123.87,93.9596 129.5,91C 132.826,88.6266 133.159,86.1266 130.5,83.5C 131.833,81.5 133.5,79.8333 135.5,78.5C 136.5,78.1667 137.167,77.5 137.5,76.5C 139.822,75.1979 141.155,73.1979 141.5,70.5C 141.433,69.0413 141.766,67.7079 142.5,66.5C 143.467,65.1938 144.801,64.5271 146.5,64.5 Z"/></g>
<g><path style="opacity:1" fill="#262827" d="M 109.5,96.5 C 113.893,96.4568 114.226,96.9568 110.5,98C 106.167,98.6667 101.833,98.6667 97.5,98C 101.688,97.8238 105.688,97.3238 109.5,96.5 Z"/></g>
<g><path style="opacity:1" fill="#7a4f47" d="M 91.5,94.5 C 94.1667,94.5 96.8333,94.5 99.5,94.5C 101.948,95.4731 104.615,95.8064 107.5,95.5C 105.696,96.162 103.696,96.4954 101.5,96.5C 97.8832,96.6019 94.5499,95.9352 91.5,94.5 Z"/></g>
<g><path style="opacity:1" fill="#c87b68" d="M 102.5,89.5 C 104.484,89.3832 106.15,90.0499 107.5,91.5C 108.107,91.3764 108.44,91.0431 108.5,90.5C 109.5,90.5 110.5,90.5 111.5,90.5C 111.5,92.1667 111.5,93.8333 111.5,95.5C 110.167,95.5 108.833,95.5 107.5,95.5C 104.615,95.8064 101.948,95.4731 99.5,94.5C 101.759,93.656 102.759,91.9893 102.5,89.5 Z"/></g>
<g><path style="opacity:1" fill="#f1b393" d="M 130.5,83.5 C 133.159,86.1266 132.826,88.6266 129.5,91C 123.87,93.9596 117.87,95.4596 111.5,95.5C 111.5,93.8333 111.5,92.1667 111.5,90.5C 110.5,90.5 109.5,90.5 108.5,90.5C 109.347,89.0337 110.68,88.2004 112.5,88C 117.104,86.9393 121.771,86.2727 126.5,86C 122.11,85.2278 117.777,85.3945 113.5,86.5C 112.335,85.1405 112.668,84.1405 114.5,83.5C 119.703,82.6182 125.037,82.6182 130.5,83.5 Z"/></g>
<g><path style="opacity:1" fill="#431e1e" d="M 101.5,80.5 C 104.13,82.6281 106.63,84.9614 109,87.5C 110.736,84.2608 113.236,81.9274 116.5,80.5C 115.833,81.5 115.167,82.5 114.5,83.5C 112.668,84.1405 112.335,85.1405 113.5,86.5C 117.777,85.3945 122.11,85.2278 126.5,86C 121.771,86.2727 117.104,86.9393 112.5,88C 110.68,88.2004 109.347,89.0337 108.5,90.5C 108.44,91.0431 108.107,91.3764 107.5,91.5C 106.15,90.0499 104.484,89.3832 102.5,89.5C 98.9009,88.6561 95.2343,88.3227 91.5,88.5C 96.0166,87.8335 100.683,87.1669 105.5,86.5C 104.025,84.9288 102.358,83.5955 100.5,82.5C 100.833,81.8333 101.167,81.1667 101.5,80.5 Z"/></g>
<g><path style="opacity:1" fill="#f3bc9b" d="M 82.5,85.5 C 85.2984,86.8691 88.2984,87.8691 91.5,88.5C 95.2343,88.3227 98.9009,88.6561 102.5,89.5C 102.759,91.9893 101.759,93.656 99.5,94.5C 96.8333,94.5 94.1667,94.5 91.5,94.5C 86.9103,94.0404 82.577,92.5404 78.5,90C 80.0703,88.6032 81.4036,87.1032 82.5,85.5 Z"/></g>
<g><path style="opacity:1" fill="#d58870" d="M 98.5,81.5 C 99.1667,81.8333 99.8333,82.1667 100.5,82.5C 102.358,83.5955 104.025,84.9288 105.5,86.5C 100.683,87.1669 96.0166,87.8335 91.5,88.5C 88.2984,87.8691 85.2984,86.8691 82.5,85.5C 81.8333,84.8333 81.1667,84.1667 80.5,83.5C 86.2976,83.4414 92.2976,83.2747 98.5,83C 97.2617,82.31 97.2617,81.81 98.5,81.5 Z"/></g>
<g><path style="opacity:1" fill="#f2c1a0" d="M 127.5,77.5 C 127.833,77.5 128.167,77.5 128.5,77.5C 131.059,77.1984 133.393,77.5318 135.5,78.5C 133.5,79.8333 131.833,81.5 130.5,83.5C 125.037,82.6182 119.703,82.6182 114.5,83.5C 115.167,82.5 115.833,81.5 116.5,80.5C 120.323,79.6641 123.989,78.6641 127.5,77.5 Z"/></g>
<g><path style="opacity:1" fill="#f3be9e" d="M 76.5,76.5 C 84.3822,76.33 91.7155,77.9966 98.5,81.5C 97.2617,81.81 97.2617,82.31 98.5,83C 92.2976,83.2747 86.2976,83.4414 80.5,83.5C 78.4559,81.7806 76.4559,80.1139 74.5,78.5C 75.1667,77.8333 75.8333,77.1667 76.5,76.5 Z"/></g>
<g><path style="opacity:1" fill="#6d4438" d="M 128.5,77.5 C 131.287,76.5233 134.287,76.19 137.5,76.5C 137.167,77.5 136.5,78.1667 135.5,78.5C 133.393,77.5318 131.059,77.1984 128.5,77.5 Z"/></g>
<g><path style="opacity:1" fill="#7f4840" d="M 82.5,67.5 C 81.6503,69.4944 81.1503,71.4944 81,73.5C 82.1133,71.6707 83.6133,70.8374 85.5,71C 84.1667,72.3333 82.8333,73.6667 81.5,75C 86.9321,76.0144 92.2655,77.0144 97.5,78C 96.6195,77.2917 95.9528,76.4584 95.5,75.5C 98.0892,76.4194 100.089,78.086 101.5,80.5C 101.167,81.1667 100.833,81.8333 100.5,82.5C 99.8333,82.1667 99.1667,81.8333 98.5,81.5C 91.7155,77.9966 84.3822,76.33 76.5,76.5C 74.9731,76.573 73.9731,75.9063 73.5,74.5C 76.7673,72.5727 79.7673,70.2394 82.5,67.5 Z"/></g>
<g><path style="opacity:1" fill="#534542" d="M 73.5,67.5 C 73.5,69.8333 73.5,72.1667 73.5,74.5C 73.9731,75.9063 74.9731,76.573 76.5,76.5C 75.8333,77.1667 75.1667,77.8333 74.5,78.5C 73.3734,77.8783 72.3734,77.045 71.5,76C 72.1281,73.0614 72.7948,70.2281 73.5,67.5 Z"/></g>
<g><path style="opacity:1" fill="#995b4f" d="M 131.5,67.5 C 134.388,72.3954 135.554,72.3954 135,67.5C 137.027,69.6125 139.193,70.6125 141.5,70.5C 141.155,73.1979 139.822,75.1979 137.5,76.5C 134.895,74.663 132.728,72.3297 131,69.5C 130.308,68.5632 130.475,67.8966 131.5,67.5 Z"/></g>
<g><path style="opacity:1" fill="#f3c6a9" d="M 190.5,93.5 C 192.508,95.2676 194.674,96.9343 197,98.5C 198.542,100.565 198.709,102.565 197.5,104.5C 195.527,103.513 193.527,102.513 191.5,101.5C 191.036,99.0251 190.036,97.0251 188.5,95.5C 188.5,94.1667 189.167,93.5 190.5,93.5 Z"/></g>
<g><path style="opacity:1" fill="#210d0d" d="M 138.5,87.5 C 138.5,93.8333 138.5,100.167 138.5,106.5C 138.267,109.542 137.267,112.208 135.5,114.5C 135.833,112.5 136.167,110.5 136.5,108.5C 137.134,101.4 137.801,94.4001 138.5,87.5 Z"/></g>
<g><path style="opacity:1" fill="#c27160" d="M 49.5,91.5 C 47.7515,93.9276 46.4181,96.5943 45.5,99.5C 45.8763,101.803 46.8763,102.137 48.5,100.5C 51.7964,101.997 55.1297,103.497 58.5,105C 65.1078,106.534 68.7745,104.034 69.5,97.5C 69.2315,103.949 69.8982,110.283 71.5,116.5C 63.6819,115.174 56.8486,111.841 51,106.5C 50.3333,107.167 50.3333,107.833 51,108.5C 62.0177,113.916 63.5177,121.416 55.5,131C 54.552,131.483 53.552,131.649 52.5,131.5C 52.7845,129.585 52.4511,127.919 51.5,126.5C 51.5,125.167 51.5,123.833 51.5,122.5C 52.791,122.737 53.791,122.404 54.5,121.5C 56.1179,118.231 55.1179,116.064 51.5,115C 47.331,113.832 43.1643,112.666 39,111.5C 37.0614,111.954 35.228,112.621 33.5,113.5C 32.1667,113.5 30.8333,113.5 29.5,113.5C 29.6219,109.162 29.9553,108.828 30.5,112.5C 33.2385,113.035 35.0718,112.035 36,109.5C 36.6342,106.445 36.4675,103.445 35.5,100.5C 36.1174,100.611 36.6174,100.944 37,101.5C 37.2474,98.1512 36.414,95.1512 34.5,92.5C 34.3599,89.2672 35.5266,86.6005 38,84.5C 38.5283,88.9461 39.5283,93.2795 41,97.5C 43.183,94.4692 46.0164,92.4692 49.5,91.5 Z"/></g>
<g><path style="opacity:1" fill="#f0dac5" d="M 192.5,106.5 C 197.989,106.325 200.322,108.992 199.5,114.5C 199.5,115.167 199.5,115.833 199.5,116.5C 198.833,114.833 198.167,113.167 197.5,111.5C 196.177,109.314 194.177,107.814 191.5,107C 191.728,106.601 192.062,106.435 192.5,106.5 Z"/></g>
<g><path style="opacity:1" fill="#392a2f" d="M 190.5,93.5 C 192.216,93.6287 193.883,93.962 195.5,94.5C 199.647,98.5887 201.647,103.589 201.5,109.5C 200.833,111.167 200.167,112.833 199.5,114.5C 200.322,108.992 197.989,106.325 192.5,106.5C 194.167,105.833 195.833,105.167 197.5,104.5C 198.709,102.565 198.542,100.565 197,98.5C 194.674,96.9343 192.508,95.2676 190.5,93.5 Z"/></g>
<g><path style="opacity:1" fill="#efae90" d="M 35.5,100.5 C 36.4675,103.445 36.6342,106.445 36,109.5C 35.0718,112.035 33.2385,113.035 30.5,112.5C 29.9553,108.828 29.6219,109.162 29.5,113.5C 27.7095,114.391 25.8761,115.391 24,116.5C 23.5357,115.906 23.369,115.239 23.5,114.5C 22.6586,112.621 22.3253,110.621 22.5,108.5C 22.369,107.761 22.5357,107.094 23,106.5C 26.1557,104.343 28.989,101.843 31.5,99C 32.3317,98.3123 32.9984,98.479 33.5,99.5C 32.5437,101.7 33.2104,102.033 35.5,100.5 Z"/></g>
<g><path style="opacity:1" fill="#615556" d="M 136.5,108.5 C 136.167,110.5 135.833,112.5 135.5,114.5C 133.447,115.69 131.113,116.357 128.5,116.5C 124.82,116.221 121.153,115.888 117.5,115.5C 115.527,114.837 113.361,114.504 111,114.5C 100.189,115.582 89.3552,116.248 78.5,116.5C 74.6457,115.303 72.6457,112.636 72.5,108.5C 93.8289,107.406 115.162,107.406 136.5,108.5 Z"/></g>
<g><path style="opacity:1" fill="#c06f5e" d="M 184.5,98.5 C 183.4,99.6049 182.733,100.938 182.5,102.5C 180.429,103.891 178.762,105.724 177.5,108C 180.062,110.413 183.062,112.08 186.5,113C 183.94,112.562 181.44,112.729 179,113.5C 177.014,111.258 174.514,110.258 171.5,110.5C 167.033,110.934 162.866,112.267 159,114.5C 158.665,120.328 161.498,122.995 167.5,122.5C 167.28,125.513 165.947,127.847 163.5,129.5C 162.817,129.137 162.15,128.804 161.5,128.5C 160.136,126.809 158.803,125.142 157.5,123.5C 154.696,116.417 156.53,111.084 163,107.5C 164.289,105.945 164.956,104.279 165,102.5C 157.02,109.407 147.853,114.074 137.5,116.5C 136.287,116.253 135.62,115.586 135.5,114.5C 137.267,112.208 138.267,109.542 138.5,106.5C 145.396,106.284 151.396,103.951 156.5,99.5C 157.246,98.2638 157.579,96.9305 157.5,95.5C 160.197,94.3697 162.863,94.3697 165.5,95.5C 166.322,97.3885 167.155,99.3885 168,101.5C 168.495,99.5273 168.662,97.5273 168.5,95.5C 169.151,94.9094 169.818,94.2427 170.5,93.5C 172.214,94.6085 172.881,93.9418 172.5,91.5C 174.591,91.3184 176.591,91.6518 178.5,92.5C 179.948,90.3333 181.115,88 182,85.5C 184.174,89.5458 185.007,93.8791 184.5,98.5 Z"/></g>
<g><path style="opacity:1" fill="#95635f" d="M 22.5,108.5 C 22.3253,110.621 22.6586,112.621 23.5,114.5C 22.5655,115.568 22.2322,116.901 22.5,118.5C 21.5489,117.081 21.2155,115.415 21.5,113.5C 21.2155,111.585 21.5489,109.919 22.5,108.5 Z"/></g>
<g><path style="opacity:1" fill="#2f1721" d="M 157.5,123.5 C 155.024,120.712 154.024,117.378 154.5,113.5C 148.462,114.468 142.629,116.134 137,118.5C 135.334,124.331 137.501,126.998 143.5,126.5C 143.38,123.795 144.38,123.128 146.5,124.5C 147.292,125.7 147.292,127.033 146.5,128.5C 145.662,128.842 145.328,129.508 145.5,130.5C 144.835,132.698 144.168,135.031 143.5,137.5C 142.532,136.511 141.365,135.844 140,135.5C 134.417,136.727 128.917,136.394 123.5,134.5C 111.726,133.14 100.06,132.14 88.5,131.5C 104.266,131.09 119.933,132.09 135.5,134.5C 138.937,134.755 141.604,133.588 143.5,131C 143.355,130.228 143.022,129.561 142.5,129C 140.744,128.798 139.078,128.298 137.5,127.5C 136.108,125.77 134.441,124.436 132.5,123.5C 130.833,123.5 129.167,123.5 127.5,123.5C 129.607,122.532 131.941,122.198 134.5,122.5C 134.773,120.549 134.107,119.049 132.5,118C 125.782,117.775 119.115,117.108 112.5,116C 114.134,115.506 115.801,115.34 117.5,115.5C 121.153,115.888 124.82,116.221 128.5,116.5C 131.113,116.357 133.447,115.69 135.5,114.5C 135.62,115.586 136.287,116.253 137.5,116.5C 147.853,114.074 157.02,109.407 165,102.5C 164.956,104.279 164.289,105.945 163,107.5C 156.53,111.084 154.696,116.417 157.5,123.5 Z"/></g>
<g><path style="opacity:1" fill="#56484c" d="M 117.5,115.5 C 115.801,115.34 114.134,115.506 112.5,116C 119.115,117.108 125.782,117.775 132.5,118C 134.107,119.049 134.773,120.549 134.5,122.5C 131.941,122.198 129.607,122.532 127.5,123.5C 113.858,121.12 100.192,120.953 86.5,123C 87.5,123.333 88.5,123.667 89.5,124C 84.0528,125.194 78.7195,126.694 73.5,128.5C 76.108,126.287 79.4414,124.121 83.5,122C 80.3137,121.404 77.3137,121.904 74.5,123.5C 74.5,121.833 74.5,120.167 74.5,118.5C 76.3797,118.771 77.713,118.104 78.5,116.5C 89.3552,116.248 100.189,115.582 111,114.5C 113.361,114.504 115.527,114.837 117.5,115.5 Z"/></g>
<g><path style="opacity:1" fill="#41191d" d="M 29.5,113.5 C 30.8333,113.5 32.1667,113.5 33.5,113.5C 31.8867,115.088 29.8867,116.088 27.5,116.5C 25.5,116.5 24.5,117.5 24.5,119.5C 23.6909,121.292 23.1909,123.292 23,125.5C 22.5065,123.866 22.3398,122.199 22.5,120.5C 22.5,119.833 22.5,119.167 22.5,118.5C 22.2322,116.901 22.5655,115.568 23.5,114.5C 23.369,115.239 23.5357,115.906 24,116.5C 25.8761,115.391 27.7095,114.391 29.5,113.5 Z"/></g>
<g><path style="opacity:1" fill="#cc7c66" d="M 197.5,111.5 C 198.167,113.167 198.833,114.833 199.5,116.5C 194.762,121.64 190.762,127.307 187.5,133.5C 184.461,135.456 181.628,137.79 179,140.5C 178.833,140.167 178.667,139.833 178.5,139.5C 184.852,130.154 191.185,120.82 197.5,111.5 Z"/></g>
<g><path style="opacity:1" fill="#f2b294" d="M 21.5,113.5 C 21.2155,115.415 21.5489,117.081 22.5,118.5C 22.5,119.167 22.5,119.833 22.5,120.5C 21.596,121.209 21.2627,122.209 21.5,123.5C 17.2665,123.594 14.9332,121.594 14.5,117.5C 15.3065,116.272 16.3065,115.272 17.5,114.5C 18.9587,114.567 20.2921,114.234 21.5,113.5 Z"/></g>
<g><path style="opacity:1" fill="#f6b996" d="M 54.5,121.5 C 53.5,121.5 52.5,121.5 51.5,121.5C 51.6495,120.448 51.4828,119.448 51,118.5C 50.8849,123.391 50.0515,128.057 48.5,132.5C 43.419,131.863 38.419,131.696 33.5,132C 34.3128,130.686 35.3128,129.519 36.5,128.5C 34.1443,126.31 31.6443,124.31 29,122.5C 27.872,120.655 27.372,118.655 27.5,116.5C 29.8867,116.088 31.8867,115.088 33.5,113.5C 35.228,112.621 37.0614,111.954 39,111.5C 43.1643,112.666 47.331,113.832 51.5,115C 55.1179,116.064 56.1179,118.231 54.5,121.5 Z"/></g>
<g><path style="opacity:1" fill="#994c49" d="M 157.5,123.5 C 158.803,125.142 160.136,126.809 161.5,128.5C 160.833,128.833 160.167,129.167 159.5,129.5C 157.952,128.206 155.952,127.539 153.5,127.5C 151.079,127.56 148.746,127.893 146.5,128.5C 147.292,127.033 147.292,125.7 146.5,124.5C 144.38,123.128 143.38,123.795 143.5,126.5C 137.501,126.998 135.334,124.331 137,118.5C 142.629,116.134 148.462,114.468 154.5,113.5C 154.024,117.378 155.024,120.712 157.5,123.5 Z"/></g>
<g><path style="opacity:1" fill="#3c1319" d="M 201.5,109.5 C 201.5,112.167 201.5,114.833 201.5,117.5C 200.833,117.5 200.5,117.833 200.5,118.5C 197.35,122.119 194.684,126.119 192.5,130.5C 191.078,131.925 189.411,132.925 187.5,133.5C 190.762,127.307 194.762,121.64 199.5,116.5C 199.5,115.833 199.5,115.167 199.5,114.5C 200.167,112.833 200.833,111.167 201.5,109.5 Z"/></g>
<g><path style="opacity:1" fill="#e89e86" d="M 201.5,117.5 C 202.167,117.5 202.833,117.5 203.5,117.5C 205.113,118.838 205.613,120.505 205,122.5C 204,124.5 203,126.5 202,128.5C 201.184,129.823 200.017,130.489 198.5,130.5C 199.167,126.5 199.833,122.5 200.5,118.5C 200.5,117.833 200.833,117.5 201.5,117.5 Z"/></g>
<g><path style="opacity:1" fill="#2e131e" d="M 69.5,93.5 C 70.1667,95.8333 70.8333,98.1667 71.5,100.5C 71.4013,103.237 71.7347,105.904 72.5,108.5C 72.6457,112.636 74.6457,115.303 78.5,116.5C 77.713,118.104 76.3797,118.771 74.5,118.5C 74.5,120.167 74.5,121.833 74.5,123.5C 73.8549,124.812 72.8549,125.812 71.5,126.5C 70.5344,128.396 70.2011,130.396 70.5,132.5C 69.596,131.791 69.2627,130.791 69.5,129.5C 68.8857,125.865 68.5524,122.198 68.5,118.5C 69.1237,120.834 69.957,123.167 71,125.5C 73.3028,123.662 73.9694,121.328 73,118.5C 70.2809,117.556 67.4475,117.223 64.5,117.5C 64.5,118.5 64.5,119.5 64.5,120.5C 64.5,120.833 64.5,121.167 64.5,121.5C 62.7337,124.188 61.067,127.021 59.5,130C 62.3261,135.081 66.6595,137.581 72.5,137.5C 73.2389,137.369 73.9056,137.536 74.5,138C 74.5,139.333 74.5,140.667 74.5,142C 75.5,142.333 76.5,142.667 77.5,143C 76.1772,143.816 75.5106,144.983 75.5,146.5C 74.3249,145.026 73.3249,143.36 72.5,141.5C 69.3269,140.79 66.3269,139.623 63.5,138C 56.4093,129.815 52.9093,131.315 53,142.5C 51.1275,144.847 48.9608,146.847 46.5,148.5C 45.8333,148.5 45.1667,148.5 44.5,148.5C 52.3061,143.17 54.6395,135.837 51.5,126.5C 52.4511,127.919 52.7845,129.585 52.5,131.5C 53.552,131.649 54.552,131.483 55.5,131C 63.5177,121.416 62.0177,113.916 51,108.5C 50.3333,107.833 50.3333,107.167 51,106.5C 56.8486,111.841 63.6819,115.174 71.5,116.5C 69.8982,110.283 69.2315,103.949 69.5,97.5C 69.5,96.1667 69.5,94.8333 69.5,93.5 Z"/></g>
<g><path style="opacity:1" fill="#a55654" d="M 68.5,118.5 C 67.3951,119.6 66.0618,120.267 64.5,120.5C 64.5,119.5 64.5,118.5 64.5,117.5C 67.4475,117.223 70.2809,117.556 73,118.5C 73.9694,121.328 73.3028,123.662 71,125.5C 69.957,123.167 69.1237,120.834 68.5,118.5 Z"/></g>
<g><path style="opacity:1" fill="#e8a387" d="M 68.5,118.5 C 68.5524,122.198 68.8857,125.865 69.5,129.5C 65.4655,128.466 63.7988,125.8 64.5,121.5C 64.5,121.167 64.5,120.833 64.5,120.5C 66.0618,120.267 67.3951,119.6 68.5,118.5 Z"/></g>
<g><path style="opacity:1" fill="#7c7e79" d="M 127.5,123.5 C 129.167,123.5 130.833,123.5 132.5,123.5C 129.023,124.323 125.356,124.823 121.5,125C 125.905,126.135 130.238,127.468 134.5,129C 136.635,130.556 136.968,132.389 135.5,134.5C 119.933,132.09 104.266,131.09 88.5,131.5C 84.181,132.71 79.8476,132.71 75.5,131.5C 74.3881,130.735 73.7214,129.735 73.5,128.5C 78.7195,126.694 84.0528,125.194 89.5,124C 88.5,123.667 87.5,123.333 86.5,123C 100.192,120.953 113.858,121.12 127.5,123.5 Z"/></g>
<g><path style="opacity:1" fill="#7b9d9f" d="M 21.5,131.5 C 23.2886,140.531 26.2886,149.197 30.5,157.5C 29.7368,159.368 28.7368,161.035 27.5,162.5C 26.3178,166.577 26.6511,170.577 28.5,174.5C 28.4142,175.496 28.7476,176.329 29.5,177C 31.2475,177.352 32.9142,177.852 34.5,178.5C 34.5,179.167 34.8333,179.5 35.5,179.5C 37.6074,180.468 39.9407,180.802 42.5,180.5C 43.3121,181.993 44.6455,182.66 46.5,182.5C 50.0366,181.352 53.3699,180.019 56.5,178.5C 61.0567,174.953 61.7233,170.62 58.5,165.5C 59.9492,164.828 61.2825,164.161 62.5,163.5C 63.1667,163.5 63.5,163.167 63.5,162.5C 64.1471,161.726 64.4805,160.726 64.5,159.5C 64.6598,157.645 63.9931,156.312 62.5,155.5C 59.6274,153.446 56.9608,151.113 54.5,148.5C 51.9714,147.551 49.6381,148.218 47.5,150.5C 46.7025,150.043 46.3691,149.376 46.5,148.5C 48.9608,146.847 51.1275,144.847 53,142.5C 52.9093,131.315 56.4093,129.815 63.5,138C 66.3269,139.623 69.3269,140.79 72.5,141.5C 73.3249,143.36 74.3249,145.026 75.5,146.5C 75.5,147.5 75.5,148.5 75.5,149.5C 75.5,150.5 75.5,151.5 75.5,152.5C 75.9234,153.265 76.2568,154.098 76.5,155C 70.9761,165.556 68.8094,176.723 70,188.5C 70.2321,189.737 70.7321,190.737 71.5,191.5C 71.5106,193.017 72.1772,194.184 73.5,195C 71.328,201.097 68.9947,206.93 66.5,212.5C 64.9064,212.08 63.4064,211.414 62,210.5C 61.0546,210.905 60.3879,211.572 60,212.5C 58.3804,210.759 56.8804,208.925 55.5,207C 53.5,206.5 51.5,206 49.5,205.5C 47.9707,205.529 46.804,206.196 46,207.5C 45.2496,206.874 44.4162,206.374 43.5,206C 43.8333,205.667 44.1667,205.333 44.5,205C 40.52,204.561 39.8534,203.061 42.5,200.5C 40.6096,198.422 38.2762,197.089 35.5,196.5C 34.8333,195.167 34.1667,193.833 33.5,192.5C 30.1282,191.731 27.2949,190.065 25,187.5C 25.4531,185.546 25.6198,183.713 25.5,182C 24.4214,181.044 23.2547,180.211 22,179.5C 18.5279,165.667 16.0279,151.667 14.5,137.5C 13.1667,137.5 11.8333,137.5 10.5,137.5C 10.1826,134.428 10.5159,131.428 11.5,128.5C 12.3184,130.108 12.9851,131.775 13.5,133.5C 14.5909,134.888 15.9242,135.388 17.5,135C 15.9644,133.401 15.4644,131.567 16,129.5C 17.4443,131.155 19.2776,131.822 21.5,131.5 Z"/></g>
<g><path style="opacity:1" fill="#b86459" d="M 159.5,129.5 C 159.167,129.5 158.833,129.5 158.5,129.5C 154.664,132.921 150.33,135.587 145.5,137.5C 145.5,135.167 145.5,132.833 145.5,130.5C 145.328,129.508 145.662,128.842 146.5,128.5C 148.746,127.893 151.079,127.56 153.5,127.5C 155.952,127.539 157.952,128.206 159.5,129.5 Z"/></g>
<g><path style="opacity:1" fill="#4e3e44" d="M 132.5,123.5 C 134.441,124.436 136.108,125.77 137.5,127.5C 139.078,128.298 140.744,128.798 142.5,129C 143.022,129.561 143.355,130.228 143.5,131C 141.604,133.588 138.937,134.755 135.5,134.5C 136.968,132.389 136.635,130.556 134.5,129C 130.238,127.468 125.905,126.135 121.5,125C 125.356,124.823 129.023,124.323 132.5,123.5 Z"/></g>
<g><path style="opacity:1" fill="#29151e" d="M 170.5,144.5 C 171.601,146.394 172.934,147.061 174.5,146.5C 173.766,147.708 173.433,149.041 173.5,150.5C 171.833,150.5 170.167,150.5 168.5,150.5C 169.718,149.839 171.051,149.172 172.5,148.5C 166.399,144.701 163.399,139.201 163.5,132C 162.5,131.333 161.5,131.333 160.5,132C 156.651,136.923 151.651,139.756 145.5,140.5C 145.655,145.486 144.655,150.152 142.5,154.5C 142.837,157.176 143.17,159.843 143.5,162.5C 142.463,161.07 141.796,159.403 141.5,157.5C 141.737,156.209 141.404,155.209 140.5,154.5C 140.67,153.178 140.337,152.011 139.5,151C 140.416,150.722 141.082,150.222 141.5,149.5C 142.122,148.373 142.955,147.373 144,146.5C 144.183,143.635 144.683,140.969 145.5,138.5C 151.244,137.405 155.578,134.405 158.5,129.5C 158.833,129.5 159.167,129.5 159.5,129.5C 160.167,129.167 160.833,128.833 161.5,128.5C 162.15,128.804 162.817,129.137 163.5,129.5C 165.947,127.847 167.28,125.513 167.5,122.5C 168.363,121.537 169.03,121.537 169.5,122.5C 166.69,128.197 165.857,134.197 167,140.5C 167.66,142.324 168.827,143.657 170.5,144.5 Z"/></g>
<g><path style="opacity:1" fill="#b5675c" d="M 64.5,121.5 C 63.7988,125.8 65.4655,128.466 69.5,129.5C 69.2627,130.791 69.596,131.791 70.5,132.5C 72.153,132.66 73.4863,133.326 74.5,134.5C 74.2178,135.778 73.5511,136.778 72.5,137.5C 66.6595,137.581 62.3261,135.081 59.5,130C 61.067,127.021 62.7337,124.188 64.5,121.5 Z"/></g>
<g><path style="opacity:1" fill="#e99f83" d="M 27.5,116.5 C 27.372,118.655 27.872,120.655 29,122.5C 31.6443,124.31 34.1443,126.31 36.5,128.5C 35.3128,129.519 34.3128,130.686 33.5,132C 38.419,131.696 43.419,131.863 48.5,132.5C 50.0515,128.057 50.8849,123.391 51,118.5C 51.4828,119.448 51.6495,120.448 51.5,121.5C 52.5,121.5 53.5,121.5 54.5,121.5C 53.791,122.404 52.791,122.737 51.5,122.5C 51.5,123.833 51.5,125.167 51.5,126.5C 54.6395,135.837 52.3061,143.17 44.5,148.5C 45.625,149.652 45.625,150.652 44.5,151.5C 42.9676,149.218 41.3009,146.885 39.5,144.5C 40.0431,144.44 40.3764,144.107 40.5,143.5C 39.8333,142.167 39.1667,140.833 38.5,139.5C 39.5,138.833 40.5,138.167 41.5,137.5C 39.0312,136.832 36.6979,136.165 34.5,135.5C 33.1995,134.118 32.3661,132.452 32,130.5C 27.4922,128.137 24.9922,124.47 24.5,119.5C 24.5,117.5 25.5,116.5 27.5,116.5 Z"/></g>
<g><path style="opacity:1" fill="#c27363" d="M 200.5,118.5 C 199.833,122.5 199.167,126.5 198.5,130.5C 197.71,129.391 197.21,128.058 197,126.5C 197.291,137.167 194.458,146.833 188.5,155.5C 187.85,155.196 187.183,154.863 186.5,154.5C 185.741,151.843 185.074,149.177 184.5,146.5C 185.853,145.476 186.52,144.143 186.5,142.5C 187.978,142.762 189.311,142.429 190.5,141.5C 192.533,137.838 193.2,134.171 192.5,130.5C 194.684,126.119 197.35,122.119 200.5,118.5 Z"/></g>
<g><path style="opacity:1" fill="#301823" d="M 13.5,122.5 C 16.5257,125.523 19.8591,128.19 23.5,130.5C 23.8874,139.096 26.5541,146.763 31.5,153.5C 31.7678,155.099 31.4345,156.432 30.5,157.5C 26.2886,149.197 23.2886,140.531 21.5,131.5C 17.4418,129.773 14.7751,126.773 13.5,122.5 Z"/></g>
<g><path style="opacity:1" fill="#685c5a" d="M 73.5,128.5 C 73.7214,129.735 74.3881,130.735 75.5,131.5C 79.8476,132.71 84.181,132.71 88.5,131.5C 100.06,132.14 111.726,133.14 123.5,134.5C 123.918,135.222 124.584,135.722 125.5,136C 122.751,138.19 123.085,139.857 126.5,141C 126.167,141.333 125.833,141.667 125.5,142C 121.603,141.047 117.603,140.713 113.5,141C 115.878,141.511 118.212,142.178 120.5,143C 115.833,143.333 111.167,143.667 106.5,144C 109.101,144.92 111.768,145.587 114.5,146C 108.027,146.719 101.694,146.053 95.5,144C 96.938,143.781 98.2713,143.281 99.5,142.5C 90.8151,140.318 82.4818,137.651 74.5,134.5C 73.4863,133.326 72.153,132.66 70.5,132.5C 70.2011,130.396 70.5344,128.396 71.5,126.5C 72.8549,125.812 73.8549,124.812 74.5,123.5C 77.3137,121.904 80.3137,121.404 83.5,122C 79.4414,124.121 76.108,126.287 73.5,128.5 Z"/></g>
<g><path style="opacity:1" fill="#a85f56" d="M 14.5,117.5 C 14.9332,121.594 17.2665,123.594 21.5,123.5C 21.2627,122.209 21.596,121.209 22.5,120.5C 22.3398,122.199 22.5065,123.866 23,125.5C 23.1909,123.292 23.6909,121.292 24.5,119.5C 24.9922,124.47 27.4922,128.137 32,130.5C 32.3661,132.452 33.1995,134.118 34.5,135.5C 31.7332,134.949 29.3999,133.616 27.5,131.5C 27.1667,131.833 26.8333,132.167 26.5,132.5C 27.3398,133.735 28.3398,134.735 29.5,135.5C 28.6236,135.369 27.9569,135.702 27.5,136.5C 30.5559,141.034 32.3892,146.034 33,151.5C 33.3333,150.833 33.6667,150.167 34,149.5C 34.8333,151.167 35.6667,152.833 36.5,154.5C 34.3621,157.063 32.6955,156.729 31.5,153.5C 26.5541,146.763 23.8874,139.096 23.5,130.5C 19.8591,128.19 16.5257,125.523 13.5,122.5C 12.8614,121.903 12.528,121.07 12.5,120C 12.6842,118.624 13.3509,117.791 14.5,117.5 Z"/></g>
<g><path style="opacity:1" fill="#deb59f" d="M 158.5,129.5 C 155.578,134.405 151.244,137.405 145.5,138.5C 145.5,138.167 145.5,137.833 145.5,137.5C 150.33,135.587 154.664,132.921 158.5,129.5 Z"/></g>
<g><path style="opacity:1" fill="#622b2a" d="M 34.5,135.5 C 36.6979,136.165 39.0312,136.832 41.5,137.5C 40.5,138.167 39.5,138.833 38.5,139.5C 39.1667,140.833 39.8333,142.167 40.5,143.5C 40.3764,144.107 40.0431,144.44 39.5,144.5C 37.4169,140.082 34.0836,137.082 29.5,135.5C 28.3398,134.735 27.3398,133.735 26.5,132.5C 26.8333,132.167 27.1667,131.833 27.5,131.5C 29.3999,133.616 31.7332,134.949 34.5,135.5 Z"/></g>
<g><path style="opacity:1" fill="#311923" d="M 203.5,117.5 C 205.017,117.511 206.184,118.177 207,119.5C 206.607,125.929 203.607,130.929 198,134.5C 197.854,142.28 195.354,149.113 190.5,155C 191.609,157.047 192.276,159.213 192.5,161.5C 190.39,160.05 189.057,158.05 188.5,155.5C 194.458,146.833 197.291,137.167 197,126.5C 197.21,128.058 197.71,129.391 198.5,130.5C 200.017,130.489 201.184,129.823 202,128.5C 203,126.5 204,124.5 205,122.5C 205.613,120.505 205.113,118.838 203.5,117.5 Z"/></g>
<g><path style="opacity:1" fill="#9f5448" d="M 174.5,146.5 C 172.934,147.061 171.601,146.394 170.5,144.5C 171.164,143.352 171.331,142.019 171,140.5C 172.598,143.925 174.598,144.258 177,141.5C 176.903,143.459 176.07,145.125 174.5,146.5 Z"/></g>
<g><path style="opacity:1" fill="#57494d" d="M 145.5,130.5 C 145.5,132.833 145.5,135.167 145.5,137.5C 145.5,137.833 145.5,138.167 145.5,138.5C 144.683,140.969 144.183,143.635 144,146.5C 142.955,147.373 142.122,148.373 141.5,149.5C 140.849,148.909 140.182,148.243 139.5,147.5C 120.208,147.959 100.875,148.125 81.5,148C 100.334,148.762 119.001,149.595 137.5,150.5C 134.673,151.932 131.673,152.599 128.5,152.5C 128.238,153.978 128.571,155.311 129.5,156.5C 133.072,155.319 136.738,154.652 140.5,154.5C 141.404,155.209 141.737,156.209 141.5,157.5C 132.157,158.081 122.823,159.081 113.5,160.5C 113.657,161.873 113.49,163.207 113,164.5C 112.667,162.5 112.333,160.5 112,158.5C 111.272,161.23 111.438,163.897 112.5,166.5C 112.023,167.478 111.357,168.311 110.5,169C 110.833,169.333 111.167,169.667 111.5,170C 116.485,169.781 121.485,169.781 126.5,170C 123.642,171.694 121.309,173.861 119.5,176.5C 114.839,175.819 110.172,174.653 105.5,173C 109.19,172.576 109.357,171.742 106,170.5C 104.491,171.09 102.991,171.756 101.5,172.5C 102.5,173.833 103.5,175.167 104.5,176.5C 104.043,177.298 103.376,177.631 102.5,177.5C 101.686,179.631 101.186,181.964 101,184.5C 100.683,182.699 100.016,182.366 99,183.5C 98.1742,187.818 96.6742,191.818 94.5,195.5C 93.4168,195.539 92.4168,195.873 91.5,196.5C 90.8076,195.975 90.3076,195.308 90,194.5C 89.51,195.793 89.3433,197.127 89.5,198.5C 90.5,198.5 91.5,198.5 92.5,198.5C 92.1984,201.059 92.5318,203.393 93.5,205.5C 93.5,207.167 93.5,208.833 93.5,210.5C 92.7321,209.737 92.2321,208.737 92,207.5C 91.0855,211.185 90.4189,210.852 90,206.5C 89.6523,209.342 88.1523,211.009 85.5,211.5C 82.7479,210.488 80.0812,209.488 77.5,208.5C 77.9382,208.565 78.2716,208.399 78.5,208C 74.0654,207.043 73.5654,205.209 77,202.5C 77.5556,204.595 78.0556,204.762 78.5,203C 76.234,199.921 74.9007,196.421 74.5,192.5C 75.5832,192.461 76.5832,192.127 77.5,191.5C 79.5,193.167 81.5,194.833 83.5,196.5C 84.5,196.167 85.1667,195.5 85.5,194.5C 84.1667,193.167 84.1667,191.833 85.5,190.5C 87.7812,189.723 89.9479,188.723 92,187.5C 93.5339,183.289 93.8673,178.956 93,174.5C 91.992,172.741 90.492,171.574 88.5,171C 91.2686,170.79 93.7686,171.623 96,173.5C 96.1667,173 96.3333,172.5 96.5,172C 95.66,170.233 94.3266,168.899 92.5,168C 96.3687,169.079 100.369,169.912 104.5,170.5C 104.336,167.813 104.503,165.146 105,162.5C 105.495,164.473 105.662,166.473 105.5,168.5C 106.833,168.5 108.167,168.5 109.5,168.5C 110.207,165.214 110.54,161.881 110.5,158.5C 108.738,158.357 107.071,158.691 105.5,159.5C 102.537,157.999 99.3702,157.333 96,157.5C 90.1559,158.609 84.3225,158.775 78.5,158C 78.1553,160.73 77.9886,163.563 78,166.5C 75.8571,169.772 74.0238,173.105 72.5,176.5C 71.6795,181.535 71.3461,186.535 71.5,191.5C 70.7321,190.737 70.2321,189.737 70,188.5C 68.8094,176.723 70.9761,165.556 76.5,155C 76.2568,154.098 75.9234,153.265 75.5,152.5C 80.4258,151.102 85.2592,151.435 90,153.5C 94.1055,152.338 98.2722,152.338 102.5,153.5C 107.814,152.822 113.148,152.322 118.5,152C 104.146,150.212 89.8128,149.378 75.5,149.5C 75.5,148.5 75.5,147.5 75.5,146.5C 75.5106,144.983 76.1772,143.816 77.5,143C 76.5,142.667 75.5,142.333 74.5,142C 74.5,140.667 74.5,139.333 74.5,138C 73.9056,137.536 73.2389,137.369 72.5,137.5C 73.5511,136.778 74.2178,135.778 74.5,134.5C 82.4818,137.651 90.8151,140.318 99.5,142.5C 98.2713,143.281 96.938,143.781 95.5,144C 101.694,146.053 108.027,146.719 114.5,146C 111.768,145.587 109.101,144.92 106.5,144C 111.167,143.667 115.833,143.333 120.5,143C 118.212,142.178 115.878,141.511 113.5,141C 117.603,140.713 121.603,141.047 125.5,142C 125.833,141.667 126.167,141.333 126.5,141C 123.085,139.857 122.751,138.19 125.5,136C 124.584,135.722 123.918,135.222 123.5,134.5C 128.917,136.394 134.417,136.727 140,135.5C 141.365,135.844 142.532,136.511 143.5,137.5C 144.168,135.031 144.835,132.698 145.5,130.5 Z"/></g>
<g><path style="opacity:1" fill="#f1ac8c" d="M 188.5,95.5 C 190.036,97.0251 191.036,99.0251 191.5,101.5C 193.527,102.513 195.527,103.513 197.5,104.5C 195.833,105.167 194.167,105.833 192.5,106.5C 192.062,106.435 191.728,106.601 191.5,107C 194.177,107.814 196.177,109.314 197.5,111.5C 191.185,120.82 184.852,130.154 178.5,139.5C 178.667,139.833 178.833,140.167 179,140.5C 181.628,137.79 184.461,135.456 187.5,133.5C 189.411,132.925 191.078,131.925 192.5,130.5C 193.2,134.171 192.533,137.838 190.5,141.5C 189.311,142.429 187.978,142.762 186.5,142.5C 186.52,144.143 185.853,145.476 184.5,146.5C 185.074,149.177 185.741,151.843 186.5,154.5C 187.183,154.863 187.85,155.196 188.5,155.5C 189.057,158.05 190.39,160.05 192.5,161.5C 192.5,163.167 192.5,164.833 192.5,166.5C 191.71,165.391 191.21,164.058 191,162.5C 190.692,163.308 190.192,163.975 189.5,164.5C 188.232,163.572 186.899,163.405 185.5,164C 183.583,166.498 181.916,169.165 180.5,172C 178.61,173.112 176.61,173.946 174.5,174.5C 173,174.547 172,173.881 171.5,172.5C 173.632,171.402 175.798,170.402 178,169.5C 179.187,167.956 179.52,166.289 179,164.5C 176.487,168.212 172.987,169.378 168.5,168C 167.117,166.729 166.117,165.229 165.5,163.5C 165.5,163.167 165.5,162.833 165.5,162.5C 166.338,162.158 166.672,161.492 166.5,160.5C 169.31,159.026 172.31,157.86 175.5,157C 172.89,156.853 170.556,156.019 168.5,154.5C 167.702,154.957 167.369,155.624 167.5,156.5C 166.244,156.904 165.077,157.571 164,158.5C 163.228,158.355 162.561,158.022 162,157.5C 161.417,159.002 160.584,160.335 159.5,161.5C 158.614,160.675 158.281,159.675 158.5,158.5C 157.448,158.649 156.448,158.483 155.5,158C 157.319,157.26 158.652,156.093 159.5,154.5C 161.379,150.991 164.379,149.658 168.5,150.5C 170.167,150.5 171.833,150.5 173.5,150.5C 173.433,149.041 173.766,147.708 174.5,146.5C 176.07,145.125 176.903,143.459 177,141.5C 174.598,144.258 172.598,143.925 171,140.5C 171.331,142.019 171.164,143.352 170.5,144.5C 168.827,143.657 167.66,142.324 167,140.5C 165.857,134.197 166.69,128.197 169.5,122.5C 169.03,121.537 168.363,121.537 167.5,122.5C 161.498,122.995 158.665,120.328 159,114.5C 162.866,112.267 167.033,110.934 171.5,110.5C 174.514,110.258 177.014,111.258 179,113.5C 181.44,112.729 183.94,112.562 186.5,113C 183.062,112.08 180.062,110.413 177.5,108C 178.762,105.724 180.429,103.891 182.5,102.5C 185.674,101.141 187.674,98.8074 188.5,95.5 Z"/></g>
<g><path style="opacity:1" fill="#3d2c34" d="M 141.5,149.5 C 141.082,150.222 140.416,150.722 139.5,151C 140.337,152.011 140.67,153.178 140.5,154.5C 136.738,154.652 133.072,155.319 129.5,156.5C 128.571,155.311 128.238,153.978 128.5,152.5C 131.673,152.599 134.673,151.932 137.5,150.5C 119.001,149.595 100.334,148.762 81.5,148C 100.875,148.125 120.208,147.959 139.5,147.5C 140.182,148.243 140.849,148.909 141.5,149.5 Z"/></g>
<g><path style="opacity:1" fill="#5b443f" d="M 54.5,148.5 C 51.5705,149.588 48.7372,150.921 46,152.5C 45.2352,152.43 44.7352,152.097 44.5,151.5C 45.625,150.652 45.625,149.652 44.5,148.5C 45.1667,148.5 45.8333,148.5 46.5,148.5C 46.3691,149.376 46.7025,150.043 47.5,150.5C 49.6381,148.218 51.9714,147.551 54.5,148.5 Z"/></g>
<g><path style="opacity:1" fill="#2d1c25" d="M 75.5,149.5 C 89.8128,149.378 104.146,150.212 118.5,152C 113.148,152.322 107.814,152.822 102.5,153.5C 98.2722,152.338 94.1055,152.338 90,153.5C 85.2592,151.435 80.4258,151.102 75.5,152.5C 75.5,151.5 75.5,150.5 75.5,149.5 Z"/></g>
<g><path style="opacity:1" fill="#743529" d="M 166.5,160.5 C 166.433,159.041 166.766,157.708 167.5,156.5C 167.369,155.624 167.702,154.957 168.5,154.5C 170.556,156.019 172.89,156.853 175.5,157C 172.31,157.86 169.31,159.026 166.5,160.5 Z"/></g>
<g><path style="opacity:1" fill="#f1ae8e" d="M 29.5,135.5 C 34.0836,137.082 37.4169,140.082 39.5,144.5C 41.3009,146.885 42.9676,149.218 44.5,151.5C 44.7352,152.097 45.2352,152.43 46,152.5C 48.7372,150.921 51.5705,149.588 54.5,148.5C 56.9608,151.113 59.6274,153.446 62.5,155.5C 63.1495,157.435 63.4828,159.435 63.5,161.5C 62.5,161.5 61.5,161.5 60.5,161.5C 60.5086,159.692 60.0086,158.025 59,156.5C 58.5172,157.448 58.3505,158.448 58.5,159.5C 57.5,159.5 56.5,159.5 55.5,159.5C 55.7852,157.712 55.4519,156.045 54.5,154.5C 53.7025,154.957 53.3691,155.624 53.5,156.5C 52.5244,157.815 51.5244,159.148 50.5,160.5C 52.6159,162.4 53.9493,164.733 54.5,167.5C 54.5858,168.496 54.2524,169.329 53.5,170C 47.4264,172.237 41.9264,171.403 37,167.5C 35.4506,170.003 33.7839,170.003 32,167.5C 31.7679,168.737 31.2679,169.737 30.5,170.5C 28.0181,168.497 27.0181,165.831 27.5,162.5C 28.7368,161.035 29.7368,159.368 30.5,157.5C 31.4345,156.432 31.7678,155.099 31.5,153.5C 32.6955,156.729 34.3621,157.063 36.5,154.5C 35.6667,152.833 34.8333,151.167 34,149.5C 33.6667,150.167 33.3333,150.833 33,151.5C 32.3892,146.034 30.5559,141.034 27.5,136.5C 27.9569,135.702 28.6236,135.369 29.5,135.5 Z"/></g>
<g><path style="opacity:1" fill="#6b564b" d="M 62.5,155.5 C 63.9931,156.312 64.6598,157.645 64.5,159.5C 64.4805,160.726 64.1471,161.726 63.5,162.5C 63.5,162.167 63.5,161.833 63.5,161.5C 63.4828,159.435 63.1495,157.435 62.5,155.5 Z"/></g>
<g><path style="opacity:1" fill="#b16157" d="M 63.5,161.5 C 63.5,161.833 63.5,162.167 63.5,162.5C 63.5,163.167 63.1667,163.5 62.5,163.5C 60.076,163.808 57.7427,163.474 55.5,162.5C 54.9495,160.343 54.2829,158.343 53.5,156.5C 53.3691,155.624 53.7025,154.957 54.5,154.5C 55.4519,156.045 55.7852,157.712 55.5,159.5C 56.5,159.5 57.5,159.5 58.5,159.5C 58.3505,158.448 58.5172,157.448 59,156.5C 60.0086,158.025 60.5086,159.692 60.5,161.5C 61.5,161.5 62.5,161.5 63.5,161.5 Z"/></g>
<g><path style="opacity:1" fill="#a25e53" d="M 159.5,154.5 C 158.652,156.093 157.319,157.26 155.5,158C 156.448,158.483 157.448,158.649 158.5,158.5C 158.281,159.675 158.614,160.675 159.5,161.5C 160.584,160.335 161.417,159.002 162,157.5C 162.561,158.022 163.228,158.355 164,158.5C 165.077,157.571 166.244,156.904 167.5,156.5C 166.766,157.708 166.433,159.041 166.5,160.5C 166.672,161.492 166.338,162.158 165.5,162.5C 165.44,161.957 165.107,161.624 164.5,161.5C 162.219,164.228 159.219,165.228 155.5,164.5C 154.305,164.134 153.639,163.301 153.5,162C 153.348,157.642 155.348,155.142 159.5,154.5 Z"/></g>
<g><path style="opacity:1" fill="#461c22" d="M 165.5,162.5 C 165.5,162.833 165.5,163.167 165.5,163.5C 164.071,165.69 162.071,167.024 159.5,167.5C 158.833,167.833 158.167,168.167 157.5,168.5C 157.473,166.801 156.806,165.467 155.5,164.5C 159.219,165.228 162.219,164.228 164.5,161.5C 165.107,161.624 165.44,161.957 165.5,162.5 Z"/></g>
<g><path style="opacity:1" fill="#e69981" d="M 159.5,167.5 C 163.151,167.162 164.817,168.828 164.5,172.5C 162.167,172.5 159.833,172.5 157.5,172.5C 157.5,171.167 157.5,169.833 157.5,168.5C 158.167,168.167 158.833,167.833 159.5,167.5 Z"/></g>
<g><path style="opacity:1" fill="#6d6360" d="M 74.5,192.5 C 72.8164,187.324 72.1497,181.991 72.5,176.5C 74.0238,173.105 75.8571,169.772 78,166.5C 77.9886,163.563 78.1553,160.73 78.5,158C 84.3225,158.775 90.1559,158.609 96,157.5C 99.3702,157.333 102.537,157.999 105.5,159.5C 107.071,158.691 108.738,158.357 110.5,158.5C 110.54,161.881 110.207,165.214 109.5,168.5C 108.167,168.5 106.833,168.5 105.5,168.5C 105.662,166.473 105.495,164.473 105,162.5C 104.503,165.146 104.336,167.813 104.5,170.5C 100.369,169.912 96.3687,169.079 92.5,168C 94.3266,168.899 95.66,170.233 96.5,172C 96.3333,172.5 96.1667,173 96,173.5C 93.7686,171.623 91.2686,170.79 88.5,171C 90.492,171.574 91.992,172.741 93,174.5C 93.8673,178.956 93.5339,183.289 92,187.5C 89.9479,188.723 87.7812,189.723 85.5,190.5C 84.1667,191.833 84.1667,193.167 85.5,194.5C 85.1667,195.5 84.5,196.167 83.5,196.5C 81.5,194.833 79.5,193.167 77.5,191.5C 76.5832,192.127 75.5832,192.461 74.5,192.5 Z"/></g>
<g><path style="opacity:1" fill="#723635" d="M 53.5,156.5 C 54.2829,158.343 54.9495,160.343 55.5,162.5C 57.7427,163.474 60.076,163.808 62.5,163.5C 61.2825,164.161 59.9492,164.828 58.5,165.5C 61.7233,170.62 61.0567,174.953 56.5,178.5C 56.5,177.5 56.5,176.5 56.5,175.5C 52.8694,176.412 49.2027,176.579 45.5,176C 48.9708,174.812 52.3041,174.145 55.5,174C 57.0203,171.448 56.6869,169.282 54.5,167.5C 53.9493,164.733 52.6159,162.4 50.5,160.5C 51.5244,159.148 52.5244,157.815 53.5,156.5 Z"/></g>
<g><path style="opacity:1" fill="#6e6461" d="M 141.5,157.5 C 141.796,159.403 142.463,161.07 143.5,162.5C 144.167,162.5 144.5,162.833 144.5,163.5C 143.778,163.918 143.278,164.584 143,165.5C 141.867,163.789 140.367,163.289 138.5,164C 141.276,165.779 140.943,166.779 137.5,167C 139.848,167.11 141.348,168.277 142,170.5C 142.256,177.691 142.756,184.857 143.5,192C 142.857,197.822 139.857,199.656 134.5,197.5C 132.408,195.211 132.074,192.711 133.5,190C 132.216,189.316 131.049,189.483 130,190.5C 129.51,189.207 129.343,187.873 129.5,186.5C 126.813,186.664 124.146,186.497 121.5,186C 119.109,183.363 117.109,180.53 115.5,177.5C 115.899,176.479 117.233,176.146 119.5,176.5C 121.309,173.861 123.642,171.694 126.5,170C 121.485,169.781 116.485,169.781 111.5,170C 111.167,169.667 110.833,169.333 110.5,169C 111.357,168.311 112.023,167.478 112.5,166.5C 111.438,163.897 111.272,161.23 112,158.5C 112.333,160.5 112.667,162.5 113,164.5C 113.49,163.207 113.657,161.873 113.5,160.5C 122.823,159.081 132.157,158.081 141.5,157.5 Z"/></g>
<g><path style="opacity:1" fill="#3c1d23" d="M 27.5,162.5 C 27.0181,165.831 28.0181,168.497 30.5,170.5C 33.1538,175.024 32.6538,175.358 29,171.5C 28.5172,172.448 28.3505,173.448 28.5,174.5C 26.6511,170.577 26.3178,166.577 27.5,162.5 Z"/></g>
<g><path style="opacity:1" fill="#b36055" d="M 54.5,167.5 C 56.6869,169.282 57.0203,171.448 55.5,174C 52.3041,174.145 48.9708,174.812 45.5,176C 49.2027,176.579 52.8694,176.412 56.5,175.5C 56.5,176.5 56.5,177.5 56.5,178.5C 53.3699,180.019 50.0366,181.352 46.5,182.5C 44.6455,182.66 43.3121,181.993 42.5,180.5C 42.2172,179.711 41.7172,179.044 41,178.5C 39.3005,179.406 37.4672,179.739 35.5,179.5C 34.8333,179.5 34.5,179.167 34.5,178.5C 34.3957,176.027 33.3957,175.361 31.5,176.5C 30.4822,175.807 29.4822,175.141 28.5,174.5C 28.3505,173.448 28.5172,172.448 29,171.5C 32.6538,175.358 33.1538,175.024 30.5,170.5C 31.2679,169.737 31.7679,168.737 32,167.5C 33.7839,170.003 35.4506,170.003 37,167.5C 41.9264,171.403 47.4264,172.237 53.5,170C 54.2524,169.329 54.5858,168.496 54.5,167.5 Z"/></g>
<g><path style="opacity:1" fill="#2b1b21" d="M 192.5,161.5 C 194.441,163.011 194.941,165.011 194,167.5C 191.833,169.83 190.166,172.497 189,175.5C 188.329,176.252 187.496,176.586 186.5,176.5C 188.5,173.167 190.5,169.833 192.5,166.5C 192.5,164.833 192.5,163.167 192.5,161.5 Z"/></g>
<g><path style="opacity:1" fill="#261925" d="M 119.5,176.5 C 117.233,176.146 115.899,176.479 115.5,177.5C 116.497,180.328 116.497,182.995 115.5,185.5C 114.992,183.135 114.325,180.801 113.5,178.5C 111.187,177.727 108.854,177.06 106.5,176.5C 105.719,177.737 104.719,178.737 103.5,179.5C 102.702,179.043 102.369,178.376 102.5,177.5C 103.376,177.631 104.043,177.298 104.5,176.5C 103.5,175.167 102.5,173.833 101.5,172.5C 102.991,171.756 104.491,171.09 106,170.5C 109.357,171.742 109.19,172.576 105.5,173C 110.172,174.653 114.839,175.819 119.5,176.5 Z"/></g>
<g><path style="opacity:1" fill="#b26057" d="M 192.5,166.5 C 190.5,169.833 188.5,173.167 186.5,176.5C 183.751,176.726 181.084,176.393 178.5,175.5C 177.841,178.824 175.841,180.157 172.5,179.5C 171.833,179.5 171.5,179.167 171.5,178.5C 167.014,176.744 162.347,175.078 157.5,173.5C 156.167,171.833 156.167,170.167 157.5,168.5C 157.5,169.833 157.5,171.167 157.5,172.5C 159.833,172.5 162.167,172.5 164.5,172.5C 164.817,168.828 163.151,167.162 159.5,167.5C 162.071,167.024 164.071,165.69 165.5,163.5C 166.117,165.229 167.117,166.729 168.5,168C 172.987,169.378 176.487,168.212 179,164.5C 179.52,166.289 179.187,167.956 178,169.5C 175.798,170.402 173.632,171.402 171.5,172.5C 172,173.881 173,174.547 174.5,174.5C 176.61,173.946 178.61,173.112 180.5,172C 181.916,169.165 183.583,166.498 185.5,164C 186.899,163.405 188.232,163.572 189.5,164.5C 190.192,163.975 190.692,163.308 191,162.5C 191.21,164.058 191.71,165.391 192.5,166.5 Z"/></g>
<g><path style="opacity:1" fill="#341f20" d="M 28.5,174.5 C 29.4822,175.141 30.4822,175.807 31.5,176.5C 33.3957,175.361 34.3957,176.027 34.5,178.5C 32.9142,177.852 31.2475,177.352 29.5,177C 28.7476,176.329 28.4142,175.496 28.5,174.5 Z"/></g>
<g><path style="opacity:1" fill="#3d252a" d="M 157.5,173.5 C 162.347,175.078 167.014,176.744 171.5,178.5C 170.07,178.421 168.736,178.754 167.5,179.5C 165.138,177.638 162.471,176.471 159.5,176C 158.619,175.292 157.953,174.458 157.5,173.5 Z"/></g>
<g><path style="opacity:1" fill="#552f32" d="M 186.5,176.5 C 183.647,177.877 180.647,179.044 177.5,180C 175.613,180.78 173.946,180.613 172.5,179.5C 175.841,180.157 177.841,178.824 178.5,175.5C 181.084,176.393 183.751,176.726 186.5,176.5 Z"/></g>
<g><path style="opacity:1" fill="#3b2626" d="M 42.5,180.5 C 39.9407,180.802 37.6074,180.468 35.5,179.5C 37.4672,179.739 39.3005,179.406 41,178.5C 41.7172,179.044 42.2172,179.711 42.5,180.5 Z"/></g>
<g><path style="opacity:1" fill="#81878d" d="M -0.5,182.5 C 1.7289,186.753 4.39557,190.92 7.5,195C 13.4839,199.476 19.1506,204.309 24.5,209.5C 33.604,215.578 43.4374,220.245 54,223.5C 56.1365,221.875 57.8032,222.208 59,224.5C 60.6292,223.435 61.7958,222.101 62.5,220.5C 61.9747,219.808 61.3081,219.308 60.5,219C 61.8544,217.706 63.1877,217.54 64.5,218.5C 65.1818,217.757 65.8485,217.091 66.5,216.5C 69.0972,217.4 71.4306,216.733 73.5,214.5C 74.5827,215.365 74.7494,216.365 74,217.5C 72.1971,217.094 70.3638,217.594 68.5,219C 64.5474,222.8 60.2141,225.967 55.5,228.5C 44.9108,230.193 34.5775,229.36 24.5,226C 21.1506,224.585 19.3173,222.085 19,218.5C 16.2799,217.777 14.1132,216.277 12.5,214C 12.8333,213.667 13.1667,213.333 13.5,213C 11.6507,211.32 9.65073,209.82 7.5,208.5C 8.60851,206.786 7.94185,206.119 5.5,206.5C 5.5,205.167 5.5,203.833 5.5,202.5C 3.5,202.167 1.5,201.833 -0.5,201.5C -0.5,195.167 -0.5,188.833 -0.5,182.5 Z"/></g>
<g><path style="opacity:1" fill="#7b9c9f" d="M 115.5,185.5 C 117.775,190.983 121.775,194.65 127.5,196.5C 127.443,197.609 127.11,198.609 126.5,199.5C 126.15,203.054 126.816,206.388 128.5,209.5C 124.074,214.221 125.074,217.221 131.5,218.5C 128.469,220.691 125.135,221.024 121.5,219.5C 120.289,220.274 120.289,221.107 121.5,222C 114.833,222.667 108.167,222.667 101.5,222C 98.8585,221.677 96.5252,220.677 94.5,219C 95.2524,218.329 95.5858,217.496 95.5,216.5C 95.7947,214.265 95.4614,212.265 94.5,210.5C 94.1667,210.5 93.8333,210.5 93.5,210.5C 93.5,208.833 93.5,207.167 93.5,205.5C 93.1866,202.753 93.52,200.086 94.5,197.5C 99.0249,195.117 100.858,191.45 100,186.5C 99.5392,190.436 97.7059,193.436 94.5,195.5C 96.6742,191.818 98.1742,187.818 99,183.5C 100.016,182.366 100.683,182.699 101,184.5C 101.186,181.964 101.686,179.631 102.5,177.5C 102.369,178.376 102.702,179.043 103.5,179.5C 104.719,178.737 105.719,177.737 106.5,176.5C 108.854,177.06 111.187,177.727 113.5,178.5C 114.325,180.801 114.992,183.135 115.5,185.5 Z"/></g>
<g><path style="opacity:1" fill="#4c3e44" d="M 144.5,163.5 C 146.749,168.418 148.083,173.584 148.5,179C 147.911,183.852 147.244,188.686 146.5,193.5C 145.742,198.268 143.075,201.602 138.5,203.5C 136.803,203.101 135.137,202.601 133.5,202C 131.797,199.668 129.797,197.835 127.5,196.5C 121.775,194.65 117.775,190.983 115.5,185.5C 116.497,182.995 116.497,180.328 115.5,177.5C 117.109,180.53 119.109,183.363 121.5,186C 124.146,186.497 126.813,186.664 129.5,186.5C 129.343,187.873 129.51,189.207 130,190.5C 131.049,189.483 132.216,189.316 133.5,190C 132.074,192.711 132.408,195.211 134.5,197.5C 139.857,199.656 142.857,197.822 143.5,192C 142.756,184.857 142.256,177.691 142,170.5C 141.348,168.277 139.848,167.11 137.5,167C 140.943,166.779 141.276,165.779 138.5,164C 140.367,163.289 141.867,163.789 143,165.5C 143.278,164.584 143.778,163.918 144.5,163.5 Z"/></g>
<g><path style="opacity:1" fill="#1d1a23" d="M 93.5,205.5 C 92.5318,203.393 92.1984,201.059 92.5,198.5C 91.5,198.5 90.5,198.5 89.5,198.5C 89.3433,197.127 89.51,195.793 90,194.5C 90.3076,195.308 90.8076,195.975 91.5,196.5C 92.4168,195.873 93.4168,195.539 94.5,195.5C 97.7059,193.436 99.5392,190.436 100,186.5C 100.858,191.45 99.0249,195.117 94.5,197.5C 93.52,200.086 93.1866,202.753 93.5,205.5 Z"/></g>
<g><path style="opacity:1" fill="#615657" d="M 146.5,193.5 C 148.267,195.792 149.267,198.458 149.5,201.5C 149.66,203.199 149.494,204.866 149,206.5C 148.83,204.285 148.163,202.285 147,200.5C 146.682,202.061 145.849,203.228 144.5,204C 144.616,205.268 144.949,206.602 145.5,208C 144.584,208.278 143.918,208.778 143.5,209.5C 142.329,210.345 140.995,211.011 139.5,211.5C 137.302,210.835 134.969,210.168 132.5,209.5C 131.988,206.649 130.321,205.316 127.5,205.5C 127.795,203.265 127.461,201.265 126.5,199.5C 127.11,198.609 127.443,197.609 127.5,196.5C 129.797,197.835 131.797,199.668 133.5,202C 135.137,202.601 136.803,203.101 138.5,203.5C 143.075,201.602 145.742,198.268 146.5,193.5 Z"/></g>
<g><path style="opacity:1" fill="#7e7f7c" d="M 77.5,208.5 C 80.0812,209.488 82.7479,210.488 85.5,211.5C 87.4878,211.827 89.4878,212.16 91.5,212.5C 93.0296,212.36 94.0296,211.693 94.5,210.5C 95.4614,212.265 95.7947,214.265 95.5,216.5C 95.1667,216.5 94.8333,216.5 94.5,216.5C 94.5654,216.062 94.3988,215.728 94,215.5C 92.5618,216.718 90.8951,217.385 89,217.5C 83.8572,216.089 78.6905,214.756 73.5,213.5C 72.4461,213.68 71.4461,214.013 70.5,214.5C 69.6618,212.26 69.4952,209.593 70,206.5C 72.3822,207.554 74.8822,208.221 77.5,208.5 Z"/></g>
<g><path style="opacity:1" fill="#231c25" d="M 93.5,210.5 C 93.8333,210.5 94.1667,210.5 94.5,210.5C 94.0296,211.693 93.0296,212.36 91.5,212.5C 89.4878,212.16 87.4878,211.827 85.5,211.5C 88.1523,211.009 89.6523,209.342 90,206.5C 90.4189,210.852 91.0855,211.185 92,207.5C 92.2321,208.737 92.7321,209.737 93.5,210.5 Z"/></g>
<g><path style="opacity:1" fill="#898c88" d="M 144.5,215.5 C 138.862,216.22 133.196,216.553 127.5,216.5C 127.286,214.856 127.62,213.356 128.5,212C 132.152,211.501 135.818,211.335 139.5,211.5C 140.995,211.011 142.329,210.345 143.5,209.5C 145.677,209.414 147.677,208.747 149.5,207.5C 150.231,209.401 150.231,211.401 149.5,213.5C 147.302,213.12 145.635,213.787 144.5,215.5 Z"/></g>
<g><path style="opacity:1" fill="#3e333b" d="M 149.5,201.5 C 150.404,202.209 150.737,203.209 150.5,204.5C 151.5,204.5 152.5,204.5 153.5,204.5C 153.5,207.167 153.5,209.833 153.5,212.5C 153.771,214.821 153.104,216.821 151.5,218.5C 151.863,219.183 152.196,219.85 152.5,220.5C 150.052,221.473 147.385,221.806 144.5,221.5C 146.148,220.073 148.148,219.24 150.5,219C 148.595,217.579 146.595,216.412 144.5,215.5C 145.635,213.787 147.302,213.12 149.5,213.5C 150.231,211.401 150.231,209.401 149.5,207.5C 147.677,208.747 145.677,209.414 143.5,209.5C 143.918,208.778 144.584,208.278 145.5,208C 144.949,206.602 144.616,205.268 144.5,204C 145.849,203.228 146.682,202.061 147,200.5C 148.163,202.285 148.83,204.285 149,206.5C 149.494,204.866 149.66,203.199 149.5,201.5 Z"/></g>
<g><path style="opacity:1" fill="#7e7c81" d="M 255.5,187.5 C 255.5,212.5 255.5,237.5 255.5,262.5C 217.5,262.5 179.5,262.5 141.5,262.5C 144.804,260.583 148.471,259.416 152.5,259C 153.833,258 153.833,257 152.5,256C 157.937,254.345 162.103,255.845 165,260.5C 167,259.167 169,257.833 171,256.5C 171.483,257.448 171.649,258.448 171.5,259.5C 172.5,259.5 173.5,259.5 174.5,259.5C 174.244,257.208 174.577,255.041 175.5,253C 182.298,252.176 188.798,250.343 195,247.5C 196.226,247.645 197.393,247.978 198.5,248.5C 200.67,246.914 203.004,245.58 205.5,244.5C 206.442,244.608 207.275,244.941 208,245.5C 210.167,244 212,242.167 213.5,240C 212.906,239.536 212.239,239.369 211.5,239.5C 214.305,238.681 217.305,238.181 220.5,238C 203.198,236.485 185.865,235.485 168.5,235C 167.944,234.617 167.611,234.117 167.5,233.5C 181.518,233.543 195.518,233.709 209.5,234C 200.829,233.056 192.162,232.222 183.5,231.5C 183.082,230.778 182.416,230.278 181.5,230C 186.793,229.023 192.126,228.523 197.5,228.5C 204.458,228.974 211.458,229.974 218.5,231.5C 220.639,230.023 222.972,229.023 225.5,228.5C 225.52,226.857 224.853,225.524 223.5,224.5C 227.848,223.495 230.681,220.829 232,216.5C 233.274,220.985 233.941,225.652 234,230.5C 234.589,232.863 236.089,233.863 238.5,233.5C 237.842,230.844 237.175,228.178 236.5,225.5C 237.655,222.989 238.322,220.322 238.5,217.5C 240.792,217.756 242.959,217.423 245,216.5C 245.948,212.832 246.781,209.165 247.5,205.5C 248.552,205.649 249.552,205.483 250.5,205C 248.527,204.505 246.527,204.338 244.5,204.5C 244.334,200.311 246.001,196.978 249.5,194.5C 250.5,195.167 251.5,195.833 252.5,196.5C 253.634,193.424 254.634,190.424 255.5,187.5 Z"/></g>
<g><path style="opacity:1" fill="#33222a" d="M 126.5,199.5 C 127.461,201.265 127.795,203.265 127.5,205.5C 130.321,205.316 131.988,206.649 132.5,209.5C 134.969,210.168 137.302,210.835 139.5,211.5C 135.818,211.335 132.152,211.501 128.5,212C 127.62,213.356 127.286,214.856 127.5,216.5C 133.196,216.553 138.862,216.22 144.5,215.5C 143.427,217.653 143.427,219.653 144.5,221.5C 144.265,222.097 143.765,222.43 143,222.5C 141.242,220.231 139.408,220.065 137.5,222C 138.449,222.617 139.282,222.451 140,221.5C 140.464,222.094 140.631,222.761 140.5,223.5C 139.521,224.765 138.521,226.099 137.5,227.5C 136.914,227.291 136.414,226.957 136,226.5C 135.061,221.323 137.228,218.823 142.5,219C 140.5,218.333 138.5,218.333 136.5,219C 135.048,221.666 133.382,224.166 131.5,226.5C 132.014,224.634 132.68,222.8 133.5,221C 133.361,219.699 132.695,218.866 131.5,218.5C 125.074,217.221 124.074,214.221 128.5,209.5C 126.816,206.388 126.15,203.054 126.5,199.5 Z"/></g>
<g><path style="opacity:1" fill="#3e2e36" d="M 72.5,176.5 C 72.1497,181.991 72.8164,187.324 74.5,192.5C 74.9007,196.421 76.234,199.921 78.5,203C 78.0556,204.762 77.5556,204.595 77,202.5C 73.5654,205.209 74.0654,207.043 78.5,208C 78.2716,208.399 77.9382,208.565 77.5,208.5C 74.8822,208.221 72.3822,207.554 70,206.5C 69.4952,209.593 69.6618,212.26 70.5,214.5C 71.4461,214.013 72.4461,213.68 73.5,213.5C 78.6905,214.756 83.8572,216.089 89,217.5C 90.8951,217.385 92.5618,216.718 94,215.5C 94.3988,215.728 94.5654,216.062 94.5,216.5C 92.5615,218.163 90.2282,218.829 87.5,218.5C 88.0966,222.619 89.0966,226.619 90.5,230.5C 89.8333,230.5 89.5,230.833 89.5,231.5C 87.7028,232.73 85.7028,233.396 83.5,233.5C 82.7611,233.631 82.0944,233.464 81.5,233C 82.9733,232.29 83.6399,231.124 83.5,229.5C 84.552,229.649 85.552,229.483 86.5,229C 84.9194,228.293 83.4194,227.46 82,226.5C 81.3456,223.992 80.179,221.826 78.5,220C 81.1667,219.333 81.1667,218.667 78.5,218C 79.8333,217.667 81.1667,217.333 82.5,217C 80.1788,216.163 77.8454,215.83 75.5,216C 76.8333,216.667 76.8333,217.333 75.5,218C 76.1667,218.333 76.8333,218.667 77.5,219C 71.5917,219.189 71.2584,220.189 76.5,222C 72.9906,222.422 69.6572,223.422 66.5,225C 70.4937,226.46 70.4937,227.627 66.5,228.5C 62.8333,227.167 59.1667,227.167 55.5,228.5C 60.2141,225.967 64.5474,222.8 68.5,219C 70.3638,217.594 72.1971,217.094 74,217.5C 74.7494,216.365 74.5827,215.365 73.5,214.5C 71.4306,216.733 69.0972,217.4 66.5,216.5C 67.4054,215.036 67.4054,213.702 66.5,212.5C 68.9947,206.93 71.328,201.097 73.5,195C 72.1772,194.184 71.5106,193.017 71.5,191.5C 71.3461,186.535 71.6795,181.535 72.5,176.5 Z"/></g>
<g><path style="opacity:1" fill="#7c8f95" d="M 94.5,216.5 C 94.8333,216.5 95.1667,216.5 95.5,216.5C 95.5858,217.496 95.2524,218.329 94.5,219C 96.5252,220.677 98.8585,221.677 101.5,222C 108.167,222.667 114.833,222.667 121.5,222C 120.289,221.107 120.289,220.274 121.5,219.5C 125.135,221.024 128.469,220.691 131.5,218.5C 132.695,218.866 133.361,219.699 133.5,221C 132.68,222.8 132.014,224.634 131.5,226.5C 130.566,227.568 130.232,228.901 130.5,230.5C 117.167,230.5 103.833,230.5 90.5,230.5C 89.0966,226.619 88.0966,222.619 87.5,218.5C 90.2282,218.829 92.5615,218.163 94.5,216.5 Z"/></g>
<g><path style="opacity:1" fill="#7f7a7d" d="M 144.5,215.5 C 146.595,216.412 148.595,217.579 150.5,219C 148.148,219.24 146.148,220.073 144.5,221.5C 143.427,219.653 143.427,217.653 144.5,215.5 Z"/></g>
<g><path style="opacity:1" fill="#887374" d="M 144.5,221.5 C 147.385,221.806 150.052,221.473 152.5,220.5C 153.167,220.5 153.5,220.833 153.5,221.5C 152.048,222.302 150.382,222.802 148.5,223C 150.473,223.495 152.473,223.662 154.5,223.5C 154.5,223.833 154.5,224.167 154.5,224.5C 153.448,224.351 152.448,224.517 151.5,225C 153.925,226.213 156.259,227.379 158.5,228.5C 154.633,228.242 150.966,228.908 147.5,230.5C 146.761,230.631 146.094,230.464 145.5,230C 146.623,227.868 146.623,225.868 145.5,224C 143.546,223.838 141.879,223.671 140.5,223.5C 140.631,222.761 140.464,222.094 140,221.5C 139.282,222.451 138.449,222.617 137.5,222C 139.408,220.065 141.242,220.231 143,222.5C 143.765,222.43 144.265,222.097 144.5,221.5 Z"/></g>
<g><path style="opacity:1" fill="#1f1118" d="M 153.5,221.5 C 155.105,222.006 155.439,222.673 154.5,223.5C 152.473,223.662 150.473,223.495 148.5,223C 150.382,222.802 152.048,222.302 153.5,221.5 Z"/></g>
<g><path style="opacity:1" fill="#5f464c" d="M 83.5,233.5 C 82.8049,235.437 83.8049,236.437 86.5,236.5C 84.3926,237.468 82.0593,237.802 79.5,237.5C 79.9528,236.542 80.6195,235.708 81.5,235C 81,234.833 80.5,234.667 80,234.5C 77.5661,235.322 75.0661,235.656 72.5,235.5C 72.7709,233.62 72.1042,232.287 70.5,231.5C 69.1283,230.488 67.795,229.488 66.5,228.5C 70.4937,227.627 70.4937,226.46 66.5,225C 69.6572,223.422 72.9906,222.422 76.5,222C 71.2584,220.189 71.5917,219.189 77.5,219C 76.8333,218.667 76.1667,218.333 75.5,218C 76.8333,217.333 76.8333,216.667 75.5,216C 77.8454,215.83 80.1788,216.163 82.5,217C 81.1667,217.333 79.8333,217.667 78.5,218C 81.1667,218.667 81.1667,219.333 78.5,220C 80.179,221.826 81.3456,223.992 82,226.5C 83.4194,227.46 84.9194,228.293 86.5,229C 85.552,229.483 84.552,229.649 83.5,229.5C 83.6399,231.124 82.9733,232.29 81.5,233C 82.0944,233.464 82.7611,233.631 83.5,233.5 Z"/></g>
<g><path style="opacity:1" fill="#f0e4d2" d="M 66.5,228.5 C 67.795,229.488 69.1283,230.488 70.5,231.5C 70.5858,232.496 70.2524,233.329 69.5,234C 65.5,234.667 61.5,234.667 57.5,234C 55.9443,233.28 54.9443,232.113 54.5,230.5C 54.8333,229.833 55.1667,229.167 55.5,228.5C 59.1667,227.167 62.8333,227.167 66.5,228.5 Z"/></g>
<g><path style="opacity:1" fill="#f2e6d4" d="M 158.5,228.5 C 162.192,228.324 164.192,229.991 164.5,233.5C 158.588,235.536 152.588,235.869 146.5,234.5C 146.433,233.041 146.766,231.708 147.5,230.5C 150.966,228.908 154.633,228.242 158.5,228.5 Z"/></g>
<g><path style="opacity:1" fill="#454049" d="M 166.5,231.5 C 168.833,231.5 171.167,231.5 173.5,231.5C 176.833,231.5 180.167,231.5 183.5,231.5C 192.162,232.222 200.829,233.056 209.5,234C 195.518,233.709 181.518,233.543 167.5,233.5C 166.662,233.158 166.328,232.492 166.5,231.5 Z"/></g>
<g><path style="opacity:1" fill="#50383d" d="M 140.5,223.5 C 141.879,223.671 143.546,223.838 145.5,224C 146.623,225.868 146.623,227.868 145.5,230C 146.094,230.464 146.761,230.631 147.5,230.5C 146.766,231.708 146.433,233.041 146.5,234.5C 148.634,236.033 151.134,236.7 154,236.5C 156.255,236.434 158.422,236.101 160.5,235.5C 160.5,235.833 160.5,236.167 160.5,236.5C 160.5,236.833 160.5,237.167 160.5,237.5C 156.154,237.666 151.821,237.499 147.5,237C 145.238,236.299 144.238,235.132 144.5,233.5C 143.5,234.833 142.5,236.167 141.5,237.5C 140.735,236.388 139.735,235.721 138.5,235.5C 136.208,233.733 133.542,232.733 130.5,232.5C 130.5,231.833 130.5,231.167 130.5,230.5C 130.232,228.901 130.566,227.568 131.5,226.5C 133.382,224.166 135.048,221.666 136.5,219C 138.5,218.333 140.5,218.333 142.5,219C 137.228,218.823 135.061,221.323 136,226.5C 136.414,226.957 136.914,227.291 137.5,227.5C 138.521,226.099 139.521,224.765 140.5,223.5 Z"/></g>
<g><path style="opacity:1" fill="#271422" d="M 154.5,224.5 C 157.438,225.628 160.438,226.795 163.5,228C 164.71,229.039 165.71,230.206 166.5,231.5C 166.328,232.492 166.662,233.158 167.5,233.5C 167.611,234.117 167.944,234.617 168.5,235C 185.865,235.485 203.198,236.485 220.5,238C 217.305,238.181 214.305,238.681 211.5,239.5C 147.513,243.269 83.513,243.436 19.5,240C 12.9655,239.718 6.63213,238.718 0.5,237C 17.8027,235.482 35.136,234.649 52.5,234.5C 52.2322,232.901 52.5655,231.568 53.5,230.5C 53.5,231.833 53.5,233.167 53.5,234.5C 56.4869,234.998 59.4869,235.498 62.5,236C 59.854,236.497 57.1873,236.664 54.5,236.5C 54.5,237.5 54.5,238.5 54.5,239.5C 60.7967,240.539 67.1301,240.706 73.5,240C 75.7363,239.735 77.7363,238.902 79.5,237.5C 82.0593,237.802 84.3926,237.468 86.5,236.5C 89.0838,235.952 90.0838,234.285 89.5,231.5C 89.5,230.833 89.8333,230.5 90.5,230.5C 103.833,230.5 117.167,230.5 130.5,230.5C 130.5,231.167 130.5,231.833 130.5,232.5C 130.178,235.532 131.511,237.199 134.5,237.5C 136.114,237.197 137.448,236.53 138.5,235.5C 138.809,238.346 140.475,239.846 143.5,240C 149.491,240.499 155.491,240.666 161.5,240.5C 163.912,240.756 165.579,239.756 166.5,237.5C 164.604,236.534 162.604,236.201 160.5,236.5C 160.5,236.167 160.5,235.833 160.5,235.5C 162.483,235.843 163.817,235.176 164.5,233.5C 164.192,229.991 162.192,228.324 158.5,228.5C 156.259,227.379 153.925,226.213 151.5,225C 152.448,224.517 153.448,224.351 154.5,224.5 Z"/></g>
<g><path style="opacity:1" fill="#a18f8a" d="M 160.5,237.5 C 160.5,237.167 160.5,236.833 160.5,236.5C 162.604,236.201 164.604,236.534 166.5,237.5C 165.579,239.756 163.912,240.756 161.5,240.5C 163.129,238.804 162.796,237.804 160.5,237.5 Z"/></g>
<g><path style="opacity:1" fill="#c5b0a8" d="M 53.5,230.5 C 53.8333,230.5 54.1667,230.5 54.5,230.5C 54.9443,232.113 55.9443,233.28 57.5,234C 61.5,234.667 65.5,234.667 69.5,234C 70.2524,233.329 70.5858,232.496 70.5,231.5C 72.1042,232.287 72.7709,233.62 72.5,235.5C 75.0661,235.656 77.5661,235.322 80,234.5C 80.5,234.667 81,234.833 81.5,235C 80.6195,235.708 79.9528,236.542 79.5,237.5C 77.7363,238.902 75.7363,239.735 73.5,240C 67.1301,240.706 60.7967,240.539 54.5,239.5C 54.5,238.5 54.5,237.5 54.5,236.5C 57.1873,236.664 59.854,236.497 62.5,236C 59.4869,235.498 56.4869,234.998 53.5,234.5C 53.5,233.167 53.5,231.833 53.5,230.5 Z"/></g>
<g><path style="opacity:1" fill="#5b4542" d="M 72.5,235.5 C 72.3893,236.117 72.056,236.617 71.5,237C 68.8333,237.667 66.1667,237.667 63.5,237C 66.544,236.637 69.544,236.137 72.5,235.5 Z"/></g>
<g><path style="opacity:1" fill="#b9a29c" d="M 164.5,233.5 C 163.817,235.176 162.483,235.843 160.5,235.5C 158.422,236.101 156.255,236.434 154,236.5C 151.134,236.7 148.634,236.033 146.5,234.5C 152.588,235.869 158.588,235.536 164.5,233.5 Z"/></g>
<g><path style="opacity:1" fill="#bea8a0" d="M 130.5,232.5 C 133.542,232.733 136.208,233.733 138.5,235.5C 137.448,236.53 136.114,237.197 134.5,237.5C 131.511,237.199 130.178,235.532 130.5,232.5 Z"/></g>
<g><path style="opacity:1" fill="#cab2ad" d="M 89.5,231.5 C 90.0838,234.285 89.0838,235.952 86.5,236.5C 83.8049,236.437 82.8049,235.437 83.5,233.5C 85.7028,233.396 87.7028,232.73 89.5,231.5 Z"/></g>
<g><path style="opacity:1" fill="#d8c4ba" d="M 160.5,237.5 C 162.796,237.804 163.129,238.804 161.5,240.5C 155.491,240.666 149.491,240.499 143.5,240C 140.475,239.846 138.809,238.346 138.5,235.5C 139.735,235.721 140.735,236.388 141.5,237.5C 142.5,236.167 143.5,234.833 144.5,233.5C 144.238,235.132 145.238,236.299 147.5,237C 151.821,237.499 156.154,237.666 160.5,237.5 Z"/></g>
<g><path style="opacity:1" fill="#808085" d="M -0.5,201.5 C 1.5,201.833 3.5,202.167 5.5,202.5C 5.5,203.833 5.5,205.167 5.5,206.5C 7.94185,206.119 8.60851,206.786 7.5,208.5C 9.65073,209.82 11.6507,211.32 13.5,213C 13.1667,213.333 12.8333,213.667 12.5,214C 14.1132,216.277 16.2799,217.777 19,218.5C 19.3173,222.085 21.1506,224.585 24.5,226C 34.5775,229.36 44.9108,230.193 55.5,228.5C 55.1667,229.167 54.8333,229.833 54.5,230.5C 54.1667,230.5 53.8333,230.5 53.5,230.5C 52.5655,231.568 52.2322,232.901 52.5,234.5C 35.136,234.649 17.8027,235.482 0.5,237C 6.63213,238.718 12.9655,239.718 19.5,240C 83.513,243.436 147.513,243.269 211.5,239.5C 212.239,239.369 212.906,239.536 213.5,240C 212,242.167 210.167,244 208,245.5C 207.275,244.941 206.442,244.608 205.5,244.5C 203.004,245.58 200.67,246.914 198.5,248.5C 197.393,247.978 196.226,247.645 195,247.5C 188.798,250.343 182.298,252.176 175.5,253C 174.577,255.041 174.244,257.208 174.5,259.5C 173.5,259.5 172.5,259.5 171.5,259.5C 171.649,258.448 171.483,257.448 171,256.5C 169,257.833 167,259.167 165,260.5C 162.103,255.845 157.937,254.345 152.5,256C 153.833,257 153.833,258 152.5,259C 148.471,259.416 144.804,260.583 141.5,262.5C 94.1667,262.5 46.8333,262.5 -0.5,262.5C -0.5,242.167 -0.5,221.833 -0.5,201.5 Z"/></g>
</svg>
