<?xml version="1.0" encoding="UTF-8"?>
<!DOCTYPE svg PUBLIC "-//W3C//DTD SVG 1.1//EN" "http://www.w3.org/Graphics/SVG/1.1/DTD/svg11.dtd">
<svg xmlns="http://www.w3.org/2000/svg" version="1.1" width="271px" height="279px" style="shape-rendering:geometricPrecision; text-rendering:geometricPrecision; image-rendering:optimizeQuality; fill-rule:evenodd; clip-rule:evenodd" xmlns:xlink="http://www.w3.org/1999/xlink">
<g><path style="opacity:1" fill="#7bb1b2" d="M -0.5,-0.5 C 24.8333,-0.5 50.1667,-0.5 75.5,-0.5C 68.803,7.85774 62.1363,16.1911 55.5,24.5C 56.3815,20.0907 55.0482,16.5907 51.5,14C 39.4861,13.1674 27.4861,13.3341 15.5,14.5C 15.1924,15.3081 14.6924,15.9747 14,16.5C 13.1877,23.7471 13.3544,30.9138 14.5,38C 19.8333,38.3333 25.1667,38.6667 30.5,39C 32.806,41.139 35.4727,42.639 38.5,43.5C 41.1925,41.8233 43.8592,40.1566 46.5,38.5C 47.4682,36.3926 47.8016,34.0593 47.5,31.5C 48.9063,31.0269 49.573,30.0269 49.5,28.5C 50.1667,28.8333 50.8333,29.1667 51.5,29.5C 50.0647,32.7113 48.8981,36.0447 48,39.5C 47.4481,48.5133 47.6147,57.5133 48.5,66.5C 47.8888,68.7746 46.5554,70.4412 44.5,71.5C 30.808,73.5131 24.1413,81.5131 24.5,95.5C 24.5569,96.609 24.8902,97.609 25.5,98.5C 16.8333,98.5 8.16667,98.5 -0.5,98.5C -0.5,65.5 -0.5,32.5 -0.5,-0.5 Z"/></g>
<g><path style="opacity:1" fill="#3f4760" d="M 75.5,-0.5 C 90.5,-0.5 105.5,-0.5 120.5,-0.5C 125.953,5.07331 129.287,11.74 130.5,19.5C 131.553,24.8055 132.053,30.1388 132,35.5C 122.022,28.875 114.355,20.2083 109,9.5C 107.989,8.66337 106.822,8.33003 105.5,8.5C 105.5,7.5 105.5,6.5 105.5,5.5C 109.817,3.0023 109.483,2.16896 104.5,3C 103.167,4.33333 101.833,5.66667 100.5,7C 101.654,7.9138 101.487,8.74714 100,9.5C 96.4609,6.38956 92.6276,5.88956 88.5,8C 84.8252,10.8275 82.1585,14.3275 80.5,18.5C 78.9764,22.2022 76.8097,25.5355 74,28.5C 73.3083,29.4368 73.475,30.1034 74.5,30.5C 73.5946,31.9643 73.5946,33.2976 74.5,34.5C 73.1411,33.9935 72.1411,32.9935 71.5,31.5C 69.1162,33.8847 66.4495,35.8847 63.5,37.5C 62.914,37.2907 62.414,36.9574 62,36.5C 59.6667,38.8333 57.3333,41.1667 55,43.5C 52.6933,50.6657 51.0267,57.999 50,65.5C 49.6174,66.056 49.1174,66.3893 48.5,66.5C 47.6147,57.5133 47.4481,48.5133 48,39.5C 48.8981,36.0447 50.0647,32.7113 51.5,29.5C 52.1667,29.5 52.5,29.1667 52.5,28.5C 53.5,27.1667 54.5,25.8333 55.5,24.5C 62.1363,16.1911 68.803,7.85774 75.5,-0.5 Z"/></g>
<g><path style="opacity:1" fill="#7cb0b1" d="M 120.5,-0.5 C 145.5,-0.5 170.5,-0.5 195.5,-0.5C 195.167,0.166667 194.833,0.833333 194.5,1.5C 192.827,2.34301 191.66,3.67634 191,5.5C 190.175,16.0083 190.341,26.3416 191.5,36.5C 192.334,41.004 195,43.3373 199.5,43.5C 200.343,45.1733 201.676,46.34 203.5,47C 208.833,47.3333 214.167,47.6667 219.5,48C 217.605,50.8065 215.272,53.1398 212.5,55C 225.499,55.0836 238.499,54.7503 251.5,54C 256.331,51.3281 260.331,47.8281 263.5,43.5C 266.108,43.5997 268.442,42.9331 270.5,41.5C 270.5,54.1667 270.5,66.8333 270.5,79.5C 267.806,77.4862 264.806,75.9862 261.5,75C 238.833,74.3333 216.167,74.3333 193.5,75C 187.408,77.5861 183.741,82.0861 182.5,88.5C 181.668,104.995 181.168,121.662 181,138.5C 180.667,135.167 180.333,131.833 180,128.5C 179.667,130.833 179.333,133.167 179,135.5C 177.274,133.409 176.107,131.076 175.5,128.5C 173.435,128.483 171.435,128.15 169.5,127.5C 167.495,124.202 164.995,121.202 162,118.5C 161.954,112.649 160.954,106.983 159,101.5C 155.255,93.6759 151.255,86.0092 147,78.5C 145.844,70.5511 145.178,62.5511 145,54.5C 143.066,50.2406 140.732,46.2406 138,42.5C 135.326,34.7734 132.826,27.1067 130.5,19.5C 129.287,11.74 125.953,5.07331 120.5,-0.5 Z"/></g>
<g><path style="opacity:1" fill="#d08f8a" d="M 195.5,-0.5 C 220.5,-0.5 245.5,-0.5 270.5,-0.5C 270.5,0.166667 270.5,0.833333 270.5,1.5C 262.586,0.532806 254.586,0.199473 246.5,0.5C 229.12,0.1943 211.786,0.527633 194.5,1.5C 194.833,0.833333 195.167,0.166667 195.5,-0.5 Z"/></g>
<g><path style="opacity:1" fill="#ed8d85" d="M 246.5,0.5 C 246.389,1.11742 246.056,1.61742 245.5,2C 239.833,2.33333 234.167,2.66667 228.5,3C 236.5,3.33333 244.5,3.66667 252.5,4C 243.026,3.93885 233.693,4.93885 224.5,7C 237.007,7.16918 249.34,7.66918 261.5,8.5C 262.404,9.20895 262.737,10.209 262.5,11.5C 247.163,11.3334 231.83,11.5001 216.5,12C 217.833,12.3333 219.167,12.6667 220.5,13C 218.5,13.3333 216.5,13.6667 214.5,14C 217.167,15 217.167,16 214.5,17C 230.672,17.1686 246.672,17.6686 262.5,18.5C 241.489,18.167 220.489,18.5003 199.5,19.5C 220.156,20.4997 240.823,20.833 261.5,20.5C 241.329,21.1667 220.996,21.8333 200.5,22.5C 200.167,23.1667 199.833,23.8333 199.5,24.5C 201.391,25.3107 202.724,26.6441 203.5,28.5C 201.761,28.5938 199.761,28.7605 197.5,29C 200.36,30.6279 203.026,32.4612 205.5,34.5C 204.332,36.2174 202.665,36.8841 200.5,36.5C 200.5,35.1667 200.5,33.8333 200.5,32.5C 197.27,32.439 195.437,30.7723 195,27.5C 194.667,29.8333 194.333,32.1667 194,34.5C 193.667,32.8333 193.333,31.1667 193,29.5C 191.648,31.5938 191.148,33.9272 191.5,36.5C 190.341,26.3416 190.175,16.0083 191,5.5C 191.66,3.67634 192.827,2.34301 194.5,1.5C 211.786,0.527633 229.12,0.1943 246.5,0.5 Z"/></g>
<g><path style="opacity:1" fill="#fff0ef" d="M 261.5,8.5 C 251.522,9.83204 241.189,10.4987 230.5,10.5C 220.167,10.1667 209.833,9.83333 199.5,9.5C 220.156,8.50035 240.823,8.16701 261.5,8.5 Z"/></g>
<g><path style="opacity:1" fill="#899ea9" d="M 105.5,5.5 C 104.639,8.04007 102.972,10.0401 100.5,11.5C 97.2904,8.7776 93.6237,7.94426 89.5,9C 86.2678,12.0623 83.2678,15.229 80.5,18.5C 82.1585,14.3275 84.8252,10.8275 88.5,8C 92.6276,5.88956 96.4609,6.38956 100,9.5C 101.487,8.74714 101.654,7.9138 100.5,7C 101.833,5.66667 103.167,4.33333 104.5,3C 109.483,2.16896 109.817,3.0023 105.5,5.5 Z"/></g>
<g><path style="opacity:1" fill="#f2cabb" d="M 55.5,24.5 C 54.5,25.8333 53.5,27.1667 52.5,28.5C 7.66448,27.7718 6.66448,27.7718 49.5,28.5C 49.573,30.0269 48.9063,31.0269 47.5,31.5C 37.1452,31.1681 26.8119,31.5014 16.5,32.5C 26.4778,33.4985 36.4778,33.8319 46.5,33.5C 46.5,35.1667 46.5,36.8333 46.5,38.5C 43.8592,40.1566 41.1925,41.8233 38.5,43.5C 35.4727,42.639 32.806,41.139 30.5,39C 25.1667,38.6667 19.8333,38.3333 14.5,38C 13.3544,30.9138 13.1877,23.7471 14,16.5C 14.6924,15.9747 15.1924,15.3081 15.5,14.5C 27.4861,13.3341 39.4861,13.1674 51.5,14C 55.0482,16.5907 56.3815,20.0907 55.5,24.5 Z"/></g>
<g><path style="opacity:1" fill="#fde8e6" d="M 262.5,18.5 C 262.672,19.4916 262.338,20.1583 261.5,20.5C 240.823,20.833 220.156,20.4997 199.5,19.5C 220.489,18.5003 241.489,18.167 262.5,18.5 Z"/></g>
<g><path style="opacity:1" fill="#ea7871" d="M 246.5,0.5 C 254.586,0.199473 262.586,0.532806 270.5,1.5C 270.5,14.8333 270.5,28.1667 270.5,41.5C 268.442,42.9331 266.108,43.5997 263.5,43.5C 242.167,43.5 220.833,43.5 199.5,43.5C 202.028,42.8343 204.694,42.1676 207.5,41.5C 208.912,40.1936 210.579,39.3603 212.5,39C 212.043,38.586 211.709,38.086 211.5,37.5C 228.328,36.8333 244.995,36.1667 261.5,35.5C 262.833,34.8333 262.833,34.1667 261.5,33.5C 250.679,32.5054 239.679,32.1721 228.5,32.5C 230.171,30.9923 232.004,30.6589 234,31.5C 234.483,30.552 234.649,29.552 234.5,28.5C 222.518,27.9929 222.518,27.1595 234.5,26C 232.833,25.6667 231.167,25.3333 229.5,25C 240.387,22.9606 251.387,21.9606 262.5,22C 263.791,20.7083 263.791,19.5417 262.5,18.5C 246.672,17.6686 230.672,17.1686 214.5,17C 217.167,16 217.167,15 214.5,14C 216.5,13.6667 218.5,13.3333 220.5,13C 219.167,12.6667 217.833,12.3333 216.5,12C 231.83,11.5001 247.163,11.3334 262.5,11.5C 262.737,10.209 262.404,9.20895 261.5,8.5C 249.34,7.66918 237.007,7.16918 224.5,7C 233.693,4.93885 243.026,3.93885 252.5,4C 244.5,3.66667 236.5,3.33333 228.5,3C 234.167,2.66667 239.833,2.33333 245.5,2C 246.056,1.61742 246.389,1.11742 246.5,0.5 Z"/></g>
<g><path style="opacity:1" fill="#9a8485" d="M 16.5,22.5 C 27.8529,22.1678 39.1862,22.5012 50.5,23.5C 44.8333,23.8333 39.1667,24.1667 33.5,24.5C 27.4585,24.4955 21.7918,23.8288 16.5,22.5 Z"/></g>
<g><path style="opacity:1" fill="#7f727c" d="M 52.5,28.5 C 52.5,29.1667 52.1667,29.5 51.5,29.5C 50.8333,29.1667 50.1667,28.8333 49.5,28.5C 6.66448,27.7718 7.66448,27.7718 52.5,28.5 Z"/></g>
<g><path style="opacity:1" fill="#a6918f" d="M 47.5,31.5 C 47.8016,34.0593 47.4682,36.3926 46.5,38.5C 46.5,36.8333 46.5,35.1667 46.5,33.5C 36.4778,33.8319 26.4778,33.4985 16.5,32.5C 26.8119,31.5014 37.1452,31.1681 47.5,31.5 Z"/></g>
<g><path style="opacity:1" fill="#e69a98" d="M 228.5,32.5 C 239.679,32.1721 250.679,32.5054 261.5,33.5C 244.466,32.8479 227.8,33.5146 211.5,35.5C 210.596,34.791 210.263,33.791 210.5,32.5C 216.5,32.5 222.5,32.5 228.5,32.5 Z"/></g>
<g><path style="opacity:1" fill="#768396" d="M 57.5,27.5 C 58.0431,27.56 58.3764,27.8933 58.5,28.5C 55.8294,31.8369 53.6627,35.5036 52,39.5C 52.4498,34.9295 54.2831,30.9295 57.5,27.5 Z"/></g>
<g><path style="opacity:1" fill="#fff0f1" d="M 261.5,33.5 C 262.833,34.1667 262.833,34.8333 261.5,35.5C 244.833,35.5 228.167,35.5 211.5,35.5C 227.8,33.5146 244.466,32.8479 261.5,33.5 Z"/></g>
<g><path style="opacity:1" fill="#e8a698" d="M 114.5,36.5 C 118.329,51.8363 112.662,57.6696 97.5,54C 94.5016,51.1763 93.1683,47.6763 93.5,43.5C 94.0553,41.2712 95.3886,39.6046 97.5,38.5C 96.7573,37.8182 96.0906,37.1515 95.5,36.5C 101.877,35.2498 108.21,35.2498 114.5,36.5 Z"/></g>
<g><path style="opacity:1" fill="#eb807a" d="M 262.5,18.5 C 263.791,19.5417 263.791,20.7083 262.5,22C 251.387,21.9606 240.387,22.9606 229.5,25C 231.167,25.3333 232.833,25.6667 234.5,26C 222.518,27.1595 222.518,27.9929 234.5,28.5C 234.649,29.552 234.483,30.552 234,31.5C 232.004,30.6589 230.171,30.9923 228.5,32.5C 222.5,32.5 216.5,32.5 210.5,32.5C 210.263,33.791 210.596,34.791 211.5,35.5C 228.167,35.5 244.833,35.5 261.5,35.5C 244.995,36.1667 228.328,36.8333 211.5,37.5C 211.709,38.086 212.043,38.586 212.5,39C 210.579,39.3603 208.912,40.1936 207.5,41.5C 204.694,42.1676 202.028,42.8343 199.5,43.5C 195,43.3373 192.334,41.004 191.5,36.5C 191.148,33.9272 191.648,31.5938 193,29.5C 193.333,31.1667 193.667,32.8333 194,34.5C 194.333,32.1667 194.667,29.8333 195,27.5C 195.437,30.7723 197.27,32.439 200.5,32.5C 200.5,33.8333 200.5,35.1667 200.5,36.5C 202.665,36.8841 204.332,36.2174 205.5,34.5C 203.026,32.4612 200.36,30.6279 197.5,29C 199.761,28.7605 201.761,28.5938 203.5,28.5C 202.724,26.6441 201.391,25.3107 199.5,24.5C 199.833,23.8333 200.167,23.1667 200.5,22.5C 220.996,21.8333 241.329,21.1667 261.5,20.5C 262.338,20.1583 262.672,19.4916 262.5,18.5 Z"/></g>
<g><path style="opacity:1" fill="#efbbaa" d="M 95.5,36.5 C 96.0906,37.1515 96.7573,37.8182 97.5,38.5C 95.3886,39.6046 94.0553,41.2712 93.5,43.5C 90.7413,41.7069 87.7413,41.2069 84.5,42C 83.2955,45.7164 82.4622,49.5497 82,53.5C 80.4157,54.8613 78.5824,55.528 76.5,55.5C 76.5,53.1667 76.5,50.8333 76.5,48.5C 78.099,48.7678 79.4324,48.4345 80.5,47.5C 82.2726,46.6857 82.7726,45.3524 82,43.5C 80.2111,41.771 78.0444,41.1043 75.5,41.5C 73.8793,41.2131 72.8793,40.2131 72.5,38.5C 70.9547,37.5481 69.288,37.2148 67.5,37.5C 71.724,36.8854 76.0573,36.5521 80.5,36.5C 78.9775,34.7175 76.9775,34.0508 74.5,34.5C 73.5946,33.2976 73.5946,31.9643 74.5,30.5C 78.6023,25.8954 82.9357,21.3954 87.5,17C 92.4238,13.7143 97.2571,13.881 102,17.5C 105.955,22.5775 109.789,27.7442 113.5,33C 107.5,33.3333 101.5,33.6667 95.5,34C 94.2264,34.9772 94.2264,35.8106 95.5,36.5 Z"/></g>
<g><path style="opacity:1" fill="#efc7bc" d="M 67.5,37.5 C 69.288,37.2148 70.9547,37.5481 72.5,38.5C 72.8793,40.2131 73.8793,41.2131 75.5,41.5C 74.3998,42.5585 73.0664,43.3918 71.5,44C 72.1258,44.7504 72.6258,45.5838 73,46.5C 74.8333,43.6667 76.3333,43.8333 77.5,47C 78.448,47.4828 79.448,47.6495 80.5,47.5C 79.4324,48.4345 78.099,48.7678 76.5,48.5C 76.5,50.8333 76.5,53.1667 76.5,55.5C 75.5,55.5 74.5,55.5 73.5,55.5C 70.9009,55.4506 68.7342,54.4506 67,52.5C 64.9327,48.3606 64.266,44.0273 65,39.5C 65.7083,38.6195 66.5416,37.9528 67.5,37.5 Z"/></g>
<g><path style="opacity:1" fill="#453f54" d="M 75.5,41.5 C 78.0444,41.1043 80.2111,41.771 82,43.5C 82.7726,45.3524 82.2726,46.6857 80.5,47.5C 79.448,47.6495 78.448,47.4828 77.5,47C 76.3333,43.8333 74.8333,43.6667 73,46.5C 72.6258,45.5838 72.1258,44.7504 71.5,44C 73.0664,43.3918 74.3998,42.5585 75.5,41.5 Z"/></g>
<g><path style="opacity:1" fill="#463a45" d="M 114.5,36.5 C 116.698,36.8751 118.698,37.5418 120.5,38.5C 119.167,38.5 117.833,38.5 116.5,38.5C 118.395,54.1041 111.729,59.9374 96.5,56C 94.0637,53.2934 92.5637,50.1267 92,46.5C 90.5557,44.8446 88.7224,44.178 86.5,44.5C 85.0856,48.3195 83.419,52.1528 81.5,56C 78.0477,56.8847 74.7144,57.718 71.5,58.5C 70.9569,58.44 70.6236,58.1067 70.5,57.5C 71.6016,56.8243 72.6016,56.1577 73.5,55.5C 74.5,55.5 75.5,55.5 76.5,55.5C 78.5824,55.528 80.4157,54.8613 82,53.5C 82.4622,49.5497 83.2955,45.7164 84.5,42C 87.7413,41.2069 90.7413,41.7069 93.5,43.5C 93.1683,47.6763 94.5016,51.1763 97.5,54C 112.662,57.6696 118.329,51.8363 114.5,36.5 Z"/></g>
<g><path style="opacity:1" fill="#f7f3f3" d="M 199.5,43.5 C 220.833,43.5 242.167,43.5 263.5,43.5C 260.331,47.8281 256.331,51.3281 251.5,54C 238.499,54.7503 225.499,55.0836 212.5,55C 215.272,53.1398 217.605,50.8065 219.5,48C 214.167,47.6667 208.833,47.3333 203.5,47C 201.676,46.34 200.343,45.1733 199.5,43.5 Z"/></g>
<g><path style="opacity:1" fill="#373549" d="M 98.5,40.5 C 101.734,40.2046 104.734,40.8713 107.5,42.5C 106.691,44.0709 106.357,45.7376 106.5,47.5C 102.625,48.1258 100.791,46.4592 101,42.5C 98.841,44.9563 98.0077,44.2896 98.5,40.5 Z"/></g>
<g><path style="opacity:1" fill="#b1a29e" d="M 186.5,39.5 C 179.159,39.3337 171.826,39.5003 164.5,40C 163.667,40.8333 162.833,41.6667 162,42.5C 161.5,48.8246 161.334,55.1579 161.5,61.5C 160.346,55.013 160.179,48.3464 161,41.5C 161.833,40.6667 162.667,39.8333 163.5,39C 171.345,38.1777 179.011,38.3443 186.5,39.5 Z"/></g>
<g><path style="opacity:1" fill="#e09991" d="M 186.5,39.5 C 187.117,39.6107 187.617,39.944 188,40.5C 188.831,47.856 188.665,55.1893 187.5,62.5C 185.253,63.3742 182.92,63.7076 180.5,63.5C 180.5,64.8333 180.5,66.1667 180.5,67.5C 174.928,66.2021 169.262,65.2021 163.5,64.5C 162.388,63.7348 161.721,62.7348 161.5,61.5C 161.334,55.1579 161.5,48.8246 162,42.5C 162.833,41.6667 163.667,40.8333 164.5,40C 171.826,39.5003 179.159,39.3337 186.5,39.5 Z"/></g>
<g><path style="opacity:1" fill="#eac0b1" d="M 162.5,43.5 C 170.196,43.1692 177.862,43.5025 185.5,44.5C 181.667,44.8333 177.833,45.1667 174,45.5C 169.771,45.4898 165.938,44.8232 162.5,43.5 Z"/></g>
<g><path style="opacity:1" fill="#ebb7ae" d="M 163.5,50.5 C 170.508,50.3337 177.508,50.5004 184.5,51C 184.957,51.414 185.291,51.914 185.5,52.5C 177.833,53.8333 170.167,53.8333 162.5,52.5C 162.863,51.8165 163.196,51.1499 163.5,50.5 Z"/></g>
<g><path style="opacity:1" fill="#262d45" d="M 136.5,109.5 C 133.404,108.453 130.404,107.12 127.5,105.5C 126.057,108.077 124.39,110.41 122.5,112.5C 123.349,109.965 124.349,107.465 125.5,105C 123.378,100.752 121.878,96.2518 121,91.5C 120.093,83.1766 119.26,74.8433 118.5,66.5C 117.818,67.2427 117.151,67.9094 116.5,68.5C 118.127,63.9876 119.127,59.321 119.5,54.5C 123.621,55.3419 126.621,54.0085 128.5,50.5C 129.88,50.0377 130.547,49.0377 130.5,47.5C 129.957,46.1362 129.79,44.8029 130,43.5C 132.834,47.1626 135.167,51.1626 137,55.5C 136.992,65.5383 136.992,75.5383 137,85.5C 135.964,82.2473 135.297,78.914 135,75.5C 134.251,77.6801 133.751,80.0135 133.5,82.5C 132.833,73.5 132.167,64.5 131.5,55.5C 130.004,63.31 128.671,71.1433 127.5,79C 128.742,89.5607 132.076,99.394 137.5,108.5C 137.376,109.107 137.043,109.44 136.5,109.5 Z"/></g>
<g><path style="opacity:1" fill="#f4c6b6" d="M 86.5,44.5 C 87.6596,52.1529 87.6596,59.6529 86.5,67C 85.5842,67.2784 84.9175,67.7784 84.5,68.5C 82.1616,69.6247 82.4949,70.6247 85.5,71.5C 85.9731,72.9063 86.9731,73.573 88.5,73.5C 93.6446,74.6725 98.3113,77.0058 102.5,80.5C 95.2037,85.0682 88.3703,84.4015 82,78.5C 79.2388,74.6401 76.7388,70.6401 74.5,66.5C 73.5014,63.8382 72.5014,61.1716 71.5,58.5C 74.7144,57.718 78.0477,56.8847 81.5,56C 83.419,52.1528 85.0856,48.3195 86.5,44.5 Z"/></g>
<g><path style="opacity:1" fill="#2f3750" d="M 74.5,34.5 C 76.9775,34.0508 78.9775,34.7175 80.5,36.5C 76.0573,36.5521 71.724,36.8854 67.5,37.5C 66.5416,37.9528 65.7083,38.6195 65,39.5C 64.266,44.0273 64.9327,48.3606 67,52.5C 68.7342,54.4506 70.9009,55.4506 73.5,55.5C 72.6016,56.1577 71.6016,56.8243 70.5,57.5C 70.6236,58.1067 70.9569,58.44 71.5,58.5C 72.5014,61.1716 73.5014,63.8382 74.5,66.5C 73.5041,66.5858 72.6708,66.2524 72,65.5C 70.7608,71.0555 70.0941,76.7222 70,82.5C 65.9844,86.3484 62.1511,90.3484 58.5,94.5C 58.6667,94.8333 58.8333,95.1667 59,95.5C 61.6667,92.8333 64.3333,90.1667 67,87.5C 66.9678,89.5979 66.3011,91.5979 65,93.5C 59.8472,98.8003 55.3472,104.467 51.5,110.5C 50.325,110.719 49.325,110.386 48.5,109.5C 49.5,107.5 50.5,105.5 51.5,103.5C 50.8333,103.167 50.1667,102.833 49.5,102.5C 50.1962,99.6432 51.5295,97.1432 53.5,95C 52.3166,92.8449 52.6499,90.8449 54.5,89C 53.8919,86.8159 54.5586,84.8159 56.5,83C 56.2716,82.6012 55.9382,82.4346 55.5,82.5C 55.5,82.1667 55.5,81.8333 55.5,81.5C 56.791,81.7373 57.791,81.404 58.5,80.5C 60.248,76.2673 60.5814,71.9339 59.5,67.5C 58.8933,67.6236 58.56,67.9569 58.5,68.5C 55.7746,72.2676 53.2746,76.2676 51,80.5C 47.31,83.6908 43.4767,86.6908 39.5,89.5C 38.4173,88.635 38.2506,87.635 39,86.5C 41.0153,85.3034 42.8487,83.9701 44.5,82.5C 45.0431,82.44 45.3764,82.1067 45.5,81.5C 42.2317,80.513 38.8984,80.1796 35.5,80.5C 40.0827,79.1085 44.7493,77.6085 49.5,76C 53.8538,71.7817 56.1872,66.615 56.5,60.5C 57.2835,54.7649 58.1169,49.0982 59,43.5C 56.5536,49.9522 55.0536,56.6189 54.5,63.5C 52.9244,67.8956 49.9244,71.2289 45.5,73.5C 44.7025,73.0431 44.3691,72.3764 44.5,71.5C 46.5554,70.4412 47.8888,68.7746 48.5,66.5C 49.1174,66.3893 49.6174,66.056 50,65.5C 51.0267,57.999 52.6933,50.6657 55,43.5C 57.3333,41.1667 59.6667,38.8333 62,36.5C 62.414,36.9574 62.914,37.2907 63.5,37.5C 66.4495,35.8847 69.1162,33.8847 71.5,31.5C 72.1411,32.9935 73.1411,33.9935 74.5,34.5 Z"/></g>
<g><path style="opacity:1" fill="#72828f" d="M 60.5,46.5 C 61.6507,51.6503 61.8174,56.9836 61,62.5C 59.1728,57.2321 59.0061,51.8988 60.5,46.5 Z"/></g>
<g><path style="opacity:1" fill="#6e7c8c" d="M 56.5,60.5 C 55.8333,61.5 55.1667,62.5 54.5,63.5C 55.0536,56.6189 56.5536,49.9522 59,43.5C 58.1169,49.0982 57.2835,54.7649 56.5,60.5 Z"/></g>
<g><path style="opacity:1" fill="#eeaf9e" d="M 120.5,38.5 C 120.5,39.5 120.5,40.5 120.5,41.5C 120.337,43.8568 120.503,46.1902 121,48.5C 121.352,46.7525 121.852,45.0858 122.5,43.5C 122.639,38.6101 124.139,38.2767 127,42.5C 128.252,45.0135 128.752,47.6802 128.5,50.5C 126.621,54.0085 123.621,55.3419 119.5,54.5C 119.127,59.321 118.127,63.9876 116.5,68.5C 115.662,68.8417 115.328,69.5084 115.5,70.5C 113.738,71.2623 112.738,72.5956 112.5,74.5C 109.47,77.0145 106.137,79.0145 102.5,80.5C 98.3113,77.0058 93.6446,74.6725 88.5,73.5C 92.1547,74.075 95.1547,73.075 97.5,70.5C 97.5,70.1667 97.5,69.8333 97.5,69.5C 99.3117,69.2287 100.978,68.562 102.5,67.5C 101.21,66.5923 99.8767,66.759 98.5,68C 93.8452,68.4992 89.1785,68.6658 84.5,68.5C 84.9175,67.7784 85.5842,67.2784 86.5,67C 87.6596,59.6529 87.6596,52.1529 86.5,44.5C 88.7224,44.178 90.5557,44.8446 92,46.5C 92.5637,50.1267 94.0637,53.2934 96.5,56C 111.729,59.9374 118.395,54.1041 116.5,38.5C 117.833,38.5 119.167,38.5 120.5,38.5 Z"/></g>
<g><path style="opacity:1" fill="#785a59" d="M 120.5,41.5 C 121.167,42.1667 121.833,42.8333 122.5,43.5C 121.852,45.0858 121.352,46.7525 121,48.5C 120.503,46.1902 120.337,43.8568 120.5,41.5 Z"/></g>
<g><path style="opacity:1" fill="#cb656a" d="M 97.5,69.5 C 93.3164,69.8509 89.3164,70.5176 85.5,71.5C 82.4949,70.6247 82.1616,69.6247 84.5,68.5C 89.1785,68.6658 93.8452,68.4992 98.5,68C 99.8767,66.759 101.21,66.5923 102.5,67.5C 100.978,68.562 99.3117,69.2287 97.5,69.5 Z"/></g>
<g><path style="opacity:1" fill="#758492" d="M 58.5,80.5 C 57.5952,76.6675 57.5952,72.6675 58.5,68.5C 58.56,67.9569 58.8933,67.6236 59.5,67.5C 60.5814,71.9339 60.248,76.2673 58.5,80.5 Z"/></g>
<g><path style="opacity:1" fill="#621b23" d="M 97.5,69.5 C 97.5,69.8333 97.5,70.1667 97.5,70.5C 93.5483,71.2721 89.5483,71.6054 85.5,71.5C 89.3164,70.5176 93.3164,69.8509 97.5,69.5 Z"/></g>
<g><path style="opacity:1" fill="#db7576" d="M 97.5,70.5 C 95.1547,73.075 92.1547,74.075 88.5,73.5C 86.9731,73.573 85.9731,72.9063 85.5,71.5C 89.5483,71.6054 93.5483,71.2721 97.5,70.5 Z"/></g>
<g><path style="opacity:1" fill="#4d3744" d="M 115.5,70.5 C 115.262,72.4044 114.262,73.7377 112.5,74.5C 112.738,72.5956 113.738,71.2623 115.5,70.5 Z"/></g>
<g><path style="opacity:1" fill="#30374f" d="M 105.5,5.5 C 105.5,6.5 105.5,7.5 105.5,8.5C 106.822,8.33003 107.989,8.66337 109,9.5C 114.355,20.2083 122.022,28.875 132,35.5C 132.053,30.1388 131.553,24.8055 130.5,19.5C 132.826,27.1067 135.326,34.7734 138,42.5C 140.732,46.2406 143.066,50.2406 145,54.5C 145.178,62.5511 145.844,70.5511 147,78.5C 151.255,86.0092 155.255,93.6759 159,101.5C 160.954,106.983 161.954,112.649 162,118.5C 164.995,121.202 167.495,124.202 169.5,127.5C 174.792,141.875 179.792,156.375 184.5,171C 184.006,172.462 183.673,173.962 183.5,175.5C 187.866,194.136 191.2,212.969 193.5,232C 193.664,234.544 192.997,236.71 191.5,238.5C 189.715,217.881 186.382,197.547 181.5,177.5C 181.585,176.005 180.919,175.005 179.5,174.5C 174.719,176.184 170.052,177.851 165.5,179.5C 161.812,180.172 158.145,181.005 154.5,182C 153.484,182.519 152.818,183.353 152.5,184.5C 155.791,197.711 160.458,210.378 166.5,222.5C 151.012,227.44 135.345,231.773 119.5,235.5C 120.037,240.851 120.704,246.184 121.5,251.5C 143.514,251.207 165.181,248.373 186.5,243C 187.571,242.148 188.571,241.315 189.5,240.5C 190.167,240.5 190.5,240.833 190.5,241.5C 189.71,242.794 188.71,243.961 187.5,245C 189.481,245.605 189.815,246.605 188.5,248C 167.318,251.656 145.985,253.989 124.5,255C 123.62,256.356 123.286,257.856 123.5,259.5C 132.171,259.738 140.838,260.072 149.5,260.5C 143.484,261.722 137.484,263.389 131.5,265.5C 129.5,265.5 127.5,265.5 125.5,265.5C 125.665,268.85 125.498,272.183 125,275.5C 124.31,276.738 123.81,276.738 123.5,275.5C 123.5,272.833 123.5,270.167 123.5,267.5C 121.62,255.265 118.787,243.265 115,231.5C 112.655,220.918 110.822,210.251 109.5,199.5C 109.81,198.262 110.31,198.262 111,199.5C 111.855,203.952 113.021,208.285 114.5,212.5C 115.481,218.613 116.981,224.613 119,230.5C 119.295,222.141 119.795,213.808 120.5,205.5C 120.5,203.833 120.5,202.167 120.5,200.5C 120.364,195.054 121.031,189.72 122.5,184.5C 122.833,182.5 123.167,180.5 123.5,178.5C 124.124,178.917 124.457,179.584 124.5,180.5C 123.18,185.755 122.513,191.089 122.5,196.5C 121.275,208.649 120.609,220.983 120.5,233.5C 123.93,233.481 126.597,232.147 128.5,229.5C 133.274,213.618 139.44,198.284 147,183.5C 147.826,180.788 147.326,178.455 145.5,176.5C 143.957,171.743 142.124,167.076 140,162.5C 139.333,160.167 139.333,157.833 140,155.5C 140.279,158.457 141.113,161.123 142.5,163.5C 143.659,167.151 145.326,170.485 147.5,173.5C 147.557,174.609 147.89,175.609 148.5,176.5C 148.085,178.948 149.085,180.281 151.5,180.5C 161.97,178.009 172.137,174.676 182,170.5C 182.599,168.465 182.099,166.799 180.5,165.5C 180.737,164.209 180.404,163.209 179.5,162.5C 176.875,153.621 173.875,144.954 170.5,136.5C 169.535,131.902 167.535,127.902 164.5,124.5C 162.855,120.855 160.188,118.188 156.5,116.5C 152.195,114.254 147.529,112.92 142.5,112.5C 140.629,111.203 138.629,110.203 136.5,109.5C 137.043,109.44 137.376,109.107 137.5,108.5C 132.076,99.394 128.742,89.5607 127.5,79C 128.671,71.1433 130.004,63.31 131.5,55.5C 132.167,64.5 132.833,73.5 133.5,82.5C 133.751,80.0135 134.251,77.6801 135,75.5C 135.297,78.914 135.964,82.2473 137,85.5C 136.992,75.5383 136.992,65.5383 137,55.5C 135.167,51.1626 132.834,47.1626 130,43.5C 129.79,44.8029 129.957,46.1362 130.5,47.5C 130.547,49.0377 129.88,50.0377 128.5,50.5C 128.752,47.6802 128.252,45.0135 127,42.5C 124.139,38.2767 122.639,38.6101 122.5,43.5C 121.833,42.8333 121.167,42.1667 120.5,41.5C 120.5,40.5 120.5,39.5 120.5,38.5C 118.698,37.5418 116.698,36.8751 114.5,36.5C 108.21,35.2498 101.877,35.2498 95.5,36.5C 94.2264,35.8106 94.2264,34.9772 95.5,34C 101.5,33.6667 107.5,33.3333 113.5,33C 109.789,27.7442 105.955,22.5775 102,17.5C 97.2571,13.881 92.4238,13.7143 87.5,17C 82.9357,21.3954 78.6023,25.8954 74.5,30.5C 73.475,30.1034 73.3083,29.4368 74,28.5C 76.8097,25.5355 78.9764,22.2022 80.5,18.5C 83.2678,15.229 86.2678,12.0623 89.5,9C 93.6237,7.94426 97.2904,8.7776 100.5,11.5C 102.972,10.0401 104.639,8.04007 105.5,5.5 Z"/></g>
<g><path style="opacity:1" fill="#e79c8d" d="M 122.5,112.5 C 118.767,116.24 114.767,119.573 110.5,122.5C 109.391,122.557 108.391,122.89 107.5,123.5C 109.16,111.205 110.493,98.8716 111.5,86.5C 107.847,86.8879 104.18,87.2212 100.5,87.5C 97.4733,87.7135 94.8066,87.0468 92.5,85.5C 101.604,85.9269 108.27,82.2602 112.5,74.5C 114.262,73.7377 115.262,72.4044 115.5,70.5C 115.328,69.5084 115.662,68.8417 116.5,68.5C 117.151,67.9094 117.818,67.2427 118.5,66.5C 119.26,74.8433 120.093,83.1766 121,91.5C 121.878,96.2518 123.378,100.752 125.5,105C 124.349,107.465 123.349,109.965 122.5,112.5 Z"/></g>
<g><path style="opacity:1" fill="#242b44" d="M 74.5,66.5 C 76.7388,70.6401 79.2388,74.6401 82,78.5C 88.3703,84.4015 95.2037,85.0682 102.5,80.5C 106.137,79.0145 109.47,77.0145 112.5,74.5C 108.27,82.2602 101.604,85.9269 92.5,85.5C 90.6708,91.0975 89.5041,97.0975 89,103.5C 88.5348,104.931 87.7014,106.097 86.5,107C 84.1019,108.524 81.7686,110.024 79.5,111.5C 78.852,110.021 78.5186,108.521 78.5,107C 82.0932,106.316 82.4265,104.816 79.5,102.5C 81.4566,99.432 81.9566,96.0987 81,92.5C 79.4284,88.3587 77.0951,84.692 74,81.5C 73.6666,83.0468 74.1666,84.3801 75.5,85.5C 75.1543,86.6956 74.6543,86.6956 74,85.5C 74.0145,94.9496 71.5145,103.616 66.5,111.5C 61.7858,111.353 57.1191,111.686 52.5,112.5C 51.6618,112.158 51.3284,111.492 51.5,110.5C 55.3472,104.467 59.8472,98.8003 65,93.5C 66.3011,91.5979 66.9678,89.5979 67,87.5C 64.3333,90.1667 61.6667,92.8333 59,95.5C 58.8333,95.1667 58.6667,94.8333 58.5,94.5C 62.1511,90.3484 65.9844,86.3484 70,82.5C 70.0941,76.7222 70.7608,71.0555 72,65.5C 72.6708,66.2524 73.5041,66.5858 74.5,66.5 Z"/></g>
<g><path style="opacity:1" fill="#444f65" d="M 56.5,60.5 C 56.1872,66.615 53.8538,71.7817 49.5,76C 44.7493,77.6085 40.0827,79.1085 35.5,80.5C 33.86,81.7901 33.36,83.4567 34,85.5C 36.8966,82.7691 40.3966,81.7691 44.5,82.5C 42.8487,83.9701 41.0153,85.3034 39,86.5C 38.2506,87.635 38.4173,88.635 39.5,89.5C 43.4767,86.6908 47.31,83.6908 51,80.5C 53.2746,76.2676 55.7746,72.2676 58.5,68.5C 57.5952,72.6675 57.5952,76.6675 58.5,80.5C 57.791,81.404 56.791,81.7373 55.5,81.5C 55.5654,81.0618 55.3988,80.7284 55,80.5C 48.8711,86.12 43.3711,92.12 38.5,98.5C 38.631,97.7611 38.4643,97.0944 38,96.5C 35.6408,99.0376 34.1408,98.3709 33.5,94.5C 32.5481,96.0453 32.2148,97.712 32.5,99.5C 31.0108,97.8839 30.0108,95.8839 29.5,93.5C 28.3192,95.1353 28.3192,96.802 29.5,98.5C 29.1543,99.6956 28.6543,99.6956 28,98.5C 27.1779,96.2115 26.5112,93.8782 26,91.5C 25.79,93.0581 25.29,94.3915 24.5,95.5C 24.1413,81.5131 30.808,73.5131 44.5,71.5C 44.3691,72.3764 44.7025,73.0431 45.5,73.5C 49.9244,71.2289 52.9244,67.8956 54.5,63.5C 55.1667,62.5 55.8333,61.5 56.5,60.5 Z"/></g>
<g><path style="opacity:1" fill="#7d909a" d="M 35.5,80.5 C 38.8984,80.1796 42.2317,80.513 45.5,81.5C 45.3764,82.1067 45.0431,82.44 44.5,82.5C 40.3966,81.7691 36.8966,82.7691 34,85.5C 33.36,83.4567 33.86,81.7901 35.5,80.5 Z"/></g>
<g><path style="opacity:1" fill="#9fb5b3" d="M 37.5,74.5 C 47.78,75.1374 47.4467,76.1374 36.5,77.5C 35.5,77.3333 34.5,77.1667 33.5,77C 34.8584,76.0656 36.1917,75.2323 37.5,74.5 Z"/></g>
<g><path style="opacity:1" fill="#394056" d="M 55.5,82.5 C 55.9382,82.4346 56.2716,82.6012 56.5,83C 54.5586,84.8159 53.8919,86.8159 54.5,89C 52.6499,90.8449 52.3166,92.8449 53.5,95C 51.5295,97.1432 50.1962,99.6432 49.5,102.5C 50.1667,102.833 50.8333,103.167 51.5,103.5C 50.5,105.5 49.5,107.5 48.5,109.5C 49.325,110.386 50.325,110.719 51.5,110.5C 51.3284,111.492 51.6618,112.158 52.5,112.5C 45.9085,116.089 40.5751,121.089 36.5,127.5C 31.4819,135.873 27.8152,144.873 25.5,154.5C 23.9605,156.838 23.2938,159.505 23.5,162.5C 28.7659,164.032 34.0993,165.365 39.5,166.5C 40.5,166.167 41.5,165.833 42.5,165.5C 43.6343,162.93 44.4677,160.264 45,157.5C 46.1406,161.006 47.3072,160.673 48.5,156.5C 49.0059,154.895 49.6726,154.561 50.5,155.5C 48.7205,158.627 47.3872,161.96 46.5,165.5C 43.758,171.481 41.758,177.815 40.5,184.5C 42.7427,185.474 45.076,185.808 47.5,185.5C 62.4932,187.058 77.6599,188.391 93,189.5C 94.5,189.833 96,190.167 97.5,190.5C 96.675,191.386 95.675,191.719 94.5,191.5C 69.0041,189.689 43.6708,187.689 18.5,185.5C 18.5,185.167 18.5,184.833 18.5,184.5C 25.095,184.13 31.7616,184.13 38.5,184.5C 39.5005,179.165 40.5005,173.832 41.5,168.5C 36.0313,168.222 30.8647,166.889 26,164.5C 24.7114,166.645 23.8781,168.978 23.5,171.5C 22.5655,170.432 22.2322,169.099 22.5,167.5C 23.4345,166.432 23.7678,165.099 23.5,163.5C 22.5,163.5 21.5,163.5 20.5,163.5C 21.704,157.681 23.3707,152.015 25.5,146.5C 27.9059,140.026 30.5726,133.692 33.5,127.5C 34.9063,127.027 35.573,126.027 35.5,124.5C 37.9754,123.313 38.9754,121.313 38.5,118.5C 37.5,118.5 36.5,118.5 35.5,118.5C 35.1667,118.5 34.8333,118.5 34.5,118.5C 35.9676,115.722 36.801,112.722 37,109.5C 37.3333,111.833 37.6667,114.167 38,116.5C 38.6377,115.391 39.1377,114.225 39.5,113C 37.8191,107.442 35.4858,102.942 32.5,99.5C 32.2148,97.712 32.5481,96.0453 33.5,94.5C 34.1408,98.3709 35.6408,99.0376 38,96.5C 38.4643,97.0944 38.631,97.7611 38.5,98.5C 37.3871,99.9464 37.2204,101.613 38,103.5C 38.5611,101.275 39.5611,99.2746 41,97.5C 46.064,92.6047 50.8974,87.6047 55.5,82.5 Z"/></g>
<g><path style="opacity:1" fill="#7f8c9a" d="M 55.5,81.5 C 55.5,81.8333 55.5,82.1667 55.5,82.5C 50.8974,87.6047 46.064,92.6047 41,97.5C 39.5611,99.2746 38.5611,101.275 38,103.5C 37.2204,101.613 37.3871,99.9464 38.5,98.5C 43.3711,92.12 48.8711,86.12 55,80.5C 55.3988,80.7284 55.5654,81.0618 55.5,81.5 Z"/></g>
<g><path style="opacity:1" fill="#313951" d="M 79.5,111.5 C 79.6243,115.412 80.6243,119.079 82.5,122.5C 79.2935,119.232 77.6268,115.232 77.5,110.5C 76.5,110.5 75.5,110.5 74.5,110.5C 74.5,112.167 74.5,113.833 74.5,115.5C 73.7515,114.469 73.0848,113.302 72.5,112C 70.5273,111.505 68.5273,111.338 66.5,111.5C 71.5145,103.616 74.0145,94.9496 74,85.5C 74.6543,86.6956 75.1543,86.6956 75.5,85.5C 74.1666,84.3801 73.6666,83.0468 74,81.5C 77.0951,84.692 79.4284,88.3587 81,92.5C 81.9566,96.0987 81.4566,99.432 79.5,102.5C 82.4265,104.816 82.0932,106.316 78.5,107C 78.5186,108.521 78.852,110.021 79.5,111.5 Z"/></g>
<g><path style="opacity:1" fill="#f5caba" d="M -0.5,98.5 C 8.16667,98.5 16.8333,98.5 25.5,98.5C 26.6935,99.2719 27.6935,100.272 28.5,101.5C 28.6416,105.15 27.9749,108.65 26.5,112C 27.3441,114.007 28.6774,115.507 30.5,116.5C 30.5,116.833 30.5,117.167 30.5,117.5C 20.1667,117.5 9.83333,117.5 -0.5,117.5C -0.5,111.167 -0.5,104.833 -0.5,98.5 Z"/></g>
<g><path style="opacity:1" fill="#f9f7f7" d="M 270.5,79.5 C 270.5,103.5 270.5,127.5 270.5,151.5C 268.286,152.874 265.953,154.041 263.5,155C 253.833,155.333 244.167,155.667 234.5,156C 229.536,161.132 223.869,165.299 217.5,168.5C 217.167,168.167 216.833,167.833 216.5,167.5C 218.645,163.4 219.978,159.067 220.5,154.5C 211.161,154.666 201.827,154.5 192.5,154C 187.162,151.993 183.996,148.159 183,142.5C 182.5,124.503 182.333,106.503 182.5,88.5C 183.741,82.0861 187.408,77.5861 193.5,75C 216.167,74.3333 238.833,74.3333 261.5,75C 264.806,75.9862 267.806,77.4862 270.5,79.5 Z"/></g>
<g><path style="opacity:1" fill="#ea857f" d="M 193.5,100.5 C 216.5,101.833 239.5,101.833 262.5,100.5C 263.404,101.209 263.737,102.209 263.5,103.5C 251.883,103.644 240.216,103.81 228.5,104C 228.833,104.333 229.167,104.667 229.5,105C 225.068,105.623 224.735,106.623 228.5,108C 225.899,108.92 223.232,109.587 220.5,110C 222.491,110.374 224.158,111.207 225.5,112.5C 214.779,111.858 204.446,112.525 194.5,114.5C 213.659,115.497 232.993,115.83 252.5,115.5C 236.897,115.911 223.23,117.077 211.5,119C 228.497,119.5 245.497,119.667 262.5,119.5C 262.737,120.791 262.404,121.791 261.5,122.5C 239.337,123.332 217.004,123.832 194.5,124C 202.229,124.143 209.895,124.81 217.5,126C 208.5,126.333 199.5,126.667 190.5,127C 190.408,131.804 190.408,136.638 190.5,141.5C 188.166,139.824 187.166,137.491 187.5,134.5C 187.334,126.16 187.5,117.827 188,109.5C 189.205,108.929 190.372,108.262 191.5,107.5C 191.062,106.494 190.396,106.494 189.5,107.5C 188.614,106.675 188.281,105.675 188.5,104.5C 189.552,104.649 190.552,104.483 191.5,104C 189.44,102.507 189.107,100.674 190.5,98.5C 191.251,99.376 191.751,100.376 192,101.5C 192.383,100.944 192.883,100.611 193.5,100.5 Z"/></g>
<g><path style="opacity:1" fill="#fae5e2" d="M 194.5,99.5 C 217.339,99.1692 240.006,99.5025 262.5,100.5C 239.5,101.833 216.5,101.833 193.5,100.5C 194.167,100.5 194.5,100.167 194.5,99.5 Z"/></g>
<g><path style="opacity:1" fill="#e88a81" d="M 194.5,80.5 C 194.15,82.6258 194.15,84.9592 194.5,87.5C 195.978,87.238 197.311,87.5713 198.5,88.5C 197.975,89.1924 197.308,89.6924 196.5,90C 214.83,90.4999 233.164,90.6666 251.5,90.5C 255.371,90.185 259.038,90.5184 262.5,91.5C 263.404,92.209 263.737,93.209 263.5,94.5C 240.831,94.3334 218.164,94.5 195.5,95C 193.534,96.3466 193.201,97.8466 194.5,99.5C 194.5,100.167 194.167,100.5 193.5,100.5C 192.883,100.611 192.383,100.944 192,101.5C 191.751,100.376 191.251,99.376 190.5,98.5C 189.107,100.674 189.44,102.507 191.5,104C 190.552,104.483 189.552,104.649 188.5,104.5C 188.281,105.675 188.614,106.675 189.5,107.5C 190.396,106.494 191.062,106.494 191.5,107.5C 190.372,108.262 189.205,108.929 188,109.5C 187.5,117.827 187.334,126.16 187.5,134.5C 186.339,119.672 186.172,104.672 187,89.5C 187.916,85.0916 190.416,82.0916 194.5,80.5 Z"/></g>
<g><path style="opacity:1" fill="#f7eaec" d="M 262.5,91.5 C 251.353,92.8323 239.853,93.499 228,93.5C 216.5,93.1667 205,92.8333 193.5,92.5C 216.49,91.5003 239.49,91.1669 262.5,91.5 Z"/></g>
<g><path style="opacity:1" fill="#ef837a" d="M 266.5,82.5 C 262.282,82.1172 258.949,83.9506 256.5,88C 254.685,88.7568 253.019,89.5902 251.5,90.5C 233.164,90.6666 214.83,90.4999 196.5,90C 197.308,89.6924 197.975,89.1924 198.5,88.5C 197.311,87.5713 195.978,87.238 194.5,87.5C 194.15,84.9592 194.15,82.6258 194.5,80.5C 217.33,79.337 240.33,79.1703 263.5,80C 264.942,80.3768 265.942,81.2101 266.5,82.5 Z"/></g>
<g><path style="opacity:1" fill="#f4bcaa" d="M 92.5,85.5 C 94.8066,87.0468 97.4733,87.7135 100.5,87.5C 104.18,87.2212 107.847,86.8879 111.5,86.5C 110.493,98.8716 109.16,111.205 107.5,123.5C 100.816,126.335 93.8156,127.335 86.5,126.5C 85.4787,124.812 84.1454,123.479 82.5,122.5C 80.6243,119.079 79.6243,115.412 79.5,111.5C 81.7686,110.024 84.1019,108.524 86.5,107C 87.7014,106.097 88.5348,104.931 89,103.5C 89.5041,97.0975 90.6708,91.0975 92.5,85.5 Z"/></g>
<g><path style="opacity:1" fill="#7eb2af" d="M 28.5,101.5 C 32.802,104.788 34.302,109.121 33,114.5C 32.2917,115.381 31.4584,116.047 30.5,116.5C 28.6774,115.507 27.3441,114.007 26.5,112C 27.9749,108.65 28.6416,105.15 28.5,101.5 Z"/></g>
<g><path style="opacity:1" fill="#5d6c7b" d="M 32.5,99.5 C 35.4858,102.942 37.8191,107.442 39.5,113C 39.1377,114.225 38.6377,115.391 38,116.5C 37.6667,114.167 37.3333,111.833 37,109.5C 36.801,112.722 35.9676,115.722 34.5,118.5C 33.0413,118.567 31.7079,118.234 30.5,117.5C 30.5,117.167 30.5,116.833 30.5,116.5C 31.4584,116.047 32.2917,115.381 33,114.5C 34.302,109.121 32.802,104.788 28.5,101.5C 27.6935,100.272 26.6935,99.2719 25.5,98.5C 24.8902,97.609 24.5569,96.609 24.5,95.5C 25.29,94.3915 25.79,93.0581 26,91.5C 26.5112,93.8782 27.1779,96.2115 28,98.5C 28.6543,99.6956 29.1543,99.6956 29.5,98.5C 28.3192,96.802 28.3192,95.1353 29.5,93.5C 30.0108,95.8839 31.0108,97.8839 32.5,99.5 Z"/></g>
<g><path style="opacity:1" fill="#fedfdd" d="M 225.5,112.5 C 237.678,112.172 249.678,112.505 261.5,113.5C 239.34,114.497 217.006,114.831 194.5,114.5C 204.446,112.525 214.779,111.858 225.5,112.5 Z"/></g>
<g><path style="opacity:1" fill="#d1e4e1" d="M 66.5,111.5 C 68.5273,111.338 70.5273,111.505 72.5,112C 73.0848,113.302 73.7515,114.469 74.5,115.5C 78.7175,132.942 89.0509,138.109 105.5,131C 111.089,128.401 116.423,125.401 121.5,122C 124.118,119.894 126.118,117.394 127.5,114.5C 132.324,112.849 137.324,112.183 142.5,112.5C 147.529,112.92 152.195,114.254 156.5,116.5C 154.415,120.68 151.415,124.013 147.5,126.5C 140.229,131.27 133.729,136.936 128,143.5C 122.278,151.716 116.778,160.049 111.5,168.5C 109.715,172.12 107.048,174.953 103.5,177C 85.8326,177.14 68.166,176.807 50.5,176C 48.1744,172.854 46.841,169.354 46.5,165.5C 47.3872,161.96 48.7205,158.627 50.5,155.5C 51.0431,155.44 51.3764,155.107 51.5,154.5C 50.2681,151.7 49.6015,148.7 49.5,145.5C 50.076,139.828 50.2427,134.162 50,128.5C 49.0617,130.488 48.2283,132.488 47.5,134.5C 46.6618,134.842 46.3284,135.508 46.5,136.5C 43.9556,136.896 41.7889,136.229 40,134.5C 36.7789,138.467 34.9456,138.134 34.5,133.5C 36.0863,131.827 36.7529,129.827 36.5,127.5C 40.5751,121.089 45.9085,116.089 52.5,112.5C 57.1191,111.686 61.7858,111.353 66.5,111.5 Z"/></g>
<g><path style="opacity:1" fill="#e8b1b2" d="M 261.5,113.5 C 262.043,113.56 262.376,113.893 262.5,114.5C 259.232,115.487 255.898,115.82 252.5,115.5C 232.993,115.83 213.659,115.497 194.5,114.5C 217.006,114.831 239.34,114.497 261.5,113.5 Z"/></g>
<g><path style="opacity:1" fill="#94aaad" d="M 136.5,109.5 C 138.629,110.203 140.629,111.203 142.5,112.5C 137.324,112.183 132.324,112.849 127.5,114.5C 124.375,117.965 120.708,120.632 116.5,122.5C 114.653,121.427 112.653,121.427 110.5,122.5C 114.767,119.573 118.767,116.24 122.5,112.5C 124.39,110.41 126.057,108.077 127.5,105.5C 130.404,107.12 133.404,108.453 136.5,109.5 Z"/></g>
<g><path style="opacity:1" fill="#8c777a" d="M -0.5,117.5 C 9.83333,117.5 20.1667,117.5 30.5,117.5C 31.7079,118.234 33.0413,118.567 34.5,118.5C 34.8333,118.5 35.1667,118.5 35.5,118.5C 23.6783,119.495 11.6783,119.828 -0.5,119.5C -0.5,118.833 -0.5,118.167 -0.5,117.5 Z"/></g>
<g><path style="opacity:1" fill="#ffd7d5" d="M 261.5,122.5 C 238.824,122.833 216.157,122.5 193.5,121.5C 204.833,121.167 216.167,120.833 227.5,120.5C 239.187,120.501 250.52,121.168 261.5,122.5 Z"/></g>
<g><path style="opacity:1" fill="#f4ccbd" d="M 35.5,118.5 C 36.5,118.5 37.5,118.5 38.5,118.5C 38.9754,121.313 37.9754,123.313 35.5,124.5C 23.5,124.5 11.5,124.5 -0.5,124.5C -0.5,122.833 -0.5,121.167 -0.5,119.5C 11.6783,119.828 23.6783,119.495 35.5,118.5 Z"/></g>
<g><path style="opacity:1" fill="#bed4d0" d="M 156.5,116.5 C 160.188,118.188 162.855,120.855 164.5,124.5C 164.414,125.496 164.748,126.329 165.5,127C 162.167,129.333 158.833,131.667 155.5,134C 151.65,135.505 147.817,137.005 144,138.5C 143.722,137.584 143.222,136.918 142.5,136.5C 142.5,135.833 142.5,135.167 142.5,134.5C 143.879,131.614 145.879,129.114 148.5,127C 148.272,126.601 147.938,126.435 147.5,126.5C 151.415,124.013 154.415,120.68 156.5,116.5 Z"/></g>
<g><path style="opacity:1" fill="#877882" d="M -0.5,124.5 C 11.5,124.5 23.5,124.5 35.5,124.5C 35.573,126.027 34.9063,127.027 33.5,127.5C 22.1667,127.5 10.8333,127.5 -0.5,127.5C -0.5,126.5 -0.5,125.5 -0.5,124.5 Z"/></g>
<g><path style="opacity:1" fill="#e97770" d="M 266.5,82.5 C 267.558,83.6002 268.392,84.9336 269,86.5C 269.5,102.163 269.667,117.83 269.5,133.5C 261.861,132.475 254.195,132.309 246.5,133C 242.939,136.775 239.605,140.775 236.5,145C 233.007,146.791 229.341,148.124 225.5,149C 217.167,149.667 208.833,149.667 200.5,149C 196.203,147.695 192.869,145.195 190.5,141.5C 190.408,136.638 190.408,131.804 190.5,127C 199.5,126.667 208.5,126.333 217.5,126C 209.895,124.81 202.229,124.143 194.5,124C 217.004,123.832 239.337,123.332 261.5,122.5C 262.404,121.791 262.737,120.791 262.5,119.5C 245.497,119.667 228.497,119.5 211.5,119C 223.23,117.077 236.897,115.911 252.5,115.5C 255.898,115.82 259.232,115.487 262.5,114.5C 262.376,113.893 262.043,113.56 261.5,113.5C 249.678,112.505 237.678,112.172 225.5,112.5C 224.158,111.207 222.491,110.374 220.5,110C 223.232,109.587 225.899,108.92 228.5,108C 224.735,106.623 225.068,105.623 229.5,105C 229.167,104.667 228.833,104.333 228.5,104C 240.216,103.81 251.883,103.644 263.5,103.5C 263.737,102.209 263.404,101.209 262.5,100.5C 240.006,99.5025 217.339,99.1692 194.5,99.5C 193.201,97.8466 193.534,96.3466 195.5,95C 218.164,94.5 240.831,94.3334 263.5,94.5C 263.737,93.209 263.404,92.209 262.5,91.5C 259.038,90.5184 255.371,90.185 251.5,90.5C 253.019,89.5902 254.685,88.7568 256.5,88C 258.949,83.9506 262.282,82.1172 266.5,82.5 Z"/></g>
<g><path style="opacity:1" fill="#303b4e" d="M 127.5,114.5 C 126.118,117.394 124.118,119.894 121.5,122C 116.423,125.401 111.089,128.401 105.5,131C 89.0509,138.109 78.7175,132.942 74.5,115.5C 80.5482,132.353 91.5482,136.52 107.5,128C 110.898,126.643 113.898,124.81 116.5,122.5C 120.708,120.632 124.375,117.965 127.5,114.5 Z"/></g>
<g><path style="opacity:1" fill="#f5cbbb" d="M -0.5,127.5 C 10.8333,127.5 22.1667,127.5 33.5,127.5C 30.5726,133.692 27.9059,140.026 25.5,146.5C 16.8333,146.5 8.16667,146.5 -0.5,146.5C -0.5,141.833 -0.5,137.167 -0.5,132.5C 5.352,132.949 11.0187,132.449 16.5,131C 10.8431,130.501 5.17645,130.334 -0.5,130.5C -0.5,129.5 -0.5,128.5 -0.5,127.5 Z"/></g>
<g><path style="opacity:1" fill="#b6c9c7" d="M 82.5,122.5 C 84.1454,123.479 85.4787,124.812 86.5,126.5C 93.8156,127.335 100.816,126.335 107.5,123.5C 108.391,122.89 109.391,122.557 110.5,122.5C 112.653,121.427 114.653,121.427 116.5,122.5C 113.898,124.81 110.898,126.643 107.5,128C 91.5482,136.52 80.5482,132.353 74.5,115.5C 74.5,113.833 74.5,112.167 74.5,110.5C 75.5,110.5 76.5,110.5 77.5,110.5C 77.6268,115.232 79.2935,119.232 82.5,122.5 Z"/></g>
<g><path style="opacity:1" fill="#a0888d" d="M -0.5,130.5 C 5.17645,130.334 10.8431,130.501 16.5,131C 11.0187,132.449 5.352,132.949 -0.5,132.5C -0.5,131.833 -0.5,131.167 -0.5,130.5 Z"/></g>
<g><path style="opacity:1" fill="#abc4c2" d="M 164.5,124.5 C 167.535,127.902 169.535,131.902 170.5,136.5C 164.718,140.467 158.384,144.633 151.5,149C 149.212,149.822 146.878,150.489 144.5,151C 142.937,151.759 141.937,152.926 141.5,154.5C 140.596,153.791 140.263,152.791 140.5,151.5C 140.096,146.217 140.762,141.217 142.5,136.5C 143.222,136.918 143.722,137.584 144,138.5C 147.817,137.005 151.65,135.505 155.5,134C 158.833,131.667 162.167,129.333 165.5,127C 164.748,126.329 164.414,125.496 164.5,124.5 Z"/></g>
<g><path style="opacity:1" fill="#f6baaa" d="M 221.5,133.5 C 225.161,133.35 226.161,134.85 224.5,138C 220.707,138.487 219.707,136.987 221.5,133.5 Z"/></g>
<g><path style="opacity:1" fill="#9eb9b8" d="M 50.5,155.5 C 49.6726,154.561 49.0059,154.895 48.5,156.5C 47.7545,149.152 47.4211,141.819 47.5,134.5C 48.2283,132.488 49.0617,130.488 50,128.5C 50.2427,134.162 50.076,139.828 49.5,145.5C 49.6015,148.7 50.2681,151.7 51.5,154.5C 51.3764,155.107 51.0431,155.44 50.5,155.5 Z"/></g>
<g><path style="opacity:1" fill="#f9c3b3" d="M 198.5,133.5 C 199.833,133.5 201.167,133.5 202.5,133.5C 202.99,135.948 202.157,137.615 200,138.5C 197.389,137.5 196.889,135.833 198.5,133.5 Z"/></g>
<g><path style="opacity:1" fill="#4a5062" d="M 247.5,136.5 C 249.484,136.383 251.15,137.05 252.5,138.5C 250.827,140.086 248.827,140.753 246.5,140.5C 246.433,139.041 246.766,137.708 247.5,136.5 Z"/></g>
<g><path style="opacity:1" fill="#4c5067" d="M 255.5,137.5 C 262.085,138.985 262.085,140.318 255.5,141.5C 255.5,140.167 255.5,138.833 255.5,137.5 Z"/></g>
<g><path style="opacity:1" fill="#c2d6d3" d="M 36.5,127.5 C 36.7529,129.827 36.0863,131.827 34.5,133.5C 34.9456,138.134 36.7789,138.467 40,134.5C 41.7889,136.229 43.9556,136.896 46.5,136.5C 43.5805,143.506 40.2472,150.34 36.5,157C 34.8333,157.667 33.1667,157.667 31.5,157C 29.5932,155.878 27.5932,155.045 25.5,154.5C 27.8152,144.873 31.4819,135.873 36.5,127.5 Z"/></g>
<g><path style="opacity:1" fill="#595b6b" d="M 256.5,143.5 C 257.814,146.414 256.647,148.081 253,148.5C 250.914,148.081 249.414,146.914 248.5,145C 250.107,144.885 251.607,145.385 253,146.5C 254.642,146.022 255.809,145.022 256.5,143.5 Z"/></g>
<g><path style="opacity:1" fill="#7bafb1" d="M -0.5,146.5 C 8.16667,146.5 16.8333,146.5 25.5,146.5C 23.3707,152.015 21.704,157.681 20.5,163.5C 21.5,163.5 22.5,163.5 23.5,163.5C 23.7678,165.099 23.4345,166.432 22.5,167.5C 14.9196,168.466 7.25297,168.799 -0.5,168.5C -0.5,161.167 -0.5,153.833 -0.5,146.5 Z"/></g>
<g><path style="opacity:1" fill="#8eadaf" d="M 170.5,136.5 C 173.875,144.954 176.875,153.621 179.5,162.5C 168.78,165.741 158.113,169.407 147.5,173.5C 145.326,170.485 143.659,167.151 142.5,163.5C 142.037,160.518 141.704,157.518 141.5,154.5C 141.937,152.926 142.937,151.759 144.5,151C 146.878,150.489 149.212,149.822 151.5,149C 158.384,144.633 164.718,140.467 170.5,136.5 Z"/></g>
<g><path style="opacity:1" fill="#7bafb0" d="M 182.5,88.5 C 182.333,106.503 182.5,124.503 183,142.5C 183.996,148.159 187.162,151.993 192.5,154C 201.827,154.5 211.161,154.666 220.5,154.5C 219.978,159.067 218.645,163.4 216.5,167.5C 216.833,167.833 217.167,168.167 217.5,168.5C 223.869,165.299 229.536,161.132 234.5,156C 244.167,155.667 253.833,155.333 263.5,155C 265.953,154.041 268.286,152.874 270.5,151.5C 270.5,154.167 270.5,156.833 270.5,159.5C 258.162,159.333 245.829,159.5 233.5,160C 232.944,160.383 232.611,160.883 232.5,161.5C 231.353,165.646 231.186,169.98 232,174.5C 232.5,175 233,175.5 233.5,176C 238.882,176.265 244.215,176.765 249.5,177.5C 251.985,179.913 254.985,181.58 258.5,182.5C 258.517,181.606 258.851,180.606 259.5,179.5C 260.028,178.279 260.695,177.113 261.5,176C 264.482,175.502 267.482,175.335 270.5,175.5C 270.5,201.5 270.5,227.5 270.5,253.5C 264.32,252.41 258.987,249.743 254.5,245.5C 260.094,246.257 264.261,244.257 267,239.5C 267.5,232.508 267.666,225.508 267.5,218.5C 267.5,218.167 267.5,217.833 267.5,217.5C 267.666,211.491 267.499,205.491 267,199.5C 266.722,198.584 266.222,197.918 265.5,197.5C 265.389,196.883 265.056,196.383 264.5,196C 246.26,195.826 228.093,195.326 210,194.5C 209.132,199.708 208.299,204.874 207.5,210C 207.974,211.729 208.974,212.895 210.5,213.5C 212.38,215.435 214.38,217.101 216.5,218.5C 216.334,225.175 216.5,231.842 217,238.5C 217.785,240.286 218.951,241.786 220.5,243C 219.944,243.383 219.611,243.883 219.5,244.5C 210.594,244.549 201.928,243.215 193.5,240.5C 192.287,240.253 191.62,239.586 191.5,238.5C 192.997,236.71 193.664,234.544 193.5,232C 191.2,212.969 187.866,194.136 183.5,175.5C 183.673,173.962 184.006,172.462 184.5,171C 179.792,156.375 174.792,141.875 169.5,127.5C 171.435,128.15 173.435,128.483 175.5,128.5C 176.107,131.076 177.274,133.409 179,135.5C 179.333,133.167 179.667,130.833 180,128.5C 180.333,131.833 180.667,135.167 181,138.5C 181.168,121.662 181.668,104.995 182.5,88.5 Z"/></g>
<g><path style="opacity:1" fill="#a5bebd" d="M 147.5,126.5 C 147.938,126.435 148.272,126.601 148.5,127C 145.879,129.114 143.879,131.614 142.5,134.5C 141.883,134.389 141.383,134.056 141,133.5C 139.02,139.685 137.687,146.019 137,152.5C 134.545,157.938 131.045,162.438 126.5,166C 123.068,166.116 120.068,167.283 117.5,169.5C 116.252,168.96 115.085,168.293 114,167.5C 113.658,169.619 112.825,169.953 111.5,168.5C 116.778,160.049 122.278,151.716 128,143.5C 133.729,136.936 140.229,131.27 147.5,126.5 Z"/></g>
<g><path style="opacity:1" fill="#90adaf" d="M 47.5,134.5 C 47.4211,141.819 47.7545,149.152 48.5,156.5C 47.3072,160.673 46.1406,161.006 45,157.5C 44.4677,160.264 43.6343,162.93 42.5,165.5C 41.5,165.833 40.5,166.167 39.5,166.5C 34.0993,165.365 28.7659,164.032 23.5,162.5C 23.2938,159.505 23.9605,156.838 25.5,154.5C 27.5932,155.045 29.5932,155.878 31.5,157C 33.1667,157.667 34.8333,157.667 36.5,157C 40.2472,150.34 43.5805,143.506 46.5,136.5C 46.3284,135.508 46.6618,134.842 47.5,134.5 Z"/></g>
<g><path style="opacity:1" fill="#c88f8e" d="M 270.5,159.5 C 270.5,159.833 270.5,160.167 270.5,160.5C 257.784,160.205 245.117,160.538 232.5,161.5C 232.611,160.883 232.944,160.383 233.5,160C 245.829,159.5 258.162,159.333 270.5,159.5 Z"/></g>
<g><path style="opacity:1" fill="#ea847d" d="M 270.5,160.5 C 270.5,162.5 270.5,164.5 270.5,166.5C 258.833,166.5 247.167,166.5 235.5,166.5C 234.596,167.209 234.263,168.209 234.5,169.5C 246.5,169.5 258.5,169.5 270.5,169.5C 270.5,171.5 270.5,173.5 270.5,175.5C 267.482,175.335 264.482,175.502 261.5,176C 260.695,177.113 260.028,178.279 259.5,179.5C 256.495,177.701 253.162,177.034 249.5,177.5C 244.215,176.765 238.882,176.265 233.5,176C 233,175.5 232.5,175 232,174.5C 231.186,169.98 231.353,165.646 232.5,161.5C 245.117,160.538 257.784,160.205 270.5,160.5 Z"/></g>
<g><path style="opacity:1" fill="#5a7a86" d="M 179.5,162.5 C 180.404,163.209 180.737,164.209 180.5,165.5C 169.967,169.567 159.3,173.233 148.5,176.5C 147.89,175.609 147.557,174.609 147.5,173.5C 158.113,169.407 168.78,165.741 179.5,162.5 Z"/></g>
<g><path style="opacity:1" fill="#fde2de" d="M 235.5,166.5 C 247.167,166.5 258.833,166.5 270.5,166.5C 270.5,167.167 270.5,167.833 270.5,168.5C 258.452,169.145 246.785,168.478 235.5,166.5 Z"/></g>
<g><path style="opacity:1" fill="#f4c9ba" d="M 18.5,184.5 C 18.5,184.167 18.5,183.833 18.5,183.5C 20.5388,179.734 22.2055,175.734 23.5,171.5C 23.8781,168.978 24.7114,166.645 26,164.5C 30.8647,166.889 36.0313,168.222 41.5,168.5C 40.5005,173.832 39.5005,179.165 38.5,184.5C 31.7616,184.13 25.095,184.13 18.5,184.5 Z"/></g>
<g><path style="opacity:1" fill="#e09d9a" d="M 235.5,166.5 C 246.785,168.478 258.452,169.145 270.5,168.5C 270.5,168.833 270.5,169.167 270.5,169.5C 258.5,169.5 246.5,169.5 234.5,169.5C 234.263,168.209 234.596,167.209 235.5,166.5 Z"/></g>
<g><path style="opacity:1" fill="#84a3a6" d="M 180.5,165.5 C 182.099,166.799 182.599,168.465 182,170.5C 172.137,174.676 161.97,178.009 151.5,180.5C 149.085,180.281 148.085,178.948 148.5,176.5C 159.3,173.233 169.967,169.567 180.5,165.5 Z"/></g>
<g><path style="opacity:1" fill="#87a6a8" d="M 122.5,184.5 C 121.031,189.72 120.364,195.054 120.5,200.5C 119.023,196.767 118.189,192.767 118,188.5C 117.178,190.788 116.511,193.122 116,195.5C 113.178,192.933 110.678,193.266 108.5,196.5C 104.264,193.403 99.5968,191.736 94.5,191.5C 95.675,191.719 96.675,191.386 97.5,190.5C 96,190.167 94.5,189.833 93,189.5C 77.6599,188.391 62.4932,187.058 47.5,185.5C 54.949,185.021 62.1157,185.021 69,185.5C 81.9965,182.48 95.1632,180.646 108.5,180C 107.167,179.333 107.167,178.667 108.5,178C 111.659,177.141 114.659,175.975 117.5,174.5C 118.086,174.709 118.586,175.043 119,175.5C 119.419,174.328 120.085,173.328 121,172.5C 121.499,175.022 121.332,177.522 120.5,180C 120.525,181.876 121.191,183.376 122.5,184.5 Z"/></g>
<g><path style="opacity:1" fill="#8fbab9" d="M 22.5,167.5 C 22.2322,169.099 22.5655,170.432 23.5,171.5C 22.2055,175.734 20.5388,179.734 18.5,183.5C 14.6127,183.699 10.6127,183.866 6.5,184C 8.38172,184.198 10.0484,184.698 11.5,185.5C 5.1737,183.841 2.1737,186.174 2.5,192.5C 1.66175,192.158 1.32842,191.492 1.5,190.5C 1.15829,189.662 0.491622,189.328 -0.5,189.5C -0.5,182.5 -0.5,175.5 -0.5,168.5C 7.25297,168.799 14.9196,168.466 22.5,167.5 Z"/></g>
<g><path style="opacity:1" fill="#7b9ea2" d="M 140.5,151.5 C 140.263,152.791 140.596,153.791 141.5,154.5C 141.704,157.518 142.037,160.518 142.5,163.5C 141.113,161.123 140.279,158.457 140,155.5C 139.333,157.833 139.333,160.167 140,162.5C 142.124,167.076 143.957,171.743 145.5,176.5C 145.649,177.552 145.483,178.552 145,179.5C 136.333,185.5 129,192.833 123,201.5C 122.506,199.866 122.34,198.199 122.5,196.5C 122.513,191.089 123.18,185.755 124.5,180.5C 124.457,179.584 124.124,178.917 123.5,178.5C 124.939,172.654 127.772,167.654 132,163.5C 132.414,163.957 132.914,164.291 133.5,164.5C 137.918,160.568 139.752,155.568 139,149.5C 139.278,150.416 139.778,151.082 140.5,151.5 Z"/></g>
<g><path style="opacity:1" fill="#94b2b2" d="M 142.5,134.5 C 142.5,135.167 142.5,135.833 142.5,136.5C 140.762,141.217 140.096,146.217 140.5,151.5C 139.778,151.082 139.278,150.416 139,149.5C 139.752,155.568 137.918,160.568 133.5,164.5C 132.914,164.291 132.414,163.957 132,163.5C 127.772,167.654 124.939,172.654 123.5,178.5C 123.167,180.5 122.833,182.5 122.5,184.5C 121.191,183.376 120.525,181.876 120.5,180C 121.332,177.522 121.499,175.022 121,172.5C 120.085,173.328 119.419,174.328 119,175.5C 118.586,175.043 118.086,174.709 117.5,174.5C 114.659,175.975 111.659,177.141 108.5,178C 107.167,178.667 107.167,179.333 108.5,180C 95.1632,180.646 81.9965,182.48 69,185.5C 62.1157,185.021 54.949,185.021 47.5,185.5C 45.076,185.808 42.7427,185.474 40.5,184.5C 41.758,177.815 43.758,171.481 46.5,165.5C 46.841,169.354 48.1744,172.854 50.5,176C 68.166,176.807 85.8326,177.14 103.5,177C 107.048,174.953 109.715,172.12 111.5,168.5C 112.825,169.953 113.658,169.619 114,167.5C 115.085,168.293 116.252,168.96 117.5,169.5C 120.068,167.283 123.068,166.116 126.5,166C 131.045,162.438 134.545,157.938 137,152.5C 137.687,146.019 139.02,139.685 141,133.5C 141.383,134.056 141.883,134.389 142.5,134.5 Z"/></g>
<g><path style="opacity:1" fill="#ca8b83" d="M 181.5,177.5 C 176.231,178.344 170.897,179.011 165.5,179.5C 170.052,177.851 174.719,176.184 179.5,174.5C 180.919,175.005 181.585,176.005 181.5,177.5 Z"/></g>
<g><path style="opacity:1" fill="#edc0b9" d="M 249.5,177.5 C 253.162,177.034 256.495,177.701 259.5,179.5C 258.851,180.606 258.517,181.606 258.5,182.5C 254.985,181.58 251.985,179.913 249.5,177.5 Z"/></g>
<g><path style="opacity:1" fill="#617885" d="M 18.5,183.5 C 18.5,183.833 18.5,184.167 18.5,184.5C 18.5,184.833 18.5,185.167 18.5,185.5C 16.1667,185.5 13.8333,185.5 11.5,185.5C 10.0484,184.698 8.38172,184.198 6.5,184C 10.6127,183.866 14.6127,183.699 18.5,183.5 Z"/></g>
<g><path style="opacity:1" fill="#f9fafa" d="M 11.5,185.5 C 13.8333,185.5 16.1667,185.5 18.5,185.5C 43.6708,187.689 69.0041,189.689 94.5,191.5C 99.5968,191.736 104.264,193.403 108.5,196.5C 108.5,197.5 108.5,198.5 108.5,199.5C 108.631,200.376 108.298,201.043 107.5,201.5C 104.209,199.279 100.543,198.113 96.5,198C 71.4835,196.154 46.4835,194.488 21.5,193C 19.0694,193.295 17.236,194.462 16,196.5C 15.3966,209.548 17.3966,222.215 22,234.5C 22.9476,236.57 24.4476,238.07 26.5,239C 52.018,240.62 77.518,242.454 103,244.5C 106.167,244.333 109.333,244.167 112.5,244C 113.025,243.308 113.692,242.808 114.5,242.5C 116.494,252.608 118.994,262.608 122,272.5C 122.198,270.618 122.698,268.952 123.5,267.5C 123.5,270.167 123.5,272.833 123.5,275.5C 122.711,275.783 122.044,276.283 121.5,277C 116.167,277.667 110.833,277.667 105.5,277C 77.5131,274.201 49.5131,271.535 21.5,269C 20.4734,268.487 19.4734,267.987 18.5,267.5C 18.5,267.167 18.5,266.833 18.5,266.5C 16.7434,262.889 15.4101,259.223 14.5,255.5C 11.8839,240.42 8.88394,225.42 5.5,210.5C 5.76781,208.901 5.43448,207.568 4.5,206.5C 3.83333,201.833 3.16667,197.167 2.5,192.5C 2.1737,186.174 5.1737,183.841 11.5,185.5 Z"/></g>
<g><path style="opacity:1" fill="#4a4f63" d="M 1.5,190.5 C 1.32842,191.492 1.66175,192.158 2.5,192.5C 3.16667,197.167 3.83333,201.833 4.5,206.5C 4.64945,207.552 4.48278,208.552 4,209.5C 1.74634,203.138 0.913002,196.804 1.5,190.5 Z"/></g>
<g><path style="opacity:1" fill="#79adaf" d="M 148.5,183.5 C 149.5,183.5 150.5,183.5 151.5,183.5C 151.337,185.857 151.503,188.19 152,190.5C 155.173,201.016 158.507,211.349 162,221.5C 152.044,225.208 141.877,228.208 131.5,230.5C 131.301,227.059 131.801,223.726 133,220.5C 138.179,208.145 143.346,195.812 148.5,183.5 Z"/></g>
<g><path style="opacity:1" fill="#d8e8e5" d="M 108.5,199.5 C 108.833,199.5 109.167,199.5 109.5,199.5C 110.822,210.251 112.655,220.918 115,231.5C 118.787,243.265 121.62,255.265 123.5,267.5C 122.698,268.952 122.198,270.618 122,272.5C 118.994,262.608 116.494,252.608 114.5,242.5C 113.692,242.808 113.025,243.308 112.5,244C 109.333,244.167 106.167,244.333 103,244.5C 77.518,242.454 52.018,240.62 26.5,239C 24.4476,238.07 22.9476,236.57 22,234.5C 17.3966,222.215 15.3966,209.548 16,196.5C 17.236,194.462 19.0694,193.295 21.5,193C 46.4835,194.488 71.4835,196.154 96.5,198C 100.543,198.113 104.209,199.279 107.5,201.5C 108.298,201.043 108.631,200.376 108.5,199.5 Z"/></g>
<g><path style="opacity:1" fill="#73959c" d="M 120.5,200.5 C 120.5,202.167 120.5,203.833 120.5,205.5C 118.737,208.02 116.737,210.353 114.5,212.5C 113.021,208.285 111.855,203.952 111,199.5C 110.31,198.262 109.81,198.262 109.5,199.5C 109.167,199.5 108.833,199.5 108.5,199.5C 108.5,198.5 108.5,197.5 108.5,196.5C 110.678,193.266 113.178,192.933 116,195.5C 116.511,193.122 117.178,190.788 118,188.5C 118.189,192.767 119.023,196.767 120.5,200.5 Z"/></g>
<g><path style="opacity:1" fill="#8b818b" d="M -0.5,189.5 C 0.491622,189.328 1.15829,189.662 1.5,190.5C 0.913002,196.804 1.74634,203.138 4,209.5C 4.48278,208.552 4.64945,207.552 4.5,206.5C 5.43448,207.568 5.76781,208.901 5.5,210.5C 4.87605,210.917 4.54272,211.584 4.5,212.5C 5.98823,218.774 7.1549,225.108 8,231.5C 9.89425,240.282 12.0609,248.282 14.5,255.5C 15.4101,259.223 16.7434,262.889 18.5,266.5C 11.7575,266.015 5.75747,267.682 0.5,271.5C 0.414228,272.496 0.747561,273.329 1.5,274C 10.3102,275.471 18.9768,276.971 27.5,278.5C 18.1667,278.5 8.83333,278.5 -0.5,278.5C -0.5,248.833 -0.5,219.167 -0.5,189.5 Z"/></g>
<g><path style="opacity:1" fill="#597e88" d="M 145.5,176.5 C 147.326,178.455 147.826,180.788 147,183.5C 139.44,198.284 133.274,213.618 128.5,229.5C 126.597,232.147 123.93,233.481 120.5,233.5C 120.609,220.983 121.275,208.649 122.5,196.5C 122.34,198.199 122.506,199.866 123,201.5C 129,192.833 136.333,185.5 145,179.5C 145.483,178.552 145.649,177.552 145.5,176.5 Z"/></g>
<g><path style="opacity:1" fill="#e58780" d="M 252.5,196.5 C 239.186,197.018 225.852,197.851 212.5,199C 216.697,199.016 221.03,199.35 225.5,200C 224.833,200.333 224.167,200.667 223.5,201C 234.161,201.5 244.828,201.667 255.5,201.5C 255.768,203.099 255.434,204.432 254.5,205.5C 254.672,204.508 254.338,203.842 253.5,203.5C 247.676,202.834 241.676,202.5 235.5,202.5C 229.128,202.504 223.128,203.171 217.5,204.5C 217.5,204.833 217.5,205.167 217.5,205.5C 217.062,205.435 216.728,205.601 216.5,206C 217.71,207.039 218.71,208.206 219.5,209.5C 218.624,209.369 217.957,209.702 217.5,210.5C 225.472,211.498 233.472,211.831 241.5,211.5C 234.011,212.329 226.344,212.829 218.5,213C 219.815,214.395 219.481,215.395 217.5,216C 218.5,216.333 219.5,216.667 220.5,217C 236.163,217.5 251.83,217.667 267.5,217.5C 267.5,217.833 267.5,218.167 267.5,218.5C 250.5,218.5 233.5,218.5 216.5,218.5C 214.38,217.101 212.38,215.435 210.5,213.5C 210.334,208.489 210.501,203.489 211,198.5C 211.5,198 212,197.5 212.5,197C 225.829,196.5 239.163,196.333 252.5,196.5 Z"/></g>
<g><path style="opacity:1" fill="#fee4e3" d="M 253.5,203.5 C 241.678,204.495 229.678,204.828 217.5,204.5C 223.128,203.171 229.128,202.504 235.5,202.5C 241.676,202.5 247.676,202.834 253.5,203.5 Z"/></g>
<g><path style="opacity:1" fill="#dcaaa9" d="M 253.5,203.5 C 254.338,203.842 254.672,204.508 254.5,205.5C 242.167,205.5 229.833,205.5 217.5,205.5C 217.5,205.167 217.5,204.833 217.5,204.5C 229.678,204.828 241.678,204.495 253.5,203.5 Z"/></g>
<g><path style="opacity:1" fill="#91a7a7" d="M 265.5,197.5 C 261.232,196.627 256.898,196.294 252.5,196.5C 239.163,196.333 225.829,196.5 212.5,197C 212,197.5 211.5,198 211,198.5C 210.501,203.489 210.334,208.489 210.5,213.5C 208.974,212.895 207.974,211.729 207.5,210C 208.299,204.874 209.132,199.708 210,194.5C 228.093,195.326 246.26,195.826 264.5,196C 265.056,196.383 265.389,196.883 265.5,197.5 Z"/></g>
<g><path style="opacity:1" fill="#f2b29f" d="M 181.5,177.5 C 186.382,197.547 189.715,217.881 191.5,238.5C 190.5,238.833 189.833,239.5 189.5,240.5C 188.571,241.315 187.571,242.148 186.5,243C 165.181,248.373 143.514,251.207 121.5,251.5C 120.704,246.184 120.037,240.851 119.5,235.5C 135.345,231.773 151.012,227.44 166.5,222.5C 160.458,210.378 155.791,197.711 152.5,184.5C 152.818,183.353 153.484,182.519 154.5,182C 158.145,181.005 161.812,180.172 165.5,179.5C 170.897,179.011 176.231,178.344 181.5,177.5 Z"/></g>
<g><path style="opacity:1" fill="#fcd7d3" d="M 219.5,209.5 C 227.243,208.87 234.576,209.537 241.5,211.5C 233.472,211.831 225.472,211.498 217.5,210.5C 217.957,209.702 218.624,209.369 219.5,209.5 Z"/></g>
<g><path style="opacity:1" fill="#4f717f" d="M 120.5,205.5 C 119.795,213.808 119.295,222.141 119,230.5C 116.981,224.613 115.481,218.613 114.5,212.5C 116.737,210.353 118.737,208.02 120.5,205.5 Z"/></g>
<g><path style="opacity:1" fill="#ea7971" d="M 252.5,196.5 C 256.898,196.294 261.232,196.627 265.5,197.5C 266.222,197.918 266.722,198.584 267,199.5C 267.499,205.491 267.666,211.491 267.5,217.5C 251.83,217.667 236.163,217.5 220.5,217C 219.5,216.667 218.5,216.333 217.5,216C 219.481,215.395 219.815,214.395 218.5,213C 226.344,212.829 234.011,212.329 241.5,211.5C 234.576,209.537 227.243,208.87 219.5,209.5C 218.71,208.206 217.71,207.039 216.5,206C 216.728,205.601 217.062,205.435 217.5,205.5C 229.833,205.5 242.167,205.5 254.5,205.5C 255.434,204.432 255.768,203.099 255.5,201.5C 244.828,201.667 234.161,201.5 223.5,201C 224.167,200.667 224.833,200.333 225.5,200C 221.03,199.35 216.697,199.016 212.5,199C 225.852,197.851 239.186,197.018 252.5,196.5 Z"/></g>
<g><path style="opacity:1" fill="#f1f1f4" d="M 216.5,218.5 C 233.5,218.5 250.5,218.5 267.5,218.5C 267.666,225.508 267.5,232.508 267,239.5C 264.261,244.257 260.094,246.257 254.5,245.5C 245.161,245.334 235.827,245.5 226.5,246C 222.985,247.843 219.318,248.843 215.5,249C 217.644,248.208 218.977,246.708 219.5,244.5C 219.611,243.883 219.944,243.383 220.5,243C 218.951,241.786 217.785,240.286 217,238.5C 216.5,231.842 216.334,225.175 216.5,218.5 Z"/></g>
<g><path style="opacity:1" fill="#353f55" d="M 51.5,219.5 C 56.4857,219.305 58.1524,221.472 56.5,226C 50.741,227.139 49.0744,224.972 51.5,219.5 Z"/></g>
<g><path style="opacity:1" fill="#5f637a" d="M 221.5,221.5 C 235.183,221.167 248.85,221.501 262.5,222.5C 255.667,222.833 248.833,223.167 242,223.5C 234.799,223.497 227.966,222.83 221.5,221.5 Z"/></g>
<g><path style="opacity:1" fill="#3b4259" d="M 59.5,219.5 C 62.3198,219.248 64.9865,219.748 67.5,221C 68.7468,222.458 68.7468,223.958 67.5,225.5C 61.7037,227.705 59.0371,225.705 59.5,219.5 Z"/></g>
<g><path style="opacity:1" fill="#586377" d="M 55.5,227.5 C 58.0163,227.755 60.3496,228.589 62.5,230C 63.8413,231.826 63.3413,232.993 61,233.5C 57.589,232.923 55.7557,230.923 55.5,227.5 Z"/></g>
<g><path style="opacity:1" fill="#828597" d="M 221.5,230.5 C 235.183,230.167 248.85,230.501 262.5,231.5C 255.667,231.833 248.833,232.167 242,232.5C 234.799,232.497 227.966,231.83 221.5,230.5 Z"/></g>
<g><path style="opacity:1" fill="#545265" d="M 5.5,210.5 C 8.88394,225.42 11.8839,240.42 14.5,255.5C 12.0609,248.282 9.89425,240.282 8,231.5C 7.1549,225.108 5.98823,218.774 4.5,212.5C 4.54272,211.584 4.87605,210.917 5.5,210.5 Z"/></g>
<g><path style="opacity:1" fill="#6b7084" d="M 221.5,234.5 C 235.183,234.167 248.85,234.501 262.5,235.5C 255.667,235.833 248.833,236.167 242,236.5C 234.799,236.497 227.966,235.83 221.5,234.5 Z"/></g>
<g><path style="opacity:1" fill="#857b86" d="M 190.5,241.5 C 192.609,243.54 194.609,245.706 196.5,248C 195.191,249.751 195.525,251.251 197.5,252.5C 192.842,254.598 192.508,257.098 196.5,260C 195.833,260.333 195.167,260.667 194.5,261C 196.577,261.192 198.577,261.692 200.5,262.5C 200.5,265.167 200.5,267.833 200.5,270.5C 202.389,271.604 204.055,272.937 205.5,274.5C 203.518,276.564 201.184,277.897 198.5,278.5C 191.167,278.5 183.833,278.5 176.5,278.5C 182.684,277.299 189.017,276.132 195.5,275C 197.32,274.8 198.653,273.966 199.5,272.5C 198.918,270.331 198.918,267.998 199.5,265.5C 184,262.954 168.333,261.621 152.5,261.5C 151.609,260.89 150.609,260.557 149.5,260.5C 140.838,260.072 132.171,259.738 123.5,259.5C 123.286,257.856 123.62,256.356 124.5,255C 145.985,253.989 167.318,251.656 188.5,248C 189.815,246.605 189.481,245.605 187.5,245C 188.71,243.961 189.71,242.794 190.5,241.5 Z"/></g>
<g><path style="opacity:1" fill="#42455d" d="M 88.5,246.5 C 85.0381,247.482 81.3714,247.815 77.5,247.5C 63.8221,246.932 50.1554,246.099 36.5,245C 34.2852,244.83 32.2852,244.163 30.5,243C 49.8399,243.722 69.1732,244.889 88.5,246.5 Z"/></g>
<g><path style="opacity:1" fill="#90858d" d="M 191.5,238.5 C 191.62,239.586 192.287,240.253 193.5,240.5C 201.928,243.215 210.594,244.549 219.5,244.5C 218.977,246.708 217.644,248.208 215.5,249C 219.318,248.843 222.985,247.843 226.5,246C 235.827,245.5 245.161,245.334 254.5,245.5C 258.987,249.743 264.32,252.41 270.5,253.5C 270.5,261.833 270.5,270.167 270.5,278.5C 246.5,278.5 222.5,278.5 198.5,278.5C 201.184,277.897 203.518,276.564 205.5,274.5C 204.055,272.937 202.389,271.604 200.5,270.5C 200.5,267.833 200.5,265.167 200.5,262.5C 198.577,261.692 196.577,261.192 194.5,261C 195.167,260.667 195.833,260.333 196.5,260C 192.508,257.098 192.842,254.598 197.5,252.5C 195.525,251.251 195.191,249.751 196.5,248C 194.609,245.706 192.609,243.54 190.5,241.5C 190.5,240.833 190.167,240.5 189.5,240.5C 189.833,239.5 190.5,238.833 191.5,238.5 Z"/></g>
<g><path style="opacity:1" fill="#5f6276" d="M 88.5,246.5 C 91.8499,246.335 95.1832,246.502 98.5,247C 99.7414,248.487 99.2414,249.32 97,249.5C 90.343,248.929 83.843,248.262 77.5,247.5C 81.3714,247.815 85.0381,247.482 88.5,246.5 Z"/></g>
<g><path style="opacity:1" fill="#4d4e64" d="M 32.5,248.5 C 48.8245,249.721 65.1578,250.888 81.5,252C 86.9372,252.243 92.2706,253.076 97.5,254.5C 96,254.833 94.5,255.167 93,255.5C 73.2189,253.31 53.3855,251.81 33.5,251C 32.7476,250.329 32.4142,249.496 32.5,248.5 Z"/></g>
<g><path style="opacity:1" fill="#db9388" d="M 56.5,260.5 C 61.1785,260.334 65.8452,260.501 70.5,261C 70.9574,261.414 71.2907,261.914 71.5,262.5C 66.8687,263.662 62.202,263.828 57.5,263C 56.7476,262.329 56.4142,261.496 56.5,260.5 Z"/></g>
<g><path style="opacity:1" fill="#61808d" d="M 149.5,260.5 C 150.609,260.557 151.609,260.89 152.5,261.5C 166.347,263.263 180.347,264.93 194.5,266.5C 187.773,268.39 181.106,270.057 174.5,271.5C 162.952,273.42 151.618,275.753 140.5,278.5C 139.5,278.5 138.5,278.5 137.5,278.5C 137.5,277.5 137.5,276.5 137.5,275.5C 133.162,275.378 132.828,275.045 136.5,274.5C 136.5,273.5 136.5,272.5 136.5,271.5C 131.206,271.318 131.206,270.818 136.5,270C 134.047,269.273 131.714,268.273 129.5,267C 130.416,266.722 131.082,266.222 131.5,265.5C 137.484,263.389 143.484,261.722 149.5,260.5 Z"/></g>
<g><path style="opacity:1" fill="#3f495d" d="M 152.5,261.5 C 168.333,261.621 184,262.954 199.5,265.5C 198.918,267.998 198.918,270.331 199.5,272.5C 196.182,272.061 193.016,272.061 190,272.5C 189.085,271.204 187.419,270.537 185,270.5C 180.565,271.257 180.731,272.091 185.5,273C 177.554,274.991 169.554,276.324 161.5,277C 167.449,275.453 173.449,274.119 179.5,273C 177.975,271.991 176.308,271.491 174.5,271.5C 181.106,270.057 187.773,268.39 194.5,266.5C 180.347,264.93 166.347,263.263 152.5,261.5 Z"/></g>
<g><path style="opacity:1" fill="#5f7081" d="M 18.5,266.5 C 18.5,266.833 18.5,267.167 18.5,267.5C 13.6961,268.542 9.02945,270.209 4.5,272.5C 3.07546,272.377 1.74213,272.043 0.5,271.5C 5.75747,267.682 11.7575,266.015 18.5,266.5 Z"/></g>
<g><path style="opacity:1" fill="#2e3850" d="M 199.5,272.5 C 198.653,273.966 197.32,274.8 195.5,275C 189.017,276.132 182.684,277.299 176.5,278.5C 164.5,278.5 152.5,278.5 140.5,278.5C 151.618,275.753 162.952,273.42 174.5,271.5C 176.308,271.491 177.975,271.991 179.5,273C 173.449,274.119 167.449,275.453 161.5,277C 169.554,276.324 177.554,274.991 185.5,273C 180.731,272.091 180.565,271.257 185,270.5C 187.419,270.537 189.085,271.204 190,272.5C 193.016,272.061 196.182,272.061 199.5,272.5 Z"/></g>
<g><path style="opacity:1" fill="#3c4d64" d="M 131.5,265.5 C 131.082,266.222 130.416,266.722 129.5,267C 131.714,268.273 134.047,269.273 136.5,270C 131.206,270.818 131.206,271.318 136.5,271.5C 136.5,272.5 136.5,273.5 136.5,274.5C 132.828,275.045 133.162,275.378 137.5,275.5C 137.5,276.5 137.5,277.5 137.5,278.5C 100.833,278.5 64.1667,278.5 27.5,278.5C 18.9768,276.971 10.3102,275.471 1.5,274C 0.747561,273.329 0.414228,272.496 0.5,271.5C 1.74213,272.043 3.07546,272.377 4.5,272.5C 9.02945,270.209 13.6961,268.542 18.5,267.5C 19.4734,267.987 20.4734,268.487 21.5,269C 49.5131,271.535 77.5131,274.201 105.5,277C 110.833,277.667 116.167,277.667 121.5,277C 122.044,276.283 122.711,275.783 123.5,275.5C 123.81,276.738 124.31,276.738 125,275.5C 125.498,272.183 125.665,268.85 125.5,265.5C 127.5,265.5 129.5,265.5 131.5,265.5 Z"/></g>
</svg>
