<?xml version="1.0" encoding="UTF-8"?>
<!DOCTYPE svg PUBLIC "-//W3C//DTD SVG 1.1//EN" "http://www.w3.org/Graphics/SVG/1.1/DTD/svg11.dtd">
<svg xmlns="http://www.w3.org/2000/svg" version="1.1" width="250px" height="269px" style="shape-rendering:geometricPrecision; text-rendering:geometricPrecision; image-rendering:optimizeQuality; fill-rule:evenodd; clip-rule:evenodd" xmlns:xlink="http://www.w3.org/1999/xlink">
<g><path style="opacity:1" fill="#7abec4" d="M -0.5,-0.5 C 82.8333,-0.5 166.167,-0.5 249.5,-0.5C 249.5,1.83333 249.5,4.16667 249.5,6.5C 242.825,6.33375 236.158,6.50042 229.5,7C 228.667,7.83333 227.833,8.66667 227,9.5C 226.173,22.3401 226.34,35.0067 227.5,47.5C 227.953,48.4584 228.619,49.2917 229.5,50C 236.158,50.4996 242.825,50.6663 249.5,50.5C 249.5,66.8333 249.5,83.1667 249.5,99.5C 246.167,99.5 242.833,99.5 239.5,99.5C 238.883,99.6107 238.383,99.944 238,100.5C 237.173,114.006 237.34,127.34 238.5,140.5C 238.611,141.117 238.944,141.617 239.5,142C 242.817,142.498 246.15,142.665 249.5,142.5C 249.5,146.833 249.5,151.167 249.5,155.5C 241.111,155.197 232.778,155.53 224.5,156.5C 223.175,168.994 223.175,181.327 224.5,193.5C 225.552,195.256 227.219,195.923 229.5,195.5C 229.167,197.5 228.833,199.5 228.5,201.5C 227.597,204.391 227.264,207.391 227.5,210.5C 225.124,211.512 224.124,213.345 224.5,216C 225.418,218.761 226.084,221.594 226.5,224.5C 224.833,224.5 223.167,224.5 221.5,224.5C 221.192,226.924 221.526,229.257 222.5,231.5C 224.071,232.309 225.738,232.643 227.5,232.5C 226.743,237.808 227.743,242.641 230.5,247C 231.793,247.49 233.127,247.657 234.5,247.5C 236.102,250.586 237.436,253.753 238.5,257C 238.04,261.008 237.04,264.841 235.5,268.5C 225.167,268.5 214.833,268.5 204.5,268.5C 204.771,263.566 204.104,258.9 202.5,254.5C 201.575,243.917 196.575,235.917 187.5,230.5C 184.581,228.872 181.581,227.538 178.5,226.5C 178.613,222.673 177.613,219.173 175.5,216C 171.693,214.119 167.693,212.953 163.5,212.5C 177.847,203.483 185.847,190.483 187.5,173.5C 195.385,167.624 201.385,160.291 205.5,151.5C 210.769,145.092 212.936,137.759 212,129.5C 211.338,128.016 210.504,126.683 209.5,125.5C 214.956,112.759 216.956,99.4259 215.5,85.5C 216.416,85.9817 217.416,86.315 218.5,86.5C 225.168,84.9222 231.501,82.5889 237.5,79.5C 238.631,77.9255 238.798,76.2588 238,74.5C 236.604,68.9682 234.437,63.8015 231.5,59C 223.611,58.7877 216.278,60.621 209.5,64.5C 203.4,62.402 197.234,62.0686 191,63.5C 185.16,44.3329 172.327,32.8329 152.5,29C 120.673,23.7512 96.6727,34.9179 80.5,62.5C 79.2866,61.4253 77.7866,60.7586 76,60.5C 72.5506,61.4702 69.0506,62.3035 65.5,63C 61.3431,65.6641 57.3431,68.4975 53.5,71.5C 52.8826,71.3893 52.3826,71.056 52,70.5C 50,71.8333 48,73.1667 46,74.5C 44.9104,80.008 42.7437,85.008 39.5,89.5C 40.4291,92.5247 41.7624,95.3581 43.5,98C 39.7281,102.22 36.7281,106.887 34.5,112C 34.6148,113.895 35.2815,115.562 36.5,117C 40.635,119.322 44.9683,121.155 49.5,122.5C 47.8067,125.184 46.14,127.851 44.5,130.5C 35.7114,160.756 46.0447,181.59 75.5,193C 78.9483,193.859 82.4483,194.359 86,194.5C 91.1982,193.825 96.3649,193.325 101.5,193C 103.808,195.128 105.474,197.628 106.5,200.5C 106.276,204.179 105.942,207.846 105.5,211.5C 100.138,211.472 94.8049,211.806 89.5,212.5C 83.0146,213.013 77.6813,215.68 73.5,220.5C 68.7229,221.22 64.3896,223.053 60.5,226C 61.056,226.383 61.3893,226.883 61.5,227.5C 48.1394,233.473 39.9727,243.807 37,258.5C 35.9571,261.757 35.4571,265.09 35.5,268.5C 23.5,268.5 11.5,268.5 -0.5,268.5C -0.5,178.833 -0.5,89.1667 -0.5,-0.5 Z"/></g>
<g><path style="opacity:1" fill="#de7769" d="M 184.5,24.5 C 184.737,23.209 184.404,22.209 183.5,21.5C 184.742,19.3888 184.742,17.3888 183.5,15.5C 182.866,14.0532 181.699,13.3866 180,13.5C 178.93,13.528 178.097,13.8614 177.5,14.5C 175.896,15.287 175.229,16.6203 175.5,18.5C 174.71,17.3915 174.21,16.0581 174,14.5C 173.617,15.056 173.117,15.3893 172.5,15.5C 172.627,12.2199 174.294,10.5532 177.5,10.5C 189.079,11.0118 191.413,15.6785 184.5,24.5 Z"/></g>
<g><path style="opacity:1" fill="#e7a9a4" d="M 183.5,15.5 C 183.861,20.0005 182.194,21.5005 178.5,20C 179.167,19.6667 179.833,19.3333 180.5,19C 178.624,18.0816 177.624,16.5816 177.5,14.5C 178.097,13.8614 178.93,13.528 180,13.5C 181.699,13.3866 182.866,14.0532 183.5,15.5 Z"/></g>
<g><path style="opacity:1" fill="#3d6da3" d="M 28.5,14.5 C 38.8387,14.3335 49.172,14.5002 59.5,15C 60.6533,26.0902 60.82,37.2569 60,48.5C 59.5,49 59,49.5 58.5,50C 48.172,50.4998 37.8387,50.6665 27.5,50.5C 27.2172,49.7109 26.7172,49.0442 26,48.5C 25.3333,37.8333 25.3333,27.1667 26,16.5C 26.7083,15.6195 27.5416,14.9528 28.5,14.5 Z"/></g>
<g><path style="opacity:1" fill="#e3f2f4" d="M 57.5,12.5 C 47.8333,13.1667 38.1667,13.8333 28.5,14.5C 27.5416,14.9528 26.7083,15.6195 26,16.5C 25.3333,27.1667 25.3333,37.8333 26,48.5C 26.7172,49.0442 27.2172,49.7109 27.5,50.5C 37.9653,51.9714 48.632,52.638 59.5,52.5C 48.6745,53.659 37.6745,53.8257 26.5,53C 25.6667,52.1667 24.8333,51.3333 24,50.5C 23.3333,38.8333 23.3333,27.1667 24,15.5C 24.8333,14.6667 25.6667,13.8333 26.5,13C 36.828,12.5002 47.1613,12.3335 57.5,12.5 Z"/></g>
<g><path style="opacity:1" fill="#5b96b5" d="M 249.5,6.5 C 249.5,6.83333 249.5,7.16667 249.5,7.5C 243.824,7.33391 238.157,7.50058 232.5,8C 231.234,8.30945 230.067,8.80945 229,9.5C 227.708,22.1315 227.208,34.7982 227.5,47.5C 226.34,35.0067 226.173,22.3401 227,9.5C 227.833,8.66667 228.667,7.83333 229.5,7C 236.158,6.50042 242.825,6.33375 249.5,6.5 Z"/></g>
<g><path style="opacity:1" fill="#f9d2cd" d="M 177.5,14.5 C 177.624,16.5816 178.624,18.0816 180.5,19C 179.833,19.3333 179.167,19.6667 178.5,20C 182.194,21.5005 183.861,20.0005 183.5,15.5C 184.742,17.3888 184.742,19.3888 183.5,21.5C 181.504,23.3332 179.171,23.8332 176.5,23C 177.553,21.2507 177.22,19.7507 175.5,18.5C 175.229,16.6203 175.896,15.287 177.5,14.5 Z"/></g>
<g><path style="opacity:1" fill="#eef6f9" d="M 34.5,20.5 C 39.8437,20.334 45.1771,20.5006 50.5,21C 51.9308,21.4652 53.0975,22.2986 54,23.5C 54.6667,29.5 54.6667,35.5 54,41.5C 53.1667,42.3333 52.3333,43.1667 51.5,44C 45.5,44.6667 39.5,44.6667 33.5,44C 33,43.5 32.5,43 32,42.5C 30.424,36.6123 30.0906,30.6123 31,24.5C 31.6897,22.6498 32.8564,21.3164 34.5,20.5 Z"/></g>
<g><path style="opacity:1" fill="#f5f3f2" d="M 249.5,18.5 C 249.5,19.8333 249.5,21.1667 249.5,22.5C 247.473,22.3379 245.473,22.5045 243.5,23C 242.944,23.3826 242.611,23.8826 242.5,24.5C 239.651,25.9196 238.984,27.9196 240.5,30.5C 241.869,34.9165 244.869,36.5832 249.5,35.5C 249.5,37.1667 249.5,38.8333 249.5,40.5C 245.154,40.6657 240.821,40.499 236.5,40C 235.167,33 235.167,26 236.5,19C 240.821,18.501 245.154,18.3343 249.5,18.5 Z"/></g>
<g><path style="opacity:1" fill="#df6354" d="M 175.5,18.5 C 177.22,19.7507 177.553,21.2507 176.5,23C 179.171,23.8332 181.504,23.3332 183.5,21.5C 184.404,22.209 184.737,23.209 184.5,24.5C 184.049,26.7503 182.715,28.0836 180.5,28.5C 175.966,27.5919 172.633,25.2585 170.5,21.5C 170.599,19.2014 171.266,17.2014 172.5,15.5C 173.117,15.3893 173.617,15.056 174,14.5C 174.21,16.0581 174.71,17.3915 175.5,18.5 Z"/></g>
<g><path style="opacity:1" fill="#de6e62" d="M 249.5,22.5 C 249.5,23.8333 249.5,25.1667 249.5,26.5C 246.789,26.8151 244.456,26.1484 242.5,24.5C 242.611,23.8826 242.944,23.3826 243.5,23C 245.473,22.5045 247.473,22.3379 249.5,22.5 Z"/></g>
<g><path style="opacity:1" fill="#4b78ab" d="M 249.5,7.5 C 249.5,11.1667 249.5,14.8333 249.5,18.5C 245.154,18.3343 240.821,18.501 236.5,19C 235.167,26 235.167,33 236.5,40C 240.821,40.499 245.154,40.6657 249.5,40.5C 249.5,43.8333 249.5,47.1667 249.5,50.5C 242.825,50.6663 236.158,50.4996 229.5,50C 228.619,49.2917 227.953,48.4584 227.5,47.5C 227.208,34.7982 227.708,22.1315 229,9.5C 230.067,8.80945 231.234,8.30945 232.5,8C 238.157,7.50058 243.824,7.33391 249.5,7.5 Z"/></g>
<g><path style="opacity:1" fill="#91c9cd" d="M 86.5,11.5 C 88.8008,12.0604 91.1341,12.5604 93.5,13C 94.9062,17.0255 97.4062,20.1922 101,22.5C 101.167,22.8333 101.333,23.1667 101.5,23.5C 99.604,24.4656 97.604,24.7989 95.5,24.5C 95.6602,22.8008 95.4935,21.1341 95,19.5C 93.2699,20.7396 91.4366,21.7396 89.5,22.5C 87.2644,21.7815 85.0978,21.4482 83,21.5C 83.0312,24.2006 84.5312,25.7006 87.5,26C 86.2068,26.49 84.8734,26.6567 83.5,26.5C 82.6905,33.9133 78.6905,36.2467 71.5,33.5C 68.887,29.9637 68.887,26.4637 71.5,23C 75.0286,21.5343 78.6952,20.5343 82.5,20C 83.1722,16.836 84.5055,14.0027 86.5,11.5 Z"/></g>
<g><path style="opacity:1" fill="#e67968" d="M 249.5,34.5 C 249.5,34.8333 249.5,35.1667 249.5,35.5C 244.869,36.5832 241.869,34.9165 240.5,30.5C 241.469,29.6906 242.302,28.6906 243,27.5C 244.202,29.6775 244.702,32.0108 244.5,34.5C 246.167,34.5 247.833,34.5 249.5,34.5 Z"/></g>
<g><path style="opacity:1" fill="#e7a59c" d="M 242.5,24.5 C 244.456,26.1484 246.789,26.8151 249.5,26.5C 249.5,29.1667 249.5,31.8333 249.5,34.5C 247.833,34.5 246.167,34.5 244.5,34.5C 244.702,32.0108 244.202,29.6775 243,27.5C 242.302,28.6906 241.469,29.6906 240.5,30.5C 238.984,27.9196 239.651,25.9196 242.5,24.5 Z"/></g>
<g><path style="opacity:1" fill="#bbced7" d="M 57.5,12.5 C 60.1483,12.7385 61.9817,14.0718 63,16.5C 63.6667,27.5 63.6667,38.5 63,49.5C 62.5776,51.4257 61.4109,52.4257 59.5,52.5C 48.632,52.638 37.9653,51.9714 27.5,50.5C 37.8387,50.6665 48.172,50.4998 58.5,50C 59,49.5 59.5,49 60,48.5C 60.82,37.2569 60.6533,26.0902 59.5,15C 49.172,14.5002 38.8387,14.3335 28.5,14.5C 38.1667,13.8333 47.8333,13.1667 57.5,12.5 Z"/></g>
<g><path style="opacity:1" fill="#4972a6" d="M 36.5,23.5 C 40.5138,23.3345 44.5138,23.5012 48.5,24C 49.9308,24.4652 51.0975,25.2986 52,26.5C 54.4403,41.3913 48.7736,45.7246 35,39.5C 32.5971,33.7571 33.0971,28.4238 36.5,23.5 Z"/></g>
<g><path style="opacity:1" fill="#93a5b8" d="M 45.5,26.5 C 45.8039,27.1499 46.1373,27.8165 46.5,28.5C 44.9547,29.4519 43.288,29.7852 41.5,29.5C 42.9264,28.6588 44.2597,27.6588 45.5,26.5 Z"/></g>
<g><path style="opacity:1" fill="#252f43" d="M 209.5,64.5 C 211.5,71.4993 213.5,78.4993 215.5,85.5C 216.956,99.4259 214.956,112.759 209.5,125.5C 205.111,122.552 201.278,123.218 198,127.5C 196.014,133.305 195.014,139.305 195,145.5C 193.301,146.406 191.467,146.739 189.5,146.5C 189.5,140.5 189.5,134.5 189.5,128.5C 188.5,128.5 187.5,128.5 186.5,128.5C 185.069,127.918 183.736,127.085 182.5,126C 185.036,125.814 187.369,125.314 189.5,124.5C 189.667,111.496 189.5,98.4957 189,85.5C 188.617,84.944 188.117,84.6107 187.5,84.5C 186.809,82.9778 185.642,81.9778 184,81.5C 155.418,91.863 126.251,93.863 96.5,87.5C 96.5,85.8333 96.5,84.1667 96.5,82.5C 97.5,81.1667 98.5,79.8333 99.5,78.5C 100.404,77.791 100.737,76.791 100.5,75.5C 117.056,78.799 133.39,77.9656 149.5,73C 160.836,67.6524 163.336,59.4857 157,48.5C 150.053,40.1991 141.053,36.1991 130,36.5C 112.997,37.7501 99.1636,44.9168 88.5,58C 98.3959,59.024 108.063,58.3574 117.5,56C 109.698,60.2114 101.364,62.7114 92.5,63.5C 88.2984,63.8168 84.2984,63.4834 80.5,62.5C 96.6727,34.9179 120.673,23.7512 152.5,29C 172.327,32.8329 185.16,44.3329 191,63.5C 197.234,62.0686 203.4,62.402 209.5,64.5 Z"/></g>
<g><path style="opacity:1" fill="#eef6fb" d="M 41.5,29.5 C 43.288,29.7852 44.9547,29.4519 46.5,28.5C 46.1373,27.8165 45.8039,27.1499 45.5,26.5C 46.209,25.596 47.209,25.2627 48.5,25.5C 47.4708,28.53 47.4708,31.53 48.5,34.5C 47.8074,39.1513 45.1407,40.6513 40.5,39C 36.4064,35.2422 36.7397,32.0756 41.5,29.5 Z"/></g>
<g><path style="opacity:1" fill="#446da8" d="M 41.5,31.5 C 46.1585,31.0146 47.4919,32.848 45.5,37C 40.7282,37.8104 39.3948,35.9771 41.5,31.5 Z"/></g>
<g><path style="opacity:1" fill="#435063" d="M 99.5,78.5 C 98.5125,72.8591 96.1792,67.8591 92.5,63.5C 101.364,62.7114 109.698,60.2114 117.5,56C 108.063,58.3574 98.3959,59.024 88.5,58C 99.1636,44.9168 112.997,37.7501 130,36.5C 141.053,36.1991 150.053,40.1991 157,48.5C 163.336,59.4857 160.836,67.6524 149.5,73C 133.39,77.9656 117.056,78.799 100.5,75.5C 100.737,76.791 100.404,77.791 99.5,78.5 Z"/></g>
<g><path style="opacity:1" fill="#e86658" d="M 215.5,85.5 C 213.5,78.4993 211.5,71.4993 209.5,64.5C 216.278,60.621 223.611,58.7877 231.5,59C 234.437,63.8015 236.604,68.9682 238,74.5C 238.798,76.2588 238.631,77.9255 237.5,79.5C 231.501,82.5889 225.168,84.9222 218.5,86.5C 217.416,86.315 216.416,85.9817 215.5,85.5 Z"/></g>
<g><path style="opacity:1" fill="#f4c0b9" d="M 228.5,67.5 C 232.39,70.8632 232.39,74.3632 228.5,78C 224.559,77.9231 220.893,77.4231 217.5,76.5C 216.515,74.9017 216.349,73.235 217,71.5C 217.333,72.5 217.667,73.5 218,74.5C 218.038,66.825 221.538,64.4916 228.5,67.5 Z"/></g>
<g><path style="opacity:1" fill="#ed6f65" d="M 228.5,67.5 C 230.324,71.4324 229.657,74.7657 226.5,77.5C 225.304,77.1543 225.304,76.6543 226.5,76C 223.044,75.8737 220.711,74.207 219.5,71C 219.759,69.7387 220.426,68.7387 221.5,68C 223.81,67.5034 226.143,67.3367 228.5,67.5 Z"/></g>
<g><path style="opacity:1" fill="#ecf7f8" d="M 11.5,80.5 C 14.1667,80.5 16.8333,80.5 19.5,80.5C 19.4249,83.2062 19.0916,85.8728 18.5,88.5C 16.8333,88.5 15.1667,88.5 13.5,88.5C 14.2802,80.5378 13.4469,80.5378 11,88.5C 10.2782,85.7395 10.4448,83.0728 11.5,80.5 Z"/></g>
<g><path style="opacity:1" fill="#d98368" d="M 85.5,84.5 C 82.0577,87.3846 80.2244,91.0512 80,95.5C 80.8159,94.1772 81.9826,93.5106 83.5,93.5C 82.5592,95.0495 81.8925,96.7162 81.5,98.5C 79.4727,98.6621 77.4727,98.4955 75.5,98C 74.2949,96.6244 72.9616,95.4577 71.5,94.5C 71.5299,93.5028 71.0299,92.8361 70,92.5C 68.0198,93.3147 66.5198,94.648 65.5,96.5C 62.9438,95.4566 60.7772,93.7899 59,91.5C 58.3828,90.5509 58.5494,89.7175 59.5,89C 63.2725,87.0303 67.1059,85.197 71,83.5C 75.8623,89.5123 78.8623,88.8456 80,81.5C 82.3258,81.88 84.1591,82.88 85.5,84.5 Z"/></g>
<g><path style="opacity:1" fill="#d6886f" d="M 187.5,84.5 C 184.813,84.3359 182.146,84.5026 179.5,85C 153.001,95.0393 126.001,96.8726 98.5,90.5C 95.7825,90.6144 93.1159,90.9477 90.5,91.5C 91.1216,88.2244 93.1216,86.8911 96.5,87.5C 126.251,93.863 155.418,91.863 184,81.5C 185.642,81.9778 186.809,82.9778 187.5,84.5 Z"/></g>
<g><path style="opacity:1" fill="#f2b296" d="M 187.5,84.5 C 188.117,84.6107 188.617,84.944 189,85.5C 189.5,98.4957 189.667,111.496 189.5,124.5C 186.351,124.789 183.351,124.289 180.5,123C 180.307,121.355 180.14,119.521 180,117.5C 171.074,113.132 161.741,111.465 152,112.5C 151.571,114.669 152.071,116.669 153.5,118.5C 149.043,120.386 145.376,123.219 142.5,127C 138.077,127.201 133.744,126.701 129.5,125.5C 126.616,120.6 123.283,115.933 119.5,111.5C 120.209,110.596 121.209,110.263 122.5,110.5C 123.011,107.972 123.678,105.472 124.5,103C 123.218,99.8901 120.885,98.0568 117.5,97.5C 117.217,96.7109 116.717,96.0442 116,95.5C 114.362,97.7337 112.195,99.067 109.5,99.5C 106.321,98.2066 102.988,97.5399 99.5,97.5C 97.8828,96.962 96.2161,96.6287 94.5,96.5C 94.5,95.5 94.5,94.5 94.5,93.5C 93.1667,93.5 91.8333,93.5 90.5,93.5C 90.5,92.8333 90.5,92.1667 90.5,91.5C 93.1159,90.9477 95.7825,90.6144 98.5,90.5C 126.001,96.8726 153.001,95.0393 179.5,85C 182.146,84.5026 184.813,84.3359 187.5,84.5 Z"/></g>
<g><path style="opacity:1" fill="#95c1c9" d="M 71.5,94.5 C 71.1667,95.1667 70.8333,95.8333 70.5,96.5C 69.325,96.281 68.325,96.6143 67.5,97.5C 68.1272,98.4168 68.4606,99.4168 68.5,100.5C 67.5,103.167 66.5,103.167 65.5,100.5C 65.5,99.1667 65.5,97.8333 65.5,96.5C 66.5198,94.648 68.0198,93.3147 70,92.5C 71.0299,92.8361 71.5299,93.5028 71.5,94.5 Z"/></g>
<g><path style="opacity:1" fill="#f2b294" d="M 80.5,62.5 C 84.2984,63.4834 88.2984,63.8168 92.5,63.5C 96.1792,67.8591 98.5125,72.8591 99.5,78.5C 98.5,79.8333 97.5,81.1667 96.5,82.5C 93.8431,82.838 91.5098,82.1713 89.5,80.5C 88.5713,81.6888 88.238,83.0222 88.5,84.5C 87.5,84.5 86.5,84.5 85.5,84.5C 84.1591,82.88 82.3258,81.88 80,81.5C 78.8623,88.8456 75.8623,89.5123 71,83.5C 67.1059,85.197 63.2725,87.0303 59.5,89C 58.5494,89.7175 58.3828,90.5509 59,91.5C 60.7772,93.7899 62.9438,95.4566 65.5,96.5C 65.5,97.8333 65.5,99.1667 65.5,100.5C 64.8333,100.5 64.5,100.833 64.5,101.5C 61.7318,103.087 59.0652,104.92 56.5,107C 54.8659,107.494 53.1992,107.66 51.5,107.5C 50.2459,103.824 48.5793,100.324 46.5,97C 49.1975,94.9906 51.8642,92.9906 54.5,91C 53.8333,89.6667 53.1667,88.3333 52.5,87C 54.152,84.6773 55.8187,82.344 57.5,80C 55.7535,77.3413 54.4202,74.508 53.5,71.5C 57.3431,68.4975 61.3431,65.6641 65.5,63C 69.0506,62.3035 72.5506,61.4702 76,60.5C 77.7866,60.7586 79.2866,61.4253 80.5,62.5 Z"/></g>
<g><path style="opacity:1" fill="#4e7fa7" d="M 96.5,82.5 C 96.5,84.1667 96.5,85.8333 96.5,87.5C 93.1216,86.8911 91.1216,88.2244 90.5,91.5C 90.5,92.1667 90.5,92.8333 90.5,93.5C 90.5,96.1667 90.5,98.8333 90.5,101.5C 89.6787,98.3586 89.1787,95.0252 89,91.5C 87.145,94.5761 86.3117,97.9094 86.5,101.5C 77.1059,102.52 68.4393,105.52 60.5,110.5C 61.8333,107.5 63.1667,104.5 64.5,101.5C 64.5,100.833 64.8333,100.5 65.5,100.5C 66.5,103.167 67.5,103.167 68.5,100.5C 69.3149,101.429 70.1482,102.429 71,103.5C 72.7338,101.137 72.5671,98.8039 70.5,96.5C 70.8333,95.8333 71.1667,95.1667 71.5,94.5C 72.9616,95.4577 74.2949,96.6244 75.5,98C 77.4727,98.4955 79.4727,98.6621 81.5,98.5C 83.1852,97.8163 84.1852,96.483 84.5,94.5C 84.3764,93.8933 84.0431,93.56 83.5,93.5C 81.9826,93.5106 80.8159,94.1772 80,95.5C 80.2244,91.0512 82.0577,87.3846 85.5,84.5C 86.5,84.5 87.5,84.5 88.5,84.5C 88.238,83.0222 88.5713,81.6888 89.5,80.5C 91.5098,82.1713 93.8431,82.838 96.5,82.5 Z"/></g>
<g><path style="opacity:1" fill="#28282e" d="M 83.5,93.5 C 84.0431,93.56 84.3764,93.8933 84.5,94.5C 84.1852,96.483 83.1852,97.8163 81.5,98.5C 81.8925,96.7162 82.5592,95.0495 83.5,93.5 Z"/></g>
<g><path style="opacity:1" fill="#1d3955" d="M 70.5,96.5 C 72.5671,98.8039 72.7338,101.137 71,103.5C 70.1482,102.429 69.3149,101.429 68.5,100.5C 68.4606,99.4168 68.1272,98.4168 67.5,97.5C 68.325,96.6143 69.325,96.281 70.5,96.5 Z"/></g>
<g><path style="opacity:1" fill="#68b7da" d="M 117.5,97.5 C 120.885,98.0568 123.218,99.8901 124.5,103C 123.678,105.472 123.011,107.972 122.5,110.5C 121.209,110.263 120.209,110.596 119.5,111.5C 118.226,110.811 118.226,109.977 119.5,109C 117.359,108.427 115.359,107.594 113.5,106.5C 115.105,103.622 116.439,100.622 117.5,97.5 Z"/></g>
<g><path style="opacity:1" fill="#579ec5" d="M 90.5,93.5 C 91.8333,93.5 93.1667,93.5 94.5,93.5C 94.5,94.5 94.5,95.5 94.5,96.5C 96.2161,96.6287 97.8828,96.962 99.5,97.5C 99.281,98.675 99.6143,99.675 100.5,100.5C 102.413,101.373 104.247,102.373 106,103.5C 106.483,104.448 106.649,105.448 106.5,106.5C 101.167,104.834 95.834,103.167 90.5,101.5C 90.5,98.8333 90.5,96.1667 90.5,93.5 Z"/></g>
<g><path style="opacity:1" fill="#1f607a" d="M 117.5,97.5 C 116.439,100.622 115.105,103.622 113.5,106.5C 109.189,105.711 107.856,103.378 109.5,99.5C 112.195,99.067 114.362,97.7337 116,95.5C 116.717,96.0442 117.217,96.7109 117.5,97.5 Z"/></g>
<g><path style="opacity:1" fill="#d98e74" d="M 64.5,101.5 C 63.1667,104.5 61.8333,107.5 60.5,110.5C 59.8763,112.754 58.543,114.421 56.5,115.5C 53.4281,115.817 50.4281,115.484 47.5,114.5C 49.11,112.275 50.4434,109.941 51.5,107.5C 53.1992,107.66 54.8659,107.494 56.5,107C 59.0652,104.92 61.7318,103.087 64.5,101.5 Z"/></g>
<g><path style="opacity:1" fill="#1d3959" d="M 90.5,101.5 C 95.834,103.167 101.167,104.834 106.5,106.5C 127.501,119.649 134.668,138.315 128,162.5C 126.416,166.675 124.082,170.341 121,173.5C 120.833,173.167 120.667,172.833 120.5,172.5C 123.699,167.234 125.699,161.567 126.5,155.5C 127.653,149.681 127.819,143.681 127,137.5C 126.339,134.198 125.172,131.198 123.5,128.5C 117.751,115.423 107.751,108.09 93.5,106.5C 82.6576,104.877 72.6576,107.377 63.5,114C 61.2871,117.714 58.2871,120.548 54.5,122.5C 52.5212,123.812 50.8545,125.479 49.5,127.5C 49.9926,125.194 50.3259,122.861 50.5,120.5C 52.288,120.785 53.9547,120.452 55.5,119.5C 55.2907,118.914 54.9574,118.414 54.5,118C 55.756,117.583 56.4226,116.75 56.5,115.5C 58.543,114.421 59.8763,112.754 60.5,110.5C 68.4393,105.52 77.1059,102.52 86.5,101.5C 86.3117,97.9094 87.145,94.5761 89,91.5C 89.1787,95.0252 89.6787,98.3586 90.5,101.5 Z"/></g>
<g><path style="opacity:1" fill="#ca7467" d="M 239.5,99.5 C 238.535,113.118 238.202,126.784 238.5,140.5C 237.34,127.34 237.173,114.006 238,100.5C 238.383,99.944 238.883,99.6107 239.5,99.5 Z"/></g>
<g><path style="opacity:1" fill="#90cce4" d="M 93.5,106.5 C 91.5168,106.157 90.1834,106.824 89.5,108.5C 89.1667,108.5 88.8333,108.5 88.5,108.5C 77.7906,107.693 68.6239,111.36 61,119.5C 59.5422,121.96 57.7089,124.127 55.5,126C 56.1667,126.333 56.8333,126.667 57.5,127C 56.0993,127.41 54.766,127.91 53.5,128.5C 53.3253,126.379 53.6586,124.379 54.5,122.5C 58.2871,120.548 61.2871,117.714 63.5,114C 72.6576,107.377 82.6576,104.877 93.5,106.5 Z"/></g>
<g><path style="opacity:1" fill="#c9cccb" d="M 88.5,108.5 C 88.8333,108.5 89.1667,108.5 89.5,108.5C 96.2949,109.066 102.628,111.066 108.5,114.5C 107.167,115.5 107.167,116.5 108.5,117.5C 108.672,118.492 108.338,119.158 107.5,119.5C 107.306,117.088 105.973,116.088 103.5,116.5C 103.389,115.883 103.056,115.383 102.5,115C 99.5443,114.011 96.5443,113.178 93.5,112.5C 92.2867,112.747 91.62,113.414 91.5,114.5C 89.6208,113.659 87.6208,113.325 85.5,113.5C 84.9717,112.279 84.305,111.113 83.5,110C 84.4491,109.383 85.2825,109.549 86,110.5C 86.7083,109.619 87.5416,108.953 88.5,108.5 Z"/></g>
<g><path style="opacity:1" fill="#f7f9fa" d="M 88.5,108.5 C 87.5416,108.953 86.7083,109.619 86,110.5C 85.2825,109.549 84.4491,109.383 83.5,110C 84.305,111.113 84.9717,112.279 85.5,113.5C 82.2588,115.729 81.9254,118.563 84.5,122C 86.9018,122.814 89.2351,122.647 91.5,121.5C 90.8333,120.833 90.1667,120.167 89.5,119.5C 90.9501,118.15 91.6168,116.484 91.5,114.5C 91.62,113.414 92.2867,112.747 93.5,112.5C 96.5443,113.178 99.5443,114.011 102.5,115C 103.056,115.383 103.389,115.883 103.5,116.5C 102.18,119.14 100.847,121.807 99.5,124.5C 100.723,125.614 102.056,125.781 103.5,125C 104.665,123.008 105.998,121.175 107.5,119.5C 108.338,119.158 108.672,118.492 108.5,117.5C 108.833,117.5 109.167,117.5 109.5,117.5C 123.015,131.943 125.681,147.943 117.5,165.5C 117.167,166.167 116.833,166.833 116.5,167.5C 112.71,169.358 112.71,171.025 116.5,172.5C 114.5,174.833 112.5,177.167 110.5,179.5C 108.973,179.427 107.973,180.094 107.5,181.5C 105.847,181.66 104.514,182.326 103.5,183.5C 76.3004,191.485 58.1338,182.151 49,155.5C 47.3226,145.906 48.8226,136.906 53.5,128.5C 54.766,127.91 56.0993,127.41 57.5,127C 56.8333,126.667 56.1667,126.333 55.5,126C 57.7089,124.127 59.5422,121.96 61,119.5C 68.6239,111.36 77.7906,107.693 88.5,108.5 Z"/></g>
<g><path style="opacity:1" fill="#222d41" d="M 53.5,71.5 C 54.4202,74.508 55.7535,77.3413 57.5,80C 55.8187,82.344 54.152,84.6773 52.5,87C 53.1667,88.3333 53.8333,89.6667 54.5,91C 51.8642,92.9906 49.1975,94.9906 46.5,97C 48.5793,100.324 50.2459,103.824 51.5,107.5C 50.4434,109.941 49.11,112.275 47.5,114.5C 50.4281,115.484 53.4281,115.817 56.5,115.5C 56.4226,116.75 55.756,117.583 54.5,118C 54.9574,118.414 55.2907,118.914 55.5,119.5C 53.9547,120.452 52.288,120.785 50.5,120.5C 50.3259,122.861 49.9926,125.194 49.5,127.5C 48.8333,128.833 48.1667,130.167 47.5,131.5C 46.609,130.89 45.609,130.557 44.5,130.5C 46.14,127.851 47.8067,125.184 49.5,122.5C 44.9683,121.155 40.635,119.322 36.5,117C 35.2815,115.562 34.6148,113.895 34.5,112C 36.7281,106.887 39.7281,102.22 43.5,98C 41.7624,95.3581 40.4291,92.5247 39.5,89.5C 42.7437,85.008 44.9104,80.008 46,74.5C 48,73.1667 50,71.8333 52,70.5C 52.3826,71.056 52.8826,71.3893 53.5,71.5 Z"/></g>
<g><path style="opacity:1" fill="#4d4f73" d="M 70.5,116.5 C 69.8333,116.833 69.1667,117.167 68.5,117.5C 67.105,116.352 67.2716,115.352 69,114.5C 69.7172,115.044 70.2172,115.711 70.5,116.5 Z"/></g>
<g><path style="opacity:1" fill="#e6f0f1" d="M 93.5,106.5 C 107.751,108.09 117.751,115.423 123.5,128.5C 123.5,129.5 123.5,130.5 123.5,131.5C 120.56,125.559 116.227,120.893 110.5,117.5C 110.573,115.973 109.906,114.973 108.5,114.5C 102.628,111.066 96.2949,109.066 89.5,108.5C 90.1834,106.824 91.5168,106.157 93.5,106.5 Z"/></g>
<g><path style="opacity:1" fill="#525c5d" d="M 108.5,114.5 C 109.906,114.973 110.573,115.973 110.5,117.5C 110.167,117.5 109.833,117.5 109.5,117.5C 109.167,117.5 108.833,117.5 108.5,117.5C 107.167,116.5 107.167,115.5 108.5,114.5 Z"/></g>
<g><path style="opacity:1" fill="#8cc3c4" d="M 70.5,116.5 C 71.5279,116.926 72.8612,116.926 74.5,116.5C 74.8664,118.905 75.5331,121.238 76.5,123.5C 76.0485,125.312 74.8818,126.312 73,126.5C 70.8338,123.836 69.3338,120.836 68.5,117.5C 69.1667,117.167 69.8333,116.833 70.5,116.5 Z"/></g>
<g><path style="opacity:1" fill="#ec6555" d="M 239.5,99.5 C 242.833,99.5 246.167,99.5 249.5,99.5C 249.5,113.833 249.5,128.167 249.5,142.5C 246.15,142.665 242.817,142.498 239.5,142C 238.944,141.617 238.611,141.117 238.5,140.5C 238.202,126.784 238.535,113.118 239.5,99.5 Z"/></g>
<g><path style="opacity:1" fill="#549c9b" d="M 85.5,113.5 C 87.6208,113.325 89.6208,113.659 91.5,114.5C 91.6168,116.484 90.9501,118.15 89.5,119.5C 90.1667,120.167 90.8333,120.833 91.5,121.5C 89.2351,122.647 86.9018,122.814 84.5,122C 81.9254,118.563 82.2588,115.729 85.5,113.5 Z"/></g>
<g><path style="opacity:1" fill="#ceebec" d="M 85.5,115.5 C 88.7973,115.329 89.1306,115.995 86.5,117.5C 87.5896,118.609 87.5896,119.609 86.5,120.5C 85.5481,118.955 85.2148,117.288 85.5,115.5 Z"/></g>
<g><path style="opacity:1" fill="#55a6a4" d="M 103.5,116.5 C 105.973,116.088 107.306,117.088 107.5,119.5C 105.998,121.175 104.665,123.008 103.5,125C 102.056,125.781 100.723,125.614 99.5,124.5C 100.847,121.807 102.18,119.14 103.5,116.5 Z"/></g>
<g><path style="opacity:1" fill="#de7968" d="M 34.5,126.5 C 34.6602,128.199 34.4935,129.866 34,131.5C 33.3292,130.748 32.4959,130.414 31.5,130.5C 23.0817,130.198 14.7483,130.531 6.5,131.5C 5.17237,139.568 5.17237,147.735 6.5,156C 5.5842,156.278 4.91753,156.778 4.5,157.5C 3.34174,147.675 3.17508,137.675 4,127.5C 4.5,127 5,126.5 5.5,126C 15.3422,125.175 25.0089,125.342 34.5,126.5 Z"/></g>
<g><path style="opacity:1" fill="#262839" d="M 189.5,124.5 C 187.369,125.314 185.036,125.814 182.5,126C 183.736,127.085 185.069,127.918 186.5,128.5C 186.209,137.916 182.542,145.749 175.5,152C 169.502,155.466 163.169,156.299 156.5,154.5C 151.574,152.237 147.574,148.904 144.5,144.5C 143.671,140.514 142.837,136.514 142,132.5C 138.835,131.208 135.668,131.208 132.5,132.5C 132.167,132.5 131.833,132.5 131.5,132.5C 130.545,130.254 129.878,127.921 129.5,125.5C 133.744,126.701 138.077,127.201 142.5,127C 145.376,123.219 149.043,120.386 153.5,118.5C 152.071,116.669 151.571,114.669 152,112.5C 161.741,111.465 171.074,113.132 180,117.5C 180.14,119.521 180.307,121.355 180.5,123C 183.351,124.289 186.351,124.789 189.5,124.5 Z"/></g>
<g><path style="opacity:1" fill="#c7cbcb" d="M 109.5,117.5 C 109.833,117.5 110.167,117.5 110.5,117.5C 116.227,120.893 120.56,125.559 123.5,131.5C 125.36,139.329 126.027,147.329 125.5,155.5C 124.313,162.211 121.313,167.877 116.5,172.5C 112.71,171.025 112.71,169.358 116.5,167.5C 117.675,167.719 118.675,167.386 119.5,166.5C 119.043,165.702 118.376,165.369 117.5,165.5C 125.681,147.943 123.015,131.943 109.5,117.5 Z"/></g>
<g><path style="opacity:1" fill="#303f55" d="M 53.5,130.5 C 54.675,130.281 55.675,130.614 56.5,131.5C 54.9483,132.798 53.9483,132.465 53.5,130.5 Z"/></g>
<g><path style="opacity:1" fill="#fdf6f4" d="M 31.5,130.5 C 32.1217,131.627 32.955,132.627 34,133.5C 34.6667,140.167 34.6667,146.833 34,153.5C 33.5,154 33,154.5 32.5,155C 24.1467,155.832 15.8134,155.665 7.5,154.5C 6.53293,146.89 6.1996,139.223 6.5,131.5C 14.7483,130.531 23.0817,130.198 31.5,130.5 Z"/></g>
<g><path style="opacity:1" fill="#f1b195" d="M 153.5,120.5 C 163.572,119.353 172.906,121.353 181.5,126.5C 184.522,146.979 175.855,155.479 155.5,152C 146.406,146.423 142.906,138.257 145,127.5C 147.441,124.546 150.275,122.213 153.5,120.5 Z"/></g>
<g><path style="opacity:1" fill="#58a8a7" d="M 112.5,128.5 C 114.257,129.084 115.59,130.251 116.5,132C 113.699,134.386 110.533,136.22 107,137.5C 106.044,136.421 105.211,135.255 104.5,134C 107.059,131.897 109.726,130.064 112.5,128.5 Z"/></g>
<g><path style="opacity:1" fill="#4e9c99" d="M 58.5,129.5 C 60.5643,129.687 62.5643,130.187 64.5,131C 65.9901,133.2 65.6568,135.034 63.5,136.5C 61.8333,135.667 60.1667,134.833 58.5,134C 58.0338,132.701 58.0338,131.201 58.5,129.5 Z"/></g>
<g><path style="opacity:1" fill="#b0b0b5" d="M 131.5,132.5 C 131.833,132.5 132.167,132.5 132.5,132.5C 133.752,140.641 133.752,148.641 132.5,156.5C 132.034,148.499 131.701,140.499 131.5,132.5 Z"/></g>
<g><path style="opacity:1" fill="#24293e" d="M 162.5,128.5 C 165.044,128.104 167.211,128.771 169,130.5C 170.004,133.993 169.504,137.159 167.5,140C 164.472,141.14 162.305,140.306 161,137.5C 160.207,134.259 160.707,131.259 162.5,128.5 Z"/></g>
<g><path style="opacity:1" fill="#616b72" d="M 49.5,144.5 C 50.675,144.281 51.675,144.614 52.5,145.5C 50.9483,146.798 49.9483,146.465 49.5,144.5 Z"/></g>
<g><path style="opacity:1" fill="#6db5d0" d="M 123.5,128.5 C 125.172,131.198 126.339,134.198 127,137.5C 127.819,143.681 127.653,149.681 126.5,155.5C 126.167,155.5 125.833,155.5 125.5,155.5C 126.027,147.329 125.36,139.329 123.5,131.5C 123.5,130.5 123.5,129.5 123.5,128.5 Z"/></g>
<g><path style="opacity:1" fill="#57a2a1" d="M 56.5,143.5 C 62.4421,142.907 63.9421,145.241 61,150.5C 59.4447,152.515 57.6114,152.848 55.5,151.5C 56.0253,150.808 56.6919,150.308 57.5,150C 55.3162,148.102 54.9829,145.936 56.5,143.5 Z"/></g>
<g><path style="opacity:1" fill="#353847" d="M 86.5,131.5 C 87.6167,135.295 88.2833,139.295 88.5,143.5C 95.3434,147.602 102.343,151.769 109.5,156C 103.722,154.458 98.0557,152.291 92.5,149.5C 84.6758,152.854 81.8425,150.188 84,141.5C 84.3333,139.833 84.6667,138.167 85,136.5C 85.3333,137.167 85.6667,137.833 86,138.5C 86.4966,136.19 86.6633,133.857 86.5,131.5 Z"/></g>
<g><path style="opacity:1" fill="#e36859" d="M 86.5,144.5 C 89.9103,144.384 91.2436,146.05 90.5,149.5C 86.065,150.078 84.7317,148.411 86.5,144.5 Z"/></g>
<g><path style="opacity:1" fill="#549d9d" d="M 112.5,143.5 C 114.467,143.261 116.301,143.594 118,144.5C 118.769,147.099 118.602,149.599 117.5,152C 115.559,152.743 113.726,152.576 112,151.5C 112.255,148.918 112.422,146.252 112.5,143.5 Z"/></g>
<g><path style="opacity:1" fill="#dbf0f4" d="M 114.5,145.5 C 115.497,145.47 116.164,145.97 116.5,147C 115.687,148.342 115.354,149.508 115.5,150.5C 114.548,148.955 114.215,147.288 114.5,145.5 Z"/></g>
<g><path style="opacity:1" fill="#5e636f" d="M 49.5,149.5 C 50.3864,148.224 51.3864,148.224 52.5,149.5C 51.5754,150.562 50.5754,150.562 49.5,149.5 Z"/></g>
<g><path style="opacity:1" fill="#c25f53" d="M 34.5,126.5 C 35.1174,126.611 35.6174,126.944 36,127.5C 36.8252,138.008 36.6585,148.342 35.5,158.5C 25.5824,159.474 15.5824,159.807 5.5,159.5C 5.16667,158.833 4.83333,158.167 4.5,157.5C 4.91753,156.778 5.5842,156.278 6.5,156C 5.17237,147.735 5.17237,139.568 6.5,131.5C 6.1996,139.223 6.53293,146.89 7.5,154.5C 15.8134,155.665 24.1467,155.832 32.5,155C 33,154.5 33.5,154 34,153.5C 34.6667,146.833 34.6667,140.167 34,133.5C 32.955,132.627 32.1217,131.627 31.5,130.5C 32.4959,130.414 33.3292,130.748 34,131.5C 34.4935,129.866 34.6602,128.199 34.5,126.5 Z"/></g>
<g><path style="opacity:1" fill="#d86156" d="M 16.5,141.5 C 18.8813,146.365 22.8813,148.698 28.5,148.5C 27.9747,149.192 27.3081,149.692 26.5,150C 23.1667,150.667 19.8333,150.667 16.5,150C 15.8366,148.482 14.8366,147.315 13.5,146.5C 12.4911,143.473 12.4911,140.473 13.5,137.5C 14.5207,138.901 15.5207,140.235 16.5,141.5 Z"/></g>
<g><path style="opacity:1" fill="#d57467" d="M 16.5,141.5 C 15.5207,140.235 14.5207,138.901 13.5,137.5C 12.4911,140.473 12.4911,143.473 13.5,146.5C 10.4513,143.618 9.95127,140.285 12,136.5C 13.3333,135.167 14.6667,135.167 16,136.5C 16.4935,138.134 16.6602,139.801 16.5,141.5 Z"/></g>
<g><path style="opacity:1" fill="#468ab4" d="M 54.5,122.5 C 53.6586,124.379 53.3253,126.379 53.5,128.5C 48.8226,136.906 47.3226,145.906 49,155.5C 58.1338,182.151 76.3004,191.485 103.5,183.5C 98.034,186.697 92.034,188.03 85.5,187.5C 85.5,188.5 85.5,189.5 85.5,190.5C 63.9698,188.808 50.4698,177.475 45,156.5C 43.7715,147.894 44.6049,139.561 47.5,131.5C 48.1667,130.167 48.8333,128.833 49.5,127.5C 50.8545,125.479 52.5212,123.812 54.5,122.5 Z"/></g>
<g><path style="opacity:1" fill="#9daba8" d="M 35.5,158.5 C 30.8806,159.828 25.8806,160.494 20.5,160.5C 15.3218,160.499 10.3218,160.166 5.5,159.5C 15.5824,159.807 25.5824,159.474 35.5,158.5 Z"/></g>
<g><path style="opacity:1" fill="#f3b295" d="M 209.5,125.5 C 210.504,126.683 211.338,128.016 212,129.5C 212.936,137.759 210.769,145.092 205.5,151.5C 201.349,157.299 195.683,160.632 188.5,161.5C 188.605,165.548 188.272,169.548 187.5,173.5C 185.847,190.483 177.847,203.483 163.5,212.5C 163.5,212.833 163.5,213.167 163.5,213.5C 162.167,213.5 160.833,213.5 159.5,213.5C 159.5,220.833 159.5,228.167 159.5,235.5C 159.672,236.492 159.338,237.158 158.5,237.5C 158.666,229.826 158.5,222.159 158,214.5C 139.569,219.814 123.069,216.314 108.5,204C 114.074,199.421 118.574,193.921 122,187.5C 122.671,186.748 123.504,186.414 124.5,186.5C 124.557,187.609 124.89,188.609 125.5,189.5C 128.473,194.995 133.14,197.995 139.5,198.5C 147.376,198.072 153.043,194.405 156.5,187.5C 158.385,185.947 159.385,183.947 159.5,181.5C 159.5,180.833 159.5,180.167 159.5,179.5C 160.776,178.614 160.776,177.614 159.5,176.5C 153.158,175.204 146.825,175.371 140.5,177C 139.584,177.278 138.918,177.778 138.5,178.5C 136.046,179.227 133.713,180.227 131.5,181.5C 129.883,182.038 128.216,182.371 126.5,182.5C 125.475,182.103 125.308,181.437 126,180.5C 128.36,177.64 130.527,174.64 132.5,171.5C 136.235,170.847 139.901,170.014 143.5,169C 144.582,167.67 145.249,166.17 145.5,164.5C 146.622,162.948 147.122,161.282 147,159.5C 145.786,161.049 144.286,162.215 142.5,163C 139.183,163.498 135.85,163.665 132.5,163.5C 131.833,163.5 131.167,163.5 130.5,163.5C 131.167,161.167 131.833,158.833 132.5,156.5C 133.752,148.641 133.752,140.641 132.5,132.5C 135.668,131.208 138.835,131.208 142,132.5C 142.837,136.514 143.671,140.514 144.5,144.5C 145.232,151.417 148.899,156.251 155.5,159C 162.041,161.259 168.374,160.925 174.5,158C 169.244,158.56 163.91,158.56 158.5,158C 157.177,157.184 156.511,156.017 156.5,154.5C 163.169,156.299 169.502,155.466 175.5,152C 182.542,145.749 186.209,137.916 186.5,128.5C 187.5,128.5 188.5,128.5 189.5,128.5C 189.5,134.5 189.5,140.5 189.5,146.5C 191.467,146.739 193.301,146.406 195,145.5C 195.014,139.305 196.014,133.305 198,127.5C 201.278,123.218 205.111,122.552 209.5,125.5 Z"/></g>
<g><path style="opacity:1" fill="#e29175" d="M 144.5,144.5 C 147.574,148.904 151.574,152.237 156.5,154.5C 156.511,156.017 157.177,157.184 158.5,158C 163.91,158.56 169.244,158.56 174.5,158C 168.374,160.925 162.041,161.259 155.5,159C 148.899,156.251 145.232,151.417 144.5,144.5 Z"/></g>
<g><path style="opacity:1" fill="#3b9b91" d="M 63.5,159.5 C 66.1662,159.066 67.3329,160.066 67,162.5C 65.1435,164.406 62.9769,165.24 60.5,165C 59.9781,164.439 59.6448,163.772 59.5,163C 60.6856,161.588 62.019,160.421 63.5,159.5 Z"/></g>
<g><path style="opacity:1" fill="#49a09f" d="M 109.5,160.5 C 113.415,160.274 115.582,161.941 116,165.5C 114.119,166.354 112.286,166.021 110.5,164.5C 109.571,163.311 109.238,161.978 109.5,160.5 Z"/></g>
<g><path style="opacity:1" fill="#f8f8f9" d="M 249.5,160.5 C 249.5,161.5 249.5,162.5 249.5,163.5C 245.833,163.833 243.833,165.833 243.5,169.5C 239.306,169.27 235.806,167.603 233,164.5C 231.249,169.879 232.749,174.046 237.5,177C 236.377,178.044 235.044,178.71 233.5,179C 238.909,181.025 244.242,180.859 249.5,178.5C 249.5,180.833 249.5,183.167 249.5,185.5C 242.08,185.797 234.746,185.464 227.5,184.5C 227.334,176.826 227.5,169.159 228,161.5C 235.079,160.52 242.245,160.187 249.5,160.5 Z"/></g>
<g><path style="opacity:1" fill="#ca594b" d="M 145.5,164.5 C 142.141,166.487 138.475,166.987 134.5,166C 133.619,165.292 132.953,164.458 132.5,163.5C 135.85,163.665 139.183,163.498 142.5,163C 144.286,162.215 145.786,161.049 147,159.5C 147.122,161.282 146.622,162.948 145.5,164.5 Z"/></g>
<g><path style="opacity:1" fill="#334155" d="M 57.5,164.5 C 60.2296,165.991 60.063,167.325 57,168.5C 55.07,166.923 55.2367,165.59 57.5,164.5 Z"/></g>
<g><path style="opacity:1" fill="#283443" d="M 117.5,165.5 C 118.376,165.369 119.043,165.702 119.5,166.5C 118.675,167.386 117.675,167.719 116.5,167.5C 116.833,166.833 117.167,166.167 117.5,165.5 Z"/></g>
<g><path style="opacity:1" fill="#5188ad" d="M 99.5,97.5 C 102.988,97.5399 106.321,98.2066 109.5,99.5C 107.856,103.378 109.189,105.711 113.5,106.5C 115.359,107.594 117.359,108.427 119.5,109C 118.226,109.977 118.226,110.811 119.5,111.5C 123.283,115.933 126.616,120.6 129.5,125.5C 129.878,127.921 130.545,130.254 131.5,132.5C 131.701,140.499 132.034,148.499 132.5,156.5C 131.833,158.833 131.167,161.167 130.5,163.5C 128.582,168.343 125.916,172.677 122.5,176.5C 122.631,175.761 122.464,175.094 122,174.5C 120.333,176.167 118.667,177.833 117,179.5C 116.601,179.272 116.435,178.938 116.5,178.5C 117.087,177.233 117.087,176.233 116.5,175.5C 114.736,177.278 112.736,178.611 110.5,179.5C 112.5,177.167 114.5,174.833 116.5,172.5C 121.313,167.877 124.313,162.211 125.5,155.5C 125.833,155.5 126.167,155.5 126.5,155.5C 125.699,161.567 123.699,167.234 120.5,172.5C 120.667,172.833 120.833,173.167 121,173.5C 124.082,170.341 126.416,166.675 128,162.5C 134.668,138.315 127.501,119.649 106.5,106.5C 106.649,105.448 106.483,104.448 106,103.5C 104.247,102.373 102.413,101.373 100.5,100.5C 99.6143,99.675 99.281,98.675 99.5,97.5 Z"/></g>
<g><path style="opacity:1" fill="#222b3d" d="M 205.5,151.5 C 201.385,160.291 195.385,167.624 187.5,173.5C 188.272,169.548 188.605,165.548 188.5,161.5C 195.683,160.632 201.349,157.299 205.5,151.5 Z"/></g>
<g><path style="opacity:1" fill="#e17a68" d="M 249.5,155.5 C 249.5,157.167 249.5,158.833 249.5,160.5C 242.245,160.187 235.079,160.52 228,161.5C 227.5,169.159 227.334,176.826 227.5,184.5C 224.925,186.845 223.925,189.845 224.5,193.5C 223.175,181.327 223.175,168.994 224.5,156.5C 232.778,155.53 241.111,155.197 249.5,155.5 Z"/></g>
<g><path style="opacity:1" fill="#64ada6" d="M 99.5,170.5 C 100.708,169.218 102.042,169.218 103.5,170.5C 104.64,172.078 105.14,173.744 105,175.5C 104.586,175.957 104.086,176.291 103.5,176.5C 102.143,174.435 100.81,172.435 99.5,170.5 Z"/></g>
<g><path style="opacity:1" fill="#518dc2" d="M 249.5,163.5 C 249.5,168.5 249.5,173.5 249.5,178.5C 244.242,180.859 238.909,181.025 233.5,179C 235.044,178.71 236.377,178.044 237.5,177C 232.749,174.046 231.249,169.879 233,164.5C 235.806,167.603 239.306,169.27 243.5,169.5C 243.833,165.833 245.833,163.833 249.5,163.5 Z"/></g>
<g><path style="opacity:1" fill="#6cb4b4" d="M 72.5,169.5 C 75.2776,169.022 77.2776,170.022 78.5,172.5C 77.5589,174.772 76.2255,176.772 74.5,178.5C 72.6082,175.956 70.7748,175.956 69,178.5C 69.8363,175.511 71.003,172.511 72.5,169.5 Z"/></g>
<g><path style="opacity:1" fill="#d76a5a" d="M 159.5,179.5 C 152.529,178.71 145.529,178.377 138.5,178.5C 138.918,177.778 139.584,177.278 140.5,177C 146.825,175.371 153.158,175.204 159.5,176.5C 160.776,177.614 160.776,178.614 159.5,179.5 Z"/></g>
<g><path style="opacity:1" fill="#4c9795" d="M 86.5,171.5 C 88.288,171.215 89.9547,171.548 91.5,172.5C 90.8938,174.709 90.2272,176.876 89.5,179C 87.7412,179.798 86.0745,179.631 84.5,178.5C 85.3249,176.199 85.9916,173.865 86.5,171.5 Z"/></g>
<g><path style="opacity:1" fill="#fdf7f7" d="M 138.5,178.5 C 145.529,178.377 152.529,178.71 159.5,179.5C 159.5,180.167 159.5,180.833 159.5,181.5C 151.679,183.97 143.679,184.803 135.5,184C 133.68,183.8 132.347,182.966 131.5,181.5C 133.713,180.227 136.046,179.227 138.5,178.5 Z"/></g>
<g><path style="opacity:1" fill="#d07972" d="M 203.5,175.5 C 205.527,175.338 207.527,175.505 209.5,176C 212.816,177.251 213.15,178.918 210.5,181C 205.822,182.006 203.488,180.172 203.5,175.5 Z"/></g>
<g><path style="opacity:1" fill="#ae4f54" d="M 131.5,181.5 C 132.347,182.966 133.68,183.8 135.5,184C 143.679,184.803 151.679,183.97 159.5,181.5C 159.385,183.947 158.385,185.947 156.5,187.5C 150.446,190.359 144.113,192.359 137.5,193.5C 133.145,193.16 129.145,191.826 125.5,189.5C 124.89,188.609 124.557,187.609 124.5,186.5C 124.527,184.801 125.194,183.467 126.5,182.5C 128.216,182.371 129.883,182.038 131.5,181.5 Z"/></g>
<g><path style="opacity:1" fill="#fcf5f1" d="M 156.5,187.5 C 153.043,194.405 147.376,198.072 139.5,198.5C 133.14,197.995 128.473,194.995 125.5,189.5C 129.145,191.826 133.145,193.16 137.5,193.5C 144.113,192.359 150.446,190.359 156.5,187.5 Z"/></g>
<g><path style="opacity:1" fill="#1f3751" d="M 44.5,130.5 C 45.609,130.557 46.609,130.89 47.5,131.5C 44.6049,139.561 43.7715,147.894 45,156.5C 50.4698,177.475 63.9698,188.808 85.5,190.5C 89.8967,190.575 94.23,190.075 98.5,189C 102.035,188.337 105.035,186.837 107.5,184.5C 110.5,182.5 113.5,180.5 116.5,178.5C 116.435,178.938 116.601,179.272 117,179.5C 118.667,177.833 120.333,176.167 122,174.5C 122.464,175.094 122.631,175.761 122.5,176.5C 118.567,181.555 113.734,185.555 108,188.5C 107.555,191.678 107.722,194.845 108.5,198C 108.333,199.167 108.167,200.333 108,201.5C 107.617,200.944 107.117,200.611 106.5,200.5C 105.474,197.628 103.808,195.128 101.5,193C 96.3649,193.325 91.1982,193.825 86,194.5C 82.4483,194.359 78.9483,193.859 75.5,193C 46.0447,181.59 35.7114,160.756 44.5,130.5 Z"/></g>
<g><path style="opacity:1" fill="#66bde3" d="M 107.5,181.5 C 106.375,182.652 106.375,183.652 107.5,184.5C 105.035,186.837 102.035,188.337 98.5,189C 94.23,190.075 89.8967,190.575 85.5,190.5C 85.5,189.5 85.5,188.5 85.5,187.5C 92.034,188.03 98.034,186.697 103.5,183.5C 104.514,182.326 105.847,181.66 107.5,181.5 Z"/></g>
<g><path style="opacity:1" fill="#23252a" d="M 86.5,182.5 C 88.337,182.639 88.6704,183.306 87.5,184.5C 86.7025,184.043 86.3691,183.376 86.5,182.5 Z"/></g>
<g><path style="opacity:1" fill="#4d687b" d="M 110.5,179.5 C 110.027,180.906 109.027,181.573 107.5,181.5C 107.973,180.094 108.973,179.427 110.5,179.5 Z"/></g>
<g><path style="opacity:1" fill="#dff0f6" d="M 116.5,178.5 C 113.5,180.5 110.5,182.5 107.5,184.5C 106.375,183.652 106.375,182.652 107.5,181.5C 109.027,181.573 110.027,180.906 110.5,179.5C 112.736,178.611 114.736,177.278 116.5,175.5C 117.087,176.233 117.087,177.233 116.5,178.5 Z"/></g>
<g><path style="opacity:1" fill="#cd5d50" d="M 227.5,184.5 C 234.746,185.464 242.08,185.797 249.5,185.5C 249.5,186.833 249.5,188.167 249.5,189.5C 242.646,189.176 235.979,189.509 229.5,190.5C 229.5,192.167 229.5,193.833 229.5,195.5C 227.219,195.923 225.552,195.256 224.5,193.5C 223.925,189.845 224.925,186.845 227.5,184.5 Z"/></g>
<g><path style="opacity:1" fill="#f3f8f9" d="M 229.5,190.5 C 235.833,190.5 242.167,190.5 248.5,190.5C 248.5,191.833 248.5,193.167 248.5,194.5C 242.077,194.209 235.744,194.542 229.5,195.5C 229.5,193.833 229.5,192.167 229.5,190.5 Z"/></g>
<g><path style="opacity:1" fill="#74b7db" d="M 248.5,194.5 C 248.5,198.833 248.5,203.167 248.5,207.5C 248.167,207.5 247.833,207.5 247.5,207.5C 245.62,207.229 244.287,207.896 243.5,209.5C 240.418,207.925 237.751,205.758 235.5,203C 234.552,202.517 233.552,202.351 232.5,202.5C 231.432,201.566 230.099,201.232 228.5,201.5C 228.833,199.5 229.167,197.5 229.5,195.5C 235.744,194.542 242.077,194.209 248.5,194.5 Z"/></g>
<g><path style="opacity:1" fill="#f7f6f7" d="M 32.5,184.5 C 37.5111,184.334 42.5111,184.501 47.5,185C 48,185.5 48.5,186 49,186.5C 49.6667,191.167 49.6667,195.833 49,200.5C 48.6258,201.416 48.1258,202.25 47.5,203C 42.5,203.667 37.5,203.667 32.5,203C 32,202.5 31.5,202 31,201.5C 30.3333,196.5 30.3333,191.5 31,186.5C 31.7172,185.956 32.2172,185.289 32.5,184.5 Z"/></g>
<g><path style="opacity:1" fill="#db7b8e" d="M 47.5,189.5 C 49.6751,198.49 46.3418,201.99 37.5,200C 36.0577,199.623 35.0577,198.79 34.5,197.5C 34.5,195.167 34.5,192.833 34.5,190.5C 35.5,190.5 36.5,190.5 37.5,190.5C 37.2011,192.604 37.5344,194.604 38.5,196.5C 38.6541,195.091 38.8208,193.424 39,191.5C 39.3242,193.569 40.1575,193.902 41.5,192.5C 42.2811,193.729 42.7811,195.062 43,196.5C 44.7814,194.276 46.2814,191.942 47.5,189.5 Z"/></g>
<g><path style="opacity:1" fill="#eca4b6" d="M 47.5,189.5 C 46.2814,191.942 44.7814,194.276 43,196.5C 42.7811,195.062 42.2811,193.729 41.5,192.5C 40.1575,193.902 39.3242,193.569 39,191.5C 38.8208,193.424 38.6541,195.091 38.5,196.5C 37.5344,194.604 37.2011,192.604 37.5,190.5C 36.5,190.5 35.5,190.5 34.5,190.5C 34.5,192.833 34.5,195.167 34.5,197.5C 32.037,188.146 35.7036,184.98 45.5,188C 46.4158,188.278 47.0825,188.778 47.5,189.5 Z"/></g>
<g><path style="opacity:1" fill="#e5f1f8" d="M 240.5,198.5 C 242.167,198.5 243.833,198.5 245.5,198.5C 245.5,200.833 245.5,203.167 245.5,205.5C 243.833,205.5 242.167,205.5 240.5,205.5C 240.5,203.167 240.5,200.833 240.5,198.5 Z"/></g>
<g><path style="opacity:1" fill="#ddbab1" d="M 229.5,190.5 C 235.979,189.509 242.646,189.176 249.5,189.5C 249.5,195.5 249.5,201.5 249.5,207.5C 249.167,207.5 248.833,207.5 248.5,207.5C 248.5,203.167 248.5,198.833 248.5,194.5C 248.5,193.167 248.5,191.833 248.5,190.5C 242.167,190.5 235.833,190.5 229.5,190.5 Z"/></g>
<g><path style="opacity:1" fill="#557aa0" d="M 228.5,201.5 C 230.099,201.232 231.432,201.566 232.5,202.5C 230.552,204.32 229.552,206.654 229.5,209.5C 230.978,209.238 232.311,209.571 233.5,210.5C 231.54,211.519 229.54,211.519 227.5,210.5C 227.264,207.391 227.597,204.391 228.5,201.5 Z"/></g>
<g><path style="opacity:1" fill="#e0896e" d="M 130.5,163.5 C 131.167,163.5 131.833,163.5 132.5,163.5C 132.953,164.458 133.619,165.292 134.5,166C 138.475,166.987 142.141,166.487 145.5,164.5C 145.249,166.17 144.582,167.67 143.5,169C 139.901,170.014 136.235,170.847 132.5,171.5C 130.527,174.64 128.36,177.64 126,180.5C 125.308,181.437 125.475,182.103 126.5,182.5C 125.194,183.467 124.527,184.801 124.5,186.5C 123.504,186.414 122.671,186.748 122,187.5C 118.574,193.921 114.074,199.421 108.5,204C 123.069,216.314 139.569,219.814 158,214.5C 158.5,222.159 158.666,229.826 158.5,237.5C 157.284,245.266 153.95,251.933 148.5,257.5C 136.93,263.182 125.93,262.182 115.5,254.5C 109.134,250.473 105.134,244.806 103.5,237.5C 103.916,232.507 104.249,227.507 104.5,222.5C 104.552,218.802 104.886,215.135 105.5,211.5C 105.942,207.846 106.276,204.179 106.5,200.5C 107.117,200.611 107.617,200.944 108,201.5C 108.167,200.333 108.333,199.167 108.5,198C 107.722,194.845 107.555,191.678 108,188.5C 113.734,185.555 118.567,181.555 122.5,176.5C 125.916,172.677 128.582,168.343 130.5,163.5 Z"/></g>
<g><path style="opacity:1" fill="#8f8596" d="M 22.5,208.5 C 24.4109,208.574 25.5776,209.574 26,211.5C 27.0429,214.757 27.5429,218.09 27.5,221.5C 22.9338,222.807 18.2671,223.474 13.5,223.5C 12.6594,219.837 12.1594,216.17 12,212.5C 15.6285,211.259 19.1285,209.926 22.5,208.5 Z"/></g>
<g><path style="opacity:1" fill="#f2b193" d="M 232.5,202.5 C 233.552,202.351 234.552,202.517 235.5,203C 237.751,205.758 240.418,207.925 243.5,209.5C 244.048,211.532 245.381,212.532 247.5,212.5C 247.5,210.833 247.5,209.167 247.5,207.5C 247.833,207.5 248.167,207.5 248.5,207.5C 248.833,207.5 249.167,207.5 249.5,207.5C 249.5,223.167 249.5,238.833 249.5,254.5C 242.239,254.131 239.739,250.797 242,244.5C 240.005,246.747 237.505,247.747 234.5,247.5C 233.127,247.657 231.793,247.49 230.5,247C 227.743,242.641 226.743,237.808 227.5,232.5C 225.738,232.643 224.071,232.309 222.5,231.5C 221.526,229.257 221.192,226.924 221.5,224.5C 223.167,224.5 224.833,224.5 226.5,224.5C 226.084,221.594 225.418,218.761 224.5,216C 224.124,213.345 225.124,211.512 227.5,210.5C 229.54,211.519 231.54,211.519 233.5,210.5C 232.311,209.571 230.978,209.238 229.5,209.5C 229.552,206.654 230.552,204.32 232.5,202.5 Z"/></g>
<g><path style="opacity:1" fill="#6d7e9d" d="M 247.5,207.5 C 247.5,209.167 247.5,210.833 247.5,212.5C 245.381,212.532 244.048,211.532 243.5,209.5C 244.287,207.896 245.62,207.229 247.5,207.5 Z"/></g>
<g><path style="opacity:1" fill="#65b5db" d="M 163.5,212.5 C 167.693,212.953 171.693,214.119 175.5,216C 177.613,219.173 178.613,222.673 178.5,226.5C 179.564,240.465 179.564,254.465 178.5,268.5C 173.833,268.5 169.167,268.5 164.5,268.5C 164.407,257.155 164.74,245.822 165.5,234.5C 165.293,227.432 164.626,220.432 163.5,213.5C 163.5,213.167 163.5,212.833 163.5,212.5 Z"/></g>
<g><path style="opacity:1" fill="#e3d9e3" d="M 16.5,212.5 C 20.4301,213.437 20.4301,214.437 16.5,215.5C 17.09,216.799 18.09,217.632 19.5,218C 18.1279,218.402 16.7946,218.902 15.5,219.5C 14.973,217.207 15.3063,214.873 16.5,212.5 Z"/></g>
<g><path style="opacity:1" fill="#274569" d="M 105.5,211.5 C 104.886,215.135 104.552,218.802 104.5,222.5C 102.167,222.5 99.8333,222.5 97.5,222.5C 96.2488,220.618 95.0821,218.618 94,216.5C 91.1651,217.916 88.4985,219.583 86,221.5C 85.6012,221.272 85.4346,220.938 85.5,220.5C 85.7759,217.281 87.1093,214.615 89.5,212.5C 94.8049,211.806 100.138,211.472 105.5,211.5 Z"/></g>
<g><path style="opacity:1" fill="#7a8084" d="M 73.5,220.5 C 73.5,236.5 73.5,252.5 73.5,268.5C 72.5,268.5 71.5,268.5 70.5,268.5C 70.6666,255.829 70.4999,243.162 70,230.5C 69.3292,229.748 68.4959,229.414 67.5,229.5C 65.8984,227.926 63.8984,227.259 61.5,227.5C 61.3893,226.883 61.056,226.383 60.5,226C 64.3896,223.053 68.7229,221.22 73.5,220.5 Z"/></g>
<g><path style="opacity:1" fill="#2b4e72" d="M 163.5,213.5 C 164.626,220.432 165.293,227.432 165.5,234.5C 164.74,245.822 164.407,257.155 164.5,268.5C 163.5,268.5 162.5,268.5 161.5,268.5C 161.91,257.281 161.244,246.281 159.5,235.5C 159.5,228.167 159.5,220.833 159.5,213.5C 160.833,213.5 162.167,213.5 163.5,213.5 Z"/></g>
<g><path style="opacity:1" fill="#ecac93" d="M 97.5,222.5 C 99.8333,222.5 102.167,222.5 104.5,222.5C 104.249,227.507 103.916,232.507 103.5,237.5C 99.9582,233.226 97.9582,228.226 97.5,222.5 Z"/></g>
<g><path style="opacity:1" fill="#eec8b2" d="M 178.5,226.5 C 181.581,227.538 184.581,228.872 187.5,230.5C 193.379,236.954 196.713,244.621 197.5,253.5C 199.045,254.452 200.712,254.785 202.5,254.5C 204.104,258.9 204.771,263.566 204.5,268.5C 195.833,268.5 187.167,268.5 178.5,268.5C 179.564,254.465 179.564,240.465 178.5,226.5 Z"/></g>
<g><path style="opacity:1" fill="#3671a0" d="M 97.5,222.5 C 97.9582,228.226 99.9582,233.226 103.5,237.5C 105.134,244.806 109.134,250.473 115.5,254.5C 122.874,265.453 132.54,267.953 144.5,262C 146.041,260.629 147.375,259.129 148.5,257.5C 153.95,251.933 157.284,245.266 158.5,237.5C 159.338,237.158 159.672,236.492 159.5,235.5C 161.244,246.281 161.91,257.281 161.5,268.5C 145.5,268.5 129.5,268.5 113.5,268.5C 113.548,265.708 112.215,263.875 109.5,263C 103.486,261.828 97.4865,261.662 91.5,262.5C 90.6518,264.409 90.3184,266.409 90.5,268.5C 89.8333,268.5 89.1667,268.5 88.5,268.5C 87.4982,254.148 86.1649,239.815 84.5,225.5C 84.5068,223.631 84.8401,221.964 85.5,220.5C 85.4346,220.938 85.6012,221.272 86,221.5C 88.4985,219.583 91.1651,217.916 94,216.5C 95.0821,218.618 96.2488,220.618 97.5,222.5 Z"/></g>
<g><path style="opacity:1" fill="#efc9b3" d="M 69.5,241.5 C 69.5,250.5 69.5,259.5 69.5,268.5C 60.8333,268.5 52.1667,268.5 43.5,268.5C 46.192,259.734 50.3586,251.734 56,244.5C 57.5325,242.438 59.5325,241.104 62,240.5C 62.4935,238.866 62.6602,237.199 62.5,235.5C 63.5,235.5 64.5,235.5 65.5,235.5C 65.238,234.022 65.5713,232.689 66.5,231.5C 67.7169,234.891 68.7169,238.224 69.5,241.5 Z"/></g>
<g><path style="opacity:1" fill="#f0d2bf" d="M 61.5,227.5 C 63.8984,227.259 65.8984,227.926 67.5,229.5C 69.2541,233.258 69.9208,237.258 69.5,241.5C 68.7169,238.224 67.7169,234.891 66.5,231.5C 65.5713,232.689 65.238,234.022 65.5,235.5C 64.5,235.5 63.5,235.5 62.5,235.5C 62.6602,237.199 62.4935,238.866 62,240.5C 59.5325,241.104 57.5325,242.438 56,244.5C 50.3586,251.734 46.192,259.734 43.5,268.5C 40.8333,268.5 38.1667,268.5 35.5,268.5C 35.4571,265.09 35.9571,261.757 37,258.5C 39.9727,243.807 48.1394,233.473 61.5,227.5 Z"/></g>
<g><path style="opacity:1" fill="#64b5db" d="M 89.5,212.5 C 87.1093,214.615 85.7759,217.281 85.5,220.5C 84.8401,221.964 84.5068,223.631 84.5,225.5C 86.1649,239.815 87.4982,254.148 88.5,268.5C 83.5,268.5 78.5,268.5 73.5,268.5C 73.5,252.5 73.5,236.5 73.5,220.5C 77.6813,215.68 83.0146,213.013 89.5,212.5 Z"/></g>
<g><path style="opacity:1" fill="#a99b96" d="M 67.5,229.5 C 68.4959,229.414 69.3292,229.748 70,230.5C 70.4999,243.162 70.6666,255.829 70.5,268.5C 70.1667,268.5 69.8333,268.5 69.5,268.5C 69.5,259.5 69.5,250.5 69.5,241.5C 69.9208,237.258 69.2541,233.258 67.5,229.5 Z"/></g>
<g><path style="opacity:1" fill="#b7bfbb" d="M 187.5,230.5 C 196.575,235.917 201.575,243.917 202.5,254.5C 200.712,254.785 199.045,254.452 197.5,253.5C 196.713,244.621 193.379,236.954 187.5,230.5 Z"/></g>
<g><path style="opacity:1" fill="#de896d" d="M 249.5,254.5 C 249.5,259.167 249.5,263.833 249.5,268.5C 244.833,268.5 240.167,268.5 235.5,268.5C 237.04,264.841 238.04,261.008 238.5,257C 237.436,253.753 236.102,250.586 234.5,247.5C 237.505,247.747 240.005,246.747 242,244.5C 239.739,250.797 242.239,254.131 249.5,254.5 Z"/></g>
<g><path style="opacity:1" fill="#2a4564" d="M 115.5,254.5 C 125.93,262.182 136.93,263.182 148.5,257.5C 147.375,259.129 146.041,260.629 144.5,262C 132.54,267.953 122.874,265.453 115.5,254.5 Z"/></g>
<g><path style="opacity:1" fill="#e8e6e0" d="M 113.5,268.5 C 109.833,268.5 106.167,268.5 102.5,268.5C 102.953,267.542 103.619,266.708 104.5,266C 101.183,265.023 98.516,265.856 96.5,268.5C 94.5,268.5 92.5,268.5 90.5,268.5C 90.3184,266.409 90.6518,264.409 91.5,262.5C 97.4865,261.662 103.486,261.828 109.5,263C 112.215,263.875 113.548,265.708 113.5,268.5 Z"/></g>
<g><path style="opacity:1" fill="#4e5e77" d="M 102.5,268.5 C 100.5,268.5 98.5,268.5 96.5,268.5C 98.516,265.856 101.183,265.023 104.5,266C 103.619,266.708 102.953,267.542 102.5,268.5 Z"/></g>
</svg>
