<?xml version="1.0" encoding="UTF-8"?>
<!DOCTYPE svg PUBLIC "-//W3C//DTD SVG 1.1//EN" "http://www.w3.org/Graphics/SVG/1.1/DTD/svg11.dtd">
<svg xmlns="http://www.w3.org/2000/svg" version="1.1" width="154px" height="163px" style="shape-rendering:geometricPrecision; text-rendering:geometricPrecision; image-rendering:optimizeQuality; fill-rule:evenodd; clip-rule:evenodd" xmlns:xlink="http://www.w3.org/1999/xlink">
<g><path style="opacity:1" fill="#fefefe" d="M -0.5,-0.5 C 50.8333,-0.5 102.167,-0.5 153.5,-0.5C 153.5,53.8333 153.5,108.167 153.5,162.5C 102.167,162.5 50.8333,162.5 -0.5,162.5C -0.5,108.167 -0.5,53.8333 -0.5,-0.5 Z"/></g>
<g><path style="opacity:1" fill="#9fdcf8" d="M 74.5,48.5 C 79.6503,47.3493 84.9836,47.1826 90.5,48C 91.4158,48.2784 92.0825,48.7784 92.5,49.5C 86.5362,48.6932 80.5362,48.3599 74.5,48.5 Z"/></g>
<g><path style="opacity:1" fill="#37a1d9" d="M 74.5,48.5 C 80.5362,48.3599 86.5362,48.6932 92.5,49.5C 92.8333,49.5 93.1667,49.5 93.5,49.5C 95.3713,50.7972 97.3713,51.7972 99.5,52.5C 87.1485,49.9586 74.8152,49.9586 62.5,52.5C 65.9961,49.9521 69.9961,48.6187 74.5,48.5 Z"/></g>
<g><path style="opacity:1" fill="#22a2e6" d="M 99.5,52.5 C 102.861,54.5113 106.194,56.5113 109.5,58.5C 114.423,63.3437 118.09,69.0104 120.5,75.5C 120.5,76.1667 120.5,76.8333 120.5,77.5C 121.954,87.2312 121.621,96.8979 119.5,106.5C 117.515,109.798 115.515,113.131 113.5,116.5C 112.5,117.167 111.5,117.833 110.5,118.5C 107.248,119.418 104.914,121.418 103.5,124.5C 101.819,126.008 99.8185,127.008 97.5,127.5C 89.3287,129.524 80.9953,130.524 72.5,130.5C 70.4352,130.483 68.4352,130.15 66.5,129.5C 64.4336,127.801 62.1003,126.468 59.5,125.5C 55.2917,123.632 51.6251,120.965 48.5,117.5C 45.2733,112.38 42.6067,107.047 40.5,101.5C 39.5379,94.5878 39.2045,87.5878 39.5,80.5C 40.871,78.064 41.871,75.3973 42.5,72.5C 43.6803,69.4604 45.347,66.7937 47.5,64.5C 51.6398,61.2599 55.9731,58.2599 60.5,55.5C 61.1272,54.5832 61.4606,53.5832 61.5,52.5C 61.8333,52.5 62.1667,52.5 62.5,52.5C 74.8152,49.9586 87.1485,49.9586 99.5,52.5 Z"/></g>
<g><path style="opacity:1" fill="#d9f5fc" d="M 93.5,49.5 C 99.1645,50.2503 104.331,52.2503 109,55.5C 109.483,56.448 109.649,57.448 109.5,58.5C 106.194,56.5113 102.861,54.5113 99.5,52.5C 97.3713,51.7972 95.3713,50.7972 93.5,49.5 Z"/></g>
<g><path style="opacity:1" fill="#4fabde" d="M 61.5,52.5 C 61.4606,53.5832 61.1272,54.5832 60.5,55.5C 55.9731,58.2599 51.6398,61.2599 47.5,64.5C 50.0074,61.5272 52.674,58.5272 55.5,55.5C 57.5266,54.4867 59.5266,53.4867 61.5,52.5 Z"/></g>
<g><path style="opacity:1" fill="#b4e9fb" d="M 42.5,72.5 C 41.871,75.3973 40.871,78.064 39.5,80.5C 39.3455,77.284 40.3455,74.6174 42.5,72.5 Z"/></g>
<g><path style="opacity:1" fill="#2ca3e1" d="M 90.5,79.5 C 91.5,82.1667 92.5,84.8333 93.5,87.5C 92.5041,87.5858 91.6708,87.2524 91,86.5C 89.8822,84.2346 89.0488,81.9013 88.5,79.5C 84.4862,79.3345 80.4862,79.5012 76.5,80C 75.8095,81.0674 75.3095,82.2341 75,83.5C 72.9555,82.228 71.1222,82.5614 69.5,84.5C 70.5953,88.135 71.9286,88.3017 73.5,85C 74.7839,84.3162 75.9505,84.4829 77,85.5C 78.5262,90.6822 80.3596,95.6822 82.5,100.5C 83.5,100.5 84.5,100.5 85.5,100.5C 80.015,107.2 77.6816,106.533 78.5,98.5C 74.1157,99.4245 70.7824,98.0912 68.5,94.5C 67.6758,91.2356 67.3424,87.9023 67.5,84.5C 68.2026,82.2843 69.5359,80.451 71.5,79C 77.9147,78.2098 84.248,78.3765 90.5,79.5 Z"/></g>
<g><path style="opacity:1" fill="#1fa2e7" d="M 93.5,87.5 C 93.5086,89.3084 93.0086,90.9751 92,92.5C 89.5297,94.7907 87.6964,97.4574 86.5,100.5C 86.1667,100.5 85.8333,100.5 85.5,100.5C 84.5,100.5 83.5,100.5 82.5,100.5C 80.3596,95.6822 78.5262,90.6822 77,85.5C 75.9505,84.4829 74.7839,84.3162 73.5,85C 71.9286,88.3017 70.5953,88.135 69.5,84.5C 71.1222,82.5614 72.9555,82.228 75,83.5C 75.3095,82.2341 75.8095,81.0674 76.5,80C 80.4862,79.5012 84.4862,79.3345 88.5,79.5C 89.0488,81.9013 89.8822,84.2346 91,86.5C 91.6708,87.2524 92.5041,87.5858 93.5,87.5 Z"/></g>
<g><path style="opacity:1" fill="#4daddf" d="M 90.5,79.5 C 92.1733,80.343 93.34,81.6763 94,83.5C 96.3611,91.4361 93.8611,97.1028 86.5,100.5C 87.6964,97.4574 89.5297,94.7907 92,92.5C 93.0086,90.9751 93.5086,89.3084 93.5,87.5C 92.5,84.8333 91.5,82.1667 90.5,79.5 Z"/></g>
<g><path style="opacity:1" fill="#e7fbfd" d="M 120.5,75.5 C 122.453,76.2439 123.453,77.7439 123.5,80C 124.926,87.5376 124.759,95.0376 123,102.5C 122.617,103.056 122.117,103.389 121.5,103.5C 122.525,95.8613 122.691,88.1947 122,80.5C 121.768,79.2625 121.268,78.2625 120.5,77.5C 120.5,76.8333 120.5,76.1667 120.5,75.5 Z"/></g>
<g><path style="opacity:1" fill="#68b9e2" d="M 120.5,77.5 C 121.268,78.2625 121.768,79.2625 122,80.5C 122.691,88.1947 122.525,95.8613 121.5,103.5C 120.833,104.5 120.167,105.5 119.5,106.5C 121.621,96.8979 121.954,87.2312 120.5,77.5 Z"/></g>
<g><path style="opacity:1" fill="#abe2fb" d="M 67.5,84.5 C 67.3424,87.9023 67.6758,91.2356 68.5,94.5C 67.6618,94.8417 67.3284,95.5084 67.5,96.5C 66.8333,96.1667 66.1667,95.8333 65.5,95.5C 65.5,94.8333 65.5,94.1667 65.5,93.5C 66.1667,90.5 66.8333,87.5 67.5,84.5 Z"/></g>
<g><path style="opacity:1" fill="#c3f4fd" d="M 95.5,80.5 C 98.4424,86.4195 97.9424,92.0862 94,97.5C 90.6425,100.031 87.4758,102.698 84.5,105.5C 81.3516,106.576 78.3516,107.909 75.5,109.5C 75.5,106.5 75.5,103.5 75.5,100.5C 71.7396,101.226 69.073,99.8931 67.5,96.5C 67.3284,95.5084 67.6618,94.8417 68.5,94.5C 70.7824,98.0912 74.1157,99.4245 78.5,98.5C 77.6816,106.533 80.015,107.2 85.5,100.5C 85.8333,100.5 86.1667,100.5 86.5,100.5C 93.8611,97.1028 96.3611,91.4361 94,83.5C 93.34,81.6763 92.1733,80.343 90.5,79.5C 84.248,78.3765 77.9147,78.2098 71.5,79C 69.5359,80.451 68.2026,82.2843 67.5,84.5C 66.8333,87.5 66.1667,90.5 65.5,93.5C 63.2253,86.8654 64.892,81.3654 70.5,77C 76.8333,76.3333 83.1667,76.3333 89.5,77C 91.8867,77.5637 93.8867,78.7304 95.5,80.5 Z"/></g>
<g><path style="opacity:1" fill="#36a4dd" d="M 95.5,80.5 C 96.4959,80.4142 97.3292,80.7476 98,81.5C 98.6667,85.8333 98.6667,90.1667 98,94.5C 97.5,95 97,95.5 96.5,96C 98.1066,97.049 98.7733,98.549 98.5,100.5C 97.0695,100.579 95.7362,100.246 94.5,99.5C 93.5,100.5 92.5,101.5 91.5,102.5C 91.7093,103.086 92.0426,103.586 92.5,104C 89.7934,104.395 87.1267,104.895 84.5,105.5C 87.4758,102.698 90.6425,100.031 94,97.5C 97.9424,92.0862 98.4424,86.4195 95.5,80.5 Z"/></g>
<g><path style="opacity:1" fill="#44a8e0" d="M 65.5,95.5 C 66.1667,95.8333 66.8333,96.1667 67.5,96.5C 69.073,99.8931 71.7396,101.226 75.5,100.5C 75.5,103.5 75.5,106.5 75.5,109.5C 74.5318,107.393 74.1984,105.059 74.5,102.5C 72.1305,102.851 69.7972,103.018 67.5,103C 68.0219,102.439 68.3552,101.772 68.5,101C 67.259,99.2691 66.259,97.4358 65.5,95.5 Z"/></g>
<g><path style="opacity:1" fill="#49abdd" d="M 84.5,105.5 C 82.802,107.867 80.4686,109.534 77.5,110.5C 76.5836,110.457 75.9169,110.124 75.5,109.5C 78.3516,107.909 81.3516,106.576 84.5,105.5 Z"/></g>
<g><path style="opacity:1" fill="#dcf8fe" d="M 40.5,101.5 C 42.6067,107.047 45.2733,112.38 48.5,117.5C 46.867,116.055 45.0337,114.721 43,113.5C 41.3831,109.694 40.5498,105.694 40.5,101.5 Z"/></g>
<g><path style="opacity:1" fill="#43a4d8" d="M 110.5,118.5 C 108.761,121.243 106.427,123.243 103.5,124.5C 104.914,121.418 107.248,119.418 110.5,118.5 Z"/></g>
<g><path style="opacity:1" fill="#d7f6fd" d="M 113.5,116.5 C 111.597,119.748 109.263,122.748 106.5,125.5C 103.231,126.959 100.231,128.792 97.5,131C 94.5184,131.498 91.5184,131.665 88.5,131.5C 91.8257,130.901 94.8257,129.568 97.5,127.5C 99.8185,127.008 101.819,126.008 103.5,124.5C 106.427,123.243 108.761,121.243 110.5,118.5C 111.5,117.833 112.5,117.167 113.5,116.5 Z"/></g>
<g><path style="opacity:1" fill="#8acced" d="M 59.5,125.5 C 62.1003,126.468 64.4336,127.801 66.5,129.5C 63.4542,129.275 61.1209,127.942 59.5,125.5 Z"/></g>
<g><path style="opacity:1" fill="#53abda" d="M 97.5,127.5 C 94.8257,129.568 91.8257,130.901 88.5,131.5C 82.9738,131.821 77.6405,131.488 72.5,130.5C 80.9953,130.524 89.3287,129.524 97.5,127.5 Z"/></g>
<g><path style="opacity:1" fill="#e0fcfe" d="M 66.5,129.5 C 68.4352,130.15 70.4352,130.483 72.5,130.5C 77.6405,131.488 82.9738,131.821 88.5,131.5C 88.3893,132.117 88.056,132.617 87.5,133C 82.1667,133.667 76.8333,133.667 71.5,133C 69.5692,132.098 67.9025,130.931 66.5,129.5 Z"/></g>
</svg>
