<svg version="1.1" id="Layer_1" xmlns="http://www.w3.org/2000/svg" xmlns:xlink="http://www.w3.org/1999/xlink" x="0px" y="0px"
	 width="100%" viewBox="0 0 319 303" enable-background="new 0 0 319 303" xml:space="preserve">
<path fill="#FEFDFD" opacity="1.000000" stroke="none" 
	d="
M47.000000,304.000000 
	C31.673288,304.000000 16.346577,304.000000 1.014898,304.000000 
	C1.009932,203.050232 1.009932,102.100471 1.009932,1.075355 
	C107.237137,1.075355 213.474335,1.075355 319.855774,1.075355 
	C319.855774,101.999847 319.855774,202.999893 319.855774,304.000000 
	C306.258789,304.000000 292.598053,304.000000 278.555664,303.606476 
	C278.840179,302.816650 279.475677,302.144958 280.177307,302.066833 
	C286.901428,301.318237 293.647705,300.759583 300.361908,299.936646 
	C302.306274,299.698334 304.167816,298.784515 306.067291,298.180359 
	C306.018036,297.577148 305.968750,296.973938 305.919464,296.370728 
	C287.358765,292.009521 268.306824,291.892517 249.451950,290.486298 
	C249.176285,286.625580 252.964355,283.051025 249.386139,279.307373 
	C249.173752,273.152771 249.050781,267.370453 248.365082,261.655670 
	C247.582275,255.131866 246.298386,248.668167 245.639099,242.179321 
	C260.740417,239.024063 275.440277,235.892181 290.117859,232.659225 
	C291.143463,232.433319 292.004150,231.458710 293.365723,230.852005 
	C296.523315,231.196487 299.256683,231.521210 302.317719,232.000824 
	C305.608002,233.366516 308.570587,234.577347 311.533203,235.788177 
	C311.810730,235.399261 312.088257,235.010361 312.365814,234.621445 
	C309.430664,228.896835 304.512543,224.915421 299.318970,221.227783 
	C296.366364,219.131317 293.758118,219.503296 291.606781,222.987885 
	C290.152618,224.048859 288.991119,224.973526 287.373291,225.852142 
	C275.053345,226.256180 263.189758,226.706284 250.669250,227.181305 
	C252.351166,213.203125 251.152161,198.676727 257.290161,185.112396 
	C258.477203,182.489166 258.914581,179.396774 259.109924,176.481400 
	C259.533997,170.153046 255.485275,165.674179 252.136597,160.573868 
	C251.469208,154.847794 250.742798,149.531082 250.383530,144.090378 
	C253.294815,141.356674 254.548996,138.659882 251.399384,135.280396 
	C251.728638,133.326202 251.969833,131.751541 252.500320,130.188797 
	C253.173218,130.186142 253.556824,130.171555 254.180984,130.394226 
	C258.047607,133.197510 261.673676,135.763550 265.516876,138.627548 
	C272.754791,143.351746 277.619934,142.592697 281.072693,135.108582 
	C283.417542,130.025986 284.156494,124.109413 285.035309,118.475601 
	C285.641205,114.591492 283.081299,112.194389 279.349854,111.589645 
	C275.270691,110.928551 271.125336,110.675659 266.624878,110.126251 
	C263.149994,108.868683 260.059082,107.729713 257.046326,106.189445 
	C257.067902,104.115166 257.011322,102.442192 257.129517,100.455276 
	C259.296906,91.898033 263.821320,84.017365 260.973999,74.622620 
	C260.513214,66.417274 260.265350,58.621792 259.286163,50.919281 
	C258.912170,47.977180 256.863495,45.247974 255.578033,42.421745 
	C254.970779,42.603008 254.363541,42.784267 253.756287,42.965527 
	C253.756287,46.481964 253.756287,49.998405 253.756287,53.514843 
	C253.435303,53.548027 253.114319,53.581211 252.793335,53.614399 
	C252.256287,52.346825 251.719223,51.079254 251.182175,49.811684 
	C250.667587,49.993748 250.153000,50.175816 249.638412,50.357883 
	C250.499680,53.171146 251.378983,55.979046 252.217270,58.799133 
	C253.116898,61.825531 253.977982,64.863388 254.492310,67.889923 
	C251.769470,67.205971 249.410248,66.528328 246.728333,65.648407 
	C236.794586,64.760544 233.721756,67.391724 231.620743,78.026382 
	C229.641510,83.839134 227.969437,89.468498 226.053101,94.999069 
	C225.381775,94.607567 224.954681,94.314857 224.370026,93.614952 
	C223.616043,86.758614 223.019623,80.309479 222.526688,73.695145 
	C222.630173,73.529953 222.497513,73.163361 222.624634,72.813644 
	C222.838623,71.977432 222.925476,71.490936 223.294037,70.751953 
	C224.092758,68.474129 225.279037,66.336937 224.963791,64.450676 
	C224.532486,61.869884 228.186737,58.784782 224.125031,56.314335 
	C224.680161,50.822910 221.306152,48.778778 217.173004,46.937641 
	C213.925934,45.005974 211.385666,40.982483 206.910355,44.196327 
	C204.802597,42.489853 202.452347,40.587044 199.246094,37.991215 
	C199.699280,40.930347 199.962631,42.638344 200.307251,44.873409 
	C198.949127,44.289368 198.060379,43.907173 196.407822,43.196514 
	C195.625519,47.098301 194.931808,50.558285 194.198059,54.393333 
	C195.018158,58.256630 195.878281,61.744865 196.536591,65.554672 
	C196.218292,70.858200 196.044312,75.839638 195.999359,80.822243 
	C195.939194,87.489258 195.982132,87.489647 202.881409,88.501602 
	C202.525589,89.841637 202.175369,90.856445 201.429398,91.915192 
	C196.056717,93.219513 191.079788,94.479912 186.068848,95.333847 
	C185.583878,91.955559 185.132950,88.983742 184.701447,85.657051 
	C183.599411,82.822594 182.477936,80.343010 181.250137,77.530792 
	C174.771149,68.119164 159.280579,67.448570 154.859283,78.275642 
	C153.866531,81.013359 153.134155,83.514114 152.335312,86.382759 
	C153.339111,89.833595 154.409393,92.916534 155.449341,96.432648 
	C155.157654,98.854568 154.896347,100.843300 154.373886,103.031769 
	C152.302521,106.120667 150.492279,109.009842 148.442581,112.124344 
	C147.414291,114.184814 146.625488,116.019966 145.602646,117.614838 
	C144.792480,116.009888 144.061172,114.688423 143.667221,113.273064 
	C142.006805,107.308098 138.622116,103.572906 132.079025,102.781334 
	C128.702835,102.372887 125.461693,100.848152 122.153580,99.411171 
	C121.119240,97.845215 120.090858,96.695877 119.168243,95.192917 
	C124.352470,91.583618 125.303391,86.581741 125.360977,80.976524 
	C126.108513,80.293716 126.586708,79.722366 127.427223,79.029663 
	C128.744827,75.360046 129.316483,71.648163 130.743973,68.301315 
	C132.965546,63.092754 131.623352,59.199512 125.955566,56.464405 
	C122.208931,53.501488 118.600136,50.856270 114.548676,48.132774 
	C110.070168,48.766800 106.034340,49.479103 101.654839,50.314415 
	C97.681908,52.636475 94.163551,55.055027 90.387215,56.962994 
	C87.524841,58.409191 86.244148,60.169720 87.444183,63.242603 
	C88.603951,66.212410 88.914223,68.924187 85.953384,71.118568 
	C85.471329,71.475838 85.172348,72.194717 84.978607,72.806572 
	C84.142311,75.447670 90.371605,88.866310 93.070343,89.741066 
	C96.284431,90.782860 99.640060,91.387970 103.033417,92.530609 
	C103.745621,94.894272 104.358757,96.909599 104.708374,99.119423 
	C103.304817,99.915077 102.164780,100.516243 100.610245,101.075729 
	C92.152321,103.015915 82.606346,102.221855 78.652267,112.440063 
	C75.239784,111.344238 72.219254,110.291214 68.930649,108.972824 
	C67.764748,106.139870 66.866928,103.572289 65.945206,100.639191 
	C65.613182,98.855194 65.305069,97.436729 65.257523,95.735199 
	C67.776131,88.619530 67.326866,81.879341 64.874405,74.766045 
	C65.091072,63.292942 59.761562,58.468430 48.841042,60.109596 
	C41.286678,61.244884 35.257343,64.833794 31.595629,71.835854 
	C31.543219,66.752914 31.797289,61.897560 32.312775,56.737190 
	C33.311348,52.573414 33.721481,48.782028 30.310171,45.234085 
	C30.092731,46.899555 29.942070,48.053539 29.680073,50.060295 
	C27.788399,46.415966 26.315308,43.578037 24.242605,39.584957 
	C21.454210,47.372303 24.144154,52.333187 27.313961,57.528252 
	C26.121464,61.003895 24.874609,64.066505 24.000050,67.231979 
	C20.893637,78.475655 15.047762,89.755943 23.981985,101.391624 
	C22.667215,105.180969 21.358034,108.593613 19.866865,112.377701 
	C19.443851,116.498138 19.202822,120.247131 18.944490,124.406448 
	C20.205658,128.249374 21.484129,131.681961 22.872004,135.442413 
	C27.363026,142.503983 34.696674,143.929337 41.407459,146.520355 
	C41.517567,149.934799 41.822029,152.954102 41.955555,156.275879 
	C37.157013,163.895996 32.101303,171.167862 32.115837,180.230362 
	C32.127533,187.523590 32.793236,194.840240 33.573410,202.103043 
	C35.613007,221.089890 37.801483,240.061661 40.077579,259.021820 
	C41.243347,268.732819 42.723999,278.406036 43.935539,288.400757 
	C43.253162,290.146545 42.697590,291.587830 41.689087,293.021240 
	C33.410866,293.790924 25.415672,293.733124 18.044901,297.566437 
	C19.483946,298.786926 20.908758,299.664917 22.418543,299.850098 
	C29.142847,300.674866 35.903099,301.210388 42.622395,302.069214 
	C44.139084,302.263092 45.543758,303.333252 47.000000,304.000000 
z"/>
<path fill="#EFF0EF" opacity="1.000000" stroke="none" 
	d="
M249.356079,290.901245 
	C268.306824,291.892517 287.358765,292.009521 305.919464,296.370728 
	C305.968750,296.973938 306.018036,297.577148 306.067291,298.180359 
	C304.167816,298.784515 302.306274,299.698334 300.361908,299.936646 
	C293.647705,300.759583 286.901428,301.318237 280.177307,302.066833 
	C279.475677,302.144958 278.840179,302.816650 278.087006,303.606476 
	C201.312439,304.000000 124.624878,304.000000 47.468658,304.000000 
	C45.543758,303.333252 44.139084,302.263092 42.622395,302.069214 
	C35.903099,301.210388 29.142847,300.674866 22.418543,299.850098 
	C20.908758,299.664917 19.483946,298.786926 18.044901,297.566437 
	C25.415672,293.733124 33.410866,293.790924 41.710754,293.446655 
	C43.055893,295.283447 43.829082,297.814819 44.813419,297.899750 
	C49.671253,298.319000 54.584988,298.090485 61.172062,298.090485 
	C59.350830,295.312347 58.385418,293.839691 57.889072,292.256317 
	C65.171104,291.755524 71.984070,291.365448 78.821823,291.361328 
	C77.747177,298.005371 77.825661,298.136658 83.829552,298.079376 
	C86.973846,298.049347 90.116859,297.885040 93.699280,297.899658 
	C100.348618,298.017975 106.559120,298.017975 114.575989,298.017975 
	C111.720734,294.683685 109.753830,292.386810 108.267853,290.060974 
	C117.967598,289.708679 127.186401,289.385284 136.429901,289.492432 
	C136.904800,292.826660 134.278687,297.360535 139.261536,297.984833 
	C144.894669,298.690582 150.684265,298.147491 156.459503,298.147491 
	C156.459503,297.065674 156.658966,296.431549 156.427139,296.137634 
	C154.928284,294.237366 153.335342,292.411346 152.017258,290.182251 
	C157.911423,289.536926 163.559967,289.155762 169.212769,289.075958 
	C170.833755,289.053040 172.467056,289.901276 173.888031,290.614319 
	C170.537476,292.514038 167.393600,294.149475 164.249725,295.784912 
	C164.427307,296.429901 164.604889,297.074921 164.782471,297.719940 
	C172.224686,297.719940 179.667694,297.758820 187.106949,297.610992 
	C187.500153,297.603180 187.861938,296.014862 188.683990,295.120422 
	C193.227478,295.081238 197.341919,295.300110 201.415497,294.987122 
	C203.204803,294.849640 206.765701,295.345734 205.169235,290.959900 
	C207.676697,290.449524 209.942902,290.280182 211.991913,290.374146 
	C209.276581,292.888489 210.054825,294.602417 212.977280,294.951080 
	C217.721695,295.517181 222.532883,295.501923 227.309250,295.829010 
	C230.855423,296.071869 232.562775,294.594666 232.660095,290.986145 
	C234.657852,290.980164 236.254776,290.971344 237.730515,291.279572 
	C236.760040,292.822571 235.910767,294.048584 234.303635,296.368530 
	C240.622620,295.145905 246.572449,297.520752 249.356079,290.901245 
z"/>
<path fill="#EAC159" opacity="1.000000" stroke="none" 
	d="
M122.159531,99.827805 
	C125.461693,100.848152 128.702835,102.372887 132.079025,102.781334 
	C138.622116,103.572906 142.006805,107.308098 143.667221,113.273064 
	C144.061172,114.688423 144.792480,116.009888 145.687622,117.937332 
	C146.270859,119.089989 146.535065,119.679848 146.853638,120.623009 
	C148.462662,124.569481 150.017334,128.162659 151.683090,132.012589 
	C156.794250,128.183945 161.505707,124.654732 166.526611,121.059814 
	C168.134506,120.366463 169.432938,119.738815 170.916870,119.402451 
	C172.184830,121.168442 173.267258,122.643143 174.252441,124.446747 
	C173.382523,126.158241 172.609863,127.540840 171.550156,129.087982 
	C166.808487,134.497986 162.353882,139.743469 157.538055,145.035370 
	C153.064667,148.754333 148.678589,148.562683 144.053802,145.662354 
	C142.389359,142.862198 140.796036,140.406586 139.137085,137.598572 
	C138.060059,135.283524 137.048676,133.320847 135.436432,130.192154 
	C134.088806,136.049271 133.046463,140.579529 131.758331,145.363907 
	C127.802795,147.023163 123.911049,148.084442 120.432037,149.925629 
	C116.586365,151.960831 113.076340,152.665939 109.217529,150.265793 
	C108.618088,149.892929 107.641510,150.126373 106.839333,150.079437 
	C107.075188,150.459213 107.311050,150.838974 107.546913,151.218735 
	C106.669701,151.982910 105.819389,152.781006 104.908722,153.503006 
	C103.660873,154.492340 102.367210,155.423935 101.093185,156.380280 
	C102.704079,157.248871 104.241936,158.597198 105.945580,158.856583 
	C107.799347,159.138794 109.830231,158.516571 111.743401,158.101883 
	C117.822937,156.784134 123.883629,155.379395 129.917191,154.409927 
	C129.437607,157.533157 128.992432,160.254715 128.198547,163.094360 
	C119.890244,163.919067 111.930641,164.625717 103.598763,165.230011 
	C101.283798,164.708832 99.341110,164.289993 97.342545,163.424866 
	C97.324226,150.796295 93.095528,139.665070 88.971924,127.643608 
	C81.072769,136.705917 75.633949,147.375366 63.587200,151.324387 
	C58.862228,151.937180 54.514656,152.442902 50.145950,152.569977 
	C49.805283,150.492889 49.485748,148.794464 49.561882,147.054596 
	C51.902550,146.644852 53.886852,146.416565 55.785652,145.883636 
	C63.415524,143.742203 68.381020,139.007492 70.032944,130.743286 
	C70.448944,129.687790 70.723709,128.914413 71.324509,127.960098 
	C73.043297,126.514679 74.585274,124.037888 75.803917,124.187897 
	C82.366531,124.995667 86.826988,121.302963 91.396515,117.760170 
	C97.644508,112.916039 103.786179,107.934753 110.383652,103.003937 
	C114.582428,101.939674 118.370979,100.883743 122.159531,99.827805 
z"/>
<path fill="#719CC2" opacity="1.000000" stroke="none" 
	d="
M224.527588,94.022148 
	C224.954681,94.314857 225.381775,94.607567 226.326172,95.166275 
	C229.527969,97.042183 232.212448,98.652100 235.084534,100.580765 
	C237.085724,110.892647 237.446899,111.312874 243.798477,111.305923 
	C239.344513,117.417114 241.749878,123.101357 243.627228,129.008209 
	C241.198883,131.817795 239.045883,134.408218 236.538605,136.950287 
	C233.148895,134.900162 230.113480,132.898392 226.012802,130.194122 
	C226.012802,133.390182 226.012802,136.220322 225.970367,139.458588 
	C225.988159,147.850357 226.048386,155.833969 225.731110,163.842041 
	C223.907013,164.262329 222.460449,164.658157 220.585419,165.040588 
	C210.357330,165.044022 200.557709,165.060837 190.414429,164.820343 
	C190.243912,159.080704 190.417068,153.598373 190.851273,147.902954 
	C192.139191,146.916519 193.166061,146.143173 194.541382,145.283142 
	C202.415222,140.746216 209.972214,136.347855 217.437485,131.798965 
	C218.817322,130.958176 220.192200,129.696121 220.909851,128.291519 
	C221.716888,126.712029 221.776642,124.750717 222.161469,122.955498 
	C220.395584,123.282669 218.625488,123.589012 216.865311,123.944405 
	C215.707001,124.178284 214.562973,124.482841 213.412552,124.755760 
	C211.368271,126.259117 210.465561,129.850174 208.279648,130.998520 
	C203.216171,133.658554 197.532013,135.137085 191.772430,136.921204 
	C190.720825,136.764709 189.996292,136.781662 189.071259,136.526718 
	C185.997604,133.776840 183.124420,131.298859 180.153320,128.394363 
	C179.983292,125.351669 179.911209,122.735504 179.941193,119.719055 
	C180.040237,116.535553 180.037201,113.752319 180.034149,110.599167 
	C180.650101,108.152039 181.266068,106.074837 182.019928,103.660011 
	C183.193573,100.916000 184.229279,98.509605 185.484924,96.036652 
	C185.704865,95.970085 186.102859,95.740303 186.102859,95.740311 
	C191.079788,94.479912 196.056717,93.219513 201.815430,92.110352 
	C207.246674,92.141899 211.896133,92.022202 216.858109,92.013466 
	C219.622940,92.756996 222.075272,93.389572 224.527588,94.022148 
z"/>
<path fill="#8F99B4" opacity="1.000000" stroke="none" 
	d="
M245.232239,242.178360 
	C246.298386,248.668167 247.582275,255.131866 248.365082,261.655670 
	C249.050781,267.370453 249.173752,273.152771 249.076721,279.346436 
	C246.653793,280.904175 244.699448,282.020752 242.502319,282.835754 
	C238.584900,270.760834 234.910294,258.987549 231.135803,246.738708 
	C230.689941,235.496429 230.292847,224.731049 230.010300,213.962646 
	C229.614990,198.897446 229.305069,183.830002 228.885834,168.411438 
	C228.507263,166.937347 228.201492,165.815323 227.871582,164.606628 
	C227.847427,164.519958 228.005417,164.433823 228.005264,164.020203 
	C228.036133,163.057480 228.067154,162.508392 228.560410,161.964706 
	C235.345779,161.978867 241.668930,161.987610 248.139664,162.300964 
	C254.529419,168.747391 256.471588,175.977875 253.960281,184.424957 
	C249.674362,198.841202 245.737411,213.369202 241.080612,227.663498 
	C239.051758,233.891144 240.890686,238.188110 245.232239,242.178360 
z"/>
<path fill="#729EC4" opacity="1.000000" stroke="none" 
	d="
M44.062340,288.096313 
	C42.723999,278.406036 41.243347,268.732819 40.077579,259.021820 
	C37.801483,240.061661 35.613007,221.089890 33.573410,202.103043 
	C32.793236,194.840240 32.127533,187.523590 32.115837,180.230362 
	C32.101303,171.167862 37.157013,163.895996 42.349155,156.290466 
	C44.225170,155.922836 45.536644,155.843109 47.148659,155.864914 
	C47.995823,156.239944 48.542454,156.513443 48.945412,157.130890 
	C45.148773,164.012451 41.215977,170.799210 43.200027,178.462479 
	C44.908726,185.062225 48.316059,191.210236 50.785275,197.629944 
	C52.060509,200.945419 52.928917,204.417358 53.651909,208.105530 
	C52.871502,224.326447 52.488598,240.262756 51.945610,256.193634 
	C51.572254,267.147430 50.976784,278.093628 50.117401,289.046570 
	C47.856918,288.732025 45.959629,288.414154 44.062340,288.096313 
z"/>
<path fill="#848BA4" opacity="1.000000" stroke="none" 
	d="
M245.639099,242.179321 
	C240.890686,238.188110 239.051758,233.891144 241.080612,227.663498 
	C245.737411,213.369202 249.674362,198.841202 253.960281,184.424957 
	C256.471588,175.977875 254.529419,168.747391 248.381165,162.030029 
	C249.675919,161.297379 250.876740,161.140305 252.077576,160.983215 
	C255.485275,165.674179 259.533997,170.153046 259.109924,176.481400 
	C258.914581,179.396774 258.477203,182.489166 257.290161,185.112396 
	C251.152161,198.676727 252.351166,213.203125 250.669250,227.181305 
	C263.189758,226.706284 275.053345,226.256180 287.698853,225.946671 
	C289.967712,227.668930 291.454620,229.250595 292.941528,230.832260 
	C292.004150,231.458710 291.143463,232.433319 290.117859,232.659225 
	C275.440277,235.892181 260.740417,239.024063 245.639099,242.179321 
z"/>
<path fill="#F0A7B8" opacity="1.000000" stroke="none" 
	d="
M70.998474,128.141052 
	C70.723709,128.914413 70.448944,129.687790 69.762833,130.960587 
	C67.814751,132.304581 66.334724,133.719162 64.729843,133.878815 
	C61.024567,134.247421 57.258739,134.009232 53.517467,134.013855 
	C44.693447,134.024765 35.868866,133.986328 27.045979,134.091263 
	C25.614332,134.108292 24.190205,134.757538 22.762600,135.114548 
	C21.484129,131.681961 20.205658,128.249374 19.364143,124.356323 
	C21.922033,123.597343 24.041605,123.051727 26.164124,123.040024 
	C40.993122,122.958237 55.822727,122.986908 70.744110,123.321213 
	C70.890205,125.155159 70.944336,126.648102 70.998474,128.141052 
z"/>
<path fill="#4D2060" opacity="1.000000" stroke="none" 
	d="
M102.934364,92.182274 
	C99.640060,91.387970 96.284431,90.782860 93.070343,89.741066 
	C90.371605,88.866310 84.142311,75.447670 84.978607,72.806572 
	C85.172348,72.194717 85.471329,71.475838 85.953384,71.118568 
	C88.914223,68.924187 88.603951,66.212410 87.444183,63.242603 
	C86.244148,60.169720 87.524841,58.409191 90.387215,56.962994 
	C94.163551,55.055027 97.681908,52.636475 101.717102,50.716156 
	C102.415558,52.929451 102.932175,54.860725 102.960487,56.799137 
	C103.064178,63.897617 103.014809,70.998482 103.004425,78.098419 
	C102.997559,82.793068 102.958824,87.487656 102.934364,92.182274 
z"/>
<path fill="#F2B0BD" opacity="1.000000" stroke="none" 
	d="
M70.652138,122.980209 
	C55.822727,122.986908 40.993122,122.958237 26.164124,123.040024 
	C24.041605,123.051727 21.922033,123.597343 19.381447,123.945984 
	C19.202822,120.247131 19.443851,116.498138 20.310051,112.375435 
	C25.028187,112.263420 29.169874,113.048042 33.203434,112.672211 
	C40.421711,111.999649 47.937160,113.605713 54.851089,110.128578 
	C55.421345,109.841789 56.417889,110.529083 57.225445,110.566193 
	C61.085743,110.743599 64.949173,110.852837 68.909798,111.387032 
	C69.556114,115.518578 70.104126,119.249390 70.652138,122.980209 
z"/>
<path fill="#4F2669" opacity="1.000000" stroke="none" 
	d="
M103.033417,92.530609 
	C102.958824,87.487656 102.997559,82.793068 103.004425,78.098419 
	C103.014809,70.998482 103.064178,63.897617 102.960487,56.799137 
	C102.932175,54.860725 102.415558,52.929451 102.060776,50.593155 
	C106.034340,49.479103 110.070168,48.766800 114.550262,48.587578 
	C114.996353,58.531803 114.885521,67.944870 115.046211,77.353302 
	C115.130035,82.261528 115.691956,87.161606 116.007492,92.366005 
	C115.640434,93.137749 115.303810,93.608849 114.589005,94.024033 
	C112.009056,95.508049 109.807289,97.047989 107.276184,98.635910 
	C106.288528,98.764244 105.630211,98.844589 104.971893,98.924934 
	C104.358757,96.909599 103.745621,94.894272 103.033417,92.530609 
z"/>
<path fill="#8066A8" opacity="1.000000" stroke="none" 
	d="
M252.136597,160.573883 
	C250.876740,161.140305 249.675919,161.297379 248.233582,161.725403 
	C241.668930,161.987610 235.345779,161.978867 228.450424,161.541077 
	C228.730011,153.633560 230.176102,146.104858 226.012802,139.050446 
	C226.012802,136.220322 226.012802,133.390182 226.012802,130.194122 
	C230.113480,132.898392 233.148895,134.900162 236.770660,137.219421 
	C241.576797,139.762741 245.796585,141.988541 250.016373,144.214355 
	C250.742798,149.531082 251.469208,154.847794 252.136597,160.573883 
z"/>
<path fill="#4C1E5E" opacity="1.000000" stroke="none" 
	d="
M267.008850,110.244843 
	C271.125336,110.675659 275.270691,110.928551 279.349854,111.589645 
	C283.081299,112.194389 285.641205,114.591492 285.035309,118.475601 
	C284.156494,124.109413 283.417542,130.025986 281.072693,135.108582 
	C277.619934,142.592697 272.754791,143.351746 265.913544,138.383469 
	C266.394989,136.098526 266.934113,134.358826 266.957550,132.612183 
	C267.057678,125.157516 267.005463,117.700806 267.008850,110.244843 
z"/>
<path fill="#F8D1D0" opacity="1.000000" stroke="none" 
	d="
M31.902109,72.063438 
	C35.257343,64.833794 41.286678,61.244884 48.841042,60.109596 
	C59.761562,58.468430 65.091072,63.292942 64.658722,74.908798 
	C64.248619,75.993759 64.101646,76.492844 63.491745,76.994759 
	C55.756809,77.286591 48.450310,78.109673 41.227077,77.643234 
	C37.517715,77.403702 34.172276,76.793755 30.932896,78.610252 
	C31.238821,76.162842 31.570465,74.113136 31.902109,72.063438 
z"/>
<path fill="#F4B8C2" opacity="1.000000" stroke="none" 
	d="
M68.811485,110.986305 
	C64.949173,110.852837 61.085743,110.743599 57.225445,110.566193 
	C56.417889,110.529083 55.421345,109.841789 54.851089,110.128578 
	C47.937160,113.605713 40.421711,111.999649 33.203434,112.672211 
	C29.169874,113.048042 25.028187,112.263420 20.492037,112.003983 
	C21.358034,108.593613 22.667215,105.180969 24.295288,101.412170 
	C25.030487,101.021553 25.446795,100.987083 26.257248,101.117325 
	C28.432747,101.521355 30.221136,102.008224 31.994257,101.957840 
	C40.406166,101.718842 48.812901,101.303871 57.223682,101.016098 
	C60.135551,100.916481 63.053787,101.003143 65.969116,101.004715 
	C66.866928,103.572289 67.764748,106.139870 68.874359,109.265137 
	C68.994591,110.210663 68.903038,110.598480 68.811485,110.986305 
z"/>
<path fill="#F05C6C" opacity="1.000000" stroke="none" 
	d="
M68.909798,111.387032 
	C68.903038,110.598480 68.994591,110.210663 69.142433,109.530518 
	C72.219254,110.291214 75.239784,111.344238 78.913597,112.592087 
	C86.719498,108.897079 93.872124,105.007248 101.024750,101.117416 
	C102.164780,100.516243 103.304817,99.915077 104.708374,99.119423 
	C105.630211,98.844589 106.288528,98.764244 107.405846,98.990616 
	C108.567703,100.535637 109.270561,101.773949 109.973427,103.012260 
	C103.786179,107.934753 97.644508,112.916039 91.396515,117.760170 
	C86.826988,121.302963 82.366531,124.995667 75.803917,124.187897 
	C74.585274,124.037888 73.043297,126.514679 71.324509,127.960098 
	C70.944336,126.648102 70.890205,125.155159 70.744110,123.321213 
	C70.104126,119.249390 69.556114,115.518578 68.909798,111.387032 
z"/>
<path fill="#EEA0B3" opacity="1.000000" stroke="none" 
	d="
M22.872004,135.442413 
	C24.190205,134.757538 25.614332,134.108292 27.045979,134.091263 
	C35.868866,133.986328 44.693447,134.024765 53.517467,134.013855 
	C57.258739,134.009232 61.024567,134.247421 64.729843,133.878815 
	C66.334724,133.719162 67.814751,132.304581 69.621597,131.242737 
	C68.381020,139.007492 63.415524,143.742203 55.785652,145.883636 
	C53.886852,146.416565 51.902550,146.644852 49.162479,146.958267 
	C46.112213,146.643997 43.857018,146.384613 41.601818,146.125214 
	C34.696674,143.929337 27.363026,142.503983 22.872004,135.442413 
z"/>
<path fill="#532E7A" opacity="1.000000" stroke="none" 
	d="
M231.927902,77.843002 
	C233.721756,67.391724 236.794586,64.760544 246.712692,66.126823 
	C247.019196,77.235764 247.018661,87.664009 246.805786,98.323128 
	C245.670532,99.061897 244.747604,99.569786 243.491333,100.020676 
	C240.438660,97.975792 237.719330,95.987900 234.940491,93.604065 
	C233.010651,88.256683 235.786560,82.412285 231.927902,77.843002 
z"/>
<path fill="#522A6E" opacity="1.000000" stroke="none" 
	d="
M247.018127,98.092255 
	C247.018661,87.664009 247.019196,77.235764 247.035370,66.329102 
	C249.410248,66.528328 251.769470,67.205971 254.648834,68.191574 
	C257.077789,70.689545 258.986633,72.879547 260.895477,75.069550 
	C263.821320,84.017365 259.296906,91.898033 256.822571,100.298317 
	C253.233322,99.667610 250.125717,98.879936 247.018127,98.092255 
z"/>
<path fill="#F4BEC5" opacity="1.000000" stroke="none" 
	d="
M65.945206,100.639191 
	C63.053787,101.003143 60.135551,100.916481 57.223682,101.016098 
	C48.812901,101.303871 40.406166,101.718842 31.994257,101.957840 
	C30.221136,102.008224 28.432747,101.521355 26.316950,100.760750 
	C27.303343,97.487877 28.624180,94.736290 30.372417,91.988449 
	C33.707939,91.691597 36.611046,91.207672 39.525204,91.128067 
	C45.836716,90.955635 52.156567,91.068169 58.465679,90.851128 
	C59.353016,90.820602 60.199135,89.592003 61.318542,89.150948 
	C62.714153,91.595375 63.855553,93.806824 64.996964,96.018265 
	C65.305069,97.436729 65.613182,98.855194 65.945206,100.639191 
z"/>
<path fill="#502974" opacity="1.000000" stroke="none" 
	d="
M116.037926,92.065353 
	C115.691956,87.161606 115.130035,82.261528 115.046211,77.353302 
	C114.885521,67.944870 114.996353,58.531803 114.992935,48.665855 
	C118.600136,50.856270 122.208931,53.501488 125.930954,56.946671 
	C126.384430,64.881432 126.724655,72.016228 127.064896,79.151016 
	C126.586708,79.722366 126.108513,80.293716 125.065681,81.134315 
	C121.680000,84.957497 118.858963,88.511429 116.037926,92.065353 
z"/>
<path fill="#F15C6F" opacity="1.000000" stroke="none" 
	d="
M29.945017,91.984703 
	C28.624180,94.736290 27.303343,97.487877 25.922806,100.596039 
	C25.446795,100.987083 25.030487,101.021553 24.300875,101.035461 
	C15.047762,89.755943 20.893637,78.475655 24.000050,67.231979 
	C24.874609,64.066505 26.121464,61.003895 27.693157,57.488895 
	C29.476290,57.069862 30.763824,57.056034 32.051357,57.042206 
	C31.797289,61.897560 31.543219,66.752914 31.595629,71.835854 
	C31.570465,74.113136 31.238821,76.162842 30.867592,79.010643 
	C30.533678,83.867401 30.239347,87.926048 29.945017,91.984703 
z"/>
<path fill="#D7412C" opacity="1.000000" stroke="none" 
	d="
M186.068848,95.333839 
	C186.102859,95.740303 185.704865,95.970085 185.029785,96.005081 
	C174.729706,96.026543 165.104691,96.013008 155.479691,95.999474 
	C154.409393,92.916534 153.339111,89.833595 152.777069,86.379471 
	C163.750885,86.009506 174.216446,86.010712 184.682022,86.011925 
	C185.132950,88.983742 185.583878,91.955559 186.068848,95.333839 
z"/>
<path fill="#7754C0" opacity="1.000000" stroke="none" 
	d="
M196.738388,65.233101 
	C195.878281,61.744865 195.018158,58.256630 194.602264,54.389782 
	C201.377304,52.626640 207.732452,51.339859 214.018188,49.774387 
	C215.262329,49.464535 216.239761,48.083778 217.340179,47.196877 
	C221.306152,48.778778 224.680161,50.822910 224.060944,56.706062 
	C223.062943,58.322384 222.278885,59.616463 221.222565,59.901497 
	C213.235580,62.056656 205.195145,64.013802 197.073242,65.827118 
	C196.975067,65.621483 196.738388,65.233101 196.738388,65.233101 
z"/>
<path fill="#4D2368" opacity="1.000000" stroke="none" 
	d="
M266.624878,110.126251 
	C267.005463,117.700806 267.057678,125.157516 266.957550,132.612183 
	C266.934113,134.358826 266.394989,136.098526 265.696411,138.085510 
	C261.673676,135.763550 258.047607,133.197510 254.206360,129.961121 
	C253.992905,122.195969 253.994614,115.101189 254.281403,107.837204 
	C255.367020,107.308914 256.167572,106.949829 256.968140,106.590744 
	C260.059082,107.729713 263.149994,108.868683 266.624878,110.126251 
z"/>
<path fill="#784FB8" opacity="1.000000" stroke="none" 
	d="
M197.171402,66.032745 
	C205.195145,64.013802 213.235580,62.056656 221.222565,59.901497 
	C222.278885,59.616463 223.062943,58.322384 224.037170,57.103901 
	C228.186737,58.784782 224.532486,61.869884 224.963791,64.450676 
	C225.279037,66.336937 224.092758,68.474129 222.870331,70.751175 
	C216.064468,72.359695 209.964035,73.716515 203.668427,75.018494 
	C203.473236,74.963646 203.085831,74.843857 203.070282,74.462036 
	C203.433548,69.401131 200.268112,70.102013 197.171402,70.838638 
	C197.171402,68.914597 197.171402,67.473663 197.171402,66.032745 
z"/>
<path fill="#502974" opacity="1.000000" stroke="none" 
	d="
M253.996338,108.006393 
	C253.994614,115.101189 253.992905,122.195969 253.965790,129.723862 
	C253.556824,130.171555 253.173218,130.186142 252.084106,130.109741 
	C249.115494,129.772110 246.852402,129.525467 244.407471,129.170624 
	C244.225616,129.062439 243.902573,128.789047 243.902573,128.789047 
	C241.749878,123.101357 239.344513,117.417114 243.940308,111.021042 
	C244.798309,109.533669 245.384628,108.666306 246.414459,107.850357 
	C249.237411,107.936653 251.616882,107.971527 253.996338,108.006393 
z"/>
<path fill="#C73829" opacity="1.000000" stroke="none" 
	d="
M181.882019,103.997627 
	C181.266068,106.074837 180.650101,108.152039 179.688751,110.643509 
	C178.238647,111.375412 177.133926,111.693062 175.558746,112.006371 
	C166.286194,111.967697 157.484131,111.933357 148.682053,111.899017 
	C150.492279,109.009842 152.302521,106.120667 154.784058,103.206131 
	C164.264267,103.453056 173.073135,103.725342 181.882019,103.997627 
z"/>
<path fill="#DE462F" opacity="1.000000" stroke="none" 
	d="
M184.701447,85.657051 
	C174.216446,86.010712 163.750885,86.009506 152.843552,86.011581 
	C153.134155,83.514114 153.866531,81.013359 155.266632,78.324356 
	C164.408386,78.045212 172.882416,77.954323 181.356461,77.863426 
	C182.477936,80.343010 183.599411,82.822594 184.701447,85.657051 
z"/>
<path fill="#CE3A2A" opacity="1.000000" stroke="none" 
	d="
M182.019928,103.660011 
	C173.073135,103.725342 164.264267,103.453056 155.045197,103.006409 
	C154.896347,100.843300 155.157654,98.854568 155.449341,96.432648 
	C165.104691,96.013008 174.729706,96.026543 184.809845,96.071648 
	C184.229279,98.509605 183.193573,100.916000 182.019928,103.660011 
z"/>
<path fill="#7D5ECA" opacity="1.000000" stroke="none" 
	d="
M217.173004,46.937641 
	C216.239761,48.083778 215.262329,49.464535 214.018188,49.774387 
	C207.732452,51.339859 201.377304,52.626640 194.642303,54.014717 
	C194.931808,50.558285 195.625519,47.098301 196.407822,43.196514 
	C198.060379,43.907173 198.949127,44.289368 200.307251,44.873409 
	C199.962631,42.638344 199.699280,40.930347 199.246094,37.991215 
	C202.452347,40.587044 204.802597,42.489853 206.910355,44.196327 
	C211.385666,40.982483 213.925934,45.005974 217.173004,46.937641 
z"/>
<path fill="#BF3428" opacity="1.000000" stroke="none" 
	d="
M148.442581,112.124344 
	C157.484131,111.933357 166.286194,111.967697 175.394257,112.296906 
	C174.043945,114.764900 172.387650,116.938026 170.731354,119.111160 
	C169.432938,119.738815 168.134506,120.366463 166.187042,120.827965 
	C159.348862,117.802628 153.087936,118.373535 146.799271,120.269707 
	C146.535065,119.679848 146.270859,119.089989 145.921661,118.177628 
	C146.625488,116.019966 147.414291,114.184814 148.442581,112.124344 
z"/>
<path fill="#765246" opacity="1.000000" stroke="none" 
	d="
M260.973999,74.622620 
	C258.986633,72.879547 257.077789,70.689545 255.012421,68.197891 
	C253.977982,64.863388 253.116898,61.825531 252.217270,58.799133 
	C251.378983,55.979046 250.499680,53.171146 249.638412,50.357883 
	C250.153000,50.175816 250.667587,49.993748 251.182175,49.811684 
	C251.719223,51.079254 252.256287,52.346825 252.793335,53.614399 
	C253.114319,53.581211 253.435303,53.548027 253.756287,53.514843 
	C253.756287,49.998405 253.756287,46.481964 253.756287,42.965527 
	C254.363541,42.784267 254.970779,42.603008 255.578033,42.421745 
	C256.863495,45.247974 258.912170,47.977180 259.286163,50.919281 
	C260.265350,58.621792 260.513214,66.417274 260.973999,74.622620 
z"/>
<path fill="#E54B32" opacity="1.000000" stroke="none" 
	d="
M181.250137,77.530792 
	C172.882416,77.954323 164.408386,78.045212 155.526993,78.087387 
	C159.280579,67.448570 174.771149,68.119164 181.250137,77.530792 
z"/>
<path fill="#E69670" opacity="1.000000" stroke="none" 
	d="
M203.085831,74.843857 
	C203.085831,74.843857 203.473236,74.963646 203.719666,75.369026 
	C207.465607,82.346939 209.540573,83.452484 215.853439,82.534515 
	C216.106369,85.953354 216.325974,88.927933 216.545593,91.902512 
	C211.896133,92.022202 207.246674,92.141899 202.211182,92.066422 
	C202.175369,90.856445 202.525589,89.841637 202.918732,88.024033 
	C203.003036,83.095444 203.044434,78.969650 203.085831,74.843857 
z"/>
<path fill="#E5B269" opacity="1.000000" stroke="none" 
	d="
M242.745102,283.137329 
	C244.699448,282.020752 246.653793,280.904175 248.917557,279.748535 
	C252.964355,283.051025 249.176285,286.625580 249.451950,290.486298 
	C246.572449,297.520752 240.622620,295.145905 234.303635,296.368530 
	C235.910767,294.048584 236.760040,292.822571 238.040100,291.128998 
	C239.895615,288.153351 241.320358,285.645325 242.745102,283.137329 
z"/>
<path fill="#856BAA" opacity="1.000000" stroke="none" 
	d="
M43.935539,288.400757 
	C45.959629,288.414154 47.856918,288.732025 50.318527,289.362701 
	C53.061897,290.572693 55.240955,291.469849 57.420013,292.367035 
	C58.385418,293.839691 59.350830,295.312347 61.172062,298.090485 
	C54.584988,298.090485 49.671253,298.319000 44.813419,297.899750 
	C43.829082,297.814819 43.055893,295.283447 42.163689,293.454529 
	C42.697590,291.587830 43.253162,290.146545 43.935539,288.400757 
z"/>
<path fill="#7748B0" opacity="1.000000" stroke="none" 
	d="
M215.820129,82.090256 
	C209.540573,83.452484 207.465607,82.346939 203.914856,75.423874 
	C209.964035,73.716515 216.064468,72.359695 222.588593,71.003662 
	C222.925476,71.490936 222.838623,71.977432 222.499985,72.908463 
	C222.119980,73.524635 222.029465,73.714294 221.690979,74.100075 
	C219.543579,76.882210 217.681854,79.486229 215.820129,82.090256 
z"/>
<path fill="#704B41" opacity="1.000000" stroke="none" 
	d="
M231.620743,78.026382 
	C235.786560,82.412285 233.010651,88.256683 234.940491,94.047684 
	C234.965652,96.678848 234.931305,98.470428 234.896942,100.262016 
	C232.212448,98.652100 229.527969,97.042183 226.570404,95.265060 
	C227.969437,89.468498 229.641510,83.839134 231.620743,78.026382 
z"/>
<path fill="#F7B290" opacity="1.000000" stroke="none" 
	d="
M203.070282,74.462036 
	C203.044434,78.969650 203.003036,83.095444 202.924316,87.698807 
	C195.982132,87.489647 195.939194,87.489258 195.999359,80.822243 
	C196.044312,75.839638 196.218292,70.858200 196.536591,65.554672 
	C196.738388,65.233101 196.975067,65.621483 197.073242,65.827110 
	C197.171402,67.473663 197.171402,68.914597 197.171402,70.838638 
	C200.268112,70.102013 203.433548,69.401131 203.070282,74.462036 
z"/>
<path fill="#EE6150" opacity="1.000000" stroke="none" 
	d="
M254.281403,107.837204 
	C251.616882,107.971527 249.237411,107.936653 246.177628,107.611542 
	C241.943604,105.598602 242.581284,102.908066 243.824677,100.077675 
	C244.747604,99.569786 245.670532,99.061897 246.805786,98.323128 
	C250.125717,98.879936 253.233322,99.667610 256.647827,100.612251 
	C257.011322,102.442192 257.067902,104.115166 257.046326,106.189445 
	C256.167572,106.949829 255.367020,107.308914 254.281403,107.837204 
z"/>
<path fill="#734E44" opacity="1.000000" stroke="none" 
	d="
M215.853439,82.534515 
	C217.681854,79.486229 219.543579,76.882210 221.810745,74.142281 
	C222.216187,74.006378 222.423203,73.860336 222.423203,73.860336 
	C223.019623,80.309479 223.616043,86.758614 224.370026,93.614952 
	C222.075272,93.389572 219.622940,92.756996 216.858109,92.013466 
	C216.325974,88.927933 216.106369,85.953354 215.853439,82.534515 
z"/>
<path fill="#E5B269" opacity="1.000000" stroke="none" 
	d="
M291.899445,222.851593 
	C293.758118,219.503296 296.366364,219.131317 299.318970,221.227783 
	C304.512543,224.915421 309.430664,228.896835 312.365814,234.621445 
	C312.088257,235.010361 311.810730,235.399261 311.533203,235.788177 
	C308.570587,234.577347 305.608002,233.366516 302.265625,231.671295 
	C298.557068,228.408463 295.228241,225.630020 291.899445,222.851593 
z"/>
<path fill="#FAAA86" opacity="1.000000" stroke="none" 
	d="
M243.627228,129.008209 
	C243.902573,128.789047 244.225616,129.062439 244.517334,129.500961 
	C246.976471,131.846298 249.143906,133.753098 251.311325,135.659912 
	C254.548996,138.659882 253.294815,141.356674 250.383530,144.090378 
	C245.796585,141.988541 241.576797,139.762741 237.124939,137.267792 
	C239.045883,134.408218 241.198883,131.817795 243.627228,129.008209 
z"/>
<path fill="#F6AA84" opacity="1.000000" stroke="none" 
	d="
M32.312775,56.737190 
	C30.763824,57.056034 29.476290,57.069862 27.809559,57.123047 
	C24.144154,52.333187 21.454210,47.372303 24.242605,39.584957 
	C26.315308,43.578037 27.788399,46.415966 29.680073,50.060295 
	C29.942070,48.053539 30.092731,46.899555 30.310171,45.234085 
	C33.721481,48.782028 33.311348,52.573414 32.312775,56.737190 
z"/>
<path fill="#5A3882" opacity="1.000000" stroke="none" 
	d="
M127.427216,79.029663 
	C126.724655,72.016228 126.384430,64.881432 126.068802,57.264374 
	C131.623352,59.199512 132.965546,63.092754 130.743973,68.301315 
	C129.316483,71.648163 128.744827,75.360046 127.427216,79.029663 
z"/>
<path fill="#F2A077" opacity="1.000000" stroke="none" 
	d="
M110.383652,103.003937 
	C109.270561,101.773949 108.567703,100.535637 107.735184,98.942627 
	C109.807289,97.047989 112.009056,95.508049 114.773300,94.253288 
	C116.578003,94.874496 117.820244,95.210518 119.062477,95.546547 
	C120.090858,96.695877 121.119240,97.845215 122.153580,99.411179 
	C118.370979,100.883743 114.582428,101.939674 110.383652,103.003937 
z"/>
<path fill="#F7B290" opacity="1.000000" stroke="none" 
	d="
M65.257515,95.735199 
	C63.855553,93.806824 62.714153,91.595375 61.307781,88.739960 
	C62.013432,84.394638 62.984051,80.693291 63.954666,76.991936 
	C64.101646,76.492844 64.248619,75.993759 64.611282,75.351913 
	C67.326866,81.879341 67.776131,88.619530 65.257515,95.735199 
z"/>
<path fill="#734E44" opacity="1.000000" stroke="none" 
	d="
M41.407459,146.520355 
	C43.857018,146.384613 46.112213,146.643997 48.766815,146.999695 
	C49.485748,148.794464 49.805283,150.492889 49.951195,152.818176 
	C48.801086,154.217804 47.824604,154.990601 46.848122,155.763382 
	C45.536644,155.843109 44.225170,155.922836 42.520092,155.987976 
	C41.822029,152.954102 41.517567,149.934799 41.407459,146.520355 
z"/>
<path fill="#EAC159" opacity="1.000000" stroke="none" 
	d="
M100.610245,101.075729 
	C93.872124,105.007248 86.719498,108.897079 79.305557,112.634888 
	C82.606346,102.221855 92.152321,103.015915 100.610245,101.075729 
z"/>
<path fill="#765246" opacity="1.000000" stroke="none" 
	d="
M291.606781,222.987885 
	C295.228241,225.630020 298.557068,228.408463 301.937958,231.516418 
	C299.256683,231.521210 296.523315,231.196487 293.365723,230.852005 
	C291.454620,229.250595 289.967712,227.668930 288.155212,225.992737 
	C288.991119,224.973526 290.152618,224.048859 291.606781,222.987885 
z"/>
<path fill="#765246" opacity="1.000000" stroke="none" 
	d="
M119.168243,95.192917 
	C117.820244,95.210518 116.578003,94.874496 115.151482,94.309219 
	C115.303810,93.608849 115.640434,93.137749 116.007492,92.365997 
	C118.858963,88.511429 121.680000,84.957497 124.796333,81.245773 
	C125.303391,86.581741 124.352470,91.583618 119.168243,95.192917 
z"/>
<path fill="#856BAA" opacity="1.000000" stroke="none" 
	d="
M251.399384,135.280396 
	C249.143906,133.753098 246.976471,131.846298 244.699188,129.609161 
	C246.852402,129.525467 249.115494,129.772110 251.794800,130.097809 
	C251.969833,131.751541 251.728638,133.326202 251.399384,135.280396 
z"/>
<path fill="#784FB8" opacity="1.000000" stroke="none" 
	d="
M222.526688,73.695145 
	C222.423203,73.860336 222.216187,74.006378 222.096436,73.964172 
	C222.029465,73.714294 222.119980,73.524635 222.372864,73.258179 
	C222.497513,73.163361 222.630173,73.529953 222.526688,73.695145 
z"/>
<path fill="#FCFCFD" opacity="1.000000" stroke="none" 
	d="
M57.889076,292.256317 
	C55.240955,291.469849 53.061897,290.572693 50.681717,289.359375 
	C50.976784,278.093628 51.572254,267.147430 51.945610,256.193634 
	C52.488598,240.262756 52.871502,224.326447 53.981079,208.281250 
	C57.093311,215.523026 59.641384,222.846146 61.982624,230.234818 
	C68.088211,249.503281 74.103180,268.800446 80.026306,288.379517 
	C79.531219,289.440338 79.164131,290.207855 78.797043,290.975372 
	C71.984070,291.365448 65.171104,291.755524 57.889076,292.256317 
z"/>
<path fill="#FBFBFB" opacity="1.000000" stroke="none" 
	d="
M212.209106,290.110840 
	C209.942902,290.280182 207.676697,290.449524 204.783447,290.876404 
	C199.496094,289.627167 194.835770,288.120392 190.144272,286.222046 
	C190.362396,283.886200 190.345062,281.861328 190.904419,280.010773 
	C194.453629,268.268829 198.038513,256.535858 201.796738,244.859497 
	C204.365219,236.879471 207.234131,228.996140 210.013672,221.469879 
	C213.727020,243.489395 217.395432,265.108582 220.754425,286.928253 
	C217.699707,288.122742 214.954407,289.116791 212.209106,290.110840 
z"/>
<path fill="#FBFBFB" opacity="1.000000" stroke="none" 
	d="
M174.094711,290.350067 
	C172.467056,289.901276 170.833755,289.053040 169.212769,289.075958 
	C163.559967,289.155762 157.911423,289.536926 151.737793,290.062897 
	C150.851868,290.145966 150.489410,289.969696 150.154266,289.364624 
	C150.188385,284.077667 150.195206,279.219513 150.457825,274.120667 
	C154.473038,267.055054 158.397873,260.314941 161.951950,253.384689 
	C166.918579,243.699982 173.036285,234.358032 172.705658,222.698029 
	C175.841537,227.062775 178.215302,231.578918 177.051773,237.127762 
	C175.067337,246.591354 176.879440,255.783813 179.116730,265.335602 
	C179.232803,267.874084 179.647614,270.029419 179.493286,272.143219 
	C179.106369,277.442932 178.461807,282.723816 177.656342,288.195129 
	C176.292969,289.035339 175.193832,289.692719 174.094711,290.350067 
z"/>
<path fill="#FBFBFC" opacity="1.000000" stroke="none" 
	d="
M136.405212,289.061890 
	C127.186401,289.385284 117.967598,289.708679 107.989243,289.959564 
	C106.487404,289.243713 105.745110,288.600372 105.212814,287.620300 
	C108.311127,266.247833 111.199425,245.212173 114.438499,224.233337 
	C118.839417,236.219635 122.852715,248.161789 126.951439,260.074554 
	C130.187286,269.479401 133.528214,278.848145 136.746796,288.454590 
	C136.671143,288.676239 136.405212,289.061890 136.405212,289.061890 
z"/>
<path fill="#F8F8F9" opacity="1.000000" stroke="none" 
	d="
M242.502289,282.835724 
	C241.320358,285.645325 239.895615,288.153351 238.161285,290.811981 
	C236.254776,290.971344 234.657852,290.980164 232.561539,290.591736 
	C231.881088,289.129517 231.700043,288.064514 231.636307,286.544830 
	C231.580978,273.131531 231.408340,260.172882 231.235687,247.214233 
	C234.910294,258.987549 238.584900,270.760834 242.502289,282.835724 
z"/>
<path fill="#C03D3E" opacity="1.000000" stroke="none" 
	d="
M105.002808,287.957062 
	C105.745110,288.600372 106.487404,289.243713 107.508301,289.988464 
	C109.753830,292.386810 111.720734,294.683685 114.575989,298.017975 
	C106.559120,298.017975 100.348618,298.017975 93.637444,297.490601 
	C93.076660,295.033844 93.016548,293.104492 93.051437,290.792664 
	C93.347870,289.655548 93.549301,288.900940 94.157303,288.119110 
	C98.043526,288.046967 101.523170,288.002014 105.002808,287.957062 
z"/>
<path fill="#F05C6C" opacity="1.000000" stroke="none" 
	d="
M173.888031,290.614319 
	C175.193832,289.692719 176.292969,289.035339 178.012772,288.339508 
	C181.716766,288.774658 184.800079,289.248322 187.929596,290.174561 
	C188.063293,292.138885 188.150833,293.650635 188.238342,295.162354 
	C187.861938,296.014862 187.500153,297.603180 187.106949,297.610992 
	C179.667694,297.758820 172.224686,297.719940 164.782471,297.719940 
	C164.604889,297.074921 164.427307,296.429901 164.249725,295.784912 
	C167.393600,294.149475 170.537476,292.514038 173.888031,290.614319 
z"/>
<path fill="#EE6173" opacity="1.000000" stroke="none" 
	d="
M231.518982,286.999481 
	C231.700043,288.064514 231.881088,289.129517 232.160706,290.588959 
	C232.562775,294.594666 230.855423,296.071869 227.309250,295.829010 
	C222.532883,295.501923 217.721695,295.517181 212.977280,294.951080 
	C210.054825,294.602417 209.276581,292.888489 211.991913,290.374146 
	C214.954407,289.116791 217.699707,288.122742 221.138428,287.022980 
	C225.060867,286.944641 228.289932,286.972046 231.518982,286.999481 
z"/>
<path fill="#C24240" opacity="1.000000" stroke="none" 
	d="
M136.429901,289.492432 
	C136.405212,289.061890 136.671143,288.676239 137.145905,288.396973 
	C139.279495,288.070374 140.938354,288.023010 142.792938,288.207336 
	C143.466064,289.312866 143.766647,290.377930 144.459625,291.018585 
	C145.700226,292.165558 147.177109,293.056946 148.555237,294.055145 
	C149.079132,292.634583 149.603043,291.213989 150.126938,289.793427 
	C150.489410,289.969696 150.851868,290.145966 151.493790,290.441589 
	C153.335342,292.411346 154.928284,294.237366 156.427139,296.137634 
	C156.658966,296.431549 156.459503,297.065674 156.459503,298.147491 
	C150.684265,298.147491 144.894669,298.690582 139.261536,297.984833 
	C134.278687,297.360535 136.904800,292.826660 136.429901,289.492432 
z"/>
<path fill="#856BAA" opacity="1.000000" stroke="none" 
	d="
M92.956429,291.175140 
	C93.016548,293.104492 93.076660,295.033844 93.198608,297.372284 
	C90.116859,297.885040 86.973846,298.049347 83.829552,298.079376 
	C77.825661,298.136658 77.747177,298.005371 78.821823,291.361328 
	C79.164131,290.207855 79.531219,289.440338 80.448288,288.358948 
	C82.976089,288.033386 84.953918,288.021729 87.232559,288.178589 
	C89.341057,289.289825 91.148743,290.232483 92.956429,291.175140 
z"/>
<path fill="#E5B269" opacity="1.000000" stroke="none" 
	d="
M188.684006,295.120422 
	C188.150833,293.650635 188.063293,292.138885 188.005325,289.858826 
	C188.748398,288.264832 189.461914,287.439209 190.175446,286.613586 
	C194.835770,288.120392 199.496094,289.627167 204.542206,291.217407 
	C206.765701,295.345734 203.204803,294.849640 201.415497,294.987122 
	C197.341919,295.300110 193.227478,295.081238 188.684006,295.120422 
z"/>
<path fill="#6C6E86" opacity="1.000000" stroke="none" 
	d="
M142.597198,287.975647 
	C140.938354,288.023010 139.279495,288.070374 137.221558,288.175323 
	C133.528214,278.848145 130.187286,269.479401 126.951439,260.074554 
	C122.852715,248.161789 118.839417,236.219635 114.415695,223.788910 
	C113.328712,219.229263 112.897568,215.096497 111.851730,211.125641 
	C107.889771,196.082764 103.673813,181.101837 103.971039,165.332336 
	C111.930641,164.625717 119.890244,163.919067 128.333740,163.513947 
	C132.055695,182.803101 135.266891,201.795380 138.540756,220.776825 
	C140.963593,234.824249 143.468018,248.857574 145.989777,263.300842 
	C145.692520,266.354309 145.341599,269.004181 144.637573,271.735687 
	C139.923187,273.773163 138.358658,276.662872 140.650421,281.307343 
	C141.659531,283.352386 141.969696,285.742310 142.597198,287.975647 
z"/>
<path fill="#FCFCFC" opacity="1.000000" stroke="none" 
	d="
M93.051437,290.792664 
	C91.148743,290.232483 89.341057,289.289825 87.188248,287.773315 
	C85.775719,279.319916 84.711761,271.439941 83.640305,263.560974 
	C80.090622,237.458237 76.543541,211.355148 72.984222,185.253723 
	C71.593987,175.058701 70.266693,164.841568 64.730797,155.478210 
	C64.503868,153.826538 64.234230,152.521927 63.964596,151.217331 
	C75.633949,147.375366 81.072769,136.705917 88.971924,127.643608 
	C93.095528,139.665070 97.324226,150.796295 97.137169,163.749985 
	C92.889168,170.251038 90.990097,176.686172 91.096420,183.679810 
	C91.472473,208.414505 91.825577,233.150116 92.368813,257.881409 
	C92.590523,267.974945 93.276154,278.058319 93.750725,288.146301 
	C93.549301,288.900940 93.347870,289.655548 93.051437,290.792664 
z"/>
<path fill="#5E6074" opacity="1.000000" stroke="none" 
	d="
M94.157303,288.119110 
	C93.276154,278.058319 92.590523,267.974945 92.368813,257.881409 
	C91.825577,233.150116 91.472473,208.414505 91.096420,183.679810 
	C90.990097,176.686172 92.889168,170.251038 97.193054,164.196289 
	C99.341110,164.289993 101.283798,164.708832 103.598763,165.230011 
	C103.673813,181.101837 107.889771,196.082764 111.851730,211.125641 
	C112.897568,215.096497 113.328712,219.229263 114.064926,223.732086 
	C111.199425,245.212173 108.311127,266.247833 105.212814,287.620300 
	C101.523170,288.002014 98.043526,288.046967 94.157303,288.119110 
z"/>
<path fill="#FBFBFB" opacity="1.000000" stroke="none" 
	d="
M145.936096,262.897186 
	C143.468018,248.857574 140.963593,234.824249 138.540756,220.776825 
	C135.266891,201.795380 132.055695,182.803101 128.682434,163.395874 
	C128.992432,160.254715 129.437607,157.533157 130.256165,154.260086 
	C133.091034,152.798492 135.552521,151.888397 138.354645,150.964264 
	C140.505173,149.302429 142.315063,147.654648 144.124954,146.006866 
	C148.678589,148.562683 153.064667,148.754333 157.662903,145.196747 
	C158.148941,145.311691 158.326645,145.677170 158.108673,145.995300 
	C155.129578,150.294922 156.353470,153.735931 159.312668,157.249252 
	C159.249298,158.164444 159.205154,158.769333 158.904694,159.656158 
	C154.386185,165.066986 153.360413,171.249237 152.999786,177.608383 
	C152.107529,193.342590 154.581619,208.753677 158.305084,223.918320 
	C159.618698,229.268295 158.227158,232.958908 155.863663,237.606125 
	C151.777206,245.641174 149.166122,254.426575 145.936096,262.897186 
z"/>
<path fill="#EB9A6E" opacity="1.000000" stroke="none" 
	d="
M138.014008,150.978317 
	C135.552521,151.888397 133.091034,152.798492 130.290573,153.858429 
	C123.883629,155.379395 117.822937,156.784134 111.743401,158.101883 
	C109.830231,158.516571 107.799347,159.138794 105.945580,158.856583 
	C104.241936,158.597198 102.704079,157.248871 101.093185,156.380280 
	C102.367210,155.423935 103.660873,154.492340 104.908722,153.503006 
	C105.819389,152.781006 106.669701,151.982910 107.546913,151.218735 
	C107.311050,150.838974 107.075188,150.459213 106.839333,150.079437 
	C107.641510,150.126373 108.618088,149.892929 109.217529,150.265793 
	C113.076340,152.665939 116.586365,151.960831 120.432037,149.925629 
	C123.911049,148.084442 127.802795,147.023163 132.127014,145.379272 
	C133.474747,145.059875 134.208054,144.979202 135.082901,145.216583 
	C136.154312,147.349213 137.084152,149.163757 138.014008,150.978317 
z"/>
<path fill="#AC2C25" opacity="1.000000" stroke="none" 
	d="
M158.326645,145.677170 
	C158.326645,145.677170 158.148941,145.311691 158.024109,145.150314 
	C162.353882,139.743469 166.808487,134.497986 171.938354,129.146072 
	C174.449646,129.771194 176.285675,130.502731 178.026031,131.553253 
	C175.608795,134.535629 173.049820,137.031189 171.020294,139.901154 
	C167.843277,144.393784 164.428055,147.843658 158.326645,145.677170 
z"/>
<path fill="#B93125" opacity="1.000000" stroke="none" 
	d="
M146.853638,120.623009 
	C153.087936,118.373535 159.348862,117.802628 165.877594,120.893661 
	C161.505707,124.654732 156.794250,128.183945 151.683090,132.012589 
	C150.017334,128.162659 148.462662,124.569481 146.853638,120.623009 
z"/>
<path fill="#704B41" opacity="1.000000" stroke="none" 
	d="
M170.916870,119.402443 
	C172.387650,116.938026 174.043945,114.764900 175.864716,112.301239 
	C177.133926,111.693062 178.238647,111.375412 179.688766,111.013428 
	C180.037201,113.752319 180.040237,116.535553 179.698563,119.934326 
	C177.685806,121.739197 176.017746,122.928520 174.349686,124.117844 
	C173.267258,122.643143 172.184830,121.168442 170.916870,119.402443 
z"/>
<path fill="#4E6384" opacity="1.000000" stroke="none" 
	d="
M63.587200,151.324387 
	C64.234230,152.521927 64.503868,153.826538 64.333107,155.527573 
	C58.958164,156.211655 54.023624,156.499298 49.089081,156.786942 
	C48.542454,156.513443 47.995823,156.239944 47.148659,155.864914 
	C47.824604,154.990601 48.801086,154.217804 49.972324,153.196838 
	C54.514656,152.442902 58.862228,151.937180 63.587200,151.324387 
z"/>
<path fill="#EE6150" opacity="1.000000" stroke="none" 
	d="
M138.354645,150.964264 
	C137.084152,149.163757 136.154312,147.349213 135.251282,144.928879 
	C136.586304,142.199051 137.894516,140.075012 139.202713,137.950958 
	C140.796036,140.406586 142.389359,142.862198 144.053802,145.662354 
	C142.315063,147.654648 140.505173,149.302429 138.354645,150.964264 
z"/>
<path fill="#F8F6F7" opacity="1.000000" stroke="none" 
	d="
M139.137085,137.598572 
	C137.894516,140.075012 136.586304,142.199051 135.109726,144.610809 
	C134.208054,144.979202 133.474747,145.059875 132.372787,145.125183 
	C133.046463,140.579529 134.088806,136.049271 135.436432,130.192154 
	C137.048676,133.320847 138.060059,135.283524 139.137085,137.598572 
z"/>
<path fill="#BF3428" opacity="1.000000" stroke="none" 
	d="
M174.252441,124.446747 
	C176.017746,122.928520 177.685806,121.739197 179.596481,120.334602 
	C179.911209,122.735504 179.983292,125.351669 179.989059,128.679962 
	C179.322388,130.006149 178.722031,130.620224 178.121689,131.234283 
	C176.285675,130.502731 174.449646,129.771194 172.225433,128.981537 
	C172.609863,127.540840 173.382523,126.158241 174.252441,124.446747 
z"/>
<path fill="#6B6D85" opacity="1.000000" stroke="none" 
	d="
M190.144257,286.222015 
	C189.461914,287.439209 188.748398,288.264832 187.959137,289.406219 
	C184.800079,289.248322 181.716766,288.774658 178.277023,288.156647 
	C178.461807,282.723816 179.106369,277.442932 179.493286,272.143219 
	C179.647614,270.029419 179.232803,267.874084 179.395660,265.088715 
	C180.108597,263.530121 180.755310,262.648071 180.858459,261.706512 
	C181.953888,251.706955 183.202240,241.715439 183.936676,231.687180 
	C184.908051,218.423737 187.835602,205.254669 186.489014,191.866150 
	C187.300079,191.123413 187.996429,190.390427 188.089462,189.587509 
	C189.035400,181.424088 189.882965,173.249268 190.758087,165.077652 
	C200.557709,165.060837 210.357330,165.044022 220.576828,165.503540 
	C222.349335,179.522766 219.083954,192.277771 214.610336,204.888809 
	C212.737961,210.167053 211.496841,215.669220 209.968719,221.069580 
	C207.234131,228.996140 204.365219,236.879471 201.796738,244.859497 
	C198.038513,256.535858 194.453629,268.268829 190.904419,280.010773 
	C190.345062,281.861328 190.362396,283.886200 190.144257,286.222015 
z"/>
<path fill="#5D5F74" opacity="1.000000" stroke="none" 
	d="
M210.013672,221.469879 
	C211.496841,215.669220 212.737961,210.167053 214.610336,204.888809 
	C219.083954,192.277771 222.349335,179.522766 221.005295,165.516937 
	C222.460449,164.658157 223.907013,164.262329 226.044983,163.958191 
	C227.159393,164.177872 227.582397,164.305847 228.005417,164.433823 
	C228.005417,164.433823 227.847427,164.519958 227.672180,164.839767 
	C227.984177,166.360886 228.471405,167.562210 228.958618,168.763519 
	C229.305069,183.830002 229.614990,198.897446 230.010300,213.962646 
	C230.292847,224.731049 230.689941,235.496429 231.135803,246.738708 
	C231.408340,260.172882 231.580978,273.131531 231.636292,286.544830 
	C228.289932,286.972046 225.060867,286.944641 221.447815,286.822510 
	C217.395432,265.108582 213.727020,243.489395 210.013672,221.469879 
z"/>
<path fill="#FAAA86" opacity="1.000000" stroke="none" 
	d="
M178.026031,131.553253 
	C178.722031,130.620224 179.322388,130.006149 180.086975,129.106476 
	C183.124420,131.298859 185.997604,133.776840 188.878845,136.844147 
	C187.456451,139.031769 186.026001,140.630051 184.360352,142.206024 
	C183.610535,142.459305 183.095917,142.734894 182.207092,143.082581 
	C174.332565,147.749451 166.832230,152.344208 159.331879,156.938965 
	C156.353470,153.735931 155.129578,150.294922 158.108673,145.995300 
	C164.428055,147.843658 167.843277,144.393784 171.020294,139.901154 
	C173.049820,137.031189 175.608795,134.535629 178.026031,131.553253 
z"/>
<path fill="#F8F6F7" opacity="1.000000" stroke="none" 
	d="
M182.581284,143.010468 
	C183.095917,142.734894 183.610535,142.459305 184.439880,142.563751 
	C185.207291,146.351791 187.411377,147.783813 190.590225,148.116043 
	C190.417068,153.598373 190.243912,159.080704 190.414413,164.820343 
	C189.882965,173.249268 189.035400,181.424088 188.089462,189.587509 
	C187.996429,190.390427 187.300079,191.123413 186.445663,191.419113 
	C184.482239,180.699631 182.956894,170.449905 181.410980,159.824341 
	C181.787354,153.969162 182.184326,148.489822 182.581284,143.010468 
z"/>
<path fill="#E29773" opacity="1.000000" stroke="none" 
	d="
M192.099518,137.094650 
	C197.532013,135.137085 203.216171,133.658554 208.279648,130.998520 
	C210.465561,129.850174 211.368271,126.259117 213.412552,124.755760 
	C214.562973,124.482841 215.707001,124.178284 216.865311,123.944405 
	C218.625488,123.589012 220.395584,123.282669 222.161469,122.955498 
	C221.776642,124.750717 221.716888,126.712029 220.909851,128.291519 
	C220.192200,129.696121 218.817322,130.958176 217.437485,131.798965 
	C209.972214,136.347855 202.415222,140.746216 194.473419,144.868912 
	C193.404510,142.059128 192.752014,139.576889 192.099518,137.094650 
z"/>
<path fill="#6B453B" opacity="1.000000" stroke="none" 
	d="
M243.491333,100.020676 
	C242.581284,102.908066 241.943604,105.598602 245.734131,107.560120 
	C245.384628,108.666306 244.798309,109.533669 244.070175,110.685921 
	C237.446899,111.312874 237.085724,110.892647 235.084534,100.580765 
	C234.931305,98.470428 234.965652,96.678848 235.000000,94.443634 
	C237.719330,95.987900 240.438660,97.975792 243.491333,100.020676 
z"/>
<path fill="#EE6150" opacity="1.000000" stroke="none" 
	d="
M191.772430,136.921204 
	C192.752014,139.576889 193.404510,142.059128 194.124969,144.955597 
	C193.166061,146.143173 192.139191,146.916519 190.851273,147.902954 
	C187.411377,147.783813 185.207291,146.351791 184.675079,142.586060 
	C186.026001,140.630051 187.456451,139.031769 189.079330,137.116058 
	C189.996292,136.781662 190.720825,136.764709 191.772430,136.921204 
z"/>
<path fill="#EFF0EF" opacity="1.000000" stroke="none" 
	d="
M228.005264,164.020203 
	C227.582397,164.305847 227.159393,164.177872 226.422501,163.933746 
	C226.048386,155.833969 225.988159,147.850357 225.970367,139.458588 
	C230.176102,146.104858 228.730011,153.633560 227.988190,161.535645 
	C228.067154,162.508392 228.036133,163.057480 228.005264,164.020203 
z"/>
<path fill="#EFF0EF" opacity="1.000000" stroke="none" 
	d="
M228.885834,168.411438 
	C228.471405,167.562210 227.984177,166.360886 227.696335,164.926437 
	C228.201492,165.815323 228.507263,166.937347 228.885834,168.411438 
z"/>
<path fill="#7EAACC" opacity="1.000000" stroke="none" 
	d="
M48.945412,157.130890 
	C54.023624,156.499298 58.958164,156.211655 64.290398,155.874664 
	C70.266693,164.841568 71.593987,175.058701 72.984222,185.253723 
	C76.543541,211.355148 80.090622,237.458237 83.640305,263.560974 
	C84.711761,271.439941 85.775719,279.319916 86.887436,287.604736 
	C84.953918,288.021729 82.976089,288.033386 80.576279,288.065613 
	C74.103180,268.800446 68.088211,249.503281 61.982624,230.234818 
	C59.641384,222.846146 57.093311,215.523026 54.310314,207.994324 
	C52.928917,204.417358 52.060509,200.945419 50.785275,197.629944 
	C48.316059,191.210236 44.908726,185.062225 43.200027,178.462479 
	C41.215977,170.799210 45.148773,164.012451 48.945412,157.130890 
z"/>
<path fill="#F5C6C9" opacity="1.000000" stroke="none" 
	d="
M63.491745,76.994759 
	C62.984051,80.693291 62.013432,84.394638 61.053574,88.506973 
	C60.199135,89.592003 59.353016,90.820602 58.465679,90.851128 
	C52.156567,91.068169 45.836716,90.955635 39.525204,91.128067 
	C36.611046,91.207672 33.707939,91.691597 30.372417,91.988449 
	C30.239347,87.926048 30.533678,83.867401 30.893311,79.408356 
	C34.172276,76.793755 37.517715,77.403702 41.227077,77.643234 
	C48.450310,78.109673 55.756809,77.286591 63.491745,76.994759 
z"/>
<path fill="#4C5767" opacity="1.000000" stroke="none" 
	d="
M181.431549,160.200180 
	C182.956894,170.449905 184.482239,180.699631 186.050934,191.396393 
	C187.835602,205.254669 184.908051,218.423737 183.936676,231.687180 
	C183.202240,241.715439 181.953888,251.706955 180.858459,261.706512 
	C180.755310,262.648071 180.108597,263.530121 179.435303,264.686676 
	C176.879440,255.783813 175.067337,246.591354 177.051773,237.127762 
	C178.215302,231.578918 175.841537,227.062775 172.647552,222.301102 
	C170.542740,215.676651 168.745651,209.418243 167.073059,203.126770 
	C163.473877,189.588379 159.192398,176.087570 164.466888,161.918488 
	C170.549759,162.763916 176.227982,163.773376 181.431549,160.200180 
z"/>
<path fill="#3E4854" opacity="1.000000" stroke="none" 
	d="
M164.045761,161.923294 
	C159.192398,176.087570 163.473877,189.588379 167.073059,203.126770 
	C168.745651,209.418243 170.542740,215.676651 172.341522,222.346954 
	C173.036285,234.358032 166.918579,243.699982 161.951950,253.384689 
	C158.397873,260.314941 154.473038,267.055054 150.161804,273.891663 
	C148.070206,273.153534 146.530457,272.403778 144.990692,271.654022 
	C145.341599,269.004181 145.692520,266.354309 145.989777,263.300842 
	C149.166122,254.426575 151.777206,245.641174 155.863663,237.606125 
	C158.227158,232.958908 159.618698,229.268295 158.305084,223.918320 
	C154.581619,208.753677 152.107529,193.342590 152.999786,177.608383 
	C153.360413,171.249237 154.386185,165.066986 159.196899,159.846039 
	C161.178879,160.477097 162.612320,161.200195 164.045761,161.923294 
z"/>
<path fill="#E5B269" opacity="1.000000" stroke="none" 
	d="
M144.637573,271.735687 
	C146.530457,272.403778 148.070206,273.153534 149.905991,274.132324 
	C150.195206,279.219513 150.188385,284.077667 150.154266,289.364624 
	C149.603043,291.213989 149.079132,292.634583 148.555237,294.055145 
	C147.177109,293.056946 145.700226,292.165558 144.459625,291.018585 
	C143.766647,290.377930 143.466064,289.312866 142.792938,288.207336 
	C141.969696,285.742310 141.659531,283.352386 140.650421,281.307343 
	C138.358658,276.662872 139.923187,273.773163 144.637573,271.735687 
z"/>
<path fill="#EE6150" opacity="1.000000" stroke="none" 
	d="
M164.466888,161.918488 
	C162.612320,161.200195 161.178879,160.477097 159.453232,159.564117 
	C159.205154,158.769333 159.249298,158.164444 159.312668,157.249252 
	C166.832230,152.344208 174.332565,147.749451 182.207092,143.082581 
	C182.184326,148.489822 181.787354,153.969162 181.410980,159.824341 
	C176.227982,163.773376 170.549759,162.763916 164.466888,161.918488 
z"/>
</svg>