<?xml version="1.0" encoding="UTF-8"?>
<!DOCTYPE svg PUBLIC "-//W3C//DTD SVG 1.1//EN" "http://www.w3.org/Graphics/SVG/1.1/DTD/svg11.dtd">
<svg xmlns="http://www.w3.org/2000/svg" version="1.1" width="438px" height="309px" style="shape-rendering:geometricPrecision; text-rendering:geometricPrecision; image-rendering:optimizeQuality; fill-rule:evenodd; clip-rule:evenodd" xmlns:xlink="http://www.w3.org/1999/xlink">
<g><path style="opacity:1" fill="#fefefe" d="M -0.5,-0.5 C 145.5,-0.5 291.5,-0.5 437.5,-0.5C 437.5,102.5 437.5,205.5 437.5,308.5C 291.5,308.5 145.5,308.5 -0.5,308.5C -0.5,205.5 -0.5,102.5 -0.5,-0.5 Z"/></g>
<g><path style="opacity:1" fill="#ebebeb" d="M 374.5,49.5 C 269.499,49.3333 164.499,49.5 59.5,50C 57.5483,50.3661 55.8816,51.1995 54.5,52.5C 54.3118,50.8967 54.8118,49.5634 56,48.5C 162.187,48.1718 268.353,48.5051 374.5,49.5 Z"/></g>
<g><path style="opacity:1" fill="#060606" d="M 374.5,49.5 C 377.398,50.7234 379.731,52.7234 381.5,55.5C 381.827,126.208 381.493,196.875 380.5,267.5C 379.5,269.167 378.167,270.5 376.5,271.5C 270.541,272.496 164.541,272.829 58.5,272.5C 55.1783,271.342 53.0117,269.008 52,265.5C 51.3333,195.833 51.3333,126.167 52,56.5C 52.6082,54.9336 53.4415,53.6002 54.5,52.5C 55.8816,51.1995 57.5483,50.3661 59.5,50C 164.499,49.5 269.499,49.3333 374.5,49.5 Z"/></g>
<g><path style="opacity:1" fill="#959595" d="M 381.5,55.5 C 382.665,125.665 382.832,195.999 382,266.5C 381.617,267.056 381.117,267.389 380.5,267.5C 381.493,196.875 381.827,126.208 381.5,55.5 Z"/></g>
<g><path style="opacity:1" fill="#3b3b3b" d="M 339.5,69.5 C 257.5,68.1667 175.5,68.1667 93.5,69.5C 92.9569,69.44 92.6236,69.1067 92.5,68.5C 175.5,67.1667 258.5,67.1667 341.5,68.5C 341.043,69.2975 340.376,69.6309 339.5,69.5 Z"/></g>
<g><path style="opacity:1" fill="#d3d3d3" d="M 93.5,69.5 C 175.5,68.1667 257.5,68.1667 339.5,69.5C 339.158,70.3382 338.492,70.6716 337.5,70.5C 256.833,69.1667 176.167,69.1667 95.5,70.5C 94.8333,70.1667 94.1667,69.8333 93.5,69.5 Z"/></g>
<g><path style="opacity:1" fill="#fdfdfd" d="M 95.5,70.5 C 176.167,69.1667 256.833,69.1667 337.5,70.5C 299.405,95.411 261.405,120.578 223.5,146C 219.667,148.753 215.667,149.086 211.5,147C 172.976,121.241 134.31,95.7412 95.5,70.5 Z"/></g>
<g><path style="opacity:1" fill="#cccccc" d="M 361.5,77.5 C 361.5,76.8333 361.833,76.5 362.5,76.5C 363.499,131.664 363.832,186.997 363.5,242.5C 362.5,242.167 361.833,241.5 361.5,240.5C 362.833,186.167 362.833,131.833 361.5,77.5 Z"/></g>
<g><path style="opacity:1" fill="#464646" d="M 71.5,76.5 C 70.501,131.331 70.1677,186.331 70.5,241.5C 69.1687,186.332 69.1687,130.999 70.5,75.5C 71.1067,75.6236 71.44,75.9569 71.5,76.5 Z"/></g>
<g><path style="opacity:1" fill="#fcfcfc" d="M 71.5,76.5 C 106.324,99.8037 141.324,122.97 176.5,146C 141.296,178.041 105.963,209.874 70.5,241.5C 70.1677,186.331 70.501,131.331 71.5,76.5 Z"/></g>
<g><path style="opacity:1" fill="#fdfdfd" d="M 361.5,77.5 C 362.833,131.833 362.833,186.167 361.5,240.5C 325.783,209.969 290.449,178.969 255.5,147.5C 260.773,142.857 266.44,138.69 272.5,135C 302.195,115.823 331.862,96.6561 361.5,77.5 Z"/></g>
<g><path style="opacity:1" fill="#363636" d="M 362.5,76.5 C 362.56,75.9569 362.893,75.6236 363.5,75.5C 364.831,131.332 364.831,186.999 363.5,242.5C 363.832,186.997 363.499,131.664 362.5,76.5 Z"/></g>
<g><path style="opacity:1" fill="#fdfdfd" d="M 346.5,252.5 C 303.501,253.167 260.335,253.5 217,253.5C 173.495,253.5 130.328,252.833 87.5,251.5C 122.185,219.316 157.352,187.649 193,156.5C 197.731,159.785 202.565,162.952 207.5,166C 215.095,168.34 222.428,167.673 229.5,164C 232.597,161.704 235.763,159.537 239,157.5C 274.779,189.294 310.612,220.96 346.5,252.5 Z"/></g>
<g><path style="opacity:1" fill="#8e8e8e" d="M 87.5,251.5 C 130.328,252.833 173.495,253.5 217,253.5C 260.335,253.5 303.501,253.167 346.5,252.5C 347.043,252.56 347.376,252.893 347.5,253.5C 260.167,254.833 172.833,254.833 85.5,253.5C 85.8555,252.478 86.5222,251.811 87.5,251.5 Z"/></g>
<g><path style="opacity:1" fill="#dddddd" d="M 376.5,271.5 C 376.389,272.117 376.056,272.617 375.5,273C 269.666,273.833 163.999,273.666 58.5,272.5C 164.541,272.829 270.541,272.496 376.5,271.5 Z"/></g>
</svg>
