<?xml version="1.0" encoding="UTF-8"?>
<!DOCTYPE svg PUBLIC "-//W3C//DTD SVG 1.1//EN" "http://www.w3.org/Graphics/SVG/1.1/DTD/svg11.dtd">
<svg xmlns="http://www.w3.org/2000/svg" version="1.1" width="677px" height="707px" style="shape-rendering:geometricPrecision; text-rendering:geometricPrecision; image-rendering:optimizeQuality; fill-rule:evenodd; clip-rule:evenodd" xmlns:xlink="http://www.w3.org/1999/xlink">
<g><path style="opacity:1" fill="#efe5dd" d="M -0.5,-0.5 C 225.167,-0.5 450.833,-0.5 676.5,-0.5C 676.5,33.1667 676.5,66.8333 676.5,100.5C 663.534,94.0176 650.867,87.0176 638.5,79.5C 635.539,81.4121 633.539,84.0787 632.5,87.5C 630.955,88.4519 629.288,88.7852 627.5,88.5C 625.5,88.5 623.5,88.5 621.5,88.5C 619.808,79.3104 617.808,70.3104 615.5,61.5C 612.247,46.2371 609.247,30.9037 606.5,15.5C 606.665,11.8183 606.499,8.15159 606,4.5C 604.921,2.6063 603.587,2.27297 602,3.5C 601.288,26.017 601.788,48.3504 603.5,70.5C 603.5,74.1667 603.5,77.8333 603.5,81.5C 607.514,81.3345 611.514,81.5012 615.5,82C 616.64,83.9734 617.973,85.8067 619.5,87.5C 619.137,88.1835 618.804,88.8501 618.5,89.5C 618.657,90.8734 618.49,92.2068 618,93.5C 599.983,112.683 582.149,132.016 564.5,151.5C 565.002,152.521 565.668,152.688 566.5,152C 582.783,139.204 599.449,127.037 616.5,115.5C 617.498,150.663 617.832,185.996 617.5,221.5C 615.219,222.608 613.052,223.942 611,225.5C 599.487,213.457 587.154,212.457 574,222.5C 568.5,230.359 567,239.026 569.5,248.5C 548.531,248.961 536.365,259.628 533,280.5C 528.116,275.808 522.282,273.475 515.5,273.5C 515.832,236.33 515.498,199.33 514.5,162.5C 514.169,133.329 514.502,104.329 515.5,75.5C 521.3,89.7775 527.133,104.111 533,118.5C 533.332,113.81 532.998,109.143 532,104.5C 529.813,92.8098 527.647,81.1432 525.5,69.5C 522.15,69.665 518.817,69.4983 515.5,69C 514.944,68.6174 514.611,68.1174 514.5,67.5C 514.5,65.8333 514.5,64.1667 514.5,62.5C 528.019,48.4811 541.686,34.6477 555.5,21C 554.092,20.6848 552.759,21.0181 551.5,22C 538.674,31.2467 525.674,40.2467 512.5,49C 510.112,51.4028 510.112,53.9028 512.5,56.5C 512.167,59.1667 511.833,61.8333 511.5,64.5C 510.5,64.5 509.5,64.5 508.5,64.5C 488.838,59.6695 469.171,55.1695 449.5,51C 464.733,57.7867 479.733,64.7867 494.5,72C 496.74,72.977 499.073,73.477 501.5,73.5C 501.375,70.3918 502.708,68.3918 505.5,67.5C 506.5,67.5 507.5,67.5 508.5,67.5C 508.5,88.1667 508.5,108.833 508.5,129.5C 508.5,142.167 508.5,154.833 508.5,167.5C 507.502,190.994 507.169,214.661 507.5,238.5C 507.167,238.5 506.833,238.5 506.5,238.5C 505.791,237.596 504.791,237.263 503.5,237.5C 503.664,234.813 503.497,232.146 503,229.5C 502.333,228.167 501.667,228.167 501,229.5C 500.626,228.584 500.126,227.75 499.5,227C 485.5,226.333 471.5,226.333 457.5,227C 456.975,227.692 456.308,228.192 455.5,228.5C 443.823,227.187 431.99,226.521 420,226.5C 408.5,226.667 397,226.833 385.5,227C 385.833,227.333 386.167,227.667 386.5,228C 361.925,226.434 337.259,226.1 312.5,227C 311.109,228.02 309.609,228.853 308,229.5C 307.544,228.256 308.044,227.423 309.5,227C 290.824,226.167 272.158,226.334 253.5,227.5C 251.244,228.421 250.244,230.088 250.5,232.5C 242.834,257.166 235.167,281.833 227.5,306.5C 172.166,306.333 116.832,306.5 61.5,307C 45.805,353.281 30.805,399.781 16.5,446.5C 14.7745,448.228 13.4411,450.228 12.5,452.5C 7.87907,457.911 6.37907,464.245 8,471.5C 9.73671,474.397 11.2367,477.397 12.5,480.5C 7.98082,482.923 3.64749,485.59 -0.5,488.5C -0.5,325.5 -0.5,162.5 -0.5,-0.5 Z"/></g>
<g><path style="opacity:1" fill="#dbe7e3" d="M 606.5,15.5 C 605.35,12.2752 604.184,8.94187 603,5.5C 603.186,22.156 603.352,38.8227 603.5,55.5C 603.5,60.5 603.5,65.5 603.5,70.5C 601.788,48.3504 601.288,26.017 602,3.5C 603.587,2.27297 604.921,2.6063 606,4.5C 606.499,8.15159 606.665,11.8183 606.5,15.5 Z"/></g>
<g><path style="opacity:1" fill="#51c3e5" d="M 514.5,62.5 C 513.637,63.463 512.97,63.463 512.5,62.5C 513.754,60.3569 513.754,58.3569 512.5,56.5C 510.112,53.9028 510.112,51.4028 512.5,49C 525.674,40.2467 538.674,31.2467 551.5,22C 552.759,21.0181 554.092,20.6848 555.5,21C 541.686,34.6477 528.019,48.4811 514.5,62.5 Z"/></g>
<g><path style="opacity:1" fill="#45c4ea" d="M 606.5,15.5 C 609.247,30.9037 612.247,46.2371 615.5,61.5C 616.128,67.5245 616.628,73.5245 617,79.5C 612.934,80.4637 608.767,80.797 604.5,80.5C 604.826,71.9832 604.493,63.6499 603.5,55.5C 603.352,38.8227 603.186,22.156 603,5.5C 604.184,8.94187 605.35,12.2752 606.5,15.5 Z"/></g>
<g><path style="opacity:1" fill="#5e5c58" d="M 173.5,81.5 C 174.468,83.6074 174.802,85.9407 174.5,88.5C 174.665,91.5184 174.498,94.5184 174,97.5C 163.9,91.7289 154.067,85.5623 144.5,79C 153.167,83.3333 161.833,87.6667 170.5,92C 158.04,70.9153 145.707,49.7487 133.5,28.5C 119.919,51.9983 106.085,75.3317 92,98.5C 104.742,73.6985 118.575,49.3651 133.5,25.5C 146.919,48.0029 160.086,70.6695 173,93.5C 173.499,89.5138 173.666,85.5138 173.5,81.5 Z"/></g>
<g><path style="opacity:1" fill="#fefefd" d="M 311.5,55.5 C 330.872,53.3536 345.539,60.5203 355.5,77C 367.741,73.1184 376.741,76.9518 382.5,88.5C 403.733,84.2837 415.4,92.9503 417.5,114.5C 360.5,114.5 303.5,114.5 246.5,114.5C 246.989,98.8335 254.656,88.3335 269.5,83C 274.151,82.1013 278.818,81.2679 283.5,80.5C 289.108,67.8863 298.442,59.553 311.5,55.5 Z"/></g>
<g><path style="opacity:1" fill="#56c4e4" d="M 508.5,64.5 C 507.694,65.7281 506.694,66.7281 505.5,67.5C 502.708,68.3918 501.375,70.3918 501.5,73.5C 499.073,73.477 496.74,72.977 494.5,72C 479.733,64.7867 464.733,57.7867 449.5,51C 469.171,55.1695 488.838,59.6695 508.5,64.5 Z"/></g>
<g><path style="opacity:1" fill="#747573" d="M 174.5,88.5 C 174.802,85.9407 174.468,83.6074 173.5,81.5C 173.17,75.1318 173.504,68.7985 174.5,62.5C 175.821,71.3245 175.821,79.9912 174.5,88.5 Z"/></g>
<g><path style="opacity:1" fill="#b8e6ea" d="M 512.5,56.5 C 513.754,58.3569 513.754,60.3569 512.5,62.5C 512.97,63.463 513.637,63.463 514.5,62.5C 514.5,64.1667 514.5,65.8333 514.5,67.5C 513.221,66.032 511.554,65.3653 509.5,65.5C 509.5,86.8333 509.5,108.167 509.5,129.5C 509.167,129.5 508.833,129.5 508.5,129.5C 508.5,108.833 508.5,88.1667 508.5,67.5C 507.5,67.5 506.5,67.5 505.5,67.5C 506.694,66.7281 507.694,65.7281 508.5,64.5C 509.5,64.5 510.5,64.5 511.5,64.5C 511.833,61.8333 512.167,59.1667 512.5,56.5 Z"/></g>
<g><path style="opacity:1" fill="#75c9df" d="M 603.5,55.5 C 604.493,63.6499 604.826,71.9832 604.5,80.5C 608.767,80.797 612.934,80.4637 617,79.5C 616.628,73.5245 616.128,67.5245 615.5,61.5C 617.808,70.3104 619.808,79.3104 621.5,88.5C 623.5,88.5 625.5,88.5 627.5,88.5C 624.713,89.4767 621.713,89.81 618.5,89.5C 618.804,88.8501 619.137,88.1835 619.5,87.5C 617.973,85.8067 616.64,83.9734 615.5,82C 611.514,81.5012 607.514,81.3345 603.5,81.5C 603.5,77.8333 603.5,74.1667 603.5,70.5C 603.5,65.5 603.5,60.5 603.5,55.5 Z"/></g>
<g><path style="opacity:1" fill="#4cc3e6" d="M 676.5,100.5 C 676.5,102.833 676.5,105.167 676.5,107.5C 660.104,102.652 643.771,97.6519 627.5,92.5C 626.791,91.596 625.791,91.2627 624.5,91.5C 624.169,115.006 624.502,138.339 625.5,161.5C 625.5,180.833 625.5,200.167 625.5,219.5C 623.228,220.319 620.894,220.985 618.5,221.5C 618.833,185.827 618.5,150.16 617.5,114.5C 616.893,114.624 616.56,114.957 616.5,115.5C 599.449,127.037 582.783,139.204 566.5,152C 565.668,152.688 565.002,152.521 564.5,151.5C 582.149,132.016 599.983,112.683 618,93.5C 618.49,92.2068 618.657,90.8734 618.5,89.5C 621.713,89.81 624.713,89.4767 627.5,88.5C 629.288,88.7852 630.955,88.4519 632.5,87.5C 633.539,84.0787 635.539,81.4121 638.5,79.5C 650.867,87.0176 663.534,94.0176 676.5,100.5 Z"/></g>
<g><path style="opacity:1" fill="#edbb73" d="M 149.5,207.5 C 146.014,210.445 142.014,212.445 137.5,213.5C 132.797,213.563 128.13,213.229 123.5,212.5C 120.262,211.262 117.262,209.596 114.5,207.5C 112.132,204.097 110.299,200.431 109,196.5C 108.108,189.524 107.608,182.524 107.5,175.5C 105.217,175.392 103.217,174.559 101.5,173C 82.0698,153.976 78.5698,132.476 91,108.5C 107.391,87.1494 128.224,81.3161 153.5,91C 182.027,109.653 187.861,133.819 171,163.5C 168.092,166.069 165.592,168.902 163.5,172C 160.86,172.896 158.693,174.396 157,176.5C 158.09,187.926 155.59,198.259 149.5,207.5 Z"/></g>
<g><path style="opacity:1" fill="#efe5dd" d="M 627.5,92.5 C 643.771,97.6519 660.104,102.652 676.5,107.5C 676.5,157.5 676.5,207.5 676.5,257.5C 672.854,249.196 666.52,244.196 657.5,242.5C 653.075,226.436 642.408,218.77 625.5,219.5C 625.5,200.167 625.5,180.833 625.5,161.5C 624.844,138.142 625.51,115.142 627.5,92.5 Z"/></g>
<g><path style="opacity:1" fill="#e6d8c9" d="M 444.5,101.5 C 452.013,100.646 458.847,102.646 465,107.5C 465.837,109.351 466.671,111.184 467.5,113C 468.448,113.483 469.448,113.649 470.5,113.5C 469.361,116.004 468.694,118.67 468.5,121.5C 466.738,121.643 465.071,121.309 463.5,120.5C 462.741,117.843 462.074,115.177 461.5,112.5C 459.042,111.876 457.376,110.376 456.5,108C 449.185,104.284 442.685,105.45 437,111.5C 436.923,114.758 436.756,117.924 436.5,121C 438.354,122.29 438.687,123.79 437.5,125.5C 438.605,126.892 439.939,128.059 441.5,129C 438.196,130.042 436.029,128.875 435,125.5C 433.984,121.299 432.818,117.132 431.5,113C 431.841,110.551 433.341,108.384 436,106.5C 437.813,107.609 438.646,106.942 438.5,104.5C 440.97,104.346 442.97,103.346 444.5,101.5 Z"/></g>
<g><path style="opacity:1" fill="#9ed9e4" d="M 627.5,92.5 C 625.51,115.142 624.844,138.142 625.5,161.5C 624.502,138.339 624.169,115.006 624.5,91.5C 625.791,91.2627 626.791,91.596 627.5,92.5 Z"/></g>
<g><path style="opacity:1" fill="#9f9367" d="M 133.5,132.5 C 130.923,138.48 129.423,144.813 129,151.5C 122.585,142.338 116.418,133.005 110.5,123.5C 110.167,124 109.833,124.5 109.5,125C 117.296,136.76 124.962,148.593 132.5,160.5C 128.085,160.695 123.751,160.195 119.5,159C 111.25,153.343 106.416,145.51 105,135.5C 103.837,128.547 103.337,121.547 103.5,114.5C 108.67,116.081 113.67,118.247 118.5,121C 123.68,124.69 128.68,128.523 133.5,132.5 Z"/></g>
<g><path style="opacity:1" fill="#898157" d="M 132.5,160.5 C 124.962,148.593 117.296,136.76 109.5,125C 109.833,124.5 110.167,124 110.5,123.5C 116.418,133.005 122.585,142.338 129,151.5C 129.423,144.813 130.923,138.48 133.5,132.5C 134.691,129.111 136.191,125.778 138,122.5C 138.718,121.549 139.551,121.383 140.5,122C 150.447,133.007 153.28,145.507 149,159.5C 147.261,161.741 145.094,163.408 142.5,164.5C 142.167,165.833 141.833,167.167 141.5,168.5C 142.186,171.628 143.019,174.628 144,177.5C 140.157,171.805 136.323,166.138 132.5,160.5 Z"/></g>
<g><path style="opacity:1" fill="#47c3e8" d="M 514.5,67.5 C 514.611,68.1174 514.944,68.6174 515.5,69C 518.817,69.4983 522.15,69.665 525.5,69.5C 527.647,81.1432 529.813,92.8098 532,104.5C 532.998,109.143 533.332,113.81 533,118.5C 527.133,104.111 521.3,89.7775 515.5,75.5C 515.539,74.2438 515.039,73.2438 514,72.5C 513.824,136.018 513.324,199.518 512.5,263C 513.216,265.792 513.549,268.626 513.5,271.5C 512.167,271.5 510.833,271.5 509.5,271.5C 509.5,224.167 509.5,176.833 509.5,129.5C 509.5,108.167 509.5,86.8333 509.5,65.5C 511.554,65.3653 513.221,66.032 514.5,67.5 Z"/></g>
<g><path style="opacity:1" fill="#aedfe5" d="M 616.5,115.5 C 616.56,114.957 616.893,114.624 617.5,114.5C 618.5,150.16 618.833,185.827 618.5,221.5C 618.167,221.5 617.833,221.5 617.5,221.5C 617.832,185.996 617.498,150.663 616.5,115.5 Z"/></g>
<g><path style="opacity:1" fill="#615e5b" d="M 237.5,204.5 C 236.833,204.5 236.5,204.833 236.5,205.5C 235.833,204.833 235.167,204.167 234.5,203.5C 223.638,184.279 212.638,165.113 201.5,146C 201.833,145.833 202.167,145.667 202.5,145.5C 214.415,164.994 226.082,184.66 237.5,204.5 Z"/></g>
<g><path style="opacity:1" fill="#585754" d="M 97.5,206.5 C 74.6727,207.498 51.6727,207.831 28.5,207.5C 39.41,187.258 50.7433,167.258 62.5,147.5C 55.7445,150.402 49.0778,154.235 42.5,159C 40.5979,160.301 38.5979,160.968 36.5,161C 45.9133,154.07 55.9133,148.237 66.5,143.5C 66.6665,154.838 66.4999,166.172 66,177.5C 65.8958,167.441 65.2291,157.441 64,147.5C 52.9598,167.081 41.7931,186.581 30.5,206C 52.8308,206.5 75.1642,206.667 97.5,206.5 Z"/></g>
<g><path style="opacity:1" fill="#c7c3bd" d="M 234.5,203.5 C 235.167,204.167 235.833,204.833 236.5,205.5C 214.337,206.663 192.004,206.83 169.5,206C 170.527,205.487 171.527,204.987 172.5,204.5C 182.661,205.167 192.995,205.5 203.5,205.5C 214.189,205.499 224.522,204.832 234.5,203.5 Z"/></g>
<g><path style="opacity:1" fill="#4d4c49" d="M 172.5,204.5 C 171.527,204.987 170.527,205.487 169.5,206C 192.004,206.83 214.337,206.663 236.5,205.5C 236.5,204.833 236.833,204.5 237.5,204.5C 238.11,205.391 238.443,206.391 238.5,207.5C 215.831,207.333 193.164,207.5 170.5,208C 171.044,208.717 171.711,209.217 172.5,209.5C 180.635,213.735 188.635,218.235 196.5,223C 193.983,223.257 191.65,222.59 189.5,221C 181.5,216.333 173.5,211.667 165.5,207C 175.033,200.241 185.033,194.575 195.5,190C 187.769,194.858 180.102,199.691 172.5,204.5 Z"/></g>
<g><path style="opacity:1" fill="#a19d96" d="M 97.5,206.5 C 98.0431,206.56 98.3764,206.893 98.5,207.5C 75.0035,208.829 51.6701,208.829 28.5,207.5C 51.6727,207.831 74.6727,207.498 97.5,206.5 Z"/></g>
<g><path style="opacity:1" fill="#a09d98" d="M 238.5,207.5 C 216.5,208.167 194.5,208.833 172.5,209.5C 171.711,209.217 171.044,208.717 170.5,208C 193.164,207.5 215.831,207.333 238.5,207.5 Z"/></g>
<g><path style="opacity:1" fill="#101148" d="M 114.5,207.5 C 117.262,209.596 120.262,211.262 123.5,212.5C 126.017,213.973 128.85,214.64 132,214.5C 134.033,214.494 135.866,214.161 137.5,213.5C 142.014,212.445 146.014,210.445 149.5,207.5C 149.5,209.833 149.5,212.167 149.5,214.5C 138.277,220.559 126.943,220.893 115.5,215.5C 114.527,213.052 114.194,210.385 114.5,207.5 Z"/></g>
<g><path style="opacity:1" fill="#9e8679" d="M 123.5,212.5 C 128.13,213.229 132.797,213.563 137.5,213.5C 135.866,214.161 134.033,214.494 132,214.5C 128.85,214.64 126.017,213.973 123.5,212.5 Z"/></g>
<g><path style="opacity:1" fill="#9e9369" d="M 617.5,221.5 C 617.833,221.5 618.167,221.5 618.5,221.5C 620.894,220.985 623.228,220.319 625.5,219.5C 642.408,218.77 653.075,226.436 657.5,242.5C 666.52,244.196 672.854,249.196 676.5,257.5C 676.5,280.5 676.5,303.5 676.5,326.5C 663.028,344.817 646.361,348.317 626.5,337C 624.333,334.833 622.167,332.667 620,330.5C 614.545,340.608 606.045,344.941 594.5,343.5C 596.32,362.171 588.32,374.338 570.5,380C 566.459,380.173 562.459,380.673 558.5,381.5C 546.316,398.306 530.982,401.806 512.5,392C 509.328,389.994 506.662,387.494 504.5,384.5C 496.816,396.265 486.149,400.098 472.5,396C 468.666,392.998 465,389.831 461.5,386.5C 469.664,360.514 477.831,334.514 486,308.5C 489.56,297.978 493.393,287.645 497.5,277.5C 500.614,275.609 503.948,274.276 507.5,273.5C 510.167,273.5 512.833,273.5 515.5,273.5C 522.282,273.475 528.116,275.808 533,280.5C 536.365,259.628 548.531,248.961 569.5,248.5C 567,239.026 568.5,230.359 574,222.5C 587.154,212.457 599.487,213.457 611,225.5C 613.052,223.942 615.219,222.608 617.5,221.5 Z"/></g>
<g><path style="opacity:1" fill="#a6a3bc" d="M 149.5,214.5 C 150.756,216.941 150.756,219.274 149.5,221.5C 149.785,219.712 149.452,218.045 148.5,216.5C 137.708,222.813 126.708,223.146 115.5,217.5C 114.571,218.689 114.238,220.022 114.5,221.5C 113.157,219.317 113.49,217.317 115.5,215.5C 126.943,220.893 138.277,220.559 149.5,214.5 Z"/></g>
<g><path style="opacity:1" fill="#0d104b" d="M 149.5,221.5 C 148.833,221.833 148.167,222.167 147.5,222.5C 136.527,227.795 125.527,227.795 114.5,222.5C 114.5,222.167 114.5,221.833 114.5,221.5C 114.238,220.022 114.571,218.689 115.5,217.5C 126.708,223.146 137.708,222.813 148.5,216.5C 149.452,218.045 149.785,219.712 149.5,221.5 Z"/></g>
<g><path style="opacity:1" fill="#6ac1d8" d="M 515.5,75.5 C 514.502,104.329 514.169,133.329 514.5,162.5C 514.5,199.167 514.5,235.833 514.5,272.5C 512.5,272.5 510.5,272.5 508.5,272.5C 508.5,237.5 508.5,202.5 508.5,167.5C 508.5,154.833 508.5,142.167 508.5,129.5C 508.833,129.5 509.167,129.5 509.5,129.5C 509.5,176.833 509.5,224.167 509.5,271.5C 510.833,271.5 512.167,271.5 513.5,271.5C 513.549,268.626 513.216,265.792 512.5,263C 513.324,199.518 513.824,136.018 514,72.5C 515.039,73.2438 515.539,74.2438 515.5,75.5 Z"/></g>
<g><path style="opacity:1" fill="#b0afc5" d="M 114.5,222.5 C 125.527,227.795 136.527,227.795 147.5,222.5C 148.091,223.151 148.757,223.818 149.5,224.5C 149.376,225.107 149.043,225.44 148.5,225.5C 148.44,224.957 148.107,224.624 147.5,224.5C 136.941,229.753 126.441,229.753 116,224.5C 115.421,225.928 115.588,227.262 116.5,228.5C 114.692,227.082 114.025,225.082 114.5,222.5 Z"/></g>
<g><path style="opacity:1" fill="#f0dfd3" d="M 506.5,238.5 C 505.167,238.5 503.833,238.5 502.5,238.5C 502.5,237.167 502.5,235.833 502.5,234.5C 502.5,233.5 502.5,232.5 502.5,231.5C 419.5,231.5 336.5,231.5 253.5,231.5C 252.391,231.557 251.391,231.89 250.5,232.5C 250.244,230.088 251.244,228.421 253.5,227.5C 272.158,226.334 290.824,226.167 309.5,227C 308.044,227.423 307.544,228.256 308,229.5C 309.609,228.853 311.109,228.02 312.5,227C 337.259,226.1 361.925,226.434 386.5,228C 386.167,227.667 385.833,227.333 385.5,227C 397,226.833 408.5,226.667 420,226.5C 431.99,226.521 443.823,227.187 455.5,228.5C 456.308,228.192 456.975,227.692 457.5,227C 471.5,226.333 485.5,226.333 499.5,227C 500.126,227.75 500.626,228.584 501,229.5C 501.667,228.167 502.333,228.167 503,229.5C 503.497,232.146 503.664,234.813 503.5,237.5C 504.791,237.263 505.791,237.596 506.5,238.5 Z"/></g>
<g><path style="opacity:1" fill="#0b104a" d="M 148.5,225.5 C 146.918,230.084 143.918,233.417 139.5,235.5C 135.901,236.344 132.234,236.677 128.5,236.5C 123.214,235.851 119.214,233.184 116.5,228.5C 115.588,227.262 115.421,225.928 116,224.5C 126.441,229.753 136.941,229.753 147.5,224.5C 148.107,224.624 148.44,224.957 148.5,225.5 Z"/></g>
<g><path style="opacity:1" fill="#bb9080" d="M 253.5,231.5 C 336.5,231.5 419.5,231.5 502.5,231.5C 502.5,232.5 502.5,233.5 502.5,234.5C 485.339,286.652 468.339,338.986 451.5,391.5C 404.171,392.5 356.838,392.833 309.5,392.5C 304.125,392.828 298.792,392.495 293.5,391.5C 293.624,390.893 293.957,390.56 294.5,390.5C 295.833,390.5 297.167,390.5 298.5,390.5C 300.836,382.496 303.169,374.496 305.5,366.5C 307.451,362.126 308.784,357.46 309.5,352.5C 308.325,352.719 307.325,352.386 306.5,351.5C 308.045,350.548 309.712,350.215 311.5,350.5C 312.833,345.5 314.167,340.5 315.5,335.5C 318.46,328.314 320.793,320.98 322.5,313.5C 318.702,312.517 314.702,312.183 310.5,312.5C 294.169,364.494 277.836,416.494 261.5,468.5C 241.167,468.5 220.833,468.5 200.5,468.5C 200.833,467.5 201.5,466.833 202.5,466.5C 204.833,466.5 207.167,466.5 209.5,466.5C 211.426,458.389 213.759,450.389 216.5,442.5C 217.167,442.5 217.833,442.5 218.5,442.5C 216.166,450.502 213.833,458.502 211.5,466.5C 227.833,466.5 244.167,466.5 260.5,466.5C 263.855,453.75 267.521,441.083 271.5,428.5C 255.167,428.5 238.833,428.5 222.5,428.5C 222.688,430.103 222.188,431.437 221,432.5C 220.878,430.563 220.045,429.23 218.5,428.5C 218.5,427.833 218.5,427.167 218.5,426.5C 219.822,426.67 220.989,426.337 222,425.5C 223.268,421.864 224.434,418.197 225.5,414.5C 225.457,413.584 225.124,412.917 224.5,412.5C 226.22,411.692 227.887,410.692 229.5,409.5C 227.06,414.924 225.393,420.591 224.5,426.5C 240.503,426.667 256.503,426.5 272.5,426C 276.578,413.521 280.578,401.021 284.5,388.5C 268.5,388.5 252.5,388.5 236.5,388.5C 236.567,387.041 236.234,385.708 235.5,384.5C 238.631,373.773 241.964,363.106 245.5,352.5C 246.234,351.292 246.567,349.959 246.5,348.5C 230.5,348.5 214.5,348.5 198.5,348.5C 197.662,348.158 197.328,347.492 197.5,346.5C 199.294,339.116 201.294,331.783 203.5,324.5C 205.444,319.608 207.11,314.608 208.5,309.5C 192.672,308.339 176.672,308.172 160.5,309C 159.934,309.995 159.267,310.828 158.5,311.5C 158.5,310.5 158.5,309.5 158.5,308.5C 142.5,308.5 126.5,308.5 110.5,308.5C 109.833,308.5 109.167,308.5 108.5,308.5C 93.1667,308.5 77.8333,308.5 62.5,308.5C 117.5,307.833 172.5,307.167 227.5,306.5C 243.598,307.823 259.598,307.823 275.5,306.5C 278.437,295.358 281.77,284.358 285.5,273.5C 270.672,272.669 255.672,272.169 240.5,272C 256.005,271.831 271.339,271.331 286.5,270.5C 290.14,259.943 293.473,249.276 296.5,238.5C 297.309,236.972 297.976,235.306 298.5,233.5C 283.5,232.833 268.5,232.167 253.5,231.5 Z"/></g>
<g><path style="opacity:1" fill="#f0e5d9" d="M 346.5,238.5 C 330.658,238.83 314.991,238.496 299.5,237.5C 300.234,236.292 300.567,234.959 300.5,233.5C 316.503,233.333 332.503,233.5 348.5,234C 347.733,235.47 347.067,236.97 346.5,238.5 Z"/></g>
<g><path style="opacity:1" fill="#8c8ca1" d="M 139.5,235.5 C 139.389,236.117 139.056,236.617 138.5,237C 134.973,237.808 131.64,237.641 128.5,236.5C 132.234,236.677 135.901,236.344 139.5,235.5 Z"/></g>
<g><path style="opacity:1" fill="#f0e4d9" d="M 298.5,233.5 C 297.976,235.306 297.309,236.972 296.5,238.5C 283.816,238.168 271.149,238.501 258.5,239.5C 255.439,249.947 252.105,260.281 248.5,270.5C 246.167,270.5 243.833,270.5 241.5,270.5C 244.861,258.25 248.527,246.084 252.5,234C 267.83,233.5 283.163,233.333 298.5,233.5 Z"/></g>
<g><path style="opacity:1" fill="#d5bca6" d="M 350.5,234.5 C 350.5,235.833 350.5,237.167 350.5,238.5C 355.214,238.173 359.88,238.507 364.5,239.5C 357.173,247.494 349.506,255.161 341.5,262.5C 344.131,252.943 347.131,243.61 350.5,234.5 Z"/></g>
<g><path style="opacity:1" fill="#f7eee6" d="M 394.5,247.5 C 387.276,254.936 380.276,262.603 373.5,270.5C 361.988,270.828 350.654,270.495 339.5,269.5C 339.41,266.848 340.076,264.515 341.5,262.5C 349.506,255.161 357.173,247.494 364.5,239.5C 359.88,238.507 355.214,238.173 350.5,238.5C 350.5,237.167 350.5,235.833 350.5,234.5C 366.325,233.504 382.325,233.17 398.5,233.5C 397.37,238.223 396.037,242.89 394.5,247.5 Z"/></g>
<g><path style="opacity:1" fill="#f6eee6" d="M 437.5,270.5 C 421.83,270.667 406.163,270.5 390.5,270C 399.314,259.685 408.314,249.518 417.5,239.5C 412.167,238.167 406.833,238.167 401.5,239.5C 400.413,241.975 399.747,241.975 399.5,239.5C 399.833,237.5 400.167,235.5 400.5,233.5C 416.837,233.333 433.17,233.5 449.5,234C 445.374,246.211 441.374,258.378 437.5,270.5 Z"/></g>
<g><path style="opacity:1" fill="#f5ebe3" d="M 498.5,238.5 C 490.826,238.334 483.159,238.5 475.5,239C 464.302,249.367 453.302,259.867 442.5,270.5C 441.503,270.53 440.836,270.03 440.5,269C 444.278,257.168 447.945,245.334 451.5,233.5C 467.847,233.167 484.18,233.501 500.5,234.5C 500.006,236.026 499.339,237.359 498.5,238.5 Z"/></g>
<g><path style="opacity:1" fill="#d5baa2" d="M 296.5,238.5 C 293.473,249.276 290.14,259.943 286.5,270.5C 273.833,270.5 261.167,270.5 248.5,270.5C 252.105,260.281 255.439,249.947 258.5,239.5C 271.149,238.501 283.816,238.168 296.5,238.5 Z"/></g>
<g><path style="opacity:1" fill="#d5baa2" d="M 299.5,237.5 C 314.991,238.496 330.658,238.83 346.5,238.5C 343.725,249.967 339.892,260.967 335,271.5C 319.869,270.524 304.703,270.19 289.5,270.5C 292.077,259.172 295.411,248.172 299.5,237.5 Z"/></g>
<g><path style="opacity:1" fill="#d4bba2" d="M 498.5,238.5 C 495.5,249.167 492.5,259.833 489.5,270.5C 473.833,270.5 458.167,270.5 442.5,270.5C 453.302,259.867 464.302,249.367 475.5,239C 483.159,238.5 490.826,238.334 498.5,238.5 Z"/></g>
<g><path style="opacity:1" fill="#d5bda7" d="M 437.5,270.5 C 421.675,271.496 405.675,271.83 389.5,271.5C 392.267,260.54 395.6,249.873 399.5,239.5C 399.747,241.975 400.413,241.975 401.5,239.5C 406.833,238.167 412.167,238.167 417.5,239.5C 408.314,249.518 399.314,259.685 390.5,270C 406.163,270.5 421.83,270.667 437.5,270.5 Z"/></g>
<g><path style="opacity:1" fill="#efe3d9" d="M 507.5,244.5 C 507.5,254.167 507.5,263.833 507.5,273.5C 503.948,274.276 500.614,275.609 497.5,277.5C 496.957,277.44 496.624,277.107 496.5,276.5C 499.877,265.621 503.544,254.955 507.5,244.5 Z"/></g>
<g><path style="opacity:1" fill="#c29c8c" d="M 253.5,231.5 C 268.5,232.167 283.5,232.833 298.5,233.5C 283.163,233.333 267.83,233.5 252.5,234C 248.527,246.084 244.861,258.25 241.5,270.5C 243.833,270.5 246.167,270.5 248.5,270.5C 261.167,270.5 273.833,270.5 286.5,270.5C 271.339,271.331 256.005,271.831 240.5,272C 255.672,272.169 270.672,272.669 285.5,273.5C 272.833,273.5 260.167,273.5 247.5,273.5C 244.833,273.5 242.167,273.5 239.5,273.5C 236.373,284.215 233.04,294.881 229.5,305.5C 232.086,306.48 234.753,306.813 237.5,306.5C 250.167,306.5 262.833,306.5 275.5,306.5C 259.598,307.823 243.598,307.823 227.5,306.5C 235.167,281.833 242.834,257.166 250.5,232.5C 251.391,231.89 252.391,231.557 253.5,231.5 Z"/></g>
<g><path style="opacity:1" fill="#d2bca4" d="M 394.5,247.5 C 392.011,255.121 389.678,262.788 387.5,270.5C 382.833,270.5 378.167,270.5 373.5,270.5C 380.276,262.603 387.276,254.936 394.5,247.5 Z"/></g>
<g><path style="opacity:1" fill="#bce3e8" d="M 514.5,162.5 C 515.498,199.33 515.832,236.33 515.5,273.5C 512.833,273.5 510.167,273.5 507.5,273.5C 507.5,263.833 507.5,254.167 507.5,244.5C 507.5,242.5 507.5,240.5 507.5,238.5C 507.169,214.661 507.502,190.994 508.5,167.5C 508.5,202.5 508.5,237.5 508.5,272.5C 510.5,272.5 512.5,272.5 514.5,272.5C 514.5,235.833 514.5,199.167 514.5,162.5 Z"/></g>
<g><path style="opacity:1" fill="#e0c1b9" d="M 339.5,269.5 C 350.654,270.495 361.988,270.828 373.5,270.5C 361.993,271.824 350.327,271.824 338.5,270.5C 338.624,269.893 338.957,269.56 339.5,269.5 Z"/></g>
<g><path style="opacity:1" fill="#d4baa2" d="M 330.5,273.5 C 319.833,284.5 309.167,295.5 298.5,306.5C 291.5,306.5 284.5,306.5 277.5,306.5C 280.829,295.858 284.162,285.192 287.5,274.5C 301.818,273.501 316.151,273.167 330.5,273.5 Z"/></g>
<g><path style="opacity:1" fill="#f8efe8" d="M 435.5,276.5 C 423.119,287.551 411.119,298.884 399.5,310.5C 392.167,310.5 384.833,310.5 377.5,310.5C 380.425,298.723 383.759,287.057 387.5,275.5C 395.305,274.169 403.472,273.502 412,273.5C 420.167,273.833 428.333,274.167 436.5,274.5C 436.137,275.183 435.804,275.85 435.5,276.5 Z"/></g>
<g><path style="opacity:1" fill="#d4baa1" d="M 438.5,273.5 C 454.847,273.167 471.18,273.501 487.5,274.5C 483.422,286.399 479.755,298.399 476.5,310.5C 460.167,310.5 443.833,310.5 427.5,310.5C 430.963,298.112 434.629,285.779 438.5,273.5 Z"/></g>
<g><path style="opacity:1" fill="#f7efe8" d="M 337.5,273.5 C 348.5,273.5 359.5,273.5 370.5,273.5C 359.743,286.046 348.743,298.38 337.5,310.5C 333.629,310.815 329.962,310.482 326.5,309.5C 329.859,297.396 333.525,285.396 337.5,273.5 Z"/></g>
<g><path style="opacity:1" fill="#f7eee7" d="M 330.5,273.5 C 331.833,273.5 333.167,273.5 334.5,273.5C 331.885,285.738 328.385,297.738 324,309.5C 320.27,310.46 316.437,310.793 312.5,310.5C 312.5,309.167 312.5,307.833 312.5,306.5C 307.833,306.5 303.167,306.5 298.5,306.5C 309.167,295.5 319.833,284.5 330.5,273.5 Z"/></g>
<g><path style="opacity:1" fill="#f1e2d7" d="M 247.5,273.5 C 243.916,284.412 240.583,295.412 237.5,306.5C 234.753,306.813 232.086,306.48 229.5,305.5C 233.04,294.881 236.373,284.215 239.5,273.5C 242.167,273.5 244.833,273.5 247.5,273.5 Z"/></g>
<g><path style="opacity:1" fill="#d4baa2" d="M 247.5,273.5 C 260.167,273.5 272.833,273.5 285.5,273.5C 281.77,284.358 278.437,295.358 275.5,306.5C 262.833,306.5 250.167,306.5 237.5,306.5C 240.583,295.412 243.916,284.412 247.5,273.5 Z"/></g>
<g><path style="opacity:1" fill="#f7eee6" d="M 384.5,277.5 C 381.569,288.627 378.235,299.627 374.5,310.5C 367.5,310.5 360.5,310.5 353.5,310.5C 363.495,299.172 373.828,288.172 384.5,277.5 Z"/></g>
<g><path style="opacity:1" fill="#c6a494" d="M 337.5,273.5 C 353.658,272.504 369.991,272.17 386.5,272.5C 386.263,273.791 386.596,274.791 387.5,275.5C 383.759,287.057 380.425,298.723 377.5,310.5C 384.833,310.5 392.167,310.5 399.5,310.5C 407.833,310.5 416.167,310.5 424.5,310.5C 391.664,311.83 358.664,311.83 325.5,310.5C 325.624,309.893 325.957,309.56 326.5,309.5C 329.962,310.482 333.629,310.815 337.5,310.5C 342.833,310.5 348.167,310.5 353.5,310.5C 360.5,310.5 367.5,310.5 374.5,310.5C 378.235,299.627 381.569,288.627 384.5,277.5C 385.434,276.432 385.768,275.099 385.5,273.5C 380.5,273.5 375.5,273.5 370.5,273.5C 359.5,273.5 348.5,273.5 337.5,273.5 Z"/></g>
<g><path style="opacity:1" fill="#d4baa2" d="M 435.5,276.5 C 432.605,288.182 428.938,299.516 424.5,310.5C 416.167,310.5 407.833,310.5 399.5,310.5C 411.119,298.884 423.119,287.551 435.5,276.5 Z"/></g>
<g><path style="opacity:1" fill="#d3bba4" d="M 370.5,273.5 C 375.5,273.5 380.5,273.5 385.5,273.5C 385.768,275.099 385.434,276.432 384.5,277.5C 373.828,288.172 363.495,299.172 353.5,310.5C 348.167,310.5 342.833,310.5 337.5,310.5C 348.743,298.38 359.743,286.046 370.5,273.5 Z"/></g>
<g><path style="opacity:1" fill="#d4b5a3" d="M 276.5,308.5 C 287.853,308.168 299.186,308.501 310.5,309.5C 310.291,310.086 309.957,310.586 309.5,311C 298.152,311.832 286.819,311.666 275.5,310.5C 275.863,309.817 276.196,309.15 276.5,308.5 Z"/></g>
<g><path style="opacity:1" fill="#f1e0d3" d="M 110.5,308.5 C 126.5,308.5 142.5,308.5 158.5,308.5C 158.5,309.5 158.5,310.5 158.5,311.5C 157.094,311.973 156.427,312.973 156.5,314.5C 141.496,314.667 126.496,314.5 111.5,314C 110.62,312.644 110.286,311.144 110.5,309.5C 110.5,309.167 110.5,308.833 110.5,308.5 Z"/></g>
<g><path style="opacity:1" fill="#f6eee7" d="M 375.5,313.5 C 381.842,313.334 388.175,313.5 394.5,314C 386.5,321.667 378.5,329.333 370.5,337C 369.563,337.692 368.897,337.525 368.5,336.5C 370.37,328.683 372.704,321.017 375.5,313.5 Z"/></g>
<g><path style="opacity:1" fill="#f7ede7" d="M 208.5,309.5 C 207.11,314.608 205.444,319.608 203.5,324.5C 196.492,331.508 189.826,338.842 183.5,346.5C 171.814,346.832 160.148,346.499 148.5,345.5C 149.33,342.984 150.33,340.65 151.5,338.5C 158.784,330.88 166.118,323.214 173.5,315.5C 170.378,312.177 166.712,311.51 162.5,313.5C 162.5,312.167 162.5,310.833 162.5,309.5C 177.833,309.5 193.167,309.5 208.5,309.5 Z"/></g>
<g><path style="opacity:1" fill="#f5ede1" d="M 324.5,313.5 C 327.572,313.183 330.572,313.516 333.5,314.5C 329.148,319.018 324.981,323.684 321,328.5C 320.601,328.272 320.435,327.938 320.5,327.5C 321.635,322.763 322.968,318.097 324.5,313.5 Z"/></g>
<g><path style="opacity:1" fill="#f7efe8" d="M 373.5,313.5 C 370.178,322.303 367.344,331.303 365,340.5C 362.537,343.965 359.704,347.131 356.5,350C 343.504,350.5 330.504,350.667 317.5,350.5C 328.142,338.082 339.142,325.915 350.5,314C 358.159,313.5 365.826,313.334 373.5,313.5 Z"/></g>
<g><path style="opacity:1" fill="#d4bba2" d="M 375.5,313.5 C 391.326,313.011 407.326,313.011 423.5,313.5C 419.989,325.879 416.322,338.212 412.5,350.5C 396.163,350.667 379.83,350.5 363.5,350C 365.234,345.422 366.9,340.922 368.5,336.5C 368.897,337.525 369.563,337.692 370.5,337C 378.5,329.333 386.5,321.667 394.5,314C 388.175,313.5 381.842,313.334 375.5,313.5 Z"/></g>
<g><path style="opacity:1" fill="#d4baa1" d="M 425.5,313.5 C 441.5,313.5 457.5,313.5 473.5,313.5C 470.572,325.948 467.239,338.282 463.5,350.5C 447.167,350.5 430.833,350.5 414.5,350.5C 418.323,338.206 421.99,325.873 425.5,313.5 Z"/></g>
<g><path style="opacity:1" fill="#e6cdbd" d="M 110.5,309.5 C 110.286,311.144 110.62,312.644 111.5,314C 126.496,314.5 141.496,314.667 156.5,314.5C 153.471,324.901 150.138,335.235 146.5,345.5C 130.514,346.499 114.514,346.833 98.5,346.5C 102.126,333.958 106.126,321.625 110.5,309.5 Z"/></g>
<g><path style="opacity:1" fill="#f8efe8" d="M 227.5,313.5 C 237.146,314.287 246.812,314.62 256.5,314.5C 254.389,325.065 251.389,335.399 247.5,345.5C 231.514,346.499 215.514,346.833 199.5,346.5C 199.5,346.167 199.5,345.833 199.5,345.5C 208.467,336.365 217.3,327.031 226,317.5C 226.791,316.255 227.291,314.922 227.5,313.5 Z"/></g>
<g><path style="opacity:1" fill="#f7ede5" d="M 274.5,314.5 C 277.85,314.335 281.183,314.502 284.5,315C 273.275,325.394 262.275,335.894 251.5,346.5C 250.624,346.631 249.957,346.298 249.5,345.5C 252.838,335.154 256.171,324.821 259.5,314.5C 264.369,313.249 269.369,313.249 274.5,314.5 Z"/></g>
<g><path style="opacity:1" fill="#e6cebd" d="M 274.5,314.5 C 285.674,313.176 297.007,313.176 308.5,314.5C 305.041,325.124 301.708,335.791 298.5,346.5C 282.833,346.5 267.167,346.5 251.5,346.5C 262.275,335.894 273.275,325.394 284.5,315C 281.183,314.502 277.85,314.335 274.5,314.5 Z"/></g>
<g><path style="opacity:1" fill="#f6ebe2" d="M 322.5,313.5 C 320.793,320.98 318.46,328.314 315.5,335.5C 313.871,336.625 312.371,337.959 311,339.5C 312.552,331.347 315.052,323.347 318.5,315.5C 316.234,314.686 313.9,314.186 311.5,314C 315.152,313.501 318.818,313.335 322.5,313.5 Z"/></g>
<g><path style="opacity:1" fill="#e7d0bf" d="M 210.5,309.5 C 215.5,309.5 220.5,309.5 225.5,309.5C 225.714,311.144 225.38,312.644 224.5,314C 225.577,314.47 226.577,314.303 227.5,313.5C 227.291,314.922 226.791,316.255 226,317.5C 217.3,327.031 208.467,336.365 199.5,345.5C 203.42,333.556 207.087,321.556 210.5,309.5 Z"/></g>
<g><path style="opacity:1" fill="#d4bba3" d="M 324.5,313.5 C 340.833,312.167 357.167,312.167 373.5,313.5C 365.826,313.334 358.159,313.5 350.5,314C 339.142,325.915 328.142,338.082 317.5,350.5C 316.167,350.5 314.833,350.5 313.5,350.5C 315.259,342.564 317.592,334.898 320.5,327.5C 320.435,327.938 320.601,328.272 321,328.5C 324.981,323.684 329.148,319.018 333.5,314.5C 330.572,313.516 327.572,313.183 324.5,313.5 Z"/></g>
<g><path style="opacity:1" fill="#e6cebd" d="M 208.5,309.5 C 193.167,309.5 177.833,309.5 162.5,309.5C 162.5,310.833 162.5,312.167 162.5,313.5C 166.712,311.51 170.378,312.177 173.5,315.5C 166.118,323.214 158.784,330.88 151.5,338.5C 153.987,329.554 156.32,320.554 158.5,311.5C 159.267,310.828 159.934,309.995 160.5,309C 176.672,308.172 192.672,308.339 208.5,309.5 Z"/></g>
<g><path style="opacity:1" fill="#c8a396" d="M 210.5,309.5 C 215.64,308.512 220.974,308.179 226.5,308.5C 226.5,309.833 226.5,311.167 226.5,312.5C 237.755,311.891 248.755,312.558 259.5,314.5C 256.171,324.821 252.838,335.154 249.5,345.5C 249.957,346.298 250.624,346.631 251.5,346.5C 267.167,346.5 282.833,346.5 298.5,346.5C 265.5,347.833 232.5,347.833 199.5,346.5C 215.514,346.833 231.514,346.499 247.5,345.5C 251.389,335.399 254.389,325.065 256.5,314.5C 246.812,314.62 237.146,314.287 227.5,313.5C 226.577,314.303 225.577,314.47 224.5,314C 225.38,312.644 225.714,311.144 225.5,309.5C 220.5,309.5 215.5,309.5 210.5,309.5 Z"/></g>
<g><path style="opacity:1" fill="#8a855e" d="M 676.5,326.5 C 676.5,354.833 676.5,383.167 676.5,411.5C 549.833,411.5 423.167,411.5 296.5,411.5C 295.841,443.518 296.507,475.184 298.5,506.5C 300.167,506.5 301.833,506.5 303.5,506.5C 303.5,506.833 303.5,507.167 303.5,507.5C 290.167,507.5 276.833,507.5 263.5,507.5C 248.549,497.845 232.216,491.512 214.5,488.5C 214.5,488.167 214.5,487.833 214.5,487.5C 213.194,486.533 212.527,485.199 212.5,483.5C 203.822,483.416 195.155,483.083 186.5,482.5C 187.043,479.782 187.709,477.115 188.5,474.5C 214.833,474.5 241.167,474.5 267.5,474.5C 275.169,449.502 283.003,424.502 291,399.5C 295.401,398.533 299.901,398.2 304.5,398.5C 355.504,398.833 406.504,398.5 457.5,397.5C 458.612,393.637 459.945,389.97 461.5,386.5C 465,389.831 468.666,392.998 472.5,396C 486.149,400.098 496.816,396.265 504.5,384.5C 506.662,387.494 509.328,389.994 512.5,392C 530.982,401.806 546.316,398.306 558.5,381.5C 562.459,380.673 566.459,380.173 570.5,380C 588.32,374.338 596.32,362.171 594.5,343.5C 606.045,344.941 614.545,340.608 620,330.5C 622.167,332.667 624.333,334.833 626.5,337C 646.361,348.317 663.028,344.817 676.5,326.5 Z"/></g>
<g><path style="opacity:1" fill="#e5cebe" d="M 203.5,324.5 C 201.294,331.783 199.294,339.116 197.5,346.5C 192.833,346.5 188.167,346.5 183.5,346.5C 189.826,338.842 196.492,331.508 203.5,324.5 Z"/></g>
<g><path style="opacity:1" fill="#f8efe8" d="M 147.5,349.5 C 158.187,349.168 168.854,349.501 179.5,350.5C 168.648,362.184 157.982,374.017 147.5,386C 143.514,386.499 139.514,386.666 135.5,386.5C 139.13,373.947 143.13,361.614 147.5,349.5 Z"/></g>
<g><path style="opacity:1" fill="#f6ede7" d="M 198.5,348.5 C 214.5,348.5 230.5,348.5 246.5,348.5C 246.567,349.959 246.234,351.292 245.5,352.5C 237.037,359.793 228.704,367.293 220.5,375C 219.552,375.483 218.552,375.649 217.5,375.5C 212.101,374.006 206.768,374.173 201.5,376C 204.199,377.577 204.866,379.743 203.5,382.5C 199.64,379.07 195.307,376.403 190.5,374.5C 192.564,365.643 195.23,356.976 198.5,348.5 Z"/></g>
<g><path style="opacity:1" fill="#e6cdbd" d="M 248.5,348.5 C 264.847,348.167 281.18,348.501 297.5,349.5C 293.5,361.5 289.5,373.5 285.5,385.5C 269.514,386.499 253.514,386.833 237.5,386.5C 240.852,373.762 244.519,361.095 248.5,348.5 Z"/></g>
<g><path style="opacity:1" fill="#f7efe8" d="M 313.5,390.5 C 309.167,390.5 304.833,390.5 300.5,390.5C 303.769,379.028 307.435,367.694 311.5,356.5C 312.267,355.828 312.934,354.995 313.5,354C 326.18,353.167 338.846,353.334 351.5,354.5C 338.484,366.184 325.818,378.184 313.5,390.5 Z"/></g>
<g><path style="opacity:1" fill="#d4baa1" d="M 362.5,352.5 C 378.833,352.5 395.167,352.5 411.5,352.5C 407.503,365.15 403.503,377.817 399.5,390.5C 383.163,390.667 366.83,390.5 350.5,390C 354.796,377.612 358.796,365.112 362.5,352.5 Z"/></g>
<g><path style="opacity:1" fill="#d4bba3" d="M 313.5,390.5 C 325.818,378.184 338.484,366.184 351.5,354.5C 338.846,353.334 326.18,353.167 313.5,354C 312.934,354.995 312.267,355.828 311.5,356.5C 311.33,355.178 311.663,354.011 312.5,353C 328.51,352.167 344.51,352.334 360.5,353.5C 356.194,365.584 352.194,377.751 348.5,390C 336.838,390.5 325.171,390.667 313.5,390.5 Z"/></g>
<g><path style="opacity:1" fill="#d4baa1" d="M 413.5,352.5 C 429.847,352.167 446.18,352.501 462.5,353.5C 457.925,365.315 453.925,377.315 450.5,389.5C 434.167,390.833 417.833,390.833 401.5,389.5C 405.506,377.149 409.506,364.816 413.5,352.5 Z"/></g>
<g><path style="opacity:1" fill="#e4cdbd" d="M 147.5,349.5 C 163.325,348.504 179.325,348.17 195.5,348.5C 195.768,350.099 195.434,351.432 194.5,352.5C 187.464,359.534 180.797,366.867 174.5,374.5C 173.833,374.5 173.5,374.833 173.5,375.5C 166.137,377.861 159.804,381.861 154.5,387.5C 147.978,387.823 141.645,387.49 135.5,386.5C 139.514,386.666 143.514,386.499 147.5,386C 157.982,374.017 168.648,362.184 179.5,350.5C 168.854,349.501 158.187,349.168 147.5,349.5 Z"/></g>
<g><path style="opacity:1" fill="#e4cebd" d="M 245.5,352.5 C 241.964,363.106 238.631,373.773 235.5,384.5C 234.167,384.5 233.5,385.167 233.5,386.5C 232.167,386.5 230.833,386.5 229.5,386.5C 226.751,381.415 222.751,377.748 217.5,375.5C 218.552,375.649 219.552,375.483 220.5,375C 228.704,367.293 237.037,359.793 245.5,352.5 Z"/></g>
<g><path style="opacity:1" fill="#373e43" d="M 190.5,374.5 C 195.307,376.403 199.64,379.07 203.5,382.5C 204.866,379.743 204.199,377.577 201.5,376C 206.768,374.173 212.101,374.006 217.5,375.5C 222.751,377.748 226.751,381.415 229.5,386.5C 231.278,394.943 229.612,402.61 224.5,409.5C 222.866,410.581 221.533,411.915 220.5,413.5C 220.5,413.833 220.5,414.167 220.5,414.5C 215.821,414.666 211.155,414.499 206.5,414C 198.173,410.418 189.507,409.084 180.5,410C 178.714,410.785 177.214,411.951 176,413.5C 173.912,417.93 172.579,422.596 172,427.5C 171.3,429.032 170.134,430.032 168.5,430.5C 169.242,423.631 166.575,418.798 160.5,416C 150.96,415.544 147.127,420.044 149,429.5C 150.914,431.748 152.414,434.248 153.5,437C 152.194,440.45 150.527,443.616 148.5,446.5C 147.167,445.5 145.833,444.5 144.5,443.5C 144.5,438.5 144.5,433.5 144.5,428.5C 144.833,427.833 145.167,427.167 145.5,426.5C 145.45,418.76 146.117,411.094 147.5,403.5C 148.599,398.424 150.599,393.757 153.5,389.5C 154.338,389.158 154.672,388.492 154.5,387.5C 159.804,381.861 166.137,377.861 173.5,375.5C 179.13,374.708 184.797,374.375 190.5,374.5 Z"/></g>
<g><path style="opacity:1" fill="#f6ece3" d="M 305.5,366.5 C 303.169,374.496 300.836,382.496 298.5,390.5C 297.167,390.5 295.833,390.5 294.5,390.5C 296.364,383.098 298.53,375.765 301,368.5C 302.333,367.167 303.667,365.833 305,364.5C 305.464,365.094 305.631,365.761 305.5,366.5 Z"/></g>
<g><path style="opacity:1" fill="#e6cdbc" d="M 236.5,388.5 C 252.5,388.5 268.5,388.5 284.5,388.5C 280.578,401.021 276.578,413.521 272.5,426C 256.503,426.5 240.503,426.667 224.5,426.5C 225.393,420.591 227.06,414.924 229.5,409.5C 235.048,403.667 237.381,396.667 236.5,388.5 Z"/></g>
<g><path style="opacity:1" fill="#d1b89f" d="M 502.5,234.5 C 502.5,235.833 502.5,237.167 502.5,238.5C 503.833,238.5 505.167,238.5 506.5,238.5C 506.833,238.5 507.167,238.5 507.5,238.5C 507.5,240.5 507.5,242.5 507.5,244.5C 503.544,254.955 499.877,265.621 496.5,276.5C 496.624,277.107 496.957,277.44 497.5,277.5C 493.393,287.645 489.56,297.978 486,308.5C 477.831,334.514 469.664,360.514 461.5,386.5C 459.945,389.97 458.612,393.637 457.5,397.5C 406.504,398.5 355.504,398.833 304.5,398.5C 304.5,398.167 304.5,397.833 304.5,397.5C 305.833,396.5 307.167,395.5 308.5,394.5C 309.338,394.158 309.672,393.492 309.5,392.5C 356.838,392.833 404.171,392.5 451.5,391.5C 468.339,338.986 485.339,286.652 502.5,234.5 Z"/></g>
<g><path style="opacity:1" fill="#f6ede5" d="M 134.5,389.5 C 137.518,389.335 140.518,389.502 143.5,390C 140.035,394.467 136.202,398.633 132,402.5C 131.517,401.552 131.351,400.552 131.5,399.5C 132.099,396.037 133.099,392.704 134.5,389.5 Z"/></g>
<g><path style="opacity:1" fill="#f8efe8" d="M 308.5,394.5 C 307.167,395.5 305.833,396.5 304.5,397.5C 300.5,397.5 296.5,397.5 292.5,397.5C 292.5,396.167 292.5,394.833 292.5,393.5C 298.026,393.179 303.36,393.512 308.5,394.5 Z"/></g>
<g><path style="opacity:1" fill="#bd9e92" d="M 229.5,386.5 C 230.833,386.5 232.167,386.5 233.5,386.5C 236.392,396.316 233.559,404.316 225,410.5C 224.601,410.272 224.435,409.938 224.5,409.5C 229.612,402.61 231.278,394.943 229.5,386.5 Z"/></g>
<g><path style="opacity:1" fill="#e5cebd" d="M 134.5,389.5 C 140.833,388.167 147.167,388.167 153.5,389.5C 150.599,393.757 148.599,398.424 147.5,403.5C 140.811,411.186 134.144,418.853 127.5,426.5C 125.712,426.785 124.045,426.452 122.5,425.5C 125.572,416.726 128.572,408.059 131.5,399.5C 131.351,400.552 131.517,401.552 132,402.5C 136.202,398.633 140.035,394.467 143.5,390C 140.518,389.502 137.518,389.335 134.5,389.5 Z"/></g>
<g><path style="opacity:1" fill="#514b47" d="M 235.5,384.5 C 236.234,385.708 236.567,387.041 236.5,388.5C 237.381,396.667 235.048,403.667 229.5,409.5C 227.887,410.692 226.22,411.692 224.5,412.5C 223.292,413.234 221.959,413.567 220.5,413.5C 221.533,411.915 222.866,410.581 224.5,409.5C 224.435,409.938 224.601,410.272 225,410.5C 233.559,404.316 236.392,396.316 233.5,386.5C 233.5,385.167 234.167,384.5 235.5,384.5 Z"/></g>
<g><path style="opacity:1" fill="#f6eee6" d="M 147.5,403.5 C 146.117,411.094 145.45,418.76 145.5,426.5C 139.5,426.5 133.5,426.5 127.5,426.5C 134.144,418.853 140.811,411.186 147.5,403.5 Z"/></g>
<g><path style="opacity:1" fill="#d4baa1" d="M 676.5,411.5 C 676.5,417.5 676.5,423.5 676.5,429.5C 572.982,429.172 469.482,429.505 366,430.5C 365.167,430.167 364.333,429.833 363.5,429.5C 364.575,426.562 364.741,423.562 364,420.5C 362.989,419.663 361.822,419.33 360.5,419.5C 357.344,418.566 354.011,417.899 350.5,417.5C 350.369,421.652 348.869,422.318 346,419.5C 345.667,419.833 345.333,420.167 345,420.5C 339.577,417.376 334.743,418.043 330.5,422.5C 329.333,420.833 328.167,419.167 327,417.5C 327,421.927 325.833,422.427 323.5,419C 320.961,418.204 318.628,418.371 316.5,419.5C 314.167,420.833 311.833,422.167 309.5,423.5C 309.713,426.475 310.713,429.142 312.5,431.5C 313.72,432.711 314.887,432.711 316,431.5C 318.663,433.713 321.496,433.713 324.5,431.5C 327.461,432.183 327.795,433.016 325.5,434C 325.833,434.333 326.167,434.667 326.5,435C 320.815,436.098 315.149,436.265 309.5,435.5C 307.283,435.878 305.283,436.545 303.5,437.5C 303.5,437.833 303.5,438.167 303.5,438.5C 301.833,438.5 300.167,438.5 298.5,438.5C 298.5,461.167 298.5,483.833 298.5,506.5C 296.507,475.184 295.841,443.518 296.5,411.5C 423.167,411.5 549.833,411.5 676.5,411.5 Z"/></g>
<g><path style="opacity:1" fill="#e6c9b5" d="M 224.5,412.5 C 225.124,412.917 225.457,413.584 225.5,414.5C 224.434,418.197 223.268,421.864 222,425.5C 220.989,426.337 219.822,426.67 218.5,426.5C 219.803,422.618 220.47,418.618 220.5,414.5C 220.5,414.167 220.5,413.833 220.5,413.5C 221.959,413.567 223.292,413.234 224.5,412.5 Z"/></g>
<g><path style="opacity:1" fill="#dfa08d" d="M 220.5,414.5 C 220.47,418.618 219.803,422.618 218.5,426.5C 218.5,427.167 218.5,427.833 218.5,428.5C 217.766,429.708 217.433,431.041 217.5,432.5C 210.683,432.87 206.683,436.036 205.5,442C 208.482,442.498 211.482,442.665 214.5,442.5C 212.598,451.637 208.598,459.637 202.5,466.5C 201.5,466.833 200.833,467.5 200.5,468.5C 197.316,469.643 193.983,470.309 190.5,470.5C 179.643,467.662 171.31,461.328 165.5,451.5C 165.167,452 164.833,452.5 164.5,453C 170.258,463.369 178.924,469.535 190.5,471.5C 189.449,472.222 188.782,473.222 188.5,474.5C 187.709,477.115 187.043,479.782 186.5,482.5C 185.468,484.434 184.802,486.6 184.5,489C 184.684,490.376 185.351,491.209 186.5,491.5C 190.727,492.676 191.393,494.842 188.5,498C 182.967,499.567 177.3,500.401 171.5,500.5C 161.145,500.832 150.812,500.499 140.5,499.5C 135.926,498.18 131.26,497.513 126.5,497.5C 124.297,496.948 123.464,495.615 124,493.5C 126.398,492.144 128.898,490.977 131.5,490C 132.337,488.989 132.67,487.822 132.5,486.5C 134.127,482.685 135.46,478.685 136.5,474.5C 138.614,473.216 139.614,471.216 139.5,468.5C 140.338,468.158 140.672,467.492 140.5,466.5C 143.737,460.136 146.403,453.47 148.5,446.5C 150.527,443.616 152.194,440.45 153.5,437C 152.414,434.248 150.914,431.748 149,429.5C 147.127,420.044 150.96,415.544 160.5,416C 166.575,418.798 169.242,423.631 168.5,430.5C 170.134,430.032 171.3,429.032 172,427.5C 172.579,422.596 173.912,417.93 176,413.5C 177.214,411.951 178.714,410.785 180.5,410C 189.507,409.084 198.173,410.418 206.5,414C 211.155,414.499 215.821,414.666 220.5,414.5 Z"/></g>
<g><path style="opacity:1" fill="#bb9486" d="M 227.5,306.5 C 172.5,307.167 117.5,307.833 62.5,308.5C 62.5,308.833 62.5,309.167 62.5,309.5C 58.2106,321.29 54.2106,333.29 50.5,345.5C 53.0865,346.48 55.7531,346.813 58.5,346.5C 71.1842,346.832 83.8508,346.499 96.5,345.5C 100.352,333.083 104.352,320.75 108.5,308.5C 109.167,308.5 109.833,308.5 110.5,308.5C 110.5,308.833 110.5,309.167 110.5,309.5C 106.126,321.625 102.126,333.958 98.5,346.5C 114.514,346.833 130.514,346.499 146.5,345.5C 150.138,335.235 153.471,324.901 156.5,314.5C 156.427,312.973 157.094,311.973 158.5,311.5C 156.32,320.554 153.987,329.554 151.5,338.5C 150.33,340.65 149.33,342.984 148.5,345.5C 160.148,346.499 171.814,346.832 183.5,346.5C 188.167,346.5 192.833,346.5 197.5,346.5C 197.328,347.492 197.662,348.158 198.5,348.5C 195.23,356.976 192.564,365.643 190.5,374.5C 184.797,374.375 179.13,374.708 173.5,375.5C 173.5,374.833 173.833,374.5 174.5,374.5C 179.158,373.944 183.825,373.277 188.5,372.5C 190.711,365.869 192.711,359.203 194.5,352.5C 195.434,351.432 195.768,350.099 195.5,348.5C 179.325,348.17 163.325,348.504 147.5,349.5C 143.13,361.614 139.13,373.947 135.5,386.5C 141.645,387.49 147.978,387.823 154.5,387.5C 154.672,388.492 154.338,389.158 153.5,389.5C 147.167,388.167 140.833,388.167 134.5,389.5C 133.099,392.704 132.099,396.037 131.5,399.5C 128.572,408.059 125.572,416.726 122.5,425.5C 124.045,426.452 125.712,426.785 127.5,426.5C 133.5,426.5 139.5,426.5 145.5,426.5C 145.167,427.167 144.833,427.833 144.5,428.5C 136.833,428.5 129.167,428.5 121.5,428.5C 117.659,440.856 113.659,453.189 109.5,465.5C 113.783,466.492 118.116,466.826 122.5,466.5C 128.5,466.5 134.5,466.5 140.5,466.5C 140.672,467.492 140.338,468.158 139.5,468.5C 132.833,468.5 126.167,468.5 119.5,468.5C 109.167,468.5 98.8333,468.5 88.5,468.5C 82.8333,468.5 77.1667,468.5 71.5,468.5C 55.1667,468.5 38.8333,468.5 22.5,468.5C 21.5,468.5 20.5,468.5 19.5,468.5C 19.5,467.833 19.5,467.167 19.5,466.5C 21.5,466.5 23.5,466.5 25.5,466.5C 36.1719,466.667 46.8385,466.5 57.5,466C 61.886,453.622 65.886,441.122 69.5,428.5C 66.8333,428.5 64.1667,428.5 61.5,428.5C 48.6557,428.171 35.989,428.505 23.5,429.5C 21.8333,434.833 20.1667,440.167 18.5,445.5C 17.8333,445.833 17.1667,446.167 16.5,446.5C 30.805,399.781 45.805,353.281 61.5,307C 116.832,306.5 172.166,306.333 227.5,306.5 Z"/></g>
<g><path style="opacity:1" fill="#e6ccbd" d="M 125.5,410.5 C 124.015,415.479 122.515,420.479 121,425.5C 117.606,426.456 114.106,426.789 110.5,426.5C 115.528,421.14 120.528,415.807 125.5,410.5 Z"/></g>
<g><path style="opacity:1" fill="#f1e3d8" d="M 36.5,389.5 C 39.2469,389.187 41.9135,389.52 44.5,390.5C 41.3414,402.826 37.3414,414.826 32.5,426.5C 30.1667,426.5 27.8333,426.5 25.5,426.5C 28.573,413.951 32.2397,401.618 36.5,389.5 Z"/></g>
<g><path style="opacity:1" fill="#e6cebd" d="M 36.5,389.5 C 51.6576,388.504 66.9909,388.17 82.5,388.5C 78.7995,401.101 74.7995,413.601 70.5,426C 57.8377,426.5 45.1711,426.667 32.5,426.5C 37.3414,414.826 41.3414,402.826 44.5,390.5C 41.9135,389.52 39.2469,389.187 36.5,389.5 Z"/></g>
<g><path style="opacity:1" fill="#e5ccbd" d="M 131.5,390.5 C 121.342,389.341 111.008,389.175 100.5,390C 93.2447,397.76 85.578,404.927 77.5,411.5C 80.0813,404.277 82.4147,396.943 84.5,389.5C 100.5,388.167 116.5,388.167 132.5,389.5C 132.376,390.107 132.043,390.44 131.5,390.5 Z"/></g>
<g><path style="opacity:1" fill="#f8efe9" d="M 131.5,390.5 C 130.065,397.36 128.065,404.027 125.5,410.5C 120.528,415.807 115.528,421.14 110.5,426.5C 98.1667,426.5 85.8333,426.5 73.5,426.5C 74.3668,421.365 75.7001,416.365 77.5,411.5C 85.578,404.927 93.2447,397.76 100.5,390C 111.008,389.175 121.342,389.341 131.5,390.5 Z"/></g>
<g><path style="opacity:1" fill="#f6eee7" d="M 194.5,352.5 C 192.711,359.203 190.711,365.869 188.5,372.5C 183.825,373.277 179.158,373.944 174.5,374.5C 180.797,366.867 187.464,359.534 194.5,352.5 Z"/></g>
<g><path style="opacity:1" fill="#f1e3d8" d="M 49.5,349.5 C 51.8333,349.5 54.1667,349.5 56.5,349.5C 53.0501,361.854 49.3834,374.187 45.5,386.5C 43.1667,386.5 40.8333,386.5 38.5,386.5C 41.3947,373.918 45.0614,361.584 49.5,349.5 Z"/></g>
<g><path style="opacity:1" fill="#f7efe7" d="M 144.5,350.5 C 141.23,362.643 137.563,374.643 133.5,386.5C 123.833,386.5 114.167,386.5 104.5,386.5C 115.785,373.881 127.452,361.714 139.5,350C 141.387,349.22 143.054,349.387 144.5,350.5 Z"/></g>
<g><path style="opacity:1" fill="#e5cdbc" d="M 144.5,350.5 C 143.054,349.387 141.387,349.22 139.5,350C 127.452,361.714 115.785,373.881 104.5,386.5C 98.1318,386.83 91.7985,386.496 85.5,385.5C 89.5045,373.154 93.5045,360.82 97.5,348.5C 113.514,348.167 129.514,348.501 145.5,349.5C 145.376,350.107 145.043,350.44 144.5,350.5 Z"/></g>
<g><path style="opacity:1" fill="#e6cdbd" d="M 49.5,349.5 C 64.6718,348.174 80.0052,348.174 95.5,349.5C 91.5,361.5 87.5,373.5 83.5,385.5C 70.8508,386.499 58.1842,386.832 45.5,386.5C 49.3834,374.187 53.0501,361.854 56.5,349.5C 54.1667,349.5 51.8333,349.5 49.5,349.5 Z"/></g>
<g><path style="opacity:1" fill="#f0e3d7" d="M 62.5,309.5 C 76.8333,309.5 91.1667,309.5 105.5,309.5C 105.5,310.833 105.5,312.167 105.5,313.5C 93.4954,313.333 81.4954,313.5 69.5,314C 64.8378,324.492 61.1711,335.326 58.5,346.5C 55.7531,346.813 53.0865,346.48 50.5,345.5C 54.2106,333.29 58.2106,321.29 62.5,309.5 Z"/></g>
<g><path style="opacity:1" fill="#e6cebe" d="M 62.5,309.5 C 62.5,309.167 62.5,308.833 62.5,308.5C 77.8333,308.5 93.1667,308.5 108.5,308.5C 104.352,320.75 100.352,333.083 96.5,345.5C 83.8508,346.499 71.1842,346.832 58.5,346.5C 61.1711,335.326 64.8378,324.492 69.5,314C 81.4954,313.5 93.4954,313.333 105.5,313.5C 105.5,312.167 105.5,310.833 105.5,309.5C 91.1667,309.5 76.8333,309.5 62.5,309.5 Z"/></g>
<g><path style="opacity:1" fill="#5e4841" d="M 155.5,421.5 C 156.978,421.238 158.311,421.571 159.5,422.5C 158.009,423.244 156.509,423.91 155,424.5C 154.798,426.256 154.298,427.922 153.5,429.5C 151.836,426.09 152.503,423.423 155.5,421.5 Z"/></g>
<g><path style="opacity:1" fill="#f0e2d7" d="M 23.5,429.5 C 26.2469,429.187 28.9135,429.52 31.5,430.5C 30.1519,434.522 28.8186,438.522 27.5,442.5C 26.209,442.263 25.209,442.596 24.5,443.5C 22.5,444.167 20.5,444.833 18.5,445.5C 20.1667,440.167 21.8333,434.833 23.5,429.5 Z"/></g>
<g><path style="opacity:1" fill="#f7eee7" d="M 61.5,428.5 C 64.1667,428.5 66.8333,428.5 69.5,428.5C 65.886,441.122 61.886,453.622 57.5,466C 46.8385,466.5 36.1719,466.667 25.5,466.5C 37.8161,454.182 49.8161,441.516 61.5,428.5 Z"/></g>
<g><path style="opacity:1" fill="#f8efe8" d="M 71.5,429.5 C 83.5046,429.333 95.5046,429.5 107.5,430C 96.6096,442.293 85.6096,454.46 74.5,466.5C 69.8333,466.5 65.1667,466.5 60.5,466.5C 63.6954,454.057 67.3621,441.724 71.5,429.5 Z"/></g>
<g><path style="opacity:1" fill="#e6cfbe" d="M 71.5,429.5 C 87.3246,428.504 103.325,428.17 119.5,428.5C 118.46,432.685 117.127,436.685 115.5,440.5C 115.565,440.062 115.399,439.728 115,439.5C 106.679,448.189 98.846,457.189 91.5,466.5C 85.8333,466.5 80.1667,466.5 74.5,466.5C 85.6096,454.46 96.6096,442.293 107.5,430C 95.5046,429.5 83.5046,429.333 71.5,429.5 Z"/></g>
<g><path style="opacity:1" fill="#f7eee7" d="M 144.5,428.5 C 144.5,433.5 144.5,438.5 144.5,443.5C 137.952,451.72 130.618,459.386 122.5,466.5C 118.116,466.826 113.783,466.492 109.5,465.5C 113.659,453.189 117.659,440.856 121.5,428.5C 129.167,428.5 136.833,428.5 144.5,428.5 Z"/></g>
<g><path style="opacity:1" fill="#d4bba4" d="M 360.5,419.5 C 361.822,419.33 362.989,419.663 364,420.5C 364.741,423.562 364.575,426.562 363.5,429.5C 364.333,429.833 365.167,430.167 366,430.5C 469.482,429.505 572.982,429.172 676.5,429.5C 676.5,432.167 676.5,434.833 676.5,437.5C 552.167,437.5 427.833,437.5 303.5,437.5C 305.283,436.545 307.283,435.878 309.5,435.5C 315.149,436.265 320.815,436.098 326.5,435C 326.167,434.667 325.833,434.333 325.5,434C 327.795,433.016 327.461,432.183 324.5,431.5C 321.496,433.713 318.663,433.713 316,431.5C 314.887,432.711 313.72,432.711 312.5,431.5C 310.713,429.142 309.713,426.475 309.5,423.5C 311.833,422.167 314.167,420.833 316.5,419.5C 318.628,418.371 320.961,418.204 323.5,419C 325.833,422.427 327,421.927 327,417.5C 328.167,419.167 329.333,420.833 330.5,422.5C 334.743,418.043 339.577,417.376 345,420.5C 345.333,420.167 345.667,419.833 346,419.5C 348.869,422.318 350.369,421.652 350.5,417.5C 354.011,417.899 357.344,418.566 360.5,419.5 Z"/></g>
<g><path style="opacity:1" fill="#fafaf6" d="M 360.5,419.5 C 365.416,427.449 363.082,430.949 353.5,430C 349.922,422.728 352.256,419.228 360.5,419.5 Z"/></g>
<g><path style="opacity:1" fill="#fbfaf6" d="M 335.5,419.5 C 341.83,418.666 344.663,421.333 344,427.5C 340.333,431.5 336.667,431.5 333,427.5C 332.018,424.225 332.851,421.559 335.5,419.5 Z"/></g>
<g><path style="opacity:1" fill="#fafaf5" d="M 316.5,419.5 C 323.805,418.961 326.471,422.128 324.5,429C 317.271,432.406 313.771,430.239 314,422.5C 315.045,421.627 315.878,420.627 316.5,419.5 Z"/></g>
<g><path style="opacity:1" fill="#e5cdbc" d="M 23.5,429.5 C 35.989,428.505 48.6557,428.171 61.5,428.5C 49.8161,441.516 37.8161,454.182 25.5,466.5C 23.5,466.5 21.5,466.5 19.5,466.5C 21.3709,459.351 23.7043,452.351 26.5,445.5C 26.2528,444.287 25.5862,443.62 24.5,443.5C 25.209,442.596 26.209,442.263 27.5,442.5C 28.8186,438.522 30.1519,434.522 31.5,430.5C 28.9135,429.52 26.2469,429.187 23.5,429.5 Z"/></g>
<g><path style="opacity:1" fill="#e6cdbd" d="M 218.5,428.5 C 220.045,429.23 220.878,430.563 221,432.5C 222.188,431.437 222.688,430.103 222.5,428.5C 238.833,428.5 255.167,428.5 271.5,428.5C 267.521,441.083 263.855,453.75 260.5,466.5C 244.167,466.5 227.833,466.5 211.5,466.5C 213.833,458.502 216.166,450.502 218.5,442.5C 220.293,439.741 220.793,436.741 220,433.5C 219.329,432.748 218.496,432.414 217.5,432.5C 217.433,431.041 217.766,429.708 218.5,428.5 Z"/></g>
<g><path style="opacity:1" fill="#3c4144" d="M 190.5,430.5 C 190.717,433.421 190.051,436.087 188.5,438.5C 182.613,436.949 178.613,433.282 176.5,427.5C 181.86,425.746 186.526,426.746 190.5,430.5 Z"/></g>
<g><path style="opacity:1" fill="#f1ebe6" d="M 190.5,430.5 C 193.452,432.381 195.452,435.048 196.5,438.5C 193.691,439.8 191.024,439.8 188.5,438.5C 190.051,436.087 190.717,433.421 190.5,430.5 Z"/></g>
<g><path style="opacity:1" fill="#434445" d="M 217.5,432.5 C 218.496,432.414 219.329,432.748 220,433.5C 220.793,436.741 220.293,439.741 218.5,442.5C 217.833,442.5 217.167,442.5 216.5,442.5C 215.833,442.5 215.167,442.5 214.5,442.5C 211.482,442.665 208.482,442.498 205.5,442C 206.683,436.036 210.683,432.87 217.5,432.5 Z"/></g>
<g><path style="opacity:1" fill="#dfd4cb" d="M 303.5,437.5 C 427.833,437.5 552.167,437.5 676.5,437.5C 676.5,437.833 676.5,438.167 676.5,438.5C 552.5,438.5 428.5,438.5 304.5,438.5C 304.5,461.167 304.5,483.833 304.5,506.5C 321.342,506.17 338.008,506.503 354.5,507.5C 337.5,507.5 320.5,507.5 303.5,507.5C 303.5,507.167 303.5,506.833 303.5,506.5C 303.5,483.833 303.5,461.167 303.5,438.5C 303.5,438.167 303.5,437.833 303.5,437.5 Z"/></g>
<g><path style="opacity:1" fill="#e3ccb9" d="M 322.5,313.5 C 318.818,313.335 315.152,313.501 311.5,314C 313.9,314.186 316.234,314.686 318.5,315.5C 315.052,323.347 312.552,331.347 311,339.5C 312.371,337.959 313.871,336.625 315.5,335.5C 314.167,340.5 312.833,345.5 311.5,350.5C 309.712,350.215 308.045,350.548 306.5,351.5C 307.325,352.386 308.325,352.719 309.5,352.5C 308.784,357.46 307.451,362.126 305.5,366.5C 305.631,365.761 305.464,365.094 305,364.5C 303.667,365.833 302.333,367.167 301,368.5C 298.53,375.765 296.364,383.098 294.5,390.5C 293.957,390.56 293.624,390.893 293.5,391.5C 298.792,392.495 304.125,392.828 309.5,392.5C 309.672,393.492 309.338,394.158 308.5,394.5C 303.36,393.512 298.026,393.179 292.5,393.5C 292.5,394.833 292.5,396.167 292.5,397.5C 296.5,397.5 300.5,397.5 304.5,397.5C 304.5,397.833 304.5,398.167 304.5,398.5C 299.901,398.2 295.401,398.533 291,399.5C 283.003,424.502 275.169,449.502 267.5,474.5C 241.167,474.5 214.833,474.5 188.5,474.5C 188.782,473.222 189.449,472.222 190.5,471.5C 190.5,471.167 190.5,470.833 190.5,470.5C 193.983,470.309 197.316,469.643 200.5,468.5C 220.833,468.5 241.167,468.5 261.5,468.5C 277.836,416.494 294.169,364.494 310.5,312.5C 314.702,312.183 318.702,312.517 322.5,313.5 Z"/></g>
<g><path style="opacity:1" fill="#8c875e" d="M 303.5,438.5 C 303.5,461.167 303.5,483.833 303.5,506.5C 301.833,506.5 300.167,506.5 298.5,506.5C 298.5,483.833 298.5,461.167 298.5,438.5C 300.167,438.5 301.833,438.5 303.5,438.5 Z"/></g>
<g><path style="opacity:1" fill="#f7efe9" d="M 676.5,438.5 C 676.5,525.833 676.5,613.167 676.5,700.5C 552.5,700.5 428.5,700.5 304.5,700.5C 304.823,693.978 304.49,687.645 303.5,681.5C 303.5,681.167 303.5,680.833 303.5,680.5C 315.997,681.216 327.997,679.216 339.5,674.5C 340.5,674.5 341.5,674.5 342.5,674.5C 342.5,679.833 342.5,685.167 342.5,690.5C 444.169,690.833 545.836,690.5 647.5,689.5C 546.169,688.5 444.836,688.167 343.5,688.5C 343.267,683.105 343.6,677.772 344.5,672.5C 362.768,659.566 369.601,641.899 365,619.5C 364.333,616.167 363.667,612.833 363,609.5C 359.317,598.281 355.151,587.281 350.5,576.5C 350.5,576.167 350.5,575.833 350.5,575.5C 355.812,573.204 357.646,569.204 356,563.5C 354.629,561.959 353.129,560.625 351.5,559.5C 351.5,558.833 351.5,558.167 351.5,557.5C 355.003,556.351 356.669,553.851 356.5,550C 356.333,548.833 356.167,547.667 356,546.5C 353.674,544.934 351.508,543.268 349.5,541.5C 353.306,532.08 357.306,522.746 361.5,513.5C 342.341,512.503 323.007,512.17 303.5,512.5C 303.5,511.5 303.5,510.5 303.5,509.5C 320.846,509.833 338.179,509.5 355.5,508.5C 355.376,507.893 355.043,507.56 354.5,507.5C 338.008,506.503 321.342,506.17 304.5,506.5C 304.5,483.833 304.5,461.167 304.5,438.5C 428.5,438.5 552.5,438.5 676.5,438.5 Z"/></g>
<g><path style="opacity:1" fill="#5b453d" d="M 200.5,438.5 C 201.342,440.823 202.342,443.157 203.5,445.5C 203.547,447 202.881,448 201.5,448.5C 201.282,445.366 200.949,442.033 200.5,438.5 Z"/></g>
<g><path style="opacity:1" fill="#9f936a" d="M 24.5,443.5 C 25.5862,443.62 26.2528,444.287 26.5,445.5C 23.7043,452.351 21.3709,459.351 19.5,466.5C 16.8333,466.5 14.1667,466.5 11.5,466.5C 12.3925,463.843 13.7258,461.343 15.5,459C 16.3409,454.45 17.3409,449.95 18.5,445.5C 20.5,444.833 22.5,444.167 24.5,443.5 Z"/></g>
<g><path style="opacity:1" fill="#f7ede6" d="M 115.5,440.5 C 112.94,448.785 110.44,457.119 108,465.5C 102.593,466.473 97.0934,466.807 91.5,466.5C 98.846,457.189 106.679,448.189 115,439.5C 115.399,439.728 115.565,440.062 115.5,440.5 Z"/></g>
<g><path style="opacity:1" fill="#684c4a" d="M 190.5,450.5 C 192.206,452.66 194.54,453.826 197.5,454C 193.43,456.555 191.097,455.388 190.5,450.5 Z"/></g>
<g><path style="opacity:1" fill="#ab8b6c" d="M 18.5,445.5 C 17.3409,449.95 16.3409,454.45 15.5,459C 13.7258,461.343 12.3925,463.843 11.5,466.5C 14.1667,466.5 16.8333,466.5 19.5,466.5C 19.5,467.167 19.5,467.833 19.5,468.5C 18.8333,468.5 18.5,468.833 18.5,469.5C 15.5,469.5 12.5,469.5 9.5,469.5C 9.3347,465.818 9.50137,462.152 10,458.5C 12.8953,457.077 13.7286,455.077 12.5,452.5C 13.4411,450.228 14.7745,448.228 16.5,446.5C 17.1667,446.167 17.8333,445.833 18.5,445.5 Z"/></g>
<g><path style="opacity:1" fill="#624c44" d="M 190.5,470.5 C 190.5,470.833 190.5,471.167 190.5,471.5C 178.924,469.535 170.258,463.369 164.5,453C 164.833,452.5 165.167,452 165.5,451.5C 171.31,461.328 179.643,467.662 190.5,470.5 Z"/></g>
<g><path style="opacity:1" fill="#e7c6b3" d="M 214.5,442.5 C 215.167,442.5 215.833,442.5 216.5,442.5C 213.759,450.389 211.426,458.389 209.5,466.5C 207.167,466.5 204.833,466.5 202.5,466.5C 208.598,459.637 212.598,451.637 214.5,442.5 Z"/></g>
<g><path style="opacity:1" fill="#040d4c" d="M 629.5,507.5 C 627.857,512.283 626.524,517.283 625.5,522.5C 625.253,523.713 624.586,524.38 623.5,524.5C 619.378,519.206 615.044,514.04 610.5,509C 609.5,508.333 608.5,508.333 607.5,509C 568.968,534.363 530.302,559.53 491.5,584.5C 482.167,572.167 472.833,559.833 463.5,547.5C 437.636,563.594 411.969,579.928 386.5,596.5C 385.761,596.631 385.094,596.464 384.5,596C 385.252,595.329 385.586,594.496 385.5,593.5C 415.119,564.882 444.786,536.216 474.5,507.5C 483.819,518.808 492.652,530.474 501,542.5C 501.718,543.451 502.551,543.617 503.5,543C 529.978,522.023 556.311,500.856 582.5,479.5C 583.583,478.635 583.749,477.635 583,476.5C 578.5,471.333 574,466.167 569.5,461C 593.107,457.94 616.774,456.44 640.5,456.5C 636.205,473.379 632.539,490.379 629.5,507.5 Z"/></g>
<g><path style="opacity:1" fill="#e5cebd" d="M 144.5,443.5 C 145.833,444.5 147.167,445.5 148.5,446.5C 146.403,453.47 143.737,460.136 140.5,466.5C 134.5,466.5 128.5,466.5 122.5,466.5C 130.618,459.386 137.952,451.72 144.5,443.5 Z"/></g>
<g><path style="opacity:1" fill="#9d936a" d="M 12.5,452.5 C 13.7286,455.077 12.8953,457.077 10,458.5C 9.50137,462.152 9.3347,465.818 9.5,469.5C 12.5,469.5 15.5,469.5 18.5,469.5C 17.6993,471.042 17.366,472.708 17.5,474.5C 57.1667,474.5 96.8333,474.5 136.5,474.5C 135.46,478.685 134.127,482.685 132.5,486.5C 131.486,485.235 129.986,484.569 128,484.5C 120.526,484.905 113.359,486.239 106.5,488.5C 100.822,489.168 95.155,490.002 89.5,491C 80.874,494.035 72.5407,497.535 64.5,501.5C 47.263,509.06 32.9297,520.394 21.5,535.5C 18.0251,539.104 15.0251,543.104 12.5,547.5C 7.75384,546.427 3.4205,544.427 -0.5,541.5C -0.5,523.833 -0.5,506.167 -0.5,488.5C 3.64749,485.59 7.98082,482.923 12.5,480.5C 11.2367,477.397 9.73671,474.397 8,471.5C 6.37907,464.245 7.87907,457.911 12.5,452.5 Z"/></g>
<g><path style="opacity:1" fill="#e5cfbc" d="M 19.5,468.5 C 20.5,468.5 21.5,468.5 22.5,468.5C 20.882,469.451 19.5487,470.784 18.5,472.5C 35.1567,473.666 51.8233,473.833 68.5,473C 70.1412,471.871 71.1412,470.371 71.5,468.5C 77.1667,468.5 82.8333,468.5 88.5,468.5C 87.3747,470.129 86.0414,471.629 84.5,473C 94.8333,473.667 105.167,473.667 115.5,473C 117.041,471.629 118.375,470.129 119.5,468.5C 126.167,468.5 132.833,468.5 139.5,468.5C 139.614,471.216 138.614,473.216 136.5,474.5C 96.8333,474.5 57.1667,474.5 17.5,474.5C 17.366,472.708 17.6993,471.042 18.5,469.5C 18.5,468.833 18.8333,468.5 19.5,468.5 Z"/></g>
<g><path style="opacity:1" fill="#f8ece5" d="M 88.5,468.5 C 98.8333,468.5 109.167,468.5 119.5,468.5C 118.375,470.129 117.041,471.629 115.5,473C 105.167,473.667 94.8333,473.667 84.5,473C 86.0414,471.629 87.3747,470.129 88.5,468.5 Z"/></g>
<g><path style="opacity:1" fill="#f8ede7" d="M 22.5,468.5 C 38.8333,468.5 55.1667,468.5 71.5,468.5C 71.1412,470.371 70.1412,471.871 68.5,473C 51.8233,473.833 35.1567,473.666 18.5,472.5C 19.5487,470.784 20.882,469.451 22.5,468.5 Z"/></g>
<g><path style="opacity:1" fill="#818f73" d="M 186.5,482.5 C 195.155,483.083 203.822,483.416 212.5,483.5C 212.527,485.199 213.194,486.533 214.5,487.5C 205.269,485.536 195.936,484.203 186.5,483.5C 185.768,486.266 185.768,488.932 186.5,491.5C 185.351,491.209 184.684,490.376 184.5,489C 184.802,486.6 185.468,484.434 186.5,482.5 Z"/></g>
<g><path style="opacity:1" fill="#41c4ec" d="M 132.5,486.5 C 132.67,487.822 132.337,488.989 131.5,490C 128.898,490.977 126.398,492.144 124,493.5C 123.464,495.615 124.297,496.948 126.5,497.5C 128.426,499.293 130.759,500.293 133.5,500.5C 133.611,501.117 133.944,501.617 134.5,502C 143.434,503.544 152.434,504.711 161.5,505.5C 162.375,507.773 164.042,508.773 166.5,508.5C 166.5,509.5 166.5,510.5 166.5,511.5C 161.718,509.723 158.051,511.056 155.5,515.5C 148.428,518.223 142.428,522.556 137.5,528.5C 124.86,539.975 113.027,552.308 102,565.5C 101.64,567.421 100.806,569.088 99.5,570.5C 90.5735,579.608 82.0735,589.274 74,599.5C 68.4811,607.225 62.9811,614.892 57.5,622.5C 56.391,622.557 55.391,622.89 54.5,623.5C 41.4156,620.524 28.0823,618.191 14.5,616.5C 9.66783,615.6 4.66783,614.934 -0.5,614.5C -0.5,601.5 -0.5,588.5 -0.5,575.5C 3.30117,565.899 7.6345,556.566 12.5,547.5C 15.0251,543.104 18.0251,539.104 21.5,535.5C 24.2079,532.703 27.3746,531.703 31,532.5C 31.6622,529.583 33.4955,528.25 36.5,528.5C 35.9857,523.322 38.319,520.155 43.5,519C 42.8333,518.667 42.1667,518.333 41.5,518C 43.6036,517.209 44.937,515.709 45.5,513.5C 46.8544,514.241 49.6877,514.241 54,513.5C 57.065,512.186 59.2317,510.019 60.5,507C 60.1667,506.667 59.8333,506.333 59.5,506C 61.4595,505.069 63.4595,504.236 65.5,503.5C 65.9976,504.603 66.3309,505.603 66.5,506.5C 68.7105,505.877 70.7105,504.877 72.5,503.5C 70.7086,502.83 69.0419,502.163 67.5,501.5C 72.4415,498.184 77.7748,496.517 83.5,496.5C 85.773,495.721 87.6063,494.388 89,492.5C 95.2363,491.781 101.07,490.448 106.5,488.5C 113.359,486.239 120.526,484.905 128,484.5C 129.986,484.569 131.486,485.235 132.5,486.5 Z"/></g>
<g><path style="opacity:1" fill="#41c2ea" d="M 214.5,488.5 C 232.216,491.512 248.549,497.845 263.5,507.5C 253.584,507.181 243.75,507.514 234,508.5C 226.643,526.533 218.81,544.199 210.5,561.5C 210.803,558.412 209.47,556.746 206.5,556.5C 206.894,552.776 206.227,549.276 204.5,546C 205.707,544.7 206.374,543.2 206.5,541.5C 201.848,542.154 201.181,540.82 204.5,537.5C 206.868,535.777 209.534,535.11 212.5,535.5C 212.392,533.486 213.058,531.82 214.5,530.5C 219.772,528.482 220.772,525.149 217.5,520.5C 216.322,519.001 214.655,518.001 212.5,517.5C 212.709,516.914 213.043,516.414 213.5,516C 211.22,515.788 209.22,514.955 207.5,513.5C 204.904,514.213 202.237,514.213 199.5,513.5C 199.5,511.833 199.5,510.167 199.5,508.5C 195.889,508.956 192.556,508.289 189.5,506.5C 187.382,507.946 185.049,508.613 182.5,508.5C 182.5,507.5 182.5,506.5 182.5,505.5C 183.93,505.579 185.264,505.246 186.5,504.5C 187.624,502.026 189.457,500.36 192,499.5C 193.811,500.424 193.645,501.257 191.5,502C 192.448,502.483 193.448,502.649 194.5,502.5C 194.684,498.344 193.351,494.344 190.5,490.5C 191.186,487.002 193.186,485.835 196.5,487C 195.833,487.667 195.167,488.333 194.5,489C 196.556,489.311 198.556,489.811 200.5,490.5C 201.696,490.154 201.696,489.654 200.5,489C 204.381,487.941 207.381,489.108 209.5,492.5C 211.904,491.992 212.571,490.825 211.5,489C 212.448,488.517 213.448,488.351 214.5,488.5 Z"/></g>
<g><path style="opacity:1" fill="#63b5bf" d="M 106.5,488.5 C 101.07,490.448 95.2363,491.781 89,492.5C 87.6063,494.388 85.773,495.721 83.5,496.5C 77.7748,496.517 72.4415,498.184 67.5,501.5C 66.5,501.5 65.5,501.5 64.5,501.5C 72.5407,497.535 80.874,494.035 89.5,491C 95.155,490.002 100.822,489.168 106.5,488.5 Z"/></g>
<g><path style="opacity:1" fill="#cda79b" d="M 126.5,497.5 C 131.26,497.513 135.926,498.18 140.5,499.5C 150.812,500.499 161.145,500.832 171.5,500.5C 158.961,501.803 146.295,501.803 133.5,500.5C 130.759,500.293 128.426,499.293 126.5,497.5 Z"/></g>
<g><path style="opacity:1" fill="#51c0e2" d="M 214.5,487.5 C 214.5,487.833 214.5,488.167 214.5,488.5C 213.448,488.351 212.448,488.517 211.5,489C 212.571,490.825 211.904,491.992 209.5,492.5C 207.381,489.108 204.381,487.941 200.5,489C 201.696,489.654 201.696,490.154 200.5,490.5C 198.556,489.811 196.556,489.311 194.5,489C 195.167,488.333 195.833,487.667 196.5,487C 193.186,485.835 191.186,487.002 190.5,490.5C 193.351,494.344 194.684,498.344 194.5,502.5C 193.448,502.649 192.448,502.483 191.5,502C 193.645,501.257 193.811,500.424 192,499.5C 189.457,500.36 187.624,502.026 186.5,504.5C 185.264,505.246 183.93,505.579 182.5,505.5C 182.5,506.5 182.5,507.5 182.5,508.5C 185.049,508.613 187.382,507.946 189.5,506.5C 192.556,508.289 195.889,508.956 199.5,508.5C 199.5,510.167 199.5,511.833 199.5,513.5C 202.237,514.213 204.904,514.213 207.5,513.5C 209.22,514.955 211.22,515.788 213.5,516C 213.043,516.414 212.709,516.914 212.5,517.5C 214.655,518.001 216.322,519.001 217.5,520.5C 212.922,519.085 208.255,518.085 203.5,517.5C 199.46,515.883 195.127,515.05 190.5,515C 178.817,514.334 167.15,514.501 155.5,515.5C 158.051,511.056 161.718,509.723 166.5,511.5C 166.5,510.5 166.5,509.5 166.5,508.5C 164.042,508.773 162.375,507.773 161.5,505.5C 152.434,504.711 143.434,503.544 134.5,502C 133.944,501.617 133.611,501.117 133.5,500.5C 146.295,501.803 158.961,501.803 171.5,500.5C 177.3,500.401 182.967,499.567 188.5,498C 191.393,494.842 190.727,492.676 186.5,491.5C 185.768,488.932 185.768,486.266 186.5,483.5C 195.936,484.203 205.269,485.536 214.5,487.5 Z"/></g>
<g><path style="opacity:1" fill="#626b82" d="M 354.5,507.5 C 355.043,507.56 355.376,507.893 355.5,508.5C 338.179,509.5 320.846,509.833 303.5,509.5C 292.167,509.5 280.833,509.5 269.5,509.5C 258.167,509.5 246.833,509.5 235.5,509.5C 275.167,508.833 314.833,508.167 354.5,507.5 Z"/></g>
<g><path style="opacity:1" fill="#7e7f75" d="M 269.5,509.5 C 280.833,509.5 292.167,509.5 303.5,509.5C 303.5,510.5 303.5,511.5 303.5,512.5C 323.007,512.17 342.341,512.503 361.5,513.5C 320.833,513.5 280.167,513.5 239.5,513.5C 250.659,512.669 261.993,512.169 273.5,512C 271.934,511.392 270.6,510.558 269.5,509.5 Z"/></g>
<g><path style="opacity:1" fill="#020c4c" d="M 239.5,513.5 C 280.167,513.5 320.833,513.5 361.5,513.5C 357.306,522.746 353.306,532.08 349.5,541.5C 335.55,539.003 321.55,538.836 307.5,541C 304.302,541.848 301.469,543.348 299,545.5C 297.779,550.97 299.946,554.47 305.5,556C 302.121,557.085 298.788,558.418 295.5,560C 291.382,563.845 291.715,567.345 296.5,570.5C 299.99,572.455 303.656,573.955 307.5,575C 301.699,575.149 296.865,577.316 293,581.5C 291.877,584.956 292.71,587.79 295.5,590C 297.609,591.646 299.943,592.812 302.5,593.5C 301.833,594.167 301.167,594.833 300.5,595.5C 297.714,595.956 296.381,597.623 296.5,600.5C 296.406,602.912 297.406,604.745 299.5,606C 305.074,609.248 311.074,610.748 317.5,610.5C 317.5,611.167 317.833,611.5 318.5,611.5C 312.701,625.558 306.701,639.558 300.5,653.5C 284.514,654.499 268.514,654.833 252.5,654.5C 227.824,654.833 203.158,654.5 178.5,653.5C 179.127,652.583 179.461,651.583 179.5,650.5C 200.35,605.141 220.35,559.474 239.5,513.5 Z"/></g>
<g><path style="opacity:1" fill="#cfa698" d="M 203.5,517.5 C 185.328,515.968 167.328,516.468 149.5,519C 147.251,520.745 145.584,522.912 144.5,525.5C 142.127,525.737 139.794,526.737 137.5,528.5C 142.428,522.556 148.428,518.223 155.5,515.5C 167.15,514.501 178.817,514.334 190.5,515C 195.127,515.05 199.46,515.883 203.5,517.5 Z"/></g>
<g><path style="opacity:1" fill="#e0a18e" d="M 203.5,517.5 C 208.255,518.085 212.922,519.085 217.5,520.5C 220.772,525.149 219.772,528.482 214.5,530.5C 204.558,531.886 194.558,532.719 184.5,533C 189.817,535.438 194.651,538.604 199,542.5C 200.824,546.426 200.99,550.426 199.5,554.5C 191.596,545.977 181.93,542.643 170.5,544.5C 182.25,544.408 191.916,548.741 199.5,557.5C 202.614,563.824 200.947,568.491 194.5,571.5C 188.675,563.922 181.008,560.755 171.5,562C 180.152,562.929 187.485,566.429 193.5,572.5C 192.959,579.693 189.293,584.026 182.5,585.5C 180.955,585.489 179.622,585.156 178.5,584.5C 178.961,582.45 179.628,580.45 180.5,578.5C 180.167,578.167 179.833,577.833 179.5,577.5C 177.713,579.858 176.713,582.525 176.5,585.5C 174.229,589.709 172.229,594.042 170.5,598.5C 170.5,598.833 170.5,599.167 170.5,599.5C 161.324,617.187 152.658,635.187 144.5,653.5C 138.884,663.118 133.717,673.118 129,683.5C 121.797,693.214 112.963,700.881 102.5,706.5C 85.5,706.5 68.5,706.5 51.5,706.5C 45.6154,704.224 39.9487,701.391 34.5,698C 29.9633,693.631 25.6299,689.131 21.5,684.5C 8.80868,663.764 3.14201,641.098 4.5,616.5C 7.83333,616.5 11.1667,616.5 14.5,616.5C 28.0823,618.191 41.4156,620.524 54.5,623.5C 45.3425,635.804 36.1758,648.137 27,660.5C 26.3123,661.332 26.479,661.998 27.5,662.5C 37.902,649.436 47.902,636.103 57.5,622.5C 62.9811,614.892 68.4811,607.225 74,599.5C 82.0735,589.274 90.5735,579.608 99.5,570.5C 100.806,569.088 101.64,567.421 102,565.5C 113.027,552.308 124.86,539.975 137.5,528.5C 139.794,526.737 142.127,525.737 144.5,525.5C 145.584,522.912 147.251,520.745 149.5,519C 167.328,516.468 185.328,515.968 203.5,517.5 Z"/></g>
<g><path style="opacity:1" fill="#d0d0dd" d="M 629.5,507.5 C 629.416,514.088 628.083,520.421 625.5,526.5C 624.478,526.145 623.811,525.478 623.5,524.5C 624.586,524.38 625.253,523.713 625.5,522.5C 626.524,517.283 627.857,512.283 629.5,507.5 Z"/></g>
<g><path style="opacity:1" fill="#4bc1e0" d="M 64.5,501.5 C 65.5,501.5 66.5,501.5 67.5,501.5C 69.0419,502.163 70.7086,502.83 72.5,503.5C 70.7105,504.877 68.7105,505.877 66.5,506.5C 66.3309,505.603 65.9976,504.603 65.5,503.5C 63.4595,504.236 61.4595,505.069 59.5,506C 59.8333,506.333 60.1667,506.667 60.5,507C 59.2317,510.019 57.065,512.186 54,513.5C 49.6877,514.241 46.8544,514.241 45.5,513.5C 44.937,515.709 43.6036,517.209 41.5,518C 42.1667,518.333 42.8333,518.667 43.5,519C 38.319,520.155 35.9857,523.322 36.5,528.5C 33.4955,528.25 31.6622,529.583 31,532.5C 27.3746,531.703 24.2079,532.703 21.5,535.5C 32.9297,520.394 47.263,509.06 64.5,501.5 Z"/></g>
<g><path style="opacity:1" fill="#92d8e8" d="M 633.5,532.5 C 646.677,532.171 659.677,532.505 672.5,533.5C 659.833,533.5 647.167,533.5 634.5,533.5C 634.5,580.167 634.5,626.833 634.5,673.5C 647.167,673.5 659.833,673.5 672.5,673.5C 670.052,674.473 667.385,674.806 664.5,674.5C 654.167,674.5 643.833,674.5 633.5,674.5C 633.5,627.167 633.5,579.833 633.5,532.5 Z"/></g>
<g><path style="opacity:1" fill="#e1f4fa" d="M 633.5,532.5 C 633.5,579.833 633.5,627.167 633.5,674.5C 643.833,674.5 654.167,674.5 664.5,674.5C 654.013,675.494 643.346,675.828 632.5,675.5C 632.168,627.664 632.501,579.997 633.5,532.5 Z"/></g>
<g><path style="opacity:1" fill="#ece5dd" d="M -0.5,541.5 C 3.4205,544.427 7.75384,546.427 12.5,547.5C 7.6345,556.566 3.30117,565.899 -0.5,575.5C -0.5,564.167 -0.5,552.833 -0.5,541.5 Z"/></g>
<g><path style="opacity:1" fill="#5d4b46" d="M 199.5,554.5 C 199.5,555.5 199.5,556.5 199.5,557.5C 191.916,548.741 182.25,544.408 170.5,544.5C 181.93,542.643 191.596,545.977 199.5,554.5 Z"/></g>
<g><path style="opacity:1" fill="#40c4ee" d="M 572.5,554.5 C 584.548,553.855 596.215,554.522 607.5,556.5C 607.832,595.67 607.499,634.67 606.5,673.5C 606.833,635.494 606.5,597.494 605.5,559.5C 601.741,561.617 601.074,564.284 603.5,567.5C 600.833,569.5 600.833,571.5 603.5,573.5C 600.833,575.5 600.833,577.5 603.5,579.5C 600.833,581.5 600.833,583.5 603.5,585.5C 600.833,587.5 600.833,589.5 603.5,591.5C 600.833,593.5 600.833,595.5 603.5,597.5C 600.833,599.5 600.833,601.5 603.5,603.5C 600.833,605.5 600.833,607.5 603.5,609.5C 600.833,611.5 600.833,613.5 603.5,615.5C 600.833,617.5 600.833,619.5 603.5,621.5C 600.833,623.5 600.833,625.5 603.5,627.5C 600.833,629.5 600.833,631.5 603.5,633.5C 600.833,635.5 600.833,637.5 603.5,639.5C 600.833,641.5 600.833,643.5 603.5,645.5C 600.833,647.5 600.833,649.5 603.5,651.5C 600.833,653.5 600.833,655.5 603.5,657.5C 600.833,659.5 600.833,661.5 603.5,663.5C 601.492,665.506 600.159,667.839 599.5,670.5C 592.5,670.5 585.5,670.5 578.5,670.5C 578.5,669.5 578.5,668.5 578.5,667.5C 576.833,667.5 575.167,667.5 573.5,667.5C 573.762,668.978 573.429,670.311 572.5,671.5C 571.174,632.433 571.174,593.433 572.5,554.5 Z"/></g>
<g><path style="opacity:1" fill="#8dcce8" d="M 607.5,556.5 C 607.833,556.5 608.167,556.5 608.5,556.5C 608.5,595.833 608.5,635.167 608.5,674.5C 595.323,674.829 582.323,674.495 569.5,673.5C 581.833,673.5 594.167,673.5 606.5,673.5C 607.499,634.67 607.832,595.67 607.5,556.5 Z"/></g>
<g><path style="opacity:1" fill="#664e4c" d="M 351.5,557.5 C 351.5,558.167 351.5,558.833 351.5,559.5C 339.433,559.871 327.433,559.204 315.5,557.5C 327.474,557.021 339.474,557.021 351.5,557.5 Z"/></g>
<g><path style="opacity:1" fill="#dc9f8d" d="M 349.5,541.5 C 351.508,543.268 353.674,544.934 356,546.5C 356.167,547.667 356.333,548.833 356.5,550C 356.669,553.851 355.003,556.351 351.5,557.5C 339.474,557.021 327.474,557.021 315.5,557.5C 327.433,559.204 339.433,559.871 351.5,559.5C 353.129,560.625 354.629,561.959 356,563.5C 357.646,569.204 355.812,573.204 350.5,575.5C 337.831,575.69 325.164,575.69 312.5,575.5C 323.102,577.028 333.768,577.861 344.5,578C 349.417,584.932 348.083,590.265 340.5,594C 327.832,594.294 315.165,594.127 302.5,593.5C 299.943,592.812 297.609,591.646 295.5,590C 292.71,587.79 291.877,584.956 293,581.5C 296.865,577.316 301.699,575.149 307.5,575C 303.656,573.955 299.99,572.455 296.5,570.5C 291.715,567.345 291.382,563.845 295.5,560C 298.788,558.418 302.121,557.085 305.5,556C 299.946,554.47 297.779,550.97 299,545.5C 301.469,543.348 304.302,541.848 307.5,541C 321.55,538.836 335.55,539.003 349.5,541.5 Z"/></g>
<g><path style="opacity:1" fill="#43c4e8" d="M 572.5,554.5 C 571.174,593.433 571.174,632.433 572.5,671.5C 573.429,670.311 573.762,668.978 573.5,667.5C 575.167,667.5 576.833,667.5 578.5,667.5C 578.5,668.5 578.5,669.5 578.5,670.5C 585.5,670.5 592.5,670.5 599.5,670.5C 600.159,667.839 601.492,665.506 603.5,663.5C 600.833,661.5 600.833,659.5 603.5,657.5C 600.833,655.5 600.833,653.5 603.5,651.5C 600.833,649.5 600.833,647.5 603.5,645.5C 600.833,643.5 600.833,641.5 603.5,639.5C 600.833,637.5 600.833,635.5 603.5,633.5C 600.833,631.5 600.833,629.5 603.5,627.5C 600.833,625.5 600.833,623.5 603.5,621.5C 600.833,619.5 600.833,617.5 603.5,615.5C 600.833,613.5 600.833,611.5 603.5,609.5C 600.833,607.5 600.833,605.5 603.5,603.5C 600.833,601.5 600.833,599.5 603.5,597.5C 600.833,595.5 600.833,593.5 603.5,591.5C 600.833,589.5 600.833,587.5 603.5,585.5C 600.833,583.5 600.833,581.5 603.5,579.5C 600.833,577.5 600.833,575.5 603.5,573.5C 600.833,571.5 600.833,569.5 603.5,567.5C 601.074,564.284 601.741,561.617 605.5,559.5C 606.5,597.494 606.833,635.494 606.5,673.5C 594.167,673.5 581.833,673.5 569.5,673.5C 569.5,633.833 569.5,594.167 569.5,554.5C 570.5,554.5 571.5,554.5 572.5,554.5 Z"/></g>
<g><path style="opacity:1" fill="#604a47" d="M 194.5,571.5 C 194.5,572.167 194.167,572.5 193.5,572.5C 187.485,566.429 180.152,562.929 171.5,562C 181.008,560.755 188.675,563.922 194.5,571.5 Z"/></g>
<g><path style="opacity:1" fill="#45bae2" d="M 235.5,509.5 C 246.833,509.5 258.167,509.5 269.5,509.5C 270.6,510.558 271.934,511.392 273.5,512C 261.993,512.169 250.659,512.669 239.5,513.5C 220.35,559.474 200.35,605.141 179.5,650.5C 179.975,647.918 179.308,645.918 177.5,644.5C 196.592,599.324 215.926,554.324 235.5,509.5 Z"/></g>
<g><path style="opacity:1" fill="#52c0e2" d="M 214.5,530.5 C 213.058,531.82 212.392,533.486 212.5,535.5C 209.534,535.11 206.868,535.777 204.5,537.5C 201.181,540.82 201.848,542.154 206.5,541.5C 206.374,543.2 205.707,544.7 204.5,546C 206.227,549.276 206.894,552.776 206.5,556.5C 209.47,556.746 210.803,558.412 210.5,561.5C 209.546,564.143 208.546,566.81 207.5,569.5C 205.94,569.519 204.44,569.852 203,570.5C 201.848,568.488 200.682,568.322 199.5,570C 199.09,572.24 199.757,574.407 201.5,576.5C 199.793,580.136 198.626,580.136 198,576.5C 197.946,580.965 195.779,583.965 191.5,585.5C 192.833,586.5 192.833,587.5 191.5,588.5C 192.025,589.192 192.692,589.692 193.5,590C 190.518,590.498 187.518,590.665 184.5,590.5C 184.5,589.5 184.5,588.5 184.5,587.5C 182.833,587.5 181.167,587.5 179.5,587.5C 179.5,588.833 179.5,590.167 179.5,591.5C 178.167,591.5 176.833,591.5 175.5,591.5C 175.704,595.281 174.037,597.614 170.5,598.5C 172.229,594.042 174.229,589.709 176.5,585.5C 177.167,585.167 177.833,584.833 178.5,584.5C 179.622,585.156 180.955,585.489 182.5,585.5C 189.293,584.026 192.959,579.693 193.5,572.5C 194.167,572.5 194.5,572.167 194.5,571.5C 200.947,568.491 202.614,563.824 199.5,557.5C 199.5,556.5 199.5,555.5 199.5,554.5C 200.99,550.426 200.824,546.426 199,542.5C 194.651,538.604 189.817,535.438 184.5,533C 194.558,532.719 204.558,531.886 214.5,530.5 Z"/></g>
<g><path style="opacity:1" fill="#d8efeb" d="M 633.5,532.5 C 646.99,531.504 660.656,531.171 674.5,531.5C 675.162,579.178 674.495,626.512 672.5,673.5C 672.5,626.833 672.5,580.167 672.5,533.5C 659.677,532.505 646.677,532.171 633.5,532.5 Z"/></g>
<g><path style="opacity:1" fill="#5f4942" d="M 178.5,584.5 C 177.833,584.833 177.167,585.167 176.5,585.5C 176.713,582.525 177.713,579.858 179.5,577.5C 179.833,577.833 180.167,578.167 180.5,578.5C 179.628,580.45 178.961,582.45 178.5,584.5 Z"/></g>
<g><path style="opacity:1" fill="#5a4744" d="M 350.5,575.5 C 350.5,575.833 350.5,576.167 350.5,576.5C 349.357,576.908 348.357,577.575 347.5,578.5C 351.457,586.906 349.124,592.573 340.5,595.5C 343.62,604.214 340.62,609.381 331.5,611C 327.179,611.499 322.846,611.666 318.5,611.5C 317.833,611.5 317.5,611.167 317.5,610.5C 325.699,611.9 332.865,609.9 339,604.5C 339.711,602.101 339.544,599.768 338.5,597.5C 325.887,595.891 313.221,595.224 300.5,595.5C 301.167,594.833 301.833,594.167 302.5,593.5C 315.165,594.127 327.832,594.294 340.5,594C 348.083,590.265 349.417,584.932 344.5,578C 333.768,577.861 323.102,577.028 312.5,575.5C 325.164,575.69 337.831,575.69 350.5,575.5 Z"/></g>
<g><path style="opacity:1" fill="#41c4ec" d="M 207.5,569.5 C 196.882,594.39 186.049,619.056 175,643.5C 174.219,644.944 174.386,646.277 175.5,647.5C 176.176,646.398 176.842,645.398 177.5,644.5C 179.308,645.918 179.975,647.918 179.5,650.5C 179.461,651.583 179.127,652.583 178.5,653.5C 203.158,654.5 227.824,654.833 252.5,654.5C 256.786,659.298 261.453,663.631 266.5,667.5C 266.5,680.5 266.5,693.5 266.5,706.5C 211.833,706.5 157.167,706.5 102.5,706.5C 112.963,700.881 121.797,693.214 129,683.5C 133.717,673.118 138.884,663.118 144.5,653.5C 145.473,652.209 146.473,652.209 147.5,653.5C 149.676,650.146 151.01,646.479 151.5,642.5C 152.5,642.5 153.5,642.5 154.5,642.5C 154.104,639.518 154.771,636.851 156.5,634.5C 157.251,635.376 157.751,636.376 158,637.5C 159.699,636.594 161.533,636.261 163.5,636.5C 163.319,633.603 163.652,630.77 164.5,628C 164.167,627.5 163.833,627 163.5,626.5C 162.757,627.908 161.923,629.241 161,630.5C 159.798,628.323 159.298,625.989 159.5,623.5C 161.359,623.539 162.692,622.706 163.5,621C 165.473,620.505 167.473,620.338 169.5,620.5C 170.014,618.488 170.18,616.488 170,614.5C 169.692,615.308 169.192,615.975 168.5,616.5C 168.167,615 167.833,613.5 167.5,612C 168.016,607.64 169.016,603.473 170.5,599.5C 170.5,599.167 170.5,598.833 170.5,598.5C 174.037,597.614 175.704,595.281 175.5,591.5C 176.833,591.5 178.167,591.5 179.5,591.5C 179.5,590.167 179.5,588.833 179.5,587.5C 181.167,587.5 182.833,587.5 184.5,587.5C 184.5,588.5 184.5,589.5 184.5,590.5C 187.518,590.665 190.518,590.498 193.5,590C 192.692,589.692 192.025,589.192 191.5,588.5C 192.833,587.5 192.833,586.5 191.5,585.5C 195.779,583.965 197.946,580.965 198,576.5C 198.626,580.136 199.793,580.136 201.5,576.5C 199.757,574.407 199.09,572.24 199.5,570C 200.682,568.322 201.848,568.488 203,570.5C 204.44,569.852 205.94,569.519 207.5,569.5 Z"/></g>
<g><path style="opacity:1" fill="#e0a08e" d="M 350.5,576.5 C 355.151,587.281 359.317,598.281 363,609.5C 363.667,612.833 364.333,616.167 365,619.5C 369.601,641.899 362.768,659.566 344.5,672.5C 342.447,672.402 340.78,673.069 339.5,674.5C 327.997,679.216 315.997,681.216 303.5,680.5C 301.833,680.5 300.167,680.5 298.5,680.5C 297.833,680.5 297.167,680.5 296.5,680.5C 285.703,678.119 275.703,673.786 266.5,667.5C 261.453,663.631 256.786,659.298 252.5,654.5C 268.514,654.833 284.514,654.499 300.5,653.5C 306.701,639.558 312.701,625.558 318.5,611.5C 322.846,611.666 327.179,611.499 331.5,611C 340.62,609.381 343.62,604.214 340.5,595.5C 349.124,592.573 351.457,586.906 347.5,578.5C 348.357,577.575 349.357,576.908 350.5,576.5 Z"/></g>
<g><path style="opacity:1" fill="#40c4ed" d="M 543.5,590.5 C 543.5,618.167 543.5,645.833 543.5,673.5C 530.833,673.5 518.167,673.5 505.5,673.5C 505.5,645.833 505.5,618.167 505.5,590.5C 518.167,590.5 530.833,590.5 543.5,590.5 Z"/></g>
<g><path style="opacity:1" fill="#dc9f8d" d="M 300.5,595.5 C 313.221,595.224 325.887,595.891 338.5,597.5C 339.544,599.768 339.711,602.101 339,604.5C 332.865,609.9 325.699,611.9 317.5,610.5C 311.074,610.748 305.074,609.248 299.5,606C 297.406,604.745 296.406,602.912 296.5,600.5C 296.381,597.623 297.714,595.956 300.5,595.5 Z"/></g>
<g><path style="opacity:1" fill="#292751" d="M 385.5,593.5 C 385.586,594.496 385.252,595.329 384.5,596C 385.094,596.464 385.761,596.631 386.5,596.5C 383.148,599.384 379.482,601.551 375.5,603C 378.703,599.629 382.036,596.462 385.5,593.5 Z"/></g>
<g><path style="opacity:1" fill="#84cfe2" d="M 504.5,589.5 C 517.677,589.171 530.677,589.505 543.5,590.5C 530.833,590.5 518.167,590.5 505.5,590.5C 505.5,618.167 505.5,645.833 505.5,673.5C 518.167,673.5 530.833,673.5 543.5,673.5C 530.677,674.495 517.677,674.829 504.5,674.5C 504.5,646.167 504.5,617.833 504.5,589.5 Z"/></g>
<g><path style="opacity:1" fill="#e4f4f3" d="M 504.5,589.5 C 504.5,617.833 504.5,646.167 504.5,674.5C 517.677,674.829 530.677,674.495 543.5,673.5C 543.833,673.5 544.167,673.5 544.5,673.5C 531.208,675.482 517.541,676.149 503.5,675.5C 503.169,646.662 503.502,617.995 504.5,589.5 Z"/></g>
<g><path style="opacity:1" fill="#43c3e6" d="M 672.5,533.5 C 672.5,580.167 672.5,626.833 672.5,673.5C 659.833,673.5 647.167,673.5 634.5,673.5C 634.5,626.833 634.5,580.167 634.5,533.5C 647.167,533.5 659.833,533.5 672.5,533.5 Z"/></g>
<g><path style="opacity:1" fill="#3fc4ee" d="M 637.5,538.5 C 648.167,538.5 658.833,538.5 669.5,538.5C 669.5,581.5 669.5,624.5 669.5,667.5C 668.5,667.5 667.5,667.5 666.5,667.5C 666.5,668.5 666.5,669.5 666.5,670.5C 656.833,670.5 647.167,670.5 637.5,670.5C 637.5,626.5 637.5,582.5 637.5,538.5 Z"/></g>
<g><path style="opacity:1" fill="#0c2961" d="M 263.5,507.5 C 276.833,507.5 290.167,507.5 303.5,507.5C 320.5,507.5 337.5,507.5 354.5,507.5C 314.833,508.167 275.167,508.833 235.5,509.5C 215.926,554.324 196.592,599.324 177.5,644.5C 176.842,645.398 176.176,646.398 175.5,647.5C 174.386,646.277 174.219,644.944 175,643.5C 186.049,619.056 196.882,594.39 207.5,569.5C 208.546,566.81 209.546,564.143 210.5,561.5C 218.81,544.199 226.643,526.533 234,508.5C 243.75,507.514 253.584,507.181 263.5,507.5 Z"/></g>
<g><path style="opacity:1" fill="#a6e3e9" d="M 608.5,556.5 C 608.167,556.5 607.833,556.5 607.5,556.5C 596.215,554.522 584.548,553.855 572.5,554.5C 571.5,554.5 570.5,554.5 569.5,554.5C 569.5,594.167 569.5,633.833 569.5,673.5C 568.501,633.67 568.168,593.67 568.5,553.5C 581.833,553.5 595.167,553.5 608.5,553.5C 608.5,554.5 608.5,555.5 608.5,556.5 Z"/></g>
<g><path style="opacity:1" fill="#40c4ec" d="M 440.5,616.5 C 453.167,616.5 465.833,616.5 478.5,616.5C 478.5,635.5 478.5,654.5 478.5,673.5C 465.833,673.5 453.167,673.5 440.5,673.5C 440.5,654.5 440.5,635.5 440.5,616.5 Z"/></g>
<g><path style="opacity:1" fill="#efe4dc" d="M -0.5,614.5 C 4.66783,614.934 9.66783,615.6 14.5,616.5C 11.1667,616.5 7.83333,616.5 4.5,616.5C 3.14201,641.098 8.80868,663.764 21.5,684.5C 20.2054,691.762 20.5387,699.096 22.5,706.5C 14.8333,706.5 7.16667,706.5 -0.5,706.5C -0.5,675.833 -0.5,645.167 -0.5,614.5 Z"/></g>
<g><path style="opacity:1" fill="#56c0e0" d="M 170.5,599.5 C 169.016,603.473 168.016,607.64 167.5,612C 167.833,613.5 168.167,615 168.5,616.5C 169.192,615.975 169.692,615.308 170,614.5C 170.18,616.488 170.014,618.488 169.5,620.5C 167.473,620.338 165.473,620.505 163.5,621C 162.692,622.706 161.359,623.539 159.5,623.5C 159.298,625.989 159.798,628.323 161,630.5C 161.923,629.241 162.757,627.908 163.5,626.5C 163.833,627 164.167,627.5 164.5,628C 163.652,630.77 163.319,633.603 163.5,636.5C 161.533,636.261 159.699,636.594 158,637.5C 157.751,636.376 157.251,635.376 156.5,634.5C 154.771,636.851 154.104,639.518 154.5,642.5C 153.5,642.5 152.5,642.5 151.5,642.5C 151.01,646.479 149.676,650.146 147.5,653.5C 146.473,652.209 145.473,652.209 144.5,653.5C 152.658,635.187 161.324,617.187 170.5,599.5 Z"/></g>
<g><path style="opacity:1" fill="#addfec" d="M 504.5,589.5 C 517.656,588.504 530.99,588.171 544.5,588.5C 544.5,616.833 544.5,645.167 544.5,673.5C 544.167,673.5 543.833,673.5 543.5,673.5C 543.5,645.833 543.5,618.167 543.5,590.5C 530.677,589.505 517.677,589.171 504.5,589.5 Z"/></g>
<g><path style="opacity:1" fill="#5b4943" d="M 57.5,622.5 C 47.902,636.103 37.902,649.436 27.5,662.5C 26.479,661.998 26.3123,661.332 27,660.5C 36.1758,648.137 45.3425,635.804 54.5,623.5C 55.391,622.89 56.391,622.557 57.5,622.5 Z"/></g>
<g><path style="opacity:1" fill="#82cee6" d="M 440.5,616.5 C 453.323,615.505 466.323,615.171 479.5,615.5C 479.5,635.167 479.5,654.833 479.5,674.5C 466.323,674.829 453.323,674.495 440.5,673.5C 453.167,673.5 465.833,673.5 478.5,673.5C 478.5,654.5 478.5,635.5 478.5,616.5C 465.833,616.5 453.167,616.5 440.5,616.5 Z"/></g>
<g><path style="opacity:1" fill="#92d5e3" d="M 376.5,673.5 C 375.506,663.013 375.172,652.346 375.5,641.5C 388.833,641.5 402.167,641.5 415.5,641.5C 415.5,652.5 415.5,663.5 415.5,674.5C 402.323,674.829 389.323,674.495 376.5,673.5 Z"/></g>
<g><path style="opacity:1" fill="#41c4ed" d="M 376.5,673.5 C 376.5,663.167 376.5,652.833 376.5,642.5C 389.167,642.5 401.833,642.5 414.5,642.5C 414.5,652.833 414.5,663.167 414.5,673.5C 401.833,673.5 389.167,673.5 376.5,673.5 Z"/></g>
<g><path style="opacity:1" fill="#8a855e" d="M 266.5,667.5 C 275.703,673.786 285.703,678.119 296.5,680.5C 296.5,687.833 296.5,695.167 296.5,702.5C 298.833,702.5 301.167,702.5 303.5,702.5C 303.5,703.833 303.5,705.167 303.5,706.5C 291.167,706.5 278.833,706.5 266.5,706.5C 266.5,693.5 266.5,680.5 266.5,667.5 Z"/></g>
<g><path style="opacity:1" fill="#c4b694" d="M 296.5,680.5 C 297.167,680.5 297.833,680.5 298.5,680.5C 298.5,687.167 298.5,693.833 298.5,700.5C 300.167,700.5 301.833,700.5 303.5,700.5C 303.5,701.167 303.5,701.833 303.5,702.5C 301.167,702.5 298.833,702.5 296.5,702.5C 296.5,695.167 296.5,687.833 296.5,680.5 Z"/></g>
<g><path style="opacity:1" fill="#e7d6c9" d="M 344.5,672.5 C 343.6,677.772 343.267,683.105 343.5,688.5C 444.836,688.167 546.169,688.5 647.5,689.5C 545.836,690.5 444.169,690.833 342.5,690.5C 342.5,685.167 342.5,679.833 342.5,674.5C 341.5,674.5 340.5,674.5 339.5,674.5C 340.78,673.069 342.447,672.402 344.5,672.5 Z"/></g>
<g><path style="opacity:1" fill="#8d8660" d="M 298.5,680.5 C 300.167,680.5 301.833,680.5 303.5,680.5C 303.5,680.833 303.5,681.167 303.5,681.5C 303.5,687.833 303.5,694.167 303.5,700.5C 301.833,700.5 300.167,700.5 298.5,700.5C 298.5,693.833 298.5,687.167 298.5,680.5 Z"/></g>
<g><path style="opacity:1" fill="#50c3e5" d="M 21.5,684.5 C 25.6299,689.131 29.9633,693.631 34.5,698C 39.9487,701.391 45.6154,704.224 51.5,706.5C 41.8333,706.5 32.1667,706.5 22.5,706.5C 20.5387,699.096 20.2054,691.762 21.5,684.5 Z"/></g>
<g><path style="opacity:1" fill="#d5c1b2" d="M 303.5,681.5 C 304.49,687.645 304.823,693.978 304.5,700.5C 428.5,700.5 552.5,700.5 676.5,700.5C 676.5,701.167 676.5,701.833 676.5,702.5C 552.5,702.5 428.5,702.5 304.5,702.5C 304.5,703.833 304.5,705.167 304.5,706.5C 304.167,706.5 303.833,706.5 303.5,706.5C 303.5,705.167 303.5,703.833 303.5,702.5C 303.5,701.833 303.5,701.167 303.5,700.5C 303.5,694.167 303.5,687.833 303.5,681.5 Z"/></g>
<g><path style="opacity:1" fill="#f7ede7" d="M 676.5,702.5 C 676.5,703.833 676.5,705.167 676.5,706.5C 552.5,706.5 428.5,706.5 304.5,706.5C 304.5,705.167 304.5,703.833 304.5,702.5C 428.5,702.5 552.5,702.5 676.5,702.5 Z"/></g>
</svg>
