<?xml version="1.0" encoding="UTF-8"?>
<!DOCTYPE svg PUBLIC "-//W3C//DTD SVG 1.1//EN" "http://www.w3.org/Graphics/SVG/1.1/DTD/svg11.dtd">
<svg xmlns="http://www.w3.org/2000/svg" version="1.1" width="120px" height="267px" style="shape-rendering:geometricPrecision; text-rendering:geometricPrecision; image-rendering:optimizeQuality; fill-rule:evenodd; clip-rule:evenodd" xmlns:xlink="http://www.w3.org/1999/xlink">
<g><path style="opacity:1" fill="#9d6262" d="M 31.5,-0.5 C 34.5,-0.5 37.5,-0.5 40.5,-0.5C 39.8333,0.166667 39.1667,0.833333 38.5,1.5C 35.3189,2.34852 32.6523,4.01518 30.5,6.5C 31.2186,4.23625 31.552,1.90291 31.5,-0.5 Z"/></g>
<g><path style="opacity:1" fill="#2f3546" d="M 107.5,-0.5 C 111.5,-0.5 115.5,-0.5 119.5,-0.5C 119.5,7.5 119.5,15.5 119.5,23.5C 116.794,23.1128 114.461,22.1128 112.5,20.5C 113.497,20.5299 114.164,20.0299 114.5,19C 113.873,16.8649 113.373,14.6982 113,12.5C 111.556,10.8446 109.722,10.178 107.5,10.5C 107.5,6.83333 107.5,3.16667 107.5,-0.5 Z"/></g>
<g><path style="opacity:1" fill="#b39e8f" d="M 25.5,-0.5 C 27.5,-0.5 29.5,-0.5 31.5,-0.5C 31.552,1.90291 31.2186,4.23625 30.5,6.5C 28.8561,6.71351 27.3561,6.38017 26,5.5C 25.5045,3.5273 25.3379,1.5273 25.5,-0.5 Z"/></g>
<g><path style="opacity:1" fill="#373542" d="M 58.5,-0.5 C 69.5,-0.5 80.5,-0.5 91.5,-0.5C 91.5271,1.19928 92.1938,2.53261 93.5,3.5C 94.968,4.77914 95.6347,6.4458 95.5,8.5C 98.5,8.5 101.5,8.5 104.5,8.5C 106.388,6.01215 107.055,3.01215 106.5,-0.5C 106.833,-0.5 107.167,-0.5 107.5,-0.5C 107.5,3.16667 107.5,6.83333 107.5,10.5C 109.722,10.178 111.556,10.8446 113,12.5C 113.373,14.6982 113.873,16.8649 114.5,19C 114.164,20.0299 113.497,20.5299 112.5,20.5C 112.672,19.5084 112.338,18.8417 111.5,18.5C 111.063,16.9256 110.063,15.7589 108.5,15C 106.167,14.6667 103.833,14.3333 101.5,14C 97.0866,10.1045 92.0866,8.60449 86.5,9.5C 87.8333,11.5 87.8333,13.5 86.5,15.5C 83.4544,16.3753 80.4544,17.3753 77.5,18.5C 79.0454,20.4396 81.0454,21.6062 83.5,22C 80.9556,23.092 78.2889,23.7586 75.5,24C 76.7059,25.0177 76.3726,25.5177 74.5,25.5C 72.8653,24.9537 71.1986,24.6204 69.5,24.5C 68.5987,23.7095 67.9321,22.7095 67.5,21.5C 75.0481,21.2018 74.7148,20.3685 66.5,19C 65.244,18.5831 64.5774,17.7498 64.5,16.5C 69.5111,16.6659 74.5111,16.4993 79.5,16C 78.2625,15.7679 77.2625,15.2679 76.5,14.5C 79.5,14.5 82.5,14.5 85.5,14.5C 85.5792,13.0695 85.2458,11.7362 84.5,10.5C 78.5647,9.01633 72.5647,7.84966 66.5,7C 65.605,4.18978 63.2716,2.52312 59.5,2C 58.7476,1.32924 58.4142,0.495904 58.5,-0.5 Z"/></g>
<g><path style="opacity:1" fill="#958e8f" d="M 91.5,-0.5 C 96.5,-0.5 101.5,-0.5 106.5,-0.5C 107.055,3.01215 106.388,6.01215 104.5,8.5C 105.578,1.93466 102.911,-0.232002 96.5,2C 95.7562,3.03859 94.7562,3.53859 93.5,3.5C 92.1938,2.53261 91.5271,1.19928 91.5,-0.5 Z"/></g>
<g><path style="opacity:1" fill="#4f464c" d="M 40.5,-0.5 C 46.5,-0.5 52.5,-0.5 58.5,-0.5C 58.4142,0.495904 58.7476,1.32924 59.5,2C 63.2716,2.52312 65.605,4.18978 66.5,7C 72.5647,7.84966 78.5647,9.01633 84.5,10.5C 85.2458,11.7362 85.5792,13.0695 85.5,14.5C 82.5,14.5 79.5,14.5 76.5,14.5C 74.6854,13.3702 72.6854,12.7036 70.5,12.5C 65.9686,12.106 61.4686,11.4394 57,10.5C 54.3362,9.66919 52.1696,8.16919 50.5,6C 46.1289,5.82752 41.7956,5.32752 37.5,4.5C 37.9767,3.52242 38.6433,2.68909 39.5,2C 39.2716,1.60123 38.9382,1.43456 38.5,1.5C 39.1667,0.833333 39.8333,0.166667 40.5,-0.5 Z"/></g>
<g><path style="opacity:1" fill="#725c5d" d="M 104.5,8.5 C 101.5,8.5 98.5,8.5 95.5,8.5C 95.6347,6.4458 94.968,4.77914 93.5,3.5C 94.7562,3.53859 95.7562,3.03859 96.5,2C 102.911,-0.232002 105.578,1.93466 104.5,8.5 Z"/></g>
<g><path style="opacity:1" fill="#987e6d" d="M 23.5,-0.5 C 24.1667,-0.5 24.8333,-0.5 25.5,-0.5C 25.3379,1.5273 25.5045,3.5273 26,5.5C 27.3561,6.38017 28.8561,6.71351 30.5,6.5C 30.5,6.83333 30.5,7.16667 30.5,7.5C 28.5887,8.07501 26.922,9.07501 25.5,10.5C 23.1556,10.4938 21.8223,9.32714 21.5,7C 22.3219,4.52843 22.9886,2.02843 23.5,-0.5 Z"/></g>
<g><path style="opacity:1" fill="#785b54" d="M 19.5,-0.5 C 20.8333,-0.5 22.1667,-0.5 23.5,-0.5C 22.9886,2.02843 22.3219,4.52843 21.5,7C 21.8223,9.32714 23.1556,10.4938 25.5,10.5C 24.5449,12.7099 23.0449,13.0432 21,11.5C 19.9614,12.2438 19.4614,13.2438 19.5,14.5C 19.1667,14.5 18.8333,14.5 18.5,14.5C 18.6133,9.482 18.9466,4.482 19.5,-0.5 Z"/></g>
<g><path style="opacity:1" fill="#b18473" d="M -0.5,-0.5 C 6.16667,-0.5 12.8333,-0.5 19.5,-0.5C 18.9466,4.482 18.6133,9.482 18.5,14.5C 13.8333,17.1667 10.1667,20.8333 7.5,25.5C 6.83333,25.5 6.5,25.8333 6.5,26.5C 5.84851,27.0906 5.18185,27.7573 4.5,28.5C 3.34014,24.5411 3.17347,20.5411 4,16.5C 5.425,15.7877 6.925,15.621 8.5,16C 9.86135,14.4157 10.528,12.5824 10.5,10.5C 15.6344,9.2602 18.1344,5.92687 18,0.5C 12.9657,5.75664 6.79902,7.75664 -0.5,6.5C -0.5,4.16667 -0.5,1.83333 -0.5,-0.5 Z"/></g>
<g><path style="opacity:1" fill="#1d2133" d="M 70.5,12.5 C 72.6854,12.7036 74.6854,13.3702 76.5,14.5C 77.2625,15.2679 78.2625,15.7679 79.5,16C 74.5111,16.4993 69.5111,16.6659 64.5,16.5C 53.7032,19.2247 42.7032,20.058 31.5,19C 27.427,15.3444 27.5937,11.8444 32,8.5C 32.3333,9.16667 32.6667,9.83333 33,10.5C 33.9525,8.40783 35.2859,8.0745 37,9.5C 38.1939,8.56974 39.5272,7.90307 41,7.5C 48.3518,10.7462 56.0185,13.0795 64,14.5C 66.3461,14.0098 68.5128,13.3432 70.5,12.5 Z"/></g>
<g><path style="opacity:1" fill="#8a6359" d="M 6.5,26.5 C 6.75605,28.9124 5.75605,30.5791 3.5,31.5C 2.28149,23.8791 1.44816,16.2124 1,8.5C 0.617425,7.94404 0.117425,7.61071 -0.5,7.5C -0.5,7.16667 -0.5,6.83333 -0.5,6.5C 6.79902,7.75664 12.9657,5.75664 18,0.5C 18.1344,5.92687 15.6344,9.2602 10.5,10.5C 10.528,12.5824 9.86135,14.4157 8.5,16C 6.925,15.621 5.425,15.7877 4,16.5C 3.17347,20.5411 3.34014,24.5411 4.5,28.5C 5.18185,27.7573 5.84851,27.0906 6.5,26.5 Z"/></g>
<g><path style="opacity:1" fill="#302d3a" d="M 38.5,1.5 C 38.9382,1.43456 39.2716,1.60123 39.5,2C 38.6433,2.68909 37.9767,3.52242 37.5,4.5C 41.7956,5.32752 46.1289,5.82752 50.5,6C 52.1696,8.16919 54.3362,9.66919 57,10.5C 61.4686,11.4394 65.9686,12.106 70.5,12.5C 68.5128,13.3432 66.3461,14.0098 64,14.5C 56.0185,13.0795 48.3518,10.7462 41,7.5C 39.5272,7.90307 38.1939,8.56974 37,9.5C 35.2859,8.0745 33.9525,8.40783 33,10.5C 32.6667,9.83333 32.3333,9.16667 32,8.5C 27.5937,11.8444 27.427,15.3444 31.5,19C 42.7032,20.058 53.7032,19.2247 64.5,16.5C 64.5774,17.7498 65.244,18.5831 66.5,19C 74.7148,20.3685 75.0481,21.2018 67.5,21.5C 55.0629,21.6258 42.5629,21.2925 30,20.5C 29.1667,20.1667 28.3333,19.8333 27.5,19.5C 26.8721,17.7419 25.8721,16.2419 24.5,15C 26.2953,12.3675 28.2953,9.86753 30.5,7.5C 30.5,7.16667 30.5,6.83333 30.5,6.5C 32.6523,4.01518 35.3189,2.34852 38.5,1.5 Z"/></g>
<g><path style="opacity:1" fill="#534044" d="M 30.5,7.5 C 28.2953,9.86753 26.2953,12.3675 24.5,15C 25.8721,16.2419 26.8721,17.7419 27.5,19.5C 28.3333,19.8333 29.1667,20.1667 30,20.5C 42.5629,21.2925 55.0629,21.6258 67.5,21.5C 67.9321,22.7095 68.5987,23.7095 69.5,24.5C 69.7911,25.6491 70.6244,26.3158 72,26.5C 81.8015,27.5706 90.9681,30.4039 99.5,35C 100.381,35.7083 101.047,36.5416 101.5,37.5C 99.8333,36.8333 98.1667,36.1667 96.5,35.5C 92.6393,34.4527 88.9726,32.9527 85.5,31C 81.8484,30.5014 78.1817,30.3347 74.5,30.5C 74.3893,29.8826 74.056,29.3826 73.5,29C 67.9914,27.7044 62.6581,26.0377 57.5,24C 49.5,23.3333 41.5,23.3333 33.5,24C 30.7021,25.5985 27.7021,26.7651 24.5,27.5C 24.1373,28.1835 23.8039,28.8501 23.5,29.5C 21.9382,29.7329 20.6049,30.3995 19.5,31.5C 19.7619,29.4362 20.9286,28.1029 23,27.5C 23.49,26.2068 23.6567,24.8734 23.5,23.5C 17.6086,23.395 17.2752,22.395 22.5,20.5C 23.4656,18.604 23.7989,16.604 23.5,14.5C 22.1667,14.5 20.8333,14.5 19.5,14.5C 19.4614,13.2438 19.9614,12.2438 21,11.5C 23.0449,13.0432 24.5449,12.7099 25.5,10.5C 26.922,9.07501 28.5887,8.07501 30.5,7.5 Z"/></g>
<g><path style="opacity:1" fill="#262738" d="M 111.5,18.5 C 109.173,18.7529 107.173,18.0863 105.5,16.5C 102.142,17.9998 100.309,20.6665 100,24.5C 97.6313,25.268 95.4647,26.4347 93.5,28C 94.3567,28.6891 95.0233,29.5224 95.5,30.5C 101.029,32.755 106.695,34.5883 112.5,36C 113.357,36.6891 114.023,37.5224 114.5,38.5C 112.435,38.2616 110.435,38.7616 108.5,40C 111.325,42.1433 113.325,44.81 114.5,48C 111.683,54.4524 110.35,61.2858 110.5,68.5C 109.883,68.3893 109.383,68.056 109,67.5C 108.833,66.1667 108.667,64.8333 108.5,63.5C 108.814,57.1638 109.814,50.9972 111.5,45C 110.529,43.5187 109.196,42.6854 107.5,42.5C 105.909,40.3674 103.909,38.7007 101.5,37.5C 101.047,36.5416 100.381,35.7083 99.5,35C 90.9681,30.4039 81.8015,27.5706 72,26.5C 70.6244,26.3158 69.7911,25.6491 69.5,24.5C 71.1986,24.6204 72.8653,24.9537 74.5,25.5C 76.3726,25.5177 76.7059,25.0177 75.5,24C 78.2889,23.7586 80.9556,23.092 83.5,22C 81.0454,21.6062 79.0454,20.4396 77.5,18.5C 80.4544,17.3753 83.4544,16.3753 86.5,15.5C 87.8333,13.5 87.8333,11.5 86.5,9.5C 92.0866,8.60449 97.0866,10.1045 101.5,14C 103.833,14.3333 106.167,14.6667 108.5,15C 110.063,15.7589 111.063,16.9256 111.5,18.5 Z"/></g>
<g><path style="opacity:1" fill="#181e30" d="M 111.5,18.5 C 112.338,18.8417 112.672,19.5084 112.5,20.5C 114.461,22.1128 116.794,23.1128 119.5,23.5C 119.5,32.8333 119.5,42.1667 119.5,51.5C 118.153,50.9717 116.819,50.805 115.5,51C 116.622,52.6134 116.122,53.7801 114,54.5C 113.514,59.8869 112.681,64.8869 111.5,69.5C 110.833,69.5 110.5,69.1667 110.5,68.5C 110.35,61.2858 111.683,54.4524 114.5,48C 113.325,44.81 111.325,42.1433 108.5,40C 110.435,38.7616 112.435,38.2616 114.5,38.5C 114.023,37.5224 113.357,36.6891 112.5,36C 106.695,34.5883 101.029,32.755 95.5,30.5C 95.0233,29.5224 94.3567,28.6891 93.5,28C 95.4647,26.4347 97.6313,25.268 100,24.5C 100.309,20.6665 102.142,17.9998 105.5,16.5C 107.173,18.0863 109.173,18.7529 111.5,18.5 Z"/></g>
<g><path style="opacity:1" fill="#282938" d="M 18.5,14.5 C 18.8333,14.5 19.1667,14.5 19.5,14.5C 20.8333,14.5 22.1667,14.5 23.5,14.5C 23.7989,16.604 23.4656,18.604 22.5,20.5C 17.2752,22.395 17.6086,23.395 23.5,23.5C 23.6567,24.8734 23.49,26.2068 23,27.5C 20.9286,28.1029 19.7619,29.4362 19.5,31.5C 18.8333,31.5 18.5,31.8333 18.5,32.5C 17.2223,32.7822 16.2223,33.4489 15.5,34.5C 13.2776,34.178 11.4443,34.8446 10,36.5C 8.95788,47.2989 8.45788,57.9655 8.5,68.5C 9.17199,61.8614 8.17199,55.528 5.5,49.5C 6.16667,48.1667 6.83333,46.8333 7.5,45.5C 6.73971,43.5965 6.73971,41.5965 7.5,39.5C 7.16667,38.5 6.83333,37.5 6.5,36.5C 4.54138,37.7481 3.04138,39.4148 2,41.5C 1.32924,40.7476 0.495904,40.4142 -0.5,40.5C -0.5,39.8333 -0.5,39.1667 -0.5,38.5C 0.350931,36.2903 1.68426,34.2903 3.5,32.5C 4.42773,34.3348 5.5944,34.6682 7,33.5C 7.49742,30.854 7.66409,28.1873 7.5,25.5C 10.1667,20.8333 13.8333,17.1667 18.5,14.5 Z"/></g>
<g><path style="opacity:1" fill="#956c5e" d="M 74.5,30.5 C 73.8333,30.5 73.1667,30.5 72.5,30.5C 68.5654,29.2463 64.5654,28.2463 60.5,27.5C 60.1667,27.5 59.8333,27.5 59.5,27.5C 58.0101,25.7202 56.0101,25.0535 53.5,25.5C 43.0408,23.3041 33.0408,24.6374 23.5,29.5C 23.8039,28.8501 24.1373,28.1835 24.5,27.5C 27.7021,26.7651 30.7021,25.5985 33.5,24C 41.5,23.3333 49.5,23.3333 57.5,24C 62.6581,26.0377 67.9914,27.7044 73.5,29C 74.056,29.3826 74.3893,29.8826 74.5,30.5 Z"/></g>
<g><path style="opacity:1" fill="#cea58b" d="M 53.5,25.5 C 56.0101,25.0535 58.0101,25.7202 59.5,27.5C 52.5661,27.3839 46.2327,29.2172 40.5,33C 38.9588,34.5793 37.7922,36.4127 37,38.5C 37.6995,45.8715 37.0328,52.8715 35,59.5C 34.1667,63 32,65.1667 28.5,66C 34.4449,67.1621 40.4449,67.6621 46.5,67.5C 52.4299,67.937 58.4299,67.937 64.5,67.5C 67.941,67.6989 71.2744,67.1989 74.5,66C 75.7014,65.0975 76.5348,63.9308 77,62.5C 74.9993,54.0234 74.166,45.3568 74.5,36.5C 73.448,36.6495 72.448,36.4828 71.5,36C 68.5286,32.1907 64.8619,29.3573 60.5,27.5C 64.5654,28.2463 68.5654,29.2463 72.5,30.5C 73.9303,31.5375 75.597,32.2041 77.5,32.5C 78.4577,33.9616 79.6244,35.2949 81,36.5C 81.4996,41.511 81.333,46.511 80.5,51.5C 80.7826,55.196 81.2826,58.8626 82,62.5C 83.968,64.8314 86.1347,66.8314 88.5,68.5C 84.1667,68.5 79.8333,68.5 75.5,68.5C 71.7802,68.5642 68.1135,69.0642 64.5,70C 62.5471,71.6326 60.3804,72.7993 58,73.5C 52.5175,72.4785 47.3508,70.8118 42.5,68.5C 35.5,68.5 28.5,68.5 21.5,68.5C 22.172,67.7326 23.0053,67.0659 24,66.5C 24.9622,62.6655 26.2955,58.9989 28,55.5C 28.3333,47.8333 28.6667,40.1667 29,32.5C 30.7177,28.2987 33.8844,26.132 38.5,26C 43.4889,25.5007 48.4889,25.3341 53.5,25.5 Z"/></g>
<g><path style="opacity:1" fill="#d7b69f" d="M 59.5,27.5 C 59.8333,27.5 60.1667,27.5 60.5,27.5C 64.8619,29.3573 68.5286,32.1907 71.5,36C 72.448,36.4828 73.448,36.6495 74.5,36.5C 74.166,45.3568 74.9993,54.0234 77,62.5C 76.5348,63.9308 75.7014,65.0975 74.5,66C 71.2744,67.1989 67.941,67.6989 64.5,67.5C 67.0494,65.8314 69.7161,64.1647 72.5,62.5C 70.8508,60.0046 68.5174,58.5046 65.5,58C 64.7476,57.3292 64.4142,56.4959 64.5,55.5C 64.8432,53.5168 64.1765,52.1834 62.5,51.5C 59.5382,47.4378 60.5382,44.7712 65.5,43.5C 65.0283,36.4034 61.195,33.4034 54,34.5C 50.7726,34.7318 47.9392,35.8984 45.5,38C 43.4645,40.2989 43.1312,42.7989 44.5,45.5C 43.273,46.5904 42.4396,47.9238 42,49.5C 41.3159,54.8222 40.8159,60.1556 40.5,65.5C 42.7857,65.595 44.7857,66.2616 46.5,67.5C 40.4449,67.6621 34.4449,67.1621 28.5,66C 32,65.1667 34.1667,63 35,59.5C 37.0328,52.8715 37.6995,45.8715 37,38.5C 37.7922,36.4127 38.9588,34.5793 40.5,33C 46.2327,29.2172 52.5661,27.3839 59.5,27.5 Z"/></g>
<g><path style="opacity:1" fill="#4d4348" d="M -0.5,7.5 C 0.117425,7.61071 0.617425,7.94404 1,8.5C 1.44816,16.2124 2.28149,23.8791 3.5,31.5C 5.75605,30.5791 6.75605,28.9124 6.5,26.5C 6.5,25.8333 6.83333,25.5 7.5,25.5C 7.66409,28.1873 7.49742,30.854 7,33.5C 5.5944,34.6682 4.42773,34.3348 3.5,32.5C 1.68426,34.2903 0.350931,36.2903 -0.5,38.5C -0.5,28.1667 -0.5,17.8333 -0.5,7.5 Z"/></g>
<g><path style="opacity:1" fill="#dcc3b1" d="M 62.5,51.5 C 58.3635,48.8888 54.1969,48.8888 50,51.5C 48.9148,50.7069 47.7481,50.0402 46.5,49.5C 45.8736,53.7006 44.7069,58.0339 43,62.5C 43.3742,63.4162 43.8742,64.2496 44.5,65C 50.8333,65.6667 57.1667,65.6667 63.5,65C 65.2909,64.5848 66.6243,63.5848 67.5,62C 65.8333,60.1667 64.1667,58.3333 62.5,56.5C 62.9569,55.7025 63.6236,55.3691 64.5,55.5C 64.4142,56.4959 64.7476,57.3292 65.5,58C 68.5174,58.5046 70.8508,60.0046 72.5,62.5C 69.7161,64.1647 67.0494,65.8314 64.5,67.5C 58.4299,67.937 52.4299,67.937 46.5,67.5C 44.7857,66.2616 42.7857,65.595 40.5,65.5C 40.8159,60.1556 41.3159,54.8222 42,49.5C 42.4396,47.9238 43.273,46.5904 44.5,45.5C 43.1312,42.7989 43.4645,40.2989 45.5,38C 47.9392,35.8984 50.7726,34.7318 54,34.5C 61.195,33.4034 65.0283,36.4034 65.5,43.5C 60.5382,44.7712 59.5382,47.4378 62.5,51.5 Z"/></g>
<g><path style="opacity:1" fill="#bf8e76" d="M 77.5,32.5 C 85.9898,30.8338 89.8231,34.1671 89,42.5C 87.5569,44.9282 86.7236,47.5949 86.5,50.5C 89.2246,55.9295 91.2246,61.5962 92.5,67.5C 91.3112,68.4287 89.9778,68.762 88.5,68.5C 86.1347,66.8314 83.968,64.8314 82,62.5C 81.2826,58.8626 80.7826,55.196 80.5,51.5C 81.333,46.511 81.4996,41.511 81,36.5C 79.6244,35.2949 78.4577,33.9616 77.5,32.5 Z"/></g>
<g><path style="opacity:1" fill="#a97864" d="M 72.5,30.5 C 73.1667,30.5 73.8333,30.5 74.5,30.5C 78.1817,30.3347 81.8484,30.5014 85.5,31C 88.9726,32.9527 92.6393,34.4527 96.5,35.5C 96.5858,36.4959 96.2524,37.3292 95.5,38C 96.8045,38.804 97.4712,39.9707 97.5,41.5C 95.9348,45.6316 94.9348,49.9649 94.5,54.5C 96.1529,59.3599 96.8196,64.3599 96.5,69.5C 89.5,69.5 82.5,69.5 75.5,69.5C 75.5,69.1667 75.5,68.8333 75.5,68.5C 79.8333,68.5 84.1667,68.5 88.5,68.5C 89.9778,68.762 91.3112,68.4287 92.5,67.5C 91.2246,61.5962 89.2246,55.9295 86.5,50.5C 86.7236,47.5949 87.5569,44.9282 89,42.5C 89.8231,34.1671 85.9898,30.8338 77.5,32.5C 75.597,32.2041 73.9303,31.5375 72.5,30.5 Z"/></g>
<g><path style="opacity:1" fill="#bd8b73" d="M 53.5,25.5 C 48.4889,25.3341 43.4889,25.5007 38.5,26C 33.8844,26.132 30.7177,28.2987 29,32.5C 28.6667,40.1667 28.3333,47.8333 28,55.5C 26.2955,58.9989 24.9622,62.6655 24,66.5C 23.0053,67.0659 22.172,67.7326 21.5,68.5C 20.5,68.5 19.5,68.5 18.5,68.5C 19.2467,56.8584 19.7467,45.1918 20,33.5C 21.3756,32.2949 22.5423,30.9616 23.5,29.5C 33.0408,24.6374 43.0408,23.3041 53.5,25.5 Z"/></g>
<g><path style="opacity:1" fill="#795c57" d="M 18.5,32.5 C 17.8763,34.754 16.543,36.4206 14.5,37.5C 13.7784,37.9175 13.2784,38.5842 13,39.5C 12.6667,48.5 12.3333,57.5 12,66.5C 11.7216,67.4158 11.2216,68.0825 10.5,68.5C 10.9428,65.188 11.2762,61.8547 11.5,58.5C 8.10704,49.5612 9.44037,41.5612 15.5,34.5C 16.2223,33.4489 17.2223,32.7822 18.5,32.5 Z"/></g>
<g><path style="opacity:1" fill="#a07362" d="M 23.5,29.5 C 22.5423,30.9616 21.3756,32.2949 20,33.5C 19.7467,45.1918 19.2467,56.8584 18.5,68.5C 19.5,68.5 20.5,68.5 21.5,68.5C 28.5,68.5 35.5,68.5 42.5,68.5C 42.5,68.8333 42.5,69.1667 42.5,69.5C 34.4697,69.4783 26.4697,69.9783 18.5,71C 17.9558,71.7172 17.2891,72.2172 16.5,72.5C 15.0783,72.2914 13.745,71.7914 12.5,71C 13.2465,59.885 13.9132,48.7183 14.5,37.5C 16.543,36.4206 17.8763,34.754 18.5,32.5C 18.5,31.8333 18.8333,31.5 19.5,31.5C 20.6049,30.3995 21.9382,29.7329 23.5,29.5 Z"/></g>
<g><path style="opacity:1" fill="#4f4247" d="M 15.5,34.5 C 9.44037,41.5612 8.10704,49.5612 11.5,58.5C 11.2762,61.8547 10.9428,65.188 10.5,68.5C 9.59748,71.3915 9.26414,74.3915 9.5,77.5C 9.16667,77.5 8.83333,77.5 8.5,77.5C 8.5,74.8333 8.5,72.1667 8.5,69.5C 8.5,69.1667 8.5,68.8333 8.5,68.5C 8.45788,57.9655 8.95788,47.2989 10,36.5C 11.4443,34.8446 13.2776,34.178 15.5,34.5 Z"/></g>
<g><path style="opacity:1" fill="#1e2335" d="M 8.5,68.5 C 8.5,68.8333 8.5,69.1667 8.5,69.5C 7.86092,73.7966 6.86092,78.1299 5.5,82.5C 5.15195,77.8885 4.98528,73.2219 5,68.5C 3.32283,66.4748 2.32283,64.1415 2,61.5C 1.66667,63.8333 1.33333,66.1667 1,68.5C 0.813823,65.9644 0.313823,63.631 -0.5,61.5C -0.5,54.5 -0.5,47.5 -0.5,40.5C 0.495904,40.4142 1.32924,40.7476 2,41.5C 3.04138,39.4148 4.54138,37.7481 6.5,36.5C 6.83333,37.5 7.16667,38.5 7.5,39.5C 6.73971,41.5965 6.73971,43.5965 7.5,45.5C 6.83333,46.8333 6.16667,48.1667 5.5,49.5C 8.17199,55.528 9.17199,61.8614 8.5,68.5 Z"/></g>
<g><path style="opacity:1" fill="#8e6559" d="M 96.5,35.5 C 98.1667,36.1667 99.8333,36.8333 101.5,37.5C 103.336,41.1756 104.669,45.0089 105.5,49C 105.147,52.4314 103.647,55.2647 101,57.5C 100.077,62.4795 99.2439,67.4795 98.5,72.5C 97.5832,71.8728 96.5832,71.5394 95.5,71.5C 88.557,70.5733 81.557,70.24 74.5,70.5C 70.6795,71.4856 67.1795,73.1523 64,75.5C 63.3333,84.8333 63.3333,94.1667 64,103.5C 64.3678,104.91 65.2011,105.91 66.5,106.5C 66.7187,99.5825 66.7187,92.5825 66.5,85.5C 67.5,85.5 68.5,85.5 69.5,85.5C 67.2154,88.5645 66.8821,91.8979 68.5,95.5C 69.6978,102.031 70.6978,108.697 71.5,115.5C 71.4932,117.369 71.1599,119.036 70.5,120.5C 69.7739,115.963 67.1073,114.13 62.5,115C 58.9363,119.378 55.2697,119.545 51.5,115.5C 55.2485,115.693 58.5818,114.693 61.5,112.5C 63.0265,111.508 63.6932,110.008 63.5,108C 62.5813,97.1897 62.2479,86.3564 62.5,75.5C 65.8412,71.5056 70.1746,69.5056 75.5,69.5C 82.5,69.5 89.5,69.5 96.5,69.5C 96.8196,64.3599 96.1529,59.3599 94.5,54.5C 94.9348,49.9649 95.9348,45.6316 97.5,41.5C 97.4712,39.9707 96.8045,38.804 95.5,38C 96.2524,37.3292 96.5858,36.4959 96.5,35.5 Z"/></g>
<g><path style="opacity:1" fill="#dec9b9" d="M 62.5,51.5 C 64.1765,52.1834 64.8432,53.5168 64.5,55.5C 63.6236,55.3691 62.9569,55.7025 62.5,56.5C 64.1667,58.3333 65.8333,60.1667 67.5,62C 66.6243,63.5848 65.2909,64.5848 63.5,65C 57.1667,65.6667 50.8333,65.6667 44.5,65C 43.8742,64.2496 43.3742,63.4162 43,62.5C 44.7069,58.0339 45.8736,53.7006 46.5,49.5C 47.7481,50.0402 48.9148,50.7069 50,51.5C 54.1969,48.8888 58.3635,48.8888 62.5,51.5 Z"/></g>
<g><path style="opacity:1" fill="#161e31" d="M 119.5,51.5 C 119.5,62.5 119.5,73.5 119.5,84.5C 118.508,84.3284 117.842,84.6618 117.5,85.5C 116.926,87.7879 115.926,89.9546 114.5,92C 113.256,92.4561 112.423,91.9561 112,90.5C 111.5,83.5079 111.334,76.5079 111.5,69.5C 112.681,64.8869 113.514,59.8869 114,54.5C 116.122,53.7801 116.622,52.6134 115.5,51C 116.819,50.805 118.153,50.9717 119.5,51.5 Z"/></g>
<g><path style="opacity:1" fill="#8f685b" d="M 14.5,37.5 C 13.9132,48.7183 13.2465,59.885 12.5,71C 13.745,71.7914 15.0783,72.2914 16.5,72.5C 16.5,72.8333 16.5,73.1667 16.5,73.5C 15.8501,73.8039 15.1835,74.1373 14.5,74.5C 13.5159,77.4281 13.1826,80.4281 13.5,83.5C 14.5,83.5 15.5,83.5 16.5,83.5C 16.1568,85.4832 16.8235,86.8166 18.5,87.5C 20.5273,87.6621 22.5273,87.4955 24.5,87C 25.9101,85.6283 27.5767,84.795 29.5,84.5C 29.5,85.5 29.5,86.5 29.5,87.5C 23.1603,90.7498 17.6603,89.7498 13,84.5C 12.3333,85.1667 11.6667,85.8333 11,86.5C 10.1139,96.1655 11.2806,105.499 14.5,114.5C 11.9497,110.685 10.4497,106.352 10,101.5C 9.50029,93.5069 9.33362,85.5069 9.5,77.5C 9.26414,74.3915 9.59748,71.3915 10.5,68.5C 11.2216,68.0825 11.7216,67.4158 12,66.5C 12.3333,57.5 12.6667,48.5 13,39.5C 13.2784,38.5842 13.7784,37.9175 14.5,37.5 Z"/></g>
<g><path style="opacity:1" fill="#604746" d="M 101.5,37.5 C 103.909,38.7007 105.909,40.3674 107.5,42.5C 107.622,50.851 107.289,59.1843 106.5,67.5C 108.053,78.5667 109.053,89.7334 109.5,101C 108.061,108.815 105.728,116.315 102.5,123.5C 101.609,124.261 100.942,125.261 100.5,126.5C 103.185,131.138 104.018,136.138 103,141.5C 102.861,144.445 101.694,146.779 99.5,148.5C 102.179,142.296 102.679,135.963 101,129.5C 99.3324,132.21 98.499,132.043 98.5,129C 99.3219,126.528 99.9886,124.028 100.5,121.5C 101.64,119.22 102.807,116.886 104,114.5C 104.497,112.19 104.663,109.857 104.5,107.5C 105.648,103.019 105.815,98.3522 105,93.5C 103.705,91.8783 102.205,90.545 100.5,89.5C 96.4736,90.8514 92.4736,92.1848 88.5,93.5C 88.4802,91.857 89.1468,90.5237 90.5,89.5C 89.9953,88.0815 88.9953,87.4148 87.5,87.5C 87.5,87.1667 87.5,86.8333 87.5,86.5C 89.7224,86.178 91.5557,86.8446 93,88.5C 94.8847,87.6867 95.5513,86.3533 95,84.5C 92.3579,82.1073 89.5246,80.1073 86.5,78.5C 88.7427,77.5258 91.076,77.1924 93.5,77.5C 96.1364,78.1194 98.6364,79.1194 101,80.5C 101.794,76.7786 100.294,74.4453 96.5,73.5C 96.1667,72.8333 95.8333,72.1667 95.5,71.5C 96.5832,71.5394 97.5832,71.8728 98.5,72.5C 99.2439,67.4795 100.077,62.4795 101,57.5C 103.647,55.2647 105.147,52.4314 105.5,49C 104.669,45.0089 103.336,41.1756 101.5,37.5 Z"/></g>
<g><path style="opacity:1" fill="#2a2b38" d="M -0.5,61.5 C 0.313823,63.631 0.813823,65.9644 1,68.5C 1.33333,66.1667 1.66667,63.8333 2,61.5C 2.32283,64.1415 3.32283,66.4748 5,68.5C 4.98528,73.2219 5.15195,77.8885 5.5,82.5C 6.86092,78.1299 7.86092,73.7966 8.5,69.5C 8.5,72.1667 8.5,74.8333 8.5,77.5C 8.66625,84.175 8.49958,90.8417 8,97.5C 7.06564,96.1416 6.2323,94.8083 5.5,93.5C 5.5,93.1667 5.5,92.8333 5.5,92.5C 5.8064,89.6146 5.47307,86.9479 4.5,84.5C 3.89022,83.609 3.55688,82.609 3.5,81.5C 3.12766,77.7029 1.79433,74.3695 -0.5,71.5C -0.5,68.1667 -0.5,64.8333 -0.5,61.5 Z"/></g>
<g><path style="opacity:1" fill="#37313c" d="M 96.5,73.5 C 100.294,74.4453 101.794,76.7786 101,80.5C 98.6364,79.1194 96.1364,78.1194 93.5,77.5C 86.5116,76.9641 79.5116,76.1307 72.5,75C 75.0913,72.0068 78.4246,70.8402 82.5,71.5C 87.2893,71.5745 91.956,72.2412 96.5,73.5 Z"/></g>
<g><path style="opacity:1" fill="#553e40" d="M 42.5,69.5 C 42.8333,69.5 43.1667,69.5 43.5,69.5C 44.8333,71.1667 46.1667,72.8333 47.5,74.5C 48.1465,76.1561 48.8131,77.8228 49.5,79.5C 49.3918,80.4419 49.0585,81.2753 48.5,82C 43.6057,81.3711 38.6057,80.5378 33.5,79.5C 30.5187,79.4388 27.852,80.2722 25.5,82C 26.448,82.4828 27.448,82.6495 28.5,82.5C 28.8333,83.1667 29.1667,83.8333 29.5,84.5C 27.5767,84.795 25.9101,85.6283 24.5,87C 22.5273,87.4955 20.5273,87.6621 18.5,87.5C 18.3505,86.448 18.5172,85.448 19,84.5C 22.8607,80.9859 27.3607,78.6526 32.5,77.5C 29.0654,76.5092 25.5654,75.8425 22,75.5C 19.6055,75.7523 17.6055,76.7523 16,78.5C 15.6155,76.8034 15.7822,75.1368 16.5,73.5C 16.5,73.1667 16.5,72.8333 16.5,72.5C 17.2891,72.2172 17.9558,71.7172 18.5,71C 26.4697,69.9783 34.4697,69.4783 42.5,69.5 Z"/></g>
<g><path style="opacity:1" fill="#3e343c" d="M 30.5,70.5 C 34.1817,70.3347 37.8484,70.5014 41.5,71C 43.0368,72.1096 43.7035,73.6096 43.5,75.5C 37.7945,75.8288 32.1278,75.4954 26.5,74.5C 26.2907,73.914 25.9574,73.414 25.5,73C 27.3146,72.2432 28.9812,71.4098 30.5,70.5 Z"/></g>
<g><path style="opacity:1" fill="#4c3b40" d="M 74.5,70.5 C 81.557,70.24 88.557,70.5733 95.5,71.5C 95.8333,72.1667 96.1667,72.8333 96.5,73.5C 91.956,72.2412 87.2893,71.5745 82.5,71.5C 78.4246,70.8402 75.0913,72.0068 72.5,75C 79.5116,76.1307 86.5116,76.9641 93.5,77.5C 91.076,77.1924 88.7427,77.5258 86.5,78.5C 89.5246,80.1073 92.3579,82.1073 95,84.5C 95.5513,86.3533 94.8847,87.6867 93,88.5C 91.5557,86.8446 89.7224,86.178 87.5,86.5C 87.7778,84.6536 87.1112,83.3202 85.5,82.5C 83.9254,83.9001 82.2587,84.7334 80.5,85C 81.4285,87.9088 83.4285,89.0755 86.5,88.5C 85.4324,89.4345 84.099,89.7678 82.5,89.5C 81.5041,89.5858 80.6708,89.2524 80,88.5C 79.7811,87.062 79.2811,85.7287 78.5,84.5C 77.8933,84.6236 77.56,84.9569 77.5,85.5C 75.9731,85.427 74.9731,86.0937 74.5,87.5C 73.7611,87.631 73.0944,87.4643 72.5,87C 74.6572,85.0879 76.9906,83.4213 79.5,82C 78.2068,81.51 76.8734,81.3433 75.5,81.5C 72.3883,82.6885 69.2216,83.6885 66,84.5C 65.2937,82.0288 65.627,79.6954 67,77.5C 69.9985,75.6671 72.4985,73.3338 74.5,70.5 Z"/></g>
<g><path style="opacity:1" fill="#a59990" d="M -0.5,71.5 C 1.79433,74.3695 3.12766,77.7029 3.5,81.5C 2.29208,82.2341 0.95875,82.5674 -0.5,82.5C -0.5,78.8333 -0.5,75.1667 -0.5,71.5 Z"/></g>
<g><path style="opacity:1" fill="#785750" d="M 16.5,73.5 C 15.7822,75.1368 15.6155,76.8034 16,78.5C 17.6055,76.7523 19.6055,75.7523 22,75.5C 25.5654,75.8425 29.0654,76.5092 32.5,77.5C 27.3607,78.6526 22.8607,80.9859 19,84.5C 18.5172,85.448 18.3505,86.448 18.5,87.5C 16.8235,86.8166 16.1568,85.4832 16.5,83.5C 15.5,83.5 14.5,83.5 13.5,83.5C 13.1826,80.4281 13.5159,77.4281 14.5,74.5C 15.1835,74.1373 15.8501,73.8039 16.5,73.5 Z"/></g>
<g><path style="opacity:1" fill="#825f58" d="M 47.5,74.5 C 48.8221,74.33 49.9887,74.6634 51,75.5C 51.4974,78.146 51.6641,80.8127 51.5,83.5C 48.8127,83.3359 46.146,83.5026 43.5,84C 45.1192,85.4834 45.2859,86.65 44,87.5C 42.6667,86.8333 41.3333,86.1667 40,85.5C 38.9889,86.0556 38.1556,86.7222 37.5,87.5C 38.0522,85.6693 38.0522,84.0026 37.5,82.5C 34.3654,81.2172 31.3654,81.2172 28.5,82.5C 27.448,82.6495 26.448,82.4828 25.5,82C 27.852,80.2722 30.5187,79.4388 33.5,79.5C 38.6057,80.5378 43.6057,81.3711 48.5,82C 49.0585,81.2753 49.3918,80.4419 49.5,79.5C 48.8131,77.8228 48.1465,76.1561 47.5,74.5 Z"/></g>
<g><path style="opacity:1" fill="#9d7363" d="M 43.5,69.5 C 46.5187,71.6756 49.6854,73.6756 53,75.5C 53.6667,78.5 53.6667,81.5 53,84.5C 50.9592,85.4231 48.7925,85.7564 46.5,85.5C 46.5,86.5 46.5,87.5 46.5,88.5C 44.8333,88.5 43.1667,88.5 41.5,88.5C 40.1667,88.5 38.8333,88.5 37.5,88.5C 37.5,88.1667 37.5,87.8333 37.5,87.5C 38.1556,86.7222 38.9889,86.0556 40,85.5C 41.3333,86.1667 42.6667,86.8333 44,87.5C 45.2859,86.65 45.1192,85.4834 43.5,84C 46.146,83.5026 48.8127,83.3359 51.5,83.5C 51.6641,80.8127 51.4974,78.146 51,75.5C 49.9887,74.6634 48.8221,74.33 47.5,74.5C 46.1667,72.8333 44.8333,71.1667 43.5,69.5 Z"/></g>
<g><path style="opacity:1" fill="#36323e" d="M 37.5,87.5 C 37.5,87.8333 37.5,88.1667 37.5,88.5C 36.8333,88.5 36.1667,88.5 35.5,88.5C 33.3792,88.6747 31.3792,88.3414 29.5,87.5C 29.5,86.5 29.5,85.5 29.5,84.5C 29.1667,83.8333 28.8333,83.1667 28.5,82.5C 31.3654,81.2172 34.3654,81.2172 37.5,82.5C 38.0522,84.0026 38.0522,85.6693 37.5,87.5 Z"/></g>
<g><path style="opacity:1" fill="#242539" d="M 87.5,86.5 C 87.5,86.8333 87.5,87.1667 87.5,87.5C 87.5,88.1667 87.1667,88.5 86.5,88.5C 83.4285,89.0755 81.4285,87.9088 80.5,85C 82.2587,84.7334 83.9254,83.9001 85.5,82.5C 87.1112,83.3202 87.7778,84.6536 87.5,86.5 Z"/></g>
<g><path style="opacity:1" fill="#78544d" d="M 74.5,70.5 C 72.4985,73.3338 69.9985,75.6671 67,77.5C 65.627,79.6954 65.2937,82.0288 66,84.5C 69.2216,83.6885 72.3883,82.6885 75.5,81.5C 73.8525,83.3264 71.8525,84.6597 69.5,85.5C 68.5,85.5 67.5,85.5 66.5,85.5C 66.7187,92.5825 66.7187,99.5825 66.5,106.5C 65.2011,105.91 64.3678,104.91 64,103.5C 63.3333,94.1667 63.3333,84.8333 64,75.5C 67.1795,73.1523 70.6795,71.4856 74.5,70.5 Z"/></g>
<g><path style="opacity:1" fill="#754f4b" d="M 4.5,84.5 C 5.47307,86.9479 5.8064,89.6146 5.5,92.5C 1.032,92.2517 -0.467997,89.9183 1,85.5C 3.82949,91.1587 4.99616,90.8254 4.5,84.5 Z"/></g>
<g><path style="opacity:1" fill="#875f55" d="M 87.5,87.5 C 88.9953,87.4148 89.9953,88.0815 90.5,89.5C 89.1468,90.5237 88.4802,91.857 88.5,93.5C 92.4736,92.1848 96.4736,90.8514 100.5,89.5C 102.205,90.545 103.705,91.8783 105,93.5C 105.815,98.3522 105.648,103.019 104.5,107.5C 104.666,103.154 104.499,98.8206 104,94.5C 101.256,90.875 98.423,90.7083 95.5,94C 90.5,94.6667 85.5,94.6667 80.5,94C 80.1667,93.6667 79.8333,93.3333 79.5,93C 81.3839,92.7837 83.0506,92.117 84.5,91C 83.5842,90.7216 82.9175,90.2216 82.5,89.5C 84.099,89.7678 85.4324,89.4345 86.5,88.5C 87.1667,88.5 87.5,88.1667 87.5,87.5 Z"/></g>
<g><path style="opacity:1" fill="#b2816d" d="M 62.5,75.5 C 62.2479,86.3564 62.5813,97.1897 63.5,108C 63.6932,110.008 63.0265,111.508 61.5,112.5C 59.9875,99.973 60.3208,87.6397 62.5,75.5 Z"/></g>
<g><path style="opacity:1" fill="#5b4447" d="M 119.5,84.5 C 119.5,89.8333 119.5,95.1667 119.5,100.5C 118.206,101.29 117.039,102.29 116,103.5C 115.681,108.095 114.848,112.595 113.5,117C 113.396,119.145 114.063,120.979 115.5,122.5C 115.137,123.183 114.804,123.85 114.5,124.5C 113.089,126.539 111.089,127.539 108.5,127.5C 108.167,127.5 107.833,127.5 107.5,127.5C 110.092,118.241 113.092,109.074 116.5,100C 113.78,96.9523 113.947,94.1189 117,91.5C 117.495,89.5273 117.662,87.5273 117.5,85.5C 117.842,84.6618 118.508,84.3284 119.5,84.5 Z"/></g>
<g><path style="opacity:1" fill="#d0a88f" d="M 48.5,90.5 C 46.4828,92.9403 44.6494,95.607 43,98.5C 41.9465,106.802 41.4465,115.135 41.5,123.5C 39.1897,122.543 36.8564,121.543 34.5,120.5C 33.5581,120.608 32.7247,120.941 32,121.5C 28.975,119.639 26.475,117.306 24.5,114.5C 19.517,108.85 17.017,102.183 17,94.5C 19.1469,93.5243 21.3136,93.691 23.5,95C 28.1667,95.6667 32.8333,95.6667 37.5,95C 39.5873,94.2078 41.4207,93.0412 43,91.5C 43.2387,90.212 42.7387,89.212 41.5,88.5C 43.1667,88.5 44.8333,88.5 46.5,88.5C 48.2027,87.3398 48.8693,88.0065 48.5,90.5 Z"/></g>
<g><path style="opacity:1" fill="#cea48a" d="M 77.5,85.5 C 78.0967,85.7352 78.4301,86.2352 78.5,87C 77.7827,88.531 76.7827,89.8643 75.5,91C 76.9281,93.219 78.9281,94.719 81.5,95.5C 82.209,96.404 83.209,96.7373 84.5,96.5C 84.6107,97.1174 84.944,97.6174 85.5,98C 88.4262,98.2178 91.2595,98.7178 94,99.5C 94.6667,101.167 94.6667,102.833 94,104.5C 91.9683,110.116 89.4683,115.449 86.5,120.5C 85.277,121.614 83.9437,121.781 82.5,121C 80.9284,117.36 79.2617,113.86 77.5,110.5C 76.5,110.5 75.5,110.5 74.5,110.5C 74.7845,108.585 74.4511,106.919 73.5,105.5C 72.7328,100.49 71.3994,95.6568 69.5,91C 69.6448,90.228 69.9781,89.5613 70.5,89C 72.0581,88.79 73.3915,88.29 74.5,87.5C 74.9731,86.0937 75.9731,85.427 77.5,85.5 Z"/></g>
<g><path style="opacity:1" fill="#b88872" d="M 75.5,81.5 C 76.8734,81.3433 78.2068,81.51 79.5,82C 76.9906,83.4213 74.6572,85.0879 72.5,87C 73.0944,87.4643 73.7611,87.631 74.5,87.5C 73.3915,88.29 72.0581,88.79 70.5,89C 69.9781,89.5613 69.6448,90.228 69.5,91C 71.3994,95.6568 72.7328,100.49 73.5,105.5C 73.2096,111.561 73.5429,117.561 74.5,123.5C 81.8608,127.654 87.5275,126.154 91.5,119C 95.1795,111.818 97.8462,104.318 99.5,96.5C 94.5,96.5 89.5,96.5 84.5,96.5C 83.209,96.7373 82.209,96.404 81.5,95.5C 87.7291,96.0223 93.7291,95.3556 99.5,93.5C 100.442,93.6082 101.275,93.9415 102,94.5C 102.667,97.8333 102.667,101.167 102,104.5C 97.6532,111.866 93.3199,119.199 89,126.5C 89.4056,130.662 89.2389,134.662 88.5,138.5C 88.6567,137.127 88.49,135.793 88,134.5C 87.6174,135.056 87.1174,135.389 86.5,135.5C 86.8897,132.534 86.223,129.868 84.5,127.5C 81.9433,127.218 79.2766,127.051 76.5,127C 75.4214,126.044 74.2547,125.211 73,124.5C 72.6667,118.167 72.3333,111.833 72,105.5C 70.4183,102.19 69.2516,98.8568 68.5,95.5C 66.8821,91.8979 67.2154,88.5645 69.5,85.5C 71.8525,84.6597 73.8525,83.3264 75.5,81.5 Z"/></g>
<g><path style="opacity:1" fill="#a67568" d="M 3.5,81.5 C 3.55688,82.609 3.89022,83.609 4.5,84.5C 4.99616,90.8254 3.82949,91.1587 1,85.5C -0.467997,89.9183 1.032,92.2517 5.5,92.5C 5.5,92.8333 5.5,93.1667 5.5,93.5C 5.5152,96.8791 6.5152,99.8791 8.5,102.5C 7.41683,102.461 6.41683,102.127 5.5,101.5C 4.83333,99.8333 4.16667,98.1667 3.5,96.5C 2.47283,97.7914 1.47283,97.7914 0.5,96.5C 0.67158,95.5084 0.338246,94.8417 -0.5,94.5C -0.5,90.5 -0.5,86.5 -0.5,82.5C 0.95875,82.5674 2.29208,82.2341 3.5,81.5 Z"/></g>
<g><path style="opacity:1" fill="#3b333e" d="M 107.5,42.5 C 109.196,42.6854 110.529,43.5187 111.5,45C 109.814,50.9972 108.814,57.1638 108.5,63.5C 108.667,64.8333 108.833,66.1667 109,67.5C 109.383,68.056 109.883,68.3893 110.5,68.5C 110.5,69.1667 110.833,69.5 111.5,69.5C 111.334,76.5079 111.5,83.5079 112,90.5C 112.423,91.9561 113.256,92.4561 114.5,92C 115.926,89.9546 116.926,87.7879 117.5,85.5C 117.662,87.5273 117.495,89.5273 117,91.5C 113.947,94.1189 113.78,96.9523 116.5,100C 113.092,109.074 110.092,118.241 107.5,127.5C 107.495,131.534 107.162,135.534 106.5,139.5C 105.662,139.842 105.328,140.508 105.5,141.5C 104.9,135.525 103.9,129.525 102.5,123.5C 105.728,116.315 108.061,108.815 109.5,101C 109.053,89.7334 108.053,78.5667 106.5,67.5C 107.289,59.1843 107.622,50.851 107.5,42.5 Z"/></g>
<g><path style="opacity:1" fill="#c0927c" d="M 42.5,69.5 C 42.5,69.1667 42.5,68.8333 42.5,68.5C 47.3508,70.8118 52.5175,72.4785 58,73.5C 60.3804,72.7993 62.5471,71.6326 64.5,70C 68.1135,69.0642 71.7802,68.5642 75.5,68.5C 75.5,68.8333 75.5,69.1667 75.5,69.5C 70.1746,69.5056 65.8412,71.5056 62.5,75.5C 60.3208,87.6397 59.9875,99.973 61.5,112.5C 58.5818,114.693 55.2485,115.693 51.5,115.5C 48.351,113.771 46.0176,114.605 44.5,118C 44.6387,119.301 45.3054,120.134 46.5,120.5C 48.7426,121.132 50.4093,122.466 51.5,124.5C 45.1809,126.167 42.1809,123.834 42.5,117.5C 43.2866,108.144 45.2866,99.1439 48.5,90.5C 48.8693,88.0065 48.2027,87.3398 46.5,88.5C 46.5,87.5 46.5,86.5 46.5,85.5C 48.7925,85.7564 50.9592,85.4231 53,84.5C 53.6667,81.5 53.6667,78.5 53,75.5C 49.6854,73.6756 46.5187,71.6756 43.5,69.5C 43.1667,69.5 42.8333,69.5 42.5,69.5 Z"/></g>
<g><path style="opacity:1" fill="#d5b09b" d="M 56.5,78.5 C 57.4959,78.4142 58.3292,78.7476 59,79.5C 59.6667,90.5 59.6667,101.5 59,112.5C 55.3187,114.359 53.1521,113.192 52.5,109C 54.0627,98.8269 55.396,88.6603 56.5,78.5 Z"/></g>
<g><path style="opacity:1" fill="#b98c79" d="M 0.5,96.5 C 1.47283,97.7914 2.47283,97.7914 3.5,96.5C 4.16667,98.1667 4.83333,99.8333 5.5,101.5C 6.41683,102.127 7.41683,102.461 8.5,102.5C 9.85951,111.12 10.8595,119.787 11.5,128.5C 10.0735,126.852 9.24013,124.852 9,122.5C 8.2917,121.619 7.45837,120.953 6.5,120.5C 6.3287,117.203 6.99536,116.869 8.5,119.5C 8.83333,119 9.16667,118.5 9.5,118C 8.26188,115.455 6.92855,112.955 5.5,110.5C 4.51998,107.914 4.18665,105.247 4.5,102.5C 3.5,102.5 2.5,102.5 1.5,102.5C 1.48285,100.435 1.14952,98.4352 0.5,96.5 Z"/></g>
<g><path style="opacity:1" fill="#d9b9a3" d="M 27.5,98.5 C 30.9097,98.7819 34.243,99.4486 37.5,100.5C 38.1667,100.167 38.8333,99.8333 39.5,99.5C 42.3086,104.778 41.642,109.611 37.5,114C 34.6691,115.917 32.1691,115.417 30,112.5C 28.629,108.927 27.129,105.427 25.5,102C 26.8228,101.184 27.4894,100.017 27.5,98.5 Z"/></g>
<g><path style="opacity:1" fill="#cba894" d="M -0.5,94.5 C 0.338246,94.8417 0.67158,95.5084 0.5,96.5C 1.14952,98.4352 1.48285,100.435 1.5,102.5C 2.5,102.5 3.5,102.5 4.5,102.5C 4.18665,105.247 4.51998,107.914 5.5,110.5C 6.92855,112.955 8.26188,115.455 9.5,118C 9.16667,118.5 8.83333,119 8.5,119.5C 6.99536,116.869 6.3287,117.203 6.5,120.5C 4.04084,115.512 1.70751,110.512 -0.5,105.5C -0.5,101.833 -0.5,98.1667 -0.5,94.5 Z"/></g>
<g><path style="opacity:1" fill="#a77865" d="M 77.5,85.5 C 77.56,84.9569 77.8933,84.6236 78.5,84.5C 79.2811,85.7287 79.7811,87.062 80,88.5C 80.6708,89.2524 81.5041,89.5858 82.5,89.5C 82.9175,90.2216 83.5842,90.7216 84.5,91C 83.0506,92.117 81.3839,92.7837 79.5,93C 79.8333,93.3333 80.1667,93.6667 80.5,94C 85.5,94.6667 90.5,94.6667 95.5,94C 98.423,90.7083 101.256,90.875 104,94.5C 104.499,98.8206 104.666,103.154 104.5,107.5C 101.389,110.001 99.7228,113.334 99.5,117.5C 97.5823,121.004 95.4157,124.337 93,127.5C 92.7401,131.25 92.0734,134.916 91,138.5C 88.8665,140.803 87.3665,143.469 86.5,146.5C 83.407,148.034 80.7403,150.034 78.5,152.5C 79.1618,148.162 81.6618,145.495 86,144.5C 86.6552,142.372 87.4886,140.372 88.5,138.5C 89.2389,134.662 89.4056,130.662 89,126.5C 93.3199,119.199 97.6532,111.866 102,104.5C 102.667,101.167 102.667,97.8333 102,94.5C 101.275,93.9415 100.442,93.6082 99.5,93.5C 93.7291,95.3556 87.7291,96.0223 81.5,95.5C 78.9281,94.719 76.9281,93.219 75.5,91C 76.7827,89.8643 77.7827,88.531 78.5,87C 78.4301,86.2352 78.0967,85.7352 77.5,85.5 Z"/></g>
<g><path style="opacity:1" fill="#a57765" d="M 29.5,87.5 C 31.3792,88.3414 33.3792,88.6747 35.5,88.5C 35.5,89.5 35.5,90.5 35.5,91.5C 36.675,91.281 37.675,91.6143 38.5,92.5C 32.8285,95.4995 27.4951,94.9995 22.5,91C 12.9741,89.1472 9.80743,92.9805 13,102.5C 16.361,106.933 18.361,111.933 19,117.5C 19.9432,120.4 21.6099,122.733 24,124.5C 25.4413,131.806 27.6079,138.806 30.5,145.5C 28.8712,144.375 27.3712,143.041 26,141.5C 24.2497,135.413 22.2497,129.413 20,123.5C 18.4339,120.248 16.6006,117.248 14.5,114.5C 11.2806,105.499 10.1139,96.1655 11,86.5C 11.6667,85.8333 12.3333,85.1667 13,84.5C 17.6603,89.7498 23.1603,90.7498 29.5,87.5 Z"/></g>
<g><path style="opacity:1" fill="#8b635c" d="M 119.5,100.5 C 119.5,108.167 119.5,115.833 119.5,123.5C 117.784,123.629 116.117,123.962 114.5,124.5C 114.804,123.85 115.137,123.183 115.5,122.5C 114.063,120.979 113.396,119.145 113.5,117C 114.848,112.595 115.681,108.095 116,103.5C 117.039,102.29 118.206,101.29 119.5,100.5 Z"/></g>
<g><path style="opacity:1" fill="#7b5952" d="M 8.5,77.5 C 8.83333,77.5 9.16667,77.5 9.5,77.5C 9.33362,85.5069 9.50029,93.5069 10,101.5C 10.4497,106.352 11.9497,110.685 14.5,114.5C 14.9787,123.174 15.312,131.841 15.5,140.5C 14.4149,136.632 13.0816,132.965 11.5,129.5C 11.5,129.167 11.5,128.833 11.5,128.5C 10.8595,119.787 9.85951,111.12 8.5,102.5C 6.5152,99.8791 5.5152,96.8791 5.5,93.5C 6.2323,94.8083 7.06564,96.1416 8,97.5C 8.49958,90.8417 8.66625,84.175 8.5,77.5 Z"/></g>
<g><path style="opacity:1" fill="#c6977e" d="M 84.5,96.5 C 89.5,96.5 94.5,96.5 99.5,96.5C 97.8462,104.318 95.1795,111.818 91.5,119C 87.5275,126.154 81.8608,127.654 74.5,123.5C 73.5429,117.561 73.2096,111.561 73.5,105.5C 74.4511,106.919 74.7845,108.585 74.5,110.5C 75.5,110.5 76.5,110.5 77.5,110.5C 79.2617,113.86 80.9284,117.36 82.5,121C 83.9437,121.781 85.277,121.614 86.5,120.5C 89.4683,115.449 91.9683,110.116 94,104.5C 94.6667,102.833 94.6667,101.167 94,99.5C 91.2595,98.7178 88.4262,98.2178 85.5,98C 84.944,97.6174 84.6107,97.1174 84.5,96.5 Z"/></g>
<g><path style="opacity:1" fill="#b9ae9f" d="M -0.5,105.5 C 1.70751,110.512 4.04084,115.512 6.5,120.5C 7.45837,120.953 8.2917,121.619 9,122.5C 9.24013,124.852 10.0735,126.852 11.5,128.5C 11.5,128.833 11.5,129.167 11.5,129.5C 11.5,130.167 11.5,130.833 11.5,131.5C 10.8347,133.698 10.1681,136.031 9.5,138.5C 8.83333,138.167 8.16667,137.833 7.5,137.5C 5.26178,132.887 3.09511,128.221 1,123.5C 0.50204,126.482 0.335374,129.482 0.5,132.5C 0.166667,132.5 -0.166667,132.5 -0.5,132.5C -0.5,123.5 -0.5,114.5 -0.5,105.5 Z"/></g>
<g><path style="opacity:1" fill="#614444" d="M 51.5,115.5 C 55.2697,119.545 58.9363,119.378 62.5,115C 67.1073,114.13 69.7739,115.963 70.5,120.5C 70.4257,122.411 69.4257,123.578 67.5,124C 63.1287,124.828 58.7953,124.661 54.5,123.5C 52.5745,120.828 49.9079,119.828 46.5,120.5C 45.3054,120.134 44.6387,119.301 44.5,118C 46.0176,114.605 48.351,113.771 51.5,115.5 Z"/></g>
<g><path style="opacity:1" fill="#41313a" d="M 62.5,116.5 C 65.3699,116.248 67.7033,117.248 69.5,119.5C 65.3673,121.555 61.034,122.888 56.5,123.5C 56.5,122.5 56.5,121.5 56.5,120.5C 59.5221,120.658 61.5221,119.325 62.5,116.5 Z"/></g>
<g><path style="opacity:1" fill="#caa189" d="M 48.5,90.5 C 45.2866,99.1439 43.2866,108.144 42.5,117.5C 42.1809,123.834 45.1809,126.167 51.5,124.5C 54.9275,127.231 58.9275,128.231 63.5,127.5C 63.719,128.675 63.3857,129.675 62.5,130.5C 59.7239,132.13 56.7239,132.797 53.5,132.5C 49.5,131.833 45.5,131.167 41.5,130.5C 41.6495,129.448 41.4828,128.448 41,127.5C 39.5,126.667 38.3333,125.5 37.5,124C 33.4574,123.887 29.7907,122.721 26.5,120.5C 24.9137,118.827 24.2471,116.827 24.5,114.5C 26.475,117.306 28.975,119.639 32,121.5C 32.7247,120.941 33.5581,120.608 34.5,120.5C 36.8564,121.543 39.1897,122.543 41.5,123.5C 41.4465,115.135 41.9465,106.802 43,98.5C 44.6494,95.607 46.4828,92.9403 48.5,90.5 Z"/></g>
<g><path style="opacity:1" fill="#bd8f76" d="M 35.5,88.5 C 36.1667,88.5 36.8333,88.5 37.5,88.5C 38.8333,88.5 40.1667,88.5 41.5,88.5C 42.7387,89.212 43.2387,90.212 43,91.5C 41.4207,93.0412 39.5873,94.2078 37.5,95C 32.8333,95.6667 28.1667,95.6667 23.5,95C 21.3136,93.691 19.1469,93.5243 17,94.5C 17.017,102.183 19.517,108.85 24.5,114.5C 24.2471,116.827 24.9137,118.827 26.5,120.5C 29.7907,122.721 33.4574,123.887 37.5,124C 38.3333,125.5 39.5,126.667 41,127.5C 41.4828,128.448 41.6495,129.448 41.5,130.5C 38.6114,129.992 35.7781,129.325 33,128.5C 32.5,129.5 32,130.5 31.5,131.5C 32.4415,131.489 33.1081,131.989 33.5,133C 33.0946,133.945 32.428,134.612 31.5,135C 34.1724,135.834 36.839,136.668 39.5,137.5C 41.4971,140.16 43.1638,142.994 44.5,146C 47.4177,147.15 50.4177,147.983 53.5,148.5C 60.3134,149.491 67.3134,149.825 74.5,149.5C 75.0967,155.466 73.0967,160.299 68.5,164C 64.7836,165.093 60.9503,165.593 57,165.5C 53.6482,165.498 50.4815,165.165 47.5,164.5C 53.5092,164.666 59.5092,164.499 65.5,164C 66.5786,163.044 67.7453,162.211 69,161.5C 69.2453,159.337 70.2453,157.67 72,156.5C 72.6514,154.765 72.4847,153.098 71.5,151.5C 61.9059,150.882 52.4059,149.882 43,148.5C 41.6369,149.893 40.8036,151.559 40.5,153.5C 41.7976,156.422 42.7976,159.422 43.5,162.5C 41.5393,161.54 39.8726,160.207 38.5,158.5C 37.113,155.947 35.2797,153.614 33,151.5C 31.878,149.593 31.0447,147.593 30.5,145.5C 27.6079,138.806 25.4413,131.806 24,124.5C 21.6099,122.733 19.9432,120.4 19,117.5C 18.361,111.933 16.361,106.933 13,102.5C 9.80743,92.9805 12.9741,89.1472 22.5,91C 27.4951,94.9995 32.8285,95.4995 38.5,92.5C 37.675,91.6143 36.675,91.281 35.5,91.5C 35.5,90.5 35.5,89.5 35.5,88.5 Z"/></g>
<g><path style="opacity:1" fill="#a47867" d="M 68.5,95.5 C 69.2516,98.8568 70.4183,102.19 72,105.5C 72.3333,111.833 72.6667,118.167 73,124.5C 74.2547,125.211 75.4214,126.044 76.5,127C 79.2766,127.051 81.9433,127.218 84.5,127.5C 86.223,129.868 86.8897,132.534 86.5,135.5C 83.6085,136.403 80.6085,136.736 77.5,136.5C 77.1667,136.5 76.8333,136.5 76.5,136.5C 77.7175,135.839 79.0508,135.172 80.5,134.5C 80.0431,133.702 79.3764,133.369 78.5,133.5C 78.5,132.5 78.5,131.5 78.5,130.5C 64.2538,132.323 50.2538,133.99 36.5,135.5C 34.8958,134.713 34.2291,133.38 34.5,131.5C 40.8097,132.19 47.143,132.524 53.5,132.5C 56.7239,132.797 59.7239,132.13 62.5,130.5C 63.3857,129.675 63.719,128.675 63.5,127.5C 58.9275,128.231 54.9275,127.231 51.5,124.5C 50.4093,122.466 48.7426,121.132 46.5,120.5C 49.9079,119.828 52.5745,120.828 54.5,123.5C 58.7953,124.661 63.1287,124.828 67.5,124C 69.4257,123.578 70.4257,122.411 70.5,120.5C 71.1599,119.036 71.4932,117.369 71.5,115.5C 70.6978,108.697 69.6978,102.031 68.5,95.5 Z"/></g>
<g><path style="opacity:1" fill="#c0bcb8" d="M 119.5,123.5 C 119.5,125.5 119.5,127.5 119.5,129.5C 116.09,129.384 114.756,131.05 115.5,134.5C 113.139,134.326 110.806,133.993 108.5,133.5C 108.5,131.5 108.5,129.5 108.5,127.5C 111.089,127.539 113.089,126.539 114.5,124.5C 116.117,123.962 117.784,123.629 119.5,123.5 Z"/></g>
<g><path style="opacity:1" fill="#604746" d="M 100.5,121.5 C 99.9886,124.028 99.3219,126.528 98.5,129C 98.499,132.043 99.3324,132.21 101,129.5C 102.679,135.963 102.179,142.296 99.5,148.5C 98.9916,153.345 96.325,156.345 91.5,157.5C 90.4502,154.231 90.7835,151.064 92.5,148C 91.8333,147.333 91.1667,147.333 90.5,148C 87.8742,152.084 85.3742,156.25 83,160.5C 80.5524,161.973 78.0524,163.307 75.5,164.5C 76.192,160.632 78.5253,158.299 82.5,157.5C 89.5391,147.09 94.8724,135.756 98.5,123.5C 99.1818,122.757 99.8485,122.091 100.5,121.5 Z"/></g>
<g><path style="opacity:1" fill="#8b6458" d="M 14.5,114.5 C 16.6006,117.248 18.4339,120.248 20,123.5C 22.2497,129.413 24.2497,135.413 26,141.5C 27.3712,143.041 28.8712,144.375 30.5,145.5C 31.0447,147.593 31.878,149.593 33,151.5C 35.2797,153.614 37.113,155.947 38.5,158.5C 38.6287,160.216 38.962,161.883 39.5,163.5C 38.5,162.833 37.5,162.167 36.5,161.5C 35.3548,159.288 34.3548,156.955 33.5,154.5C 30.1116,151.403 27.4449,147.736 25.5,143.5C 24.675,142.614 23.675,142.281 22.5,142.5C 22.8224,146.439 21.489,147.272 18.5,145C 17.9152,143.698 17.2485,142.531 16.5,141.5C 15.8333,141.5 15.5,141.167 15.5,140.5C 15.312,131.841 14.9787,123.174 14.5,114.5 Z"/></g>
<g><path style="opacity:1" fill="#3b394b" d="M -0.5,132.5 C -0.166667,132.5 0.166667,132.5 0.5,132.5C 1.43448,133.568 1.76781,134.901 1.5,136.5C 0.833333,136.167 0.166667,135.833 -0.5,135.5C -0.5,134.5 -0.5,133.5 -0.5,132.5 Z"/></g>
<g><path style="opacity:1" fill="#4c3139" d="M 78.5,133.5 C 79.3764,133.369 80.0431,133.702 80.5,134.5C 79.0508,135.172 77.7175,135.839 76.5,136.5C 76.1667,136.5 75.8333,136.5 75.5,136.5C 73.1667,136.5 70.8333,136.5 68.5,136.5C 68.9528,135.542 69.6195,134.708 70.5,134C 73.146,133.503 75.8127,133.336 78.5,133.5 Z"/></g>
<g><path style="opacity:1" fill="#7c4d48" d="M 78.5,133.5 C 75.8127,133.336 73.146,133.503 70.5,134C 69.6195,134.708 68.9528,135.542 68.5,136.5C 67.5,136.5 66.5,136.5 65.5,136.5C 55.8443,135.908 46.1776,135.575 36.5,135.5C 50.2538,133.99 64.2538,132.323 78.5,130.5C 78.5,131.5 78.5,132.5 78.5,133.5 Z"/></g>
<g><path style="opacity:1" fill="#a39e9b" d="M 107.5,127.5 C 107.833,127.5 108.167,127.5 108.5,127.5C 108.5,129.5 108.5,131.5 108.5,133.5C 110.806,133.993 113.139,134.326 115.5,134.5C 114.756,131.05 116.09,129.384 119.5,129.5C 119.5,129.833 119.5,130.167 119.5,130.5C 118.85,130.804 118.183,131.137 117.5,131.5C 116.978,135.035 115.978,138.368 114.5,141.5C 112.56,142.528 110.56,142.528 108.5,141.5C 107.287,141.253 106.62,140.586 106.5,139.5C 107.162,135.534 107.495,131.534 107.5,127.5 Z"/></g>
<g><path style="opacity:1" fill="#574c4e" d="M 11.5,129.5 C 13.0816,132.965 14.4149,136.632 15.5,140.5C 15.5,141.167 15.8333,141.5 16.5,141.5C 16.5,143.833 16.5,146.167 16.5,148.5C 14.4561,149.508 12.4561,150.508 10.5,151.5C 9.32855,152.345 7.99522,153.011 6.5,153.5C 3.28448,152.831 2.95114,151.831 5.5,150.5C 8.19853,150.534 10.6985,149.867 13,148.5C 13.5598,142.711 13.0598,137.044 11.5,131.5C 11.5,130.833 11.5,130.167 11.5,129.5 Z"/></g>
<g><path style="opacity:1" fill="#7f5d54" d="M 104.5,107.5 C 104.663,109.857 104.497,112.19 104,114.5C 102.807,116.886 101.64,119.22 100.5,121.5C 99.8485,122.091 99.1818,122.757 98.5,123.5C 94.8724,135.756 89.5391,147.09 82.5,157.5C 78.5253,158.299 76.192,160.632 75.5,164.5C 73.6508,165.593 71.9842,166.926 70.5,168.5C 70.5,168.833 70.5,169.167 70.5,169.5C 63.1948,170.517 55.8615,170.683 48.5,170C 45.0628,168.782 41.7295,167.282 38.5,165.5C 37.3995,164.395 36.7329,163.062 36.5,161.5C 37.5,162.167 38.5,162.833 39.5,163.5C 41.1958,163.685 42.5291,164.519 43.5,166C 51.5,166.667 59.5,166.667 67.5,166C 74.1422,163.863 77.8088,159.363 78.5,152.5C 80.7403,150.034 83.407,148.034 86.5,146.5C 87.3665,143.469 88.8665,140.803 91,138.5C 92.0734,134.916 92.7401,131.25 93,127.5C 95.4157,124.337 97.5823,121.004 99.5,117.5C 99.7228,113.334 101.389,110.001 104.5,107.5 Z"/></g>
<g><path style="opacity:1" fill="#b48871" d="M 88.5,138.5 C 87.4886,140.372 86.6552,142.372 86,144.5C 81.6618,145.495 79.1618,148.162 78.5,152.5C 77.8088,159.363 74.1422,163.863 67.5,166C 59.5,166.667 51.5,166.667 43.5,166C 42.5291,164.519 41.1958,163.685 39.5,163.5C 38.962,161.883 38.6287,160.216 38.5,158.5C 39.8726,160.207 41.5393,161.54 43.5,162.5C 45.153,162.66 46.4863,163.326 47.5,164.5C 50.4815,165.165 53.6482,165.498 57,165.5C 60.9503,165.593 64.7836,165.093 68.5,164C 73.0967,160.299 75.0967,155.466 74.5,149.5C 67.3134,149.825 60.3134,149.491 53.5,148.5C 60.5736,148.839 67.5736,148.339 74.5,147C 76.6548,143.888 77.6548,140.388 77.5,136.5C 80.6085,136.736 83.6085,136.403 86.5,135.5C 87.1174,135.389 87.6174,135.056 88,134.5C 88.49,135.793 88.6567,137.127 88.5,138.5 Z"/></g>
<g><path style="opacity:1" fill="#ae9e8f" d="M 11.5,131.5 C 13.0598,137.044 13.5598,142.711 13,148.5C 10.6985,149.867 8.19853,150.534 5.5,150.5C 4.5,150.5 3.5,150.5 2.5,150.5C 2.71664,145.77 2.38331,141.103 1.5,136.5C 1.76781,134.901 1.43448,133.568 0.5,132.5C 0.335374,129.482 0.50204,126.482 1,123.5C 3.09511,128.221 5.26178,132.887 7.5,137.5C 8.16667,137.833 8.83333,138.167 9.5,138.5C 10.1681,136.031 10.8347,133.698 11.5,131.5 Z"/></g>
<g><path style="opacity:1" fill="#807b79" d="M 119.5,130.5 C 119.5,131.167 119.5,131.833 119.5,132.5C 118.205,136.267 117.539,140.267 117.5,144.5C 116.305,144.678 115.138,145.011 114,145.5C 111.209,144.594 108.376,143.927 105.5,143.5C 105.5,142.833 105.5,142.167 105.5,141.5C 105.328,140.508 105.662,139.842 106.5,139.5C 106.62,140.586 107.287,141.253 108.5,141.5C 110.56,142.528 112.56,142.528 114.5,141.5C 115.978,138.368 116.978,135.035 117.5,131.5C 118.183,131.137 118.85,130.804 119.5,130.5 Z"/></g>
<g><path style="opacity:1" fill="#b68672" d="M 41.5,130.5 C 45.5,131.167 49.5,131.833 53.5,132.5C 47.143,132.524 40.8097,132.19 34.5,131.5C 34.2291,133.38 34.8958,134.713 36.5,135.5C 46.1776,135.575 55.8443,135.908 65.5,136.5C 67.4554,137.447 67.7887,138.781 66.5,140.5C 60.939,141.961 55.2724,142.794 49.5,143C 51.7335,145.343 54.4002,146.843 57.5,147.5C 63.18,147.198 68.5134,145.698 73.5,143C 75.0163,141.103 75.683,138.936 75.5,136.5C 75.8333,136.5 76.1667,136.5 76.5,136.5C 76.8333,136.5 77.1667,136.5 77.5,136.5C 77.6548,140.388 76.6548,143.888 74.5,147C 67.5736,148.339 60.5736,148.839 53.5,148.5C 50.4177,147.983 47.4177,147.15 44.5,146C 43.1638,142.994 41.4971,140.16 39.5,137.5C 36.839,136.668 34.1724,135.834 31.5,135C 32.428,134.612 33.0946,133.945 33.5,133C 33.1081,131.989 32.4415,131.489 31.5,131.5C 32,130.5 32.5,129.5 33,128.5C 35.7781,129.325 38.6114,129.992 41.5,130.5 Z"/></g>
<g><path style="opacity:1" fill="#a17260" d="M 65.5,136.5 C 66.5,136.5 67.5,136.5 68.5,136.5C 70.8333,136.5 73.1667,136.5 75.5,136.5C 75.683,138.936 75.0163,141.103 73.5,143C 68.5134,145.698 63.18,147.198 57.5,147.5C 54.4002,146.843 51.7335,145.343 49.5,143C 55.2724,142.794 60.939,141.961 66.5,140.5C 67.7887,138.781 67.4554,137.447 65.5,136.5 Z"/></g>
<g><path style="opacity:1" fill="#7c5b52" d="M 16.5,141.5 C 17.2485,142.531 17.9152,143.698 18.5,145C 21.489,147.272 22.8224,146.439 22.5,142.5C 23.675,142.281 24.675,142.614 25.5,143.5C 27.4449,147.736 30.1116,151.403 33.5,154.5C 34.3548,156.955 35.3548,159.288 36.5,161.5C 30.9996,158.584 25.3329,155.918 19.5,153.5C 18.7368,151.632 17.7368,149.965 16.5,148.5C 16.5,146.167 16.5,143.833 16.5,141.5 Z"/></g>
<g><path style="opacity:1" fill="#c79d84" d="M 47.5,164.5 C 46.4863,163.326 45.153,162.66 43.5,162.5C 42.7976,159.422 41.7976,156.422 40.5,153.5C 40.8036,151.559 41.6369,149.893 43,148.5C 52.4059,149.882 61.9059,150.882 71.5,151.5C 72.4847,153.098 72.6514,154.765 72,156.5C 70.2453,157.67 69.2453,159.337 69,161.5C 67.7453,162.211 66.5786,163.044 65.5,164C 59.5092,164.499 53.5092,164.666 47.5,164.5 Z"/></g>
<g><path style="opacity:1" fill="#af9383" d="M 119.5,132.5 C 119.5,140.833 119.5,149.167 119.5,157.5C 119.167,157.5 118.833,157.5 118.5,157.5C 117.203,154.179 115.536,151.012 113.5,148C 115.544,147.502 116.878,146.335 117.5,144.5C 117.539,140.267 118.205,136.267 119.5,132.5 Z"/></g>
<g><path style="opacity:1" fill="#a7a39f" d="M 105.5,143.5 C 108.376,143.927 111.209,144.594 114,145.5C 115.138,145.011 116.305,144.678 117.5,144.5C 116.878,146.335 115.544,147.502 113.5,148C 115.536,151.012 117.203,154.179 118.5,157.5C 114.167,157.5 109.833,157.5 105.5,157.5C 104.519,155.511 103.519,153.511 102.5,151.5C 103.507,148.81 104.507,146.144 105.5,143.5 Z"/></g>
<g><path style="opacity:1" fill="#4b3e44" d="M 102.5,123.5 C 103.9,129.525 104.9,135.525 105.5,141.5C 105.5,142.167 105.5,142.833 105.5,143.5C 104.507,146.144 103.507,148.81 102.5,151.5C 103.519,153.511 104.519,155.511 105.5,157.5C 103.167,157.5 100.833,157.5 98.5,157.5C 98.5654,157.062 98.3988,156.728 98,156.5C 90.2243,160.531 82.391,164.365 74.5,168C 73.2068,168.49 71.8734,168.657 70.5,168.5C 71.9842,166.926 73.6508,165.593 75.5,164.5C 78.0524,163.307 80.5524,161.973 83,160.5C 85.3742,156.25 87.8742,152.084 90.5,148C 91.1667,147.333 91.8333,147.333 92.5,148C 90.7835,151.064 90.4502,154.231 91.5,157.5C 96.325,156.345 98.9916,153.345 99.5,148.5C 101.694,146.779 102.861,144.445 103,141.5C 104.018,136.138 103.185,131.138 100.5,126.5C 100.942,125.261 101.609,124.261 102.5,123.5 Z"/></g>
<g><path style="opacity:1" fill="#97857d" d="M -0.5,135.5 C 0.166667,135.833 0.833333,136.167 1.5,136.5C 2.38331,141.103 2.71664,145.77 2.5,150.5C 3.5,150.5 4.5,150.5 5.5,150.5C 2.95114,151.831 3.28448,152.831 6.5,153.5C 7.15339,154.807 7.82006,156.14 8.5,157.5C 7.38809,158.265 6.72142,159.265 6.5,160.5C 5.84851,159.909 5.18185,159.243 4.5,158.5C 3.52577,160.743 3.19244,163.076 3.5,165.5C 2.16667,165.5 0.833333,165.5 -0.5,165.5C -0.5,165.167 -0.5,164.833 -0.5,164.5C 0.5,164.5 1.5,164.5 2.5,164.5C 2.5,162.167 2.5,159.833 2.5,157.5C 1.5,157.5 0.5,157.5 -0.5,157.5C -0.5,150.167 -0.5,142.833 -0.5,135.5 Z"/></g>
<g><path style="opacity:1" fill="#7a7372" d="M 10.5,151.5 C 12.1667,151.5 13.8333,151.5 15.5,151.5C 15.5,153.167 15.5,154.833 15.5,156.5C 13.3944,156.679 11.7277,157.679 10.5,159.5C 14.3354,160.996 14.3354,161.996 10.5,162.5C 10.5,163.5 10.5,164.5 10.5,165.5C 13.3854,165.194 16.0521,165.527 18.5,166.5C 15.2869,166.81 12.2869,166.477 9.5,165.5C 9.75934,163.011 8.75934,161.344 6.5,160.5C 6.72142,159.265 7.38809,158.265 8.5,157.5C 7.82006,156.14 7.15339,154.807 6.5,153.5C 7.99522,153.011 9.32855,152.345 10.5,151.5 Z"/></g>
<g><path style="opacity:1" fill="#5e4a49" d="M 19.5,153.5 C 25.3329,155.918 30.9996,158.584 36.5,161.5C 36.7329,163.062 37.3995,164.395 38.5,165.5C 35.6872,165.452 33.0205,164.785 30.5,163.5C 28.9699,160.813 26.8032,158.813 24,157.5C 23.5304,158.577 23.6971,159.577 24.5,160.5C 22.9724,161.802 21.9724,163.469 21.5,165.5C 22.0095,161.187 21.3429,157.187 19.5,153.5 Z"/></g>
<g><path style="opacity:1" fill="#d1ad96" d="M 47.5,151.5 C 54.2022,151.336 60.8689,151.669 67.5,152.5C 68.8519,161.024 65.1852,164.358 56.5,162.5C 50.3216,164.07 46.3216,161.904 44.5,156C 45.3862,154.385 46.3862,152.885 47.5,151.5 Z"/></g>
<g><path style="opacity:1" fill="#252636" d="M 98.5,157.5 C 98.5,159.833 98.5,162.167 98.5,164.5C 97.5269,166.948 97.1936,169.615 97.5,172.5C 79.3605,176.568 61.0271,177.402 42.5,175C 39.6889,173.175 36.6889,171.842 33.5,171C 32.6634,169.989 32.33,168.822 32.5,167.5C 34.5273,167.338 36.5273,167.505 38.5,168C 39.7158,169.74 41.3825,170.74 43.5,171C 52.1667,171.667 60.8333,171.667 69.5,171C 70.056,170.617 70.3893,170.117 70.5,169.5C 70.5,169.167 70.5,168.833 70.5,168.5C 71.8734,168.657 73.2068,168.49 74.5,168C 82.391,164.365 90.2243,160.531 98,156.5C 98.3988,156.728 98.5654,157.062 98.5,157.5 Z"/></g>
<g><path style="opacity:1" fill="#393947" d="M -0.5,157.5 C 0.5,157.5 1.5,157.5 2.5,157.5C 2.5,159.833 2.5,162.167 2.5,164.5C 1.5,164.5 0.5,164.5 -0.5,164.5C -0.5,162.167 -0.5,159.833 -0.5,157.5 Z"/></g>
<g><path style="opacity:1" fill="#9fadb5" d="M 98.5,157.5 C 100.833,157.5 103.167,157.5 105.5,157.5C 109.833,157.5 114.167,157.5 118.5,157.5C 118.833,157.5 119.167,157.5 119.5,157.5C 119.5,159.833 119.5,162.167 119.5,164.5C 112.833,164.5 106.167,164.5 99.5,164.5C 99.5,170.167 99.5,175.833 99.5,181.5C 99.1667,181.5 98.8333,181.5 98.5,181.5C 98.5,175.833 98.5,170.167 98.5,164.5C 98.5,162.167 98.5,159.833 98.5,157.5 Z"/></g>
<g><path style="opacity:1" fill="#40404b" d="M 16.5,148.5 C 17.7368,149.965 18.7368,151.632 19.5,153.5C 21.3429,157.187 22.0095,161.187 21.5,165.5C 21.631,166.239 21.4643,166.906 21,167.5C 20.3292,166.748 19.4959,166.414 18.5,166.5C 16.0521,165.527 13.3854,165.194 10.5,165.5C 10.5,164.5 10.5,163.5 10.5,162.5C 14.3354,161.996 14.3354,160.996 10.5,159.5C 11.7277,157.679 13.3944,156.679 15.5,156.5C 15.5,154.833 15.5,153.167 15.5,151.5C 13.8333,151.5 12.1667,151.5 10.5,151.5C 12.4561,150.508 14.4561,149.508 16.5,148.5 Z"/></g>
<g><path style="opacity:1" fill="#a4a2a0" d="M 6.5,160.5 C 8.75934,161.344 9.75934,163.011 9.5,165.5C 7.5,165.5 5.5,165.5 3.5,165.5C 3.19244,163.076 3.52577,160.743 4.5,158.5C 5.18185,159.243 5.84851,159.909 6.5,160.5 Z"/></g>
<g><path style="opacity:1" fill="#cbd6d7" d="M 119.5,164.5 C 119.5,178.5 119.5,192.5 119.5,206.5C 117.284,205.797 115.451,204.464 114,202.5C 110.904,197.972 108.071,193.305 105.5,188.5C 103.374,186.146 101.374,183.813 99.5,181.5C 99.5,175.833 99.5,170.167 99.5,164.5C 106.167,164.5 112.833,164.5 119.5,164.5 Z"/></g>
<g><path style="opacity:1" fill="#ae9e8b" d="M -0.5,166.5 C -0.5,166.167 -0.5,165.833 -0.5,165.5C 0.833333,165.5 2.16667,165.5 3.5,165.5C 5.5,165.5 7.5,165.5 9.5,165.5C 12.2869,166.477 15.2869,166.81 18.5,166.5C 18.9731,167.906 19.9731,168.573 21.5,168.5C 21.5,172.5 21.5,176.5 21.5,180.5C 18.9173,181.985 17.584,184.318 17.5,187.5C 16.8333,187.5 16.5,187.833 16.5,188.5C 13.5482,190.785 10.8815,193.452 8.5,196.5C 8.39632,187.73 8.39632,179.23 8.5,171C 7.11339,168.196 4.78005,166.696 1.5,166.5C 0.833333,166.5 0.166667,166.5 -0.5,166.5 Z"/></g>
<g><path style="opacity:1" fill="#b6a693" d="M 1.5,166.5 C 4.78005,166.696 7.11339,168.196 8.5,171C 8.39632,179.23 8.39632,187.73 8.5,196.5C 7.14856,200.542 4.81523,203.875 1.5,206.5C 1.5,193.167 1.5,179.833 1.5,166.5 Z"/></g>
<g><path style="opacity:1" fill="#3e343c" d="M 38.5,165.5 C 41.7295,167.282 45.0628,168.782 48.5,170C 55.8615,170.683 63.1948,170.517 70.5,169.5C 70.3893,170.117 70.056,170.617 69.5,171C 60.8333,171.667 52.1667,171.667 43.5,171C 41.3825,170.74 39.7158,169.74 38.5,168C 36.5273,167.505 34.5273,167.338 32.5,167.5C 32.33,168.822 32.6634,169.989 33.5,171C 36.6889,171.842 39.6889,173.175 42.5,175C 61.0271,177.402 79.3605,176.568 97.5,172.5C 97.5,174.5 97.5,176.5 97.5,178.5C 91.7634,176.614 86.5968,177.614 82,181.5C 80.5659,181.07 79.3992,180.236 78.5,179C 74.5138,178.501 70.5138,178.334 66.5,178.5C 57.9904,177.61 49.3237,177.444 40.5,178C 38.1432,175.153 35.1432,173.32 31.5,172.5C 29.6713,168.172 27.338,164.172 24.5,160.5C 23.6971,159.577 23.5304,158.577 24,157.5C 26.8032,158.813 28.9699,160.813 30.5,163.5C 33.0205,164.785 35.6872,165.452 38.5,165.5 Z"/></g>
<g><path style="opacity:1" fill="#664b49" d="M 31.5,172.5 C 35.1432,173.32 38.1432,175.153 40.5,178C 49.3237,177.444 57.9904,177.61 66.5,178.5C 61.4889,178.334 56.4889,178.501 51.5,179C 47.1318,181.968 42.4651,182.301 37.5,180C 36.6634,178.989 36.33,177.822 36.5,176.5C 33.6333,176.631 31.9666,175.297 31.5,172.5 Z"/></g>
<g><path style="opacity:1" fill="#5a4446" d="M 98.5,164.5 C 98.5,170.167 98.5,175.833 98.5,181.5C 98.5,184.5 98.5,187.5 98.5,190.5C 98.1667,191.833 97.8333,193.167 97.5,194.5C 96.8959,190.339 95.8959,186.173 94.5,182C 93.1279,181.598 91.7946,181.098 90.5,180.5C 89.2054,181.098 87.8721,181.598 86.5,182C 83.3977,190.156 79.731,190.49 75.5,183C 71.6749,182.978 68.6749,181.478 66.5,178.5C 70.5138,178.334 74.5138,178.501 78.5,179C 79.3992,180.236 80.5659,181.07 82,181.5C 86.5968,177.614 91.7634,176.614 97.5,178.5C 97.5,176.5 97.5,174.5 97.5,172.5C 97.1936,169.615 97.5269,166.948 98.5,164.5 Z"/></g>
<g><path style="opacity:1" fill="#a57967" d="M 30.5,177.5 C 33.5061,181.173 36.8394,184.506 40.5,187.5C 42.8808,185.608 45.5475,185.108 48.5,186C 51.0722,189.392 53.7389,192.559 56.5,195.5C 54.4176,195.528 52.5843,194.861 51,193.5C 50.6322,194.91 49.7989,195.91 48.5,196.5C 47.3861,197.723 47.2195,199.056 48,200.5C 48.9973,202.323 50.1639,203.99 51.5,205.5C 48.1617,204.577 45.6617,202.577 44,199.5C 43.3333,203.167 43.3333,206.833 44,210.5C 45.9269,211.762 45.7602,212.762 43.5,213.5C 42.5313,212.691 41.6979,211.691 41,210.5C 41.3402,202.689 39.1736,195.689 34.5,189.5C 32.3561,188.047 30.5227,188.38 29,190.5C 28.9326,193.047 28.0993,195.214 26.5,197C 27.2598,198.441 27.9264,199.941 28.5,201.5C 28.3764,202.107 28.0431,202.44 27.5,202.5C 26.396,200.611 25.0627,198.945 23.5,197.5C 23.1075,195.716 22.4408,194.05 21.5,192.5C 21.5,188.5 21.5,184.5 21.5,180.5C 21.5,176.5 21.5,172.5 21.5,168.5C 23.6868,164.188 24.8534,164.521 25,169.5C 25.3333,169.167 25.6667,168.833 26,168.5C 28.0338,171.234 29.5338,174.234 30.5,177.5 Z"/></g>
<g><path style="opacity:1" fill="#785750" d="M 24.5,160.5 C 27.338,164.172 29.6713,168.172 31.5,172.5C 31.9666,175.297 33.6333,176.631 36.5,176.5C 36.33,177.822 36.6634,178.989 37.5,180C 42.4651,182.301 47.1318,181.968 51.5,179C 56.4889,178.501 61.4889,178.334 66.5,178.5C 68.6749,181.478 71.6749,182.978 75.5,183C 79.731,190.49 83.3977,190.156 86.5,182C 87.8721,181.598 89.2054,181.098 90.5,180.5C 91.7946,181.098 93.1279,181.598 94.5,182C 95.8959,186.173 96.8959,190.339 97.5,194.5C 96.3995,195.605 95.7329,196.938 95.5,198.5C 94.8333,198.833 94.1667,199.167 93.5,199.5C 93.9134,196.223 93.4134,192.89 92,189.5C 90.7758,186.527 88.7758,185.86 86,187.5C 84.3923,190.621 83.5589,193.954 83.5,197.5C 81.857,197.48 80.5237,198.147 79.5,199.5C 77.4702,199.106 75.1369,198.773 72.5,198.5C 72.3259,196.139 71.9926,193.806 71.5,191.5C 68.5683,191.284 65.9017,191.951 63.5,193.5C 62.8333,193.333 62.1667,193.167 61.5,193C 62.9423,192.623 63.9423,191.79 64.5,190.5C 67.2856,190.044 68.619,188.377 68.5,185.5C 68.6947,183.275 67.8613,181.609 66,180.5C 61.5422,179.421 57.0422,179.254 52.5,180C 50.9963,181.491 50.1629,183.324 50,185.5C 49.5,185 49,184.5 48.5,184C 42.8815,184.489 38.2148,182.823 34.5,179C 33.255,178.209 31.9217,177.709 30.5,177.5C 29.5338,174.234 28.0338,171.234 26,168.5C 25.6667,168.833 25.3333,169.167 25,169.5C 24.8534,164.521 23.6868,164.188 21.5,168.5C 19.9731,168.573 18.9731,167.906 18.5,166.5C 19.4959,166.414 20.3292,166.748 21,167.5C 21.4643,166.906 21.631,166.239 21.5,165.5C 21.9724,163.469 22.9724,161.802 24.5,160.5 Z"/></g>
<g><path style="opacity:1" fill="#b88d78" d="M 43.5,213.5 C 44.4728,215.149 45.4728,216.816 46.5,218.5C 40.8387,214.996 35.5053,210.996 30.5,206.5C 29.5,205.167 28.5,203.833 27.5,202.5C 28.0431,202.44 28.3764,202.107 28.5,201.5C 27.9264,199.941 27.2598,198.441 26.5,197C 28.0993,195.214 28.9326,193.047 29,190.5C 30.5227,188.38 32.3561,188.047 34.5,189.5C 39.1736,195.689 41.3402,202.689 41,210.5C 41.6979,211.691 42.5313,212.691 43.5,213.5 Z"/></g>
<g><path style="opacity:1" fill="#cecdc9" d="M -0.5,166.5 C 0.166667,166.5 0.833333,166.5 1.5,166.5C 1.5,179.833 1.5,193.167 1.5,206.5C 1.16667,207.5 0.5,208.167 -0.5,208.5C -0.5,194.5 -0.5,180.5 -0.5,166.5 Z"/></g>
<g><path style="opacity:1" fill="#8b655a" d="M 30.5,177.5 C 31.9217,177.709 33.255,178.209 34.5,179C 38.2148,182.823 42.8815,184.489 48.5,184C 49,184.5 49.5,185 50,185.5C 50.1629,183.324 50.9963,181.491 52.5,180C 57.0422,179.254 61.5422,179.421 66,180.5C 67.8613,181.609 68.6947,183.275 68.5,185.5C 68.619,188.377 67.2856,190.044 64.5,190.5C 63.9423,191.79 62.9423,192.623 61.5,193C 62.1667,193.167 62.8333,193.333 63.5,193.5C 65.9017,191.951 68.5683,191.284 71.5,191.5C 71.9926,193.806 72.3259,196.139 72.5,198.5C 75.1369,198.773 77.4702,199.106 79.5,199.5C 80.5237,198.147 81.857,197.48 83.5,197.5C 83.5589,193.954 84.3923,190.621 86,187.5C 88.7758,185.86 90.7758,186.527 92,189.5C 93.4134,192.89 93.9134,196.223 93.5,199.5C 93.2624,201.404 92.2624,202.738 90.5,203.5C 89.399,202.2 88.0657,201.7 86.5,202C 84.1667,204.5 81.8333,207 79.5,209.5C 78.6143,210.325 78.281,211.325 78.5,212.5C 76.0219,213.195 74.0219,214.695 72.5,217C 71.2068,217.49 69.8734,217.657 68.5,217.5C 67.8333,219.5 67.1667,221.5 66.5,223.5C 64.396,223.799 62.396,223.466 60.5,222.5C 60.4754,220.37 59.9754,218.37 59,216.5C 56.4571,214.658 54.2904,212.491 52.5,210C 58.9629,210.531 64.4629,208.697 69,204.5C 69.4974,201.854 69.6641,199.187 69.5,196.5C 65.5,196.5 61.5,196.5 57.5,196.5C 56.8333,196.5 56.5,196.167 56.5,195.5C 53.7389,192.559 51.0722,189.392 48.5,186C 45.5475,185.108 42.8808,185.608 40.5,187.5C 36.8394,184.506 33.5061,181.173 30.5,177.5 Z"/></g>
<g><path style="opacity:1" fill="#ac816f" d="M 64.5,190.5 C 56.2383,192.717 52.4049,189.717 53,181.5C 58.9713,179.409 63.4713,181.076 66.5,186.5C 66.2483,188.073 65.5817,189.406 64.5,190.5 Z"/></g>
<g><path style="opacity:1" fill="#bb907a" d="M 56.5,195.5 C 56.5,196.167 56.8333,196.5 57.5,196.5C 59.2922,197.309 61.2922,197.809 63.5,198C 66.0801,200.12 66.0801,202.287 63.5,204.5C 59.5258,206.188 55.5258,206.521 51.5,205.5C 50.1639,203.99 48.9973,202.323 48,200.5C 47.2195,199.056 47.3861,197.723 48.5,196.5C 49.7989,195.91 50.6322,194.91 51,193.5C 52.5843,194.861 54.4176,195.528 56.5,195.5 Z"/></g>
<g><path style="opacity:1" fill="#dbe0e0" d="M 23.5,197.5 C 25.0627,198.945 26.396,200.611 27.5,202.5C 28.5,203.833 29.5,205.167 30.5,206.5C 28.6558,207.204 28.1558,208.537 29,210.5C 29.3333,211.5 29.6667,212.5 30,213.5C 30.3333,213.167 30.6667,212.833 31,212.5C 31.6667,213.833 32.6667,214.833 34,215.5C 35.2246,220.938 36.7246,226.271 38.5,231.5C 41.1667,231.5 43.8333,231.5 46.5,231.5C 44.5,233.833 42.5,236.167 40.5,238.5C 39.8333,238.833 39.1667,239.167 38.5,239.5C 36.9755,240.174 35.6422,241.174 34.5,242.5C 32.997,241.41 32.6637,240.243 33.5,239C 29.3746,227.389 25.8746,215.556 23,203.5C 22.2109,201.288 22.3775,199.288 23.5,197.5 Z"/></g>
<g><path style="opacity:1" fill="#83858a" d="M 98.5,181.5 C 98.8333,181.5 99.1667,181.5 99.5,181.5C 101.374,183.813 103.374,186.146 105.5,188.5C 105.194,191.945 105.194,195.611 105.5,199.5C 105.666,204.179 105.499,208.845 105,213.5C 104.768,214.737 104.268,215.737 103.5,216.5C 103.578,206.815 103.245,197.148 102.5,187.5C 101.5,187.5 100.5,187.5 99.5,187.5C 99.5,188.5 99.5,189.5 99.5,190.5C 99.1667,190.5 98.8333,190.5 98.5,190.5C 98.5,187.5 98.5,184.5 98.5,181.5 Z"/></g>
<g><path style="opacity:1" fill="#c5caca" d="M 21.5,180.5 C 21.5,184.5 21.5,188.5 21.5,192.5C 20.8186,190.842 19.9853,189.175 19,187.5C 18.8333,188.167 18.6667,188.833 18.5,189.5C 23.5377,207.48 27.5377,225.646 30.5,244C 29.5667,246.848 28.0667,247.014 26,244.5C 25.5026,247.146 25.3359,249.813 25.5,252.5C 24.596,251.791 24.2627,250.791 24.5,249.5C 24.4285,246.807 24.0951,244.14 23.5,241.5C 24.2542,239.36 24.9209,237.194 25.5,235C 20.5049,219.593 17.8383,203.76 17.5,187.5C 17.584,184.318 18.9173,181.985 21.5,180.5 Z"/></g>
<g><path style="opacity:1" fill="#c2c7c7" d="M 97.5,242.5 C 96.9036,248.458 95.5702,254.125 93.5,259.5C 93.6633,257.143 93.4966,254.81 93,252.5C 90.4022,251.32 88.7355,249.32 88,246.5C 84.271,243.926 80.4376,241.592 76.5,239.5C 77.9516,238.698 79.6183,238.198 81.5,238C 80.2949,236.624 78.9616,235.458 77.5,234.5C 77.5,234.167 77.5,233.833 77.5,233.5C 80.2919,235.289 83.2919,236.623 86.5,237.5C 89.823,226.77 91.6564,215.77 92,204.5C 91.1841,205.823 90.0174,206.489 88.5,206.5C 89.1667,205.5 89.8333,204.5 90.5,203.5C 92.2624,202.738 93.2624,201.404 93.5,199.5C 94.1667,199.167 94.8333,198.833 95.5,198.5C 96.4584,198.047 97.2917,197.381 98,196.5C 98.1667,197.667 98.3333,198.833 98.5,200C 96.976,209.458 95.976,218.958 95.5,228.5C 97.1137,233.02 97.7803,237.687 97.5,242.5 Z"/></g>
<g><path style="opacity:1" fill="#d9dddd" d="M 77.5,233.5 C 74.6612,231.58 71.6612,229.913 68.5,228.5C 68.5,228.167 68.5,227.833 68.5,227.5C 67.4489,226.778 66.7822,225.778 66.5,224.5C 73.8333,218.5 81.1667,212.5 88.5,206.5C 90.0174,206.489 91.1841,205.823 92,204.5C 91.6564,215.77 89.823,226.77 86.5,237.5C 83.2919,236.623 80.2919,235.289 77.5,233.5 Z"/></g>
<g><path style="opacity:1" fill="#b2b8b9" d="M 17.5,187.5 C 17.8383,203.76 20.5049,219.593 25.5,235C 24.9209,237.194 24.2542,239.36 23.5,241.5C 24.0951,244.14 24.4285,246.807 24.5,249.5C 22.2012,242.665 20.0345,235.665 18,228.5C 16.7291,225.567 15.0624,222.901 13,220.5C 12.1686,213.854 11.6686,207.187 11.5,200.5C 11.83,196.979 13.33,193.979 16,191.5C 16.4828,190.552 16.6495,189.552 16.5,188.5C 16.5,187.833 16.8333,187.5 17.5,187.5 Z"/></g>
<g><path style="opacity:1" fill="#a27a69" d="M 57.5,196.5 C 61.5,196.5 65.5,196.5 69.5,196.5C 69.6641,199.187 69.4974,201.854 69,204.5C 64.4629,208.697 58.9629,210.531 52.5,210C 54.2904,212.491 56.4571,214.658 59,216.5C 59.9754,218.37 60.4754,220.37 60.5,222.5C 62.396,223.466 64.396,223.799 66.5,223.5C 67.1667,221.5 67.8333,219.5 68.5,217.5C 69.8734,217.657 71.2068,217.49 72.5,217C 74.0219,214.695 76.0219,213.195 78.5,212.5C 78.281,211.325 78.6143,210.325 79.5,209.5C 81.8333,207 84.1667,204.5 86.5,202C 88.0657,201.7 89.399,202.2 90.5,203.5C 89.8333,204.5 89.1667,205.5 88.5,206.5C 81.1667,212.5 73.8333,218.5 66.5,224.5C 62.554,225.527 58.554,225.694 54.5,225C 53.3474,223.117 51.6807,222.284 49.5,222.5C 48.5,221.167 47.5,219.833 46.5,218.5C 45.4728,216.816 44.4728,215.149 43.5,213.5C 45.7602,212.762 45.9269,211.762 44,210.5C 43.3333,206.833 43.3333,203.167 44,199.5C 45.6617,202.577 48.1617,204.577 51.5,205.5C 55.5258,206.521 59.5258,206.188 63.5,204.5C 66.0801,202.287 66.0801,200.12 63.5,198C 61.2922,197.809 59.2922,197.309 57.5,196.5 Z"/></g>
<g><path style="opacity:1" fill="#e6ebeb" d="M 30.5,206.5 C 35.5053,210.996 40.8387,214.996 46.5,218.5C 47.5,219.833 48.5,221.167 49.5,222.5C 51.2785,223.67 52.2785,225.336 52.5,227.5C 51.8333,227.5 51.5,227.833 51.5,228.5C 49.5887,229.075 47.922,230.075 46.5,231.5C 43.8333,231.5 41.1667,231.5 38.5,231.5C 36.7246,226.271 35.2246,220.938 34,215.5C 32.6667,214.833 31.6667,213.833 31,212.5C 30.6667,212.833 30.3333,213.167 30,213.5C 29.6667,212.5 29.3333,211.5 29,210.5C 28.1558,208.537 28.6558,207.204 30.5,206.5 Z"/></g>
<g><path style="opacity:1" fill="#aeb3b3" d="M 98.5,190.5 C 98.8333,190.5 99.1667,190.5 99.5,190.5C 100.825,194.276 101.491,198.443 101.5,203C 100.274,214.097 99.274,225.263 98.5,236.5C 98.7947,238.735 98.4614,240.735 97.5,242.5C 97.7803,237.687 97.1137,233.02 95.5,228.5C 95.976,218.958 96.976,209.458 98.5,200C 98.3333,198.833 98.1667,197.667 98,196.5C 97.2917,197.381 96.4584,198.047 95.5,198.5C 95.7329,196.938 96.3995,195.605 97.5,194.5C 97.8333,193.167 98.1667,191.833 98.5,190.5 Z"/></g>
<g><path style="opacity:1" fill="#979b9d" d="M 103.5,216.5 C 101.671,223.229 100.004,229.896 98.5,236.5C 99.274,225.263 100.274,214.097 101.5,203C 101.491,198.443 100.825,194.276 99.5,190.5C 99.5,189.5 99.5,188.5 99.5,187.5C 100.5,187.5 101.5,187.5 102.5,187.5C 103.245,197.148 103.578,206.815 103.5,216.5 Z"/></g>
<g><path style="opacity:1" fill="#42434f" d="M 105.5,188.5 C 108.071,193.305 110.904,197.972 114,202.5C 115.451,204.464 117.284,205.797 119.5,206.5C 119.5,215.5 119.5,224.5 119.5,233.5C 118.768,232.192 117.934,230.858 117,229.5C 116.667,231.5 116.333,233.5 116,235.5C 115.586,235.957 115.086,236.291 114.5,236.5C 112.479,234.479 110.479,232.479 108.5,230.5C 108.042,221.535 107.876,212.535 108,203.5C 107.667,203.833 107.333,204.167 107,204.5C 106.802,202.618 106.302,200.952 105.5,199.5C 105.194,195.611 105.194,191.945 105.5,188.5 Z"/></g>
<g><path style="opacity:1" fill="#bdbab7" d="M 49.5,222.5 C 51.6807,222.284 53.3474,223.117 54.5,225C 58.554,225.694 62.554,225.527 66.5,224.5C 66.7822,225.778 67.4489,226.778 68.5,227.5C 63.9889,228.057 59.4889,228.724 55,229.5C 53.9889,228.944 53.1556,228.278 52.5,227.5C 52.2785,225.336 51.2785,223.67 49.5,222.5 Z"/></g>
<g><path style="opacity:1" fill="#393d4c" d="M 51.5,228.5 C 51.5,227.833 51.8333,227.5 52.5,227.5C 53.1556,228.278 53.9889,228.944 55,229.5C 59.4889,228.724 63.9889,228.057 68.5,227.5C 68.5,227.833 68.5,228.167 68.5,228.5C 67.2264,229.189 67.2264,230.023 68.5,231C 67,231.833 65.8333,233 65,234.5C 63.7614,240.435 63.2614,246.435 63.5,252.5C 62.0695,252.421 60.7362,252.754 59.5,253.5C 58.722,247.271 55.8886,242.271 51,238.5C 50.0643,235.208 50.5643,232.208 52.5,229.5C 52.3764,228.893 52.0431,228.56 51.5,228.5 Z"/></g>
<g><path style="opacity:1" fill="#515059" d="M 16.5,188.5 C 16.6495,189.552 16.4828,190.552 16,191.5C 13.33,193.979 11.83,196.979 11.5,200.5C 10.7986,203.563 10.132,206.73 9.5,210C 9.61581,211.268 9.94915,212.602 10.5,214C 8.52185,216.497 8.02185,219.331 9,222.5C 10.0674,223.191 11.2341,223.691 12.5,224C 11.364,225.53 10.364,226.863 9.5,228C 11.2495,230.086 12.5828,232.419 13.5,235C 13.0946,235.945 12.428,236.612 11.5,237C 14.932,242.371 17.932,247.871 20.5,253.5C 19.5,253.5 18.5,253.5 17.5,253.5C 18.4979,257.832 19.4979,262.166 20.5,266.5C 13.5,266.5 6.5,266.5 -0.5,266.5C -0.5,247.167 -0.5,227.833 -0.5,208.5C 0.5,208.167 1.16667,207.5 1.5,206.5C 4.81523,203.875 7.14856,200.542 8.5,196.5C 10.8815,193.452 13.5482,190.785 16.5,188.5 Z"/></g>
<g><path style="opacity:1" fill="#56565d" d="M 105.5,199.5 C 106.302,200.952 106.802,202.618 107,204.5C 107.333,204.167 107.667,203.833 108,203.5C 107.876,212.535 108.042,221.535 108.5,230.5C 105.611,232.775 104.944,235.608 106.5,239C 105.324,240.914 104.324,240.748 103.5,238.5C 103.167,239 102.833,239.5 102.5,240C 103.663,241.855 105.33,243.189 107.5,244C 106.451,244.492 105.451,244.326 104.5,243.5C 100.551,246.259 100.884,248.259 105.5,249.5C 104.726,252.381 103.393,255.048 101.5,257.5C 97.7404,254.915 96.407,255.915 97.5,260.5C 96.1395,260.788 94.8062,261.121 93.5,261.5C 93.5,261.167 93.5,260.833 93.5,260.5C 93.5,260.167 93.5,259.833 93.5,259.5C 95.5702,254.125 96.9036,248.458 97.5,242.5C 98.4614,240.735 98.7947,238.735 98.5,236.5C 100.004,229.896 101.671,223.229 103.5,216.5C 104.268,215.737 104.768,214.737 105,213.5C 105.499,208.845 105.666,204.179 105.5,199.5 Z"/></g>
<g><path style="opacity:1" fill="#747b80" d="M 77.5,234.5 C 78.9616,235.458 80.2949,236.624 81.5,238C 79.6183,238.198 77.9516,238.698 76.5,239.5C 75.5,240.167 74.5,240.833 73.5,241.5C 74.8333,239.167 76.1667,236.833 77.5,234.5 Z"/></g>
<g><path style="opacity:1" fill="#545962" d="M 40.5,238.5 C 41.6252,240 42.9586,241.333 44.5,242.5C 41.9556,242.104 39.7889,242.771 38,244.5C 37.5357,243.906 37.369,243.239 37.5,242.5C 38.1098,241.609 38.4431,240.609 38.5,239.5C 39.1667,239.167 39.8333,238.833 40.5,238.5 Z"/></g>
<g><path style="opacity:1" fill="#d5dbdb" d="M 76.5,239.5 C 80.4376,241.592 84.271,243.926 88,246.5C 88.7355,249.32 90.4022,251.32 93,252.5C 93.4966,254.81 93.6633,257.143 93.5,259.5C 93.5,259.833 93.5,260.167 93.5,260.5C 86.7776,264.337 80.1109,264.17 73.5,260C 72.2253,253.864 72.2253,247.698 73.5,241.5C 74.5,240.833 75.5,240.167 76.5,239.5 Z"/></g>
<g><path style="opacity:1" fill="#a3aaab" d="M 37.5,242.5 C 37.369,243.239 37.5357,243.906 38,244.5C 39.7889,242.771 41.9556,242.104 44.5,242.5C 47.973,244.637 50.3064,247.637 51.5,251.5C 47.2973,249.95 43.2973,247.95 39.5,245.5C 37.2557,246.59 35.4223,248.256 34,250.5C 33.7965,247.24 34.9632,244.573 37.5,242.5 Z"/></g>
<g><path style="opacity:1" fill="#4f4e57" d="M 119.5,233.5 C 119.5,244.5 119.5,255.5 119.5,266.5C 110.5,266.5 101.5,266.5 92.5,266.5C 93.038,264.883 93.3713,263.216 93.5,261.5C 94.8062,261.121 96.1395,260.788 97.5,260.5C 96.407,255.915 97.7404,254.915 101.5,257.5C 103.393,255.048 104.726,252.381 105.5,249.5C 100.884,248.259 100.551,246.259 104.5,243.5C 105.451,244.326 106.451,244.492 107.5,244C 105.33,243.189 103.663,241.855 102.5,240C 102.833,239.5 103.167,239 103.5,238.5C 104.324,240.748 105.324,240.914 106.5,239C 104.944,235.608 105.611,232.775 108.5,230.5C 110.479,232.479 112.479,234.479 114.5,236.5C 115.086,236.291 115.586,235.957 116,235.5C 116.333,233.5 116.667,231.5 117,229.5C 117.934,230.858 118.768,232.192 119.5,233.5 Z"/></g>
<g><path style="opacity:1" fill="#cdd2d3" d="M 21.5,192.5 C 22.4408,194.05 23.1075,195.716 23.5,197.5C 22.3775,199.288 22.2109,201.288 23,203.5C 25.8746,215.556 29.3746,227.389 33.5,239C 32.6637,240.243 32.997,241.41 34.5,242.5C 35.6422,241.174 36.9755,240.174 38.5,239.5C 38.4431,240.609 38.1098,241.609 37.5,242.5C 34.9632,244.573 33.7965,247.24 34,250.5C 35.4223,248.256 37.2557,246.59 39.5,245.5C 43.2973,247.95 47.2973,249.95 51.5,251.5C 53.6564,253.332 54.9897,255.666 55.5,258.5C 54.537,261.148 53.537,263.814 52.5,266.5C 44.1667,266.5 35.8333,266.5 27.5,266.5C 27.4781,261.728 26.8115,257.061 25.5,252.5C 25.3359,249.813 25.5026,247.146 26,244.5C 28.0667,247.014 29.5667,246.848 30.5,244C 27.5377,225.646 23.5377,207.48 18.5,189.5C 18.6667,188.833 18.8333,188.167 19,187.5C 19.9853,189.175 20.8186,190.842 21.5,192.5 Z"/></g>
<g><path style="opacity:1" fill="#717982" d="M 70.5,245.5 C 69.8005,249.798 69.4672,254.131 69.5,258.5C 68.8389,256.866 68.5056,255.033 68.5,253C 68.2999,250.134 68.9666,247.634 70.5,245.5 Z"/></g>
<g><path style="opacity:1" fill="#585860" d="M 11.5,200.5 C 11.6686,207.187 12.1686,213.854 13,220.5C 15.0624,222.901 16.7291,225.567 18,228.5C 20.0345,235.665 22.2012,242.665 24.5,249.5C 24.2627,250.791 24.596,251.791 25.5,252.5C 26.8115,257.061 27.4781,261.728 27.5,266.5C 25.1667,266.5 22.8333,266.5 20.5,266.5C 19.4979,262.166 18.4979,257.832 17.5,253.5C 18.5,253.5 19.5,253.5 20.5,253.5C 17.932,247.871 14.932,242.371 11.5,237C 12.428,236.612 13.0946,235.945 13.5,235C 12.5828,232.419 11.2495,230.086 9.5,228C 10.364,226.863 11.364,225.53 12.5,224C 11.2341,223.691 10.0674,223.191 9,222.5C 8.02185,219.331 8.52185,216.497 10.5,214C 9.94915,212.602 9.61581,211.268 9.5,210C 10.132,206.73 10.7986,203.563 11.5,200.5 Z"/></g>
<g><path style="opacity:1" fill="#c3c9ca" d="M 73.5,241.5 C 72.2253,247.698 72.2253,253.864 73.5,260C 80.1109,264.17 86.7776,264.337 93.5,260.5C 93.5,260.833 93.5,261.167 93.5,261.5C 93.3713,263.216 93.038,264.883 92.5,266.5C 85.1667,266.5 77.8333,266.5 70.5,266.5C 70.5987,263.763 70.2653,261.096 69.5,258.5C 69.4672,254.131 69.8005,249.798 70.5,245.5C 71.0256,243.77 72.0256,242.436 73.5,241.5 Z"/></g>
<g><path style="opacity:1" fill="#272e40" d="M 51.5,228.5 C 52.0431,228.56 52.3764,228.893 52.5,229.5C 50.5643,232.208 50.0643,235.208 51,238.5C 55.8886,242.271 58.722,247.271 59.5,253.5C 60.7362,252.754 62.0695,252.421 63.5,252.5C 63.2614,246.435 63.7614,240.435 65,234.5C 65.8333,233 67,231.833 68.5,231C 67.2264,230.023 67.2264,229.189 68.5,228.5C 71.6612,229.913 74.6612,231.58 77.5,233.5C 77.5,233.833 77.5,234.167 77.5,234.5C 76.1667,236.833 74.8333,239.167 73.5,241.5C 72.0256,242.436 71.0256,243.77 70.5,245.5C 68.9666,247.634 68.2999,250.134 68.5,253C 68.5056,255.033 68.8389,256.866 69.5,258.5C 70.2653,261.096 70.5987,263.763 70.5,266.5C 64.5,266.5 58.5,266.5 52.5,266.5C 53.537,263.814 54.537,261.148 55.5,258.5C 54.9897,255.666 53.6564,253.332 51.5,251.5C 50.3064,247.637 47.973,244.637 44.5,242.5C 42.9586,241.333 41.6252,240 40.5,238.5C 42.5,236.167 44.5,233.833 46.5,231.5C 47.922,230.075 49.5887,229.075 51.5,228.5 Z"/></g>
</svg>
