<?xml version="1.0" standalone="no"?>
<!DOCTYPE svg PUBLIC "-//W3C//DTD SVG 20010904//EN"
 "http://www.w3.org/TR/2001/REC-SVG-20010904/DTD/svg10.dtd">
<svg version="1.0" xmlns="http://www.w3.org/2000/svg"
 width="512.000000pt" height="512.000000pt" viewBox="0 0 512.000000 512.000000"
 preserveAspectRatio="xMidYMid meet">

<g transform="translate(0.000000,512.000000) scale(0.100000,-0.100000)"
fill="#000000" stroke="none">
<path d="M4044 4846 c-39 -17 -44 -31 -44 -116 0 -83 5 -97 41 -115 39 -21 53
-19 88 11 30 25 31 29 31 103 0 68 -3 80 -22 98 -32 29 -58 34 -94 19z"/>
<path d="M2205 4596 c-81 -19 -145 -48 -226 -102 -118 -78 -147 -137 -94 -189
38 -39 84 -34 142 17 26 23 82 57 123 77 70 34 82 36 170 36 88 0 101 -3 163
-33 90 -44 186 -142 233 -237 28 -57 35 -82 35 -135 2 -104 -31 -195 -109
-305 -38 -53 -411 -435 -425 -435 -4 0 -44 27 -87 60 -187 142 -436 286 -584
336 -154 53 -263 38 -301 -41 -53 -113 37 -356 250 -674 182 -273 383 -508
691 -811 519 -509 1032 -842 1295 -842 66 0 104 17 130 59 31 50 23 168 -20
284 -53 144 -176 353 -325 553 l-67 89 163 165 c235 239 266 265 406 329 170
79 328 43 462 -104 164 -180 166 -405 5 -592 -40 -46 -46 -59 -41 -84 7 -37
23 -56 54 -68 39 -15 86 13 138 83 95 130 134 240 134 379 -1 151 -59 275
-195 415 -129 132 -248 181 -426 172 -82 -4 -106 -10 -184 -44 -146 -64 -224
-124 -433 -328 -105 -104 -193 -187 -195 -185 -2 2 -55 63 -119 134 -128 144
-421 434 -540 535 l-77 65 178 180 c204 207 266 285 326 410 52 109 65 161 65
258 0 100 -28 188 -90 280 -92 137 -225 242 -359 283 -70 21 -197 26 -266 10z"/>
<path d="M3784 4586 c-35 -16 -44 -32 -44 -81 0 -53 36 -75 122 -75 64 0 72 2
100 30 25 26 29 36 24 63 -10 52 -35 69 -107 73 -42 3 -75 0 -95 -10z"/>
<path d="M4233 4593 c-31 -6 -63 -50 -63 -85 0 -17 10 -39 25 -53 21 -22 33
-25 100 -25 67 0 79 3 100 25 34 33 34 83 0 115 -20 18 -38 24 -83 26 -31 1
-67 0 -79 -3z"/>
<path d="M4022 4397 c-19 -20 -22 -35 -22 -104 0 -76 2 -83 26 -102 36 -28 79
-27 109 4 22 21 25 33 25 100 0 67 -3 79 -25 100 -32 33 -83 34 -113 2z"/>
<path d="M4029 3813 c-55 -9 -133 -66 -165 -121 -54 -89 -54 -174 0 -266 61
-104 205 -148 318 -98 49 21 113 88 134 138 20 48 18 150 -5 199 -47 102 -171
167 -282 148z"/>
<path d="M887 2949 c-8 -19 -47 -108 -87 -199 -40 -91 -106 -247 -146 -348
l-75 -182 27 -46 c61 -103 246 -353 381 -513 20 -24 22 -24 23 -6 0 47 30 276
45 343 25 119 64 250 112 369 l44 111 -86 131 c-48 71 -117 185 -155 252 l-68
122 -15 -34z"/>
<path d="M4780 1971 c-98 -51 -119 -185 -41 -262 74 -74 168 -74 242 0 105
104 27 281 -123 281 -24 0 -59 -8 -78 -19z"/>
<path d="M1642 1818 c-72 -187 -132 -476 -132 -637 l0 -58 78 -65 c123 -104
283 -223 419 -313 l126 -84 46 19 c127 50 404 167 554 233 l168 74 -63 33
c-159 84 -399 239 -548 354 -131 101 -358 301 -482 422 l-126 125 -40 -103z"/>
<path d="M810 1128 c-48 -33 -72 -70 -77 -121 -10 -89 41 -165 128 -188 40
-11 53 -10 92 5 111 42 149 160 84 257 -46 69 -160 92 -227 47z"/>
<path d="M102 838 c-79 -284 -94 -348 -94 -413 1 -174 137 -320 310 -332 51
-4 92 1 172 22 134 33 421 115 437 124 7 3 -23 34 -75 76 -112 90 -526 504
-617 617 -38 48 -73 87 -76 87 -3 1 -29 -81 -57 -181z"/>
</g>
</svg>
