<?xml version="1.0" encoding="UTF-8"?>
<svg version="1.1" xmlns="http://www.w3.org/2000/svg" width="512" height="512">
<path d="M0 0 C15.58828621 -0.72571165 29.87383474 5.25729142 41.60546875 15.15234375 C45.00856481 18.28271783 48.00414877 21.57138972 50.84765625 25.21484375 C51.44449219 25.97539063 52.04132813 26.7359375 52.65625 27.51953125 C62.65892314 40.98549552 65.36733555 54.88842531 63.4921875 71.33203125 C62.21584081 77.51674472 59.70056002 82.99915889 56.84765625 88.58984375 C56.36051147 89.56038696 56.36051147 89.56038696 55.86352539 90.55053711 C48.0132181 105.11190629 35.83088494 116.62638032 24.16015625 128.08984375 C22.66791275 129.56699441 21.17637183 131.04485517 19.68554688 132.5234375 C16.08093665 136.0954503 12.46705039 139.65781436 8.84765625 143.21484375 C10.22593492 146.09957821 11.38096955 147.94552304 13.859375 149.984375 C14.44895996 150.47719971 15.03854492 150.97002441 15.64599609 151.4777832 C16.26941895 151.98913818 16.8928418 152.50049316 17.53515625 153.02734375 C21.93096089 156.70684039 26.19311974 160.38446752 30.16113281 164.53027344 C31.87703562 166.2441891 33.66298993 167.81293646 35.5078125 169.38671875 C39.99878171 173.29215523 44.21451662 177.43392237 48.41015625 181.65234375 C49.12623047 182.36455078 49.84230469 183.07675781 50.58007812 183.81054688 C54.61465217 187.85246319 58.47311069 191.99004055 62.2019043 196.31518555 C64.73088569 199.23433764 67.34889077 202.0685393 69.97265625 204.90234375 C70.47152344 205.44439453 70.97039062 205.98644531 71.484375 206.54492188 C71.97808594 207.07923828 72.47179687 207.61355469 72.98046875 208.1640625 C73.62846436 208.86535278 73.62846436 208.86535278 74.28955078 209.58081055 C76.43609836 211.83196112 78.64283959 214.02092825 80.84765625 216.21484375 C81.49086319 215.56164406 81.49086319 215.56164406 82.14706421 214.89524841 C86.64843752 210.32703407 91.16070928 205.76978918 95.67919922 201.21850586 C97.35970118 199.5230023 99.03749044 197.82480524 100.71240234 196.1237793 C103.1330502 193.66636758 105.56358445 191.21910199 107.99609375 188.7734375 C108.73193695 188.02211044 109.46778015 187.27078339 110.22592163 186.49668884 C124.41067291 172.30747339 143.36654892 161.0969134 163.66015625 160.77734375 C180.45527289 160.87175921 193.70858632 167.09951871 205.515625 178.87890625 C217.70034003 191.9837485 224.51474737 206.17077062 224.32104492 224.19042969 C224.0551276 231.33794321 222.61660915 237.60060516 219.84765625 244.21484375 C219.44675781 245.21773437 219.04585938 246.220625 218.6328125 247.25390625 C214.97728487 255.45500303 209.85802169 262.58324824 202.84765625 268.21484375 C199.50317234 269.37372267 197.1791182 269.38535741 193.84765625 268.21484375 C190.44699286 266.08942913 189.96513884 264.64561325 188.91015625 260.77734375 C188.82584857 255.97180577 190.16099986 253.98458667 193.43359375 250.55078125 C201.53534545 241.95372596 205.10499833 232.02041162 204.84765625 220.21484375 C203.94467721 207.91175426 197.66293075 197.96319526 188.8671875 189.63671875 C180.56480362 182.97762689 171.88847218 179.69673493 161.328125 179.8125 C137.96888943 182.51283812 120.68683485 203.19699158 105.09765625 218.90234375 C103.89997823 220.1050554 102.70206265 221.30753054 101.50390625 222.50976562 C98.61575746 225.40875275 95.7307944 228.31087368 92.84765625 231.21484375 C96.14648587 236.2281111 99.50851298 241.17545941 103.03222656 246.03320312 C138.96581393 295.7799051 138.96581393 295.7799051 134.84765625 322.21484375 C130.40449252 331.70593515 118.74655347 336.61995624 109.91015625 341.33984375 C108.35977661 342.17225586 108.35977661 342.17225586 106.77807617 343.02148438 C35.57327747 380.87787544 -41.55003179 409.38616597 -118.15234375 434.21484375 C-119.18908234 434.55128906 -119.18908234 434.55128906 -120.24676514 434.89453125 C-192.98685662 458.46565497 -192.98685662 458.46565497 -209.5859375 451.53125 C-218.86290793 446.7727431 -224.40943016 440.21060738 -228.20654297 430.52612305 C-231.30978388 419.66157569 -228.93978455 407.94524423 -225.96484375 397.33984375 C-225.60604366 396.01490453 -225.24791419 394.68978357 -224.89038086 393.36450195 C-200.1242992 302.68839754 -165.26953622 214.25363401 -111.90234375 105.90234375 C-111.51409424 105.2266333 -111.12584473 104.55092285 -110.72583008 103.85473633 C-107.53119667 98.47119997 -104.02397749 92.68256766 -98.33984375 89.77734375 C-74.33081405 85.54045616 -47.94689495 102.88463659 -29.18725586 115.93188477 C-25.81612817 118.32448234 -22.48084125 120.76346812 -19.15234375 123.21484375 C-17.98790108 124.05986561 -16.82258466 124.90368522 -15.65625 125.74609375 C-13.14858413 127.56055772 -10.64716829 129.38279118 -8.15234375 131.21484375 C-5.35248279 129.93580251 -3.28700499 128.60378986 -1.10302734 126.44018555 C-0.53498383 125.88167404 0.03305969 125.32316254 0.61831665 124.74772644 C1.22251434 124.14261734 1.82671204 123.53750824 2.44921875 122.9140625 C3.40397598 121.96573296 3.40397598 121.96573296 4.37802124 120.99824524 C5.72705749 119.6549505 7.07348244 118.30902894 8.41748047 116.96069336 C10.43596215 114.93909451 12.46725506 112.9310709 14.5 110.92382812 C28.14815715 97.34466037 44.19720563 81.0480317 44.94140625 60.64453125 C44.5153131 48.18130669 37.58166407 38.58991974 28.84765625 30.21484375 C20.08626876 22.14880447 10.37696002 19.40211992 -1.4453125 19.7734375 C-12.06701323 21.03819217 -19.90616164 26.80743295 -28.15234375 33.21484375 C-31.33069647 35.33374556 -33.3471359 35.75824395 -37.14453125 35.66015625 C-39.15234375 35.21484375 -39.15234375 35.21484375 -42.15234375 32.58984375 C-45.17725478 27.48530638 -45.17725478 27.48530638 -44.15234375 23.21484375 C-36.74173521 11.67411899 -22.98242962 4.86922094 -10.12890625 1.3984375 C-6.75915196 0.72354273 -3.41599791 0.34097983 0 0 Z " fill="#EFC319" transform="translate(229.15234375,49.78515625)"/>
<path d="M0 0 C15.58828621 -0.72571165 29.87383474 5.25729142 41.60546875 15.15234375 C45.00856481 18.28271783 48.00414877 21.57138972 50.84765625 25.21484375 C51.44449219 25.97539063 52.04132813 26.7359375 52.65625 27.51953125 C62.65892314 40.98549552 65.36733555 54.88842531 63.4921875 71.33203125 C62.21584081 77.51674472 59.70056002 82.99915889 56.84765625 88.58984375 C56.36051147 89.56038696 56.36051147 89.56038696 55.86352539 90.55053711 C48.0132181 105.11190629 35.83088494 116.62638032 24.16015625 128.08984375 C22.66791275 129.56699441 21.17637183 131.04485517 19.68554688 132.5234375 C16.08093665 136.0954503 12.46705039 139.65781436 8.84765625 143.21484375 C10.22593492 146.09957821 11.38096955 147.94552304 13.859375 149.984375 C14.44895996 150.47719971 15.03854492 150.97002441 15.64599609 151.4777832 C16.26941895 151.98913818 16.8928418 152.50049316 17.53515625 153.02734375 C21.93096089 156.70684039 26.19311974 160.38446752 30.16113281 164.53027344 C31.87703562 166.2441891 33.66298993 167.81293646 35.5078125 169.38671875 C39.99878171 173.29215523 44.21451662 177.43392237 48.41015625 181.65234375 C49.12623047 182.36455078 49.84230469 183.07675781 50.58007812 183.81054688 C54.61465217 187.85246319 58.47311069 191.99004055 62.2019043 196.31518555 C64.73088569 199.23433764 67.34889077 202.0685393 69.97265625 204.90234375 C70.72095703 205.71541992 70.72095703 205.71541992 71.484375 206.54492188 C71.97808594 207.07923828 72.47179687 207.61355469 72.98046875 208.1640625 C73.41246582 208.63158936 73.84446289 209.09911621 74.28955078 209.58081055 C76.43609836 211.83196112 78.64283959 214.02092825 80.84765625 216.21484375 C81.27646088 215.77937729 81.7052655 215.34391083 82.14706421 214.89524841 C86.64843752 210.32703407 91.16070928 205.76978918 95.67919922 201.21850586 C97.35970118 199.5230023 99.03749044 197.82480524 100.71240234 196.1237793 C103.1330502 193.66636758 105.56358445 191.21910199 107.99609375 188.7734375 C108.73193695 188.02211044 109.46778015 187.27078339 110.22592163 186.49668884 C124.41067291 172.30747339 143.36654892 161.0969134 163.66015625 160.77734375 C180.45527289 160.87175921 193.70858632 167.09951871 205.515625 178.87890625 C217.70034003 191.9837485 224.51474737 206.17077062 224.32104492 224.19042969 C224.0551276 231.33794321 222.61660915 237.60060516 219.84765625 244.21484375 C219.44675781 245.21773437 219.04585938 246.220625 218.6328125 247.25390625 C214.97728487 255.45500303 209.85802169 262.58324824 202.84765625 268.21484375 C199.50317234 269.37372267 197.1791182 269.38535741 193.84765625 268.21484375 C190.44699286 266.08942913 189.96513884 264.64561325 188.91015625 260.77734375 C188.82584857 255.97180577 190.16099986 253.98458667 193.43359375 250.55078125 C201.53534545 241.95372596 205.10499833 232.02041162 204.84765625 220.21484375 C203.94467721 207.91175426 197.66293075 197.96319526 188.8671875 189.63671875 C180.56480362 182.97762689 171.88847218 179.69673493 161.328125 179.8125 C137.96888943 182.51283812 120.68683485 203.19699158 105.09765625 218.90234375 C103.89997823 220.1050554 102.70206265 221.30753054 101.50390625 222.50976562 C98.61575746 225.40875275 95.7307944 228.31087368 92.84765625 231.21484375 C96.14648587 236.2281111 99.50851298 241.17545941 103.03222656 246.03320312 C138.96581393 295.7799051 138.96581393 295.7799051 134.84765625 322.21484375 C132.21373552 327.06650293 130.24696801 329.17036435 125.08984375 330.73828125 C109.56880636 334.0371777 94.10791639 325.37869361 80.84765625 318.21484375 C80.19297363 317.869375 79.53829102 317.52390625 78.86376953 317.16796875 C57.34482455 305.79586669 37.84518757 290.51064074 19.48193359 274.62255859 C17.72323234 273.10766892 15.95259895 271.6076035 14.1796875 270.109375 C3.39203764 260.97233316 3.39203764 260.97233316 -1.46850586 255.89770508 C-3.1832363 254.18396911 -4.96840461 252.61613069 -6.8125 251.04296875 C-11.30346921 247.13753227 -15.51920412 242.99576513 -19.71484375 238.77734375 C-20.43091797 238.06513672 -21.14699219 237.35292969 -21.88476562 236.61914062 C-25.92707375 232.56947616 -29.78897947 228.42214907 -33.52416992 224.08813477 C-35.95411008 221.29237365 -38.49379835 218.60382604 -41.02734375 215.90234375 C-46.32554826 210.20001094 -51.29402889 204.29794387 -56.15234375 198.21484375 C-57.06128675 197.10837722 -57.97150935 196.00296099 -58.8828125 194.8984375 C-70.90102389 180.24149305 -81.84047003 164.73202695 -91.15234375 148.21484375 C-91.53229492 147.55452148 -91.91224609 146.89419922 -92.30371094 146.21386719 C-100.50946211 131.87917079 -108.51777129 116.20498194 -106.15234375 99.21484375 C-104.7236942 94.77085865 -103.06633231 92.82416946 -99.15234375 90.21484375 C-84.47545051 85.66201156 -67.50141201 93.90599658 -54.61279297 100.51757812 C-42.13996348 107.18276817 -30.52682847 114.83775028 -19.15234375 123.21484375 C-17.98790108 124.05986561 -16.82258466 124.90368522 -15.65625 125.74609375 C-13.14858413 127.56055772 -10.64716829 129.38279118 -8.15234375 131.21484375 C-5.35248279 129.93580251 -3.28700499 128.60378986 -1.10302734 126.44018555 C-0.53498383 125.88167404 0.03305969 125.32316254 0.61831665 124.74772644 C1.22251434 124.14261734 1.82671204 123.53750824 2.44921875 122.9140625 C3.40397598 121.96573296 3.40397598 121.96573296 4.37802124 120.99824524 C5.72705749 119.6549505 7.07348244 118.30902894 8.41748047 116.96069336 C10.43596215 114.93909451 12.46725506 112.9310709 14.5 110.92382812 C28.14815715 97.34466037 44.19720563 81.0480317 44.94140625 60.64453125 C44.5153131 48.18130669 37.58166407 38.58991974 28.84765625 30.21484375 C20.08626876 22.14880447 10.37696002 19.40211992 -1.4453125 19.7734375 C-12.06701323 21.03819217 -19.90616164 26.80743295 -28.15234375 33.21484375 C-31.33069647 35.33374556 -33.3471359 35.75824395 -37.14453125 35.66015625 C-39.15234375 35.21484375 -39.15234375 35.21484375 -42.15234375 32.58984375 C-45.17725478 27.48530638 -45.17725478 27.48530638 -44.15234375 23.21484375 C-36.74173521 11.67411899 -22.98242962 4.86922094 -10.12890625 1.3984375 C-6.75915196 0.72354273 -3.41599791 0.34097983 0 0 Z " fill="#D25627" transform="translate(229.15234375,49.78515625)"/>
<path d="M0 0 C1.39086185 2.78172371 0.87076994 4.89519168 0.6875 8 C0.61707141 42.61564996 31.94155887 77.9183455 53 103 C53.87114079 104.04683585 54.74223238 105.09371266 55.61328125 106.140625 C61.42367437 113.09423318 67.42122277 119.84165983 73.59082031 126.47753906 C75.02486297 128.02686165 76.44723342 129.5861996 77.8671875 131.1484375 C87.08736547 141.26803254 96.49556103 151.38283631 106.95703125 160.23828125 C109.10519577 162.09071375 111.18605697 164.00836554 113.2644043 165.93847656 C119.31375633 171.55184786 125.55559737 176.84107266 132 182 C133.14261984 182.93404903 134.28451019 183.86899094 135.42578125 184.8046875 C144.64335797 192.32389979 154.16636584 199.30833188 164 206 C164.59103516 206.4031543 165.18207031 206.80630859 165.79101562 207.22167969 C183.91161839 219.4797345 206.22622699 234.49965121 229 233 C231.44441201 232.50246481 233.6368624 231.8219609 236 231 C232.83117744 234.52266131 229.30534586 236.75587747 225.1875 239 C224.49591797 239.38172363 223.80433594 239.76344727 223.09179688 240.15673828 C220.73397329 241.44942279 218.36822723 242.72647989 216 244 C215.13842285 244.4650293 214.2768457 244.93005859 213.38916016 245.40917969 C207.65607146 248.48979924 201.88248826 251.47833416 196.07470703 254.41552734 C192.91408802 256.04427257 189.80157804 257.74831626 186.68359375 259.45703125 C171.82113919 267.32627333 171.82113919 267.32627333 165.08203125 266.546875 C162.05114384 265.08295283 159.4952543 263.45124281 156.85107422 261.37548828 C154.01396352 259.26730025 150.94621111 257.60080559 147.87915039 255.85205078 C126.59043026 243.60086113 106.77452884 228.79316589 88 213 C87.46842285 212.55333984 86.9368457 212.10667969 86.38916016 211.64648438 C73.23821737 200.56806122 60.79769077 188.88736771 48.625 176.75 C48.10262756 176.2303064 47.58025513 175.71061279 47.04205322 175.1751709 C41.14138917 169.29746122 35.39173202 163.35447856 30 157 C29.05103122 155.91660731 28.10056224 154.83452643 27.1484375 153.75390625 C19.96521079 145.51869432 13.23536086 136.99824825 6.68847656 128.25048828 C4.97744496 125.96993749 3.25092048 123.70169885 1.5234375 121.43359375 C-6.44535788 110.89111526 -13.6887356 100.03813937 -20.41552734 88.66259766 C-21.49011675 86.85682384 -22.57952725 85.05980325 -23.68212891 83.27099609 C-25.3191113 80.61464389 -26.91363372 77.93681176 -28.5 75.25 C-28.99975342 74.45279541 -29.49950684 73.65559082 -30.0144043 72.83422852 C-31.70743054 69.88130469 -33.09351786 67.44376913 -32.86914062 63.97973633 C-32.13012788 61.50946385 -31.12629358 59.32202205 -30 57 C-29.21399414 55.27837646 -29.21399414 55.27837646 -28.41210938 53.52197266 C-26.50313763 49.379986 -24.50634629 45.28299563 -22.5 41.1875 C-22.14539703 40.45955231 -21.79079407 39.73160461 -21.42544556 38.9815979 C-6.07564154 7.491325 -6.07564154 7.491325 0 0 Z " fill="#EFC319" transform="translate(123,147)"/>
<path d="M0 0 C3.25303747 1.08434582 3.68712166 1.56000761 5.6015625 4.2109375 C6.32956055 5.20407959 6.32956055 5.20407959 7.07226562 6.21728516 C7.58466797 6.92933105 8.09707031 7.64137695 8.625 8.375 C9.70917857 9.85025261 10.79512456 11.32420791 11.8828125 12.796875 C12.41551758 13.51939453 12.94822266 14.24191406 13.49707031 14.98632812 C16.83510182 19.45872642 20.40353094 23.73484071 24 28 C24.44811035 28.53302734 24.8962207 29.06605469 25.35791016 29.61523438 C36.28418541 42.58625759 47.77901467 54.86755602 59.75 66.875 C60.24577545 67.37345428 60.7415509 67.87190857 61.25234985 68.38546753 C66.98785722 74.14446405 72.8051287 79.73444419 79 85 C80.08331406 85.94905855 81.16539534 86.89952656 82.24609375 87.8515625 C91.19034879 95.65257735 100.49950529 102.89192491 110 110 C110.6408252 110.48355957 111.28165039 110.96711914 111.94189453 111.46533203 C127.46576638 123.17192463 143.78058006 133.21055832 160.72753906 142.72216797 C163.82764193 144.46539298 166.91432626 146.23138212 170 148 C167.86110746 150.3566366 165.96590491 151.65806835 163.04882812 152.91015625 C162.25439804 153.25516678 161.45996796 153.60017731 160.64146423 153.9556427 C159.78009354 154.32090561 158.91872284 154.68616852 158.03125 155.0625 C157.13092545 155.45076462 156.23060089 155.83902924 155.30299377 156.23905945 C152.37188259 157.5003691 149.43626103 158.75073077 146.5 160 C144.49265565 160.85889365 142.48541303 161.7180251 140.47827148 162.57739258 C134.65782916 165.06499321 128.82995851 167.53480058 123 170 C122.20507141 170.33690857 121.41014282 170.67381714 120.59112549 171.02093506 C116.08913374 172.92840422 111.57974764 174.81643549 107.0625 176.6875 C105.45181641 177.36329102 105.45181641 177.36329102 103.80859375 178.05273438 C102.83148438 178.45169922 101.854375 178.85066406 100.84765625 179.26171875 C100.02273682 179.60162842 99.19781738 179.94153809 98.34790039 180.29174805 C95.7260962 181.08262399 93.72447294 181.25339426 91 181 C88.54492672 179.62469077 86.34648183 178.24155753 84.0625 176.625 C83.40717285 176.17382812 82.7518457 175.72265625 82.07666016 175.2578125 C80.04210864 173.85096775 78.02030746 172.42720327 76 171 C74.78782484 170.15355357 73.57558776 169.30719581 72.36328125 168.4609375 C60.51901615 160.13798494 49.12548475 151.26096446 38 142 C37.21061035 141.34813721 37.21061035 141.34813721 36.40527344 140.68310547 C29.98897072 135.38014242 23.83706444 129.99837936 18.0234375 124.02734375 C16.18444861 122.18480469 14.29872671 120.49283103 12.3125 118.8125 C3.20634764 110.9863289 -5.29741026 102.20237283 -13 93 C-13.49346924 92.50830322 -13.98693848 92.01660645 -14.49536133 91.51000977 C-17.97659289 87.87726346 -19.72947258 85.31874028 -19.78295898 80.05371094 C-19.75145752 79.31411133 -19.71995605 78.57451172 -19.6875 77.8125 C-19.66824463 77.0071582 -19.64898926 76.20181641 -19.62915039 75.37207031 C-18.50321529 49.40534337 -11.1614054 23.37449337 0 0 Z " fill="#955BA4" transform="translate(121,265)"/>
<path d="M0 0 C15.58828621 -0.72571165 29.87383474 5.25729142 41.60546875 15.15234375 C45.00856481 18.28271783 48.00414877 21.57138972 50.84765625 25.21484375 C51.44449219 25.97539063 52.04132813 26.7359375 52.65625 27.51953125 C62.65892314 40.98549552 65.36733555 54.88842531 63.4921875 71.33203125 C62.21584081 77.51674472 59.70056002 82.99915889 56.84765625 88.58984375 C56.52289307 89.23687256 56.19812988 89.88390137 55.86352539 90.55053711 C48.40672126 104.38200559 37.00592722 115.49132602 25.9309082 126.4128418 C23.64585596 128.66644724 21.37191554 130.93081529 19.09960938 133.19726562 C17.62692686 134.6607852 16.1536408 136.12369777 14.6796875 137.5859375 C13.67782158 138.5814286 13.67782158 138.5814286 12.65571594 139.59703064 C8.79093532 143.40420772 4.81397888 147.02331542 0.71092224 150.57148743 C-1.94032023 152.90982028 -4.41025939 155.3785509 -6.89453125 157.89453125 C-7.63620041 158.64188034 -7.63620041 158.64188034 -8.39285278 159.40432739 C-9.94020468 160.96369351 -11.48418474 162.526329 -13.02734375 164.08984375 C-15.08436328 166.1734463 -17.14468359 168.25370398 -19.20703125 170.33203125 C-20.56030518 171.70270752 -20.56030518 171.70270752 -21.94091797 173.10107422 C-24.50049087 175.54761674 -25.47114563 176.12401733 -28.96484375 176.58984375 C-32.15234375 176.21484375 -32.15234375 176.21484375 -35.02734375 174.15234375 C-37.15234375 171.21484375 -37.15234375 171.21484375 -37.90234375 167.90234375 C-35.94412981 158.27445852 -24.55562325 150.54207173 -17.6953125 143.77832031 C-11.04737457 137.25278467 -11.04737457 137.25278467 -4.796875 130.3515625 C-1.67973807 126.70609728 1.67071793 123.34684278 5.0859375 119.984375 C5.65593475 119.42225311 6.22593201 118.86013123 6.8132019 118.28097534 C9.18445233 115.94600886 11.55813262 113.61369612 13.94213867 111.29174805 C27.8515728 97.72367326 44.18946576 81.260233 44.94140625 60.64453125 C44.5153131 48.18130669 37.58166407 38.58991974 28.84765625 30.21484375 C20.08626876 22.14880447 10.37696002 19.40211992 -1.4453125 19.7734375 C-12.06701323 21.03819217 -19.90616164 26.80743295 -28.15234375 33.21484375 C-31.33069647 35.33374556 -33.3471359 35.75824395 -37.14453125 35.66015625 C-39.15234375 35.21484375 -39.15234375 35.21484375 -42.15234375 32.58984375 C-45.17725478 27.48530638 -45.17725478 27.48530638 -44.15234375 23.21484375 C-36.74173521 11.67411899 -22.98242962 4.86922094 -10.12890625 1.3984375 C-6.75915196 0.72354273 -3.41599791 0.34097983 0 0 Z " fill="#955AA5" transform="translate(229.15234375,49.78515625)"/>
<path d="M0 0 C3.25303747 1.08434582 3.68712166 1.56000761 5.6015625 4.2109375 C6.32956055 5.20407959 6.32956055 5.20407959 7.07226562 6.21728516 C7.58466797 6.92933105 8.09707031 7.64137695 8.625 8.375 C9.70917857 9.85025261 10.79512456 11.32420791 11.8828125 12.796875 C12.41551758 13.51939453 12.94822266 14.24191406 13.49707031 14.98632812 C16.83507464 19.45869 20.40300074 23.73533031 24 28 C24.45342773 28.53834473 24.90685547 29.07668945 25.37402344 29.63134766 C26.87008468 31.4037355 28.37115598 33.17171151 29.875 34.9375 C30.37475342 35.52466797 30.87450684 36.11183594 31.3894043 36.71679688 C33.94009397 39.68802889 36.53462837 42.59219889 39.24609375 45.41796875 C39.76123535 45.95881104 40.27637695 46.49965332 40.80712891 47.05688477 C42.23156857 48.54069533 43.67197806 50.00912689 45.11328125 51.4765625 C47 54 47 54 46.91015625 55.98046875 C46.60980469 56.64691406 46.30945313 57.31335938 46 58 C45.71382813 58.89074219 45.42765625 59.78148437 45.1328125 60.69921875 C44.80023438 61.68535156 44.46765625 62.67148437 44.125 63.6875 C43.79757813 64.66074219 43.47015625 65.63398438 43.1328125 66.63671875 C42.52572249 68.43914807 41.91586384 70.2407189 41.28833008 72.03613281 C39.32204945 77.74635812 37.80791662 83.49561009 36.4375 89.375 C36.22931641 90.24382812 36.02113281 91.11265625 35.80664062 92.0078125 C33.32165731 102.53977941 31.68144632 112.89301764 30.875 123.6875 C30.78863281 124.78255859 30.70226562 125.87761719 30.61328125 127.00585938 C30.40385501 129.67022655 30.19950749 132.33487497 30 135 C22.7092768 128.84005194 22.7092768 128.84005194 19.5625 125.5625 C17.27134861 123.2309759 14.93166345 121.04957884 12.4375 118.9375 C3.30101286 111.05014196 -5.25618818 102.25162133 -13 93 C-13.49346924 92.50830322 -13.98693848 92.01660645 -14.49536133 91.51000977 C-17.97659289 87.87726346 -19.72947258 85.31874028 -19.78295898 80.05371094 C-19.75145752 79.31411133 -19.71995605 78.57451172 -19.6875 77.8125 C-19.66824463 77.0071582 -19.64898926 76.20181641 -19.62915039 75.37207031 C-18.50321529 49.40534337 -11.1614054 23.37449337 0 0 Z " fill="#B499C8" transform="translate(121,265)"/>
<path d="M0 0 C11.88649974 9.6989621 22.56869242 24.21407709 25.07421875 39.5625 C26.16230822 50.77800084 25.46432976 61.07577714 21.07421875 71.5625 C20.67332031 72.56539063 20.27242187 73.56828125 19.859375 74.6015625 C16.20384737 82.80265928 11.08458419 89.93090449 4.07421875 95.5625 C0.72973484 96.72137892 -1.5943193 96.73301366 -4.92578125 95.5625 C-8.32644464 93.43708538 -8.80829866 91.9932695 -9.86328125 88.125 C-9.94758893 83.31946202 -8.61243764 81.33224292 -5.33984375 77.8984375 C2.76190795 69.30138221 6.33156083 59.36806787 6.07421875 47.5625 C5.17123971 35.25941051 -1.11050675 25.31085151 -9.90625 16.984375 C-18.20863388 10.32528314 -26.88496532 7.04439118 -37.4453125 7.16015625 C-60.82794339 9.86319888 -78.10779653 30.56192513 -93.67578125 46.3125 C-106.79535197 59.58407679 -106.79535197 59.58407679 -113.10595703 64.94335938 C-115.16510683 66.77543363 -117.05890573 68.71646799 -118.9609375 70.7109375 C-119.62544922 71.40574219 -120.28996094 72.10054688 -120.97460938 72.81640625 C-122.33064288 74.24477908 -123.67686421 75.68252419 -125.01367188 77.12890625 C-128.23554754 80.46663167 -130.17416749 82.3443146 -134.70703125 83.66015625 C-137.92578125 83.5625 -137.92578125 83.5625 -141.36328125 81.625 C-144.10987056 78.34249082 -144.47250841 76.80247102 -144.32254028 72.59350586 C-143.64583485 69.12945694 -141.42683803 67.09621784 -138.921875 64.8125 C-138.40577164 64.31008789 -137.88966827 63.80767578 -137.35792542 63.29003906 C-135.71097764 61.69418599 -134.03889324 60.12817638 -132.36328125 58.5625 C-130.71897362 56.9911811 -129.08040885 55.41410644 -127.44361877 53.83496094 C-126.42738994 52.85836331 -125.40595118 51.88714165 -124.3780365 50.92285156 C-120.92904865 47.65995615 -117.81831821 44.18756064 -114.71611023 40.59524536 C-111.86729637 37.36069282 -108.84891607 34.30364422 -105.8125 31.24609375 C-105.15804398 30.58593765 -104.50358795 29.92578156 -103.82929993 29.24562073 C-102.45504694 27.861998 -101.07939462 26.47976381 -99.70239258 25.09887695 C-97.62178699 23.0085455 -95.55211822 20.90776669 -93.48242188 18.80664062 C-86.74491836 12.01397709 -80.20033166 5.4931688 -71.92578125 0.5625 C-71.20092529 0.12929443 -70.47606934 -0.30391113 -69.72924805 -0.75024414 C-46.65990672 -14.00954151 -22.50366329 -16.79786631 0 0 Z " fill="#FE5263" transform="translate(427.92578125,222.4375)"/>
<path d="M0 0 C3.5672919 2.6863259 6.31882724 5.42200407 9.0625 8.9375 C13.96598518 15.05665788 19.24721242 20.75781619 24.59814453 26.48486328 C26.57924962 28.62605766 28.5063708 30.81374914 30.4375 33 C37.77597086 41.17905934 45.53613375 49.09742775 53.92578125 56.203125 C56.07449231 58.06453194 58.1459518 59.99877655 60.21948242 61.94311523 C65.79875327 67.16283505 71.5634304 71.80330386 77.796875 76.22265625 C78.52390625 76.80917969 79.2509375 77.39570313 80 78 C80 78.66 80 79.32 80 80 C17.86665568 99.13860421 17.86665568 99.13860421 2 91 C-6.97914412 85.6522317 -12.14014591 77.97817168 -15 68 C-15.99728184 57.03140849 -14.3658209 47.32192221 -11.375 36.75 C-11.00889301 35.4038745 -10.64424603 34.05735113 -10.28100586 32.71044922 C-9.21777981 28.79798206 -8.11375365 24.8983931 -7 21 C-6.68595215 19.89624023 -6.3719043 18.79248047 -6.04833984 17.65527344 C-1.38019323 1.38019323 -1.38019323 1.38019323 0 0 Z " fill="#FE5462" transform="translate(15,409)"/>
<path d="M0 0 C0.66 0 1.32 0 2 0 C2.2902002 0.55123535 2.58040039 1.1024707 2.87939453 1.67041016 C9.69749433 14.55494546 16.95783494 27.03397178 24.87109375 39.27734375 C25.39324463 40.09525391 25.91539551 40.91316406 26.45336914 41.75585938 C27.92492567 44.00110688 27.92492567 44.00110688 29.65405273 45.80664062 C31.1484375 47.46484375 31.1484375 47.46484375 33 51 C32.41304894 54.84045066 30.8240693 58.1247156 29.1875 61.625 C28.30523948 63.68831679 27.43036072 65.75480396 26.5625 67.82421875 C26.12292969 68.8611084 25.68335938 69.89799805 25.23046875 70.96630859 C16.80731473 91.73339429 13.5626107 114.72061643 13 137 C-0.85413851 123.44326697 -12.10261213 107.36590877 -23.13275146 91.5032959 C-23.91563624 90.38127851 -24.70340722 89.26265381 -25.49615479 88.14758301 C-26.61242655 86.57357562 -27.70704949 84.98428366 -28.80078125 83.39453125 C-29.76238159 82.01551636 -29.76238159 82.01551636 -30.7434082 80.60864258 C-32.28037208 77.41795693 -32.10369654 76.31872985 -31 73 C-30.26158961 70.94503588 -29.47491537 68.90714312 -28.65625 66.8828125 C-28.41505432 66.28488892 -28.17385864 65.68696533 -27.925354 65.07092285 C-27.12224136 63.08673239 -26.31162519 61.1057224 -25.5 59.125 C-25.08264587 58.10052765 -25.08264587 58.10052765 -24.65686035 57.05535889 C-7.55242518 15.10485037 -7.55242518 15.10485037 0 0 Z " fill="#FE5463" transform="translate(89,213)"/>
<path d="M0 0 C4.1363901 2.28963816 7.79161614 5.06800627 11.53295898 7.9362793 C28.12560632 20.65341206 45.53827828 31.56513459 63.77587891 41.75439453 C66.86220457 43.48287242 69.9315178 45.24007431 73 47 C70.86110746 49.3566366 68.96590491 50.65806835 66.04882812 51.91015625 C64.857183 52.42767204 64.857183 52.42767204 63.64146423 52.9556427 C62.78009354 53.32090561 61.91872284 53.68616852 61.03125 54.0625 C60.13092545 54.45076462 59.23060089 54.83902924 58.30299377 55.23905945 C55.37188259 56.5003691 52.43626103 57.75073077 49.5 59 C47.49265565 59.85889365 45.48541303 60.7180251 43.47827148 61.57739258 C37.65782916 64.06499321 31.82995851 66.53480058 26 69 C25.20507141 69.33690857 24.41014282 69.67381714 23.59112549 70.02093506 C19.08913374 71.92840422 14.57974764 73.81643549 10.0625 75.6875 C8.98871094 76.13802734 7.91492188 76.58855469 6.80859375 77.05273438 C5.83148438 77.45169922 4.854375 77.85066406 3.84765625 78.26171875 C3.02273682 78.60162842 2.19781738 78.94153809 1.34790039 79.29174805 C-1.26994272 80.08142912 -3.27968765 80.24798274 -6 80 C-9.11328125 78.25 -9.11328125 78.25 -12.3125 76 C-13.38113281 75.2575 -14.44976562 74.515 -15.55078125 73.75 C-16.76314453 72.88375 -16.76314453 72.88375 -18 72 C-15.83461721 46.90703474 -10.83526922 22.90091699 0 0 Z " fill="#FE5463" transform="translate(218,366)"/>
<path d="M0 0 C3.34209522 0.81497814 4.93838632 2.83527152 6.90625 5.46484375 C7.51210938 6.20863281 8.11796875 6.95242187 8.7421875 7.71875 C24.08505623 27.44109658 28.35956414 50.46168254 25.625 74.98730469 C22.33195165 97.44926232 10.66206803 116.88221921 -3.09375 134.46484375 C-3.80273438 135.37621094 -4.51171875 136.28757813 -5.2421875 137.2265625 C-7.16954828 139.55647331 -8.23981266 140.54151108 -11.09375 141.46484375 C-15.00999485 141.79119749 -17.79952509 141.70021065 -21.09375 139.46484375 C-23.12758435 136.41409222 -23.82237354 134.4754483 -23.72265625 130.8125 C-22.59481017 126.60234166 -19.55760372 123.78914847 -16.734375 120.56640625 C-1.51742015 103.07708295 8.31391225 80.0461848 7.28125 56.65625 C6.19646468 42.04215777 0.73535919 28.36818028 -8.59375 17.02734375 C-10.65809699 14.42570096 -11.55256557 12.61490034 -11.78125 9.27734375 C-11.09375 5.46484375 -11.09375 5.46484375 -9.09375 2.46484375 C-5.75274961 0.23751015 -3.93799545 -0.30122726 0 0 Z " fill="#F0C418" transform="translate(331.09375,17.53515625)"/>
<path d="M0 0 C6.98686678 6.45373237 10.10090575 12.3468031 10.5 21.8125 C10.31304828 29.46126372 8.48137703 35.10515777 3.35546875 40.83984375 C-3.69698331 47.3510241 -10.11606036 48.59611486 -19.5625 48.3359375 C-26.8372788 47.62499321 -31.29528681 45.07434412 -36.375 39.875 C-41.53501942 33.57174275 -43.3630351 27.48256349 -42.9375 19.375 C-41.77402664 10.6795675 -37.86850156 4.43996867 -31 -1 C-21.5427049 -6.61269905 -8.97871914 -6.4825607 0 0 Z " fill="#FF5263" transform="translate(424,134)"/>
<path d="M0 0 C4.7909435 2.57176188 7.68391013 5.91427301 10.1796875 10.65625 C11.96232909 16.89549557 10.96301405 21.63298677 7.9296875 27.28125 C4.34590138 31.78658112 0.51028995 34.11345727 -5.0703125 35.28125 C-10.96971421 35.56271001 -15.32578907 33.6571609 -20.0703125 30.28125 C-23.81021862 25.45873947 -25.44961023 21.63130155 -25.34765625 15.46875 C-24.66939565 10.1190889 -22.04098805 5.84386245 -18.0078125 2.34375 C-12.73065039 -1.36149148 -6.15791437 -2.13784197 0 0 Z " fill="#945BA4" transform="translate(493.0703125,312.71875)"/>
<path d="M0 0 C5.64329678 5.22004952 8.10756585 9.55615442 8.5 17.3125 C7.71441049 23.59721607 5.12360422 27.34649667 0.21875 31.21875 C-4.52164219 34.23536321 -10.10374141 33.94648667 -15.5 33.3125 C-20.24581864 31.63103445 -23.46867872 28.97322784 -26 24.625 C-28.28593877 19.1818005 -28.77577633 13.59790631 -26.6171875 8.0390625 C-21.03948151 -1.89738063 -10.30658777 -4.96924767 0 0 Z " fill="#3A97D2" transform="translate(287.5,1.6875)"/>
<path d="M0 0 C4.52049994 2.45774754 7.55699234 5.73898468 9.875 10.375 C10.64019013 17.12372608 10.04301203 22.85588926 5.875 28.375 C0.84252084 32.3804426 -3.38329207 33.80759425 -9.7109375 33.71484375 C-14.61310561 33.02473271 -18.20322269 30.45918102 -21.51171875 26.87109375 C-24.94107886 21.87746412 -24.99170354 16.22082696 -24.125 10.375 C-21.76965564 5.48313094 -18.4076542 2.56421058 -14.125 -0.625 C-9.07076102 -2.30974633 -4.84044468 -2.20519314 0 0 Z " fill="#965CA2" transform="translate(97.125,397.625)"/>
<path d="M0 0 C1.97419922 -0.05607422 1.97419922 -0.05607422 3.98828125 -0.11328125 C8.18972832 0.37030664 9.75126487 1.34321157 12.6875 4.3125 C14.25685594 7.45121188 14.03951103 9.85105822 13.6875 13.3125 C11.694787 16.01382018 10.11442119 17.97228666 6.74707031 18.77514648 C4.51884338 18.94940263 2.35855553 18.94593696 0.125 18.875 C-0.62974609 18.88595703 -1.38449219 18.89691406 -2.16210938 18.90820312 C-5.77428821 18.86046508 -7.88711175 18.64215904 -10.77734375 16.40234375 C-13.36556367 12.87894004 -13.74235508 10.69702184 -13.3125 6.3125 C-9.45863599 0.53170398 -6.6239332 0.09471782 0 0 Z " fill="#3B96D2" transform="translate(455.3125,198.6875)"/>
<path d="M0 0 C4.63235294 2.26470588 4.63235294 2.26470588 6 5 C6.20393196 7.78804122 6.32370547 10.52161133 6.375 13.3125 C6.41238281 14.07240234 6.44976562 14.83230469 6.48828125 15.61523438 C6.55479725 19.86856322 6.37172768 21.51486388 3.6953125 25.0078125 C1 27 1 27 -2.5 27.5625 C-6.50538252 26.91877781 -8.15945826 25.84054174 -11 23 C-12.49352829 20.01294343 -12.26567862 16.9618749 -12.3125 13.6875 C-12.34988281 12.37136719 -12.38726562 11.05523437 -12.42578125 9.69921875 C-11.94219336 5.49777168 -10.96928843 3.93623513 -8 1 C-5.17998673 -0.41000664 -3.12992745 -0.24548451 0 0 Z " fill="#3A96D2" transform="translate(480,173)"/>
<path d="M0 0 C0.75990234 -0.03738281 1.51980469 -0.07476562 2.30273438 -0.11328125 C6.55606322 -0.17979725 8.20236388 0.00327232 11.6953125 2.6796875 C13.6875 5.375 13.6875 5.375 14.25 8.875 C13.60627781 12.88038252 12.52804174 14.53445826 9.6875 17.375 C6.70044343 18.86852829 3.6493749 18.64067862 0.375 18.6875 C-0.94113281 18.72488281 -2.25726563 18.76226562 -3.61328125 18.80078125 C-7.81472832 18.31719336 -9.37626487 17.34428843 -12.3125 14.375 C-13.72250664 11.55498673 -13.55798451 9.50492745 -13.3125 6.375 C-10.12599793 -0.14284514 -6.78027249 0.12461654 0 0 Z " fill="#945AA5" transform="translate(429.3125,51.625)"/>
<path d="M0 0 C4.00538252 0.64372219 5.65945826 1.72195826 8.5 4.5625 C9.99352829 7.54955657 9.76567862 10.6006251 9.8125 13.875 C9.84988281 15.19113281 9.88726562 16.50726563 9.92578125 17.86328125 C9.44219336 22.06472832 8.46928843 23.62626487 5.5 26.5625 C2.7201184 27.9524408 0.5813674 27.74738204 -2.5 27.5625 C-5.84265205 26.35543121 -6.44704566 25.64193151 -8.5 22.5625 C-8.77487822 19.72112728 -8.91589299 17.03002275 -8.9375 14.1875 C-8.97037109 13.43210937 -9.00324219 12.67671875 -9.03710938 11.8984375 C-9.07778468 7.66820629 -8.8569386 6.02694295 -6.19140625 2.55859375 C-3.5 0.5625 -3.5 0.5625 0 0 Z " fill="#955AA5" transform="translate(407.5,68.4375)"/>
<path d="M0 0 C0.639375 -0.01289063 1.27875 -0.02578125 1.9375 -0.0390625 C5.33472909 1.05474232 6.83705074 2.82719191 9 5.625 C9.50759417 8.53918773 9.70496569 10.7355729 9.625 13.625 C9.65400391 14.67300781 9.65400391 14.67300781 9.68359375 15.7421875 C9.64623282 19.70244637 9.13017839 21.46430439 6.6171875 24.56640625 C3.85140369 26.74188098 2.49368777 27.53765781 -1 27.625 C-3.84283106 26.88044901 -5.51843343 26.09726094 -7.6171875 24.0390625 C-9.55384663 20.65811521 -9.51382862 17.47999991 -9.5 13.6875 C-9.54253906 12.63272461 -9.54253906 12.63272461 -9.5859375 11.55664062 C-9.60067981 7.62412981 -9.13616635 5.80196963 -6.71875 2.66015625 C-3.08205716 -0.06213825 -3.08205716 -0.06213825 0 0 Z " fill="#955AA5" transform="translate(408,25.375)"/>
<path d="M0 0 C0.75474609 -0.01095703 1.50949219 -0.02191406 2.28710938 -0.03320312 C5.84113761 0.01376641 8.01396711 0.24904539 10.90234375 2.38671875 C13.1107802 5.51674191 13.4375 7.74582401 13.4375 11.5625 C10.51212687 17.20429104 10.51212687 17.20429104 6.4375 18.5625 C4.12730664 18.68320269 1.8133126 18.737863 -0.5 18.75 C-1.72589844 18.76417969 -2.95179688 18.77835938 -4.21484375 18.79296875 C-7.36444965 18.57613474 -9.00940703 18.34551852 -11.5625 16.5625 C-13.67462504 13.39431244 -13.89406464 11.43030748 -14.12109375 7.6953125 C-12.20011249 0.36065679 -6.40832624 -0.20352624 0 0 Z " fill="#945AA5" transform="translate(386.5625,51.4375)"/>
<path d="M0 0 C1.96076134 1.57749391 2.88287758 2.44071389 3.40405273 4.92944336 C3.43601105 7.26662602 3.4578253 9.6000908 3.4375 11.9375 C3.4674707 13.15469727 3.4674707 13.15469727 3.49804688 14.39648438 C3.49492398 18.20329801 3.45231424 20.34328424 1.25390625 23.53515625 C-2.42045441 25.92317228 -5.77101047 25.79293554 -10 25 C-12.50160818 23.12379387 -13.61945652 21.76108697 -15 19 C-15.14943856 16.73255726 -15.22144902 14.4596825 -15.25 12.1875 C-15.27578125 10.96417969 -15.3015625 9.74085938 -15.328125 8.48046875 C-14.97706982 4.75677635 -14.27410859 2.93226237 -12 0 C-7.39090657 -2.35575886 -4.65087742 -2.17040946 0 0 Z " fill="#3B97D3" transform="translate(483,218)"/>
<path d="M0 0 C1.20527344 -0.01675781 2.41054688 -0.03351563 3.65234375 -0.05078125 C7.2964895 0.33742672 9.16346822 1.11820523 12.0625 3.3125 C13.21243366 5.61236731 13.2941929 7.12719088 13.375 9.6875 C13.41238281 10.45835937 13.44976563 11.22921875 13.48828125 12.0234375 C13.0625 14.3125 13.0625 14.3125 11.60546875 16.5703125 C7.84308486 19.14792112 4.52041888 18.89795531 0.0625 18.8125 C-0.74445313 18.82796875 -1.55140625 18.8434375 -2.3828125 18.859375 C-6.25509946 18.83381535 -8.2829932 18.80567751 -11.44140625 16.42578125 C-13.26118902 13.85527869 -13.86389688 12.47743429 -13.9375 9.3125 C-11.90310171 2.99515796 -11.90310171 2.99515796 -9.2578125 1.125 C-6.11062883 0.02295589 -3.32962525 0.01066049 0 0 Z " fill="#3B96D2" transform="translate(498.9375,198.6875)"/>
</svg>
