<?xml version="1.0" encoding="UTF-8"?>
<!DOCTYPE svg PUBLIC "-//W3C//DTD SVG 1.1//EN" "http://www.w3.org/Graphics/SVG/1.1/DTD/svg11.dtd">
<svg xmlns="http://www.w3.org/2000/svg" version="1.1" width="300px" height="300px" style="shape-rendering:geometricPrecision; text-rendering:geometricPrecision; image-rendering:optimizeQuality; fill-rule:evenodd; clip-rule:evenodd" xmlns:xlink="http://www.w3.org/1999/xlink">
<g><path style="opacity:0.998" fill="#fefefe" d="M -0.5,-0.5 C 99.5,-0.5 199.5,-0.5 299.5,-0.5C 299.5,99.5 299.5,199.5 299.5,299.5C 199.5,299.5 99.5,299.5 -0.5,299.5C -0.5,199.5 -0.5,99.5 -0.5,-0.5 Z"/></g>
<g><path style="opacity:1" fill="#2c93d1" d="M 164.5,57.5 C 211.405,53.9567 244.905,73.29 265,115.5C 278.254,155.722 269.754,190.556 239.5,220C 205.672,246.025 169.672,249.359 131.5,230C 96.8168,206.787 81.9835,174.287 87,132.5C 94.9662,98.5336 115.133,75.0336 147.5,62C 153.287,60.4082 158.953,58.9082 164.5,57.5 Z"/></g>
<g><path style="opacity:1" fill="#323283" d="M 66.5,77.5 C 65.5012,125.33 65.1678,173.33 65.5,221.5C 54.1667,221.5 42.8333,221.5 31.5,221.5C 31.6667,173.499 31.5,125.499 31,77.5C 30.5,125.832 30.3333,174.166 30.5,222.5C 29.5012,174.003 29.1678,125.336 29.5,76.5C 42.0113,76.1714 54.3446,76.5048 66.5,77.5 Z"/></g>
<g><path style="opacity:1" fill="#222279" d="M 66.5,77.5 C 66.5,125.833 66.5,174.167 66.5,222.5C 54.5,222.5 42.5,222.5 30.5,222.5C 30.3333,174.166 30.5,125.832 31,77.5C 31.5,125.499 31.6667,173.499 31.5,221.5C 42.8333,221.5 54.1667,221.5 65.5,221.5C 65.1678,173.33 65.5012,125.33 66.5,77.5 Z"/></g>
<g><path style="opacity:1" fill="#fefefe" d="M 168.5,93.5 C 202.202,91.5771 224.035,106.577 234,138.5C 237.29,173.448 222.124,195.614 188.5,205C 154.076,207.903 132.242,192.736 123,159.5C 120.6,125.28 135.766,103.28 168.5,93.5 Z"/></g>
</svg>
