<?xml version="1.0" encoding="UTF-8"?>
<svg version="1.1" xmlns="http://www.w3.org/2000/svg" width="256" height="256">
<path d="M0 0 C1.16692383 0.36206543 1.16692383 0.36206543 2.35742188 0.73144531 C19.51676195 6.19248429 34.16162787 14.56332882 48 26 C48.77085937 26.6290625 49.54171875 27.258125 50.3359375 27.90625 C55.0491663 31.87908653 59.12096201 36.21502957 63 41 C63.69996094 41.86238281 64.39992187 42.72476563 65.12109375 43.61328125 C75.66206627 57.11376426 82.93038452 71.66081205 88 88 C88.2259082 88.70833984 88.45181641 89.41667969 88.68457031 90.14648438 C95.12454176 111.29649814 94.70003659 138.99189667 88 160 C87.75862305 160.77794922 87.51724609 161.55589844 87.26855469 162.35742188 C81.80751571 179.51676195 73.43667118 194.16162787 62 208 C61.3709375 208.77085937 60.741875 209.54171875 60.09375 210.3359375 C56.12091347 215.0491663 51.78497043 219.12096201 47 223 C46.13761719 223.69996094 45.27523437 224.39992187 44.38671875 225.12109375 C30.88623574 235.66206627 16.33918795 242.93038452 0 248 C-0.70833984 248.2259082 -1.41667969 248.45181641 -2.14648438 248.68457031 C-23.29649814 255.12454176 -50.99189667 254.70003659 -72 248 C-72.77794922 247.75862305 -73.55589844 247.51724609 -74.35742188 247.26855469 C-91.51676195 241.80751571 -106.16162787 233.43667118 -120 222 C-121.15628906 221.05640625 -121.15628906 221.05640625 -122.3359375 220.09375 C-127.0491663 216.12091347 -131.12096201 211.78497043 -135 207 C-135.69996094 206.13761719 -136.39992187 205.27523437 -137.12109375 204.38671875 C-147.66206627 190.88623574 -154.93038452 176.33918795 -160 160 C-160.2259082 159.29166016 -160.45181641 158.58332031 -160.68457031 157.85351562 C-167.12454176 136.70350186 -166.70003659 109.00810333 -160 88 C-159.75862305 87.22205078 -159.51724609 86.44410156 -159.26855469 85.64257812 C-153.80751571 68.48323805 -145.43667118 53.83837213 -134 40 C-133.3709375 39.22914062 -132.741875 38.45828125 -132.09375 37.6640625 C-128.12091347 32.9508337 -123.78497043 28.87903799 -119 25 C-118.13761719 24.30003906 -117.27523437 23.60007812 -116.38671875 22.87890625 C-102.88623574 12.33793373 -88.33918795 5.06961548 -72 0 C-71.29166016 -0.2259082 -70.58332031 -0.45181641 -69.85351562 -0.68457031 C-48.70350186 -7.12454176 -21.00810333 -6.70003659 0 0 Z " fill="#FFFFFF" transform="translate(164,4)"/>
<path d="M0 0 C11.90869846 4.76347939 21.09127649 14.00762651 30 23 C30.75539062 23.74636719 31.51078125 24.49273437 32.2890625 25.26171875 C57.70547606 51.65568668 64.86847892 86.3384605 64.23246765 121.73313904 C64.00371094 130.50137955 62.66446029 138.64552964 60 147 C59.75862305 147.77794922 59.51724609 148.55589844 59.26855469 149.35742188 C53.80751571 166.51676195 45.43667118 181.16162787 34 195 C33.3709375 195.77085937 32.741875 196.54171875 32.09375 197.3359375 C23.91640034 207.03724778 13.14256623 215.9187376 2 222 C1.34 222 0.68 222 0 222 C0 148.74 0 75.48 0 0 Z " fill="#ED2939" transform="translate(192,17)"/>
<path d="M0 0 C0 73.26 0 146.52 0 222 C-11.90869846 217.23652061 -21.09127649 207.99237349 -30 199 C-30.75539062 198.25363281 -31.51078125 197.50726563 -32.2890625 196.73828125 C-57.70547606 170.34431332 -64.86847892 135.6615395 -64.23246765 100.26686096 C-64.00371094 91.49862045 -62.66446029 83.35447036 -60 75 C-59.75862305 74.22205078 -59.51724609 73.44410156 -59.26855469 72.64257812 C-53.80751571 55.48323805 -45.43667118 40.83837213 -34 27 C-33.3709375 26.22914062 -32.741875 25.45828125 -32.09375 24.6640625 C-25.78484767 17.17941019 -10.23463147 0 0 0 Z " fill="#002395" transform="translate(64,17)"/>
</svg>
