<?xml version="1.0" encoding="UTF-8"?>
<svg version="1.1" xmlns="http://www.w3.org/2000/svg" width="256" height="256">
<path d="M0 0 C1.16692383 0.36206543 1.16692383 0.36206543 2.35742188 0.73144531 C19.51676195 6.19248429 34.16162787 14.56332882 48 26 C48.77085937 26.6290625 49.54171875 27.258125 50.3359375 27.90625 C55.0491663 31.87908653 59.12096201 36.21502957 63 41 C63.69996094 41.86238281 64.39992187 42.72476563 65.12109375 43.61328125 C75.66206627 57.11376426 82.93038452 71.66081205 88 88 C88.2259082 88.70833984 88.45181641 89.41667969 88.68457031 90.14648438 C95.12454176 111.29649814 94.70003659 138.99189667 88 160 C87.75862305 160.77794922 87.51724609 161.55589844 87.26855469 162.35742188 C81.80751571 179.51676195 73.43667118 194.16162787 62 208 C61.3709375 208.77085937 60.741875 209.54171875 60.09375 210.3359375 C56.12091347 215.0491663 51.78497043 219.12096201 47 223 C46.13761719 223.69996094 45.27523437 224.39992187 44.38671875 225.12109375 C30.88623574 235.66206627 16.33918795 242.93038452 0 248 C-0.70833984 248.2259082 -1.41667969 248.45181641 -2.14648438 248.68457031 C-23.29649814 255.12454176 -50.99189667 254.70003659 -72 248 C-72.77794922 247.75862305 -73.55589844 247.51724609 -74.35742188 247.26855469 C-91.51676195 241.80751571 -106.16162787 233.43667118 -120 222 C-121.15628906 221.05640625 -121.15628906 221.05640625 -122.3359375 220.09375 C-127.0491663 216.12091347 -131.12096201 211.78497043 -135 207 C-135.69996094 206.13761719 -136.39992187 205.27523437 -137.12109375 204.38671875 C-147.66206627 190.88623574 -154.93038452 176.33918795 -160 160 C-160.2259082 159.29166016 -160.45181641 158.58332031 -160.68457031 157.85351562 C-167.12454176 136.70350186 -166.70003659 109.00810333 -160 88 C-159.75862305 87.22205078 -159.51724609 86.44410156 -159.26855469 85.64257812 C-153.80751571 68.48323805 -145.43667118 53.83837213 -134 40 C-133.3709375 39.22914062 -132.741875 38.45828125 -132.09375 37.6640625 C-128.12091347 32.9508337 -123.78497043 28.87903799 -119 25 C-118.13761719 24.30003906 -117.27523437 23.60007812 -116.38671875 22.87890625 C-102.88623574 12.33793373 -88.33918795 5.06961548 -72 0 C-71.29166016 -0.2259082 -70.58332031 -0.45181641 -69.85351562 -0.68457031 C-48.70350186 -7.12454176 -21.00810333 -6.70003659 0 0 Z " fill="#DC0100" transform="translate(164,4)"/>
<path d="M0 0 C79.86 0 159.72 0 242 0 C240.01800327 5.9459902 238.10436202 11.34654667 235.3125 16.875 C234.96437256 17.56480957 234.61624512 18.25461914 234.25756836 18.96533203 C227.88762843 31.26975839 218.78650029 41.304396 209 51 C208.25363281 51.75539062 207.50726563 52.51078125 206.73828125 53.2890625 C180.34431332 78.70547606 145.6615395 85.86847892 110.26686096 85.23246765 C101.49862045 85.00371094 93.35447036 83.66446029 85 81 C83.83307617 80.63793457 83.83307617 80.63793457 82.64257812 80.26855469 C65.48323805 74.80751571 50.83837213 66.43667118 37 55 C36.22914062 54.3709375 35.45828125 53.741875 34.6640625 53.09375 C29.9508337 49.12091347 25.87903799 44.78497043 22 40 C21.30003906 39.13761719 20.60007812 38.27523437 19.87890625 37.38671875 C0 11.92655979 0 11.92655979 0 0 Z " fill="#FFCE00" transform="translate(7,171)"/>
<path d="M0 0 C1.16692383 0.36206543 1.16692383 0.36206543 2.35742188 0.73144531 C19.51676195 6.19248429 34.16162787 14.56332882 48 26 C48.77085937 26.6290625 49.54171875 27.258125 50.3359375 27.90625 C55.0491663 31.87908653 59.12096201 36.21502957 63 41 C63.69996094 41.86238281 64.39992187 42.72476563 65.12109375 43.61328125 C85 69.07344021 85 69.07344021 85 81 C5.14 81 -74.72 81 -157 81 C-155.01800327 75.0540098 -153.10436202 69.65345333 -150.3125 64.125 C-149.96437256 63.43519043 -149.61624512 62.74538086 -149.25756836 62.03466797 C-142.88762843 49.73024161 -133.78650029 39.695604 -124 30 C-123.25363281 29.24460938 -122.50726563 28.48921875 -121.73828125 27.7109375 C-91.25912925 -1.63935702 -40.2730277 -12.84412758 0 0 Z " fill="#000000" transform="translate(164,4)"/>
</svg>
