<?xml version="1.0" encoding="UTF-8"?>
<!DOCTYPE svg PUBLIC "-//W3C//DTD SVG 1.1//EN" "http://www.w3.org/Graphics/SVG/1.1/DTD/svg11.dtd">
<svg xmlns="http://www.w3.org/2000/svg" version="1.1" width="348px" height="231px" style="shape-rendering:geometricPrecision; text-rendering:geometricPrecision; image-rendering:optimizeQuality; fill-rule:evenodd; clip-rule:evenodd" xmlns:xlink="http://www.w3.org/1999/xlink">
<g><path style="opacity:1" fill="#fdfdfd" d="M -0.5,-0.5 C 115.5,-0.5 231.5,-0.5 347.5,-0.5C 347.5,76.5 347.5,153.5 347.5,230.5C 231.5,230.5 115.5,230.5 -0.5,230.5C -0.5,153.5 -0.5,76.5 -0.5,-0.5 Z"/></g>
<g><path style="opacity:1" fill="#4385f2" d="M 55.5,55.5 C 68.1988,55.6982 73.3655,62.0315 71,74.5C 66.9834,81.1375 61.1501,83.3042 53.5,81C 46.3659,76.5985 44.1993,70.4318 47,62.5C 49.4639,59.519 52.2972,57.1856 55.5,55.5 Z"/></g>
<g><path style="opacity:1" fill="#33a452" d="M 88.5,64.5 C 93.1585,64.0146 94.4919,65.848 92.5,70C 87.7282,70.8104 86.3948,68.9771 88.5,64.5 Z"/></g>
<g><path style="opacity:1" fill="#e84232" d="M 77.5,69.5 C 83.0284,68.0693 86.3617,70.0693 87.5,75.5C 86.3493,81.0913 83.016,82.9246 77.5,81C 73.5419,77.0923 73.5419,73.2589 77.5,69.5 Z"/></g>
<g><path style="opacity:1" fill="#f8bc0f" d="M 77.5,84.5 C 86.56,84.0461 89.7266,88.0461 87,96.5C 82.0688,102.172 77.7354,101.839 74,95.5C 72.6624,90.9597 73.8291,87.293 77.5,84.5 Z"/></g>
<g><path style="opacity:1" fill="#e8e8e9" d="M 49.5,103.5 C 53.9415,106.224 58.6082,108.724 63.5,111C 67.5,111.667 71.5,112.333 75.5,113C 136.833,113.333 198.167,113.667 259.5,114C 271.074,117.242 278.241,124.742 281,136.5C 282.269,153.136 275.103,164.303 259.5,170C 196.833,170.667 134.167,170.667 71.5,170C 60.4414,167.275 53.2747,160.442 50,149.5C 49.5001,134.17 49.3334,118.837 49.5,103.5 Z"/></g>
<g><path style="opacity:1" fill="#fbfbfb" d="M 50.5,105.5 C 56.6073,110.373 63.6073,113.206 71.5,114C 134.86,114.026 198.194,114.692 261.5,116C 279.727,125.97 283.894,140.137 274,158.5C 268.943,164.634 262.443,168.134 254.5,169C 194.5,169.667 134.5,169.667 74.5,169C 63.3982,167.201 55.8982,161.034 52,150.5C 50.5662,135.558 50.0662,120.558 50.5,105.5 Z"/></g>
<g><path style="opacity:1" fill="#3e3e3e" d="M 93.5,146.5 C 95.9701,147.36 96.1368,148.694 94,150.5C 93.51,149.207 93.3433,147.873 93.5,146.5 Z"/></g>
<g><path style="opacity:1" fill="#232323" d="M 155.5,136.5 C 158.061,136.447 160.061,137.447 161.5,139.5C 159.526,138.567 157.192,138.567 154.5,139.5C 152.288,146.12 154.455,148.12 161,145.5C 161.617,146.449 161.451,147.282 160.5,148C 154.212,149.378 151.379,146.878 152,140.5C 152.69,138.65 153.856,137.316 155.5,136.5 Z"/></g>
<g><path style="opacity:1" fill="#141414" d="M 250.5,146.5 C 252.337,146.639 252.67,147.306 251.5,148.5C 250.702,148.043 250.369,147.376 250.5,146.5 Z"/></g>
<g><path style="opacity:1" fill="#242424" d="M 123.5,147.5 C 117.853,149.032 115.353,146.699 116,140.5C 119.667,135.167 123.333,135.167 127,140.5C 127.92,143.994 126.754,146.327 123.5,147.5 Z"/></g>
<g><path style="opacity:1" fill="#202023" d="M 207.5,138.5 C 209.45,136.048 211.616,136.048 214,138.5C 214.824,141.882 214.657,145.216 213.5,148.5C 212.679,145.553 212.179,142.553 212,139.5C 210.644,138.62 209.144,138.286 207.5,138.5 Z"/></g>
<g><path style="opacity:1" fill="#1e1e1e" d="M 135.5,140.5 C 135.663,143.686 134.663,146.353 132.5,148.5C 131.262,144.95 129.928,141.45 128.5,138C 129.483,137.409 130.15,137.743 130.5,139C 131.137,141.245 131.97,143.412 133,145.5C 133.374,143.509 134.207,141.842 135.5,140.5 Z"/></g>
<g><path style="opacity:1" fill="#474747" d="M 229.5,132.5 C 230.812,134.743 231.478,137.41 231.5,140.5C 231.167,143.167 230.833,145.833 230.5,148.5C 229.505,143.208 229.172,137.875 229.5,132.5 Z"/></g>
<g><path style="opacity:1" fill="#1a191a" d="M 220.5,136.5 C 224.693,136.362 227.027,138.362 227.5,142.5C 224.428,142.183 221.428,142.516 218.5,143.5C 219.04,144.748 219.707,145.915 220.5,147C 223.073,147.428 225.406,147.094 227.5,146C 219.83,150.676 216.664,148.509 218,139.5C 219.045,138.627 219.878,137.627 220.5,136.5 Z"/></g>
<g><path style="opacity:1" fill="#1d1d1d" d="M 166.5,136.5 C 171.703,136.353 174.036,138.853 173.5,144C 173.333,145.5 173.167,147 173,148.5C 170.631,148.273 168.131,148.107 165.5,148C 163.338,142.322 165.338,140.156 171.5,141.5C 171.5,140.5 171.5,139.5 171.5,138.5C 169.409,138.318 167.409,138.652 165.5,139.5C 165.167,139.333 164.833,139.167 164.5,139C 165.381,138.292 166.047,137.458 166.5,136.5 Z"/></g>
<g><path style="opacity:1" fill="#dbdbdb" d="M 166.5,142.5 C 168.167,142.5 169.833,142.5 171.5,142.5C 171.804,145.233 170.637,146.899 168,147.5C 165.389,146.5 164.889,144.833 166.5,142.5 Z"/></g>
<g><path style="opacity:1" fill="#1e1e1e" d="M 135.5,140.5 C 135.5,139.5 135.5,138.5 135.5,137.5C 136.5,137.5 137.5,137.5 138.5,137.5C 139.613,147.184 141.113,147.518 143,138.5C 143.889,137.112 144.389,137.278 144.5,139C 142.069,151.154 139.569,151.321 137,139.5C 136.617,140.056 136.117,140.389 135.5,140.5 Z"/></g>
<g><path style="opacity:1" fill="#ebebeb" d="M 123.5,147.5 C 117.357,146.974 116.024,144.14 119.5,139C 124.496,138.336 126.33,140.502 125,145.5C 124.283,146.044 123.783,146.711 123.5,147.5 Z"/></g>
<g><path style="opacity:1" fill="#0f0f0f" d="M 104.5,132.5 C 105.309,134.292 105.809,136.292 106,138.5C 108.423,136.006 110.756,136.006 113,138.5C 113.667,141.833 113.667,145.167 113,148.5C 112.667,145.833 112.333,143.167 112,140.5C 110.084,137.967 108.084,137.967 106,140.5C 105.667,143.167 105.333,145.833 105,148.5C 104.501,143.177 104.334,137.844 104.5,132.5 Z"/></g>
<g><path style="opacity:1" fill="#eeeeef" d="M 220.5,138.5 C 222.665,138.116 224.332,138.783 225.5,140.5C 223.235,141.647 220.902,141.814 218.5,141C 219.381,140.292 220.047,139.458 220.5,138.5 Z"/></g>
<g><path style="opacity:1" fill="#4f4f4f" d="M 194.5,132.5 C 195.812,134.743 196.478,137.41 196.5,140.5C 196.167,143.167 195.833,145.833 195.5,148.5C 194.505,143.208 194.172,137.875 194.5,132.5 Z"/></g>
<g><path style="opacity:1" fill="#252525" d="M 179.5,138.5 C 181.322,135.962 183.322,135.962 185.5,138.5C 186.833,141.833 186.833,145.167 185.5,148.5C 184.679,145.553 184.179,142.553 184,139.5C 182.644,138.62 181.144,138.286 179.5,138.5 Z"/></g>
<g><path style="opacity:1" fill="#606060" d="M 88.5,136.5 C 89.7943,138.048 90.4609,140.048 90.5,142.5C 90.1667,144.5 89.8333,146.5 89.5,148.5C 88.5091,144.555 88.1758,140.555 88.5,136.5 Z"/></g>
<g><path style="opacity:1" fill="#1f1f1f" d="M 237.5,138.5 C 239.45,136.048 241.616,136.048 244,138.5C 246.154,142.058 245.654,145.225 242.5,148C 240.559,148.743 238.726,148.576 237,147.5C 236.808,149.577 236.308,151.577 235.5,153.5C 234.337,148.198 234.171,142.864 235,137.5C 235.671,138.252 236.504,138.586 237.5,138.5 Z"/></g>
<g><path style="opacity:1" fill="#eeeeee" d="M 237.5,138.5 C 243.067,137.753 244.9,140.087 243,145.5C 241,148.167 239,148.167 237,145.5C 236.297,143.071 236.463,140.738 237.5,138.5 Z"/></g>
<g><path style="opacity:1" fill="#161616" d="M 179.5,138.5 C 178.907,141.8 178.24,145.134 177.5,148.5C 176.341,144.878 176.175,141.211 177,137.5C 177.671,138.252 178.504,138.586 179.5,138.5 Z"/></g>
<g><path style="opacity:1" fill="#1b1b1b" d="M 248.5,132.5 C 253.501,131.671 255.668,133.671 255,138.5C 253.383,139.851 252.216,141.518 251.5,143.5C 250.417,142.635 250.251,141.635 251,140.5C 255.196,138.2 255.362,135.867 251.5,133.5C 248.552,136.499 247.552,136.166 248.5,132.5 Z"/></g>
<g><path style="opacity:1" fill="#080808" d="M 207.5,138.5 C 206.997,141.846 206.33,145.179 205.5,148.5C 204.167,143.167 204.167,137.833 205.5,132.5C 206.169,134.631 206.835,136.631 207.5,138.5 Z"/></g>
<g><path style="opacity:1" fill="#010101" d="M 88.5,132.5 C 90.337,132.639 90.6704,133.306 89.5,134.5C 88.7025,134.043 88.3691,133.376 88.5,132.5 Z"/></g>
<g><path style="opacity:1" fill="#000000" d="M 83.5,141.5 C 80.7131,140.523 77.7131,140.19 74.5,140.5C 74.5,143.167 74.5,145.833 74.5,148.5C 73.271,137.627 73.271,134.627 74.5,139.5C 77.5,139.5 80.5,139.5 83.5,139.5C 84.8333,140.167 84.8333,140.833 83.5,141.5 Z"/></g>
<g><path style="opacity:1" fill="#989898" d="M 83.5,141.5 C 80.8333,141.5 78.1667,141.5 75.5,141.5C 75.8016,144.059 75.4682,146.393 74.5,148.5C 74.5,145.833 74.5,143.167 74.5,140.5C 77.7131,140.19 80.7131,140.523 83.5,141.5 Z"/></g>
</svg>
