<?xml version="1.0" encoding="UTF-8"?>
<svg version="1.1" xmlns="http://www.w3.org/2000/svg" width="256" height="256">
<path d="M0 0 C6.42152689 5.3960359 12.45296206 11.29180767 16.9375 18.4375 C16.9375 19.0975 16.9375 19.7575 16.9375 20.4375 C17.5975 20.4375 18.2575 20.4375 18.9375 20.4375 C19.26427734 19.39529297 19.26427734 19.39529297 19.59765625 18.33203125 C21.28120754 14.69497147 23.66135345 12.01589211 26.375 9.125 C26.91068604 8.55322021 27.44637207 7.98144043 27.99829102 7.39233398 C41.27273073 -6.44506239 58.07052909 -14.26357889 77.3125 -15 C95.42345271 -14.47121306 111.07613473 -6.97572876 123.57373047 5.97265625 C139.21939602 22.77788241 142.76753819 40.04310585 142.10791016 62.33398438 C140.16296762 97.75534469 111.69070745 124.73757112 88.1875 148.3125 C87.69199646 148.81068237 87.19649292 149.30886475 86.68597412 149.82214355 C81.4857303 155.0436831 76.25991393 160.1886109 70.63378906 164.95556641 C68.8173571 166.54246077 67.12573501 168.21554056 65.4375 169.9375 C62.39917583 173.03106643 59.1898468 175.85855507 55.90625 178.6875 C54.00726929 180.37548286 52.21744012 182.12519734 50.4375 183.9375 C47.39917583 187.03106643 44.1898468 189.85855507 40.90625 192.6875 C38.40114625 194.91425889 36.07406826 197.28930492 33.7265625 199.6796875 C31.18937764 202.17255472 28.49808904 204.47161295 25.8046875 206.79296875 C23.40237962 208.90880895 21.16541166 211.1399661 18.9375 213.4375 C15.45095524 211.9533627 13.29558928 209.97535948 10.6875 207.25 C7.20445843 203.68130987 3.61868787 200.3616809 -0.1640625 197.1171875 C-2.65209026 194.91584607 -4.95444077 192.55661485 -7.28125 190.1875 C-9.14639674 188.35507513 -11.08177746 186.64396865 -13.0625 184.9375 C-16.29206367 182.15510668 -19.29572653 179.22730571 -22.28125 176.1875 C-24.14639674 174.35507513 -26.08177746 172.64396865 -28.0625 170.9375 C-31.26484618 168.1785556 -34.2467699 165.2792435 -37.20483398 162.26269531 C-38.9155363 160.58189488 -40.67330614 159.03209375 -42.50390625 157.484375 C-47.84819019 152.83439329 -52.84667533 147.83937269 -57.8527832 142.83251953 C-59.48825882 141.19922552 -61.13157708 139.5741153 -62.77539062 137.94921875 C-69.33496122 131.42450464 -75.33329362 124.71334589 -81.0625 117.4375 C-81.97660878 116.32861561 -82.89281379 115.22145048 -83.8125 114.1171875 C-101.42190837 92.16657081 -107.77718383 68.41908433 -106.0625 40.4375 C-105.44649272 35.80893147 -104.02876778 31.66925021 -102.0625 27.4375 C-101.62679687 26.49261719 -101.19109375 25.54773437 -100.7421875 24.57421875 C-97.3428846 17.85920236 -93.00627198 12.08890993 -88.0625 6.4375 C-87.50820312 5.79941406 -86.95390625 5.16132812 -86.3828125 4.50390625 C-63.17629616 -20.42366752 -26.00052201 -19.58882866 0 0 Z " fill="#FF0707" transform="translate(110.0625,28.5625)"/>
</svg>
