<?xml version="1.0" encoding="UTF-8"?>
<!DOCTYPE svg PUBLIC "-//W3C//DTD SVG 1.1//EN" "http://www.w3.org/Graphics/SVG/1.1/DTD/svg11.dtd">
<svg xmlns="http://www.w3.org/2000/svg" version="1.1" width="315px" height="369px" style="shape-rendering:geometricPrecision; text-rendering:geometricPrecision; image-rendering:optimizeQuality; fill-rule:evenodd; clip-rule:evenodd" xmlns:xlink="http://www.w3.org/1999/xlink">
<g><path style="opacity:1" fill="#fdfdfd" d="M -0.5,-0.5 C 104.5,-0.5 209.5,-0.5 314.5,-0.5C 314.5,122.5 314.5,245.5 314.5,368.5C 209.5,368.5 104.5,368.5 -0.5,368.5C -0.5,245.5 -0.5,122.5 -0.5,-0.5 Z"/></g>
<g><path style="opacity:1" fill="#030303" d="M 244.5,91.5 C 244.723,95.1621 245.723,98.4954 247.5,101.5C 249.415,112.137 249.749,122.803 248.5,133.5C 247.475,136.974 246.808,140.64 246.5,144.5C 245.515,148.076 244.848,151.742 244.5,155.5C 242.926,157.102 242.259,159.102 242.5,161.5C 241.89,162.391 241.557,163.391 241.5,164.5C 240.129,166.936 239.129,169.603 238.5,172.5C 228.824,197.853 216.991,222.186 203,245.5C 186.9,271.372 169.566,296.372 151,320.5C 120.163,281.531 93.83,239.531 72,194.5C 69.0524,187.149 66.2191,179.815 63.5,172.5C 62.871,169.603 61.871,166.936 60.5,164.5C 60.4431,163.391 60.1098,162.391 59.5,161.5C 59.7406,159.102 59.0739,157.102 57.5,155.5C 57.152,151.742 56.4853,148.076 55.5,144.5C 55.1916,140.64 54.5249,136.974 53.5,133.5C 52.2513,122.803 52.5846,112.137 54.5,101.5C 56.2766,98.4954 57.2766,95.1621 57.5,91.5C 73.4987,49.3313 103.999,26.998 149,24.5C 187.965,25.4767 217.631,42.4767 238,75.5C 241.018,80.5289 243.184,85.8622 244.5,91.5 Z"/></g>
<g><path style="opacity:1" fill="#fafafa" d="M 139.5,45.5 C 173.015,43.3424 199.181,56.0091 218,83.5C 232.016,112.456 230.349,140.456 213,167.5C 187.335,197.792 155.835,205.959 118.5,192C 85.7027,173.911 71.2027,146.078 75,108.5C 83.5041,74.1623 105.004,53.1623 139.5,45.5 Z"/></g>
<g><path style="opacity:1" fill="#0d0d0d" d="M 205.5,122.5 C 202.375,123.479 199.042,123.813 195.5,123.5C 181.16,108.327 166.327,93.6604 151,79.5C 135.673,93.6604 120.84,108.327 106.5,123.5C 102.958,123.813 99.6248,123.479 96.5,122.5C 102.464,116.035 108.631,109.702 115,103.5C 115.499,98.8452 115.666,94.1785 115.5,89.5C 117.5,89.5 119.5,89.5 121.5,89.5C 121.5,91.5 121.5,93.5 121.5,95.5C 122.791,95.7373 123.791,95.404 124.5,94.5C 132.631,85.8683 140.964,77.3683 149.5,69C 150.5,68.3333 151.5,68.3333 152.5,69C 170.368,86.7014 188.035,104.535 205.5,122.5 Z"/></g>
<g><path style="opacity:1" fill="#040404" d="M 161.5,160.5 C 161.5,151.833 161.5,143.167 161.5,134.5C 154.5,134.5 147.5,134.5 140.5,134.5C 140.5,143.167 140.5,151.833 140.5,160.5C 130.833,160.5 121.167,160.5 111.5,160.5C 111.333,148.162 111.5,135.829 112,123.5C 124.708,110.458 137.708,97.7913 151,85.5C 164.292,97.7913 177.292,110.458 190,123.5C 190.5,135.829 190.667,148.162 190.5,160.5C 180.833,160.5 171.167,160.5 161.5,160.5 Z"/></g>
<g><path style="opacity:1" fill="#535353" d="M 115.5,89.5 C 117.607,88.5318 119.941,88.1984 122.5,88.5C 122.025,91.0821 122.692,93.0821 124.5,94.5C 123.791,95.404 122.791,95.7373 121.5,95.5C 121.5,93.5 121.5,91.5 121.5,89.5C 119.5,89.5 117.5,89.5 115.5,89.5 Z"/></g>
<g><path style="opacity:1" fill="#7d7d7d" d="M 57.5,91.5 C 57.2766,95.1621 56.2766,98.4954 54.5,101.5C 54.7234,97.8379 55.7234,94.5046 57.5,91.5 Z"/></g>
<g><path style="opacity:1" fill="#7d7d7d" d="M 244.5,91.5 C 246.277,94.5046 247.277,97.8379 247.5,101.5C 245.723,98.4954 244.723,95.1621 244.5,91.5 Z"/></g>
<g><path style="opacity:1" fill="#7f7f7f" d="M 96.5,122.5 C 99.6248,123.479 102.958,123.813 106.5,123.5C 102.981,124.808 99.3147,124.808 95.5,123.5C 95.6236,122.893 95.9569,122.56 96.5,122.5 Z"/></g>
<g><path style="opacity:1" fill="#7f7f7f" d="M 205.5,122.5 C 206.043,122.56 206.376,122.893 206.5,123.5C 202.685,124.808 199.019,124.808 195.5,123.5C 199.042,123.813 202.375,123.479 205.5,122.5 Z"/></g>
<g><path style="opacity:1" fill="#a1a1a1" d="M 161.5,160.5 C 160.507,152.35 160.174,144.017 160.5,135.5C 154.167,135.5 147.833,135.5 141.5,135.5C 141.826,144.017 141.493,152.35 140.5,160.5C 140.5,151.833 140.5,143.167 140.5,134.5C 147.5,134.5 154.5,134.5 161.5,134.5C 161.5,143.167 161.5,151.833 161.5,160.5 Z"/></g>
<g><path style="opacity:1" fill="#868686" d="M 53.5,133.5 C 54.5249,136.974 55.1916,140.64 55.5,144.5C 53.783,141.155 53.1164,137.489 53.5,133.5 Z"/></g>
<g><path style="opacity:1" fill="#868686" d="M 248.5,133.5 C 248.884,137.489 248.217,141.155 246.5,144.5C 246.808,140.64 247.475,136.974 248.5,133.5 Z"/></g>
<g><path style="opacity:1" fill="#929292" d="M 57.5,155.5 C 59.0739,157.102 59.7406,159.102 59.5,161.5C 57.9261,159.898 57.2594,157.898 57.5,155.5 Z"/></g>
<g><path style="opacity:1" fill="#929292" d="M 244.5,155.5 C 244.741,157.898 244.074,159.898 242.5,161.5C 242.259,159.102 242.926,157.102 244.5,155.5 Z"/></g>
<g><path style="opacity:1" fill="#8c8c8c" d="M 60.5,164.5 C 61.871,166.936 62.871,169.603 63.5,172.5C 61.3455,170.383 60.3455,167.716 60.5,164.5 Z"/></g>
<g><path style="opacity:1" fill="#8c8c8c" d="M 241.5,164.5 C 241.655,167.716 240.655,170.383 238.5,172.5C 239.129,169.603 240.129,166.936 241.5,164.5 Z"/></g>
<g><path style="opacity:1" fill="#464646" d="M 108.5,317.5 C 107.791,316.596 106.791,316.263 105.5,316.5C 110.502,314.132 115.836,312.965 121.5,313C 117.106,314.409 112.772,315.909 108.5,317.5 Z"/></g>
<g><path style="opacity:1" fill="#080808" d="M 206.5,353.5 C 202.605,354.462 198.939,355.796 195.5,357.5C 192.123,357.959 188.789,358.626 185.5,359.5C 181.64,359.808 177.974,360.475 174.5,361.5C 174.167,361.5 173.833,361.5 173.5,361.5C 162.185,362.294 150.852,362.627 139.5,362.5C 124.004,361.875 109.004,358.875 94.5,353.5C 94.0269,352.094 93.0269,351.427 91.5,351.5C 75.1215,342.693 74.4548,332.86 89.5,322C 94.7493,319.873 100.083,318.04 105.5,316.5C 106.791,316.263 107.791,316.596 108.5,317.5C 94.3549,328.659 95.6882,337.993 112.5,345.5C 115.8,347.642 119.467,348.975 123.5,349.5C 124.568,350.434 125.901,350.768 127.5,350.5C 129.292,351.309 131.292,351.809 133.5,352C 143.828,352.5 154.161,352.666 164.5,352.5C 167.727,352.324 170.727,351.657 173.5,350.5C 181.678,349.162 189.344,346.328 196.5,342C 205.743,334.586 205.743,327.252 196.5,320C 192.71,317.623 188.71,315.623 184.5,314C 198.854,315.26 211.354,320.76 222,330.5C 224.81,337.738 222.977,343.571 216.5,348C 213.233,350.13 209.9,351.963 206.5,353.5 Z"/></g>
<g><path style="opacity:1" fill="#080808" d="M 132.5,317.5 C 135.518,317.335 138.518,317.502 141.5,318C 144.791,321.439 147.958,324.939 151,328.5C 154.049,324.4 157.549,320.733 161.5,317.5C 169.89,318.185 177.556,320.852 184.5,325.5C 185.647,327.765 185.814,330.098 185,332.5C 177.508,338.172 169.008,341.339 159.5,342C 145.912,343.631 132.912,341.631 120.5,336C 116.106,332.569 115.439,328.569 118.5,324C 123.107,321.529 127.774,319.363 132.5,317.5 Z"/></g>
<g><path style="opacity:1" fill="#b8b8b8" d="M 112.5,345.5 C 116.533,346.025 120.2,347.358 123.5,349.5C 119.467,348.975 115.8,347.642 112.5,345.5 Z"/></g>
<g><path style="opacity:1" fill="#c1c1c1" d="M 127.5,350.5 C 139.815,351.315 152.148,351.649 164.5,351.5C 164.5,351.833 164.5,352.167 164.5,352.5C 154.161,352.666 143.828,352.5 133.5,352C 131.292,351.809 129.292,351.309 127.5,350.5 Z"/></g>
<g><path style="opacity:1" fill="#727272" d="M 173.5,350.5 C 170.727,351.657 167.727,352.324 164.5,352.5C 164.5,352.167 164.5,351.833 164.5,351.5C 167.455,350.841 170.455,350.508 173.5,350.5 Z"/></g>
<g><path style="opacity:1" fill="#7b7b7b" d="M 91.5,351.5 C 93.0269,351.427 94.0269,352.094 94.5,353.5C 92.9731,353.573 91.9731,352.906 91.5,351.5 Z"/></g>
<g><path style="opacity:1" fill="#a2a2a2" d="M 206.5,353.5 C 203.374,355.99 199.708,357.323 195.5,357.5C 198.939,355.796 202.605,354.462 206.5,353.5 Z"/></g>
<g><path style="opacity:1" fill="#999999" d="M 185.5,359.5 C 182.155,361.217 178.489,361.884 174.5,361.5C 177.974,360.475 181.64,359.808 185.5,359.5 Z"/></g>
<g><path style="opacity:1" fill="#b7b7b7" d="M 173.5,361.5 C 167.246,363.054 160.746,363.72 154,363.5C 148.988,363.499 144.155,363.166 139.5,362.5C 150.852,362.627 162.185,362.294 173.5,361.5 Z"/></g>
</svg>
