<?xml version="1.0" standalone="no"?>
<!DOCTYPE svg PUBLIC "-//W3C//DTD SVG 20010904//EN"
 "http://www.w3.org/TR/2001/REC-SVG-20010904/DTD/svg10.dtd">
<svg version="1.0" xmlns="http://www.w3.org/2000/svg"
 width="508.000000pt" height="146.000000pt" viewBox="0 0 508.000000 146.000000"
 preserveAspectRatio="xMidYMid meet">

<g transform="translate(0.000000,146.000000) scale(0.100000,-0.100000)"
fill="#000000" stroke="none">
<path d="M0 730 l0 -730 2540 0 2540 0 0 730 0 730 -2540 0 -2540 0 0 -730z
m299 557 c10 3 22 0 25 -6 4 -6 19 -12 34 -12 21 -1 22 -2 7 -6 -25 -6 -44
-23 -27 -24 7 -1 17 -3 22 -4 6 -1 41 -3 79 -4 64 -1 69 -3 73 -25 5 -22 3
-24 -21 -15 l-26 9 23 -19 c12 -11 22 -28 22 -40 0 -23 -31 -93 -39 -88 -114
58 -162 80 -167 75 -3 -4 1 -21 10 -39 21 -42 20 -56 -2 -36 -10 10 -23 17
-29 17 -12 0 12 98 28 114 5 6 -4 17 -20 27 -22 13 -28 23 -24 38 8 30 -4 26
-20 -6 -13 -28 -9 -130 6 -163 4 -9 1 -24 -8 -35 -12 -14 -18 -16 -22 -7 -2 7
-11 19 -19 26 -16 17 -19 46 -4 46 6 0 10 26 10 59 0 55 -1 59 -21 54 -20 -5
-20 -4 -9 18 7 13 31 42 54 64 l41 40 3 -31 c2 -25 7 -31 21 -27z m831 23
c-13 -9 -13 -11 0 -20 10 -6 11 -10 3 -10 -8 0 -13 -14 -13 -35 0 -48 -17 -44
-22 5 -4 47 6 70 30 70 15 0 15 -2 2 -10z m430 -17 c0 -21 3 -24 12 -15 7 7
25 12 40 12 26 0 28 -3 28 -40 0 -37 -2 -40 -26 -40 -15 0 -33 8 -40 18 -13
16 -13 16 -14 0 0 -10 -4 -18 -10 -18 -5 0 -10 25 -10 55 0 30 5 55 10 55 6 0
10 -12 10 -27z m80 17 c0 -5 -7 -10 -15 -10 -8 0 -15 5 -15 10 0 6 7 10 15 10
8 0 15 -4 15 -10z m-1020 -50 c0 -27 -4 -50 -10 -50 -5 0 -10 23 -10 50 0 28
5 50 10 50 6 0 10 -22 10 -50z m328 38 c10 -10 15 -10 22 1 7 12 11 12 25 -2
9 -10 12 -17 6 -17 -15 0 -14 -43 2 -59 10 -10 8 -12 -8 -9 -14 2 -21 12 -23
34 -3 29 -32 54 -62 54 -23 0 -7 -27 21 -37 32 -12 35 -29 7 -46 -19 -12 -71
0 -62 14 4 8 10 7 17 0 15 -15 37 -14 37 2 0 8 -11 19 -25 25 -24 11 -32 31
-18 45 11 11 48 8 61 -5z m-243 -6 c-5 -4 -10 -16 -10 -27 0 -12 -9 -22 -25
-26 l-25 -7 28 -1 c31 -1 48 -28 26 -42 -8 -5 -25 -8 -39 -7 -19 2 -24 8 -22
23 1 11 3 33 3 48 0 19 7 31 22 37 27 11 56 12 42 2z m75 -22 c22 -40 -26 -80
-58 -48 -25 25 -6 68 30 68 9 0 22 -9 28 -20z m52 8 c-7 -7 -12 -25 -12 -40 0
-15 -4 -28 -10 -28 -5 0 -10 18 -10 40 0 35 3 40 22 40 17 0 19 -3 10 -12z
m248 -7 c14 -28 13 -31 -15 -31 -14 0 -25 -5 -25 -11 0 -6 9 -9 20 -6 11 3 20
1 20 -5 0 -5 -12 -8 -27 -6 -29 3 -41 32 -29 64 8 20 44 17 56 -5z m131 -23
c6 -38 5 -38 -28 -38 -27 0 -33 4 -33 21 0 12 8 23 20 26 11 3 20 10 20 15 0
5 -10 6 -21 3 -15 -5 -19 -4 -14 5 4 6 17 10 28 8 16 -2 23 -12 28 -40z m83
26 c9 -24 7 -64 -3 -64 -6 0 -11 14 -13 32 -4 46 -28 49 -28 4 0 -20 -4 -36
-10 -36 -5 0 -10 18 -10 40 0 37 2 40 29 40 17 0 31 -6 35 -16z m81 -24 c0
-38 -24 -52 -50 -30 -31 25 -9 73 30 68 16 -2 20 -11 20 -38z m40 13 l8 -28 6
24 c4 14 12 26 18 28 8 3 8 -7 1 -36 -13 -52 -31 -52 -51 -1 -12 32 -13 40 -2
40 7 0 16 -12 20 -27z m105 18 c0 -5 -9 -7 -20 -4 -26 7 -26 -14 1 -22 25 -8
22 -38 -5 -43 -10 -2 -23 2 -30 8 -8 9 -6 11 12 5 28 -8 29 8 0 27 -12 8 -18
19 -14 26 8 14 56 16 56 3z m-1070 -11 c12 -7 10 -9 -8 -7 -12 0 -22 5 -22 9
0 11 12 10 30 -2z m-250 -105 c0 -19 -4 -35 -10 -35 -11 0 -14 53 -3 63 11 12
13 8 13 -28z m436 -95 c17 0 24 5 24 20 0 11 5 20 10 20 6 0 10 -22 10 -50 0
-27 -4 -50 -10 -50 -5 0 -10 11 -10 25 0 20 -5 25 -24 25 -19 0 -26 -6 -29
-27 -2 -16 -4 -3 -4 27 0 30 2 45 4 33 3 -16 11 -23 29 -23z m2192 33 c-14 -3
-18 -16 -20 -51 l-2 -47 -3 47 c-3 33 -9 48 -21 51 -9 3 1 5 23 5 22 0 32 -2
23 -5z m100 -11 c3 -11 0 -11 -16 -1 -17 10 -23 10 -36 0 -9 -8 -16 -21 -16
-31 0 -10 7 -23 16 -31 13 -10 19 -10 36 0 16 10 19 10 16 -1 -6 -18 -46 -22
-64 -8 -17 15 -18 62 -2 78 16 16 60 11 66 -6z m82 3 c10 -12 10 -18 -1 -31
-10 -12 -10 -20 -1 -35 7 -11 8 -19 2 -19 -5 0 -14 9 -20 20 -6 11 -15 20 -20
20 -6 0 -10 -9 -10 -20 0 -11 -4 -20 -10 -20 -5 0 -10 23 -10 50 0 48 1 50 29
50 16 0 34 -7 41 -15z m72 -20 c0 -19 1 -40 2 -47 1 -6 -5 -13 -11 -15 -9 -3
-13 10 -13 46 0 57 19 71 22 16z m57 -17 c-2 -52 -2 -52 -8 -13 -6 39 -7 39
-19 17 -8 -13 -16 -21 -19 -19 -6 7 29 67 39 67 4 0 7 -24 7 -52z m-2395 6
c14 -37 7 -54 -24 -54 -35 0 -43 29 -10 37 25 7 26 20 3 26 -14 4 -13 5 3 6
12 0 25 -6 28 -15z m49 6 c-13 -5 -23 -16 -23 -25 0 -9 10 -20 23 -25 22 -10
22 -10 -3 -7 -43 4 -34 68 9 66 11 0 9 -3 -6 -9z m61 -1 c4 6 12 11 19 11 6 0
4 -7 -6 -17 -15 -16 -15 -18 0 -35 9 -10 11 -18 5 -18 -6 0 -14 5 -18 11 -4 8
-9 7 -15 -2 -6 -9 -9 0 -9 26 0 26 3 35 9 26 6 -9 11 -10 15 -2z m101 -9 c8
-27 -12 -52 -39 -48 -21 3 -32 28 -22 54 8 22 54 18 61 -6z m76 4 c16 -20 1
-48 -29 -52 -11 -2 -23 -11 -25 -20 -3 -9 -5 7 -6 36 -1 48 1 52 23 52 13 0
29 -7 37 -16z m78 -3 c13 -24 -8 -55 -35 -49 -20 3 -30 29 -20 54 8 20 43 17
55 -5z m88 -1 c-3 -10 0 -21 6 -23 6 -2 7 -9 3 -15 -8 -14 -56 -16 -56 -3 0 5
9 7 20 4 11 -3 20 0 20 6 0 6 -6 11 -12 12 -10 0 -10 2 0 6 17 7 15 21 -5 26
-13 3 -11 5 6 6 18 1 22 -3 18 -19z m73 -15 c0 -31 -3 -35 -25 -35 -31 0 -34
29 -5 37 11 3 20 10 20 15 0 6 -9 8 -20 5 -11 -3 -18 -1 -14 4 3 5 14 9 25 9
15 0 19 -7 19 -35z m78 -2 c-1 -37 -1 -37 -5 -5 -3 23 -9 32 -23 32 -14 0 -20
-9 -23 -32 -4 -32 -4 -32 -5 5 -2 35 0 37 28 37 28 0 30 -2 28 -37z m77 2 c0
-35 -31 -47 -51 -20 -18 25 0 57 29 53 17 -2 22 -10 22 -33z m35 15 c0 -27 28
-25 33 3 2 12 5 4 5 -18 0 -22 -2 -34 -5 -27 -2 6 -13 12 -23 12 -10 0 -21 7
-24 16 -9 23 -7 34 4 34 6 0 10 -9 10 -20z m80 5 c0 -21 28 -19 33 3 3 9 5 -1
5 -23 0 -22 -2 -32 -5 -22 -5 21 -33 23 -33 2 0 -8 -4 -15 -10 -15 -5 0 -10
16 -10 35 0 19 5 35 10 35 6 0 10 -7 10 -15z m77 -12 l10 -28 8 28 c4 15 11
27 16 27 4 0 -1 -22 -13 -50 -12 -30 -27 -50 -36 -50 -13 0 -13 2 2 13 16 11
16 15 1 50 -8 20 -12 37 -7 37 4 0 13 -12 19 -27z m100 -10 c2 -29 0 -33 -22
-33 -22 0 -25 4 -25 36 0 31 3 35 22 32 17 -2 23 -11 25 -35z m71 -1 c3 -31 1
-33 -23 -30 -32 4 -35 19 -5 34 13 7 18 14 11 18 -6 4 -15 4 -21 1 -5 -3 -10
-1 -10 5 0 6 10 10 23 8 17 -2 23 -11 25 -36z m112 3 c0 -19 -4 -35 -10 -35
-5 0 -10 14 -10 30 0 42 -27 40 -33 -2 -4 -32 -4 -32 -5 5 -2 35 0 37 28 37
28 0 30 -3 30 -35z m75 0 c0 -23 -5 -31 -22 -33 -12 -2 -24 -11 -26 -20 -3 -9
-5 7 -6 36 -1 52 -1 53 27 50 23 -3 27 -8 27 -33z m70 0 c0 -25 -4 -30 -27
-33 -26 -3 -28 -1 -28 33 0 34 2 36 28 33 23 -3 27 -8 27 -33z m128 27 c-6 -4
-13 -21 -16 -37 l-4 -30 -2 33 c-2 43 -31 45 -31 1 0 -27 -3 -30 -27 -27 -33
4 -43 27 -14 35 12 3 21 10 21 15 0 6 -7 8 -15 4 -8 -3 -15 -1 -15 3 0 5 26 9
58 10 31 0 52 -3 45 -7z m65 -30 c3 -31 1 -33 -23 -30 -32 4 -35 19 -5 34 13
7 18 14 11 18 -6 4 -15 4 -21 1 -5 -3 -10 -1 -10 5 0 6 10 10 23 8 17 -2 23
-11 25 -36z m85 31 c-7 -2 -14 -19 -14 -36 l-2 -32 -4 30 c-3 16 -10 33 -16
37 -7 4 2 7 18 7 17 0 24 -3 18 -6z m82 -4 c13 -19 -4 -59 -25 -59 -11 0 -20
-7 -20 -15 0 -8 -4 -15 -10 -15 -5 0 -10 23 -10 50 0 49 1 50 29 50 17 0 33
-5 36 -11z m35 -1 c0 -9 3 -9 12 0 20 20 33 14 14 -7 -15 -16 -15 -19 -1 -31
9 -7 13 -15 10 -18 -2 -3 -11 1 -20 8 -10 8 -15 9 -15 1 0 -6 -4 -11 -10 -11
-5 0 -10 16 -10 35 0 19 5 35 10 35 6 0 10 -5 10 -12z m100 -23 c0 -31 -3 -35
-25 -35 -31 0 -34 29 -5 37 11 3 20 10 20 15 0 6 -9 8 -20 5 -11 -3 -18 -1
-14 4 3 5 14 9 25 9 15 0 19 -7 19 -35z m109 16 c13 -24 -8 -55 -35 -49 -20 3
-30 29 -20 54 8 20 43 17 55 -5z m71 -3 c0 -13 3 -34 5 -48 3 -14 3 -19 -1
-12 -7 15 -54 16 -54 0 0 -6 -2 -9 -5 -6 -3 3 0 24 7 47 14 46 48 59 48 19z
m483 14 c-6 -4 -13 -21 -16 -37 l-4 -30 -2 32 c0 21 -7 33 -18 36 -10 3 -2 5
17 6 19 0 30 -3 23 -7z m65 -24 c4 -37 21 -36 29 2 4 21 11 30 24 30 16 0 19
-7 17 -37 -1 -37 -1 -37 -5 -5 -5 40 -19 41 -27 1 -5 -29 -8 -30 -48 -27 -47
3 -54 16 -18 34 13 7 18 14 11 18 -6 4 -15 4 -21 1 -5 -3 -10 -1 -10 5 0 6 10
10 23 8 16 -2 23 -11 25 -30z m123 10 c20 32 29 27 28 -15 -1 -33 -2 -35 -8
-13 l-7 25 -15 -22 c-20 -33 -29 -28 -28 15 1 32 2 34 8 12 l7 -25 15 23z m55
-54 c-4 -13 -13 -24 -22 -24 -14 0 -14 2 0 16 9 8 17 32 17 52 2 32 3 33 6 8
3 -15 2 -39 -1 -52z m72 38 c3 -31 1 -33 -23 -30 -32 4 -35 19 -5 34 13 7 18
14 11 18 -6 4 -15 4 -21 1 -5 -3 -10 -1 -10 5 0 6 10 10 23 8 17 -2 23 -11 25
-36z m142 16 c0 -13 3 -34 5 -48 3 -14 3 -19 -1 -12 -7 14 -54 17 -54 3 0 -19
-36 -7 -37 12 -1 13 3 17 13 13 11 -4 19 3 27 24 14 36 47 42 47 8z m70 -9 c0
-38 24 -35 28 4 2 19 9 27 23 27 16 0 19 -7 17 -37 -1 -37 -1 -37 -5 -5 -5 39
-20 42 -25 5 -3 -25 -7 -28 -45 -31 -35 -3 -43 0 -43 13 0 9 9 19 20 22 11 3
20 10 20 15 0 6 -9 8 -20 5 -11 -3 -18 -1 -14 4 3 5 14 9 25 9 15 0 19 -7 19
-31z m121 9 c20 32 29 27 28 -15 -1 -33 -2 -35 -8 -13 l-7 25 -15 -22 c-20
-33 -29 -28 -28 15 1 32 2 34 8 12 l7 -25 15 23z m109 -8 c10 0 21 8 23 18 3
9 5 -1 5 -23 0 -22 -2 -32 -5 -22 -2 9 -13 17 -23 17 -10 0 -21 -8 -23 -17 -3
-10 -5 0 -5 22 0 22 2 32 5 23 2 -10 13 -18 23 -18z m100 26 c0 -2 3 -11 6
-20 5 -12 0 -16 -20 -16 -32 0 -35 -20 -3 -21 19 -1 20 -2 3 -6 -27 -7 -49 23
-35 48 8 16 49 28 49 15z m57 -6 c17 14 17 14 0 -7 -18 -20 -18 -21 5 -37 12
-9 18 -16 12 -16 -5 0 -16 6 -22 12 -10 10 -15 10 -22 -2 -7 -11 -10 -4 -10
25 0 28 3 36 9 26 8 -13 12 -13 28 -1z m88 -25 c0 -25 -4 -30 -24 -30 -32 0
-49 28 -31 50 7 9 23 15 34 13 16 -2 21 -10 21 -33z m35 1 c0 -46 -9 -66 -29
-65 -10 0 -11 2 -3 6 7 3 12 23 12 49 0 24 5 44 10 44 6 0 10 -15 10 -34z
m-3955 -36 c3 -6 -1 -7 -9 -4 -18 7 -21 14 -7 14 6 0 13 -4 16 -10z m35 0 c0
-5 -4 -10 -10 -10 -5 0 -10 5 -10 10 0 6 5 10 10 10 6 0 10 -4 10 -10z m2310
-95 c-18 -10 -20 -14 -8 -15 24 0 39 -30 27 -52 -12 -22 -47 -24 -56 -3 -5 14
-7 14 -23 0 -28 -25 -55 -15 -55 20 0 24 5 31 23 33 14 2 29 -4 37 -15 14 -17
14 -17 15 4 0 23 24 42 50 42 9 0 5 -6 -10 -14z m-2000 -45 c10 0 21 8 23 18
3 9 5 -1 5 -23 0 -22 -2 -32 -5 -22 -2 9 -13 17 -23 17 -10 0 -21 -8 -23 -17
-3 -10 -5 0 -5 22 0 22 2 32 5 23 2 -10 13 -18 23 -18z m98 -8 c3 -31 2 -33
-24 -30 -34 4 -44 27 -15 35 12 3 21 10 21 15 0 6 -7 8 -15 4 -8 -3 -15 -1
-15 5 0 6 10 9 23 7 17 -2 23 -11 25 -36z m55 31 c-7 -2 -14 -19 -14 -36 l-2
-32 -4 30 c-3 16 -10 33 -16 37 -7 4 2 7 18 7 17 0 24 -3 18 -6z m75 -30 c-1
-37 -1 -37 -5 -5 -3 23 -9 32 -23 32 -14 0 -20 -9 -23 -32 -4 -32 -4 -32 -5 5
-2 35 0 37 28 37 28 0 30 -2 28 -37z m77 2 c0 -23 -5 -31 -22 -33 -12 -2 -24
-11 -26 -20 -3 -9 -5 6 -6 34 -1 49 0 51 27 50 23 -1 27 -5 27 -31z m75 31 c0
-2 3 -11 6 -20 5 -12 0 -16 -20 -16 -32 0 -35 -20 -3 -21 19 -1 20 -2 3 -6
-27 -7 -49 23 -35 48 8 16 49 28 49 15z m67 -16 c-3 -10 0 -21 6 -23 19 -6 -3
-27 -29 -27 -21 0 -24 5 -24 35 0 31 3 35 26 35 21 0 25 -4 21 -20z m73 -15
c0 -31 -3 -35 -25 -35 -31 0 -34 29 -5 37 11 3 20 10 20 15 0 6 -9 8 -20 5
-11 -3 -18 -1 -14 4 3 5 14 9 25 9 15 0 19 -7 19 -35z m75 0 c0 -23 -5 -31
-22 -33 -12 -2 -24 -11 -26 -20 -3 -9 -5 6 -6 34 -1 49 0 51 27 50 23 -1 27
-5 27 -31z m38 9 l14 -27 7 27 c6 24 11 27 44 24 34 -3 37 -6 37 -33 0 -25 -4
-30 -27 -33 -26 -3 -28 0 -29 30 l0 33 -22 -44 c-12 -25 -29 -46 -37 -49 -12
-3 -13 -2 -1 6 13 10 12 37 -4 75 -11 27 3 20 18 -9z m175 -12 c3 -31 2 -33
-24 -30 -34 4 -44 27 -15 35 12 3 21 10 21 15 0 6 -7 8 -15 4 -8 -3 -15 -1
-15 5 0 6 10 9 23 7 17 -2 23 -11 25 -36z m32 18 c0 -27 28 -25 33 3 2 12 5 5
5 -18 1 -22 -2 -35 -6 -29 -4 7 -16 13 -27 15 -21 4 -35 49 -16 49 6 0 11 -9
11 -20z m122 8 c6 6 16 12 22 12 5 0 1 -6 -9 -14 -19 -14 -19 -15 -1 -35 20
-22 9 -30 -12 -9 -10 10 -15 10 -22 -2 -7 -11 -10 -4 -10 25 0 29 3 36 10 25
7 -12 12 -12 22 -2z m88 8 c0 -2 3 -11 6 -20 5 -12 0 -16 -20 -16 -32 0 -35
-20 -3 -21 19 -1 20 -2 3 -6 -27 -7 -49 23 -35 48 8 16 49 28 49 15z m80 -26
c10 0 21 8 23 18 3 9 5 -1 5 -23 0 -22 -2 -32 -5 -22 -2 9 -13 17 -23 17 -10
0 -21 -8 -23 -17 -3 -10 -5 0 -5 22 0 22 2 32 5 23 2 -10 13 -18 23 -18z m98
-8 c3 -31 2 -33 -24 -30 -34 4 -44 27 -15 35 12 3 21 10 21 15 0 6 -7 8 -15 4
-8 -3 -15 -1 -15 5 0 6 10 9 23 7 17 -2 23 -11 25 -36z m82 3 c0 -19 -4 -35
-10 -35 -5 0 -10 14 -10 30 0 42 -27 40 -33 -2 -4 -32 -4 -32 -5 5 -2 35 0 37
28 37 28 0 30 -3 30 -35z m75 24 c13 -19 -4 -59 -25 -59 -11 0 -20 -7 -20 -15
0 -8 -4 -15 -10 -15 -5 0 -10 23 -10 50 0 49 1 50 29 50 17 0 33 -5 36 -11z
m69 -5 c14 -37 7 -54 -24 -54 -35 0 -43 29 -10 37 25 7 26 20 3 26 -14 4 -13
5 3 6 12 0 25 -6 28 -15z m71 7 c3 -5 0 -13 -6 -17 -8 -5 -8 -9 1 -14 18 -11
2 -30 -26 -30 -21 0 -24 5 -24 35 0 30 3 35 24 35 14 0 27 -4 31 -9z m37 -11
c0 -11 1 -25 2 -32 1 -6 -5 -13 -11 -15 -9 -3 -13 7 -13 31 0 37 19 51 22 16z
m37 -17 c-1 -24 -3 -30 -6 -15 -2 12 -9 20 -14 17 -13 -9 -11 9 3 23 17 17 18
16 17 -25z m109 0 c-1 -37 -1 -37 -5 -5 -3 23 -9 32 -23 32 -14 0 -20 -9 -23
-32 -4 -32 -4 -32 -5 5 -2 35 0 37 28 37 28 0 30 -2 28 -37z m77 2 c0 -35 -31
-47 -51 -20 -18 25 0 57 29 53 17 -2 22 -10 22 -33z m75 13 c0 -13 3 -34 5
-48 3 -14 3 -19 -1 -12 -7 15 -54 16 -54 0 0 -6 -2 -9 -5 -6 -3 3 0 24 7 47
14 46 48 59 48 19z m240 7 c11 -14 14 -13 24 1 20 27 51 14 51 -21 0 -35 -31
-48 -51 -21 -10 14 -13 15 -24 1 -7 -8 -21 -15 -30 -15 -10 0 -21 -8 -23 -17
-3 -10 -5 6 -6 35 -1 48 1 52 23 52 13 0 29 -7 36 -15z m177 -5 c-3 -10 0 -21
6 -23 19 -6 -3 -27 -29 -27 -21 0 -24 5 -24 35 0 31 3 35 26 35 21 0 25 -4 21
-20z m84 4 c11 -14 13 -14 21 0 8 14 48 24 48 12 0 -2 3 -11 6 -20 5 -12 0
-16 -20 -16 -32 0 -35 -20 -3 -21 19 -1 20 -2 3 -6 -11 -3 -25 2 -32 11 -10
14 -13 15 -24 1 -7 -8 -21 -15 -30 -15 -10 0 -21 -8 -23 -17 -3 -10 -5 6 -6
35 -1 48 1 52 23 52 13 0 29 -7 37 -16z m115 -9 c3 -14 10 -22 15 -19 5 3 9
-2 9 -10 0 -24 -18 -19 -26 7 l-8 22 -7 -25 c-6 -22 -7 -20 -8 13 -1 42 15 50
25 12z m54 -10 c0 -19 -4 -35 -9 -35 -11 0 -21 38 -14 56 10 26 23 14 23 -21z
m68 12 c3 -13 -3 -17 -24 -17 -30 0 -23 -15 11 -23 15 -4 14 -5 -7 -6 -31 -1
-47 31 -27 55 16 19 43 14 47 -9z m78 -7 c8 0 14 7 14 15 0 8 5 15 10 15 6 0
10 -16 10 -35 0 -19 -4 -35 -10 -35 -5 0 -10 7 -10 15 0 21 -28 19 -33 -2 -3
-10 -5 0 -5 22 0 22 2 32 5 23 2 -10 11 -18 19 -18z m98 14 c14 -37 7 -54 -24
-54 -35 0 -43 29 -10 37 25 7 26 20 3 26 -14 4 -13 5 3 6 12 0 25 -6 28 -15z
m106 -19 c0 -19 -4 -35 -10 -35 -5 0 -10 15 -10 33 l-1 32 -14 -32 c-8 -18
-20 -33 -27 -33 -10 0 -10 2 -1 8 6 4 15 20 18 35 5 17 14 27 26 27 15 0 19
-7 19 -35z m68 13 c3 -14 -3 -18 -24 -18 -30 0 -23 -14 11 -23 12 -3 8 -5 -10
-4 -31 2 -43 23 -31 53 8 21 50 14 54 -8z m50 15 c-10 -2 -18 -17 -21 -36 -4
-31 -4 -31 -5 6 -2 33 1 37 21 36 15 -1 17 -3 5 -6z m70 -16 c3 -13 -3 -17
-24 -17 -30 0 -23 -15 11 -23 15 -4 14 -5 -7 -6 -31 -1 -47 31 -27 55 16 19
43 14 47 -9z m48 -7 c8 0 14 7 14 15 0 29 19 15 23 -17 l4 -33 13 33 c17 38
50 44 50 10 0 -13 3 -34 5 -48 3 -14 3 -19 -1 -12 -7 16 -51 16 -56 0 -5 -15
-38 13 -38 31 0 18 -28 12 -33 -6 -3 -10 -5 0 -5 22 0 22 2 32 5 23 2 -10 11
-18 19 -18z m172 -8 c3 -31 1 -33 -23 -30 -32 4 -35 19 -5 34 13 7 18 14 11
18 -6 4 -15 4 -21 1 -5 -3 -10 -1 -10 5 0 6 10 10 23 8 17 -2 23 -11 25 -36z
m77 3 c0 -23 -5 -31 -22 -33 -12 -2 -24 -11 -26 -20 -3 -9 -5 6 -6 34 -1 49 0
51 27 50 23 -1 27 -5 27 -31z m51 5 c8 0 14 7 14 15 0 8 5 15 10 15 6 0 10
-16 10 -35 0 -19 -4 -35 -10 -35 -5 0 -10 7 -10 15 0 21 -28 19 -33 -2 -3 -10
-5 0 -5 22 0 22 2 32 5 23 2 -10 11 -18 19 -18z m157 22 c-6 -4 -13 -21 -16
-37 l-4 -30 -2 33 c-2 43 -31 45 -31 1 0 -27 -3 -30 -27 -27 -33 4 -43 27 -14
35 12 3 21 10 21 15 0 6 -7 8 -15 4 -8 -3 -15 -1 -15 3 0 5 26 9 58 10 31 0
52 -3 45 -7z m65 -30 c3 -31 1 -33 -23 -30 -32 4 -35 19 -5 34 13 7 18 14 11
18 -6 4 -15 4 -21 1 -5 -3 -10 -1 -10 5 0 6 10 10 23 8 17 -2 23 -11 25 -36z
m110 1 c-1 -37 -1 -37 -5 -5 -3 23 -9 32 -23 32 -14 0 -20 -9 -23 -32 -4 -32
-4 -32 -5 5 -2 35 0 37 28 37 28 0 30 -2 28 -37z m70 -1 c3 -31 2 -33 -24 -30
-34 4 -44 27 -15 35 12 3 21 10 21 15 0 6 -7 8 -15 4 -8 -3 -15 -1 -15 5 0 6
10 9 23 7 17 -2 23 -11 25 -36z m55 31 c-7 -2 -14 -19 -14 -36 l-2 -32 -4 30
c-3 16 -10 33 -16 37 -7 4 2 7 18 7 17 0 24 -3 18 -6z m67 3 c0 -2 3 -11 6
-19 4 -11 -2 -17 -23 -19 l-28 -4 25 -12 25 -12 -25 3 c-40 4 -41 67 0 67 11
0 20 -2 20 -4z m52 -8 c6 6 16 12 22 12 5 0 1 -6 -9 -14 -17 -12 -17 -16 -6
-30 12 -15 16 -15 31 -1 9 8 22 15 29 15 7 0 9 5 6 11 -4 6 -13 8 -21 5 -8 -3
-14 -1 -14 5 0 6 10 9 23 7 17 -2 23 -11 25 -36 3 -32 3 -33 -35 -31 -21 1
-44 7 -51 13 -10 7 -16 6 -23 -5 -6 -10 -9 -2 -9 26 0 29 3 36 10 25 7 -12 12
-12 22 -2z m-3988 -176 c5 -18 12 -32 16 -32 4 0 11 14 16 32 16 54 34 47 33
-14 -2 -48 -2 -50 -9 -18 l-7 35 -12 -32 c-7 -18 -17 -33 -21 -33 -4 0 -14 15
-21 33 l-12 32 -7 -35 c-7 -32 -7 -30 -9 18 -1 61 17 68 33 14z m162 13 c15
-23 15 -27 0 -50 -19 -29 -47 -32 -70 -9 -20 20 -20 48 0 68 23 23 51 20 70
-9z m66 -12 l23 -38 6 40 c6 39 6 39 8 -12 1 -61 -11 -67 -36 -20 l-18 32 -3
-32 c-5 -52 -22 -38 -22 17 0 28 4 50 9 50 5 0 20 -17 33 -37z m118 29 c0 -4
-11 -24 -25 -45 l-26 -37 33 0 c30 0 35 4 48 42 19 54 34 57 49 11 7 -21 15
-44 17 -50 3 -7 1 -13 -5 -13 -6 0 -11 7 -11 15 0 9 -9 15 -25 15 -16 0 -25
-6 -25 -15 0 -11 -12 -15 -50 -15 -27 0 -50 3 -50 6 0 3 14 23 30 44 l31 39
-33 4 c-33 4 -33 4 5 5 20 1 37 -1 37 -6z m342 -27 c0 -19 1 -40 2 -47 1 -6
-5 -13 -11 -15 -9 -3 -13 10 -13 46 0 57 19 71 22 16z m57 -17 c-2 -52 -2 -52
-8 -13 -6 39 -7 39 -19 17 -8 -13 -16 -21 -19 -19 -6 7 29 67 39 67 4 0 7 -24
7 -52z m66 -38 c21 0 24 5 28 48 l3 47 2 -52 c2 -41 -1 -53 -13 -53 -8 0 -15
-6 -16 -12 0 -10 -2 -10 -6 0 -2 6 -11 12 -19 12 -10 0 -14 13 -12 53 l2 52 3
-47 c4 -43 7 -48 28 -48z m88 83 c-13 -2 -23 -11 -23 -19 0 -8 10 -15 23 -15
l22 -2 -22 -4 c-14 -3 -23 -12 -23 -23 0 -11 9 -20 23 -23 19 -4 18 -4 -5 -6
-27 -1 -28 1 -28 49 0 48 1 50 28 49 23 -2 24 -2 5 -6z m120 -8 c3 -7 -3 -24
-13 -37 -11 -13 -19 -18 -20 -11 0 6 5 15 10 18 6 3 10 13 10 21 0 17 -27 19
-33 2 -2 -7 -8 -10 -12 -6 -12 11 5 28 30 28 12 0 25 -7 28 -15z m78 -23 l16
-37 18 38 c10 20 22 37 27 37 4 0 7 -24 7 -52 -1 -48 -2 -49 -8 -18 l-7 35
-18 -34 -18 -35 -18 35 -18 34 -5 -35 c-3 -27 -4 -23 -5 18 -1 28 1 52 6 52 4
0 14 -17 23 -38z m1071 3 c0 -19 1 -40 2 -47 1 -6 -5 -13 -11 -15 -9 -3 -13
10 -13 46 0 57 19 71 22 16z m57 -17 c-2 -52 -2 -52 -8 -13 -6 39 -7 39 -19
17 -8 -13 -16 -21 -19 -19 -6 7 29 67 39 67 4 0 7 -24 7 -52z m66 -38 c21 0
24 5 28 48 l3 47 2 -52 c2 -41 -1 -53 -13 -53 -8 0 -15 -6 -16 -12 0 -10 -2
-10 -6 0 -2 6 -11 12 -19 12 -10 0 -14 13 -12 53 l2 52 3 -47 c4 -43 7 -48 28
-48z m88 83 c-13 -2 -23 -11 -23 -19 0 -8 10 -15 23 -15 l22 -2 -22 -4 c-14
-3 -23 -12 -23 -23 0 -11 9 -20 23 -23 19 -4 18 -4 -5 -6 -27 -1 -28 1 -28 49
0 48 1 50 28 49 23 -2 24 -2 5 -6z m1017 -8 c-18 -10 -20 -14 -8 -15 24 0 39
-30 27 -52 -12 -22 -47 -24 -56 -3 -5 14 -7 14 -23 0 -28 -25 -55 -15 -55 20
0 24 5 31 23 33 14 2 29 -4 37 -15 14 -17 14 -17 15 4 0 23 24 42 50 42 9 0 5
-6 -10 -14z m-2855 -50 c0 -35 -31 -47 -51 -20 -18 25 0 57 29 53 17 -2 22
-10 22 -33z m75 13 c0 -13 3 -34 5 -48 3 -14 3 -19 -1 -12 -7 15 -54 16 -54 0
0 -6 -2 -9 -5 -6 -3 3 0 24 7 47 14 46 48 59 48 19z m601 0 c20 32 29 27 28
-15 -1 -33 -2 -35 -8 -13 l-7 25 -15 -22 c-20 -33 -29 -28 -28 15 1 32 2 34 8
12 l7 -25 15 23z m75 -8 c8 0 14 7 14 15 0 8 5 15 10 15 6 0 10 -16 10 -35 0
-19 -4 -35 -10 -35 -5 0 -10 7 -10 15 0 21 -28 19 -33 -2 -3 -10 -5 0 -5 22 0
22 2 32 5 23 2 -10 11 -18 19 -18z m98 14 c14 -37 7 -54 -24 -54 -35 0 -43 29
-10 37 25 7 26 20 3 26 -14 4 -13 5 3 6 12 0 25 -6 28 -15z m59 8 c-6 -4 -13
-21 -16 -37 l-4 -30 -2 32 c0 21 -7 33 -18 36 -10 3 -2 5 17 6 19 0 30 -3 23
-7z m65 -30 c3 -31 1 -33 -23 -30 -32 4 -35 19 -5 34 13 7 18 14 11 18 -6 4
-15 4 -21 1 -5 -3 -10 -1 -10 5 0 6 10 10 23 8 17 -2 23 -11 25 -36z m55 31
c-7 -2 -14 -19 -14 -36 l-2 -32 -4 30 c-3 16 -10 33 -16 37 -7 4 2 7 18 7 17
0 24 -3 18 -6z m71 -9 c14 -37 7 -54 -24 -54 -35 0 -43 29 -10 37 25 7 26 20
3 26 -14 4 -13 5 3 6 12 0 25 -6 28 -15z m74 9 c-10 -2 -18 -17 -21 -36 -4
-31 -4 -31 -5 6 -2 33 1 37 21 36 15 -1 17 -3 5 -6z m87 -13 c8 -27 -12 -52
-39 -48 -21 3 -32 28 -22 54 8 22 54 18 61 -6z m75 -2 c0 -13 3 -34 5 -48 3
-14 3 -19 -1 -12 -7 15 -64 16 -64 0 0 -6 -3 -9 -6 -5 -3 3 2 24 12 46 21 45
54 56 54 19z m41 -13 c15 10 10 -12 -6 -25 -13 -11 -15 -7 -14 26 1 24 3 30 6
16 2 -12 9 -20 14 -17z m39 0 c0 -19 -4 -35 -9 -35 -10 0 -22 51 -14 62 11 19
23 5 23 -27z m46 5 c8 0 14 7 14 15 0 8 5 15 10 15 6 0 10 -16 10 -35 0 -19
-4 -35 -10 -35 -5 0 -10 7 -10 15 0 21 -28 19 -33 -2 -3 -10 -5 0 -5 22 0 22
2 32 5 23 2 -10 11 -18 19 -18z m98 14 c14 -37 7 -54 -24 -54 -35 0 -43 29
-10 37 25 7 26 20 3 26 -14 4 -13 5 3 6 12 0 25 -6 28 -15z m404 -21 c-1 -37
-1 -37 -5 -5 -3 23 -9 32 -23 32 -14 0 -20 -9 -23 -32 -4 -32 -4 -32 -5 5 -2
35 0 37 28 37 28 0 30 -2 28 -37z m77 2 c0 -25 -4 -30 -24 -30 -32 0 -49 28
-31 50 7 9 23 15 34 13 16 -2 21 -10 21 -33z m118 27 c-6 -4 -13 -21 -16 -37
l-4 -30 -2 33 c-1 31 -3 33 -33 30 -41 -4 -50 -33 -16 -48 l23 -10 -25 3 c-15
1 -26 9 -28 20 -6 31 17 47 67 47 25 0 41 -4 34 -8z m39 -12 c0 -11 1 -25 2
-32 1 -6 -5 -13 -11 -15 -9 -3 -13 7 -13 31 0 37 19 51 22 16z m37 -17 c-1
-24 -3 -30 -6 -15 -2 12 -9 20 -14 17 -13 -9 -11 9 3 23 17 17 18 16 17 -25z
m49 30 c-10 -2 -18 -17 -21 -36 -4 -31 -4 -31 -5 6 -2 33 1 37 21 36 15 -1 17
-3 5 -6z m42 -8 c0 -21 28 -19 33 3 3 9 5 -1 5 -23 0 -22 -2 -32 -5 -22 -5 21
-33 23 -33 2 0 -8 -4 -15 -10 -15 -5 0 -10 16 -10 35 0 19 5 35 10 35 6 0 10
-7 10 -15z m110 -20 c0 -31 -3 -35 -25 -35 -31 0 -34 29 -5 37 11 3 20 10 20
15 0 6 -9 8 -20 5 -11 -3 -18 -1 -14 4 3 5 14 9 25 9 15 0 19 -7 19 -35z m80
5 c10 0 21 8 23 18 3 9 5 -1 5 -23 0 -22 -2 -32 -5 -22 -2 9 -13 17 -23 17
-10 0 -21 -8 -23 -17 -3 -10 -5 0 -5 22 0 22 2 32 5 23 2 -10 13 -18 23 -18z
m98 -8 c3 -31 1 -33 -23 -30 -32 4 -35 19 -5 34 13 7 18 14 11 18 -6 4 -15 4
-21 1 -5 -3 -10 -1 -10 5 0 6 10 10 23 8 17 -2 23 -11 25 -36z m43 -22 c5 0
12 14 16 30 7 37 43 43 43 8 0 -13 3 -34 5 -48 3 -14 3 -19 -1 -12 -3 6 -17
12 -30 12 -13 0 -24 -6 -24 -12 0 -9 -3 -8 -10 2 -8 12 -10 12 -16 -3 -3 -9
-13 -17 -21 -17 -12 0 -12 2 1 16 9 8 17 32 18 52 l1 37 4 -32 c2 -18 9 -33
14 -33z m299 45 c11 -14 14 -13 24 1 20 27 51 14 51 -21 0 -35 -31 -48 -51
-21 -10 14 -13 15 -24 1 -7 -8 -21 -15 -30 -15 -10 0 -21 -8 -23 -17 -3 -10
-5 6 -6 35 -1 48 1 52 23 52 13 0 29 -7 36 -15z m177 -5 c-3 -10 0 -21 6 -23
19 -6 -3 -27 -29 -27 -21 0 -24 5 -24 35 0 31 3 35 26 35 21 0 25 -4 21 -20z
m84 4 c16 -20 1 -48 -29 -52 -11 -2 -23 -11 -25 -20 -3 -9 -5 7 -6 36 -1 48 1
52 23 52 13 0 29 -7 37 -16z m69 12 c0 -2 3 -11 6 -19 4 -11 -2 -17 -23 -19
l-28 -4 25 -12 25 -12 -25 3 c-40 4 -41 67 0 67 11 0 20 -2 20 -4z m46 -21 c3
-14 10 -22 15 -19 5 3 9 -2 9 -10 0 -24 -18 -19 -26 7 l-8 22 -7 -25 c-6 -22
-7 -20 -8 13 -1 42 15 50 25 12z m54 -10 c0 -19 -4 -35 -9 -35 -11 0 -21 38
-14 56 10 26 23 14 23 -21z m68 12 c3 -13 -3 -17 -24 -17 -30 0 -23 -15 11
-23 15 -4 14 -5 -7 -6 -31 -1 -47 31 -27 55 16 19 43 14 47 -9z m100 -15 c3
-31 2 -33 -24 -30 -34 4 -44 27 -15 35 12 3 21 10 21 15 0 6 -7 8 -15 4 -8 -3
-15 -1 -15 5 0 6 10 9 23 7 17 -2 23 -11 25 -36z m-3098 -22 c0 -5 -4 -10 -10
-10 -5 0 -10 5 -10 10 0 6 5 10 10 10 6 0 10 -4 10 -10z m308 -97 c-14 -3 -18
-15 -18 -49 0 -24 -4 -44 -10 -44 -5 0 -10 20 -10 44 0 34 -4 46 -17 49 -10 3
2 5 27 5 25 0 37 -2 28 -5z m86 1 c9 -3 16 -11 16 -17 0 -7 -4 -7 -12 1 -21
21 -47 14 -54 -14 -9 -36 18 -64 46 -46 12 7 20 8 20 2 0 -16 -49 -23 -65 -10
-18 15 -20 61 -3 78 13 13 28 15 52 6z m96 -9 c10 -12 10 -18 -1 -31 -10 -12
-10 -20 -1 -35 7 -11 8 -19 2 -19 -5 0 -14 9 -20 20 -6 11 -15 20 -20 20 -6 0
-10 -9 -10 -20 0 -11 -4 -20 -10 -20 -5 0 -10 23 -10 50 0 48 1 50 29 50 16 0
34 -7 41 -15z m100 -35 c0 -27 -4 -50 -10 -50 -5 0 -10 23 -10 50 0 28 5 50
10 50 6 0 10 -22 10 -50z m73 43 c-20 -4 -23 -11 -25 -51 l-2 -47 -3 47 c-3
33 -9 48 -21 51 -9 3 3 5 28 4 25 0 35 -2 23 -4z m76 -30 c7 -21 15 -44 17
-50 3 -7 1 -13 -5 -13 -6 0 -11 7 -11 15 0 9 -9 15 -25 15 -16 0 -25 -6 -25
-15 0 -8 -4 -15 -10 -15 -5 0 -3 18 5 41 26 73 36 77 54 22z m69 -56 c24 -4
24 -4 -5 -6 l-33 -1 2 53 2 52 3 -47 c4 -42 7 -47 31 -51z m37 73 c3 -11 10
-20 15 -20 5 0 12 9 15 20 3 11 11 20 16 20 5 0 3 -13 -6 -30 -8 -16 -15 -38
-15 -50 0 -11 -4 -20 -10 -20 -5 0 -10 9 -10 20 0 12 -7 34 -15 50 -9 17 -11
30 -6 30 5 0 13 -9 16 -20z m1572 14 c-3 -3 -12 -4 -19 -1 -8 3 -5 6 6 6 11 1
17 -2 13 -5z m-1450 -20 c-3 -3 -12 -4 -19 -1 -8 3 -5 6 6 6 11 1 17 -2 13 -5z
m60 0 c-3 -3 -12 -4 -19 -1 -8 3 -5 6 6 6 11 1 17 -2 13 -5z m650 0 c-3 -3
-12 -4 -19 -1 -8 3 -5 6 6 6 11 1 17 -2 13 -5z m360 0 c-3 -3 -12 -4 -19 -1
-8 3 -5 6 6 6 11 1 17 -2 13 -5z m236 -1 c-7 -2 -19 -2 -25 0 -7 3 -2 5 12 5
14 0 19 -2 13 -5z m214 1 c-3 -3 -12 -4 -19 -1 -8 3 -5 6 6 6 11 1 17 -2 13
-5z m120 0 c-3 -3 -12 -4 -19 -1 -8 3 -5 6 6 6 11 1 17 -2 13 -5z m60 0 c-3
-3 -12 -4 -19 -1 -8 3 -5 6 6 6 11 1 17 -2 13 -5z m-3650 -24 c-3 -10 0 -21 6
-23 19 -6 -3 -27 -29 -27 -21 0 -24 5 -24 35 0 31 3 35 26 35 21 0 25 -4 21
-20z m83 3 c10 -17 10 -17 20 0 9 14 50 25 50 13 0 -2 3 -11 6 -20 5 -12 0
-16 -20 -16 -14 0 -26 -5 -26 -11 0 -6 14 -9 33 -7 27 2 33 8 35 31 4 35 42
39 42 5 0 -13 3 -34 5 -48 3 -14 3 -19 -1 -12 -3 6 -17 12 -30 12 -13 0 -24
-6 -25 -12 0 -10 -2 -10 -6 0 -2 6 -15 12 -28 12 -13 0 -28 8 -34 18 -9 16
-11 16 -24 -2 -26 -35 -70 -3 -53 40 8 20 43 18 56 -3z m180 2 c0 -21 28 -19
33 3 3 9 5 -1 5 -23 0 -22 -2 -32 -5 -22 -5 21 -33 23 -33 2 0 -8 -4 -15 -10
-15 -5 0 -10 16 -10 35 0 19 5 35 10 35 6 0 10 -7 10 -15z m119 -4 c13 -24 -8
-55 -35 -49 -20 3 -30 29 -20 54 8 20 43 17 55 -5z m82 -3 c20 32 29 27 28
-15 -1 -33 -2 -35 -8 -13 l-7 25 -15 -22 c-20 -33 -29 -28 -28 15 1 32 2 34 8
12 l7 -25 15 23z m140 6 c11 -14 13 -14 21 0 8 14 48 24 48 12 0 -2 3 -11 6
-20 5 -12 0 -16 -20 -16 -32 0 -35 -20 -3 -21 19 -1 20 -2 3 -6 -11 -3 -25 2
-32 11 -10 14 -13 15 -24 1 -7 -8 -21 -15 -30 -15 -10 0 -21 -8 -23 -17 -3
-10 -5 6 -6 35 -1 48 1 52 23 52 13 0 29 -7 37 -16z m121 4 c6 6 16 12 22 12
5 0 1 -6 -9 -14 -19 -14 -19 -15 -1 -35 20 -22 9 -30 -12 -9 -10 10 -15 10
-22 -2 -7 -11 -10 -4 -10 25 0 29 3 36 10 25 7 -12 12 -12 22 -2z m93 -23 c0
-35 -31 -47 -51 -20 -18 25 0 57 29 53 17 -2 22 -10 22 -33z m80 0 c0 -23 -5
-31 -22 -33 -12 -2 -24 -11 -26 -20 -3 -9 -5 7 -6 36 -1 52 -1 53 27 50 23 -3
27 -8 27 -33z m75 13 c0 -13 3 -34 5 -48 3 -14 3 -19 -1 -12 -3 6 -16 12 -29
12 -13 0 -25 -6 -28 -12 -2 -7 -8 -10 -12 -6 -4 4 1 25 11 47 21 45 54 56 54
19z m135 13 c3 -5 0 -13 -6 -17 -8 -5 -8 -9 1 -14 18 -11 2 -30 -26 -30 -21 0
-24 5 -24 35 0 30 3 35 24 35 14 0 27 -4 31 -9z m74 -10 c13 -24 -8 -55 -35
-49 -20 3 -30 29 -20 54 8 20 43 17 55 -5z m344 -8 c-7 -2 -19 -2 -25 0 -7 3
-2 5 12 5 14 0 19 -2 13 -5z m494 1 c-3 -3 -12 -4 -19 -1 -8 3 -5 6 6 6 11 1
17 -2 13 -5z m146 -1 c-7 -2 -21 -2 -30 0 -10 3 -4 5 12 5 17 0 24 -2 18 -5z
m1160 0 c-7 -2 -21 -2 -30 0 -10 3 -4 5 12 5 17 0 24 -2 18 -5z m210 0 c-7 -2
-21 -2 -30 0 -10 3 -4 5 12 5 17 0 24 -2 18 -5z m124 1 c-3 -3 -12 -4 -19 -1
-8 3 -5 6 6 6 11 1 17 -2 13 -5z m-714 -31 c-7 -2 -19 -2 -25 0 -7 3 -2 5 12
5 14 0 19 -2 13 -5z m-286 -9 c-3 -3 -12 -4 -19 -1 -8 3 -5 6 6 6 11 1 17 -2
13 -5z m360 0 c-3 -3 -12 -4 -19 -1 -8 3 -5 6 6 6 11 1 17 -2 13 -5z m236 -1
c-7 -2 -19 -2 -25 0 -7 3 -2 5 12 5 14 0 19 -2 13 -5z m144 1 c-3 -3 -12 -4
-19 -1 -8 3 -5 6 6 6 11 1 17 -2 13 -5z m-460 -30 c-3 -3 -12 -4 -19 -1 -8 3
-5 6 6 6 11 1 17 -2 13 -5z"/>
<path d="M298 1225 c13 -9 26 -14 29 -11 8 8 3 12 -27 21 l-25 7 23 -17z"/>
<path d="M383 1185 c11 -7 25 -11 33 -8 22 8 6 23 -24 23 -25 -1 -26 -2 -9
-15z"/>
<path d="M1592 1267 c-7 -8 -6 -18 4 -31 13 -19 14 -18 14 12 0 35 -3 38 -18
19z"/>
<path d="M660 1265 c0 -8 5 -15 10 -15 6 0 10 7 10 15 0 8 -4 15 -10 15 -5 0
-10 -7 -10 -15z"/>
<path d="M653 1208 c2 -7 10 -13 17 -13 7 0 15 6 18 13 2 7 -5 12 -18 12 -13
0 -20 -5 -17 -12z"/>
<path d="M734 1265 c-8 -19 2 -45 16 -45 5 0 10 14 10 30 0 31 -16 41 -26 15z"/>
<path d="M1040 1265 c0 -8 7 -15 15 -15 9 0 12 6 9 15 -4 8 -10 15 -15 15 -5
0 -9 -7 -9 -15z"/>
<path d="M1170 1235 c0 -8 5 -15 10 -15 6 0 10 7 10 15 0 8 -4 15 -10 15 -5 0
-10 -7 -10 -15z"/>
<path d="M1334 1265 c-8 -19 2 -45 16 -45 5 0 10 14 10 30 0 31 -16 41 -26 15z"/>
<path d="M2960 1080 c0 -13 7 -20 20 -20 13 0 20 7 20 20 0 13 -7 20 -20 20
-13 0 -20 -7 -20 -20z"/>
<path d="M700 1030 c0 -5 7 -10 15 -10 8 0 15 5 15 10 0 6 -7 10 -15 10 -8 0
-15 -4 -15 -10z"/>
<path d="M904 1055 c-7 -18 3 -35 21 -35 18 0 26 15 19 34 -8 20 -33 21 -40 1z"/>
<path d="M984 1055 c-7 -18 3 -35 22 -35 8 0 14 10 14 25 0 27 -27 35 -36 10z"/>
<path d="M1064 1055 c-7 -18 3 -35 22 -35 8 0 14 10 14 25 0 27 -27 35 -36 10z"/>
<path d="M1230 1030 c0 -5 7 -10 15 -10 8 0 15 5 15 10 0 6 -7 10 -15 10 -8 0
-15 -4 -15 -10z"/>
<path d="M1383 1054 c-8 -21 13 -42 28 -27 13 13 5 43 -11 43 -6 0 -13 -7 -17
-16z"/>
<path d="M1680 1060 c0 -5 7 -10 15 -10 8 0 15 5 15 10 0 6 -7 10 -15 10 -8 0
-15 -4 -15 -10z"/>
<path d="M1680 1030 c0 -5 7 -10 15 -10 8 0 15 5 15 10 0 6 -7 10 -15 10 -8 0
-15 -4 -15 -10z"/>
<path d="M1750 1030 c0 -5 4 -10 9 -10 6 0 13 5 16 10 3 6 -1 10 -9 10 -9 0
-16 -4 -16 -10z"/>
<path d="M1937 1064 c-15 -15 -7 -45 11 -42 9 2 17 12 17 22 0 20 -16 31 -28
20z"/>
<path d="M2010 1060 c0 -5 5 -10 10 -10 6 0 10 5 10 10 0 6 -4 10 -10 10 -5 0
-10 -4 -10 -10z"/>
<path d="M2010 1030 c0 -5 7 -10 15 -10 8 0 15 5 15 10 0 6 -7 10 -15 10 -8 0
-15 -4 -15 -10z"/>
<path d="M2075 1030 c-3 -5 1 -10 9 -10 9 0 16 5 16 10 0 6 -4 10 -9 10 -6 0
-13 -4 -16 -10z"/>
<path d="M2200 1030 c0 -5 4 -10 9 -10 6 0 13 5 16 10 3 6 -1 10 -9 10 -9 0
-16 -4 -16 -10z"/>
<path d="M2367 1064 c-15 -15 -7 -45 11 -42 9 2 17 12 17 22 0 20 -16 31 -28
20z"/>
<path d="M2500 1030 c0 -5 7 -10 15 -10 8 0 15 5 15 10 0 6 -7 10 -15 10 -8 0
-15 -4 -15 -10z"/>
<path d="M2604 1055 c-7 -18 3 -35 22 -35 8 0 14 10 14 25 0 27 -27 35 -36 10z"/>
<path d="M2688 1045 c-4 -17 -1 -25 8 -25 8 0 14 11 14 25 0 14 -4 25 -9 25
-5 0 -11 -11 -13 -25z"/>
<path d="M3230 1030 c0 -5 4 -10 9 -10 6 0 13 5 16 10 3 6 -1 10 -9 10 -9 0
-16 -4 -16 -10z"/>
<path d="M3480 1030 c0 -5 4 -10 9 -10 6 0 13 5 16 10 3 6 -1 10 -9 10 -9 0
-16 -4 -16 -10z"/>
<path d="M3630 1061 c0 -5 -3 -16 -6 -25 -4 -11 -1 -16 10 -16 10 0 16 9 16
25 0 14 -4 25 -10 25 -5 0 -10 -4 -10 -9z"/>
<path d="M3690 1030 c0 -5 7 -10 15 -10 8 0 15 5 15 10 0 6 -7 10 -15 10 -8 0
-15 -4 -15 -10z"/>
<path d="M4020 1060 c0 -5 7 -10 15 -10 8 0 15 5 15 10 0 6 -7 10 -15 10 -8 0
-15 -4 -15 -10z"/>
<path d="M4157 1057 c-3 -8 -2 -20 3 -27 11 -18 42 -4 38 17 -4 22 -34 29 -41
10z"/>
<path d="M2524 875 c-7 -18 3 -35 21 -35 18 0 26 15 19 34 -8 20 -33 21 -40 1z"/>
<path d="M2603 874 c-8 -21 13 -42 28 -27 13 13 5 43 -11 43 -6 0 -13 -7 -17
-16z"/>
<path d="M685 850 c-3 -5 1 -10 9 -10 9 0 16 5 16 10 0 6 -4 10 -9 10 -6 0
-13 -4 -16 -10z"/>
<path d="M893 874 c-7 -18 11 -39 26 -30 17 11 13 46 -4 46 -9 0 -18 -7 -22
-16z"/>
<path d="M970 880 c0 -5 7 -10 15 -10 8 0 15 5 15 10 0 6 -7 10 -15 10 -8 0
-15 -4 -15 -10z"/>
<path d="M1040 880 c0 -5 7 -10 15 -10 8 0 15 5 15 10 0 6 -7 10 -15 10 -8 0
-15 -4 -15 -10z"/>
<path d="M1040 850 c0 -5 7 -10 15 -10 8 0 15 5 15 10 0 6 -7 10 -15 10 -8 0
-15 -4 -15 -10z"/>
<path d="M1110 850 c0 -5 7 -10 15 -10 8 0 15 5 15 10 0 6 -7 10 -15 10 -8 0
-15 -4 -15 -10z"/>
<path d="M1183 874 c-7 -18 11 -39 26 -30 17 11 13 46 -4 46 -9 0 -18 -7 -22
-16z"/>
<path d="M1330 880 c0 -5 5 -10 10 -10 6 0 10 5 10 10 0 6 -4 10 -10 10 -5 0
-10 -4 -10 -10z"/>
<path d="M1330 850 c0 -5 7 -10 15 -10 8 0 15 5 15 10 0 6 -7 10 -15 10 -8 0
-15 -4 -15 -10z"/>
<path d="M1395 850 c-3 -5 1 -10 9 -10 9 0 16 5 16 10 0 6 -4 10 -9 10 -6 0
-13 -4 -16 -10z"/>
<path d="M1640 880 c0 -5 7 -10 15 -10 8 0 15 5 15 10 0 6 -7 10 -15 10 -8 0
-15 -4 -15 -10z"/>
<path d="M1815 850 c-3 -5 1 -10 9 -10 9 0 16 5 16 10 0 6 -4 10 -9 10 -6 0
-13 -4 -16 -10z"/>
<path d="M1977 884 c-15 -15 -7 -45 11 -42 9 2 17 12 17 22 0 20 -16 31 -28
20z"/>
<path d="M2040 850 c0 -5 7 -10 15 -10 8 0 15 5 15 10 0 6 -7 10 -15 10 -8 0
-15 -4 -15 -10z"/>
<path d="M2110 880 c0 -5 7 -10 15 -10 8 0 15 5 15 10 0 6 -7 10 -15 10 -8 0
-15 -4 -15 -10z"/>
<path d="M2110 850 c0 -5 7 -10 15 -10 8 0 15 5 15 10 0 6 -7 10 -15 10 -8 0
-15 -4 -15 -10z"/>
<path d="M2373 874 c-8 -21 13 -42 28 -27 13 13 5 43 -11 43 -6 0 -13 -7 -17
-16z"/>
<path d="M2458 865 c-4 -17 -1 -25 8 -25 8 0 14 11 14 25 0 14 -4 25 -9 25 -5
0 -11 -11 -13 -25z"/>
<path d="M2684 875 c-7 -18 3 -35 22 -35 8 0 14 10 14 25 0 27 -27 35 -36 10z"/>
<path d="M2763 874 c-8 -21 13 -42 28 -27 13 13 5 43 -11 43 -6 0 -13 -7 -17
-16z"/>
<path d="M2870 880 c0 -5 7 -10 15 -10 8 0 15 5 15 10 0 6 -7 10 -15 10 -8 0
-15 -4 -15 -10z"/>
<path d="M2870 850 c0 -5 7 -10 15 -10 8 0 15 5 15 10 0 6 -7 10 -15 10 -8 0
-15 -4 -15 -10z"/>
<path d="M2944 875 c-7 -18 3 -35 22 -35 8 0 14 10 14 25 0 27 -27 35 -36 10z"/>
<path d="M3020 880 c0 -5 7 -10 15 -10 8 0 15 5 15 10 0 6 -7 10 -15 10 -8 0
-15 -4 -15 -10z"/>
<path d="M3190 880 c0 -5 7 -10 15 -10 8 0 15 5 15 10 0 6 -7 10 -15 10 -8 0
-15 -4 -15 -10z"/>
<path d="M3360 850 c0 -5 7 -10 15 -10 8 0 15 5 15 10 0 6 -7 10 -15 10 -8 0
-15 -4 -15 -10z"/>
<path d="M3535 880 c-3 -5 3 -10 15 -10 12 0 18 5 15 10 -3 6 -10 10 -15 10
-5 0 -12 -4 -15 -10z"/>
<path d="M3660 880 c0 -5 7 -10 15 -10 8 0 15 5 15 10 0 6 -7 10 -15 10 -8 0
-15 -4 -15 -10z"/>
<path d="M3820 881 c0 -5 -3 -16 -6 -25 -4 -11 -1 -16 10 -16 10 0 16 9 16 25
0 14 -4 25 -10 25 -5 0 -10 -4 -10 -9z"/>
<path d="M3880 850 c0 -5 4 -10 9 -10 6 0 13 5 16 10 3 6 -1 10 -9 10 -9 0
-16 -4 -16 -10z"/>
<path d="M3953 874 c-7 -18 11 -39 26 -30 17 11 13 46 -4 46 -9 0 -18 -7 -22
-16z"/>
<path d="M4105 850 c-3 -5 1 -10 9 -10 9 0 16 5 16 10 0 6 -4 10 -9 10 -6 0
-13 -4 -16 -10z"/>
<path d="M4230 850 c0 -5 4 -10 9 -10 6 0 13 5 16 10 3 6 -1 10 -9 10 -9 0
-16 -4 -16 -10z"/>
<path d="M4405 850 c-3 -5 1 -10 9 -10 9 0 16 5 16 10 0 6 -4 10 -9 10 -6 0
-13 -4 -16 -10z"/>
<path d="M4535 880 c-3 -5 3 -10 15 -10 12 0 18 5 15 10 -3 6 -10 10 -15 10
-5 0 -12 -4 -15 -10z"/>
<path d="M4670 850 c0 -5 4 -10 9 -10 6 0 13 5 16 10 3 6 -1 10 -9 10 -9 0
-16 -4 -16 -10z"/>
<path d="M734 726 c-11 -29 1 -61 23 -64 24 -4 38 25 28 58 -7 23 -43 27 -51
6z"/>
<path d="M1026 715 c-9 -23 -8 -25 9 -25 17 0 19 9 6 28 -7 11 -10 10 -15 -3z"/>
<path d="M3924 695 c-7 -18 3 -35 21 -35 18 0 26 15 19 34 -8 20 -33 21 -40 1z"/>
<path d="M4003 694 c-8 -21 13 -42 28 -27 13 13 5 43 -11 43 -6 0 -13 -7 -17
-16z"/>
<path d="M1133 694 c-8 -21 13 -42 28 -27 13 13 5 43 -11 43 -6 0 -13 -7 -17
-16z"/>
<path d="M1218 685 c-4 -17 -1 -25 8 -25 8 0 14 11 14 25 0 14 -4 25 -9 25 -5
0 -11 -11 -13 -25z"/>
<path d="M1980 670 c0 -5 7 -10 15 -10 8 0 15 5 15 10 0 6 -7 10 -15 10 -8 0
-15 -4 -15 -10z"/>
<path d="M2110 670 c0 -5 4 -10 9 -10 6 0 13 5 16 10 3 6 -1 10 -9 10 -9 0
-16 -4 -16 -10z"/>
<path d="M2230 670 c0 -5 7 -10 15 -10 8 0 15 5 15 10 0 6 -7 10 -15 10 -8 0
-15 -4 -15 -10z"/>
<path d="M2384 695 c-7 -18 3 -35 21 -35 18 0 26 15 19 34 -8 20 -33 21 -40 1z"/>
<path d="M2476 692 c-4 -13 -5 -26 -2 -29 10 -11 18 4 14 29 l-4 23 -8 -23z"/>
<path d="M2690 670 c0 -5 7 -10 15 -10 8 0 15 5 15 10 0 6 -7 10 -15 10 -8 0
-15 -4 -15 -10z"/>
<path d="M3167 697 c-3 -8 -2 -20 3 -27 11 -18 42 -4 38 17 -4 22 -34 29 -41
10z"/>
<path d="M3570 670 c0 -5 7 -10 15 -10 8 0 15 5 15 10 0 6 -7 10 -15 10 -8 0
-15 -4 -15 -10z"/>
<path d="M3750 670 c0 -5 4 -10 9 -10 6 0 13 5 16 10 3 6 -1 10 -9 10 -9 0
-16 -4 -16 -10z"/>
<path d="M3858 685 c-4 -17 -1 -25 8 -25 8 0 14 11 14 25 0 14 -4 25 -9 25 -5
0 -11 -11 -13 -25z"/>
<path d="M4084 695 c-7 -18 3 -35 22 -35 8 0 14 10 14 25 0 27 -27 35 -36 10z"/>
<path d="M4163 694 c-8 -21 13 -42 28 -27 13 13 5 43 -11 43 -6 0 -13 -7 -17
-16z"/>
<path d="M4270 700 c0 -5 7 -10 15 -10 8 0 15 5 15 10 0 6 -7 10 -15 10 -8 0
-15 -4 -15 -10z"/>
<path d="M4270 670 c0 -5 7 -10 15 -10 8 0 15 5 15 10 0 6 -7 10 -15 10 -8 0
-15 -4 -15 -10z"/>
<path d="M4344 695 c-7 -18 3 -35 22 -35 8 0 14 10 14 25 0 27 -27 35 -36 10z"/>
<path d="M4425 700 c-3 -5 3 -10 15 -10 12 0 18 5 15 10 -3 6 -10 10 -15 10
-5 0 -12 -4 -15 -10z"/>
<path d="M4590 700 c0 -5 7 -10 15 -10 8 0 15 5 15 10 0 6 -7 10 -15 10 -8 0
-15 -4 -15 -10z"/>
<path d="M4685 670 c-3 -5 1 -10 9 -10 9 0 16 5 16 10 0 6 -4 10 -9 10 -6 0
-13 -4 -16 -10z"/>
<path d="M2070 540 c0 -13 7 -20 20 -20 13 0 20 7 20 20 0 13 -7 20 -20 20
-13 0 -20 -7 -20 -20z"/>
<path d="M2336 535 c-9 -23 -8 -25 9 -25 17 0 19 9 6 28 -7 11 -10 10 -15 -3z"/>
<path d="M610 520 c0 -5 7 -10 15 -10 8 0 15 5 15 10 0 6 -7 10 -15 10 -8 0
-15 -4 -15 -10z"/>
<path d="M610 490 c0 -5 7 -10 15 -10 8 0 15 5 15 10 0 6 -7 10 -15 10 -8 0
-15 -4 -15 -10z"/>
<path d="M684 515 c-7 -18 3 -35 22 -35 8 0 14 10 14 25 0 27 -27 35 -36 10z"/>
<path d="M760 520 c0 -5 7 -10 15 -10 8 0 15 5 15 10 0 6 -7 10 -15 10 -8 0
-15 -4 -15 -10z"/>
<path d="M843 510 c-6 -15 -7 -26 -1 -29 15 -5 20 5 16 31 l-5 23 -10 -25z"/>
<path d="M984 515 c-7 -18 3 -35 22 -35 8 0 14 10 14 25 0 27 -27 35 -36 10z"/>
<path d="M1204 515 c-7 -18 3 -35 22 -35 8 0 14 10 14 25 0 27 -27 35 -36 10z"/>
<path d="M1280 520 c0 -5 7 -10 15 -10 8 0 15 5 15 10 0 6 -7 10 -15 10 -8 0
-15 -4 -15 -10z"/>
<path d="M1423 514 c-8 -21 13 -42 28 -27 13 13 5 43 -11 43 -6 0 -13 -7 -17
-16z"/>
<path d="M1507 524 c-15 -15 -7 -45 11 -42 9 2 17 12 17 22 0 20 -16 31 -28
20z"/>
<path d="M1590 521 c0 -5 -3 -16 -6 -25 -4 -11 -1 -16 10 -16 10 0 16 9 16 25
0 14 -4 25 -10 25 -5 0 -10 -4 -10 -9z"/>
<path d="M1710 520 c0 -5 7 -10 15 -10 8 0 15 5 15 10 0 6 -7 10 -15 10 -8 0
-15 -4 -15 -10z"/>
<path d="M1710 490 c0 -5 7 -10 15 -10 8 0 15 5 15 10 0 6 -7 10 -15 10 -8 0
-15 -4 -15 -10z"/>
<path d="M1784 515 c-7 -18 3 -35 22 -35 8 0 14 10 14 25 0 27 -27 35 -36 10z"/>
</g>
</svg>
