<?xml version="1.0" encoding="UTF-8"?>
<!DOCTYPE svg PUBLIC "-//W3C//DTD SVG 1.1//EN" "http://www.w3.org/Graphics/SVG/1.1/DTD/svg11.dtd">
<svg xmlns="http://www.w3.org/2000/svg" version="1.1" width="293px" height="302px" style="shape-rendering:geometricPrecision; text-rendering:geometricPrecision; image-rendering:optimizeQuality; fill-rule:evenodd; clip-rule:evenodd" xmlns:xlink="http://www.w3.org/1999/xlink">
<g><path style="opacity:1" fill="#f3f3f3" d="M -0.5,-0.5 C 97.1667,-0.5 194.833,-0.5 292.5,-0.5C 292.5,100.167 292.5,200.833 292.5,301.5C 254.5,301.5 216.5,301.5 178.5,301.5C 181.103,299.401 183.603,297.068 186,294.5C 186.667,295.833 187.333,295.833 188,294.5C 188.494,292.866 188.66,291.199 188.5,289.5C 192.846,289.334 197.179,289.501 201.5,290C 200.5,290.833 199.5,291.667 198.5,292.5C 199.371,295.032 199.705,297.365 199.5,299.5C 201.085,297.294 202.585,294.961 204,292.5C 204.689,293.357 205.522,294.023 206.5,294.5C 207.59,293.273 208.924,292.44 210.5,292C 208.122,291.489 205.788,290.822 203.5,290C 204.056,289.617 204.389,289.117 204.5,288.5C 215.023,286.146 225.69,283.312 236.5,280C 247.18,274.988 255.68,267.488 262,257.5C 263.254,251.729 264.42,246.062 265.5,240.5C 266.319,237.695 266.819,234.695 267,231.5C 267.5,212.836 267.667,194.17 267.5,175.5C 267.822,167.271 267.155,159.271 265.5,151.5C 265.5,150.5 265.5,149.5 265.5,148.5C 265.844,143.878 265.177,139.545 263.5,135.5C 261.715,118.694 257.882,102.36 252,86.5C 248.278,76.7728 241.444,70.6061 231.5,68C 221.89,65.7322 212.223,63.8989 202.5,62.5C 200.485,61.0762 198.152,60.4095 195.5,60.5C 188.049,59.0279 180.382,58.3612 172.5,58.5C 169.375,57.5206 166.042,57.1872 162.5,57.5C 150.34,56.6692 138.007,56.1692 125.5,56C 127.402,55.8008 128.902,54.9675 130,53.5C 132.015,54.8423 134.182,55.3423 136.5,55C 136.043,54.586 135.709,54.086 135.5,53.5C 136.689,52.5713 138.022,52.238 139.5,52.5C 140.42,50.1191 140.42,47.7857 139.5,45.5C 140.657,43.322 141.99,41.322 143.5,39.5C 146.187,41.3939 146.187,42.0606 143.5,41.5C 142.167,42.5 142.167,43.5 143.5,44.5C 144.833,43.1667 146.167,43.1667 147.5,44.5C 148.251,43.624 148.751,42.624 149,41.5C 150.887,43.886 153.387,45.0527 156.5,45C 155.542,46.1475 155.875,47.1475 157.5,48C 155.613,48.1626 154.113,47.3293 153,45.5C 152.667,46.1667 152.333,46.8333 152,47.5C 151.261,46.4258 150.261,45.7591 149,45.5C 147.765,46.6155 146.598,46.6155 145.5,45.5C 142.672,46.9957 141.006,49.329 140.5,52.5C 139.624,53.2508 138.624,53.7508 137.5,54C 137.833,54.3333 138.167,54.6667 138.5,55C 144.167,55.6667 149.833,55.6667 155.5,55C 154.833,54.3333 154.167,53.6667 153.5,53C 154.849,52.2276 155.682,51.0609 156,49.5C 156.923,50.7588 157.757,52.0921 158.5,53.5C 160.529,52.3707 160.863,52.8707 159.5,55C 161.259,55.7975 162.926,55.6309 164.5,54.5C 165.711,53.2798 165.711,52.1131 164.5,51C 166.657,49.9153 166.824,48.7487 165,47.5C 163.488,49.9574 162.154,49.9574 161,47.5C 160.915,49.0846 160.749,50.4179 160.5,51.5C 159.031,48.8858 158.364,46.0524 158.5,43C 159.132,39.5222 159.132,36.1889 158.5,33C 158.61,30.7448 159.61,29.0781 161.5,28C 160.643,27.3109 159.977,26.4776 159.5,25.5C 159.956,23.1726 161.623,21.3393 164.5,20C 163.167,19.3333 163.167,18.6667 164.5,18C 162.421,17.1923 160.421,17.359 158.5,18.5C 159.262,18.9106 160.262,19.0773 161.5,19C 158.206,21.7925 154.54,23.9592 150.5,25.5C 151.833,26.6199 152.333,27.9532 152,29.5C 150.846,28.2567 149.512,27.2567 148,26.5C 147.333,27.5 147.333,28.5 148,29.5C 149.131,28.3961 149.965,28.7295 150.5,30.5C 148.615,31.1973 148.282,32.1973 149.5,33.5C 149.167,33.8333 148.833,34.1667 148.5,34.5C 146.105,31.8456 144.105,32.1789 142.5,35.5C 143.688,35.3069 145.022,35.8069 146.5,37C 144.975,38.0086 143.308,38.5086 141.5,38.5C 141.5,36.1667 141.5,33.8333 141.5,31.5C 142.833,31.5 144.167,31.5 145.5,31.5C 144.16,28.556 144.493,25.8894 146.5,23.5C 145.188,19.8594 144.021,20.1927 143,24.5C 142.586,24.0426 142.086,23.7093 141.5,23.5C 140.667,24.5 139.833,25.5 139,26.5C 138.054,24.0577 136.554,22.0577 134.5,20.5C 131.718,22.0034 130.885,24.3368 132,27.5C 131,26.5 130,25.5 129,24.5C 128.02,27.3318 126.02,28.9984 123,29.5C 124.765,25.6482 126.931,21.8149 129.5,18C 129.167,17.6667 128.833,17.3333 128.5,17C 129.5,16.3333 130.5,16.3333 131.5,17C 130.476,18.3671 130.976,19.2005 133,19.5C 135.02,18.9681 135.853,17.6348 135.5,15.5C 138.718,15.6509 139.051,16.4842 136.5,18C 137.416,18.3742 138.25,18.8742 139,19.5C 139.199,17.5975 140.033,16.0975 141.5,15C 141.043,14.586 140.709,14.086 140.5,13.5C 142.131,11.7801 143.297,9.78014 144,7.5C 147.159,6.25503 146.993,5.08836 143.5,4C 143.833,3.66667 144.167,3.33333 144.5,3C 143.167,2.33333 141.833,2.33333 140.5,3C 142.007,3.83726 142.507,5.00392 142,6.5C 139.884,2.81008 138.051,2.81008 136.5,6.5C 133.163,5.89067 132.83,4.724 135.5,3C 133.5,2.33333 131.5,2.33333 129.5,3C 131.625,4.73729 132.458,6.90396 132,9.5C 131.028,7.69506 129.861,6.02839 128.5,4.5C 128.483,7.01395 127.983,9.68062 127,12.5C 125.702,11.4404 124.535,10.2737 123.5,9C 124.506,7.66203 125.506,6.32869 126.5,5C 125.285,2.90449 124.451,3.07116 124,5.5C 123.092,3.56138 121.592,2.56138 119.5,2.5C 118.968,7.79701 118.134,7.79701 117,2.5C 115.68,2.799 114.18,2.96566 112.5,3C 114.651,4.40527 116.318,6.2386 117.5,8.5C 117,8.83333 116.5,9.16667 116,9.5C 114.296,6.7782 112.13,4.44487 109.5,2.5C 106.286,2.38434 102.953,2.71767 99.5,3.5C 97.0689,7.31237 96.0689,7.31237 96.5,3.5C 94.6287,3.09375 92.7953,2.76042 91,2.5C 88.0331,3.26209 87.1998,4.92876 88.5,7.5C 88.1667,8.5 87.5,9.16667 86.5,9.5C 86.9679,7.8868 86.3013,6.3868 84.5,5C 84.9574,4.58605 85.2907,4.08605 85.5,3.5C 83.9222,2.92759 82.4222,2.59425 81,2.5C 80.3333,5.16667 79.6667,5.16667 79,2.5C 77.3333,5.16667 75.6667,7.83333 74,10.5C 73.7508,9.37598 73.2508,8.37598 72.5,7.5C 70.9222,8.64048 69.2555,9.14048 67.5,9C 70.2146,8.12526 71.5479,6.29192 71.5,3.5C 68.5176,3.03714 65.5176,2.70381 62.5,2.5C 62.4802,4.14297 63.1468,5.4763 64.5,6.5C 63.0977,7.84247 63.4311,8.6758 65.5,9C 64.9941,11.5318 63.8274,13.6984 62,15.5C 62.4688,11.1765 61.6355,7.00985 59.5,3C 50.0471,3.72383 40.7138,3.55716 31.5,2.5C 29.9121,3.00957 28.7455,4.00957 28,5.5C 27.7508,4.37598 27.2508,3.37598 26.5,2.5C 26.0894,3.26236 25.9227,4.26236 26,5.5C 22.088,1.40674 18.588,1.90674 15.5,7C 17.0548,8.64579 18.7215,8.97913 20.5,8C 18.7148,9.16284 16.7148,9.82951 14.5,10C 14.4301,11.6236 13.9301,13.4569 13,15.5C 12.0853,14.6721 11.4186,13.6721 11,12.5C 9.54802,13.9071 9.71468,15.4071 11.5,17C 10.5509,17.6172 9.71752,17.4506 9,16.5C 8.03057,13.6715 8.69724,11.3382 11,9.5C 11.3333,9.83333 11.6667,10.1667 12,10.5C 13.2992,7.58301 15.1326,5.08301 17.5,3C 15.555,3.12818 13.7216,2.96152 12,2.5C 9.35203,4.31047 7.0187,4.31047 5,2.5C 3.27404,3.64786 3.44071,4.81452 5.5,6C 7.22972,7.85237 8.39639,7.6857 9,5.5C 9.16667,6.16667 9.33333,6.83333 9.5,7.5C 5.76576,11.4534 5.76576,15.2867 9.5,19C 8.64352,21.4099 7.31019,22.5766 5.5,22.5C 7.33285,23.9684 7.66619,25.6351 6.5,27.5C 4.14022,29.6616 1.80688,31.6616 -0.5,33.5C -0.5,22.1667 -0.5,10.8333 -0.5,-0.5 Z"/></g>
<g><path style="opacity:1" fill="#f1f2f2" d="M 162.5,57.5 C 148.131,57.2176 133.797,57.5509 119.5,58.5C 117.833,58.5 116.167,58.5 114.5,58.5C 95.4601,60.2707 76.4601,62.4374 57.5,65C 48.6068,66.3539 39.9401,68.3539 31.5,71C 19.9821,81.9911 15.6487,95.4911 18.5,111.5C 18.5,114.833 18.5,118.167 18.5,121.5C 18.3334,135.837 18.5001,150.171 19,164.5C 20.7175,194.698 22.5508,224.864 24.5,255C 28.8516,277.515 42.5183,289.015 65.5,289.5C 100.332,290.16 135.332,290.16 170.5,289.5C 181.828,289.027 193.162,288.693 204.5,288.5C 204.389,289.117 204.056,289.617 203.5,290C 205.788,290.822 208.122,291.489 210.5,292C 208.924,292.44 207.59,293.273 206.5,294.5C 205.522,294.023 204.689,293.357 204,292.5C 202.585,294.961 201.085,297.294 199.5,299.5C 199.705,297.365 199.371,295.032 198.5,292.5C 199.5,291.667 200.5,290.833 201.5,290C 197.179,289.501 192.846,289.334 188.5,289.5C 188.66,291.199 188.494,292.866 188,294.5C 187.333,295.833 186.667,295.833 186,294.5C 183.603,297.068 181.103,299.401 178.5,301.5C 118.833,301.5 59.1667,301.5 -0.5,301.5C -0.5,212.167 -0.5,122.833 -0.5,33.5C 1.80688,31.6616 4.14022,29.6616 6.5,27.5C 7.66619,25.6351 7.33285,23.9684 5.5,22.5C 7.31019,22.5766 8.64352,21.4099 9.5,19C 5.76576,15.2867 5.76576,11.4534 9.5,7.5C 9.33333,6.83333 9.16667,6.16667 9,5.5C 8.39639,7.6857 7.22972,7.85237 5.5,6C 3.44071,4.81452 3.27404,3.64786 5,2.5C 7.0187,4.31047 9.35203,4.31047 12,2.5C 13.7216,2.96152 15.555,3.12818 17.5,3C 15.1326,5.08301 13.2992,7.58301 12,10.5C 11.6667,10.1667 11.3333,9.83333 11,9.5C 8.69724,11.3382 8.03057,13.6715 9,16.5C 9.71752,17.4506 10.5509,17.6172 11.5,17C 9.71468,15.4071 9.54802,13.9071 11,12.5C 11.4186,13.6721 12.0853,14.6721 13,15.5C 13.9301,13.4569 14.4301,11.6236 14.5,10C 16.7148,9.82951 18.7148,9.16284 20.5,8C 18.7215,8.97913 17.0548,8.64579 15.5,7C 18.588,1.90674 22.088,1.40674 26,5.5C 25.9227,4.26236 26.0894,3.26236 26.5,2.5C 27.2508,3.37598 27.7508,4.37598 28,5.5C 28.7455,4.00957 29.9121,3.00957 31.5,2.5C 40.7138,3.55716 50.0471,3.72383 59.5,3C 61.6355,7.00985 62.4688,11.1765 62,15.5C 63.8274,13.6984 64.9941,11.5318 65.5,9C 63.4311,8.6758 63.0977,7.84247 64.5,6.5C 63.1468,5.4763 62.4802,4.14297 62.5,2.5C 65.5176,2.70381 68.5176,3.03714 71.5,3.5C 71.5479,6.29192 70.2146,8.12526 67.5,9C 69.2555,9.14048 70.9222,8.64048 72.5,7.5C 73.2508,8.37598 73.7508,9.37598 74,10.5C 75.6667,7.83333 77.3333,5.16667 79,2.5C 79.6667,5.16667 80.3333,5.16667 81,2.5C 82.4222,2.59425 83.9222,2.92759 85.5,3.5C 85.2907,4.08605 84.9574,4.58605 84.5,5C 86.3013,6.3868 86.9679,7.8868 86.5,9.5C 87.5,9.16667 88.1667,8.5 88.5,7.5C 87.1998,4.92876 88.0331,3.26209 91,2.5C 92.7953,2.76042 94.6287,3.09375 96.5,3.5C 96.0689,7.31237 97.0689,7.31237 99.5,3.5C 102.953,2.71767 106.286,2.38434 109.5,2.5C 112.13,4.44487 114.296,6.7782 116,9.5C 116.5,9.16667 117,8.83333 117.5,8.5C 116.318,6.2386 114.651,4.40527 112.5,3C 114.18,2.96566 115.68,2.799 117,2.5C 118.134,7.79701 118.968,7.79701 119.5,2.5C 121.592,2.56138 123.092,3.56138 124,5.5C 124.451,3.07116 125.285,2.90449 126.5,5C 125.506,6.32869 124.506,7.66203 123.5,9C 124.535,10.2737 125.702,11.4404 127,12.5C 127.983,9.68062 128.483,7.01395 128.5,4.5C 129.861,6.02839 131.028,7.69506 132,9.5C 132.458,6.90396 131.625,4.73729 129.5,3C 131.5,2.33333 133.5,2.33333 135.5,3C 132.83,4.724 133.163,5.89067 136.5,6.5C 138.051,2.81008 139.884,2.81008 142,6.5C 142.507,5.00392 142.007,3.83726 140.5,3C 141.833,2.33333 143.167,2.33333 144.5,3C 144.167,3.33333 143.833,3.66667 143.5,4C 146.993,5.08836 147.159,6.25503 144,7.5C 143.297,9.78014 142.131,11.7801 140.5,13.5C 140.709,14.086 141.043,14.586 141.5,15C 140.033,16.0975 139.199,17.5975 139,19.5C 138.25,18.8742 137.416,18.3742 136.5,18C 139.051,16.4842 138.718,15.6509 135.5,15.5C 135.853,17.6348 135.02,18.9681 133,19.5C 130.976,19.2005 130.476,18.3671 131.5,17C 130.5,16.3333 129.5,16.3333 128.5,17C 128.833,17.3333 129.167,17.6667 129.5,18C 126.931,21.8149 124.765,25.6482 123,29.5C 126.02,28.9984 128.02,27.3318 129,24.5C 130,25.5 131,26.5 132,27.5C 130.885,24.3368 131.718,22.0034 134.5,20.5C 136.554,22.0577 138.054,24.0577 139,26.5C 139.833,25.5 140.667,24.5 141.5,23.5C 142.086,23.7093 142.586,24.0426 143,24.5C 144.021,20.1927 145.188,19.8594 146.5,23.5C 144.493,25.8894 144.16,28.556 145.5,31.5C 144.167,31.5 142.833,31.5 141.5,31.5C 141.5,33.8333 141.5,36.1667 141.5,38.5C 143.308,38.5086 144.975,38.0086 146.5,37C 145.022,35.8069 143.688,35.3069 142.5,35.5C 144.105,32.1789 146.105,31.8456 148.5,34.5C 148.833,34.1667 149.167,33.8333 149.5,33.5C 148.282,32.1973 148.615,31.1973 150.5,30.5C 149.965,28.7295 149.131,28.3961 148,29.5C 147.333,28.5 147.333,27.5 148,26.5C 149.512,27.2567 150.846,28.2567 152,29.5C 152.333,27.9532 151.833,26.6199 150.5,25.5C 154.54,23.9592 158.206,21.7925 161.5,19C 160.262,19.0773 159.262,18.9106 158.5,18.5C 160.421,17.359 162.421,17.1923 164.5,18C 163.167,18.6667 163.167,19.3333 164.5,20C 161.623,21.3393 159.956,23.1726 159.5,25.5C 159.977,26.4776 160.643,27.3109 161.5,28C 159.61,29.0781 158.61,30.7448 158.5,33C 159.132,36.1889 159.132,39.5222 158.5,43C 158.364,46.0524 159.031,48.8858 160.5,51.5C 160.749,50.4179 160.915,49.0846 161,47.5C 162.154,49.9574 163.488,49.9574 165,47.5C 166.824,48.7487 166.657,49.9153 164.5,51C 165.711,52.1131 165.711,53.2798 164.5,54.5C 162.926,55.6309 161.259,55.7975 159.5,55C 160.863,52.8707 160.529,52.3707 158.5,53.5C 157.757,52.0921 156.923,50.7588 156,49.5C 155.682,51.0609 154.849,52.2276 153.5,53C 154.167,53.6667 154.833,54.3333 155.5,55C 149.833,55.6667 144.167,55.6667 138.5,55C 138.167,54.6667 137.833,54.3333 137.5,54C 138.624,53.7508 139.624,53.2508 140.5,52.5C 141.006,49.329 142.672,46.9957 145.5,45.5C 146.598,46.6155 147.765,46.6155 149,45.5C 150.261,45.7591 151.261,46.4258 152,47.5C 152.333,46.8333 152.667,46.1667 153,45.5C 154.113,47.3293 155.613,48.1626 157.5,48C 155.875,47.1475 155.542,46.1475 156.5,45C 153.387,45.0527 150.887,43.886 149,41.5C 148.751,42.624 148.251,43.624 147.5,44.5C 146.167,43.1667 144.833,43.1667 143.5,44.5C 142.167,43.5 142.167,42.5 143.5,41.5C 146.187,42.0606 146.187,41.3939 143.5,39.5C 141.99,41.322 140.657,43.322 139.5,45.5C 140.42,47.7857 140.42,50.1191 139.5,52.5C 138.022,52.238 136.689,52.5713 135.5,53.5C 135.709,54.086 136.043,54.586 136.5,55C 134.182,55.3423 132.015,54.8423 130,53.5C 128.902,54.9675 127.402,55.8008 125.5,56C 138.007,56.1692 150.34,56.6692 162.5,57.5 Z"/></g>
<g><path style="opacity:1" fill="#5e6a69" d="M 162.5,57.5 C 166.042,57.1872 169.375,57.5206 172.5,58.5C 179.969,59.7619 187.635,60.4285 195.5,60.5C 197.515,61.9238 199.848,62.5905 202.5,62.5C 212.223,63.8989 221.89,65.7322 231.5,68C 241.444,70.6061 248.278,76.7728 252,86.5C 257.882,102.36 261.715,118.694 263.5,135.5C 263.28,140.1 263.946,144.433 265.5,148.5C 265.5,149.5 265.5,150.5 265.5,151.5C 266.251,159.338 266.251,167.005 265.5,174.5C 255.463,168.644 245.796,162.144 236.5,155C 235.207,154.51 233.873,154.343 232.5,154.5C 232.5,152.833 232.5,151.167 232.5,149.5C 233.891,144.825 235.391,140.158 237,135.5C 240.028,134.383 242.695,132.716 245,130.5C 245.896,127.975 245.396,125.808 243.5,124C 240.167,123.667 236.833,123.333 233.5,123C 218.721,101.918 198.721,88.2517 173.5,82C 162.649,79.4499 151.649,78.1165 140.5,78C 139.944,77.6174 139.611,77.1174 139.5,76.5C 139.5,74.5 139.5,72.5 139.5,70.5C 138.209,70.2627 137.209,70.596 136.5,71.5C 133.397,73.4233 130.397,75.59 127.5,78C 124.978,79.3409 122.311,80.1743 119.5,80.5C 118.167,80.5 116.833,80.5 115.5,80.5C 115.5,77.1667 115.5,73.8333 115.5,70.5C 115.5,66.8333 115.5,63.1667 115.5,59.5C 117.099,59.7678 118.432,59.4345 119.5,58.5C 133.797,57.5509 148.131,57.2176 162.5,57.5 Z"/></g>
<g><path style="opacity:1" fill="#979d9d" d="M 172.5,58.5 C 180.382,58.3612 188.049,59.0279 195.5,60.5C 187.635,60.4285 179.969,59.7619 172.5,58.5 Z"/></g>
<g><path style="opacity:1" fill="#949b9b" d="M 195.5,60.5 C 198.152,60.4095 200.485,61.0762 202.5,62.5C 199.848,62.5905 197.515,61.9238 195.5,60.5 Z"/></g>
<g><path style="opacity:1" fill="#ebdeec" d="M 114.5,58.5 C 114.183,62.7016 114.517,66.7016 115.5,70.5C 115.5,73.8333 115.5,77.1667 115.5,80.5C 116.833,80.5 118.167,80.5 119.5,80.5C 99.7101,81.0832 83.3767,88.7498 70.5,103.5C 52.9711,105.102 35.6378,107.769 18.5,111.5C 15.6487,95.4911 19.9821,81.9911 31.5,71C 39.9401,68.3539 48.6068,66.3539 57.5,65C 76.4601,62.4374 95.4601,60.2707 114.5,58.5 Z"/></g>
<g><path style="opacity:1" fill="#a1a2a6" d="M 114.5,58.5 C 116.167,58.5 117.833,58.5 119.5,58.5C 118.432,59.4345 117.099,59.7678 115.5,59.5C 115.5,63.1667 115.5,66.8333 115.5,70.5C 114.517,66.7016 114.183,62.7016 114.5,58.5 Z"/></g>
<g><path style="opacity:1" fill="#a4afaf" d="M 136.5,71.5 C 137.209,70.596 138.209,70.2627 139.5,70.5C 139.5,72.5 139.5,74.5 139.5,76.5C 139.028,74.4687 138.028,72.8021 136.5,71.5 Z"/></g>
<g><path style="opacity:1" fill="#e7f3f9" d="M 136.5,71.5 C 138.028,72.8021 139.028,74.4687 139.5,76.5C 139.611,77.1174 139.944,77.6174 140.5,78C 151.649,78.1165 162.649,79.4499 173.5,82C 198.721,88.2517 218.721,101.918 233.5,123C 236.833,123.333 240.167,123.667 243.5,124C 245.396,125.808 245.896,127.975 245,130.5C 242.695,132.716 240.028,134.383 237,135.5C 235.391,140.158 233.891,144.825 232.5,149.5C 227.286,167.885 215.619,180.385 197.5,187C 187.702,190.426 177.702,193.093 167.5,195C 165.081,196.509 164.081,198.675 164.5,201.5C 163.448,201.649 162.448,201.483 161.5,201C 159.484,197.482 156.484,195.149 152.5,194C 139.601,192.463 126.934,189.963 114.5,186.5C 115.634,179.088 119.968,176.421 127.5,178.5C 132.365,177.485 136.699,175.318 140.5,172C 146.19,170.634 151.523,168.467 156.5,165.5C 157.678,162.609 158.345,159.609 158.5,156.5C 160.698,156.591 161.031,155.925 159.5,154.5C 160.496,154.414 161.329,154.748 162,155.5C 162.377,154.058 163.21,153.058 164.5,152.5C 165.833,152.5 166.5,151.833 166.5,150.5C 166.259,148.102 166.926,146.102 168.5,144.5C 173.389,146.436 177.556,145.436 181,141.5C 182.667,138.5 184.333,135.5 186,132.5C 186.81,128.642 186.643,124.976 185.5,121.5C 185.573,119.973 184.906,118.973 183.5,118.5C 182.373,117.878 181.373,117.045 180.5,116C 172.654,114.412 165.987,110.745 160.5,105C 156.5,103 152.5,101 148.5,99C 143.238,97.5615 137.904,97.2282 132.5,98C 128.89,98.4717 125.89,99.9717 123.5,102.5C 119.752,105.738 116.085,109.238 112.5,113C 109.92,114.144 107.253,114.978 104.5,115.5C 100.511,115.116 96.8448,115.783 93.5,117.5C 88.3048,118.701 84.6381,121.701 82.5,126.5C 81.8826,126.611 81.3826,126.944 81,127.5C 80.1993,130.367 80.3659,133.034 81.5,135.5C 82.2524,138.09 83.2524,140.59 84.5,143C 84.3829,145.616 83.0496,147.116 80.5,147.5C 78.9382,147.267 77.6049,146.6 76.5,145.5C 76.4226,144.25 75.756,143.417 74.5,143C 71.5547,141.869 68.5547,141.036 65.5,140.5C 63.0521,139.527 60.3854,139.194 57.5,139.5C 56.4324,138.566 55.099,138.232 53.5,138.5C 51.7641,134.957 50.4308,131.291 49.5,127.5C 53.594,128.295 56.7607,126.962 59,123.5C 62.0708,116.354 65.9042,109.687 70.5,103.5C 83.3767,88.7498 99.7101,81.0832 119.5,80.5C 122.311,80.1743 124.978,79.3409 127.5,78C 130.397,75.59 133.397,73.4233 136.5,71.5 Z"/></g>
<g><path style="opacity:1" fill="#c8d3d9" d="M 110.5,91.5 C 112.067,92.6808 112.901,94.3474 113,96.5C 113.667,99.8333 113.667,103.167 113,106.5C 111.111,101.746 110.278,96.7463 110.5,91.5 Z"/></g>
<g><path style="opacity:1" fill="#cad9dc" d="M 70.5,103.5 C 65.9042,109.687 62.0708,116.354 59,123.5C 56.7607,126.962 53.594,128.295 49.5,127.5C 50.4308,131.291 51.7641,134.957 53.5,138.5C 49.0293,137.911 45.0293,138.577 41.5,140.5C 39.8757,138.143 37.8757,135.976 35.5,134C 29.3368,130.312 23.6701,126.145 18.5,121.5C 18.5,118.167 18.5,114.833 18.5,111.5C 35.6378,107.769 52.9711,105.102 70.5,103.5 Z"/></g>
<g><path style="opacity:1" fill="#9e692c" d="M 183.5,118.5 C 183.427,120.027 184.094,121.027 185.5,121.5C 186.643,124.976 186.81,128.642 186,132.5C 184.333,135.5 182.667,138.5 181,141.5C 177.556,145.436 173.389,146.436 168.5,144.5C 167.277,142.128 166.277,139.628 165.5,137C 161.166,137.28 157.832,135.78 155.5,132.5C 155.245,130.033 154.245,128.033 152.5,126.5C 152.389,125.883 152.056,125.383 151.5,125C 148.421,124.315 145.421,123.481 142.5,122.5C 138.633,121.274 134.633,121.274 130.5,122.5C 126.756,121.063 123.089,120.23 119.5,120C 120.833,119 120.833,118 119.5,117C 122.055,115.445 123.888,113.278 125,110.5C 125.483,111.448 125.649,112.448 125.5,113.5C 126.5,113.5 127.5,113.5 128.5,113.5C 128.519,111.94 128.852,110.44 129.5,109C 128.144,107.433 127.477,105.6 127.5,103.5C 125.901,103.768 124.568,103.434 123.5,102.5C 125.89,99.9717 128.89,98.4717 132.5,98C 137.904,97.2282 143.238,97.5615 148.5,99C 152.5,101 156.5,103 160.5,105C 165.987,110.745 172.654,114.412 180.5,116C 181.373,117.045 182.373,117.878 183.5,118.5 Z"/></g>
<g><path style="opacity:1" fill="#b29066" d="M 104.5,115.5 C 101.026,116.525 97.3597,117.192 93.5,117.5C 96.8448,115.783 100.511,115.116 104.5,115.5 Z"/></g>
<g><path style="opacity:1" fill="#9e6b2e" d="M 123.5,102.5 C 124.568,103.434 125.901,103.768 127.5,103.5C 127.477,105.6 128.144,107.433 129.5,109C 128.852,110.44 128.519,111.94 128.5,113.5C 127.5,113.5 126.5,113.5 125.5,113.5C 125.649,112.448 125.483,111.448 125,110.5C 123.888,113.278 122.055,115.445 119.5,117C 120.833,118 120.833,119 119.5,120C 123.089,120.23 126.756,121.063 130.5,122.5C 130.5,122.833 130.5,123.167 130.5,123.5C 126.216,125.07 123.55,128.07 122.5,132.5C 121.167,132.5 119.833,132.5 118.5,132.5C 118.5,131.5 118.5,130.5 118.5,129.5C 116.923,126.983 115.09,126.983 113,129.5C 111.424,132.926 111.258,136.26 112.5,139.5C 112.5,140.5 112.5,141.5 112.5,142.5C 112.403,146.349 112.069,150.183 111.5,154C 113.302,161.064 113.802,168.231 113,175.5C 111.473,177.221 110.473,179.221 110,181.5C 107.534,183.758 105.367,186.091 103.5,188.5C 102.178,188.33 101.011,188.663 100,189.5C 99.7181,193.039 99.2181,196.539 98.5,200C 98.7432,200.902 99.0766,201.735 99.5,202.5C 98.5041,202.414 97.6708,202.748 97,203.5C 93.9258,210.952 88.4258,214.119 80.5,213C 78.548,211.588 77.2147,209.755 76.5,207.5C 76.5188,200.469 77.0188,200.136 78,206.5C 79.9693,198.973 80.9693,191.306 81,183.5C 81.3333,183.833 81.6667,184.167 82,184.5C 86.9488,180.726 86.4488,179.726 80.5,181.5C 81.1379,179.201 82.1379,177.034 83.5,175C 84.9904,175.449 86.3237,176.449 87.5,178C 88.5,178.667 89.5,178.667 90.5,178C 91.2638,175.931 91.7638,173.764 92,171.5C 93.0113,170.663 94.1779,170.33 95.5,170.5C 97.2477,165.977 96.081,162.31 92,159.5C 89.9783,160.991 88.3117,160.658 87,158.5C 86.6667,159.5 86.3333,160.5 86,161.5C 84.3333,158.833 82.6667,158.833 81,161.5C 79.2518,159.865 78.0851,157.865 77.5,155.5C 75.8888,156.32 75.2222,157.654 75.5,159.5C 68.385,158.925 67.5517,160.925 73,165.5C 74.8138,164.24 76.6471,164.24 78.5,165.5C 79.5153,168.022 80.8487,170.356 82.5,172.5C 81.635,173.583 80.635,173.749 79.5,173C 78.8971,171.175 78.2304,169.341 77.5,167.5C 77.1667,168.5 76.8333,169.5 76.5,170.5C 77.2043,172.535 77.871,174.535 78.5,176.5C 76.3618,176.297 74.6951,175.297 73.5,173.5C 72.2736,174.363 70.9403,174.363 69.5,173.5C 67.2651,170.709 65.2651,167.709 63.5,164.5C 63.0617,161.107 63.8951,158.107 66,155.5C 69.9701,153.681 73.8034,151.681 77.5,149.5C 79.0269,149.573 80.0269,148.906 80.5,147.5C 83.0496,147.116 84.3829,145.616 84.5,143C 83.2524,140.59 82.2524,138.09 81.5,135.5C 81.3677,132.43 81.701,129.43 82.5,126.5C 84.6381,121.701 88.3048,118.701 93.5,117.5C 97.3597,117.192 101.026,116.525 104.5,115.5C 107.253,114.978 109.92,114.144 112.5,113C 116.085,109.238 119.752,105.738 123.5,102.5 Z"/></g>
<g><path style="opacity:1" fill="#bda788" d="M 183.5,118.5 C 184.906,118.973 185.573,119.973 185.5,121.5C 184.094,121.027 183.427,120.027 183.5,118.5 Z"/></g>
<g><path style="opacity:1" fill="#c19b6c" d="M 142.5,122.5 C 138.466,122.505 134.466,122.838 130.5,123.5C 130.5,123.167 130.5,122.833 130.5,122.5C 134.633,121.274 138.633,121.274 142.5,122.5 Z"/></g>
<g><path style="opacity:1" fill="#cbeaf6" d="M 18.5,121.5 C 23.6701,126.145 29.3368,130.312 35.5,134C 37.8757,135.976 39.8757,138.143 41.5,140.5C 41.5,141.167 41.8333,141.5 42.5,141.5C 42.8333,141.5 43.1667,141.5 43.5,141.5C 47.5651,145.559 51.2317,149.893 54.5,154.5C 55.0798,156.749 56.4131,158.415 58.5,159.5C 59.9387,161.36 61.6053,163.027 63.5,164.5C 65.2651,167.709 67.2651,170.709 69.5,173.5C 73.1462,177.449 76.3129,181.782 79,186.5C 79.6667,189.167 79.6667,191.833 79,194.5C 75.7828,198.571 74.9495,202.904 76.5,207.5C 77.2147,209.755 78.548,211.588 80.5,213C 88.4258,214.119 93.9258,210.952 97,203.5C 97.6708,202.748 98.5041,202.414 99.5,202.5C 101.975,205.241 104.975,207.241 108.5,208.5C 112.658,211.414 116.991,214.081 121.5,216.5C 121.5,217.167 121.833,217.5 122.5,217.5C 123.566,218.692 124.399,218.359 125,216.5C 125.809,220.643 128.309,223.143 132.5,224C 137.07,228.114 141.403,232.447 145.5,237C 146.5,237.333 147.5,237.667 148.5,238C 155.117,244.183 161.117,250.683 166.5,257.5C 167.953,260.353 169.119,263.353 170,266.5C 170.5,273.826 170.666,281.159 170.5,288.5C 135.498,288.629 100.498,288.962 65.5,289.5C 42.5183,289.015 28.8516,277.515 24.5,255C 22.5508,224.864 20.7175,194.698 19,164.5C 18.5001,150.171 18.3334,135.837 18.5,121.5 Z"/></g>
<g><path style="opacity:1" fill="#ddbe96" d="M 118.5,129.5 C 116.726,128.119 115.226,128.452 114,130.5C 112.851,133.393 112.351,136.393 112.5,139.5C 111.258,136.26 111.424,132.926 113,129.5C 115.09,126.983 116.923,126.983 118.5,129.5 Z"/></g>
<g><path style="opacity:1" fill="#d2af85" d="M 152.5,126.5 C 154.245,128.033 155.245,130.033 155.5,132.5C 153.755,130.967 152.755,128.967 152.5,126.5 Z"/></g>
<g><path style="opacity:1" fill="#c5b296" d="M 82.5,126.5 C 81.701,129.43 81.3677,132.43 81.5,135.5C 80.3659,133.034 80.1993,130.367 81,127.5C 81.3826,126.944 81.8826,126.611 82.5,126.5 Z"/></g>
<g><path style="opacity:1" fill="#fae6cb" d="M 142.5,122.5 C 145.421,123.481 148.421,124.315 151.5,125C 152.056,125.383 152.389,125.883 152.5,126.5C 152.755,128.967 153.755,130.967 155.5,132.5C 157.832,135.78 161.166,137.28 165.5,137C 166.277,139.628 167.277,142.128 168.5,144.5C 166.926,146.102 166.259,148.102 166.5,150.5C 165.751,149.469 165.085,148.302 164.5,147C 161.563,146.9 158.896,146.067 156.5,144.5C 155.417,145.365 155.251,146.365 156,147.5C 158.405,148.274 160.905,148.774 163.5,149C 164.337,150.011 164.67,151.178 164.5,152.5C 163.21,153.058 162.377,154.058 162,155.5C 161.329,154.748 160.496,154.414 159.5,154.5C 157.576,154.711 157.243,155.377 158.5,156.5C 158.345,159.609 157.678,162.609 156.5,165.5C 151.523,168.467 146.19,170.634 140.5,172C 136.699,175.318 132.365,177.485 127.5,178.5C 123.83,176.926 119.996,175.259 116,173.5C 113.847,167.312 114.181,161.312 117,155.5C 118.406,156.668 119.572,156.335 120.5,154.5C 121.648,152.577 122.148,150.577 122,148.5C 118.61,151.054 115.777,154.054 113.5,157.5C 113.42,152.381 113.087,147.381 112.5,142.5C 112.5,141.5 112.5,140.5 112.5,139.5C 112.351,136.393 112.851,133.393 114,130.5C 115.226,128.452 116.726,128.119 118.5,129.5C 118.5,130.5 118.5,131.5 118.5,132.5C 119.833,132.5 121.167,132.5 122.5,132.5C 123.55,128.07 126.216,125.07 130.5,123.5C 134.466,122.838 138.466,122.505 142.5,122.5 Z"/></g>
<g><path style="opacity:1" fill="#946f44" d="M 137.5,128.5 C 139.527,128.338 141.527,128.505 143.5,129C 144.708,131.25 146.041,133.417 147.5,135.5C 146.5,136.833 145.5,136.833 144.5,135.5C 143.833,134.167 143.167,132.833 142.5,131.5C 140.345,130.999 138.678,129.999 137.5,128.5 Z"/></g>
<g><path style="opacity:1" fill="#c3b6b2" d="M 53.5,138.5 C 55.099,138.232 56.4324,138.566 57.5,139.5C 52.0557,138.892 47.0557,139.558 42.5,141.5C 41.8333,141.5 41.5,141.167 41.5,140.5C 45.0293,138.577 49.0293,137.911 53.5,138.5 Z"/></g>
<g><path style="opacity:1" fill="#a96e5d" d="M 57.5,139.5 C 60.3854,139.194 63.0521,139.527 65.5,140.5C 57.9809,140.175 50.6476,140.508 43.5,141.5C 43.1667,141.5 42.8333,141.5 42.5,141.5C 47.0557,139.558 52.0557,138.892 57.5,139.5 Z"/></g>
<g><path style="opacity:1" fill="#706659" d="M 135.5,136.5 C 137.216,138.208 139.216,139.542 141.5,140.5C 138.309,141.352 136.309,140.019 135.5,136.5 Z"/></g>
<g><path style="opacity:1" fill="#956f43" d="M 166.5,150.5 C 166.5,151.833 165.833,152.5 164.5,152.5C 164.67,151.178 164.337,150.011 163.5,149C 160.905,148.774 158.405,148.274 156,147.5C 155.251,146.365 155.417,145.365 156.5,144.5C 158.896,146.067 161.563,146.9 164.5,147C 165.085,148.302 165.751,149.469 166.5,150.5 Z"/></g>
<g><path style="opacity:1" fill="#e5c4a5" d="M 76.5,145.5 C 77.6049,146.6 78.9382,147.267 80.5,147.5C 80.0269,148.906 79.0269,149.573 77.5,149.5C 77.1667,148.167 76.8333,146.833 76.5,145.5 Z"/></g>
<g><path style="opacity:1" fill="#a3a8a8" d="M 263.5,135.5 C 265.177,139.545 265.844,143.878 265.5,148.5C 263.946,144.433 263.28,140.1 263.5,135.5 Z"/></g>
<g><path style="opacity:1" fill="#974229" d="M 65.5,140.5 C 68.5547,141.036 71.5547,141.869 74.5,143C 75.756,143.417 76.4226,144.25 76.5,145.5C 76.8333,146.833 77.1667,148.167 77.5,149.5C 73.8034,151.681 69.9701,153.681 66,155.5C 63.8951,158.107 63.0617,161.107 63.5,164.5C 61.6053,163.027 59.9387,161.36 58.5,159.5C 57.9202,157.251 56.5869,155.585 54.5,154.5C 51.2317,149.893 47.5651,145.559 43.5,141.5C 50.6476,140.508 57.9809,140.175 65.5,140.5 Z"/></g>
<g><path style="opacity:1" fill="#bcb5b2" d="M 54.5,154.5 C 56.5869,155.585 57.9202,157.251 58.5,159.5C 56.4131,158.415 55.0798,156.749 54.5,154.5 Z"/></g>
<g><path style="opacity:1" fill="#686158" d="M 159.5,154.5 C 161.031,155.925 160.698,156.591 158.5,156.5C 157.243,155.377 157.576,154.711 159.5,154.5 Z"/></g>
<g><path style="opacity:1" fill="#d8753c" d="M 124.5,160.5 C 128.372,162.359 131.705,165.026 134.5,168.5C 127.349,170.686 124.015,168.019 124.5,160.5 Z"/></g>
<g><path style="opacity:1" fill="#9f6e34" d="M 76.5,207.5 C 74.9495,202.904 75.7828,198.571 79,194.5C 79.6667,191.833 79.6667,189.167 79,186.5C 76.3129,181.782 73.1462,177.449 69.5,173.5C 70.9403,174.363 72.2736,174.363 73.5,173.5C 74.6951,175.297 76.3618,176.297 78.5,176.5C 77.871,174.535 77.2043,172.535 76.5,170.5C 76.8333,169.5 77.1667,168.5 77.5,167.5C 78.2304,169.341 78.8971,171.175 79.5,173C 80.635,173.749 81.635,173.583 82.5,172.5C 80.8487,170.356 79.5153,168.022 78.5,165.5C 76.6471,164.24 74.8138,164.24 73,165.5C 67.5517,160.925 68.385,158.925 75.5,159.5C 75.2222,157.654 75.8888,156.32 77.5,155.5C 78.0851,157.865 79.2518,159.865 81,161.5C 82.6667,158.833 84.3333,158.833 86,161.5C 86.3333,160.5 86.6667,159.5 87,158.5C 88.3117,160.658 89.9783,160.991 92,159.5C 96.081,162.31 97.2477,165.977 95.5,170.5C 94.1779,170.33 93.0113,170.663 92,171.5C 91.7638,173.764 91.2638,175.931 90.5,178C 89.5,178.667 88.5,178.667 87.5,178C 86.3237,176.449 84.9904,175.449 83.5,175C 82.1379,177.034 81.1379,179.201 80.5,181.5C 86.4488,179.726 86.9488,180.726 82,184.5C 81.6667,184.167 81.3333,183.833 81,183.5C 80.9693,191.306 79.9693,198.973 78,206.5C 77.0188,200.136 76.5188,200.469 76.5,207.5 Z"/></g>
<g><path style="opacity:1" fill="#b2b7b7" d="M 265.5,151.5 C 267.155,159.271 267.822,167.271 267.5,175.5C 266.508,175.672 265.842,175.338 265.5,174.5C 266.251,167.005 266.251,159.338 265.5,151.5 Z"/></g>
<g><path style="opacity:1" fill="#cbd8de" d="M 162.5,164.5 C 164.136,165.749 165.303,167.416 166,169.5C 166.667,172.833 166.667,176.167 166,179.5C 164.253,175.462 162.753,171.295 161.5,167C 161.743,166.098 162.077,165.265 162.5,164.5 Z"/></g>
<g><path style="opacity:1" fill="#c3d0d5" d="M 238.5,128.5 C 239.5,128.5 240.5,128.5 241.5,128.5C 241.5,129.5 241.5,130.5 241.5,131.5C 238.901,131.549 236.734,132.549 235,134.5C 230.927,142.263 227.26,150.263 224,158.5C 217.477,169.681 207.977,177.181 195.5,181C 185.386,183.241 175.386,185.908 165.5,189C 162.967,195.037 161.8,194.87 162,188.5C 163.41,187.213 164.91,186.046 166.5,185C 178.75,180.852 191.083,176.852 203.5,173C 211.259,168.909 217.425,163.076 222,155.5C 225.351,148.086 228.685,140.753 232,133.5C 233.805,131.174 235.972,129.508 238.5,128.5 Z"/></g>
<g><path style="opacity:1" fill="#edd6bb" d="M 112.5,142.5 C 113.087,147.381 113.42,152.381 113.5,157.5C 115.777,154.054 118.61,151.054 122,148.5C 122.148,150.577 121.648,152.577 120.5,154.5C 119.572,156.335 118.406,156.668 117,155.5C 114.181,161.312 113.847,167.312 116,173.5C 119.996,175.259 123.83,176.926 127.5,178.5C 119.968,176.421 115.634,179.088 114.5,186.5C 113.199,187.884 113.199,189.384 114.5,191C 113.906,191.464 113.239,191.631 112.5,191.5C 109.208,191.353 106.208,190.353 103.5,188.5C 105.367,186.091 107.534,183.758 110,181.5C 110.473,179.221 111.473,177.221 113,175.5C 113.802,168.231 113.302,161.064 111.5,154C 112.069,150.183 112.403,146.349 112.5,142.5 Z"/></g>
<g><path style="opacity:1" fill="#c9d9dc" d="M 232.5,149.5 C 232.5,151.167 232.5,152.833 232.5,154.5C 233.873,154.343 235.207,154.51 236.5,155C 245.796,162.144 255.463,168.644 265.5,174.5C 265.842,175.338 266.508,175.672 267.5,175.5C 267.667,194.17 267.5,212.836 267,231.5C 266.819,234.695 266.319,237.695 265.5,240.5C 266.061,233.499 266.228,226.499 266,219.5C 259.513,223.326 252.679,226.492 245.5,229C 220.797,238.123 195.797,246.457 170.5,254C 168.456,254.498 167.122,255.665 166.5,257.5C 161.117,250.683 155.117,244.183 148.5,238C 147.5,237.667 146.5,237.333 145.5,237C 141.403,232.447 137.07,228.114 132.5,224C 128.309,223.143 125.809,220.643 125,216.5C 124.399,218.359 123.566,218.692 122.5,217.5C 123.833,212.833 123.833,208.167 122.5,203.5C 122.009,199.173 120.009,195.84 116.5,193.5C 115.167,192.833 113.833,192.167 112.5,191.5C 113.239,191.631 113.906,191.464 114.5,191C 113.199,189.384 113.199,187.884 114.5,186.5C 126.934,189.963 139.601,192.463 152.5,194C 156.484,195.149 159.484,197.482 161.5,201C 162.448,201.483 163.448,201.649 164.5,201.5C 164.081,198.675 165.081,196.509 167.5,195C 177.702,193.093 187.702,190.426 197.5,187C 215.619,180.385 227.286,167.885 232.5,149.5 Z"/></g>
<g><path style="opacity:1" fill="#953f28" d="M 103.5,188.5 C 106.208,190.353 109.208,191.353 112.5,191.5C 113.833,192.167 115.167,192.833 116.5,193.5C 117.684,196.564 118.684,199.731 119.5,203C 117.808,204.401 117.141,206.234 117.5,208.5C 115.328,207.199 112.995,206.199 110.5,205.5C 110.715,207.179 110.048,208.179 108.5,208.5C 104.975,207.241 101.975,205.241 99.5,202.5C 99.0766,201.735 98.7432,200.902 98.5,200C 99.2181,196.539 99.7181,193.039 100,189.5C 101.011,188.663 102.178,188.33 103.5,188.5 Z"/></g>
<g><path style="opacity:1" fill="#a7796c" d="M 122.5,203.5 C 123.833,208.167 123.833,212.833 122.5,217.5C 121.833,217.5 121.5,217.167 121.5,216.5C 122.485,212.366 122.818,208.032 122.5,203.5 Z"/></g>
<g><path style="opacity:1" fill="#9c4a35" d="M 116.5,193.5 C 120.009,195.84 122.009,199.173 122.5,203.5C 122.818,208.032 122.485,212.366 121.5,216.5C 116.991,214.081 112.658,211.414 108.5,208.5C 110.048,208.179 110.715,207.179 110.5,205.5C 112.995,206.199 115.328,207.199 117.5,208.5C 117.141,206.234 117.808,204.401 119.5,203C 118.684,199.731 117.684,196.564 116.5,193.5 Z"/></g>
<g><path style="opacity:1" fill="#b8c6c8" d="M 265.5,240.5 C 264.42,246.062 263.254,251.729 262,257.5C 255.68,267.488 247.18,274.988 236.5,280C 225.69,283.312 215.023,286.146 204.5,288.5C 193.162,288.693 181.828,289.027 170.5,289.5C 170.5,289.167 170.5,288.833 170.5,288.5C 170.666,281.159 170.5,273.826 170,266.5C 169.119,263.353 167.953,260.353 166.5,257.5C 167.122,255.665 168.456,254.498 170.5,254C 195.797,246.457 220.797,238.123 245.5,229C 252.679,226.492 259.513,223.326 266,219.5C 266.228,226.499 266.061,233.499 265.5,240.5 Z"/></g>
<g><path style="opacity:1" fill="#d9eaf1" d="M 170.5,288.5 C 170.5,288.833 170.5,289.167 170.5,289.5C 135.332,290.16 100.332,290.16 65.5,289.5C 100.498,288.962 135.498,288.629 170.5,288.5 Z"/></g>
</svg>
