<?xml version="1.0" encoding="UTF-8"?>
<svg version="1.1" xmlns="http://www.w3.org/2000/svg" width="512" height="512">
<path d="M0 0 C2.13185952 1.37897525 3.45496751 2.73367873 5.04907227 4.7043457 C5.89272339 5.73760986 5.89272339 5.73760986 6.75341797 6.79174805 C7.64033325 7.90090576 7.64033325 7.90090576 8.54516602 9.0324707 C9.47171997 10.17449951 9.47171997 10.17449951 10.41699219 11.33959961 C15.06983276 17.09191895 19.65415807 22.89825981 24.18969727 28.7434082 C24.62043549 29.27776993 25.05117371 29.81213165 25.4949646 30.36268616 C26.63733904 31.83684809 27.71506826 33.36128383 28.76260376 34.90428162 C34.59820722 42.97420603 39.45375474 45.29585581 49.11157227 46.98168945 C50.34181625 47.23247757 51.57206024 47.48326569 52.83958435 47.74165344 C56.0747797 48.39304756 59.31408089 49.00607228 62.56011963 49.6005249 C65.88512082 50.21935564 69.19986046 50.88891498 72.51586914 51.55395508 C78.99644641 52.8431431 85.48507267 54.08216395 91.98266602 55.2824707 C92.76706765 61.7097658 93.21371652 68.0715298 93.44750977 74.5402832 C93.52597296 76.48430627 93.60475861 78.42831635 93.68383789 80.37231445 C93.80361888 83.39807563 93.92077008 86.4238713 94.03222656 89.44995117 C94.14220137 92.39708506 94.26285652 95.34363233 94.38500977 98.2902832 C94.43044167 99.63740891 94.43044167 99.63740891 94.47679138 101.01174927 C94.85977452 109.91659676 94.85977452 109.91659676 98.90063477 117.65356445 C99.64958008 118.33547852 100.39852539 119.01739258 101.17016602 119.7199707 C103.97112133 122.36580982 106.67388034 124.9717878 109.17016602 127.9074707 C113.24146535 132.65731992 117.54086056 137.19053687 121.83300781 141.73999023 C123.56040858 143.57769171 125.27150548 145.42965617 126.98266602 147.2824707 C127.57805176 147.9036377 128.1734375 148.52480469 128.78686523 149.16479492 C129.34519043 149.76952637 129.90351563 150.37425781 130.47875977 150.99731445 C130.98463623 151.53348389 131.4905127 152.06965332 132.01171875 152.62207031 C132.98266602 154.2824707 132.98266602 154.2824707 132.7512207 156.29077148 C131.51039085 159.50636549 129.64345605 162.32830854 127.79516602 165.2199707 C127.36244385 165.90510742 126.92972168 166.59024414 126.48388672 167.29614258 C122.06541208 174.24485483 117.48993064 181.09061443 112.89404297 187.92285156 C111.76823389 189.59767919 110.65336139 191.27991973 109.55053711 192.9699707 C107.98266602 195.2824707 107.98266602 195.2824707 106.41870117 197.1574707 C102.17244394 202.5908064 102.75521254 207.402862 103.45483398 214.0637207 C103.54061707 214.74885742 103.62640015 215.43399414 103.71478271 216.13989258 C103.99004088 218.34145615 104.22876712 220.54459336 104.4597168 222.7512207 C105.04209371 228.23810407 105.68543554 233.71748032 106.32861328 239.19750977 C106.60326368 241.54838353 106.87318201 243.89976785 107.14282227 246.2512207 C107.22718033 246.95549194 107.31153839 247.65976318 107.39845276 248.38537598 C107.89490731 252.72495404 108.05895992 256.92484663 107.98266602 261.2824707 C107.35198715 261.47529633 106.72130829 261.66812195 106.07151794 261.86679077 C72.40771877 270.26525662 72.40771877 270.26525662 46.54760742 290.82641602 C44.48807841 295.12797208 42.73429843 299.4425501 41.21655273 303.96362305 C39.03786652 309.82374579 35.7282074 315.04764244 32.54516602 320.4074707 C31.45785179 322.32375354 30.37525227 324.24272533 29.29907227 326.1652832 C28.62533569 327.36241943 28.62533569 327.36241943 27.93798828 328.58374023 C27.62273193 329.14432129 27.30747559 329.70490234 26.98266602 330.2824707 C20.28304408 329.71396658 14.20340165 328.4084345 7.76000977 326.5246582 C5.82068171 325.97603883 3.88122463 325.42787537 1.94165039 324.88012695 C-1.0771197 324.01902629 -4.09437174 323.15325547 -7.109375 322.27905273 C-10.04514855 321.4309881 -12.98574552 320.60173311 -15.92749023 319.7746582 C-16.82041275 319.51014862 -17.71333527 319.24563904 -18.63331604 318.97311401 C-27.50047358 316.50339126 -33.83978864 317.77816045 -42.06811523 321.7043457 C-43.17729561 322.21714081 -43.17729561 322.21714081 -44.30888367 322.74029541 C-46.65417449 323.82735648 -48.99200421 324.9294698 -51.32983398 326.0324707 C-52.88599557 326.75745816 -54.44263307 327.48142502 -55.99975586 328.2043457 C-57.5225468 328.91266941 -59.04533332 329.6210026 -60.56811523 330.3293457 C-61.30571075 330.67195435 -62.04330627 331.01456299 -62.80325317 331.36755371 C-66.03274677 332.87184951 -69.24348133 334.39510792 -72.43286133 335.98364258 C-73.40304199 336.45866211 -74.37322266 336.93368164 -75.37280273 337.4230957 C-76.18773193 337.83591797 -77.00266113 338.24874023 -77.84228516 338.67407227 C-80.01733398 339.2824707 -80.01733398 339.2824707 -82.1159668 338.61254883 C-84.1473356 337.19152966 -85.52572202 335.78665171 -87.08374023 333.8605957 C-87.64617432 333.17175293 -88.2086084 332.48291016 -88.78808594 331.77319336 C-89.37936279 331.03375488 -89.97063965 330.29431641 -90.57983398 329.5324707 C-91.50638794 328.39044189 -91.50638794 328.39044189 -92.45166016 327.2253418 C-97.10450073 321.47302246 -101.68882604 315.6666816 -106.22436523 309.8215332 C-106.66176025 309.28947266 -107.09915527 308.75741211 -107.54980469 308.20922852 C-109.01733398 306.2824707 -109.01733398 306.2824707 -110.61572266 303.59790039 C-115.95565702 295.53909834 -121.09420339 293.68919416 -130.29109192 291.78646851 C-133.09118586 291.25597842 -135.89661216 290.76789018 -138.70483398 290.2824707 C-140.56955099 289.92850702 -142.43349767 289.57045981 -144.29663086 289.20825195 C-147.88401586 288.51616879 -151.47427129 287.84615469 -155.06958008 287.1965332 C-161.41824284 286.04064128 -167.71895551 284.68639422 -174.01733398 283.2824707 C-174.80173562 276.8551756 -175.24838449 270.4934116 -175.48217773 264.0246582 C-175.56064093 262.08063513 -175.63942658 260.13662506 -175.71850586 258.19262695 C-175.83828685 255.16686578 -175.95543805 252.14107011 -176.06689453 249.11499023 C-176.17686933 246.16785635 -176.29752449 243.22130908 -176.41967773 240.2746582 C-176.44996567 239.3765744 -176.4802536 238.4784906 -176.51145935 237.55319214 C-176.89444249 228.64834465 -176.89444249 228.64834465 -180.93530273 220.91137695 C-182.0587207 219.88850586 -182.0587207 219.88850586 -183.20483398 218.8449707 C-186.0484255 216.15935649 -188.78805487 213.50622706 -191.32983398 210.5324707 C-194.45584315 206.89030654 -197.69230924 203.36421208 -200.95483398 199.8449707 C-201.46981445 199.28519531 -201.98479492 198.72541992 -202.51538086 198.14868164 C-204.85097019 195.61031935 -207.19860671 193.09599528 -209.60327148 190.62231445 C-210.70541992 189.4640918 -210.70541992 189.4640918 -211.82983398 188.2824707 C-212.4756543 187.6224707 -213.12147461 186.9624707 -213.78686523 186.2824707 C-215.01733398 184.2824707 -215.01733398 184.2824707 -214.85400391 182.06738281 C-213.78734239 178.51692823 -211.94199495 175.74413843 -209.86108398 172.72387695 C-209.4399231 172.09827377 -209.01876221 171.47267059 -208.58483887 170.82810974 C-207.23656027 168.82849535 -205.87743992 166.83655439 -204.51733398 164.8449707 C-203.63374221 163.54146214 -202.75092269 162.23742975 -201.86889648 160.93286133 C-201.43375732 160.29021332 -200.99861816 159.64756531 -200.55029297 158.98544312 C-199.67200602 157.68288059 -198.79783128 156.37753611 -197.92773438 155.06948853 C-195.80376933 151.88190179 -193.64265519 148.76067708 -191.31811523 145.71557617 C-186.02692628 138.5817761 -184.0901292 133.37301211 -185.34887695 124.2902832 C-185.51525665 123.31913574 -185.51525665 123.31913574 -185.68499756 122.32836914 C-186.15966559 119.40626217 -186.44483534 116.47171374 -186.7472229 113.52758789 C-187.2377021 108.80221695 -187.80950621 104.08572855 -188.36328125 99.36743164 C-188.63793165 97.01655787 -188.90784998 94.66517355 -189.17749023 92.3137207 C-189.30402733 91.25731384 -189.30402733 91.25731384 -189.43312073 90.17956543 C-189.92957528 85.83998737 -190.09362789 81.64009478 -190.01733398 77.2824707 C-182.9518232 74.59403228 -175.88595091 71.90654574 -168.81982422 69.21972656 C-166.41511801 68.30523337 -164.01049523 67.3905208 -161.60595703 66.47558594 C-158.15345723 65.16194145 -154.70066004 63.84908141 -151.24780273 62.53637695 C-149.63049507 61.92071617 -149.63049507 61.92071617 -147.98051453 61.2926178 C-146.97970352 60.91229904 -145.97889252 60.53198029 -144.94775391 60.14013672 C-144.06617111 59.80482437 -143.18458832 59.46951202 -142.27629089 59.1240387 C-140.53579311 58.47562118 -138.77937826 57.8698188 -137.01733398 57.2824707 C-135.29116862 54.85425705 -135.29116862 54.85425705 -133.64624023 51.7980957 C-133.32743393 51.23417114 -133.00862762 50.67024658 -132.68016052 50.0892334 C-131.63814567 48.24165334 -130.60906245 46.38719892 -129.57983398 44.5324707 C-128.86656702 43.26274449 -128.15236833 41.99354125 -127.43725586 40.72485352 C-125.98998793 38.15517205 -124.54715111 35.583082 -123.10766602 33.0090332 C-120.11410854 27.66264398 -117.06506792 22.34810065 -114.01733398 17.0324707 C-113.03788392 15.31909101 -112.05868651 13.60556684 -111.07983398 11.8918457 C-110.39235116 10.68871089 -109.70485433 9.48558408 -109.01733398 8.2824707 C-102.31771205 8.85097482 -96.23806962 10.15650691 -89.79467773 12.0402832 C-87.85534968 12.58890258 -85.91589259 13.13706604 -83.97631836 13.68481445 C-80.95754827 14.54591512 -77.94029623 15.41168594 -74.92529297 16.28588867 C-71.98951942 17.13395331 -69.04892245 17.9632083 -66.10717773 18.7902832 C-65.21425522 19.05479279 -64.3213327 19.31930237 -63.40135193 19.59182739 C-55.29241518 21.8503669 -49.46625429 21.33293859 -41.74389648 17.62231445 C-40.59727539 17.07905518 -39.4506543 16.5357959 -38.26928711 15.97607422 C-37.67639893 15.68886505 -37.08351074 15.40165588 -36.47265625 15.10574341 C-34.61975923 14.20904579 -32.76027939 13.32763593 -30.89819336 12.45019531 C-26.26666732 10.26571982 -21.6455336 8.05965049 -17.02416992 5.85375977 C-14.52841826 4.66947284 -12.02459269 3.50463758 -9.51733398 2.3449707 C-8.44346436 1.82374634 -8.44346436 1.82374634 -7.34790039 1.29199219 C-2.55374825 -0.90832217 -2.55374825 -0.90832217 0 0 Z " fill="#33B678" transform="translate(297.017333984375,86.717529296875)"/>
<path d="M0 0 C0.68611359 0.68775009 1.37222717 1.37550018 2.07913208 2.08409119 C5.28350796 5.28831355 8.50890464 8.47108197 11.73388672 11.65454102 C18.38990517 18.22904761 25.03332667 24.81613389 31.66961479 31.41055393 C35.6814274 35.39616321 39.69782761 39.37692273 43.72460938 43.34741211 C47.62509595 47.19373293 51.51338308 51.05199945 55.3933754 54.91898918 C56.87466431 56.39102256 58.36035494 57.85863988 59.85042953 59.32177925 C61.92615139 61.36141075 63.98590137 63.41594751 66.04248047 65.47485352 C66.97583977 66.38124825 66.97583977 66.38124825 67.92805481 67.30595398 C69.61032104 69.00904846 69.61032104 69.00904846 72 72 C71.54281827 75.56910631 69.90445632 77.79845887 67.8046875 80.67578125 C66.85529297 82.04379883 66.85529297 82.04379883 65.88671875 83.43945312 C64.56307159 85.32982688 63.21453259 87.20305347 61.83984375 89.05664062 C56.72215024 96.57619643 56.3914539 102.02571503 57.7019043 110.9168396 C58.0132804 113.09280648 58.25662623 115.26810504 58.484375 117.4543457 C59.05811778 122.94681329 59.702229 128.43040422 60.34594727 133.91503906 C60.62059766 136.26591283 60.89051599 138.61729715 61.16015625 140.96875 C61.24451431 141.67302124 61.32887238 142.37729248 61.41578674 143.10290527 C61.91224129 147.44248334 62.07629391 151.64237592 62 156 C61.0539817 156.28923843 61.0539817 156.28923843 60.08885193 156.58432007 C26.42505276 164.98278592 26.42505276 164.98278592 0.56494141 185.54394531 C-1.4945876 189.84550138 -3.24836758 194.1600794 -4.76611328 198.68115234 C-6.94479949 204.54127509 -10.25445862 209.76517173 -13.4375 215.125 C-14.52481423 217.04128284 -15.60741375 218.96025463 -16.68359375 220.8828125 C-17.35733032 222.07994873 -17.35733032 222.07994873 -18.04467773 223.30126953 C-18.35993408 223.86185059 -18.67519043 224.42243164 -19 225 C-25.69962193 224.43149588 -31.77926437 223.12596379 -38.22265625 221.2421875 C-40.16198431 220.69356812 -42.10144139 220.14540467 -44.04101562 219.59765625 C-47.05978572 218.73655559 -50.07703775 217.87078477 -53.09204102 216.99658203 C-56.02781457 216.1485174 -58.96841154 215.3192624 -61.91015625 214.4921875 C-63.24954002 214.09542313 -63.24954002 214.09542313 -64.61598206 213.69064331 C-71.31164704 211.82573496 -76.14955038 211.90810711 -82.90458679 213.82366943 C-86 214 -86 214 -88.61972046 212.22879028 C-89.49464142 211.34134125 -90.36956238 210.45389221 -91.27099609 209.53955078 C-92.00382812 208.81066147 -92.00382812 208.81066147 -92.75146484 208.06704712 C-94.35940324 206.4593301 -95.94103984 204.82814225 -97.5234375 203.1953125 C-98.63441304 202.07381695 -99.74687192 200.95378904 -100.86074829 199.83517456 C-103.78644245 196.88843865 -106.69008591 193.92084604 -109.59008789 190.94885254 C-111.96755609 188.51951644 -114.35993562 186.10517528 -116.75330162 183.69151497 C-121.68631733 178.71624426 -126.60984002 173.73141311 -131.50537109 168.71923828 C-132.37551849 167.83019806 -133.24566589 166.94115784 -134.1421814 166.025177 C-136 164 -136 164 -136 163 C-104.98 163 -73.96 163 -42 163 C-44.48642337 148.08145976 -48.16354781 135.33880418 -60.875 126.125 C-65.717463 122.90231557 -70.71435563 120.64282218 -76 118 C-76 109.42 -76 100.84 -76 92 C-72.04 90.35 -68.08 88.7 -64 87 C-56.48962031 82.17990557 -49.70117716 75.72405871 -45.2421875 67.92578125 C-42.28953546 64.07293041 -39.28694102 62.96056355 -34.875 61.1875 C-21.26570624 55.24742825 -11.99323374 45.69060548 -6.1640625 32.0390625 C-2.05898632 21.32178306 -0.31902512 11.38919683 0 0 Z " fill="#34A46F" transform="translate(343,192)"/>
<path d="M0 0 C40.26 0 80.52 0 122 0 C122 7.92 122 15.84 122 24 C131.24 24 140.48 24 150 24 C150.79524257 42.92677305 147.34103822 59.58636639 134.625 74.3125 C128.93341567 80.28631166 123.50374684 84.34497832 116.03759766 87.80395508 C109.41268426 90.89353706 104.94768549 93.09332204 101.31640625 99.70703125 C95.92819171 109.09243759 86.72991828 114.11053395 77 118 C76.01 118 75.02 118 74 118 C74.33 126.58 74.66 135.16 75 144 C77.165625 145.03125 79.33125 146.0625 81.5625 147.125 C93.90899832 153.2359646 101.3802847 161.71084699 106.2734375 174.7734375 C106.51320313 175.50820313 106.75296875 176.24296875 107 177 C107.29777344 177.88558594 107.29777344 177.88558594 107.6015625 178.7890625 C108.20567584 182.14129925 108 185.59376394 108 189 C76.98 189 45.96 189 14 189 C14 175.1707785 17.52086242 165.79361685 27.13671875 155.7734375 C32.21161898 151.04394933 38.73638785 145 46 145 C46 135.76 46 126.52 46 117 C43.69 116.67 41.38 116.34 39 116 C27.64238614 110.24435804 20.90947944 101.36421917 14 91 C11.92843003 89.97990001 11.92843003 89.97990001 9.5 89.1875 C-6.45041122 83.09692511 -16.12227829 72.57275975 -23.3203125 57.17578125 C-27.63668128 46.2249938 -28 35.72674769 -28 24 C-18.76 24 -9.52 24 0 24 C0 16.08 0 8.16 0 0 Z " fill="#F1B31C" transform="translate(193,166)"/>
<path d="M0 0 C19.8 0 39.6 0 60 0 C60 29.25606469 60 29.25606469 57 42 C56.80132324 42.84691406 56.60264648 43.69382813 56.39794922 44.56640625 C51.66135104 64.06628909 44.27455348 81.72942024 27.25 93.5625 C18.29977876 99 18.29977876 99 13 99 C13.33 107.58 13.66 116.16 14 125 C17.2484375 126.546875 17.2484375 126.546875 20.5625 128.125 C32.90899832 134.2359646 40.3802847 142.71084699 45.2734375 155.7734375 C45.51320313 156.50820313 45.75296875 157.24296875 46 158 C46.29777344 158.88558594 46.29777344 158.88558594 46.6015625 159.7890625 C47.20567584 163.14129925 47 166.59376394 47 170 C15.98 170 -15.04 170 -47 170 C-47 156.1707785 -43.47913758 146.79361685 -33.86328125 136.7734375 C-28.78838102 132.04394933 -22.26361215 126 -15 126 C-15 117.09 -15 108.18 -15 99 C-12.69 99.33 -10.38 99.66 -8 100 C-5.36 100 -2.72 100 0 100 C0 67 0 34 0 0 Z " fill="#FACB42" transform="translate(254,185)"/>
<path d="M0 0 C40.26 0 80.52 0 122 0 C122 7.92 122 15.84 122 24 C131.24 24 140.48 24 150 24 C150.79524257 42.92677305 147.34103822 59.58636639 134.625 74.3125 C127.09327843 82.2320677 119.17844371 86.93438934 109 91 C108.34 91 107.68 91 107 91 C107.29261719 90.27167969 107.58523438 89.54335937 107.88671875 88.79296875 C117.27384364 65.24281332 119.92575599 44.7818562 121 19 C81.07 19 41.14 19 0 19 C0 12.73 0 6.46 0 0 Z " fill="#FFE068" transform="translate(193,166)"/>
<path d="M0 0 C6.91558358 6.36830718 11.35812516 14.3878029 14.25 23.25 C14.54777344 24.13558594 14.54777344 24.13558594 14.8515625 25.0390625 C15.45567584 28.39129925 15.25 31.84376394 15.25 35.25 C-15.77 35.25 -46.79 35.25 -78.75 35.25 C-78.75 21.33454116 -75.17179582 12.25697588 -65.71875 2.05859375 C-46.78115825 -16.02131721 -20.30884996 -15.96664596 0 0 Z " fill="#F1B31B" transform="translate(285.75,319.75)"/>
<path d="M0 0 C40.26 0 80.52 0 122 0 C122 7.92 122 15.84 122 24 C131.24 24 140.48 24 150 24 C150.79524257 42.92677305 147.34103822 59.58636639 134.625 74.3125 C127.09327843 82.2320677 119.17844371 86.93438934 109 91 C108.34 91 107.68 91 107 91 C107.29261719 90.27167969 107.58523438 89.54335937 107.88671875 88.79296875 C110.84868417 81.36207304 113.42265826 73.87729555 115.625 66.1875 C115.8310083 65.48987549 116.0370166 64.79225098 116.24926758 64.07348633 C121.9902293 43.52749886 120.49681649 22.13370725 121 1 C81.4 1 41.8 1 1 1 C1 6.94 1 12.88 1 19 C0.67 19 0.34 19 0 19 C0 12.73 0 6.46 0 0 Z " fill="#F9DE68" transform="translate(193,166)"/>
<path d="M0 0 C9.24 0 18.48 0 28 0 C28.2475 3.403125 28.495 6.80625 28.75 10.3125 C30.13470966 27.00489039 33.73080434 42.36655685 39.33691406 58.12353516 C40.26049362 60.7371701 41.13212143 63.36743501 42 66 C30.06570449 64.46459356 20.70409709 56.58687402 13.03125 47.7265625 C2.17303753 33.39181709 0 17.55665296 0 0 Z " fill="#FADF68" transform="translate(165,190)"/>
<path d="M0 0 C2.31 0.33 4.62 0.66 7 1 C8.757888 1.07330445 10.51796194 1.10858409 12.27734375 1.09765625 C13.53019165 1.09390991 13.53019165 1.09390991 14.80834961 1.09008789 C15.84096924 1.08098389 16.87358887 1.07187988 17.9375 1.0625 C21.258125 1.041875 24.57875 1.02125 28 1 C28 9.25 28 17.5 28 26 C25.36 25.67 22.72 25.34 20 25 C18.00137022 24.91505823 16.00042659 24.86956406 14 24.875 C13.05125 24.87242187 12.1025 24.86984375 11.125 24.8671875 C7.40085316 25.02546374 3.69872441 25.53765945 0 26 C0 17.42 0 8.84 0 0 Z " fill="#FEDF67" transform="translate(239,284)"/>
<path d="M0 0 C4.95 0 9.9 0 15 0 C14.45469884 12.36015969 10.04756159 23.12936464 1.1328125 31.8203125 C-3.55232558 36 -3.55232558 36 -6 36 C-5.502742 31.02742004 -4.65047092 26.25438475 -3.5625 21.375 C-1.99420219 14.27153343 -0.95682639 7.21299893 0 0 Z " fill="#37A56F" transform="translate(314,203)"/>
<path d="M0 0 C4.95 0 9.9 0 15 0 C15.18175781 1.37671875 15.36351562 2.7534375 15.55078125 4.171875 C17.37139687 17.61945522 17.37139687 17.61945522 20.44921875 30.8203125 C21 33 21 33 21 36 C9.80660451 30.72101872 4.84148771 20.92902603 0.6640625 9.73828125 C0 7 0 7 0 0 Z " fill="#37B678" transform="translate(179,203)"/>
<path d="M0 0 C3.82804568 1.91402284 5.69573296 3.48485868 8.625 6.5 C9.49640625 7.386875 10.3678125 8.27375 11.265625 9.1875 C13.08854167 11.0625 14.91145833 12.9375 16.734375 14.8125 C17.60578125 15.699375 18.4771875 16.58625 19.375 17.5 C20.16648437 18.3146875 20.95796875 19.129375 21.7734375 19.96875 C24.10135889 22.27769921 24.10135889 22.27769921 28 24 C18.76 24 9.52 24 0 24 C0 16.08 0 8.16 0 0 Z " fill="#37A56F" transform="translate(315,166)"/>
</svg>
