<?xml version="1.0" encoding="UTF-8"?>
<!DOCTYPE svg PUBLIC "-//W3C//DTD SVG 1.1//EN" "http://www.w3.org/Graphics/SVG/1.1/DTD/svg11.dtd">
<svg xmlns="http://www.w3.org/2000/svg" version="1.1" width="476px" height="418px" style="shape-rendering:geometricPrecision; text-rendering:geometricPrecision; image-rendering:optimizeQuality; fill-rule:evenodd; clip-rule:evenodd" xmlns:xlink="http://www.w3.org/1999/xlink">
<g><path style="opacity:1" fill="#fdfdfd" d="M -0.5,-0.5 C 158.167,-0.5 316.833,-0.5 475.5,-0.5C 475.5,138.833 475.5,278.167 475.5,417.5C 316.833,417.5 158.167,417.5 -0.5,417.5C -0.5,278.167 -0.5,138.833 -0.5,-0.5 Z"/></g>
<g><path style="opacity:1" fill="#eef5fb" d="M 178.5,115.5 C 173.167,115.5 167.833,115.5 162.5,115.5C 162.611,114.883 162.944,114.383 163.5,114C 168.167,113.333 172.833,113.333 177.5,114C 178.056,114.383 178.389,114.883 178.5,115.5 Z"/></g>
<g><path style="opacity:1" fill="#d4e7f9" d="M 162.5,115.5 C 167.833,115.5 173.167,115.5 178.5,115.5C 178.5,115.833 178.5,116.167 178.5,116.5C 172.833,116.5 167.167,116.5 161.5,116.5C 158.813,116.336 156.146,116.503 153.5,117C 152.944,117.383 152.611,117.883 152.5,118.5C 151.5,118.5 150.5,118.5 149.5,118.5C 148.167,118.5 146.833,118.5 145.5,118.5C 150.7,115.998 156.367,114.998 162.5,115.5 Z"/></g>
<g><path style="opacity:1" fill="#c9e1f7" d="M 313.5,118.5 C 311.901,118.768 310.568,118.434 309.5,117.5C 299.675,116.342 289.675,116.175 279.5,117C 278.263,117.232 277.263,117.732 276.5,118.5C 273.67,118.694 271.004,119.361 268.5,120.5C 268.47,119.503 268.97,118.836 270,118.5C 272.856,117.744 275.689,116.911 278.5,116C 289.167,115.333 299.833,115.333 310.5,116C 312.119,116.236 313.119,117.069 313.5,118.5 Z"/></g>
<g><path style="opacity:1" fill="#96c6f2" d="M 161.5,116.5 C 161.5,116.833 161.5,117.167 161.5,117.5C 160.5,117.5 159.5,117.5 158.5,117.5C 156.435,117.517 154.435,117.85 152.5,118.5C 152.611,117.883 152.944,117.383 153.5,117C 156.146,116.503 158.813,116.336 161.5,116.5 Z"/></g>
<g><path style="opacity:1" fill="#75b6ef" d="M 161.5,117.5 C 161.5,117.167 161.5,116.833 161.5,116.5C 167.167,116.5 172.833,116.5 178.5,116.5C 180.167,116.5 181.833,116.5 183.5,116.5C 185.515,117.924 187.848,118.59 190.5,118.5C 190.5,118.833 190.5,119.167 190.5,119.5C 180.964,117.759 171.297,117.092 161.5,117.5 Z"/></g>
<g><path style="opacity:1" fill="#499feb" d="M 158.5,117.5 C 159.5,117.5 160.5,117.5 161.5,117.5C 171.297,117.092 180.964,117.759 190.5,119.5C 191.167,119.5 191.833,119.5 192.5,119.5C 193.183,121.176 194.517,121.843 196.5,121.5C 197.833,121.5 199.167,121.5 200.5,121.5C 202.566,123.199 204.9,124.532 207.5,125.5C 207.833,125.5 208.167,125.5 208.5,125.5C 209.853,127.738 211.853,129.071 214.5,129.5C 215.899,130.89 217.566,131.89 219.5,132.5C 220.326,134.264 221.659,135.598 223.5,136.5C 224.911,138.914 226.911,140.581 229.5,141.5C 230.635,143.213 232.302,143.88 234.5,143.5C 236.5,142.833 237.833,141.5 238.5,139.5C 240.144,139.19 241.144,138.19 241.5,136.5C 242.167,136.167 242.833,135.833 243.5,135.5C 247.902,133.454 251.902,130.787 255.5,127.5C 255.5,126.833 255.833,126.5 256.5,126.5C 258.989,126.759 260.656,125.759 261.5,123.5C 261.833,123.5 262.167,123.5 262.5,123.5C 264.38,123.771 265.713,123.104 266.5,121.5C 266.833,121.5 267.167,121.5 267.5,121.5C 271.077,121.855 274.077,120.855 276.5,118.5C 286.802,117.6 297.135,117.267 307.5,117.5C 307.611,118.117 307.944,118.617 308.5,119C 310.473,119.495 312.473,119.662 314.5,119.5C 316.565,119.517 318.565,119.85 320.5,120.5C 321.568,121.434 322.901,121.768 324.5,121.5C 328.555,125.089 333.221,127.755 338.5,129.5C 338.5,130.167 338.833,130.5 339.5,130.5C 340.199,133.541 342.199,135.208 345.5,135.5C 346.167,135.833 346.833,136.167 347.5,136.5C 348.911,138.914 350.911,140.581 353.5,141.5C 353.5,142.167 353.5,142.833 353.5,143.5C 353.833,144.5 354.5,145.167 355.5,145.5C 355.738,147.404 356.738,148.738 358.5,149.5C 358.833,150.167 359.167,150.833 359.5,151.5C 359.776,155.079 361.443,157.746 364.5,159.5C 366.166,165.491 367.832,171.491 369.5,177.5C 370.182,178.243 370.849,178.909 371.5,179.5C 371.5,180.833 371.5,182.167 371.5,183.5C 371.5,190.5 371.5,197.5 371.5,204.5C 370.662,204.842 370.328,205.508 370.5,206.5C 368.656,208.279 367.99,210.612 368.5,213.5C 368.5,213.833 368.5,214.167 368.5,214.5C 367.504,214.414 366.671,214.748 366,215.5C 365.637,218.544 365.137,221.544 364.5,224.5C 363.833,226.5 363.167,228.5 362.5,230.5C 362.5,230.833 362.5,231.167 362.5,231.5C 360.738,232.262 359.738,233.596 359.5,235.5C 356.46,237.894 354.127,240.894 352.5,244.5C 350.5,245.167 349.167,246.5 348.5,248.5C 346.5,248.5 345.5,249.5 345.5,251.5C 343.856,251.81 342.856,252.81 342.5,254.5C 341.5,255.167 340.5,255.833 339.5,256.5C 338.167,256.5 337.5,257.167 337.5,258.5C 336.167,258.5 335.5,259.167 335.5,260.5C 334.508,260.328 333.842,260.662 333.5,261.5C 331.81,261.856 330.81,262.856 330.5,264.5C 328.5,264.5 327.5,265.5 327.5,267.5C 326.167,267.5 325.5,268.167 325.5,269.5C 322.638,270.247 320.638,271.914 319.5,274.5C 317.215,276.118 315.215,278.118 313.5,280.5C 312.5,281.167 311.5,281.833 310.5,282.5C 308.5,282.5 307.5,283.5 307.5,285.5C 306.833,285.5 306.5,285.833 306.5,286.5C 300.88,289.459 296.213,293.459 292.5,298.5C 290.5,298.5 289.5,299.5 289.5,301.5C 288.833,301.5 288.5,301.833 288.5,302.5C 286.246,303.124 284.579,304.457 283.5,306.5C 281.52,307.484 279.853,308.817 278.5,310.5C 275.893,311.459 273.893,313.126 272.5,315.5C 270.81,315.856 269.81,316.856 269.5,318.5C 268.833,319.833 267.833,320.833 266.5,321.5C 265.167,321.5 264.5,322.167 264.5,323.5C 261.865,324.473 259.865,326.14 258.5,328.5C 257.167,328.5 256.5,329.167 256.5,330.5C 252.526,332.772 249.193,335.772 246.5,339.5C 244.011,339.241 242.344,340.241 241.5,342.5C 240.533,343.806 239.199,344.473 237.5,344.5C 233.486,344.666 229.486,344.499 225.5,344C 224.211,342.198 222.544,341.031 220.5,340.5C 218.596,340.262 217.262,339.262 216.5,337.5C 215.833,334.833 214.167,333.167 211.5,332.5C 207.487,327.488 202.821,323.155 197.5,319.5C 196.833,319.5 196.167,319.5 195.5,319.5C 195.672,318.508 195.338,317.842 194.5,317.5C 194.144,315.81 193.144,314.81 191.5,314.5C 190.833,314.167 190.167,313.833 189.5,313.5C 188.027,311.605 186.36,309.939 184.5,308.5C 183.738,306.738 182.404,305.738 180.5,305.5C 179.833,305.167 179.167,304.833 178.5,304.5C 177.5,302.833 176.167,301.5 174.5,300.5C 172.5,297.833 170.167,295.5 167.5,293.5C 165.761,290.757 163.427,288.757 160.5,287.5C 159.778,286.449 158.778,285.782 157.5,285.5C 156.871,283.003 155.204,281.67 152.5,281.5C 150.886,279.544 149.219,277.544 147.5,275.5C 146.089,273.086 144.089,271.419 141.5,270.5C 141.158,269.662 140.492,269.328 139.5,269.5C 139.5,267.5 138.5,266.5 136.5,266.5C 134.817,264.486 132.817,262.82 130.5,261.5C 129.833,260.5 129.167,259.5 128.5,258.5C 125.807,254.772 122.474,251.772 118.5,249.5C 117.833,249.5 117.167,249.5 116.5,249.5C 115.878,247.878 114.878,246.545 113.5,245.5C 112.5,243.833 111.167,242.5 109.5,241.5C 108.702,239.034 107.369,237.034 105.5,235.5C 105.267,233.938 104.6,232.605 103.5,231.5C 103.727,229.067 102.727,227.401 100.5,226.5C 100.23,222.642 98.8966,219.309 96.5,216.5C 95.8505,214.565 95.5172,212.565 95.5,210.5C 95.3259,208.139 94.9926,205.806 94.5,203.5C 94.3337,196.159 94.5003,188.826 95,181.5C 96.6268,176.657 97.7934,171.657 98.5,166.5C 98.5,165.833 98.5,165.167 98.5,164.5C 100.126,162.058 101.459,159.391 102.5,156.5C 102.5,156.167 102.5,155.833 102.5,155.5C 103.906,155.027 104.573,154.027 104.5,152.5C 106.262,151.738 107.262,150.404 107.5,148.5C 107.833,147.5 108.5,146.833 109.5,146.5C 111.703,144.583 113.369,142.25 114.5,139.5C 116.144,139.19 117.144,138.19 117.5,136.5C 118.167,136.167 118.833,135.833 119.5,135.5C 121.749,134.92 123.415,133.587 124.5,131.5C 127.061,130.455 129.394,129.122 131.5,127.5C 134.147,127.071 136.147,125.738 137.5,123.5C 137.833,123.5 138.167,123.5 138.5,123.5C 140.38,123.771 141.713,123.104 142.5,121.5C 142.833,121.5 143.167,121.5 143.5,121.5C 145.527,121.662 147.527,121.495 149.5,121C 152.647,120.044 155.647,118.877 158.5,117.5 Z"/></g>
<g><path style="opacity:1" fill="#c6dff7" d="M 183.5,116.5 C 185.527,116.338 187.527,116.505 189.5,117C 190.056,117.383 190.389,117.883 190.5,118.5C 187.848,118.59 185.515,117.924 183.5,116.5 Z"/></g>
<g><path style="opacity:1" fill="#e9f2fb" d="M 178.5,116.5 C 178.5,116.167 178.5,115.833 178.5,115.5C 184.579,114.97 190.245,115.97 195.5,118.5C 193.833,118.5 192.167,118.5 190.5,118.5C 190.389,117.883 190.056,117.383 189.5,117C 187.527,116.505 185.527,116.338 183.5,116.5C 181.833,116.5 180.167,116.5 178.5,116.5 Z"/></g>
<g><path style="opacity:1" fill="#8abff1" d="M 309.5,117.5 C 308.833,117.5 308.167,117.5 307.5,117.5C 297.135,117.267 286.802,117.6 276.5,118.5C 277.263,117.732 278.263,117.232 279.5,117C 289.675,116.175 299.675,116.342 309.5,117.5 Z"/></g>
<g><path style="opacity:1" fill="#c2ddf6" d="M 190.5,119.5 C 190.5,119.167 190.5,118.833 190.5,118.5C 192.167,118.5 193.833,118.5 195.5,118.5C 197.113,119.692 198.78,120.692 200.5,121.5C 199.167,121.5 197.833,121.5 196.5,121.5C 195.329,120.655 193.995,119.989 192.5,119.5C 191.833,119.5 191.167,119.5 190.5,119.5 Z"/></g>
<g><path style="opacity:1" fill="#74b4ee" d="M 307.5,117.5 C 308.167,117.5 308.833,117.5 309.5,117.5C 310.568,118.434 311.901,118.768 313.5,118.5C 313.833,118.5 314.167,118.5 314.5,118.5C 314.5,118.833 314.5,119.167 314.5,119.5C 312.473,119.662 310.473,119.495 308.5,119C 307.944,118.617 307.611,118.117 307.5,117.5 Z"/></g>
<g><path style="opacity:1" fill="#b2d4f5" d="M 314.5,119.5 C 314.5,119.167 314.5,118.833 314.5,118.5C 317.01,118.054 319.01,118.72 320.5,120.5C 318.565,119.85 316.565,119.517 314.5,119.5 Z"/></g>
<g><path style="opacity:1" fill="#b5d5f5" d="M 145.5,118.5 C 146.833,118.5 148.167,118.5 149.5,118.5C 148.07,119.537 146.403,120.204 144.5,120.5C 144.833,119.833 145.167,119.167 145.5,118.5 Z"/></g>
<g><path style="opacity:1" fill="#6bafed" d="M 158.5,117.5 C 155.647,118.877 152.647,120.044 149.5,121C 147.527,121.495 145.527,121.662 143.5,121.5C 143.5,121.167 143.5,120.833 143.5,120.5C 143.833,120.5 144.167,120.5 144.5,120.5C 146.403,120.204 148.07,119.537 149.5,118.5C 150.5,118.5 151.5,118.5 152.5,118.5C 154.435,117.85 156.435,117.517 158.5,117.5 Z"/></g>
<g><path style="opacity:1" fill="#76b5ee" d="M 192.5,119.5 C 193.995,119.989 195.329,120.655 196.5,121.5C 194.517,121.843 193.183,121.176 192.5,119.5 Z"/></g>
<g><path style="opacity:1" fill="#b4d6f5" d="M 267.5,120.5 C 267.5,120.833 267.5,121.167 267.5,121.5C 267.167,121.5 266.833,121.5 266.5,121.5C 265.391,121.557 264.391,121.89 263.5,122.5C 264.183,120.824 265.517,120.157 267.5,120.5 Z"/></g>
<g><path style="opacity:1" fill="#7ab7ef" d="M 276.5,118.5 C 274.077,120.855 271.077,121.855 267.5,121.5C 267.5,121.167 267.5,120.833 267.5,120.5C 267.833,120.5 268.167,120.5 268.5,120.5C 271.004,119.361 273.67,118.694 276.5,118.5 Z"/></g>
<g><path style="opacity:1" fill="#b9d7f5" d="M 143.5,120.5 C 143.5,120.833 143.5,121.167 143.5,121.5C 143.167,121.5 142.833,121.5 142.5,121.5C 141.167,121.833 139.833,122.167 138.5,122.5C 139.635,120.787 141.302,120.12 143.5,120.5 Z"/></g>
<g><path style="opacity:1" fill="#bedcf6" d="M 138.5,122.5 C 138.5,122.833 138.5,123.167 138.5,123.5C 138.167,123.5 137.833,123.5 137.5,123.5C 136.391,123.557 135.391,123.89 134.5,124.5C 135.183,122.824 136.517,122.157 138.5,122.5 Z"/></g>
<g><path style="opacity:1" fill="#84bbef" d="M 142.5,121.5 C 141.713,123.104 140.38,123.771 138.5,123.5C 138.5,123.167 138.5,122.833 138.5,122.5C 139.833,122.167 141.167,121.833 142.5,121.5 Z"/></g>
<g><path style="opacity:1" fill="#c1def6" d="M 262.5,122.5 C 262.5,122.833 262.5,123.167 262.5,123.5C 262.167,123.5 261.833,123.5 261.5,123.5C 260.391,123.557 259.391,123.89 258.5,124.5C 259.183,122.824 260.517,122.157 262.5,122.5 Z"/></g>
<g><path style="opacity:1" fill="#88bef0" d="M 266.5,121.5 C 265.713,123.104 264.38,123.771 262.5,123.5C 262.5,123.167 262.5,122.833 262.5,122.5C 262.833,122.5 263.167,122.5 263.5,122.5C 264.391,121.89 265.391,121.557 266.5,121.5 Z"/></g>
<g><path style="opacity:1" fill="#afd3f4" d="M 200.5,121.5 C 203.546,121.725 205.879,123.058 207.5,125.5C 204.9,124.532 202.566,123.199 200.5,121.5 Z"/></g>
<g><path style="opacity:1" fill="#7ab7ef" d="M 137.5,123.5 C 136.147,125.738 134.147,127.071 131.5,127.5C 132.1,126.1 133.1,125.1 134.5,124.5C 135.391,123.89 136.391,123.557 137.5,123.5 Z"/></g>
<g><path style="opacity:1" fill="#b4d5f5" d="M 208.5,125.5 C 210.966,126.298 212.966,127.631 214.5,129.5C 211.853,129.071 209.853,127.738 208.5,125.5 Z"/></g>
<g><path style="opacity:1" fill="#75b5ee" d="M 261.5,123.5 C 260.656,125.759 258.989,126.759 256.5,126.5C 257.167,125.833 257.833,125.167 258.5,124.5C 259.391,123.89 260.391,123.557 261.5,123.5 Z"/></g>
<g><path style="opacity:1" fill="#aad0f4" d="M 324.5,121.5 C 326.179,121.892 327.846,122.392 329.5,123C 332.955,124.728 335.955,126.895 338.5,129.5C 333.221,127.755 328.555,125.089 324.5,121.5 Z"/></g>
<g><path style="opacity:1" fill="#ddecfa" d="M 258.5,124.5 C 257.833,125.167 257.167,125.833 256.5,126.5C 255.833,126.5 255.5,126.833 255.5,127.5C 253.446,127.365 251.779,128.032 250.5,129.5C 250.5,128.5 250.5,127.5 250.5,126.5C 253.025,125.36 255.692,124.693 258.5,124.5 Z"/></g>
<g><path style="opacity:1" fill="#e4f0fa" d="M 134.5,124.5 C 133.1,125.1 132.1,126.1 131.5,127.5C 129.071,127.884 126.737,128.551 124.5,129.5C 124.369,128.624 124.702,127.957 125.5,127.5C 128.243,125.668 131.243,124.668 134.5,124.5 Z"/></g>
<g><path style="opacity:1" fill="#8ac0f1" d="M 131.5,127.5 C 129.394,129.122 127.061,130.455 124.5,131.5C 124.5,130.833 124.5,130.167 124.5,129.5C 126.737,128.551 129.071,127.884 131.5,127.5 Z"/></g>
<g><path style="opacity:1" fill="#d1e5f8" d="M 214.5,129.5 C 216.989,129.241 218.656,130.241 219.5,132.5C 217.566,131.89 215.899,130.89 214.5,129.5 Z"/></g>
<g><path style="opacity:1" fill="#c9e0f7" d="M 338.5,129.5 C 340.989,129.241 342.656,130.241 343.5,132.5C 341.938,132.267 340.605,131.6 339.5,130.5C 338.833,130.5 338.5,130.167 338.5,129.5 Z"/></g>
<g><path style="opacity:1" fill="#87bef0" d="M 124.5,131.5 C 123.415,133.587 121.749,134.92 119.5,135.5C 119.833,134.833 120.167,134.167 120.5,133.5C 121.605,132.4 122.938,131.733 124.5,131.5 Z"/></g>
<g><path style="opacity:1" fill="#87bdf0" d="M 255.5,127.5 C 251.902,130.787 247.902,133.454 243.5,135.5C 245.234,132.8 247.568,130.8 250.5,129.5C 251.779,128.032 253.446,127.365 255.5,127.5 Z"/></g>
<g><path style="opacity:1" fill="#6bafed" d="M 339.5,130.5 C 340.605,131.6 341.938,132.267 343.5,132.5C 344.167,132.5 344.5,132.833 344.5,133.5C 344.833,134.167 345.167,134.833 345.5,135.5C 342.199,135.208 340.199,133.541 339.5,130.5 Z"/></g>
<g><path style="opacity:1" fill="#c2ddf7" d="M 219.5,132.5 C 221.773,132.957 223.106,134.29 223.5,136.5C 221.659,135.598 220.326,134.264 219.5,132.5 Z"/></g>
<g><path style="opacity:1" fill="#c4dff7" d="M 344.5,133.5 C 346.5,133.5 347.5,134.5 347.5,136.5C 346.833,136.167 346.167,135.833 345.5,135.5C 345.167,134.833 344.833,134.167 344.5,133.5 Z"/></g>
<g><path style="opacity:1" fill="#c8e1f7" d="M 120.5,133.5 C 120.167,134.167 119.833,134.833 119.5,135.5C 118.833,135.833 118.167,136.167 117.5,136.5C 117.5,134.5 118.5,133.5 120.5,133.5 Z"/></g>
<g><path style="opacity:1" fill="#cee4f8" d="M 223.5,136.5 C 226.427,137.097 228.427,138.764 229.5,141.5C 226.911,140.581 224.911,138.914 223.5,136.5 Z"/></g>
<g><path style="opacity:1" fill="#d7e8f9" d="M 347.5,136.5 C 350.801,136.792 352.801,138.459 353.5,141.5C 350.911,140.581 348.911,138.914 347.5,136.5 Z"/></g>
<g><path style="opacity:1" fill="#acd2f4" d="M 117.5,136.5 C 117.144,138.19 116.144,139.19 114.5,139.5C 114.856,137.81 115.856,136.81 117.5,136.5 Z"/></g>
<g><path style="opacity:1" fill="#a2ccf3" d="M 241.5,136.5 C 241.144,138.19 240.144,139.19 238.5,139.5C 238.856,137.81 239.856,136.81 241.5,136.5 Z"/></g>
<g><path style="opacity:1" fill="#93c5f1" d="M 238.5,139.5 C 237.833,141.5 236.5,142.833 234.5,143.5C 235.11,142.609 235.443,141.609 235.5,140.5C 236.609,140.443 237.609,140.11 238.5,139.5 Z"/></g>
<g><path style="opacity:1" fill="#d3e6f8" d="M 235.5,140.5 C 235.443,141.609 235.11,142.609 234.5,143.5C 232.302,143.88 230.635,143.213 229.5,141.5C 230.583,141.539 231.583,141.873 232.5,142.5C 233.265,141.388 234.265,140.721 235.5,140.5 Z"/></g>
<g><path style="opacity:1" fill="#8fc1f1" d="M 114.5,139.5 C 113.369,142.25 111.703,144.583 109.5,146.5C 109.557,145.391 109.89,144.391 110.5,143.5C 111.283,141.672 112.616,140.339 114.5,139.5 Z"/></g>
<g><path style="opacity:1" fill="#c0dbf6" d="M 353.5,143.5 C 355.179,143.285 356.179,143.952 356.5,145.5C 356.167,145.5 355.833,145.5 355.5,145.5C 354.5,145.167 353.833,144.5 353.5,143.5 Z"/></g>
<g><path style="opacity:1" fill="#95c5f2" d="M 355.5,145.5 C 355.833,145.5 356.167,145.5 356.5,145.5C 357.6,146.605 358.267,147.938 358.5,149.5C 356.738,148.738 355.738,147.404 355.5,145.5 Z"/></g>
<g><path style="opacity:1" fill="#e4effa" d="M 110.5,143.5 C 109.89,144.391 109.557,145.391 109.5,146.5C 108.5,146.833 107.833,147.5 107.5,148.5C 105.738,149.262 104.738,150.596 104.5,152.5C 104.167,152.5 103.833,152.5 103.5,152.5C 104.329,148.337 106.662,145.337 110.5,143.5 Z"/></g>
<g><path style="opacity:1" fill="#9fcbf3" d="M 107.5,148.5 C 107.262,150.404 106.262,151.738 104.5,152.5C 104.738,150.596 105.738,149.262 107.5,148.5 Z"/></g>
<g><path style="opacity:1" fill="#d5e7f8" d="M 358.5,149.5 C 362.037,150.386 363.704,152.719 363.5,156.5C 362.167,154.833 360.833,153.167 359.5,151.5C 359.167,150.833 358.833,150.167 358.5,149.5 Z"/></g>
<g><path style="opacity:1" fill="#aed1f4" d="M 103.5,152.5 C 103.833,152.5 104.167,152.5 104.5,152.5C 104.573,154.027 103.906,155.027 102.5,155.5C 102.557,154.391 102.89,153.391 103.5,152.5 Z"/></g>
<g><path style="opacity:1" fill="#73b3ee" d="M 359.5,151.5 C 360.833,153.167 362.167,154.833 363.5,156.5C 364.11,157.391 364.443,158.391 364.5,159.5C 361.443,157.746 359.776,155.079 359.5,151.5 Z"/></g>
<g><path style="opacity:1" fill="#d1e5f8" d="M 99.5,161.5 C 98.8902,162.391 98.5569,163.391 98.5,164.5C 98.5,165.167 98.5,165.833 98.5,166.5C 98.1667,166.5 97.8333,166.5 97.5,166.5C 97.0773,164.219 97.744,162.552 99.5,161.5 Z"/></g>
<g><path style="opacity:1" fill="#a2cbf3" d="M 102.5,156.5 C 101.459,159.391 100.126,162.058 98.5,164.5C 98.5569,163.391 98.8902,162.391 99.5,161.5C 99.2729,159.067 100.273,157.401 102.5,156.5 Z"/></g>
<g><path style="opacity:1" fill="#9ecaf2" d="M 363.5,156.5 C 365.323,159.141 366.657,162.141 367.5,165.5C 369.207,170.015 370.54,174.682 371.5,179.5C 370.849,178.909 370.182,178.243 369.5,177.5C 367.832,171.491 366.166,165.491 364.5,159.5C 364.443,158.391 364.11,157.391 363.5,156.5 Z"/></g>
<g><path style="opacity:1" fill="#d1e5f8" d="M 97.5,166.5 C 93.9788,177.531 92.6455,188.864 93.5,200.5C 92.5139,196.03 92.1805,191.363 92.5,186.5C 92.506,181.785 93.006,177.118 94,172.5C 94.7162,170.121 95.8828,168.121 97.5,166.5 Z"/></g>
<g><path style="opacity:1" fill="#e4effa" d="M 367.5,165.5 C 368.496,165.414 369.329,165.748 370,166.5C 371.749,172.035 372.582,177.702 372.5,183.5C 372.167,183.5 371.833,183.5 371.5,183.5C 371.5,182.167 371.5,180.833 371.5,179.5C 370.54,174.682 369.207,170.015 367.5,165.5 Z"/></g>
<g><path style="opacity:1" fill="#78b8ef" d="M 97.5,166.5 C 97.8333,166.5 98.1667,166.5 98.5,166.5C 97.7934,171.657 96.6268,176.657 95,181.5C 94.5003,188.826 94.3337,196.159 94.5,203.5C 94.1667,203.5 93.8333,203.5 93.5,203.5C 93.5,202.5 93.5,201.5 93.5,200.5C 92.6455,188.864 93.9788,177.531 97.5,166.5 Z"/></g>
<g><path style="opacity:1" fill="#d7e8f9" d="M 371.5,183.5 C 371.833,183.5 372.167,183.5 372.5,183.5C 373.73,186.231 374.396,189.231 374.5,192.5C 373.498,198.542 372.498,204.542 371.5,210.5C 371.5,208.5 371.5,206.5 371.5,204.5C 371.5,197.5 371.5,190.5 371.5,183.5 Z"/></g>
<g><path style="opacity:1" fill="#a0cbf3" d="M 93.5,203.5 C 93.8333,203.5 94.1667,203.5 94.5,203.5C 94.9926,205.806 95.3259,208.139 95.5,210.5C 94.0762,208.485 93.4095,206.152 93.5,203.5 Z"/></g>
<g><path style="opacity:1" fill="#6bb0ee" d="M 370.5,206.5 C 369.699,208.042 369.366,209.708 369.5,211.5C 369.5,212.167 369.5,212.833 369.5,213.5C 369.167,213.5 368.833,213.5 368.5,213.5C 367.99,210.612 368.656,208.279 370.5,206.5 Z"/></g>
<g><path style="opacity:1" fill="#a4ccf3" d="M 371.5,204.5 C 371.5,206.5 371.5,208.5 371.5,210.5C 370.833,210.833 370.167,211.167 369.5,211.5C 369.366,209.708 369.699,208.042 370.5,206.5C 370.328,205.508 370.662,204.842 371.5,204.5 Z"/></g>
<g><path style="opacity:1" fill="#65aced" d="M 368.5,214.5 C 368.371,216.216 368.038,217.883 367.5,219.5C 367.5,219.833 367.5,220.167 367.5,220.5C 366.857,222.076 365.857,223.41 364.5,224.5C 365.137,221.544 365.637,218.544 366,215.5C 366.671,214.748 367.504,214.414 368.5,214.5 Z"/></g>
<g><path style="opacity:1" fill="#9dc9f2" d="M 96.5,216.5 C 98.8966,219.309 100.23,222.642 100.5,226.5C 100.167,226.5 99.8333,226.5 99.5,226.5C 99.2041,224.597 98.5375,222.93 97.5,221.5C 97.3713,219.784 97.038,218.117 96.5,216.5 Z"/></g>
<g><path style="opacity:1" fill="#c2dcf7" d="M 368.5,213.5 C 368.833,213.5 369.167,213.5 369.5,213.5C 369.975,216.082 369.308,218.082 367.5,219.5C 368.038,217.883 368.371,216.216 368.5,214.5C 368.5,214.167 368.5,213.833 368.5,213.5 Z"/></g>
<g><path style="opacity:1" fill="#e7f1fa" d="M 92.5,186.5 C 92.1805,191.363 92.5139,196.03 93.5,200.5C 93.5,201.5 93.5,202.5 93.5,203.5C 93.4095,206.152 94.0762,208.485 95.5,210.5C 95.5172,212.565 95.8505,214.565 96.5,216.5C 97.038,218.117 97.3713,219.784 97.5,221.5C 95.8115,218.777 94.3115,215.777 93,212.5C 92.9288,208.313 92.2622,204.313 91,200.5C 90.8333,198.167 90.6667,195.833 90.5,193.5C 90.5286,190.731 91.1952,188.397 92.5,186.5 Z"/></g>
<g><path style="opacity:1" fill="#bad9f6" d="M 367.5,220.5 C 367.657,221.873 367.49,223.207 367,224.5C 366.119,227.014 364.619,229.014 362.5,230.5C 363.167,228.5 363.833,226.5 364.5,224.5C 365.857,223.41 366.857,222.076 367.5,220.5 Z"/></g>
<g><path style="opacity:1" fill="#95c5f1" d="M 100.5,226.5 C 102.727,227.401 103.727,229.067 103.5,231.5C 102.11,230.101 101.11,228.434 100.5,226.5 Z"/></g>
<g><path style="opacity:1" fill="#b4d5f5" d="M 362.5,231.5 C 362.262,233.404 361.262,234.738 359.5,235.5C 359.738,233.596 360.738,232.262 362.5,231.5 Z"/></g>
<g><path style="opacity:1" fill="#d5e7f9" d="M 99.5,226.5 C 99.8333,226.5 100.167,226.5 100.5,226.5C 101.11,228.434 102.11,230.101 103.5,231.5C 104.6,232.605 105.267,233.938 105.5,235.5C 105.833,236.167 106.167,236.833 106.5,237.5C 102.531,235 100.198,231.334 99.5,226.5 Z"/></g>
<g><path style="opacity:1" fill="#b4d5f5" d="M 105.5,235.5 C 107.369,237.034 108.702,239.034 109.5,241.5C 107.738,240.738 106.738,239.404 106.5,237.5C 106.167,236.833 105.833,236.167 105.5,235.5 Z"/></g>
<g><path style="opacity:1" fill="#9dc9f2" d="M 359.5,235.5 C 357.908,239.09 355.575,242.09 352.5,244.5C 354.127,240.894 356.46,237.894 359.5,235.5 Z"/></g>
<g><path style="opacity:1" fill="#d4e6f8" d="M 109.5,241.5 C 111.167,242.5 112.5,243.833 113.5,245.5C 110.858,245.512 109.525,244.179 109.5,241.5 Z"/></g>
<g><path style="opacity:1" fill="#8dc1f1" d="M 352.5,244.5 C 351.833,246.5 350.5,247.833 348.5,248.5C 349.167,246.5 350.5,245.167 352.5,244.5 Z"/></g>
<g><path style="opacity:1" fill="#cce3f7" d="M 113.5,245.5 C 114.878,246.545 115.878,247.878 116.5,249.5C 114.468,248.952 113.468,247.619 113.5,245.5 Z"/></g>
<g><path style="opacity:1" fill="#8ac0f1" d="M 348.5,248.5 C 348.167,249.167 347.833,249.833 347.5,250.5C 346.833,250.833 346.167,251.167 345.5,251.5C 345.5,249.5 346.5,248.5 348.5,248.5 Z"/></g>
<g><path style="opacity:1" fill="#d0e4f8" d="M 116.5,249.5 C 117.167,249.5 117.833,249.5 118.5,249.5C 119.167,250.5 119.833,251.5 120.5,252.5C 118.381,252.532 117.048,251.532 116.5,249.5 Z"/></g>
<g><path style="opacity:1" fill="#7ab7ef" d="M 118.5,249.5 C 122.474,251.772 125.807,254.772 128.5,258.5C 127.833,258.167 127.167,257.833 126.5,257.5C 125.833,257.5 125.167,257.5 124.5,257.5C 123.92,255.251 122.587,253.585 120.5,252.5C 119.833,251.5 119.167,250.5 118.5,249.5 Z"/></g>
<g><path style="opacity:1" fill="#bddaf6" d="M 347.5,250.5 C 346.344,252.387 344.677,253.721 342.5,254.5C 342.856,252.81 343.856,251.81 345.5,251.5C 346.167,251.167 346.833,250.833 347.5,250.5 Z"/></g>
<g><path style="opacity:1" fill="#dbeaf9" d="M 120.5,252.5 C 122.587,253.585 123.92,255.251 124.5,257.5C 122.071,256.735 120.738,255.069 120.5,252.5 Z"/></g>
<g><path style="opacity:1" fill="#8abff1" d="M 339.5,256.5 C 339.167,257.5 338.5,258.167 337.5,258.5C 337.5,257.167 338.167,256.5 339.5,256.5 Z"/></g>
<g><path style="opacity:1" fill="#95c5f1" d="M 337.5,258.5 C 337.5,258.833 337.5,259.167 337.5,259.5C 336.833,259.833 336.167,260.167 335.5,260.5C 335.5,259.167 336.167,258.5 337.5,258.5 Z"/></g>
<g><path style="opacity:1" fill="#d0e4f8" d="M 342.5,254.5 C 341.833,257.167 340.167,258.833 337.5,259.5C 337.5,259.167 337.5,258.833 337.5,258.5C 338.5,258.167 339.167,257.5 339.5,256.5C 340.5,255.833 341.5,255.167 342.5,254.5 Z"/></g>
<g><path style="opacity:1" fill="#d1e5f8" d="M 126.5,257.5 C 127.167,257.833 127.833,258.167 128.5,258.5C 129.167,259.5 129.833,260.5 130.5,261.5C 127.858,261.512 126.525,260.179 126.5,257.5 Z"/></g>
<g><path style="opacity:1" fill="#cae1f8" d="M 337.5,259.5 C 336.674,261.264 335.341,262.598 333.5,263.5C 333.5,262.833 333.5,262.167 333.5,261.5C 333.842,260.662 334.508,260.328 335.5,260.5C 336.167,260.167 336.833,259.833 337.5,259.5 Z"/></g>
<g><path style="opacity:1" fill="#96c7f2" d="M 333.5,261.5 C 333.5,262.167 333.5,262.833 333.5,263.5C 332.391,263.557 331.391,263.89 330.5,264.5C 330.81,262.856 331.81,261.856 333.5,261.5 Z"/></g>
<g><path style="opacity:1" fill="#e1eefa" d="M 130.5,261.5 C 132.817,262.82 134.817,264.486 136.5,266.5C 136.833,267.167 137.167,267.833 137.5,268.5C 133.643,267.666 131.31,265.332 130.5,261.5 Z"/></g>
<g><path style="opacity:1" fill="#87bff0" d="M 330.5,264.5 C 330.167,265.167 329.833,265.833 329.5,266.5C 328.833,266.833 328.167,267.167 327.5,267.5C 327.5,265.5 328.5,264.5 330.5,264.5 Z"/></g>
<g><path style="opacity:1" fill="#94c5f2" d="M 136.5,266.5 C 138.5,266.5 139.5,267.5 139.5,269.5C 138.833,269.167 138.167,268.833 137.5,268.5C 137.167,267.833 136.833,267.167 136.5,266.5 Z"/></g>
<g><path style="opacity:1" fill="#c1ddf6" d="M 329.5,266.5 C 329.5,267.833 328.833,268.5 327.5,268.5C 326.833,268.833 326.167,269.167 325.5,269.5C 325.5,268.167 326.167,267.5 327.5,267.5C 328.167,267.167 328.833,266.833 329.5,266.5 Z"/></g>
<g><path style="opacity:1" fill="#8bbff0" d="M 141.5,270.5 C 144.089,271.419 146.089,273.086 147.5,275.5C 147.167,275.5 146.833,275.5 146.5,275.5C 145.167,274.5 143.833,273.5 142.5,272.5C 142.167,271.833 141.833,271.167 141.5,270.5 Z"/></g>
<g><path style="opacity:1" fill="#c1dcf6" d="M 139.5,269.5 C 140.492,269.328 141.158,269.662 141.5,270.5C 141.833,271.167 142.167,271.833 142.5,272.5C 140.856,272.19 139.856,271.19 139.5,269.5 Z"/></g>
<g><path style="opacity:1" fill="#96c5f1" d="M 325.5,269.5 C 323.909,271.633 321.909,273.299 319.5,274.5C 320.638,271.914 322.638,270.247 325.5,269.5 Z"/></g>
<g><path style="opacity:1" fill="#e6f0fa" d="M 327.5,268.5 C 327.631,269.239 327.464,269.906 327,270.5C 323.973,272.741 321.14,275.074 318.5,277.5C 318.557,276.391 318.89,275.391 319.5,274.5C 321.909,273.299 323.909,271.633 325.5,269.5C 326.167,269.167 326.833,268.833 327.5,268.5 Z"/></g>
<g><path style="opacity:1" fill="#d7e8f9" d="M 146.5,275.5 C 146.833,275.5 147.167,275.5 147.5,275.5C 149.219,277.544 150.886,279.544 152.5,281.5C 149.184,280.851 147.184,278.851 146.5,275.5 Z"/></g>
<g><path style="opacity:1" fill="#c4def7" d="M 319.5,274.5 C 318.89,275.391 318.557,276.391 318.5,277.5C 317.078,278.925 315.411,279.925 313.5,280.5C 315.215,278.118 317.215,276.118 319.5,274.5 Z"/></g>
<g><path style="opacity:1" fill="#bfdbf6" d="M 152.5,281.5 C 155.204,281.67 156.871,283.003 157.5,285.5C 155.111,285.021 153.444,283.688 152.5,281.5 Z"/></g>
<g><path style="opacity:1" fill="#9cc9f2" d="M 310.5,282.5 C 309.833,283.833 308.833,284.833 307.5,285.5C 307.5,283.5 308.5,282.5 310.5,282.5 Z"/></g>
<g><path style="opacity:1" fill="#bddaf6" d="M 157.5,285.5 C 158.778,285.782 159.778,286.449 160.5,287.5C 160.5,287.833 160.5,288.167 160.5,288.5C 158.856,288.19 157.856,287.19 157.5,285.5 Z"/></g>
<g><path style="opacity:1" fill="#8dc1f1" d="M 160.5,288.5 C 160.5,288.167 160.5,287.833 160.5,287.5C 163.427,288.757 165.761,290.757 167.5,293.5C 166.833,293.5 166.167,293.5 165.5,293.5C 164.167,291.5 162.5,289.833 160.5,288.5 Z"/></g>
<g><path style="opacity:1" fill="#c8e0f7" d="M 165.5,293.5 C 166.167,293.5 166.833,293.5 167.5,293.5C 170.167,295.5 172.5,297.833 174.5,300.5C 173.417,300.461 172.417,300.127 171.5,299.5C 169.383,297.45 167.383,295.45 165.5,293.5 Z"/></g>
<g><path style="opacity:1" fill="#a1cbf3" d="M 306.5,286.5 C 302.198,290.793 297.531,294.793 292.5,298.5C 296.213,293.459 300.88,289.459 306.5,286.5 Z"/></g>
<g><path style="opacity:1" fill="#95c6f2" d="M 292.5,298.5 C 291.833,299.833 290.833,300.833 289.5,301.5C 289.5,299.5 290.5,298.5 292.5,298.5 Z"/></g>
<g><path style="opacity:1" fill="#e0edfa" d="M 174.5,300.5 C 176.167,301.5 177.5,302.833 178.5,304.5C 175.5,304.833 174.167,303.5 174.5,300.5 Z"/></g>
<g><path style="opacity:1" fill="#90c3f1" d="M 180.5,306.5 C 180.5,306.167 180.5,305.833 180.5,305.5C 182.404,305.738 183.738,306.738 184.5,308.5C 182.938,308.267 181.605,307.6 180.5,306.5 Z"/></g>
<g><path style="opacity:1" fill="#b5d6f5" d="M 288.5,302.5 C 287.461,304.531 285.795,305.864 283.5,306.5C 284.579,304.457 286.246,303.124 288.5,302.5 Z"/></g>
<g><path style="opacity:1" fill="#d2e5f8" d="M 180.5,306.5 C 181.605,307.6 182.938,308.267 184.5,308.5C 186.36,309.939 188.027,311.605 189.5,313.5C 185.412,312.447 182.412,310.114 180.5,306.5 Z"/></g>
<g><path style="opacity:1" fill="#c1dcf6" d="M 283.5,306.5 C 282.208,309.401 280.208,311.734 277.5,313.5C 277.557,312.391 277.89,311.391 278.5,310.5C 279.853,308.817 281.52,307.484 283.5,306.5 Z"/></g>
<g><path style="opacity:1" fill="#9ecaf3" d="M 278.5,310.5 C 277.89,311.391 277.557,312.391 277.5,313.5C 276.18,314.942 274.514,315.608 272.5,315.5C 273.893,313.126 275.893,311.459 278.5,310.5 Z"/></g>
<g><path style="opacity:1" fill="#bedbf6" d="M 189.5,313.5 C 190.167,313.833 190.833,314.167 191.5,314.5C 191.833,315.167 192.167,315.833 192.5,316.5C 190.5,316.5 189.5,315.5 189.5,313.5 Z"/></g>
<g><path style="opacity:1" fill="#7db9ef" d="M 191.5,314.5 C 193.144,314.81 194.144,315.81 194.5,317.5C 193.833,317.5 193.167,317.5 192.5,317.5C 192.5,317.167 192.5,316.833 192.5,316.5C 192.167,315.833 191.833,315.167 191.5,314.5 Z"/></g>
<g><path style="opacity:1" fill="#83bcf0" d="M 272.5,315.5 C 272.19,317.144 271.19,318.144 269.5,318.5C 269.81,316.856 270.81,315.856 272.5,315.5 Z"/></g>
<g><path style="opacity:1" fill="#b5d7f5" d="M 192.5,317.5 C 193.167,317.5 193.833,317.5 194.5,317.5C 195.338,317.842 195.672,318.508 195.5,319.5C 194.29,319.068 193.29,318.401 192.5,317.5 Z"/></g>
<g><path style="opacity:1" fill="#74b4ee" d="M 197.5,319.5 C 202.821,323.155 207.487,327.488 211.5,332.5C 210.833,332.167 210.167,331.833 209.5,331.5C 208.5,330.833 207.5,330.167 206.5,329.5C 204.5,326.833 202.167,324.5 199.5,322.5C 198.833,321.5 198.167,320.5 197.5,319.5 Z"/></g>
<g><path style="opacity:1" fill="#c6dff7" d="M 195.5,319.5 C 196.167,319.5 196.833,319.5 197.5,319.5C 198.167,320.5 198.833,321.5 199.5,322.5C 197.381,322.532 196.048,321.532 195.5,319.5 Z"/></g>
<g><path style="opacity:1" fill="#93c4f2" d="M 266.5,321.5 C 266.167,322.5 265.5,323.167 264.5,323.5C 264.5,322.167 265.167,321.5 266.5,321.5 Z"/></g>
<g><path style="opacity:1" fill="#d3e6f8" d="M 199.5,322.5 C 202.167,324.5 204.5,326.833 206.5,329.5C 202.816,328.483 200.483,326.15 199.5,322.5 Z"/></g>
<g><path style="opacity:1" fill="#96c5f2" d="M 264.5,323.5 C 263.5,324.833 262.5,326.167 261.5,327.5C 260.391,327.557 259.391,327.89 258.5,328.5C 259.865,326.14 261.865,324.473 264.5,323.5 Z"/></g>
<g><path style="opacity:1" fill="#92c3f2" d="M 258.5,328.5 C 258.167,329.5 257.5,330.167 256.5,330.5C 256.5,329.167 257.167,328.5 258.5,328.5 Z"/></g>
<g><path style="opacity:1" fill="#7ab8ef" d="M 211.5,332.5 C 214.167,333.167 215.833,334.833 216.5,337.5C 215.833,337.167 215.167,336.833 214.5,336.5C 213.5,335.167 212.5,333.833 211.5,332.5 Z"/></g>
<g><path style="opacity:1" fill="#e0edfa" d="M 261.5,327.5 C 255.49,336.18 247.49,342.18 237.5,345.5C 237.5,345.167 237.5,344.833 237.5,344.5C 239.199,344.473 240.533,343.806 241.5,342.5C 243.434,341.89 245.101,340.89 246.5,339.5C 250.482,337.183 253.815,334.183 256.5,330.5C 257.5,330.167 258.167,329.5 258.5,328.5C 259.391,327.89 260.391,327.557 261.5,327.5 Z"/></g>
<g><path style="opacity:1" fill="#dbeaf9" d="M 209.5,331.5 C 210.167,331.833 210.833,332.167 211.5,332.5C 212.5,333.833 213.5,335.167 214.5,336.5C 213.167,336.5 211.833,336.5 210.5,336.5C 210.371,334.784 210.038,333.117 209.5,331.5 Z"/></g>
<g><path style="opacity:1" fill="#9ecbf3" d="M 256.5,330.5 C 253.815,334.183 250.482,337.183 246.5,339.5C 249.193,335.772 252.526,332.772 256.5,330.5 Z"/></g>
<g><path style="opacity:1" fill="#e4effa" d="M 214.5,336.5 C 215.167,336.833 215.833,337.167 216.5,337.5C 217.262,339.262 218.596,340.262 220.5,340.5C 221.167,341.5 221.833,342.5 222.5,343.5C 220.302,342.986 218.302,341.986 216.5,340.5C 215.295,339.423 214.628,338.09 214.5,336.5 Z"/></g>
<g><path style="opacity:1" fill="#78b5ef" d="M 246.5,339.5 C 245.101,340.89 243.434,341.89 241.5,342.5C 242.344,340.241 244.011,339.241 246.5,339.5 Z"/></g>
<g><path style="opacity:1" fill="#a5cef4" d="M 220.5,340.5 C 222.544,341.031 224.211,342.198 225.5,344C 229.486,344.499 233.486,344.666 237.5,344.5C 237.5,344.833 237.5,345.167 237.5,345.5C 234.5,345.5 231.5,345.5 228.5,345.5C 226.142,345.747 224.142,345.081 222.5,343.5C 221.833,342.5 221.167,341.5 220.5,340.5 Z"/></g>
<g><path style="opacity:1" fill="#e1edfa" d="M 228.5,345.5 C 231.5,345.5 234.5,345.5 237.5,345.5C 237.389,346.117 237.056,346.617 236.5,347C 235.167,347.167 233.833,347.333 232.5,347.5C 230.667,347.415 229.334,346.748 228.5,345.5 Z"/></g>
</svg>
