<?xml version="1.0" encoding="UTF-8"?>
<svg version="1.1" xmlns="http://www.w3.org/2000/svg" width="660" height="660">
<path d="M0 0 C1.75337677 0.00081573 1.75337677 0.00081573 3.54217529 0.00164795 C22.12809432 0.04133906 40.02657006 0.8759885 58.3125 4.375 C59.45638184 4.58930664 60.60026367 4.80361328 61.77880859 5.02441406 C106.88395131 13.71282933 150.60047449 30.97658214 188.3125 57.375 C188.86744141 57.76010742 189.42238281 58.14521484 189.99414062 58.54199219 C198.06403313 64.15176862 205.79837164 70.03136173 213.3125 76.375 C214.33214844 77.20902344 215.35179687 78.04304688 216.40234375 78.90234375 C230.96743207 90.93944611 244.79511857 104.37561953 256.3125 119.375 C257.72670644 121.06456232 259.14350003 122.75196158 260.5625 124.4375 C270.0261736 136.03546363 278.74936177 148.23992949 286.12304688 161.27392578 C286.96335065 162.75825548 287.81180885 164.23798293 288.66601562 165.71435547 C314.37672653 210.2558137 331.12549383 263.24912814 331.55078125 314.98046875 C331.5605751 315.97011627 331.57036896 316.95976379 331.58045959 317.97940063 C331.75688951 340.45242187 331.40356717 362.21426912 327.3125 384.375 C327.10351074 385.54111816 326.89452148 386.70723633 326.67919922 387.90869141 C321.7425984 414.7808099 313.4545211 440.45696537 302.3125 465.375 C301.96864258 466.15762207 301.62478516 466.94024414 301.27050781 467.74658203 C282.12134207 511.17993856 249.79118164 553.19035579 212.3125 582.375 C211.15007423 583.32404991 209.99006909 584.27606959 208.83203125 585.23046875 C200.33688618 592.20161601 191.586011 598.48540999 182.3125 604.375 C181.66039551 604.79571777 181.00829102 605.21643555 180.33642578 605.64990234 C159.5879759 618.99571456 137.61164336 630.2362312 114.3125 638.375 C113.32072754 638.72256348 112.32895508 639.07012695 111.30712891 639.42822266 C26.46327834 668.73546205 -65.71749148 663.13682001 -146.50292969 624.01757812 C-160.48190386 617.10847992 -173.90876874 609.32011188 -186.6875 600.375 C-187.24244141 599.98989258 -187.79738281 599.60478516 -188.36914062 599.20800781 C-196.43903313 593.59823138 -204.17337164 587.71863827 -211.6875 581.375 C-212.70714844 580.54097656 -213.72679687 579.70695313 -214.77734375 578.84765625 C-229.35878167 566.797042 -243.11057115 553.34811278 -254.6875 538.375 C-255.68063153 537.17744036 -256.67841495 535.98373011 -257.6796875 534.79296875 C-269.5313139 520.63921516 -279.4794015 505.38921914 -288.57324219 489.34082031 C-289.59308379 487.54157303 -290.6278294 485.75079466 -291.6640625 483.9609375 C-305.47115734 459.24453316 -314.59940999 432.37264015 -321.4375 405 C-321.84222534 403.40973999 -321.84222534 403.40973999 -322.25512695 401.78735352 C-327.66299517 379.17369305 -329.37524081 356.76813243 -329.26391602 333.6159668 C-329.25020985 330.67214187 -329.25704449 327.72961721 -329.28442383 324.78588867 C-330.08593897 238.25727994 -293.65104338 157.94989431 -231.77392578 94.29321289 C-225.06505128 87.52232095 -218.21455182 81.23631421 -210.6875 75.375 C-209.52507423 74.42595009 -208.36506909 73.47393041 -207.20703125 72.51953125 C-198.71304901 65.54933821 -189.96528613 59.2561884 -180.6875 53.375 C-179.67743896 52.72797119 -179.67743896 52.72797119 -178.64697266 52.06787109 C-137.64955755 25.91088997 -91.89828524 9.01793351 -43.6875 2.375 C-42.44025146 2.19839844 -41.19300293 2.02179687 -39.90795898 1.83984375 C-26.62854309 0.09052871 -13.37776359 -0.02343446 0 0 Z " fill="#D20000" transform="translate(328.6875,-0.375)"/>
<path d="M0 0 C18.57609298 15.35807105 31.99327762 37.43578347 34.95947266 61.61230469 C35.051606 63.25674534 35.11038125 64.90319159 35.14697266 66.54980469 C35.19724609 67.76023437 35.24751953 68.97066406 35.29931641 70.21777344 C35.89512419 89.82699934 30.06054604 110.77304328 18.14697266 126.54980469 C17.12990234 127.91298828 17.12990234 127.91298828 16.09228516 129.30371094 C1.48018343 147.99784108 -20.33015904 162.37314165 -44.32958984 165.33105469 C-74.8717902 167.22724451 -99.57216265 161.03356829 -122.85302734 140.48730469 C-139.70929354 125.03258285 -150.92568902 101.62929746 -152.03662109 78.77246094 C-152.6802103 51.78722069 -143.7010198 27.58385345 -125.20849609 7.88183594 C-113.95033127 -3.26430735 -100.13052247 -12.0017482 -84.85302734 -16.45019531 C-83.95583984 -16.74667969 -83.05865234 -17.04316406 -82.13427734 -17.34863281 C-54.68610697 -25.22192379 -22.25169076 -17.41436669 0 0 Z " fill="#FEE500" transform="translate(387.85302734375,255.4501953125)"/>
<path d="M0 0 C1.75337677 0.00081573 1.75337677 0.00081573 3.54217529 0.00164795 C22.12809432 0.04133906 40.02657006 0.8759885 58.3125 4.375 C59.45638184 4.58930664 60.60026367 4.80361328 61.77880859 5.02441406 C106.88395131 13.71282933 150.60047449 30.97658214 188.3125 57.375 C188.86744141 57.76010742 189.42238281 58.14521484 189.99414062 58.54199219 C198.06403313 64.15176862 205.79837164 70.03136173 213.3125 76.375 C214.33214844 77.20902344 215.35179687 78.04304688 216.40234375 78.90234375 C230.96743207 90.93944611 244.79511857 104.37561953 256.3125 119.375 C257.72670644 121.06456232 259.14350003 122.75196158 260.5625 124.4375 C270.0261736 136.03546363 278.74936177 148.23992949 286.12304688 161.27392578 C286.96335065 162.75825548 287.81180885 164.23798293 288.66601562 165.71435547 C314.37672653 210.2558137 331.12549383 263.24912814 331.55078125 314.98046875 C331.5605751 315.97011627 331.57036896 316.95976379 331.58045959 317.97940063 C331.75688951 340.45242187 331.40356717 362.21426912 327.3125 384.375 C327.10351074 385.54111816 326.89452148 386.70723633 326.67919922 387.90869141 C321.7425984 414.7808099 313.4545211 440.45696537 302.3125 465.375 C301.96864258 466.15762207 301.62478516 466.94024414 301.27050781 467.74658203 C282.12134207 511.17993856 249.79118164 553.19035579 212.3125 582.375 C211.15007423 583.32404991 209.99006909 584.27606959 208.83203125 585.23046875 C200.33688618 592.20161601 191.586011 598.48540999 182.3125 604.375 C181.66039551 604.79571777 181.00829102 605.21643555 180.33642578 605.64990234 C159.5879759 618.99571456 137.61164336 630.2362312 114.3125 638.375 C113.32072754 638.72256348 112.32895508 639.07012695 111.30712891 639.42822266 C26.46327834 668.73546205 -65.71749148 663.13682001 -146.50292969 624.01757812 C-160.48190386 617.10847992 -173.90876874 609.32011188 -186.6875 600.375 C-187.24244141 599.98989258 -187.79738281 599.60478516 -188.36914062 599.20800781 C-196.43903313 593.59823138 -204.17337164 587.71863827 -211.6875 581.375 C-212.70714844 580.54097656 -213.72679687 579.70695313 -214.77734375 578.84765625 C-229.35878167 566.797042 -243.11057115 553.34811278 -254.6875 538.375 C-255.68063153 537.17744036 -256.67841495 535.98373011 -257.6796875 534.79296875 C-269.5313139 520.63921516 -279.4794015 505.38921914 -288.57324219 489.34082031 C-289.59308379 487.54157303 -290.6278294 485.75079466 -291.6640625 483.9609375 C-305.47115734 459.24453316 -314.59940999 432.37264015 -321.4375 405 C-321.84222534 403.40973999 -321.84222534 403.40973999 -322.25512695 401.78735352 C-327.66299517 379.17369305 -329.37524081 356.76813243 -329.26391602 333.6159668 C-329.25020985 330.67214187 -329.25704449 327.72961721 -329.28442383 324.78588867 C-330.08593897 238.25727994 -293.65104338 157.94989431 -231.77392578 94.29321289 C-225.06505128 87.52232095 -218.21455182 81.23631421 -210.6875 75.375 C-209.52507423 74.42595009 -208.36506909 73.47393041 -207.20703125 72.51953125 C-198.71304901 65.54933821 -189.96528613 59.2561884 -180.6875 53.375 C-179.67743896 52.72797119 -179.67743896 52.72797119 -178.64697266 52.06787109 C-137.64955755 25.91088997 -91.89828524 9.01793351 -43.6875 2.375 C-42.44025146 2.19839844 -41.19300293 2.02179687 -39.90795898 1.83984375 C-26.62854309 0.09052871 -13.37776359 -0.02343446 0 0 Z M-203.6875 83.375 C-204.67234375 84.17421875 -205.6571875 84.9734375 -206.671875 85.796875 C-214.33589955 92.1161322 -221.45735734 98.9356986 -228.5 105.9375 C-229.37116455 106.79947998 -230.2423291 107.66145996 -231.13989258 108.54956055 C-237.07962837 114.51754045 -242.43040153 120.8044155 -247.6875 127.375 C-248.77133157 128.66932331 -249.8593615 129.96015241 -250.953125 131.24609375 C-259.48067202 141.37859543 -266.77084976 152.09061322 -273.6875 163.375 C-274.19667969 164.2009668 -274.70585937 165.02693359 -275.23046875 165.87792969 C-295.8842516 199.71243643 -309.08085029 237.39725471 -315.6875 276.375 C-315.90599609 277.65479736 -315.90599609 277.65479736 -316.12890625 278.96044922 C-316.55319596 281.47226344 -316.96736163 283.98543274 -317.375 286.5 C-317.49447998 287.23307373 -317.61395996 287.96614746 -317.73706055 288.72143555 C-319.69636032 301.28166794 -319.9292531 313.75097858 -319.9375 326.4375 C-319.93817474 327.37184875 -319.93884949 328.30619751 -319.93954468 329.26885986 C-319.92209478 344.52398087 -319.11498134 359.29164402 -316.6875 374.375 C-316.52121094 375.48375488 -316.35492188 376.59250977 -316.18359375 377.73486328 C-312.09487661 404.77718412 -304.10228526 430.13231457 -293.6875 455.375 C-293.12893311 456.72996582 -293.12893311 456.72996582 -292.55908203 458.11230469 C-281.68073255 484.13233882 -266.53328341 507.78532564 -248.39306641 529.32080078 C-247.14823847 530.82008252 -245.92407666 532.33659256 -244.71240234 533.86279297 C-239.29852157 540.6462603 -233.51217517 546.86167933 -227.35888672 552.96435547 C-225.81370622 554.49880216 -224.27953991 556.04368002 -222.74609375 557.58984375 C-216.38402902 563.9607378 -209.76105902 569.78933246 -202.6875 575.375 C-201.55296383 576.30388828 -200.41985493 577.2345266 -199.2890625 578.16796875 C-162.61557562 607.67039323 -119.38821311 628.38012587 -73.6875 639.375 C-72.27549316 639.7150708 -72.27549316 639.7150708 -70.83496094 640.06201172 C3.34446105 657.52846049 82.09058826 646.43833939 149.46240234 611.33251953 C151.2644474 610.39986966 153.07760306 609.4930825 154.89453125 608.58984375 C174.90997036 598.47732419 194.51045702 584.93064092 210.90625 569.60546875 C212.90574837 567.75203763 214.93818915 565.96935537 217.00390625 564.19140625 C227.79489061 554.77663059 238.37326021 544.46790384 247.1640625 533.140625 C248.82722215 530.99968494 250.52134683 528.9257173 252.2734375 526.859375 C264.84084141 511.94623239 275.16033282 495.57146385 284.3125 478.375 C284.63492676 477.77929199 284.95735352 477.18358398 285.28955078 476.56982422 C304.63031785 440.62047946 315.69902838 400.79571028 320.3125 360.375 C320.40893799 359.53702881 320.50537598 358.69905762 320.60473633 357.83569336 C321.51164149 348.68830708 321.49861103 339.53237955 321.49780273 330.34936523 C321.49998742 327.57845646 321.51819999 324.80794805 321.53710938 322.03710938 C321.57069717 311.60483397 320.98116559 301.68871882 319.3125 291.375 C318.99839021 289.11776989 318.68842678 286.85995853 318.3828125 284.6015625 C316.603471 272.02542763 314.70946824 259.62253566 311.3125 247.375 C311.08755859 246.54709961 310.86261719 245.71919922 310.63085938 244.86621094 C306.12531784 228.51430493 300.02415355 212.93718571 293.3125 197.375 C292.96074707 196.55273926 292.60899414 195.73047852 292.24658203 194.88330078 C281.7931957 170.71150395 266.90360889 148.61089233 250.05029297 128.47753906 C248.79317749 126.95656709 247.55491133 125.41994975 246.32861328 123.87402344 C240.91799913 117.09524995 235.13316399 110.88434249 228.98388672 104.78564453 C227.43870622 103.25119784 225.90453991 101.70631998 224.37109375 100.16015625 C218.00902902 93.7892622 211.38605902 87.96066754 204.3125 82.375 C203.17796383 81.44611172 202.04485493 80.5154734 200.9140625 79.58203125 C186.10684919 67.67019167 170.14455098 57.19752404 153.3125 48.375 C152.67038574 48.03807129 152.02827148 47.70114258 151.36669922 47.35400391 C146.7240007 44.93860048 142.03667527 42.62653138 137.3125 40.375 C136.63558105 40.05176758 135.95866211 39.72853516 135.26123047 39.39550781 C44.52468277 -3.46711519 -62.00866419 1.40352874 -203.6875 83.375 Z " fill="#FEFCFC" transform="translate(328.6875,-0.375)"/>
<path d="M0 0 C3.01395955 0.01069383 6.02731842 0.00004966 9.04125977 -0.01269531 C25.65934893 -0.02505688 42.13565435 1.05006789 58.52758789 3.88574219 C59.74478516 4.08683594 59.74478516 4.08683594 60.98657227 4.29199219 C62.89714415 4.60853664 64.8063151 4.93352399 66.71508789 5.26074219 C67.90341424 8.82572125 67.44061246 10.13984571 66.49243164 13.72949219 C66.20424561 14.84420898 65.91605957 15.95892578 65.61914062 17.10742188 C65.30017822 18.31301758 64.98121582 19.51861328 64.65258789 20.76074219 C63.99333161 23.31731794 63.33628418 25.87430991 62.68383789 28.43261719 C62.43342995 29.41189178 62.43342995 29.41189178 62.17796326 30.41094971 C60.52675539 36.91378225 59.07517149 43.45481964 57.65258789 50.01074219 C55.82810216 58.38191202 53.89496637 66.70877554 51.77758789 75.01074219 C49.42745142 84.22581199 47.28296503 93.47895579 45.21508789 102.76074219 C42.95098545 112.92148672 40.55801323 123.03686906 37.98461914 133.12402344 C35.9150018 141.30393958 34.0503276 149.52581446 32.21508789 157.76074219 C29.46353762 170.10468945 26.52099628 182.39000166 23.38183594 194.64135742 C22.48153587 198.1782741 21.60027048 201.72001182 20.71508789 205.26074219 C10.15508789 205.26074219 -0.40491211 205.26074219 -11.28491211 205.26074219 C-12.90991211 198.76074219 -12.90991211 198.76074219 -13.48706055 196.44555664 C-14.53873971 192.22870914 -15.60111502 188.01482397 -16.67553711 183.80371094 C-19.64570696 172.1133127 -22.3931004 160.39558931 -24.96411133 148.61108398 C-26.75878277 140.45491211 -28.72772019 132.35439051 -30.78491211 124.26074219 C-33.41329948 113.91982897 -35.81323293 103.54848477 -38.08569336 93.12402344 C-39.90920976 84.81150454 -41.93267337 76.56408788 -44.03515625 68.31835938 C-45.92974737 60.82883276 -47.63511765 53.30765142 -49.28491211 45.76074219 C-51.2737048 36.72202229 -53.302023 27.69529378 -55.47241211 18.69824219 C-55.71024414 17.67472656 -55.94807617 16.65121094 -56.19311523 15.59667969 C-56.42321289 14.65953125 -56.65331055 13.72238281 -56.89038086 12.75683594 C-57.08784912 11.93368896 -57.28531738 11.11054199 -57.48876953 10.26245117 C-58.20826055 7.9015195 -58.20826055 7.9015195 -61.28491211 6.26074219 C-57.82836024 5.62563891 -54.36937805 5.0047583 -50.90991211 4.38574219 C-49.4906543 4.12470703 -49.4906543 4.12470703 -48.04272461 3.85839844 C-32.00167519 1.0090015 -16.28412098 -0.06842621 0 0 Z " fill="#FEE400" transform="translate(324.284912109375,9.7392578125)"/>
<path d="M0 0 C10.56 0 21.12 0 32 0 C33.625 6.5 33.625 6.5 34.2043457 8.82397461 C35.24361019 12.99101179 36.29317153 17.15517827 37.35546875 21.31640625 C40.41064409 33.33717793 43.248402 45.39569971 45.94592285 57.50112915 C48.08440292 67.08870668 50.37302531 76.62618654 52.80078125 86.14453125 C54.96696627 94.70557097 56.86736018 103.31675792 58.75244141 111.94335938 C60.35893515 119.24617302 62.08951048 126.50475628 63.9375 133.75 C66.47787742 143.71035806 68.77731465 153.71611416 71.00680542 163.74951172 C73.05105232 172.94855192 75.19517421 182.10739456 77.66625977 191.20214844 C79.1067505 196.6797485 79.1067505 196.6797485 78 200 C73.52117226 200.64819804 69.04187984 201.29312928 64.5625 201.9375 C62.67241211 202.21110352 62.67241211 202.21110352 60.74414062 202.49023438 C59.50986328 202.66748047 58.27558594 202.84472656 57.00390625 203.02734375 C55.87799072 203.18968506 54.7520752 203.35202637 53.59204102 203.51928711 C45.877977 204.55163891 38.35860058 205.16595389 30.5703125 205.203125 C29.58978409 205.21000336 28.60925568 205.21688171 27.59901428 205.22396851 C24.44097148 205.24108899 21.28308679 205.24742639 18.125 205.25 C17.05085846 205.25167175 15.97671692 205.25334351 14.87002563 205.25506592 C-1.60657532 205.25660491 -17.71504572 204.70669025 -34 202 C-35.0214209 201.83081055 -36.0428418 201.66162109 -37.09521484 201.48730469 C-44.85574403 200.14425597 -44.85574403 200.14425597 -46 199 C-45.47653731 191.73882471 -43.98471263 184.77602886 -42.375 177.6875 C-41.97958008 175.9250293 -41.97958008 175.9250293 -41.57617188 174.12695312 C-39.40308644 164.54400262 -37.02887223 155.0170277 -34.60913086 145.49389648 C-32.29198106 136.32038275 -30.21432403 127.10717689 -28.19921875 117.86328125 C-26.37505437 109.54780853 -24.35067321 101.29751386 -22.24755859 93.04882812 C-20.37476511 85.64527025 -18.68899408 78.21121888 -17.0625 70.75 C-14.78103718 60.29129412 -12.25943087 49.91194538 -9.61889648 39.53857422 C-7.17016791 29.85140124 -4.97131583 20.11858291 -2.86523438 10.3515625 C-2.63384766 9.28421875 -2.40246094 8.216875 -2.1640625 7.1171875 C-1.86169678 5.70348877 -1.86169678 5.70348877 -1.55322266 4.26123047 C-1 2 -1 2 0 0 Z " fill="#FEE400" transform="translate(313,442)"/>
<path d="M0 0 C21.81218376 2.16337726 43.62424086 4.32802769 65.43615341 6.49413776 C75.566915 7.50018029 85.69771554 8.5058274 95.82861328 9.51049805 C104.67278633 10.3875666 113.51688074 11.26542348 122.36088681 12.14417428 C127.03088819 12.60816469 131.70092448 13.07179626 136.3710556 13.53447914 C153.31678729 15.21360596 170.26205173 16.89626178 187.19628906 18.68823242 C188.33617153 18.8075604 189.476054 18.92688837 190.65047836 19.04983234 C191.68913166 19.16114081 192.72778496 19.27244928 193.7979126 19.38713074 C194.6892905 19.48204394 195.58066841 19.57695715 196.49905777 19.67474651 C199.01689232 20.00219689 201.51026829 20.50205366 204 21 C204 28.92 204 36.84 204 45 C188.24407399 47.01984083 172.49621262 48.83189138 156.6875 50.375 C154.53399225 50.58747789 152.38050977 50.80021208 150.22705078 51.01318359 C145.75001992 51.45533052 141.27280167 51.89550484 136.79541016 52.33398438 C131.15919586 52.88595291 125.52331747 53.44126026 119.88755798 53.99785137 C99.02554071 56.05794714 78.16204155 58.09597127 57.28808594 60.03157043 C46.01821486 61.08059232 34.76172124 62.24402247 23.50830078 63.45581055 C21.06840606 63.71768656 18.62801243 63.9744227 16.1875 64.23046875 C15.47609863 64.3085527 14.76469727 64.38663666 14.03173828 64.46708679 C9.32149251 64.95695487 4.72736272 65.0651799 0 65 C-1.14605776 54.92435097 -1.15333939 44.87924056 -1.13037109 34.75463867 C-1.12500455 31.93988679 -1.13034777 29.12529396 -1.13671875 26.31054688 C-1.13605795 24.48697882 -1.13477674 22.66341087 -1.1328125 20.83984375 C-1.13483673 20.01556381 -1.13686096 19.19128387 -1.13894653 18.34202576 C-1.12158773 13.92925679 -0.9081886 9.58730849 -0.49191284 5.19288635 C-0.40026793 4.21628839 -0.30862301 3.23969042 -0.21420097 2.23349857 C-0.14351465 1.49644404 -0.07282833 0.75938951 0 0 Z " fill="#FEE300" transform="translate(10,295)"/>
<path d="M0 0 C1.24257043 9.68157669 1.1524194 19.3738778 1.13037109 29.11499023 C1.12501879 31.92762662 1.13033812 34.74010288 1.13671875 37.55273438 C1.13976924 46.75515784 0.98233665 55.83942905 0 65 C-13.93662219 64.30012757 -27.78818585 62.89667842 -41.66796875 61.48828125 C-44.17220309 61.23645693 -46.67646604 60.98491704 -49.18075562 60.73364258 C-54.46158815 60.20324398 -59.74224469 59.67114535 -65.0227356 59.13735962 C-73.21075509 58.30968996 -81.39915429 57.48582019 -89.58764648 56.6628418 C-90.94917458 56.52599253 -92.31070266 56.38914313 -93.67223072 56.25229359 C-95.70407978 56.04807133 -97.73592944 55.84385514 -99.76778132 55.63966089 C-103.79465603 55.23495114 -107.82149721 54.82990972 -111.8483122 54.42460614 C-126.97798839 52.90186606 -142.10842757 51.38788986 -157.2421875 49.90625 C-158.35871799 49.79689149 -158.35871799 49.79689149 -159.49780464 49.68532372 C-166.59282582 48.99072443 -173.68823932 48.30021827 -180.78393555 47.61254883 C-181.88041412 47.50571777 -182.9768927 47.39888672 -184.1065979 47.28881836 C-186.06111556 47.09839969 -188.01575289 46.9092022 -189.97055054 46.72167969 C-190.80857208 46.63990479 -191.64659363 46.55812988 -192.51000977 46.47387695 C-193.56926414 46.37161552 -193.56926414 46.37161552 -194.6499176 46.26728821 C-197.77496147 45.91185923 -200.88641937 45.44479723 -204 45 C-204 37.08 -204 29.16 -204 21 C-195.42102448 19.6215538 -186.87967204 18.49183835 -178.23217773 17.65893555 C-176.42341408 17.48035004 -176.42341408 17.48035004 -174.57810974 17.29815674 C-171.29888008 16.97510642 -168.01936204 16.65521088 -164.73968005 16.33679175 C-161.23774757 15.9960268 -157.73621703 15.6511769 -154.2346344 15.30683899 C-148.31639998 14.72540852 -142.39791814 14.14655798 -136.47924805 13.56958008 C-128.33233217 12.7753816 -120.18585695 11.97674042 -112.03947902 11.17704558 C-89.14063555 8.92967049 -66.24144269 6.68613128 -43.33642578 4.50244141 C-41.50227096 4.32731569 -41.50227096 4.32731569 -39.63106251 4.14865208 C-33.93215937 3.60467209 -28.23307178 3.06281757 -22.53355408 2.52531433 C-20.54067298 2.33571559 -18.54779842 2.14604809 -16.55493164 1.95629883 C-15.6659701 1.87334627 -14.77700855 1.79039371 -13.86110878 1.70492744 C-9.31166821 1.26953822 -4.52428367 0 0 0 Z " fill="#FEE400" transform="translate(649,295)"/>
<path d="M0 0 C6.47779264 3.99243546 12.73227434 8.20557792 18.89111328 12.67333984 C24.82310884 16.93927453 30.90897061 20.96576721 37 25 C44.50447238 29.97217929 51.90125593 35.02640136 59.1875 40.3125 C64.36533655 44.01095468 69.69636554 47.4858559 75 51 C82.5043707 55.97233364 89.90125066 61.02639754 97.1875 66.3125 C102.36533655 70.01095468 107.69636554 73.4858559 113 77 C120.49411886 81.96554086 127.88331502 87.0092895 135.15625 92.29296875 C141.52402142 96.84264884 148.11001995 101.08821941 154.65234375 105.38085938 C159.67509879 108.69561644 164.49160559 112.00883577 169 116 C166.89883223 120.56775602 164.02395626 124.67268022 161.27734375 128.8671875 C159.34340876 131.84149016 157.48433091 134.77319367 156 138 C151.26634167 136.55533373 146.92671223 134.59766537 142.52368164 132.36743164 C141.79897171 132.00441956 141.07426178 131.64140747 140.32759094 131.26739502 C137.93658364 130.06865328 135.54842454 128.86434433 133.16015625 127.66015625 C131.47525859 126.814565 129.79015034 125.96939324 128.10484314 125.12461853 C123.65845804 122.89477723 119.21431209 120.66051261 114.77081299 118.42492676 C106.88231263 114.45658779 98.99088176 110.49408742 91.09765625 106.53515625 C90.24342323 106.10659458 89.38919022 105.67803291 88.50907135 105.23648453 C78.34380028 100.13929011 68.15621145 95.10696491 57.87632751 90.24403381 C43.43869616 83.39269961 29.15220915 76.2262352 14.84912109 69.09960938 C11.32970501 67.34667389 7.8074283 65.59968056 4.28271484 63.85742188 C-0.02756406 61.72682027 -4.33294012 59.58661859 -8.63487625 57.43922424 C-10.26233729 56.62885107 -11.89149898 55.82188391 -13.52238083 55.01841736 C-15.77797803 53.90630351 -18.02704477 52.78195324 -20.27490234 51.65429688 C-20.94582916 51.32703613 -21.61675598 50.99977539 -22.30801392 50.66259766 C-26.8858928 48.34232159 -26.8858928 48.34232159 -28 45 C-27.37011719 43.27685547 -27.37011719 43.27685547 -26.296875 41.3671875 C-25.89895752 40.65175781 -25.50104004 39.93632812 -25.09106445 39.19921875 C-24.64851318 38.43222656 -24.20596191 37.66523438 -23.75 36.875 C-23.29906982 36.07964844 -22.84813965 35.28429687 -22.38354492 34.46484375 C-15.56299076 22.5772904 -8.00593127 11.12086699 0 0 Z " fill="#FEE400" transform="translate(71,139)"/>
<path d="M0 0 C0.51949219 0.94101562 1.03898438 1.88203125 1.57421875 2.8515625 C2.27832029 4.10955726 2.98276585 5.36735952 3.6875 6.625 C4.02716797 7.24246094 4.36683594 7.85992187 4.71679688 8.49609375 C7.1068257 12.74007016 9.78441354 16.33952504 13 20 C11.6247655 23.2629652 10.25476426 24.82781855 7.31640625 26.77734375 C6.56359375 27.28394531 5.81078125 27.79054688 5.03515625 28.3125 C3.81119141 29.116875 3.81119141 29.116875 2.5625 29.9375 C0.82405858 31.10262563 -0.91421818 32.26799699 -2.65234375 33.43359375 C-3.5429248 34.02640137 -4.43350586 34.61920898 -5.35107422 35.22998047 C-9.42459343 37.95191727 -13.46134585 40.72672052 -17.5 43.5 C-19.08313337 44.58362553 -20.6664674 45.66695795 -22.25 46.75 C-23.03375 47.28625 -23.8175 47.8225 -24.625 48.375 C-107.75 105.25 -107.75 105.25 -110.1262207 106.87573242 C-111.70561286 107.95643755 -113.28487771 109.03732876 -114.86401367 110.1184082 C-118.88161047 112.86851186 -122.90153655 115.6151005 -126.92578125 118.35546875 C-136.36770796 124.79046022 -145.73883305 131.30718277 -155 138 C-159.29185817 134.21734534 -162.12178598 129.52073163 -165.1875 124.75 C-165.75903809 123.86626709 -166.33057617 122.98253418 -166.91943359 122.07202148 C-171.27128922 115.28056319 -175.32891676 108.36237024 -179.1953125 101.28515625 C-180.92180813 98.04154103 -180.92180813 98.04154103 -182.8046875 95.24609375 C-183.19914062 94.50488281 -183.59359375 93.76367188 -184 93 C-183 90 -183 90 -181.41069603 88.89633179 C-180.37285941 88.37989609 -180.37285941 88.37989609 -179.3140564 87.85302734 C-178.52133331 87.45250656 -177.72861023 87.05198578 -176.91186523 86.639328 C-176.03522217 86.20920914 -175.1585791 85.77909027 -174.25537109 85.3359375 C-173.33631989 84.87524368 -172.41726868 84.41454987 -171.47036743 83.93989563 C-168.40943416 82.40861751 -165.34157714 80.89178089 -162.2734375 79.375 C-160.13237402 78.30786566 -157.99172451 77.23990038 -155.85147095 76.17114258 C-150.18638098 73.34532671 -144.51522167 70.53189771 -138.84289551 67.72064209 C-134.2823112 65.45784804 -129.72605296 63.18642885 -125.17004967 60.91442871 C-119.66435562 58.16908404 -114.15666132 55.42776481 -108.6484375 52.6875 C-107.62609386 52.17878357 -106.60375023 51.67006714 -105.55042648 51.14593506 C-93.7668594 45.28724188 -81.94635993 39.51768323 -70.06516552 33.85952282 C-62.84053432 30.41478267 -55.66227781 26.88835423 -48.51758385 23.28109169 C-46.60514511 22.31579806 -44.691043 21.35386735 -42.77656555 20.3926239 C-37.35623547 17.67052079 -31.93853136 14.9432182 -26.5222168 12.21313477 C-23.15818764 10.51777811 -19.79224889 8.82626564 -16.42508888 7.13713646 C-15.15602724 6.49950812 -13.88772594 5.86036409 -12.62021446 5.21965981 C-10.87191242 4.33596156 -9.12095928 3.45751404 -7.36987305 2.5793457 C-6.37779343 2.07957718 -5.38571381 1.57980865 -4.36357117 1.06489563 C-2 0 -2 0 0 0 Z " fill="#FEE400" transform="translate(227,380)"/>
<path d="M0 0 C4.19627243 3.72217434 6.99060289 8.25966434 10 12.9375 C10.56090332 13.80689209 11.12180664 14.67628418 11.69970703 15.57202148 C15.90238664 22.15112538 19.94995732 28.81427389 23.875 35.5625 C24.40480469 36.46025146 24.93460938 37.35800293 25.48046875 38.28295898 C25.95871094 39.11899658 26.43695312 39.95503418 26.9296875 40.81640625 C27.56753174 41.92157593 27.56753174 41.92157593 28.21826172 43.04907227 C29 45 29 45 28 48 C25.52890015 49.53955078 25.52890015 49.53955078 22.19287109 51.1953125 C21.58593414 51.49994919 20.97899719 51.80458588 20.35366821 52.11845398 C18.33158792 53.13030535 16.30270282 54.12764638 14.2734375 55.125 C12.84982108 55.83340754 11.42662011 56.54265052 10.0038147 57.25268555 C6.23258244 59.13157268 2.45533879 60.99806409 -1.32312012 62.86236572 C-4.33394236 64.35037325 -7.34050258 65.84686308 -10.34679604 67.34399414 C-14.01357011 69.16981424 -17.68229205 70.99170282 -21.3515625 72.8125 C-22.01957508 73.1440509 -22.68758766 73.47560181 -23.37584305 73.81719971 C-31.93119793 78.05815164 -40.52508239 82.21116809 -49.14672852 86.31567383 C-59.63142268 91.31256643 -70.03334208 96.46245064 -80.40868568 101.68204308 C-83.39654636 103.184887 -86.38596521 104.68459211 -89.3757782 106.18354797 C-97.85464882 110.43504139 -106.33104389 114.69145422 -114.8059082 118.95092773 C-120.03728828 121.57995932 -125.27057961 124.20515224 -130.5050869 126.82795143 C-132.48866226 127.82284437 -134.47147718 128.81925491 -136.45351601 129.81720543 C-139.198097 131.19903877 -141.9450588 132.57602247 -144.69262695 133.9519043 C-145.50957031 134.36475677 -146.32651367 134.77760925 -147.16821289 135.20297241 C-152.77209631 138 -152.77209631 138 -155 138 C-155.51949219 137.05898438 -156.03898437 136.11796875 -156.57421875 135.1484375 C-157.27832029 133.89044274 -157.98276585 132.63264048 -158.6875 131.375 C-159.02716797 130.75753906 -159.36683594 130.14007813 -159.71679688 129.50390625 C-162.1068257 125.25992984 -164.78441354 121.66047496 -168 118 C-166.6247655 114.7370348 -165.25476426 113.17218145 -162.31640625 111.22265625 C-161.56359375 110.71605469 -160.81078125 110.20945312 -160.03515625 109.6875 C-159.21917969 109.15125 -158.40320313 108.615 -157.5625 108.0625 C-155.82405858 106.89737437 -154.08578182 105.73200301 -152.34765625 104.56640625 C-151.01178467 103.67719482 -151.01178467 103.67719482 -149.64892578 102.77001953 C-145.57540657 100.04808273 -141.53865415 97.27327948 -137.5 94.5 C-135.91686663 93.41637447 -134.3335326 92.33304205 -132.75 91.25 C-131.96625 90.71375 -131.1825 90.1775 -130.375 89.625 C-47.25 32.75 -47.25 32.75 -44.8737793 31.12426758 C-43.29438714 30.04356245 -41.71512229 28.96267124 -40.13598633 27.8815918 C-36.11838953 25.13148814 -32.09846345 22.3848995 -28.07421875 19.64453125 C-18.63229204 13.20953978 -9.26116695 6.69281723 0 0 Z " fill="#FEE400" transform="translate(587,139)"/>
<path d="M0 0 C5.75144115 1.67358926 10.90398772 4.32189789 16.23022461 7.00952148 C17.24754166 7.51883713 18.2648587 8.02815277 19.31300354 8.55290222 C22.67797003 10.23863103 26.04010715 11.92992761 29.40234375 13.62109375 C31.7598502 14.80298639 34.11756543 15.98446265 36.47547913 17.1655426 C42.06283461 19.9649085 47.6483131 22.76799613 53.23297173 25.57273775 C63.16131223 30.55896467 73.09172215 35.54106121 83.02442747 40.51858765 C87.04492484 42.53360828 91.0635698 44.55229117 95.08177185 46.57188416 C108.19506035 53.15358706 121.37644907 59.570842 134.62801552 65.86911201 C142.57206305 69.65658532 150.45262948 73.57492258 158.33349609 77.49169922 C160.39848398 78.51573961 162.46562278 79.53545179 164.53466797 80.55126953 C167.57740302 82.04550769 170.61352947 83.55244109 173.6484375 85.0625 C174.57731781 85.51560547 175.50619812 85.96871094 176.46322632 86.43554688 C177.30986847 86.86029297 178.15651062 87.28503906 179.02880859 87.72265625 C179.77440033 88.09140869 180.51999207 88.46016113 181.28817749 88.84008789 C183 90 183 90 184 93 C182.79123671 95.6803012 181.51783798 98.14308456 180.0625 100.6875 C179.62736084 101.459729 179.19222168 102.23195801 178.74389648 103.02758789 C162.78003896 130.7757837 162.78003896 130.7757837 155 138 C154.46117187 137.59652344 153.92234375 137.19304687 153.3671875 136.77734375 C144.02934319 129.88373142 134.39989406 123.41979321 124.79833984 116.90185547 C120.63000044 114.06889752 116.4707653 111.22271579 112.3125 108.375 C110.75651403 107.30989056 109.20052446 106.24478637 107.64453125 105.1796875 C106.87963379 104.65600586 106.11473633 104.13232422 105.32666016 103.59277344 C101.38497795 100.89439623 97.4424411 98.19726826 93.5 95.5 C91.91666268 94.4166725 90.33332934 93.33333917 88.75 92.25 C87.96625 91.71375 87.1825 91.1775 86.375 90.625 C71.33333333 80.33333333 56.29166667 70.04166667 41.25 59.75 C40.4660083 59.21358887 39.6820166 58.67717773 38.87426758 58.12451172 C37.29335968 57.04282934 35.71246771 55.96112366 34.1315918 54.87939453 C30.1362807 52.14560899 26.14068033 49.41224798 22.14453125 46.6796875 C18.19347041 43.97790007 14.24373918 41.27417651 10.29443359 38.56982422 C8.0062026 37.00424375 5.71609044 35.44144442 3.42578125 33.87890625 C1.99213313 32.89851701 0.55853689 31.91805188 -0.875 30.9375 C-1.52299561 30.49647949 -2.17099121 30.05545898 -2.83862305 29.60107422 C-6.3453635 27.19876402 -9.71487098 24.70429823 -13 22 C-10.89883223 17.43224398 -8.02395626 13.32731978 -5.27734375 9.1328125 C-3.34340876 6.15850984 -1.48433091 3.22680633 0 0 Z " fill="#FEE400" transform="translate(432,380)"/>
</svg>
