<?xml version="1.0" encoding="UTF-8"?>
<svg version="1.1" xmlns="http://www.w3.org/2000/svg" width="512" height="512">
<path d="M0 0 C1.17744704 0.96617645 2.34449458 1.94518669 3.5 2.9375 C4.13808594 3.43378906 4.77617187 3.93007813 5.43359375 4.44140625 C18.26262491 14.81966732 27.96514396 31.73682459 31.09765625 47.97265625 C33.55636311 72.20166077 30.80319129 94.76627182 15.5 114.4375 C14.18723964 115.95553756 12.85479944 117.45685951 11.5 118.9375 C10.90960938 119.61941406 10.31921875 120.30132812 9.7109375 121.00390625 C-2.13712516 133.88552331 -20.35843283 142.80342717 -37.68725586 144.47363281 C-39.03889076 144.60502655 -39.03889076 144.60502655 -40.41783142 144.73907471 C-41.10494705 144.80455505 -41.79206268 144.8700354 -42.5 144.9375 C-42.48428955 146.18362061 -42.4685791 147.42974121 -42.45239258 148.71362305 C-42.39801927 153.34474198 -42.36362289 157.97583278 -42.33520508 162.60717773 C-42.32013535 164.61015572 -42.2996759 166.6131008 -42.27368164 168.6159668 C-42.23721873 171.49796681 -42.22025539 174.37952984 -42.20703125 177.26171875 C-42.19154739 178.15461105 -42.17606354 179.04750336 -42.16011047 179.967453 C-42.15881207 184.7835796 -42.33332843 188.0403912 -45.5 191.9375 C-48.14417414 193.67273928 -49.28465943 193.9375 -52.5 193.9375 C-52.5 201.5275 -52.5 209.1175 -52.5 216.9375 C-50.52 217.5975 -48.54 218.2575 -46.5 218.9375 C-43.43007366 221.76506373 -42.58294385 223.2739492 -42.0625 227.4375 C-42.52705063 231.15390506 -43.17362594 233.02953243 -45.5 235.9375 C-48.14417414 237.67273928 -49.28465943 237.9375 -52.5 237.9375 C-52.5 245.5275 -52.5 253.1175 -52.5 260.9375 C-50.52 261.5975 -48.54 262.2575 -46.5 262.9375 C-43.71317754 265.58077736 -42.62913453 267.16705314 -41.99206543 270.96795654 C-41.98888306 272.09582581 -41.98570068 273.22369507 -41.98242188 274.38574219 C-41.96350891 276.31495514 -41.96350891 276.31495514 -41.94421387 278.28314209 C-41.95138309 279.68355859 -41.95958939 281.08397011 -41.96875 282.484375 C-41.96605027 283.9386623 -41.96216386 285.39294783 -41.95715332 286.847229 C-41.95125833 289.9004428 -41.95980552 292.95318842 -41.97851562 296.00634766 C-42.00106573 299.86956392 -41.98796166 303.73166424 -41.96475601 307.59484005 C-41.82684359 334.58506808 -43.80777388 356.71516973 -63.5859375 377.0859375 C-74.37600742 387.25275429 -89.1715375 395.09267483 -104.2902832 395.05102539 C-105.67114861 395.05091209 -105.67114861 395.05091209 -107.07991028 395.05079651 C-108.55049141 395.04305458 -108.55049141 395.04305458 -110.05078125 395.03515625 C-111.06472458 395.0337413 -112.07866791 395.03232635 -113.12333679 395.03086853 C-116.35308821 395.02528328 -119.58276962 395.01273345 -122.8125 395 C-125.00585837 394.9949831 -127.19921783 394.99042052 -129.39257812 394.98632812 C-134.76174253 394.97531868 -140.13086626 394.9585952 -145.5 394.9375 C-145.49111755 395.76355743 -145.48223511 396.58961487 -145.4730835 397.44070435 C-145.39282334 405.23833404 -145.33197771 413.03582432 -145.29275131 420.83377266 C-145.2719063 424.84248652 -145.24364594 428.85085811 -145.19824219 432.859375 C-145.15467301 436.73029809 -145.13083968 440.60089265 -145.12049103 444.47204208 C-145.1131194 445.94641158 -145.09872408 447.42076378 -145.07707977 448.89499283 C-145.04789643 450.96570459 -145.0440499 453.0350716 -145.04589844 455.10595703 C-145.03701599 456.28288116 -145.02813354 457.4598053 -145.01898193 458.6723938 C-145.6042326 462.64502128 -147.01890825 464.81867427 -149.5 467.9375 C-153.06299677 469.71899839 -156.62715267 469.6834738 -160.5 468.9375 C-163.61272766 467.02913613 -165.99102773 464.57117268 -168.5 461.9375 C-169.83202934 460.60286395 -171.16536649 459.26953189 -172.5 457.9375 C-173.0775 457.339375 -173.655 456.74125 -174.25 456.125 C-176.34655533 454.01572684 -176.34655533 454.01572684 -178.16901016 452.60462284 C-183.29657535 448.44486759 -186.92529897 443.83039531 -190.72568512 438.45723534 C-205.18955898 418.33521854 -222.99453582 397.031239 -248.58213568 392.71493828 C-272.78303399 389.31026294 -297.74019097 390.81556628 -322.05707598 392.04492128 C-333.98079115 392.63841 -345.90882747 392.8983927 -357.84375 393.15429688 C-362.05887742 393.24618565 -366.27394358 393.34031461 -370.48895264 393.43748474 C-371.51053742 393.46098572 -372.53212221 393.4844867 -373.58466411 393.50869983 C-380.54199508 393.6779407 -387.49228391 393.93614977 -394.44512939 394.23500061 C-397.20766844 394.34557682 -399.97026282 394.45465855 -402.73287582 394.56336975 C-405.24619178 394.66973682 -407.75741033 394.80038139 -410.26950073 394.93211365 C-428.22426458 395.72286712 -444.25546383 390.94314812 -457.8125 378.625 C-466.7085597 370.16992431 -473.20042632 361.51717779 -477.5 349.9375 C-477.75473398 349.29211997 -478.00946796 348.64673994 -478.27192116 347.98180294 C-481.70625711 337.73420399 -480.91977226 326.88268182 -480.88818359 316.21508789 C-480.89225295 313.90783948 -480.89759687 311.60059302 -480.90411377 309.29335022 C-480.91775047 303.04954444 -480.91250351 296.80588795 -480.90297651 290.56207967 C-480.89536013 284.01472537 -480.9024311 277.46738351 -480.90713501 270.92002869 C-480.91353465 259.22213249 -480.90363533 247.52429886 -480.888357 235.8264135 C-480.87495842 225.24044333 -480.87728118 214.6545719 -480.89111328 204.06860352 C-480.90720281 191.74937297 -480.91312506 179.4302053 -480.90427649 167.11096567 C-480.89961056 160.59937988 -480.89894533 154.08786196 -480.90888596 147.57628059 C-480.91758252 141.45222045 -480.9114845 135.32834585 -480.89420319 129.20430565 C-480.89025254 126.96304761 -480.89134787 124.72177383 -480.89799118 122.48052216 C-480.95972533 99.52873435 -476.89598045 81.73786193 -460.4140625 64.79296875 C-449.42534008 54.41913874 -434.58188414 46.80799942 -419.23078442 46.81445217 C-418.18277729 46.81246112 -417.13477017 46.81047007 -416.05500525 46.80841869 C-414.91006687 46.81133153 -413.76512848 46.81424437 -412.585495 46.81724548 C-411.36432427 46.81639106 -410.14315354 46.81553663 -408.88497764 46.81465632 C-405.49858382 46.81329393 -402.11224778 46.81641949 -398.72586095 46.82143438 C-395.07288132 46.82575248 -391.41990347 46.82429149 -387.766922 46.8235321 C-381.43893193 46.82300773 -375.11095218 46.82614548 -368.78296471 46.83176994 C-359.63375533 46.83989668 -350.48455093 46.84250137 -341.33533833 46.84375793 C-326.49137833 46.8459466 -311.64742382 46.85260169 -296.8034668 46.86206055 C-282.38387072 46.87123944 -267.96427614 46.87831794 -253.54467773 46.88256836 C-252.65586667 46.88283108 -251.7670556 46.88309381 -250.85131087 46.88336449 C-246.39241082 46.88466953 -241.93351076 46.88593324 -237.47461069 46.88717639 C-200.48306991 46.89754325 -163.49153538 46.91515656 -126.5 46.9375 C-126.30093048 46.11588882 -126.10186096 45.29427765 -125.89675903 44.44776917 C-125.63192719 43.36873825 -125.36709534 42.28970734 -125.09423828 41.17797852 C-124.83329376 40.10886734 -124.57234924 39.03975616 -124.30349731 37.93824768 C-121.40187132 27.10181136 -114.96426689 18.13253428 -107.5 9.9375 C-106.57960938 8.87789062 -106.57960938 8.87789062 -105.640625 7.796875 C-78.76506149 -21.37574522 -31.11617938 -22.71298417 0 0 Z " fill="#FDFDFD" transform="translate(480.5,29.0625)"/>
<path d="M0 0 C1.17744704 0.96617645 2.34449458 1.94518669 3.5 2.9375 C4.13808594 3.43378906 4.77617187 3.93007813 5.43359375 4.44140625 C18.26262491 14.81966732 27.96514396 31.73682459 31.09765625 47.97265625 C33.55636311 72.20166077 30.80319129 94.76627182 15.5 114.4375 C14.18723964 115.95553756 12.85479944 117.45685951 11.5 118.9375 C10.90960938 119.61941406 10.31921875 120.30132812 9.7109375 121.00390625 C-2.13712516 133.88552331 -20.35843283 142.80342717 -37.68725586 144.47363281 C-39.03889076 144.60502655 -39.03889076 144.60502655 -40.41783142 144.73907471 C-41.10494705 144.80455505 -41.79206268 144.8700354 -42.5 144.9375 C-42.48428955 146.18362061 -42.4685791 147.42974121 -42.45239258 148.71362305 C-42.39801927 153.34474198 -42.36362289 157.97583278 -42.33520508 162.60717773 C-42.32013535 164.61015572 -42.2996759 166.6131008 -42.27368164 168.6159668 C-42.23721873 171.49796681 -42.22025539 174.37952984 -42.20703125 177.26171875 C-42.19154739 178.15461105 -42.17606354 179.04750336 -42.16011047 179.967453 C-42.15881026 184.79028121 -42.34472787 188.02588987 -45.5 191.9375 C-48.71855225 194.26817577 -51.60490526 194.40491137 -55.5 193.9375 C-61.07894737 190.77960526 -61.07894737 190.77960526 -62.5 187.9375 C-62.58949417 186.48712893 -62.6175844 185.03271371 -62.61352539 183.57958984 C-62.61344986 182.67880707 -62.61337433 181.77802429 -62.61329651 180.84994507 C-62.60813522 179.87594757 -62.60297394 178.90195007 -62.59765625 177.8984375 C-62.59553383 176.40444931 -62.59553383 176.40444931 -62.59336853 174.88027954 C-62.58775936 171.69098947 -62.5752053 168.50176894 -62.5625 165.3125 C-62.55748618 163.15364685 -62.55292307 160.99479259 -62.54882812 158.8359375 C-62.53778695 153.5364345 -62.52103988 148.23697222 -62.5 142.9375 C-63.25604019 142.8048172 -64.01208038 142.6721344 -64.79103088 142.53543091 C-65.78239548 142.35889984 -66.77376007 142.18236877 -67.79516602 142.00048828 C-68.77808121 141.82655548 -69.7609964 141.65262268 -70.7736969 141.47341919 C-89.2232491 137.84672447 -105.02760847 123.75082933 -115.23828125 108.56640625 C-122.26761224 97.61331853 -127.57282225 84.86633887 -127.51953125 71.74609375 C-127.51530151 70.39535767 -127.51530151 70.39535767 -127.51098633 69.01733398 C-127.50736084 68.33098877 -127.50373535 67.64464355 -127.5 66.9375 C-164.74965658 66.97351612 -201.99922523 67.03048194 -239.24880351 67.11542095 C-243.64959263 67.12543803 -248.05038213 67.13528223 -252.45117188 67.14501953 C-253.7653114 67.14793159 -253.7653114 67.14793159 -255.1059992 67.15090248 C-269.27898116 67.18189703 -283.45194694 67.19889602 -297.6249564 67.21069422 C-312.17510008 67.22311898 -326.72515905 67.25065026 -341.27524924 67.29211307 C-350.24855515 67.31721058 -359.22172051 67.33062002 -368.19506201 67.32892957 C-374.35407488 67.32889975 -380.51294491 67.34358508 -386.67190209 67.36966428 C-390.22174516 67.38426656 -393.77129533 67.39255105 -397.32116318 67.38330269 C-401.17948621 67.37342137 -405.03729988 67.39461533 -408.89556885 67.41851807 C-410.5590459 67.40687744 -410.5590459 67.40687744 -412.25612855 67.39500165 C-423.86145291 67.52176845 -433.28872585 70.95982139 -442.5 77.9375 C-443.510625 78.618125 -444.52125 79.29875 -445.5625 80 C-453.38580798 86.77437283 -458.59653112 98.1465259 -459.77898312 108.34328318 C-459.88787127 110.81325113 -459.90986322 113.26726234 -459.89440918 115.73956299 C-459.90050028 116.67336281 -459.90659139 117.60716262 -459.91286707 118.56925941 C-459.92939683 121.67032321 -459.9247356 124.77097188 -459.91992188 127.87207031 C-459.92726808 130.10696333 -459.93585591 132.34185255 -459.94558716 134.57673645 C-459.96775529 140.62857795 -459.97073613 146.68028309 -459.96883965 152.73215961 C-459.96871971 157.79396762 -459.97729335 162.85574698 -459.98561716 167.91754699 C-460.00593239 180.54814066 -460.00700769 193.17864994 -459.99981004 205.8092477 C-459.9942387 216.750313 -460.01504843 227.69114384 -460.04817051 238.63215438 C-460.0819972 249.89425761 -460.09659126 261.15625208 -460.09245348 272.41841769 C-460.09039102 278.73005896 -460.09578755 285.04146674 -460.12034607 291.35306549 C-460.14269417 297.29253665 -460.14066802 303.23152185 -460.12041855 309.17099571 C-460.11702263 311.34207987 -460.12203587 313.51319725 -460.13640213 315.68423653 C-460.24476079 333.28365423 -458.12703804 347.41337433 -445.6953125 360.89453125 C-436.68281896 369.47696804 -424.78903953 374.26894836 -412.40953064 374.1890564 C-411.23084619 374.1935116 -411.23084619 374.1935116 -410.02834994 374.19805682 C-407.4106702 374.20565985 -404.79321729 374.19921812 -402.17553711 374.19287109 C-400.2926366 374.19562266 -398.40973726 374.19930356 -396.52684021 374.20384216 C-392.4797655 374.21193995 -388.432746 374.21412623 -384.38566399 374.21189499 C-377.98586906 374.20905833 -371.58618421 374.22342612 -365.18641663 374.24087524 C-346.99074952 374.28787148 -328.79509036 374.31184971 -310.59936523 374.31835938 C-300.54423931 374.32210848 -290.48923836 374.34012292 -280.43416601 374.37345374 C-274.07240686 374.39367902 -267.71096977 374.39603285 -261.34919155 374.38517356 C-257.39260535 374.38256798 -253.43620708 374.39656248 -249.47966957 374.41525459 C-247.64548807 374.42058025 -245.81127205 374.41907342 -243.97710419 374.41021919 C-241.47211478 374.39910199 -238.96839744 374.41252384 -236.46348572 374.43197632 C-235.73867553 374.42285166 -235.01386535 374.413727 -234.26709121 374.40432584 C-226.9679009 374.51454283 -222.82312367 378.35392905 -217.90673828 383.31958008 C-217.05209991 384.1775972 -216.19746155 385.03561432 -215.31692505 385.91963196 C-214.41054291 386.83947372 -213.50416077 387.75931549 -212.5703125 388.70703125 C-211.61207903 389.67154961 -210.6533189 390.635545 -209.69406128 391.5990448 C-207.1776047 394.1287464 -204.6667815 396.66395822 -202.15759277 399.2008667 C-198.15115816 403.25054081 -194.13801644 407.29353678 -190.12139511 411.33310509 C-188.73211395 412.73246287 -187.3464895 414.13544806 -185.96096802 415.53852844 C-181.5059254 420.02736599 -177.00523439 424.37481042 -172.18453979 428.4707489 C-170.54767838 429.89598581 -169.01565068 431.38491798 -167.5 432.9375 C-167.49786247 431.99908768 -167.49786247 431.99908768 -167.49568176 431.04171753 C-167.47596838 424.51988088 -167.42165916 417.9989781 -167.34741211 411.47753906 C-167.32424035 409.04499007 -167.30983836 406.61234087 -167.30444336 404.1796875 C-167.29514837 400.67905282 -167.25414187 397.1799926 -167.20703125 393.6796875 C-167.2109639 392.59509247 -167.21489655 391.51049744 -167.21894836 390.39303589 C-167.0564445 381.9497502 -167.0564445 381.9497502 -164.08081055 378.26611328 C-160.60245265 375.12766114 -159.07354836 374.81207865 -154.50634766 374.77978516 C-152.94299179 374.76439194 -152.94299179 374.76439194 -151.34805298 374.74868774 C-150.21483612 374.74138641 -149.08161926 374.73408508 -147.9140625 374.7265625 C-145.5143164 374.69846757 -143.11457692 374.66980297 -140.71484375 374.640625 C-136.93213268 374.5995564 -133.14954159 374.56267218 -129.36669922 374.53613281 C-125.71555928 374.50829449 -122.06498138 374.46239401 -118.4140625 374.4140625 C-117.30108795 374.41080963 -116.1881134 374.40755676 -115.04141235 374.40420532 C-100.69936264 374.18292929 -86.88478037 370.32228037 -76.5 359.9375 C-68.27287015 350.10192005 -63.37930095 338.33889083 -63.37402344 325.48242188 C-63.36831329 323.55517273 -63.36831329 323.55517273 -63.36248779 321.58898926 C-63.36229393 320.90752335 -63.36210007 320.22605743 -63.36190033 319.52394104 C-63.3584644 316.64263834 -63.33708242 313.76155723 -63.31666946 310.88033295 C-63.27873752 305.52386862 -63.24738861 300.16764947 -63.24951172 294.81103516 C-63.25029931 291.0766849 -63.22692466 287.34315896 -63.1876297 283.60902405 C-63.17718226 282.18974006 -63.17563654 280.77036081 -63.18328094 279.35105896 C-63.19291576 277.36487791 -63.16892895 275.37862046 -63.14355469 273.39257812 C-63.13990906 272.26404419 -63.13626343 271.13551025 -63.13250732 269.97277832 C-62.29752644 265.96586918 -60.64658123 264.47383735 -57.5 261.9375 C-53.58702676 260.81950765 -51.50708715 260.50262146 -47.75 262.125 C-44.47363829 264.76429138 -42.68160209 266.57426561 -42.11231995 270.84770203 C-42.10421547 272.54283684 -42.10421547 272.54283684 -42.09594727 274.2722168 C-42.07692101 276.20154305 -42.07692101 276.20154305 -42.05751038 278.16984558 C-42.05956457 279.5754716 -42.06255488 280.98109651 -42.06640625 282.38671875 C-42.06183836 283.84243512 -42.05653099 285.29814934 -42.05052185 286.75386047 C-42.04158136 289.81296504 -42.04401607 292.87180886 -42.05395508 295.9309082 C-42.06307587 299.03730403 -42.0564004 302.14294392 -42.03344727 305.24926758 C-41.82916374 333.01166228 -43.13988702 356.02727128 -63.5859375 377.0859375 C-74.37600742 387.25275429 -89.1715375 395.09267483 -104.2902832 395.05102539 C-105.67114861 395.05091209 -105.67114861 395.05091209 -107.07991028 395.05079651 C-108.55049141 395.04305458 -108.55049141 395.04305458 -110.05078125 395.03515625 C-111.06472458 395.0337413 -112.07866791 395.03232635 -113.12333679 395.03086853 C-116.35308821 395.02528328 -119.58276962 395.01273345 -122.8125 395 C-125.00585837 394.9949831 -127.19921783 394.99042052 -129.39257812 394.98632812 C-134.76174253 394.97531868 -140.13086626 394.9585952 -145.5 394.9375 C-145.49111755 395.76355743 -145.48223511 396.58961487 -145.4730835 397.44070435 C-145.39282334 405.23833404 -145.33197771 413.03582432 -145.29275131 420.83377266 C-145.2719063 424.84248652 -145.24364594 428.85085811 -145.19824219 432.859375 C-145.15467301 436.73029809 -145.13083968 440.60089265 -145.12049103 444.47204208 C-145.1131194 445.94641158 -145.09872408 447.42076378 -145.07707977 448.89499283 C-145.04789643 450.96570459 -145.0440499 453.0350716 -145.04589844 455.10595703 C-145.03701599 456.28288116 -145.02813354 457.4598053 -145.01898193 458.6723938 C-145.6042326 462.64502128 -147.01890825 464.81867427 -149.5 467.9375 C-153.06299677 469.71899839 -156.62715267 469.6834738 -160.5 468.9375 C-163.61272766 467.02913613 -165.99102773 464.57117268 -168.5 461.9375 C-169.83202934 460.60286395 -171.16536649 459.26953189 -172.5 457.9375 C-173.0775 457.339375 -173.655 456.74125 -174.25 456.125 C-176.34655533 454.01572684 -176.34655533 454.01572684 -178.16901016 452.60462284 C-183.29657535 448.44486759 -186.92529897 443.83039531 -190.72568512 438.45723534 C-205.18955898 418.33521854 -222.99453582 397.031239 -248.58213568 392.71493828 C-272.78303399 389.31026294 -297.74019097 390.81556628 -322.05707598 392.04492128 C-333.98079115 392.63841 -345.90882747 392.8983927 -357.84375 393.15429688 C-362.05887742 393.24618565 -366.27394358 393.34031461 -370.48895264 393.43748474 C-371.51053742 393.46098572 -372.53212221 393.4844867 -373.58466411 393.50869983 C-380.54199508 393.6779407 -387.49228391 393.93614977 -394.44512939 394.23500061 C-397.20766844 394.34557682 -399.97026282 394.45465855 -402.73287582 394.56336975 C-405.24619178 394.66973682 -407.75741033 394.80038139 -410.26950073 394.93211365 C-428.22426458 395.72286712 -444.25546383 390.94314812 -457.8125 378.625 C-466.7085597 370.16992431 -473.20042632 361.51717779 -477.5 349.9375 C-477.75473398 349.29211997 -478.00946796 348.64673994 -478.27192116 347.98180294 C-481.70625711 337.73420399 -480.91977226 326.88268182 -480.88818359 316.21508789 C-480.89225295 313.90783948 -480.89759687 311.60059302 -480.90411377 309.29335022 C-480.91775047 303.04954444 -480.91250351 296.80588795 -480.90297651 290.56207967 C-480.89536013 284.01472537 -480.9024311 277.46738351 -480.90713501 270.92002869 C-480.91353465 259.22213249 -480.90363533 247.52429886 -480.888357 235.8264135 C-480.87495842 225.24044333 -480.87728118 214.6545719 -480.89111328 204.06860352 C-480.90720281 191.74937297 -480.91312506 179.4302053 -480.90427649 167.11096567 C-480.89961056 160.59937988 -480.89894533 154.08786196 -480.90888596 147.57628059 C-480.91758252 141.45222045 -480.9114845 135.32834585 -480.89420319 129.20430565 C-480.89025254 126.96304761 -480.89134787 124.72177383 -480.89799118 122.48052216 C-480.95972533 99.52873435 -476.89598045 81.73786193 -460.4140625 64.79296875 C-449.42534008 54.41913874 -434.58188414 46.80799942 -419.23078442 46.81445217 C-418.18277729 46.81246112 -417.13477017 46.81047007 -416.05500525 46.80841869 C-414.91006687 46.81133153 -413.76512848 46.81424437 -412.585495 46.81724548 C-411.36432427 46.81639106 -410.14315354 46.81553663 -408.88497764 46.81465632 C-405.49858382 46.81329393 -402.11224778 46.81641949 -398.72586095 46.82143438 C-395.07288132 46.82575248 -391.41990347 46.82429149 -387.766922 46.8235321 C-381.43893193 46.82300773 -375.11095218 46.82614548 -368.78296471 46.83176994 C-359.63375533 46.83989668 -350.48455093 46.84250137 -341.33533833 46.84375793 C-326.49137833 46.8459466 -311.64742382 46.85260169 -296.8034668 46.86206055 C-282.38387072 46.87123944 -267.96427614 46.87831794 -253.54467773 46.88256836 C-252.65586667 46.88283108 -251.7670556 46.88309381 -250.85131087 46.88336449 C-246.39241082 46.88466953 -241.93351076 46.88593324 -237.47461069 46.88717639 C-200.48306991 46.89754325 -163.49153538 46.91515656 -126.5 46.9375 C-126.30093048 46.11588882 -126.10186096 45.29427765 -125.89675903 44.44776917 C-125.63192719 43.36873825 -125.36709534 42.28970734 -125.09423828 41.17797852 C-124.83329376 40.10886734 -124.57234924 39.03975616 -124.30349731 37.93824768 C-121.40187132 27.10181136 -114.96426689 18.13253428 -107.5 9.9375 C-106.57960938 8.87789062 -106.57960938 8.87789062 -105.640625 7.796875 C-78.76506149 -21.37574522 -31.11617938 -22.71298417 0 0 Z " fill="#000000" transform="translate(480.5,29.0625)"/>
<path d="M0 0 C2.47715252 2.1763289 4.80677527 4.42627905 7.10546875 6.7890625 C7.65460938 7.30597656 8.20375 7.82289062 8.76953125 8.35546875 C16.36110928 16.12973181 22.3392723 28.99568641 23.10546875 39.7890625 C23.22535156 41.35140625 23.22535156 41.35140625 23.34765625 42.9453125 C23.98017434 59.46519663 19.0185783 75.68235621 7.91796875 88.1015625 C2.89966236 93.42006583 -2.40868181 97.42634637 -8.89453125 100.7890625 C-9.93351562 101.36785156 -10.9725 101.94664062 -12.04296875 102.54296875 C-25.46393724 109.04233664 -42.65423156 109.39534961 -56.76953125 104.7265625 C-58.84336992 103.81751722 -60.88945433 102.84112556 -62.89453125 101.7890625 C-63.84972656 101.29277344 -64.80492187 100.79648438 -65.7890625 100.28515625 C-80.0665267 91.99823647 -90.80253321 78.76060109 -95.23046875 62.80078125 C-98.61134243 45.50000315 -96.44408887 29.29733358 -87.08203125 14.4140625 C-77.49113243 0.94028114 -64.34402437 -8.3926087 -47.94921875 -11.828125 C-30.71970194 -13.98732276 -13.99789481 -10.69204921 0 0 Z " fill="#FC7B93" transform="translate(468.89453125,46.2109375)"/>
<path d="M0 0 C3.33501959 1.4386359 5.42083664 2.60788865 6.85400391 6.05273438 C8.64243939 12.36006066 10.02332889 18.67449549 11.1875 25.125 C11.36474609 26.08148438 11.54199219 27.03796875 11.72460938 28.0234375 C12.15467181 30.34809932 12.57972405 32.67355267 13 35 C13.16081055 34.41621582 13.32162109 33.83243164 13.48730469 33.23095703 C14.23567808 30.52731137 14.99279456 27.8261848 15.75 25.125 C16.00265625 24.2071875 16.2553125 23.289375 16.515625 22.34375 C21.06375035 6.19790501 21.06375035 6.19790501 25.3125 1.375 C28.85811639 -0.43903629 31.06463348 -0.56219522 35 0 C39.37385911 2.80700409 40.89551672 5.29955628 42.5 10.1875 C42.90605469 11.41082031 43.31210937 12.63414062 43.73046875 13.89453125 C45.92130983 20.9000678 47.99148092 27.94026909 50 35 C50.13051758 34.21351074 50.26103516 33.42702148 50.39550781 32.61669922 C50.99879214 29.03344386 51.62415726 25.45438129 52.25 21.875 C52.45496094 20.6375 52.65992188 19.4 52.87109375 18.125 C54.92141419 6.56864845 54.92141419 6.56864845 59 2 C62.53430656 -0.35620437 63.83571287 -0.48991613 68 0 C73.57894737 3.15789474 73.57894737 3.15789474 75 6 C75.78423768 14.06359857 74.12597911 21.81061131 72.515625 29.671875 C72.25875916 30.95306213 72.00189331 32.23424927 71.73724365 33.55426025 C71.19561829 36.24832089 70.64671298 38.94076971 70.09277344 41.63232422 C69.38663495 45.06760633 68.70165194 48.50672486 68.02234268 51.94739914 C67.36592648 55.25395463 66.68972388 58.55637905 66.015625 61.859375 C65.65286469 63.70169708 65.65286469 63.70169708 65.28277588 65.58123779 C62.63804768 78.24010176 62.63804768 78.24010176 57.1875 82.375 C52.47524062 83.72135982 49.21950332 83.6585318 44.875 81.3125 C37.83812487 74.59293754 36.018041 61.9485581 33.61108398 52.8293457 C32.89445141 49.11489442 32.89445141 49.11489442 31 46 C30.69707031 46.98097656 30.39414062 47.96195312 30.08203125 48.97265625 C28.96952827 52.56631002 27.83857845 56.15397957 26.70556641 59.74121094 C26.0316686 61.89861665 25.37936748 64.06153096 24.73046875 66.2265625 C24.32095226 67.54707357 23.91082128 68.86739428 23.5 70.1875 C23.1390625 71.37730469 22.778125 72.56710937 22.40625 73.79296875 C20.82275673 77.40421312 18.92853877 79.39949561 16 82 C15.67 82.33 15.34 82.66 15 83 C10.17777283 83.49039598 7.94956363 83.53748885 3.6875 81.125 C-3.30214617 74.2777139 -3.72390764 60.04023331 -5.53442383 50.81494141 C-6.06008691 48.1372919 -6.59288573 45.46114082 -7.12695312 42.78515625 C-8.75642705 34.58034976 -10.34295988 26.38436687 -11.60327148 18.11279297 C-11.90854686 15.95418443 -11.90854686 15.95418443 -13 14 C-13.67660495 8.13609041 -13.67660495 8.13609041 -11.953125 5.2421875 C-8.17644664 0.6435262 -5.90599746 -0.56788437 0 0 Z " fill="#030303" transform="translate(227,271)"/>
<path d="M0 0 C4.81467751 2.69193263 6.87847996 4.81490245 8.8828125 9.93359375 C9.24332199 10.83530556 9.24332199 10.83530556 9.6111145 11.75523376 C10.43049066 13.82862535 11.21684118 15.91267139 12 18 C12.44539124 19.16779999 12.44539124 19.16779999 12.89978027 20.35919189 C15.27039831 26.57696242 17.57733889 32.81747679 19.875 39.0625 C20.88796138 41.80733786 21.90198888 44.5517753 22.91729736 47.29574585 C23.59068986 49.11786793 24.26188421 50.94080392 24.93084717 52.76455688 C26.65483369 57.44794722 28.42803269 62.10347706 30.29003906 66.73388672 C30.6613797 67.66905624 31.03272034 68.60422577 31.41531372 69.56773376 C32.1202949 71.33638993 32.83729153 73.10032617 33.56881714 74.85816956 C35.71684752 80.28011392 36.80081261 85.15410511 36 91 C34.5625 94 34.5625 94 32 96 C28.94190459 96.96421292 26.18197714 97.47756487 23 97 C18.44655399 94.22566987 16.94668792 91.32306506 15.1875 86.375 C14.55908203 84.65410156 14.55908203 84.65410156 13.91796875 82.8984375 C13 80 13 80 13 78 C1.78 78 -9.44 78 -21 78 C-21.33 79.65 -21.66 81.3 -22 83 C-22.58152443 84.72361745 -23.20745063 86.43283996 -23.875 88.125 C-24.20242187 88.97320312 -24.52984375 89.82140625 -24.8671875 90.6953125 C-26.0272322 93.05540343 -26.91722426 94.40816425 -29 96 C-31.9919179 96.9356747 -34.87393122 97.19743592 -38 97 C-40.92143417 95.23496686 -42.47923817 94.04152365 -44 91 C-44.65626801 84.70343949 -43.58335765 79.64620204 -41.2109375 73.85546875 C-40.91582275 73.09949402 -40.62070801 72.34351929 -40.31665039 71.56463623 C-39.350536 69.09961456 -38.36329145 66.64370454 -37.375 64.1875 C-36.69476852 62.46806583 -36.01591414 60.74808628 -35.33837891 59.02758789 C-34.2899791 56.36774847 -33.23979049 53.70870521 -32.18319702 51.05210876 C-29.751398 44.93626497 -27.3882027 38.79751717 -25.0625 32.640625 C-24.13192412 30.19131466 -23.20032644 27.74239556 -22.26837158 25.29360962 C-21.67727174 23.73468829 -21.08960957 22.17445874 -20.5055542 20.61288452 C-19.68913455 18.43418836 -18.85801143 16.26163853 -18.0234375 14.08984375 C-17.55856934 12.86128662 -17.09370117 11.63272949 -16.61474609 10.36694336 C-13.06483311 2.96494004 -8.74033984 -1.64258111 0 0 Z " fill="#020202" transform="translate(178,151)"/>
<path d="M0 0 C6.33434387 3.48611431 9.84726606 9.97202515 13.6171875 15.87695312 C16.66414005 20.55497208 19.84710683 25.14305974 23 29.75 C24.33344992 31.70304541 25.66679198 33.65616446 27 35.609375 C27.99991336 37.07297586 28.99987869 38.53654123 30 40 C29.99830811 38.44889526 29.99830811 38.44889526 29.99658203 36.86645508 C30.00026246 33.01743153 30.04313583 29.16965643 30.09765625 25.32104492 C30.11578695 23.65771543 30.12339004 21.99423563 30.12011719 20.33081055 C30.1172513 17.93420827 30.1526477 15.54070338 30.1953125 13.14453125 C30.18621857 12.4047554 30.17712463 11.66497955 30.16775513 10.90278625 C30.24856145 8.01062263 30.43787074 5.68991281 32.30422974 3.39929199 C34.5736964 1.43526616 36.43760161 0.10374339 39.4140625 -0.4453125 C43.51413325 0.14869068 45.44415755 0.45805361 48.5 3.4375 C50.84028704 7.43549037 51.14144683 9.61296757 51.19287109 14.28222656 C51.20513733 15.24844185 51.20513733 15.24844185 51.21765137 16.23417664 C51.24249777 18.36964999 51.25902122 20.5050568 51.2734375 22.640625 C51.27876118 23.37048363 51.28408485 24.10034225 51.28956985 24.85231781 C51.316301 28.71712697 51.33567402 32.58190387 51.35009766 36.44677734 C51.36342724 39.64205618 51.39126008 42.83669491 51.43212891 46.03173828 C51.48150716 49.89205773 51.5062251 53.75179735 51.51332474 57.61241913 C51.52002852 59.08121823 51.53522817 60.55000484 51.55921555 62.01862335 C51.75843086 74.95600605 51.75843086 74.95600605 48.59228516 78.88574219 C44.95336257 81.85363347 42.85616043 82.16280725 38.16796875 82.42578125 C32.45255137 81.30329387 29.49490266 76.16140287 26.4440918 71.65161133 C25.9056665 70.83845459 25.36724121 70.02529785 24.8125 69.1875 C24.25022705 68.35178467 23.6879541 67.51606934 23.10864258 66.6550293 C21.3979536 64.10847673 19.6982647 61.55484994 18 59 C16.97707878 57.47100864 15.95366937 55.94234373 14.9296875 54.4140625 C12.60931719 50.94961467 10.30388188 47.47542659 8 44 C7.98541748 44.91289795 7.97083496 45.8257959 7.95581055 46.76635742 C7.89459205 50.16798611 7.82041127 53.56882681 7.73754883 56.9699707 C7.70438741 58.43926422 7.67632822 59.90868244 7.65356445 61.37817383 C7.61985481 63.49614368 7.56753567 65.61297995 7.51171875 67.73046875 C7.48553467 69.00301514 7.45935059 70.27556152 7.43237305 71.58666992 C6.86649015 76.05398147 5.33781048 78.66218952 2.1875 81.8125 C-0.77565641 83.42107062 -2.66759369 83.40804975 -6 83 C-9.7888015 81.2778175 -11.53186504 79.86978191 -13 76 C-13.27415466 72.89515686 -13.27415466 72.89515686 -13.30639648 69.19946289 C-13.31472 68.52416031 -13.32304352 67.84885773 -13.33161926 67.15309143 C-13.35566638 64.92622066 -13.36448394 62.69964298 -13.37109375 60.47265625 C-13.38006292 58.92093316 -13.38918482 57.36921095 -13.39845276 55.81748962 C-13.41493005 52.566863 -13.42264077 49.31633923 -13.42553711 46.06567383 C-13.43092499 41.90470438 -13.46862575 37.74470387 -13.51428127 33.58400822 C-13.54405142 30.37976057 -13.55126061 27.17574652 -13.55226326 23.9713726 C-13.55646439 22.43757112 -13.5688946 20.90376886 -13.58978081 19.37010384 C-13.61670235 17.22265782 -13.61187102 15.0774614 -13.59936523 12.92993164 C-13.60443588 11.70955704 -13.60950653 10.48918243 -13.61473083 9.23182678 C-12.82838017 5.09774239 -11.20169009 3.63478569 -8 1 C-5.04206277 -0.47896861 -3.29779776 -0.4355582 0 0 Z " fill="#030303" transform="translate(80,271)"/>
<path d="M0 0 C1.12535156 -0.05994141 1.12535156 -0.05994141 2.2734375 -0.12109375 C6.04344612 0.77443986 7.35969931 2.31537574 9.625 5.4375 C10.35929559 8.87510478 10.41519698 12.24347005 10.4375 15.75 C10.46263672 16.68134766 10.48777344 17.61269531 10.51367188 18.57226562 C10.57235998 20.86110186 10.60877168 23.14803426 10.625 25.4375 C11.05208252 25.03023682 11.47916504 24.62297363 11.91918945 24.20336914 C16.78434539 19.57458234 21.69113196 14.99292126 26.625 10.4375 C27.47070557 9.64859375 27.47070557 9.64859375 28.33349609 8.84375 C36.87826637 0.94867833 36.87826637 0.94867833 42 0.625 C45.94831384 1.50996689 47.82455459 2.55219261 50.625 5.4375 C52.09107074 8.36964148 51.90925091 10.64567022 51.515625 13.8671875 C49.63980923 19.28072599 44.83773859 22.76754471 40.625 26.4375 C39.98175781 27.00855469 39.33851563 27.57960937 38.67578125 28.16796875 C37.45049882 29.24440993 36.2184283 30.31316253 34.98046875 31.375 C31.66487728 34.27820447 28.42488581 37.26010703 25.1875 40.25 C24.5594043 40.82596924 23.93130859 41.40193848 23.28417969 41.99536133 C22.69668945 42.5395874 22.10919922 43.08381348 21.50390625 43.64453125 C20.9735376 44.1341333 20.44316895 44.62373535 19.89672852 45.12817383 C18.50139105 46.43273754 18.50139105 46.43273754 17.625 48.4375 C18.1730127 48.65881592 18.72102539 48.88013184 19.28564453 49.1081543 C22.35302817 50.85120417 24.61607627 53.2008143 27.0546875 55.70703125 C27.56750275 56.22504807 28.08031799 56.74306488 28.6086731 57.27677917 C30.24395874 58.92982177 31.87240348 60.58938886 33.5 62.25 C35.12126933 63.89905562 36.74403382 65.54656533 38.36990356 67.19108582 C39.37901953 68.212275 40.38545447 69.23612348 41.38864136 70.26313782 C43.78253863 72.69050372 46.22717251 74.98179208 48.85986328 77.14331055 C51.68917973 79.49074889 53.24860006 81.0369825 54.625 84.4375 C54.625 88.74719005 54.06980711 90.83570214 51.5 94.3125 C47.90530786 96.96944636 46.10917064 97.66550868 41.625 97.4375 C34.50327657 93.48663203 28.87162912 86.88283599 23.25 81.125 C21.47355426 79.31424522 19.695017 77.50553916 17.9140625 75.69921875 C17.13756348 74.90475342 16.36106445 74.11028809 15.56103516 73.29174805 C13.75547712 71.37953516 13.75547712 71.37953516 11.625 70.4375 C11.625 69.7775 11.625 69.1175 11.625 68.4375 C10.965 68.4375 10.305 68.4375 9.625 68.4375 C9.66427612 69.4433313 9.66427612 69.4433313 9.7043457 70.46948242 C9.80857238 73.52108128 9.87340623 76.57230542 9.9375 79.625 C9.97939453 80.68009766 10.02128906 81.73519531 10.06445312 82.82226562 C10.18811612 90.66249951 10.18811612 90.66249951 7.3203125 94.609375 C3.89552213 96.93227629 1.76738667 97.51017345 -2.375 97.4375 C-6.39643942 95.38884218 -8.8379723 93.6897693 -10.375 89.4375 C-10.57043646 86.76836526 -10.65853821 84.20406027 -10.6496582 81.53540039 C-10.6573246 80.34688225 -10.6573246 80.34688225 -10.66514587 79.13435364 C-10.67903402 76.51787745 -10.67808573 73.90166489 -10.67578125 71.28515625 C-10.67966857 69.46439008 -10.68400331 67.64362481 -10.68876648 65.82286072 C-10.69622698 62.00728414 -10.69593861 58.19180009 -10.69067383 54.3762207 C-10.68487895 49.48910838 -10.7018114 44.60237502 -10.7250185 39.71532536 C-10.73975743 35.95521331 -10.74062733 32.1951925 -10.73750877 28.43505669 C-10.73802189 26.63334846 -10.74325784 24.83163511 -10.75332069 23.02995491 C-10.76567114 20.50938484 -10.75890209 17.98955259 -10.74731445 15.46899414 C-10.75495819 14.72649414 -10.76260193 13.98399414 -10.77047729 13.21899414 C-10.72543771 8.78167353 -10.12938855 5.95122873 -7.375 2.4375 C-4.35292605 0.42278403 -3.45773301 0.10030966 0 0 Z " fill="#040404" transform="translate(237.375,149.5625)"/>
<path d="M0 0 C1.89237801 -0.01652449 3.78469451 -0.04376811 5.67675781 -0.08203125 C8.40600958 -0.13695538 11.13379444 -0.15870086 13.86352539 -0.17333984 C14.7043718 -0.19600922 15.5452182 -0.21867859 16.4115448 -0.24203491 C20.62956572 -0.22695428 23.34309686 0.05268949 26.69799805 2.74023438 C29.16430664 5.35009766 29.16430664 5.35009766 29.92602539 7.63134766 C29.78033299 11.98678368 29.59000207 13.81237712 26.78930664 17.35009766 C23.00015785 20.23706817 21.21493602 20.47156548 16.50024414 20.44775391 C15.37875977 20.44453125 14.25727539 20.44130859 13.10180664 20.43798828 C11.92618164 20.42960937 10.75055664 20.42123047 9.53930664 20.41259766 C8.35594727 20.40808594 7.17258789 20.40357422 5.95336914 20.39892578 C3.02366025 20.38711244 0.09397723 20.36917655 -2.83569336 20.35009766 C-2.83569336 26.29009766 -2.83569336 32.23009766 -2.83569336 38.35009766 C-1.30557617 38.31529297 0.22454102 38.28048828 1.80102539 38.24462891 C3.81794148 38.21648589 5.83486946 38.18918628 7.85180664 38.16259766 C9.36291016 38.12489258 9.36291016 38.12489258 10.90454102 38.08642578 C17.44870483 38.02163208 21.01149077 38.61765724 26.03930664 42.97509766 C27.55975174 46.1849262 27.26319012 48.64701532 26.97680664 52.13134766 C25.6958422 55.62936594 24.47410666 56.5601449 21.16430664 58.35009766 C17.04807572 58.83391543 12.98888823 58.72583012 8.85180664 58.60009766 C7.72967773 58.58205078 6.60754883 58.56400391 5.45141602 58.54541016 C2.68867932 58.49838485 -0.07361698 58.42664481 -2.83569336 58.35009766 C-2.83569336 64.62009766 -2.83569336 70.89009766 -2.83569336 77.35009766 C-0.12479492 77.26308594 -0.12479492 77.26308594 2.64086914 77.17431641 C5.02365579 77.12741116 7.4064704 77.08191183 9.78930664 77.03759766 C10.97911133 76.99570313 12.16891602 76.95380859 13.39477539 76.91064453 C23.29044569 76.77243685 23.29044569 76.77243685 26.95727539 79.58837891 C29.8067212 83.15396861 29.98474958 84.80482171 29.69946289 89.19384766 C28.84767229 92.62587985 26.9094189 94.25858355 24.16430664 96.35009766 C19.22715987 98.81867104 11.59943438 97.66298003 6.10766602 97.70019531 C4.31912198 97.71673189 2.53064341 97.74399177 0.74243164 97.78222656 C-1.84124909 97.837168 -4.42338108 97.85889609 -7.00756836 97.87353516 C-7.80153015 97.89620453 -8.59549194 97.9188739 -9.41351318 97.94223022 C-13.49023082 97.92681823 -16.07502839 97.58050518 -19.32495117 95.00488281 C-23.30503114 90.79646297 -22.99767529 86.96219307 -23.02856445 81.46972656 C-23.03674194 80.66777359 -23.04491943 79.86582062 -23.05334473 79.03956604 C-23.07816114 76.38527164 -23.09470327 73.73103051 -23.10913086 71.07666016 C-23.11445454 70.16994946 -23.11977821 69.26323875 -23.12526321 68.32905197 C-23.15197585 63.53171382 -23.17135856 58.73440155 -23.18579102 53.93701172 C-23.19914335 49.96574945 -23.22702217 45.99499941 -23.26782227 42.02392578 C-23.31708847 37.22880108 -23.34190427 32.43414187 -23.3490181 27.63877487 C-23.35573712 25.81190281 -23.37097613 23.9850414 -23.39490891 22.15831375 C-23.42650238 19.60140943 -23.42660679 17.04630579 -23.41918945 14.48925781 C-23.43559479 13.73583603 -23.45200012 12.98241425 -23.46890259 12.2061615 C-23.42101776 8.17140123 -22.99512966 6.53996702 -20.36172485 3.40390015 C-19.52813446 2.72614532 -18.69454407 2.0483905 -17.83569336 1.35009766 C-14.91074701 -1.57484869 -4.15094432 0.02657409 0 0 Z " fill="#020202" transform="translate(325.835693359375,149.64990234375)"/>
<path d="M0 0 C1.3624226 0.95999085 2.7085583 1.94645545 4 3 C2.57139081 7.49108752 0.06922708 10.46169316 -3.125 13.8125 C-3.59292969 14.31458984 -4.06085938 14.81667969 -4.54296875 15.33398438 C-5.68901825 16.56189455 -6.84365311 17.78178215 -8 19 C-8.969375 18.505 -9.93875 18.01 -10.9375 17.5 C-15.20037034 15.69414047 -19.43272248 14.97897189 -24 16 C-26.15602694 18.33749166 -26.15602694 18.33749166 -27 21 C-25.824375 21.37125 -24.64875 21.7425 -23.4375 22.125 C-21.62270053 22.7432913 -19.81056221 23.36940841 -18 24 C-16.81664062 24.4021875 -15.63328125 24.804375 -14.4140625 25.21875 C-4.90092142 28.61673535 3.30492387 32.8943663 8.73046875 41.859375 C11.30051288 48.2172688 11.2850601 55.47902947 8.93359375 61.921875 C4.58036673 69.75056665 -1.82420897 75.04596454 -10.45703125 77.52734375 C-22.14525366 79.69980905 -31.99493899 77.33945124 -41.9375 71.0625 C-49.50342801 65.61177767 -49.50342801 65.61177767 -50.40625 60.86328125 C-50.68216129 56.69012304 -50.3322771 54.52521219 -48.0625 50.9375 C-44.5380624 48.70775376 -42.45369436 48.22124662 -38.34375 48.43359375 C-34.8264968 49.28359661 -32.52417505 51.1488292 -29.82421875 53.4921875 C-26.01421025 56.64135941 -22.96431455 57.37216348 -17.97265625 57.26953125 C-15.16477872 56.88588066 -13.24052213 55.6803916 -11 54 C-11.10117926 51.56723567 -11.10117926 51.56723567 -12 49 C-14.2336667 47.4862328 -14.2336667 47.4862328 -17.1015625 46.53515625 C-18.14957031 46.12716797 -19.19757813 45.71917969 -20.27734375 45.29882812 C-21.38207031 44.89083984 -22.48679687 44.48285156 -23.625 44.0625 C-39.82165626 38.01047171 -39.82165626 38.01047171 -44.55859375 30.54296875 C-47.49856886 22.66383546 -48.46662072 16.67409072 -45 8.8125 C-42.23795065 3.78775485 -38.89966522 0.87712899 -34 -2 C-32.96875 -2.61875 -31.9375 -3.2375 -30.875 -3.875 C-20.56419735 -7.76498464 -9.41788226 -4.76260428 0 0 Z " fill="#030303" transform="translate(362,276)"/>
<path d="M0 0 C2.16227385 -0.0171609 4.32299711 -0.0610394 6.48486328 -0.10522461 C7.86896666 -0.11535674 9.253083 -0.12387122 10.63720703 -0.13061523 C11.89178711 -0.14519775 13.14636719 -0.15978027 14.43896484 -0.17480469 C18.58987275 0.38334687 20.70147988 1.67791742 23.93408203 4.29516602 C26.2731751 7.80380562 26.3469926 9.16606034 25.93408203 13.29516602 C24.20908752 17.09015394 22.77606711 18.76505817 18.93408203 20.29516602 C16.64404297 20.5222168 16.64404297 20.5222168 14.16845703 20.49047852 C13.27900391 20.4840332 12.38955078 20.47758789 11.47314453 20.47094727 C10.55275391 20.45418945 9.63236328 20.43743164 8.68408203 20.42016602 C7.74822266 20.41114258 6.81236328 20.40211914 5.84814453 20.39282227 C3.54334714 20.36930392 1.2386817 20.33343428 -1.06591797 20.29516602 C-1.06591797 23.92516602 -1.06591797 27.55516602 -1.06591797 31.29516602 C0.09166016 31.24875977 1.24923828 31.20235352 2.44189453 31.15454102 C3.98093109 31.11700354 5.51999573 31.0806055 7.05908203 31.04516602 C7.81962891 31.01165039 8.58017578 30.97813477 9.36376953 30.94360352 C14.71775649 30.8512934 17.70084812 31.7181477 21.93408203 35.29516602 C24.29028641 38.82947258 24.42399816 40.13087888 23.93408203 44.29516602 C20.77618729 49.87411338 20.77618729 49.87411338 17.93408203 51.29516602 C16.48559621 51.3785876 15.03337334 51.40249462 13.58251953 51.39282227 C12.30634766 51.38798828 12.30634766 51.38798828 11.00439453 51.38305664 C10.11494141 51.37467773 9.22548828 51.36629883 8.30908203 51.35766602 C6.96330078 51.35089844 6.96330078 51.35089844 5.59033203 51.34399414 C3.37155372 51.33219213 1.1528096 51.31425641 -1.06591797 51.29516602 C-1.06591797 55.25516602 -1.06591797 59.21516602 -1.06591797 63.29516602 C0.39201172 63.2371582 1.84994141 63.17915039 3.35205078 63.11938477 C5.27519581 63.07247879 7.19837552 63.02697953 9.12158203 62.98266602 C10.08128906 62.94077148 11.04099609 62.89887695 12.02978516 62.85571289 C19.17442442 62.73210321 19.17442442 62.73210321 23.04345703 65.59985352 C25.44203739 69.01931726 26.00738655 71.11680828 25.93408203 75.29516602 C23.88068131 79.32591557 22.17452304 81.71596106 17.93408203 83.29516602 C13.5352326 83.69396465 9.13181416 83.66677937 4.71728516 83.66577148 C2.57259323 83.6701385 0.42997185 83.70646258 -1.71435547 83.74438477 C-3.08934849 83.75025507 -4.46435121 83.75422303 -5.83935547 83.75610352 C-7.08120605 83.76432129 -8.32305664 83.77253906 -9.60253906 83.78100586 C-13.69977863 83.20624858 -15.86381283 81.86607257 -19.06591797 79.29516602 C-20.51283695 76.40132805 -20.22530451 73.86310853 -20.25878906 70.62988281 C-20.26696655 69.94511871 -20.27514404 69.26035461 -20.28356934 68.55484009 C-20.30841744 66.28469722 -20.32493796 64.01461687 -20.33935547 61.74438477 C-20.34467915 60.96914774 -20.35000282 60.19391071 -20.35548782 59.39518166 C-20.38221726 55.29162205 -20.40159251 51.18809283 -20.41601562 47.08447266 C-20.43266075 42.8472743 -20.47743687 38.61085418 -20.52838707 34.37395 C-20.56205452 31.11482355 -20.57359241 27.85588191 -20.57924271 24.59659767 C-20.58595697 23.03487006 -20.60118385 21.47315469 -20.62513351 19.9115963 C-20.65677971 17.72329818 -20.65682426 15.53709998 -20.64941406 13.34863281 C-20.65750092 12.10446091 -20.66558777 10.860289 -20.67391968 9.57841492 C-19.90047128 5.40174313 -18.30282759 3.94825958 -15.06591797 1.29516602 C-10.69751346 -0.88903624 -4.85255401 0.02683087 0 0 Z " fill="#030303" transform="translate(172.06591796875,270.704833984375)"/>
<path d="M0 0 C1.17655403 -0.00855011 1.17655403 -0.00855011 2.37687683 -0.01727295 C4.03875376 -0.0267264 5.70064947 -0.0332583 7.36254883 -0.03710938 C9.89763413 -0.04679729 12.43190254 -0.07780904 14.96679688 -0.109375 C16.58202644 -0.11590697 18.1972618 -0.12115668 19.8125 -0.125 C20.94556328 -0.1435202 20.94556328 -0.1435202 22.10151672 -0.16241455 C27.7221646 -0.13878689 30.96919808 1.06685433 34.91796875 5.015625 C36.52653937 7.97878141 36.5135185 9.87071869 36.10546875 13.203125 C34.38311941 16.99229355 32.96015768 18.70538453 29.10546875 20.203125 C26.44824219 20.43017578 26.44824219 20.43017578 23.46484375 20.3984375 C22.39492187 20.39199219 21.325 20.38554687 20.22265625 20.37890625 C19.11148438 20.36214844 18.0003125 20.34539062 16.85546875 20.328125 C15.72882813 20.31910156 14.6021875 20.31007812 13.44140625 20.30078125 C10.66266953 20.27723263 7.88404216 20.24136225 5.10546875 20.203125 C5.10546875 26.143125 5.10546875 32.083125 5.10546875 38.203125 C6.62398437 38.14511719 8.1425 38.08710938 9.70703125 38.02734375 C11.71481294 37.98043296 13.72262796 37.93493422 15.73046875 37.890625 C16.72949219 37.84873047 17.72851562 37.80683594 18.7578125 37.76367188 C27.10658562 37.62544715 27.10658562 37.62544715 30.7734375 40.44140625 C33.77390518 43.99472392 33.93039144 45.58892983 33.640625 50.046875 C32.7888344 53.47890719 30.85058101 55.1116109 28.10546875 57.203125 C25.65271734 58.4295007 24.05489065 58.31727814 21.31640625 58.30078125 C20.37539062 58.29755859 19.434375 58.29433594 18.46484375 58.29101562 C17.48 58.28263672 16.49515625 58.27425781 15.48046875 58.265625 C13.99160156 58.25885742 13.99160156 58.25885742 12.47265625 58.25195312 C10.01686715 58.24014645 7.56119771 58.223679 5.10546875 58.203125 C5.1211792 59.11602295 5.13688965 60.0289209 5.15307617 60.96948242 C5.20433845 64.3707451 5.24188314 67.77159463 5.27026367 71.1730957 C5.28530941 72.64256282 5.30575113 74.11198534 5.33178711 75.58129883 C5.3683583 77.6988427 5.38523676 79.81579065 5.3984375 81.93359375 C5.41414795 83.20614014 5.4298584 84.47868652 5.44604492 85.78979492 C4.97562145 90.50448351 3.4642749 93.07078654 -0.14453125 96.078125 C-3.9315138 97.62734513 -5.9900423 97.38841629 -9.89453125 96.203125 C-13.47632274 92.79713159 -14.72138175 91.2603856 -15.52944946 86.32627869 C-15.5588971 84.84793388 -15.56129688 83.36888645 -15.54150391 81.89038086 C-15.5502655 81.07823624 -15.5590271 80.26609161 -15.5680542 79.42933655 C-15.58997071 76.75832906 -15.57552531 74.08899155 -15.55859375 71.41796875 C-15.56196381 69.55521834 -15.56681801 67.69247007 -15.5730896 65.82972717 C-15.58045012 61.93176269 -15.56978079 58.03437222 -15.54638672 54.13647461 C-15.51787943 49.14372876 -15.53432022 44.15232564 -15.56424904 39.15962887 C-15.58232738 35.31537275 -15.5765619 31.47143441 -15.56361008 27.62716866 C-15.56027857 25.78639122 -15.56435418 23.94558479 -15.57600784 22.10484123 C-15.58872794 19.53127612 -15.56932639 16.95987848 -15.54150391 14.38647461 C-15.55162506 13.62841522 -15.56174622 12.87035583 -15.57217407 12.08932495 C-15.49232975 8.09690946 -15.04315318 6.38457467 -12.47909546 3.25416565 C-8.29261386 -0.06811356 -5.17636681 0.0288909 0 0 Z " fill="#020202" transform="translate(98.89453125,149.796875)"/>
<path d="M0 0 C4.99125528 2.3878717 8.50475595 6.27779782 12.3125 10.1875 C12.95767578 10.84169922 13.60285156 11.49589844 14.26757812 12.16992188 C15.84970516 13.77548783 17.4269513 15.3855469 19 17 C21.89544737 15.69311157 23.92343117 14.31032308 26.12890625 12.03125 C26.96905273 11.17466797 26.96905273 11.17466797 27.82617188 10.30078125 C28.39916016 9.70652344 28.97214844 9.11226562 29.5625 8.5 C30.70730947 7.32065437 31.85436457 6.14348348 33.00390625 4.96875 C33.50736572 4.44732422 34.0108252 3.92589844 34.52954102 3.38867188 C37.16268521 0.90198348 38.74267328 0.02382655 42.375 -0.3125 C46.21662869 0.01867489 47.97920964 0.66967601 51 3 C53.50304378 6.75456567 53.45280074 8.54745934 53 13 C50.11777992 18.04037024 46.37568024 21.86719634 42.25 25.875 C41.64800781 26.46796875 41.04601562 27.0609375 40.42578125 27.671875 C38.95508055 29.11923124 37.4781733 30.5602763 36 32 C37.35062287 35.02496581 38.85029237 37.0805694 41.22265625 39.3828125 C41.84333984 39.99253906 42.46402344 40.60226563 43.10351562 41.23046875 C43.74998047 41.85566406 44.39644531 42.48085937 45.0625 43.125 C46.3472393 44.37536074 47.62989681 45.62786516 48.91015625 46.8828125 C49.76299194 47.70869873 49.76299194 47.70869873 50.63305664 48.55126953 C52.77770684 50.82423869 53.00861993 52.07470607 53.375 55.25 C53.00118247 58.98817533 52.36512528 61.14185647 49.734375 63.89038086 C46.79010834 65.77406497 44.11844545 65.71082107 40.69189453 65.62133789 C35.43711997 64.40844099 32.36115801 60.38793154 28.875 56.5 C28.10929687 55.68917969 27.34359375 54.87835938 26.5546875 54.04296875 C24.67839207 52.04940486 22.82941377 50.03650519 21 48 C15.80202512 52.34654189 11.03187597 56.94324702 6.33203125 61.828125 C2.959278 64.96924863 1.19678101 66.02175965 -3.4375 65.9375 C-7.76328039 64.79913674 -9.35059661 63.58448695 -12 60 C-13.0625 56.5625 -13.0625 56.5625 -13 53 C-10.05225259 47.7504851 -6.04001575 43.80166168 -1.75 39.625 C-0.77546875 38.66400391 -0.77546875 38.66400391 0.21875 37.68359375 C1.80800885 36.11770636 3.40176417 34.55671491 5 33 C0.65345811 27.80202512 -3.94324702 23.03187597 -8.828125 18.33203125 C-11.96924863 14.959278 -13.02175965 13.19678101 -12.9375 8.5625 C-11.05658721 1.41503142 -7.24732211 -1.03533173 0 0 Z " fill="#040102" transform="translate(412,61)"/>
<path d="M0 0 C2.07636958 3.59371657 2.13703184 5.71624526 1.625 9.8125 C0.3834519 12.60598323 -0.70172818 14.26390815 -3.0625 16.1875 C-6.6500282 17.15710222 -9.86631622 16.86163119 -13.375 15.8125 C-16.46313077 13.75374615 -18.03721204 12.3408521 -18.8515625 8.65625 C-19.12382166 4.3574212 -18.77344594 2.35894014 -16.1875 -1.1875 C-10.39609001 -5.305836 -5.30695599 -4.88798578 0 0 Z " fill="#020202" transform="translate(436.375,250.1875)"/>
<path d="M0 0 C1.64861525 2.47292287 2.66488584 4.43579111 3.7265625 7.16015625 C4.0359375 7.95357422 4.3453125 8.74699219 4.6640625 9.56445312 C4.98117188 10.38880859 5.29828125 11.21316406 5.625 12.0625 C5.94984375 12.89072266 6.2746875 13.71894531 6.609375 14.57226562 C9 20.74469866 9 20.74469866 9 23 C3.39 23 -2.22 23 -8 23 C-4.5625 4.5625 -4.5625 4.5625 0 0 Z " fill="#F2F2F2" transform="translate(174,186)"/>
</svg>
