<?xml version="1.0" encoding="UTF-8"?>
<svg version="1.1" xmlns="http://www.w3.org/2000/svg" width="3000" height="3000">
<path d="M0 0 C545.16 0 1090.32 0 1652 0 C1652 545.16 1652 1090.32 1652 1652 C1106.84 1652 561.68 1652 0 1652 C0 1106.84 0 561.68 0 0 Z " fill="#00FE00" transform="translate(624,744)"/>
<path d="M0 0 C1.17094963 -0.00655609 1.17094963 -0.00655609 2.36555481 -0.01324463 C63.56523578 -0.26103046 117.91238408 18.70643127 161.88671875 62.23046875 C167.17376726 67.57264452 171.98359638 73.21363818 176.57421875 79.16796875 C177.18982666 79.94503174 177.18982666 79.94503174 177.81787109 80.73779297 C190.06900999 96.2485359 200.03013907 113.733291 206.87744141 132.28173828 C207.55081826 134.10462181 208.25535588 135.91590093 208.9609375 137.7265625 C212.35348911 146.70205191 214.56335859 155.80917177 216.57421875 165.16796875 C216.79078125 166.14121094 217.00734375 167.11445312 217.23046875 168.1171875 C219.13376906 177.03191026 219.73015943 185.92363411 219.7421875 195.0234375 C219.7455159 195.92814285 219.7488443 196.83284821 219.75227356 197.76496887 C219.75729973 199.66663104 219.75968323 201.5683019 219.75952148 203.4699707 C219.76170015 206.33104513 219.77988106 209.19172825 219.79882812 212.05273438 C219.84184816 226.12082016 218.61919687 239.40078046 215.57421875 253.16796875 C216.44046875 253.25046875 217.30671875 253.33296875 218.19921875 253.41796875 C223.37038597 254.56711702 226.64276365 256.77078609 229.57421875 261.16796875 C230.27944802 266.39158557 230.17879194 270.86581112 227.94921875 275.66796875 C224.23180667 279.58103409 221.3494068 281.04771408 215.94140625 281.4140625 C211.11590754 281.34114974 206.96911508 279.93692127 202.44921875 278.35546875 C195.35974086 275.98233734 188.41753353 274.11155644 181.06640625 272.7109375 C178.57421875 272.16796875 178.57421875 272.16796875 177.57421875 271.16796875 C174.10596111 270.38558205 170.58148105 269.87162286 167.07421875 269.29296875 C166.14351562 269.13183594 165.2128125 268.97070312 164.25390625 268.8046875 C160.70030008 268.21241981 157.13997438 267.68054919 153.57421875 267.16796875 C152.71431335 267.04197296 151.85440796 266.91597717 150.96844482 266.78616333 C135.48865443 264.56774101 120.29264722 263.71780606 104.66064453 263.83178711 C101.17977994 263.85560174 97.69967694 263.85228379 94.21875 263.84570312 C81.20028069 263.86256345 68.48427843 264.51573628 55.57421875 266.16796875 C54.23261987 266.31772117 52.89066299 266.46430684 51.54833984 266.60742188 C27.63979289 269.17469241 3.63667569 274.15523966 -19.08984375 282.04296875 C-22.94270556 283.34229451 -26.82278225 284.40721778 -30.765625 285.39453125 C-34.39951363 286.45108037 -37.89590991 287.80865972 -41.42578125 289.16796875 C-42.08231689 289.41659668 -42.73885254 289.66522461 -43.4152832 289.92138672 C-70.84988661 300.31659512 -97.08659852 312.36682042 -122.42578125 327.16796875 C-123.79162354 327.96436768 -123.79162354 327.96436768 -125.18505859 328.77685547 C-134.70946964 334.35249998 -144.03993939 340.06245219 -152.9921875 346.5234375 C-156.62411624 348.97775852 -159.91277219 349.62634522 -164.29296875 349.5859375 C-168.23199816 348.81400317 -170.88739714 346.1591457 -173.42578125 343.16796875 C-175.74455785 339.28788258 -176.09650402 335.60505783 -175.42578125 331.16796875 C-172.82339409 325.74632883 -168.49134678 322.25993732 -163.42578125 319.16796875 C-162.76578125 319.16796875 -162.10578125 319.16796875 -161.42578125 319.16796875 C-161.86277344 318.40842896 -161.86277344 318.40842896 -162.30859375 317.63354492 C-168.8574026 306.17956498 -174.69618349 294.69126987 -179.53320312 282.41088867 C-180.1525545 280.8545481 -180.7906572 279.3055904 -181.44335938 277.76293945 C-183.93458442 271.80538276 -185.64440688 265.9017698 -187.05078125 259.60546875 C-187.25445313 258.72439453 -187.458125 257.84332031 -187.66796875 256.93554688 C-188.07174362 255.18197331 -188.47057174 253.4272528 -188.86425781 251.67138672 C-189.21879945 250.09074761 -189.57933248 248.51142961 -189.94824219 246.93408203 C-190.468129 244.68377272 -190.95239494 242.42850553 -191.42578125 240.16796875 C-191.60915039 239.33668457 -191.79251953 238.50540039 -191.98144531 237.64892578 C-193.91050378 227.81900977 -193.8226226 217.95810505 -193.80078125 207.98046875 C-193.80023743 207.04933258 -193.7996936 206.11819641 -193.7991333 205.15884399 C-193.7289398 179.00053418 -189.49219592 154.4213909 -179.42578125 130.16796875 C-179.15733398 129.50869385 -178.88888672 128.84941895 -178.61230469 128.17016602 C-171.61853131 111.11212714 -162.74483212 95.70644366 -151.42578125 81.16796875 C-150.74902344 80.27851562 -150.07226562 79.3890625 -149.375 78.47265625 C-132.75082899 57.06430352 -112.11024796 39.32185173 -88.42578125 26.16796875 C-87.79397949 25.8136377 -87.16217773 25.45930664 -86.51123047 25.09423828 C-73.93865529 18.07912876 -61.20019191 12.92041557 -47.43579102 8.79541016 C-45.29496423 8.12713312 -43.18400669 7.39070075 -41.06640625 6.65234375 C-36.2370258 5.03101115 -31.36118562 3.99895658 -26.36328125 3.04296875 C-25.51701172 2.87410156 -24.67074219 2.70523437 -23.79882812 2.53125 C-15.83981871 0.97258509 -8.10559052 0.01364982 0 0 Z " fill="#1D162D" transform="translate(1704.42578125,1404.83203125)"/>
<path d="M0 0 C1.26364883 0.00564972 1.26364883 0.00564972 2.55282593 0.01141357 C34.42125609 0.17861455 64.58965665 5.86360194 93.3125 20.25 C94.32981201 20.75273438 94.32981201 20.75273438 95.36767578 21.265625 C140.24645966 43.58529854 180.21476885 84.42282966 196.75 132.375 C197.20928377 133.76272496 197.66393552 135.15199407 198.11328125 136.54296875 C199.1185272 139.65039025 200.23585569 142.65346321 201.4375 145.6875 C208.59094795 165.47870599 209.67991881 186.86687524 209.62817383 207.71435547 C209.62499213 210.38159364 209.64869439 213.04773931 209.67382812 215.71484375 C209.72769901 230.27888657 208.14764062 244.37615135 203.9375 258.375 C203.61833618 259.47255615 203.61833618 259.47255615 203.29272461 260.59228516 C202.85540625 262.08582626 202.41306105 263.57790605 201.96533203 265.06835938 C201.32357739 267.21298146 200.70541457 269.36336286 200.08984375 271.515625 C197.63894566 279.91333714 194.43025621 287.52202498 190.3125 295.25 C188.56120548 298.73461388 186.84167334 302.23507902 185.1159668 305.73242188 C183.69453766 308.58742605 182.26521301 311.32576545 180.57421875 314.03515625 C179.06500837 316.25961576 179.06500837 316.25961576 179.3125 319.25 C180.94635318 320.76481815 180.94635318 320.76481815 183.0625 322.125 C190.92696655 327.85602083 190.92696655 327.85602083 191.72265625 332.796875 C191.96308214 337.35880212 192.01296874 341.10200852 189.125 344.8125 C184.964481 348.41828313 181.26964317 349.99232144 175.640625 349.8046875 C170.85721689 348.66501644 167.10173869 345.37667516 163.16455078 342.55078125 C144.71420697 329.59224818 124.57497493 319.05442335 104.3125 309.25 C103.54808594 308.87746094 102.78367187 308.50492188 101.99609375 308.12109375 C92.23421881 303.37334398 82.50280214 299.00137496 72.3125 295.25 C70.62276955 294.56800036 68.93514377 293.88075535 67.25 293.1875 C62.75155408 291.37208179 58.18414361 289.84552297 53.5625 288.375 C50.90109511 287.45374446 48.35864366 286.43388907 45.765625 285.34375 C39.67827859 282.88513589 33.42542404 281.3255642 27.0625 279.75 C24.65064865 279.14218239 22.23918473 278.53282522 19.828125 277.921875 C18.69052734 277.63376953 17.55292969 277.34566406 16.38085938 277.04882812 C12.82447113 276.12294474 9.32418469 275.0817986 5.8125 274 C-1.85364366 271.75203306 -9.69439879 270.69799282 -17.58544922 269.56152344 C-20.19160198 269.1752922 -22.78201723 268.71589676 -25.375 268.25 C-27.47776784 267.90795336 -29.5823336 267.57696007 -31.6875 267.25 C-32.81568398 267.07334808 -32.81568398 267.07334808 -33.96665955 266.89312744 C-49.92067176 264.4654577 -65.59196902 263.80784227 -81.71679688 263.91381836 C-85.5796373 263.93760553 -89.44179121 263.93432385 -93.3046875 263.92773438 C-106.55452462 263.94163093 -119.57995783 264.23310059 -132.6875 266.25 C-133.36619141 266.35259125 -134.04488281 266.4551825 -134.74414062 266.56088257 C-139.51114462 267.29483535 -144.25688028 268.1260349 -149 269 C-149.70452301 269.1280603 -150.40904602 269.25612061 -151.13491821 269.38806152 C-164.28863468 271.79457962 -177.24518532 274.81323205 -189.83203125 279.39453125 C-195.34666937 281.0466595 -202.47975329 281.79733607 -207.79296875 279.234375 C-210.26461477 277.20823555 -211.92055281 274.90042078 -213.6875 272.25 C-213.99646834 267.46099077 -214.20028255 263.47604338 -211.6875 259.25 C-207.48755946 254.95238643 -204.85161455 253.61984687 -198.6875 253.25 C-198.88085938 252.47398437 -199.07421875 251.69796875 -199.2734375 250.8984375 C-199.53382813 249.81820313 -199.79421875 248.73796875 -200.0625 247.625 C-200.31773437 246.58085938 -200.57296875 245.53671875 -200.8359375 244.4609375 C-203.37725618 232.54955551 -204.05832448 220.87525976 -204 208.75 C-203.99817719 207.96108368 -203.99635437 207.17216736 -203.99447632 206.35934448 C-203.90045481 182.11128932 -200.34177223 158.02616606 -191.6875 135.25 C-191.35492187 134.36441406 -191.02234375 133.47882813 -190.6796875 132.56640625 C-182.44060659 111.79585612 -171.31336158 92.19790558 -156.6875 75.25 C-156.05199219 74.50492188 -155.41648437 73.75984375 -154.76171875 72.9921875 C-115.40623716 28.07802207 -60.33816722 -0.40871965 0 0 Z " fill="#1D162D" transform="translate(1179.6875,1404.75)"/>
<path d="M0 0 C545.16 0 1090.32 0 1652 0 C1652 545.16 1652 1090.32 1652 1652 C1106.84 1652 561.68 1652 0 1652 C0 1106.84 0 561.68 0 0 Z M9 12 C8.6980183 14.08921643 8.6980183 14.08921643 8.750185 16.53687936 C8.7453736 17.50088405 8.74056221 18.46488873 8.73560501 19.45810567 C8.74050463 20.52755263 8.74540425 21.59699959 8.75045234 22.69885403 C8.74777194 23.83320251 8.74509153 24.96755098 8.74232991 26.13627366 C8.73687647 29.31381259 8.74048765 32.49119886 8.74775389 35.66872964 C8.7534715 39.12757379 8.74761878 42.58640093 8.74321017 46.04524431 C8.73706099 52.14032594 8.73842378 58.23537109 8.74455485 64.33045221 C8.75369505 73.45501054 8.75135421 82.57954086 8.74670564 91.70410129 C8.73912342 107.25169706 8.7410747 122.79927881 8.7481308 138.34687424 C8.75524954 154.11201 8.75803904 169.87713759 8.75549126 185.64227486 C8.75533339 186.63643533 8.75517553 187.6305958 8.75501288 188.65488235 C8.75418892 193.72373121 8.75329604 198.79258006 8.7523805 203.8614289 C8.74590193 240.5910379 8.7492687 277.32064084 8.75797462 314.0502491 C8.76658364 350.4359957 8.77150658 386.82173944 8.77130699 423.20748711 C8.77129907 425.48977261 8.77129135 427.77205811 8.77128382 430.05434361 C8.77124645 439.22519385 8.77118003 448.39604409 8.77107801 457.56689433 C8.77080035 483.20535744 8.77118922 508.8438205 8.77206707 534.48228359 C8.77210674 535.64993147 8.77214641 536.81757935 8.77218729 538.0206105 C8.77349581 575.24350034 8.77766911 612.46638928 8.78392506 649.6892786 C8.784128 650.89709991 8.78433093 652.10492122 8.78454002 653.34934318 C8.78784901 672.96532988 8.7913442 692.58131656 8.79484874 712.19730323 C8.80873849 790.0059665 8.81538186 867.81462651 8.81469727 945.62329102 C8.81467688 948.08264962 8.81465666 950.54200823 8.81463663 953.00136684 C8.81459645 957.91420104 8.81455567 962.82703524 8.81451452 967.73986944 C8.8144231 978.75470879 8.81433875 989.76954815 8.81426793 1000.78438751 C8.81425216 1003.22384501 8.81423572 1005.66330251 8.8142186 1008.10276001 C8.81377364 1073.22301869 8.81823827 1138.34327691 8.82457083 1203.46353525 C8.82468101 1204.59992711 8.82479118 1205.73631897 8.82490469 1206.90714695 C8.82640016 1222.33215426 8.82640016 1222.33215426 8.82792928 1237.75716157 C8.8304272 1262.77812391 8.83236647 1287.7990861 8.83274293 1312.82004857 C8.83276046 1313.9489647 8.83277799 1315.07788082 8.83279605 1316.24100652 C8.83286526 1320.79114891 8.83293051 1325.3412913 8.83299353 1329.89143368 C8.83357879 1372.05505195 8.8373285 1414.21866756 8.84747223 1456.38228471 C8.84842987 1460.41789854 8.8493732 1464.45351237 8.85030556 1468.48912621 C8.85053609 1469.47958016 8.85076662 1470.47003411 8.85100414 1471.49050181 C8.85457813 1487.21846467 8.85480386 1502.94642573 8.85366973 1518.67438887 C8.85262946 1534.11315557 8.85514101 1549.55191823 8.86151985 1564.99068369 C8.86516132 1574.05928365 8.86603518 1583.12787398 8.86294185 1592.1964742 C8.86116374 1598.20298712 8.86295016 1604.20949182 8.86775963 1610.21600306 C8.87039178 1613.63137865 8.87140102 1617.04673447 8.86806076 1620.46210989 C8.86530621 1624.11692493 8.86857562 1627.77168363 8.87350017 1631.42649513 C8.87122756 1632.49833283 8.86895495 1633.57017053 8.86661348 1634.67448816 C8.86917759 1635.63603435 8.87174169 1636.59758053 8.8743835 1637.58826447 C8.87450344 1638.42266232 8.87462338 1639.25706018 8.87474696 1640.11674282 C8.79320738 1642.01274836 8.79320738 1642.01274836 10 1643 C11.46985142 1643.09748482 12.94438895 1643.12509452 14.41746956 1643.12514383 C15.38029853 1643.12760233 16.3431275 1643.13006084 17.3351331 1643.13259384 C18.40840744 1643.13020309 19.48168178 1643.12781235 20.58747959 1643.12534916 C21.72193884 1643.12675148 22.85639808 1643.1281538 24.02523488 1643.12959861 C27.20771319 1643.13250245 30.39015375 1643.13086474 33.57263038 1643.12740866 C37.03514437 1643.12474178 40.49765377 1643.12785243 43.96016729 1643.13024551 C50.06327399 1643.13365253 56.16637178 1643.1332977 62.26947868 1643.13056196 C71.40607426 1643.12648486 80.54266254 1643.12813797 89.67925828 1643.1309446 C105.2469797 1643.13555625 120.81469787 1643.13538896 136.38241959 1643.13266373 C152.16893708 1643.12991698 167.95545244 1643.12932849 183.74197006 1643.13140106 C184.73732172 1643.13153023 185.73267339 1643.13165941 186.75818722 1643.13179249 C190.81178524 1643.13232574 194.86538326 1643.13287444 198.91898128 1643.13344277 C236.71762489 1643.13873858 274.51626707 1643.13908796 312.31491089 1643.13629532 C313.99666407 1643.13617113 313.99666407 1643.13617113 315.71239206 1643.13604442 C317.39681545 1643.13592003 317.39681545 1643.13592003 319.1152676 1643.13579312 C353.2825032 1643.13327315 387.44973821 1643.13261705 421.61697388 1643.13381577 C423.90212951 1643.13389324 426.18728515 1643.1339704 428.47244079 1643.13404724 C437.65479624 1643.13435768 446.83715169 1643.13467635 456.01950714 1643.135007 C481.69035766 1643.13592415 507.36120818 1643.13649465 533.03205872 1643.13679314 C534.78575988 1643.13681361 534.78575988 1643.13681361 536.57488934 1643.13683449 C573.84640968 1643.13724396 611.1179298 1643.13611587 648.38945007 1643.13394356 C649.59888646 1643.13387331 650.80832286 1643.13380306 652.05440883 1643.13373068 C671.69671051 1643.13258564 691.33901217 1643.13136622 710.98131384 1643.13014051 C788.89216553 1643.12528392 866.8030155 1643.12550933 944.71386719 1643.13037109 C964.34609477 1643.13159222 983.97832234 1643.13280324 1003.61054993 1643.13394356 C1004.81926478 1643.13401401 1006.02797963 1643.13408445 1007.27332221 1643.13415704 C1044.50486193 1643.13631219 1081.7364015 1643.13722769 1118.96794128 1643.13679314 C1120.13622435 1643.13677955 1121.30450741 1643.13676597 1122.508193 1643.13675197 C1148.15019311 1643.13643954 1173.79219321 1643.13580598 1199.43419331 1643.13488263 C1208.60849749 1643.13455347 1217.78280167 1643.13424039 1226.95710585 1643.13393192 C1229.23957806 1643.13385453 1231.52205027 1643.1337758 1233.80452248 1643.13369573 C1267.96555122 1643.13250055 1302.12657929 1643.13352164 1336.28760794 1643.13604442 C1337.40877673 1643.13612722 1338.52994551 1643.13621001 1339.68508911 1643.13629532 C1340.80420314 1643.136378 1341.92331717 1643.13646068 1343.07634374 1643.13654587 C1380.76260019 1643.13929976 1418.4488549 1643.13829833 1456.13511109 1643.13301457 C1460.17608404 1643.13246218 1464.21705699 1643.13192548 1468.25802994 1643.13140106 C1469.74568459 1643.13120575 1469.74568459 1643.13120575 1471.26339287 1643.1310065 C1487.01227064 1643.12902865 1502.76114627 1643.13041312 1518.51002385 1643.13317007 C1533.96935014 1643.13580552 1549.4286728 1643.13490486 1564.88799862 1643.13015598 C1573.96869807 1643.12747342 1583.04938758 1643.12756712 1592.13008657 1643.13163758 C1598.14462059 1643.13406375 1604.1591468 1643.1329276 1610.17367987 1643.12877072 C1613.59362062 1643.12651006 1617.01354145 1643.12587328 1620.43348138 1643.12958724 C1624.09318049 1643.13274213 1627.752824 1643.12987295 1631.41252041 1643.12534916 C1632.48579475 1643.12773991 1633.55906909 1643.13013065 1634.6648669 1643.13259384 C1636.10911035 1643.12890609 1636.10911035 1643.12890609 1637.58253044 1643.12514383 C1638.41804437 1643.12511587 1639.25355831 1643.1250879 1640.11439085 1643.12505908 C1642.01247619 1643.20711119 1642.01247619 1643.20711119 1643 1642 C1643.09733443 1640.52998524 1643.12478401 1639.05529141 1643.12467116 1637.58205777 C1643.12702406 1636.6191232 1643.12937696 1635.65618862 1643.13180115 1634.66407422 C1643.12929228 1633.59068174 1643.1267834 1632.51728926 1643.1241985 1631.41136974 C1643.12547658 1630.27678626 1643.12675467 1629.14220279 1643.12807148 1627.97323799 C1643.13062726 1624.79041126 1643.12864129 1621.60762277 1643.12483745 1618.42479841 C1643.1217927 1614.96190815 1643.12452694 1611.49902186 1643.12654433 1608.03613153 C1643.1292898 1601.93236528 1643.12827565 1595.82860833 1643.12488318 1589.72484254 C1643.11982433 1580.58727538 1643.12050645 1571.44971493 1643.12234976 1562.31214688 C1643.12532229 1546.7428039 1643.12353486 1531.17346467 1643.11920547 1515.60412216 C1643.11483453 1499.81599319 1643.11263206 1484.02786615 1643.11310768 1468.23973656 C1643.11313637 1467.24428441 1643.11316507 1466.24883227 1643.11319463 1465.22321491 C1643.11335099 1460.14782182 1643.11354294 1455.07242873 1643.11374746 1449.99703564 C1643.11515672 1413.21619762 1643.11171805 1376.43536133 1643.10573006 1339.65452385 C1643.09981222 1303.21771168 1643.0959559 1266.78090025 1643.09487724 1230.3440876 C1643.09484283 1229.21346117 1643.09480842 1228.08283473 1643.09477296 1226.91794689 C1643.09445978 1216.59176488 1643.09417208 1206.26558286 1643.09391499 1195.93940085 C1643.09327551 1170.26702987 1643.09231613 1144.5946589 1643.09113979 1118.92228794 C1643.09105982 1117.16848634 1643.09105982 1117.16848634 1643.09097823 1115.3792544 C1643.08835525 1058.47248117 1643.0820471 1001.56570843 1643.07543945 944.65893555 C1643.07314784 924.90533448 1643.0708725 905.1517334 1643.06866455 885.39813232 C1643.0685276 884.17305036 1643.06839065 882.9479684 1643.06824955 881.68576275 C1643.06190817 824.75927631 1643.05818075 767.83278979 1643.05512976 710.90630309 C1643.05493169 707.2116375 1643.0547325 703.51697191 1643.05453308 699.82230632 C1643.05321332 675.33803727 1643.05193867 650.85376821 1643.05069422 626.36949916 C1643.04821757 577.64981652 1643.04547588 528.93013389 1643.04255217 480.21045128 C1643.04241293 477.89017239 1643.04227388 475.56989351 1643.04213501 473.24961462 C1643.03588009 368.76528646 1643.02654157 264.28095865 1643.01586914 159.79663086 C1643.01576921 158.81805938 1643.01566927 157.83948791 1643.01556631 156.83126275 C1643.01056561 107.88750848 1643.00539153 58.94375423 1643 10 C1640.61203468 8.80601734 1639.1595594 8.87494616 1636.49368146 8.87485617 C1635.53651314 8.87239767 1634.57934481 8.86993916 1633.59317139 8.86740616 C1632.53138018 8.86979691 1631.46958897 8.87218765 1630.37562227 8.87465084 C1629.24933615 8.87324852 1628.12305002 8.8718462 1626.96263401 8.87040139 C1623.80777677 8.86750092 1620.65295772 8.86913225 1617.49810219 8.87259134 C1614.06386739 8.87526106 1610.62963719 8.87214655 1607.19540286 8.86975449 C1601.14366733 8.86634933 1595.09194079 8.86670101 1589.04020506 8.86943804 C1579.98039633 8.87351709 1570.92059494 8.87186116 1561.86078605 8.8690554 C1546.42319109 8.86444491 1530.98559941 8.86461049 1515.54800415 8.86733627 C1499.89412876 8.87008345 1484.24025553 8.87067116 1468.58638 8.86859894 C1467.59922326 8.86846977 1466.61206652 8.86834059 1465.59499594 8.86820751 C1461.57472535 8.86767426 1457.55445477 8.86712556 1453.53418418 8.86655723 C1416.0483882 8.86126177 1378.56259368 8.86091193 1341.07679749 8.86370468 C1339.40902714 8.86382887 1339.40902714 8.86382887 1337.70756447 8.86395558 C1336.59394716 8.86403851 1335.48032986 8.86412144 1334.33296657 8.86420688 C1300.44357076 8.86672729 1266.55417555 8.86738275 1232.66477966 8.86618423 C1230.39781698 8.86610676 1228.1308543 8.8660296 1225.86389161 8.86595276 C1216.75445199 8.86564231 1207.64501237 8.86532365 1198.53557274 8.864993 C1173.06810553 8.86407585 1147.60063831 8.86350535 1122.13317108 8.86320686 C1120.97329042 8.86319322 1119.81340976 8.86317957 1118.6183812 8.86316551 C1081.64176912 8.86275604 1044.66515724 8.8638841 1007.68854523 8.86605644 C1006.48869785 8.86612669 1005.28885046 8.86619694 1004.05264407 8.86626932 C984.56641984 8.86741434 965.08019562 8.86863377 945.59397139 8.86985949 C868.32371472 8.87471476 791.05345979 8.8744918 713.78320312 8.86962891 C694.31646983 8.86840776 674.84973653 8.86719672 655.38300323 8.86605644 C654.18443123 8.86598599 652.98585923 8.86591555 651.75096686 8.86584296 C614.82103588 8.8636872 577.89110505 8.86277243 540.96117401 8.86320686 C539.22245962 8.86322724 539.22245962 8.86322724 537.44861969 8.86324803 C512.00480116 8.86356049 486.56098264 8.8641941 461.11716413 8.86511737 C452.01321436 8.86544652 442.90926459 8.8657596 433.80531482 8.86606808 C431.54039105 8.86614547 429.27546728 8.8662242 427.01054352 8.86630427 C393.13395906 8.86749868 359.25737529 8.86647982 325.38079092 8.86395558 C324.26960638 8.86387278 323.15842185 8.86378999 322.01356506 8.86370468 C320.90442131 8.863622 319.79527755 8.86353932 318.65252337 8.86345413 C281.26865678 8.86069779 243.88479194 8.86170663 206.5009256 8.86698543 C202.48889323 8.8675378 198.47686086 8.8680745 194.46482849 8.86859894 C193.48018307 8.86872914 192.49553765 8.86885935 191.48105448 8.8689935 C175.87059415 8.87096826 160.26013597 8.86959014 144.64967583 8.86682993 C129.31111522 8.86418887 113.97255828 8.8651055 98.63399814 8.86984402 C89.63420977 8.87251805 80.63443143 8.87244755 71.63464354 8.86836242 C65.66223906 8.86592383 59.68984242 8.86709236 53.71743889 8.87122928 C50.3288226 8.87347482 46.94024272 8.87360752 43.55162475 8.87041276 C39.91012115 8.86722182 36.26867209 8.87016159 32.62717104 8.87465084 C31.58450577 8.87226009 30.5418405 8.86986935 29.46757931 8.86740616 C18.44529224 8.15282511 18.44529224 8.15282511 9 12 Z " fill="#60FF60" transform="translate(624,744)"/>
<path d="M0 0 C0.99604248 0.33837891 0.99604248 0.33837891 2.01220703 0.68359375 C30.90693584 10.55927224 55.88294649 26.92835733 70.80078125 54.3046875 C78.71183885 70.67645435 81.27183105 88.87349206 75.26489258 106.32958984 C71.12195742 117.41028618 65.81008816 127.03707139 58 136 C57.55527344 136.5878125 57.11054687 137.175625 56.65234375 137.78125 C48.39834401 148.48368391 35.77643509 155.81261205 24 162 C22.94554687 162.55558594 21.89109375 163.11117188 20.8046875 163.68359375 C17.89242255 165.17696746 14.9621457 166.60849977 12 168 C11.21753906 168.36867188 10.43507813 168.73734375 9.62890625 169.1171875 C-23.07921661 183.34770301 -62.95916913 183.11585426 -97 175 C-97.76666992 174.81888672 -98.53333984 174.63777344 -99.32324219 174.45117188 C-119.11682324 169.62808237 -137.4364856 160.02991903 -153 147 C-154.21236328 146.03320312 -154.21236328 146.03320312 -155.44921875 145.046875 C-170.11751915 132.86169003 -182.31171827 112.97702944 -184.21875 93.80029297 C-185.7026386 71.62079557 -178.62416284 53.03818803 -164.6171875 35.9921875 C-142.08709894 10.23390715 -105.29964393 -5.26267497 -71.53320312 -7.85498047 C-47.29168779 -9.24274648 -23.039351 -8.0891944 0 0 Z " fill="#F96393" transform="translate(1165,1724)"/>
<path d="M0 0 C1.01707031 0.46921875 2.03414062 0.9384375 3.08203125 1.421875 C15.71550972 7.5669146 25.95341039 15.33418493 36 25 C36.65742187 25.58265625 37.31484375 26.1653125 37.9921875 26.765625 C46.38846518 34.42674473 52.44466085 45.29788775 56 56 C56.28488281 56.81597656 56.56976562 57.63195313 56.86328125 58.47265625 C59.07622901 64.92271724 60.16083076 70.38243862 60.125 77.25 C60.12886719 77.97574219 60.13273437 78.70148438 60.13671875 79.44921875 C60.12237092 87.49835391 59.10242221 94.50465222 56 102 C55.67257812 102.89589844 55.34515625 103.79179688 55.0078125 104.71484375 C49.54413474 119.0522878 39.91836987 131.41475311 28 141 C27.11699219 141.72832031 26.23398438 142.45664063 25.32421875 143.20703125 C5.46890043 158.51268759 -17.61638737 166.41216985 -42 171 C-43.16716553 171.23299805 -43.16716553 171.23299805 -44.35791016 171.47070312 C-53.71323148 173.28390882 -63.19180114 173.18382581 -72.6875 173.25 C-74.50604492 173.2643811 -74.50604492 173.2643811 -76.36132812 173.27905273 C-109.26471432 173.15591132 -144.5922052 162.11330887 -170 141 C-170.53947266 140.56075195 -171.07894531 140.12150391 -171.63476562 139.66894531 C-183.86157728 129.59936722 -192.04834644 117.61774371 -198 103 C-198.53753906 101.71802734 -198.53753906 101.71802734 -199.0859375 100.41015625 C-202.2250291 92.13314977 -202.31165974 83.74724993 -202 75 C-201.98195313 73.99710938 -201.96390625 72.99421875 -201.9453125 71.9609375 C-201.01658051 51.25567717 -187.85738363 33.24058706 -173.375 19.375 C-161.7306931 9.3494909 -148.16459619 1.81463036 -134 -4 C-132.99525635 -4.41523926 -132.99525635 -4.41523926 -131.97021484 -4.83886719 C-90.49195446 -21.45422252 -40.13084216 -19.07585176 0 0 Z " fill="#F96393" transform="translate(1861,1731)"/>
<path d="M0 0 C545.16 0 1090.32 0 1652 0 C1652 545.16 1652 1090.32 1652 1652 C1106.84 1652 561.68 1652 0 1652 C0 1106.84 0 561.68 0 0 Z M50.23218727 5.44711876 C48.3699753 5.47618708 48.3699753 5.47618708 46.47014289 5.50584265 C24.53870763 3.98118954 24.53870763 3.98118954 5 10 C4.20494281 12.95806648 4.214124 15.87261521 4.19536507 18.92263395 C4.17127706 19.81474856 4.14718904 20.70686318 4.12237109 21.62601158 C4.05498755 24.41758953 4.02379601 27.20774099 4 30 C3.97531496 31.64311814 3.95037377 33.28623246 3.92514585 34.92934235 C3.86294976 40.03233521 3.86717918 45.13456948 3.87415886 50.23785686 C3.87311277 52.20338325 3.87162934 54.16890944 3.86975449 56.13443521 C3.86588786 61.50130251 3.86817631 66.86815163 3.87153245 72.23501861 C3.87408336 78.09348988 3.87080313 83.9519585 3.86828911 89.81042939 C3.8646835 100.07748746 3.86474954 110.34454071 3.86733627 120.61159897 C3.87009554 131.63181846 3.87066136 142.65203488 3.86859894 153.67225456 C3.86846977 154.37056416 3.86834059 155.06887377 3.86820751 155.78834426 C3.86767409 158.63363167 3.86712537 161.47891906 3.86655723 164.32420646 C3.86126219 190.86447082 3.86091419 217.40473313 3.86370468 243.94499779 C3.86641824 269.7711407 3.86745155 295.59728264 3.86618423 321.42342567 C3.86610675 323.05767799 3.86602959 324.69193031 3.86595276 326.32618262 C3.86564206 332.90069598 3.86532339 339.47520934 3.864993 346.0497227 C3.8640754 364.45625847 3.86350514 382.86279424 3.86320686 401.26933002 C3.86319322 402.10832183 3.86317957 402.94731364 3.86316551 403.81172944 C3.86275553 430.59421139 3.86388476 457.37669306 3.86605644 484.15917492 C3.86612669 485.02832912 3.86619694 485.89748332 3.86626932 486.79297552 C3.86741347 500.8956864 3.86863335 514.99839726 3.86985949 529.10110813 C3.87448128 582.31680032 3.8747975 635.53249022 3.87008131 688.74818241 C3.86872125 704.11470865 3.86745829 719.4812349 3.86622238 734.84776115 C3.8661546 735.69036323 3.86608681 736.5329653 3.86601697 737.40110077 C3.85936642 820.48506562 3.85698814 903.56903249 4.27845302 1456.56205422 C4.30985347 1472.79802396 4.33373745 1489.03399144 4.35326767 1505.26997948 C4.37477461 1523.09470977 4.40658515 1540.91938404 4.45377281 1558.74406584 C4.47924827 1568.45819351 4.49699152 1578.1722563 4.50301746 1587.886416 C4.50781636 1594.26567269 4.52337193 1600.64484199 4.54810559 1607.02405248 C4.56180895 1610.63099189 4.57080659 1614.23777304 4.56669031 1617.84473994 C4.56240457 1621.6988061 4.58099991 1625.55255968 4.60211372 1629.4065752 C4.59718089 1630.52325336 4.59224805 1631.63993152 4.58716573 1632.7904484 C4.64791637 1639.39122643 5.19764628 1643.19764628 10 1648 C12.09059457 1648.30179032 12.09059457 1648.30179032 14.53998271 1648.24934233 C15.50468159 1648.25404812 16.46938047 1648.25875392 17.46331265 1648.26360231 C18.53353699 1648.25858455 19.60376134 1648.2535668 20.70641673 1648.24839699 C21.84158386 1648.25095317 22.976751 1648.25350934 24.14631714 1648.25614297 C27.32615577 1648.26124874 30.50584085 1648.25728919 33.68566995 1648.2496749 C37.14701148 1648.24357903 40.60833728 1648.24905557 44.06967914 1648.25308865 C50.16916107 1648.25857664 56.26860573 1648.25655447 62.36808582 1648.24976636 C71.49921479 1648.23964398 80.63031696 1648.24101398 89.76144951 1648.24469952 C105.32020792 1648.25064305 120.87895136 1648.24707154 136.4377079 1648.23841095 C152.21413024 1648.22966777 167.99054484 1648.22526427 183.76696968 1648.22621536 C185.25927602 1648.22630144 185.25927602 1648.22630144 186.78172997 1648.22638925 C191.85419753 1648.22670199 196.92666509 1648.22708589 201.99913265 1648.22749493 C238.75476153 1648.23031313 275.51038352 1648.22343717 312.26601028 1648.21146011 C348.67687641 1648.19962369 385.08773959 1648.19191164 421.49860764 1648.18975449 C422.62850685 1648.18968566 423.75840607 1648.18961684 424.92254465 1648.18954593 C435.24211318 1648.18891955 445.56168171 1648.18834417 455.88125024 1648.18782998 C481.53696501 1648.18655103 507.1926797 1648.18463228 532.84839439 1648.18227959 C534.01682569 1648.18217295 535.18525699 1648.18206632 536.3890953 1648.18195645 C593.25581725 1648.17671074 650.12253725 1648.16409453 706.98925781 1648.15087891 C726.72849526 1648.14629567 746.46773272 1648.14174499 766.20697021 1648.1373291 C768.04326161 1648.13691825 768.04326161 1648.13691825 769.9166498 1648.13649911 C826.80387853 1648.1238159 883.69110758 1648.11636137 940.57833735 1648.11025951 C944.27054003 1648.10986338 947.96274272 1648.109465 951.65494541 1648.10906615 C976.12293143 1648.10642664 1000.59091747 1648.10387733 1025.05890351 1648.10138843 C1073.74601777 1648.09643516 1122.43313196 1648.09095178 1171.12024611 1648.08510434 C1173.43896412 1648.08482586 1175.75768213 1648.08454775 1178.07640014 1648.08427001 C1282.48794611 1648.07176047 1386.89949065 1648.05308353 1491.31103516 1648.03173828 C1492.28890702 1648.03153841 1493.26677889 1648.03133854 1494.27428323 1648.03113261 C1543.18285557 1648.02113126 1592.09142783 1648.0107831 1641 1648 C1641 1647.34 1641 1646.68 1641 1646 C1641.598125 1645.731875 1642.19625 1645.46375 1642.8125 1645.1875 C1645.0738805 1643.95989344 1646.38779108 1642.9962751 1648 1641 C1648.44851831 1638.81247805 1648.44851831 1638.81247805 1648.37637684 1636.33770946 C1648.38775691 1634.88792384 1648.38775691 1634.88792384 1648.39936688 1633.40884961 C1648.39243092 1632.34172482 1648.38549496 1631.27460002 1648.37834883 1630.17513812 C1648.38280424 1629.03931405 1648.38725965 1627.90348998 1648.39185008 1626.733247 C1648.40123655 1623.5561641 1648.39705804 1620.37942041 1648.38736839 1617.20234864 C1648.3801083 1613.74230923 1648.39021489 1610.28231434 1648.39813888 1606.82228243 C1648.40967061 1600.72663923 1648.40994367 1594.63107392 1648.40304345 1588.5354249 C1648.39276607 1579.40998425 1648.39968308 1570.28461265 1648.41002351 1561.15917496 C1648.42712789 1545.60956954 1648.42987716 1530.05999059 1648.42490768 1514.51037788 C1648.41991436 1498.74404096 1648.42138137 1482.97772467 1648.43078995 1467.21138954 C1648.43137843 1466.21699236 1648.43196691 1465.22259517 1648.43257322 1464.19806474 C1648.43498966 1460.14829232 1648.43744973 1456.09851993 1648.43996587 1452.04874757 C1648.46550226 1410.89456999 1648.47145147 1369.74040549 1648.46955473 1328.58622107 C1648.46929512 1322.89552281 1648.46905644 1317.20482456 1648.46883965 1311.5141263 C1648.46879561 1310.38389189 1648.46875157 1309.25365748 1648.46870619 1308.08917354 C1648.46784359 1283.06595457 1648.47263037 1258.04273764 1648.47852156 1233.01951947 C1648.47986252 1227.30961344 1648.48116239 1221.59970741 1648.4824672 1215.88980138 C1648.48299173 1213.59827199 1648.48351631 1211.3067426 1648.48404097 1209.01521321 C1648.48430075 1207.87936224 1648.48456053 1206.74351128 1648.48482819 1205.57324059 C1648.48535437 1203.2757822 1648.48588204 1200.97832381 1648.4864112 1198.68086542 C1648.5014134 1133.46880606 1648.51017469 1068.25674834 1648.50545502 1003.04468727 C1648.50536915 1001.83650722 1648.50528329 1000.62832717 1648.50519482 999.3835356 C1648.50423538 985.9103036 1648.50319717 972.4370716 1648.50213593 958.96383961 C1648.50184641 955.27602471 1648.50155693 951.58820981 1648.50126753 947.90039491 C1648.50107353 945.43982806 1648.50087803 942.97926121 1648.50068104 940.51869436 C1648.49446401 862.69604401 1648.50932736 784.87342477 1648.54199219 707.05078125 C1648.55021503 687.44158752 1648.55836483 667.83239377 1648.56609344 648.22319984 C1648.56656964 647.0158794 1648.56704584 645.80855896 1648.56753646 644.56465305 C1648.58211614 607.37138669 1648.59056708 570.17812291 1648.592659 532.98485374 C1648.59272531 531.81763499 1648.59279163 530.65041624 1648.59285996 529.44782722 C1648.59425383 503.8281847 1648.59414296 478.20854236 1648.59264987 452.58889984 C1648.59212773 443.42239546 1648.59171057 434.25589107 1648.5913417 425.08938667 C1648.59124848 422.80888178 1648.59114934 420.52837688 1648.59104425 418.24787199 C1648.58941725 381.86695174 1648.60226278 345.4860546 1648.62220203 309.10514034 C1648.64215938 272.47612867 1648.6459364 235.84715152 1648.62757629 199.21813797 C1648.62504228 194.1625629 1648.62267987 189.10698777 1648.62041855 184.05141258 C1648.61996817 183.06033169 1648.61951779 182.0692508 1648.61905376 181.04813716 C1648.61236144 165.32143341 1648.62249066 149.59478683 1648.63952993 133.86809278 C1648.65591291 118.4238648 1648.65459639 102.97972394 1648.63413157 87.53549985 C1648.62265265 78.46806182 1648.62500463 69.40087594 1648.64734673 60.33345676 C1648.66080411 54.32262137 1648.65635228 48.31197708 1648.63691431 42.30115835 C1648.62638473 38.88646888 1648.62383594 35.47227918 1648.64323221 32.05761735 C1648.65989257 28.39645646 1648.64619038 24.73666394 1648.62444448 21.07556021 C1648.64272946 19.48204525 1648.64272946 19.48204525 1648.66138382 17.85633806 C1648.60598486 13.40178231 1648.43060167 10.72252592 1646.12071402 6.84666143 C1641.56087971 4.14841029 1637.65704591 4.31365261 1632.44413126 4.37785685 C1631.36176382 4.37134219 1630.27939639 4.36482753 1629.16422994 4.35811545 C1625.50461368 4.34227237 1621.84605398 4.36233474 1618.18646812 4.38196754 C1615.53799803 4.37796868 1612.88959986 4.37198399 1610.24114698 4.36357719 C1604.4477157 4.34922078 1598.65452782 4.35356753 1592.86110525 4.36990531 C1584.18737925 4.39426744 1575.5138323 4.38982298 1566.84008657 4.37965636 C1552.05747855 4.36317149 1537.27496654 4.37045493 1522.49236679 4.39051437 C1507.50407152 4.41075866 1492.51582832 4.42014037 1477.52751923 4.41616821 C1476.10893499 4.4158023 1476.10893499 4.4158023 1474.66169248 4.415429 C1469.83949367 4.41413588 1465.01729493 4.41266715 1460.19509619 4.41113811 C1425.25306646 4.40043288 1390.3110799 4.41411449 1355.36906052 4.44078445 C1320.719056 4.46717301 1286.06907069 4.48364205 1251.41905594 4.48667526 C1249.80458372 4.48682424 1249.80458372 4.48682424 1248.15749591 4.48697622 C1238.32605401 4.48788189 1228.49461211 4.48867655 1218.66317019 4.48933304 C1194.2168509 4.49097389 1169.77053197 4.49424114 1145.32421303 4.49864769 C1144.21076081 4.49884731 1143.0973086 4.49904694 1141.9501154 4.49925261 C1087.75335801 4.50911987 1033.55661263 4.53789652 979.35986328 4.56787109 C904.13330035 4.60945902 828.90674942 4.6378481 753.68017578 4.64990234 C751.34343956 4.65028029 749.00670335 4.65065864 746.66996713 4.6510374 C735.01735877 4.65292303 723.3647504 4.65477893 711.71214203 4.65661778 C709.9868558 4.65689007 709.9868558 4.65689007 708.22671531 4.65716786 C702.42810961 4.65808134 696.62950391 4.65898728 690.83089821 4.65988123 C611.39592584 4.67214951 531.96095604 4.69462528 452.52598675 4.71955399 C437.37509858 4.72430591 422.22421034 4.72877332 407.07332202 4.73303259 C360.4402584 4.74618556 313.80719923 4.7626204 267.17414097 4.78893264 C263.30547336 4.79110552 259.43680574 4.79326877 255.56813812 4.79542542 C254.61879425 4.79595693 253.66945037 4.79648844 252.6913385 4.79703606 C237.77907069 4.80531107 222.86680367 4.81042476 207.95453412 4.81418911 C193.21900561 4.81798861 178.48348237 4.82544159 163.74795753 4.83654735 C155.89505051 4.84237979 148.04215014 4.84683302 140.18924074 4.84672292 C110.20057957 4.84717071 80.21726915 4.95760028 50.23218727 5.44711876 Z " fill="#99FF99" transform="translate(624,744)"/>
<path d="M0 0 C22.91110282 7.15239136 43.68582047 19.64457676 61.48535156 35.64111328 C63.02714737 37.02435562 64.58655499 38.38560425 66.1484375 39.74609375 C72.8246665 45.63006856 78.55485383 51.95220443 84 59 C85.18335938 60.44246094 85.18335938 60.44246094 86.390625 61.9140625 C105.8773477 86.11926836 118.76866058 116.2671137 123 147 C123.20238281 148.08023437 123.40476562 149.16046875 123.61328125 150.2734375 C127.9545418 174.66718725 125.80742555 202.54973973 118 226 C117.61853659 227.35982464 117.24530138 228.72197563 116.87890625 230.0859375 C113.30273535 243.28108351 107.80246964 254.91339981 101.25 266.875 C100.87327148 267.57181885 100.49654297 268.2686377 100.10839844 268.98657227 C97.3555962 273.88146793 97.3555962 273.88146793 94 275 C91.69433594 274.04711914 91.69433594 274.04711914 88.984375 272.53515625 C87.97890625 271.98150391 86.9734375 271.42785156 85.9375 270.85742188 C84.885625 270.26509766 83.83375 269.67277344 82.75 269.0625 C80.70348596 267.9277342 78.65660541 266.79362915 76.609375 265.66015625 C75.54162842 265.06831543 74.47388184 264.47647461 73.3737793 263.86669922 C72.26043213 263.25068848 71.14708496 262.63467773 70 262 C69.13092514 261.51651093 69.13092514 261.51651093 68.24429321 261.02325439 C58.47344986 255.60723998 48.50067273 251.03169756 38.1875 246.75 C36.75038248 246.14647243 35.31353267 245.54230699 33.87695312 244.9375 C23.04752398 240.38781116 12.15404388 236.02068422 1.1875 231.8125 C-0.18438477 231.27979492 -0.18438477 231.27979492 -1.58398438 230.73632812 C-2.91333008 230.22682617 -2.91333008 230.22682617 -4.26953125 229.70703125 C-5.05948486 229.4025708 -5.84943848 229.09811035 -6.66333008 228.78442383 C-9.09136657 227.9693281 -11.48084264 227.44948084 -14 227 C-12.64738766 223.89300927 -11.24756433 222.12460908 -8.625 220 C18.30613993 196.95783334 38.25656812 162.53809127 41.81469727 126.8125 C43.56609496 100.2300212 42.27575692 74.83996119 32 50 C31.71672852 49.30986816 31.43345703 48.61973633 31.14160156 47.90869141 C24.25981706 31.49506506 14.68788905 17.07547664 2.203125 4.40625 C0 2 0 2 0 0 Z " fill="#FDFDFD" transform="translate(1244,1436)"/>
<path d="M0 0 C10.40708076 2.02566393 19.47893213 5.32428627 29 10 C30.27311949 10.60613715 31.54656709 11.21158552 32.8203125 11.81640625 C47.00622293 18.63487441 60.15021506 26.57589231 72 37 C72.804375 37.69480469 73.60875 38.38960937 74.4375 39.10546875 C77.00129888 41.36111873 79.5078306 43.66542367 82 46 C82.49757813 46.4635791 82.99515625 46.9271582 83.5078125 47.40478516 C103.78580268 66.45286029 117.92113007 90.20245927 128 116 C128.34675781 116.84175781 128.69351562 117.68351562 129.05078125 118.55078125 C132.40863453 127.09450832 134.23771562 136.01633839 136 145 C136.27360352 146.24209229 136.27360352 146.24209229 136.55273438 147.50927734 C138.36633904 156.63054709 138.30322182 165.71014266 138.26074219 174.97070312 C138.25007462 177.73069505 138.26065985 180.49002847 138.2734375 183.25 C138.29770737 211.76199335 138.29770737 211.76199335 134 219 C130.15172352 218.59491827 126.68174842 218.21046713 122.97509766 217.06616211 C118.37182852 215.73645565 113.70763589 215.14510073 108.96484375 214.52734375 C108.00912979 214.39936905 107.05341583 214.27139435 106.06874084 214.13954163 C104.05112869 213.87067667 102.03316954 213.60440428 100.01489258 213.34057617 C96.97052747 212.94182593 93.92762851 212.53308504 90.88476562 212.12304688 C72.36850498 209.65252213 54.29420865 208.86290199 35.625 208.9375 C33.42448019 208.94252624 31.22395926 208.94708715 29.0234375 208.95117188 C23.68226697 208.96208564 18.34113883 208.9787342 13 209 C14.7058752 205.46488793 16.76683732 202.44044478 19.0625 199.25 C26.81169457 188.23923723 33.23697987 176.60695291 38 164 C38.35707031 163.1234375 38.71414063 162.246875 39.08203125 161.34375 C41.59575084 154.94176753 43.04305039 148.53122083 44.2890625 141.7734375 C45 138 45 138 46.0625 134.15234375 C47.7381575 126.65723754 47.39459955 118.83028253 47.375 111.1875 C47.37368576 109.94554367 47.37368576 109.94554367 47.37234497 108.67849731 C47.32819091 96.0524207 46.69661326 84.15288319 43 72 C42.65388672 70.80745605 42.65388672 70.80745605 42.30078125 69.59082031 C35.24702905 45.80773254 22.85231193 25.07209832 6 7 C3.97709402 4.68512821 1.9881025 2.34494141 0 0 Z " fill="#FDFDFD" transform="translate(1765,1432)"/>
<path d="M0 0 C1.13750466 -0.00140232 2.27500933 -0.00280463 3.44698383 -0.00424945 C7.26395656 -0.00773302 11.08088886 -0.00409059 14.897861 -0.00049198 C17.67170479 -0.0009792 20.44554704 -0.00297498 23.21939015 -0.00489634 C29.27196957 -0.00828672 35.32453999 -0.00796015 41.3771196 -0.0052128 C50.43794869 -0.00111854 59.49877049 -0.00279629 68.55959975 -0.00559544 C84.00177904 -0.0101963 99.44395504 -0.01004502 114.88613462 -0.00731456 C130.53664291 -0.00456412 146.18714903 -0.00398232 161.83765745 -0.0060519 C163.31994263 -0.00624566 163.31994263 -0.00624566 164.83217297 -0.00644333 C168.8568443 -0.00697659 172.88151562 -0.0075253 176.90618694 -0.00809361 C214.39958971 -0.01338416 251.89299104 -0.01374114 289.38639402 -0.01094615 C290.49757856 -0.01086336 291.60876309 -0.01078056 292.75361988 -0.01069526 C293.86657375 -0.01061233 294.97952762 -0.0105294 296.12620736 -0.01044396 C330.01033022 -0.00792244 363.89445248 -0.00726861 397.77857542 -0.0084666 C400.04615536 -0.00854408 402.31373529 -0.00862124 404.58131523 -0.00869807 C413.69331422 -0.00900853 422.80531322 -0.00932719 431.91731221 -0.00965784 C457.38954246 -0.0105749 482.86177271 -0.01114546 508.33400297 -0.01144397 C509.4939928 -0.01145762 510.65398263 -0.01147126 511.84912366 -0.01148532 C548.8180266 -0.01189467 585.78692932 -0.01076731 622.7558322 -0.00859439 C624.55476028 -0.00848902 624.55476028 -0.00848902 626.39003034 -0.00838152 C645.86668078 -0.00723652 665.34333121 -0.00601708 684.81998164 -0.00479134 C762.0908532 0.00006641 839.36172303 -0.00016144 916.63259459 -0.00502193 C936.10885445 -0.00624307 955.58511432 -0.00745409 975.06137419 -0.00859439 C976.26050978 -0.00866484 977.45964537 -0.00873529 978.6951184 -0.00880787 C1015.63207897 -0.01096304 1052.56903941 -0.01187853 1089.50600004 -0.01144397 C1091.24455142 -0.0114236 1091.24455142 -0.0114236 1093.01822505 -0.01140281 C1118.45705868 -0.01109037 1143.89589229 -0.01045682 1169.3347259 -0.00953347 C1178.43614044 -0.00920431 1187.53755498 -0.00889123 1196.63896953 -0.00858276 C1198.90326343 -0.00850537 1201.16755734 -0.00842664 1203.43185125 -0.00834656 C1237.3146989 -0.0071516 1271.19754587 -0.00817205 1305.08039343 -0.01069526 C1306.74816377 -0.01081945 1306.74816377 -0.01081945 1308.44962645 -0.01094615 C1309.55943166 -0.01102884 1310.66923688 -0.01111152 1311.81267256 -0.01119671 C1349.18712236 -0.01395072 1386.56157041 -0.01294885 1423.93601996 -0.00766541 C1427.94374962 -0.00711302 1431.95147929 -0.00657632 1435.95920897 -0.0060519 C1436.94281273 -0.00592169 1437.9264165 -0.00579148 1438.93982644 -0.00565733 C1454.5560563 -0.00367985 1470.17228401 -0.00506358 1485.78851367 -0.0078209 C1501.11903671 -0.01045695 1516.44955609 -0.00955459 1531.78007866 -0.00480682 C1540.78381795 -0.00212524 1549.78754722 -0.00221628 1558.79128604 -0.00628841 C1564.75604559 -0.00871596 1570.72079727 -0.0075762 1576.68555585 -0.00342156 C1580.07634492 -0.0011626 1583.46711391 -0.0005203 1586.85790214 -0.00423808 C1590.48810471 -0.00739697 1594.11825137 -0.00451989 1597.74845123 0 C1598.81024244 -0.00239074 1599.87203365 -0.00478148 1600.96600035 -0.00724467 C1601.92316867 -0.00478617 1602.880337 -0.00232767 1603.86651042 0.00020533 C1604.69498795 0.0002333 1605.52346548 0.00026127 1606.37704839 0.00029008 C1608.37282896 0.12534916 1608.37282896 0.12534916 1610.37282896 1.12534916 C1610.37832937 51.05755943 1610.38359884 100.98976972 1610.3886981 150.92198002 C1610.3888478 152.3875262 1610.3888478 152.3875262 1610.38900052 153.88267936 C1610.3996844 258.53929854 1610.40890841 363.19591773 1610.4151721 467.85253727 C1610.41531155 470.1763288 1610.415451 472.50012033 1610.41559045 474.82391186 C1610.41851292 523.59719063 1610.42122966 572.37046942 1610.42370864 621.14374822 C1610.42495407 645.64291905 1610.42623904 670.14208988 1610.4275614 694.64126071 C1610.42776065 698.3369481 1610.42795877 702.03263549 1610.42815684 705.72832288 C1610.43121807 762.66004257 1610.43512924 819.59176206 1610.44149351 876.52348149 C1610.44163041 877.74825854 1610.44176731 878.9730356 1610.44190836 880.23492711 C1610.44412082 899.98289699 1610.4464044 919.73086686 1610.4486974 939.47883673 C1610.4552981 996.33510346 1610.46137602 1053.19137003 1610.46396875 1110.0476371 C1610.46402229 1111.21598729 1610.46407582 1112.38433747 1610.46413098 1113.58809221 C1610.46529654 1139.23161507 1610.46619149 1164.87513794 1610.46682994 1190.51866082 C1610.46709158 1200.83558613 1610.4673922 1211.15251145 1610.4677062 1221.46943676 C1610.46773963 1222.5986036 1610.46777306 1223.72777044 1610.4678075 1224.89115446 C1610.46890527 1261.31791329 1610.47318082 1297.7446709 1610.47911117 1334.17142924 C1610.48506692 1370.84313609 1610.4879307 1407.51484176 1610.48645295 1444.1865491 C1610.48624985 1449.24606131 1610.48608247 1454.30557351 1610.48593664 1459.36508572 C1610.48589182 1460.85289086 1610.48589182 1460.85289086 1610.48584609 1462.37075267 C1610.48546439 1478.12124044 1610.48845907 1493.87172572 1610.49283882 1509.62221281 C1610.49706946 1525.08315073 1610.49777969 1540.5440854 1610.49466077 1556.00502362 C1610.49293713 1565.08669128 1610.49399838 1574.16834868 1610.49904596 1583.25001516 C1610.50212019 1589.26519912 1610.50163431 1595.28037566 1610.49813003 1601.29555938 C1610.49624086 1604.71587297 1610.49597654 1608.13616644 1610.50006421 1611.55647855 C1610.50361944 1615.2165776 1610.50115049 1618.87662171 1610.49702746 1622.5367189 C1610.49953633 1623.61011138 1610.50204521 1624.68350386 1610.50463012 1625.78942338 C1610.50227722 1626.75235795 1610.49992432 1627.71529253 1610.49750013 1628.70740693 C1610.49759614 1629.9608158 1610.49759614 1629.9608158 1610.49769408 1631.23954605 C1610.37282896 1633.12534916 1610.37282896 1633.12534916 1609.37282896 1634.12534916 C1607.90297754 1634.22283399 1606.42844001 1634.25044369 1604.9553594 1634.250493 C1603.51111595 1634.25418075 1603.51111595 1634.25418075 1602.03769586 1634.257943 C1600.96442152 1634.25555226 1599.89114718 1634.25316152 1598.78534937 1634.25069833 C1597.0836605 1634.2528018 1597.0836605 1634.2528018 1595.34759408 1634.25494777 C1592.16511577 1634.25785161 1588.98267521 1634.2562139 1585.80019858 1634.25275782 C1582.33768459 1634.25009095 1578.87517519 1634.2532016 1575.41266167 1634.25559467 C1569.30955497 1634.25900169 1563.20645718 1634.25864687 1557.10335028 1634.25591113 C1547.96675471 1634.25183402 1538.83016642 1634.25348714 1529.69357068 1634.25629377 C1514.12584926 1634.26090541 1498.55813109 1634.26073812 1482.99040937 1634.25801289 C1467.20389188 1634.25526615 1451.41737652 1634.25467766 1435.6308589 1634.25675023 C1434.63550724 1634.2568794 1433.64015557 1634.25700857 1432.61464174 1634.25714166 C1428.56104372 1634.2576749 1424.5074457 1634.2582236 1420.45384768 1634.25879193 C1382.65520407 1634.26408774 1344.85656189 1634.26443712 1307.05791807 1634.26164448 C1305.93674929 1634.26156169 1304.8155805 1634.26147889 1303.6604369 1634.26139359 C1302.53748797 1634.26131066 1301.41453904 1634.26122773 1300.25756136 1634.26114229 C1266.09032576 1634.25862231 1231.92309076 1634.25796621 1197.75585508 1634.25916493 C1195.47069945 1634.25924241 1193.18554381 1634.25931956 1190.90038817 1634.2593964 C1181.71803272 1634.25970685 1172.53567727 1634.26002551 1163.35332182 1634.26035616 C1137.6824713 1634.26127332 1112.01162078 1634.26184381 1086.34077024 1634.2621423 C1085.17163614 1634.26215595 1084.00250203 1634.26216959 1082.79793962 1634.26218365 C1045.52641928 1634.26259312 1008.25489916 1634.26146504 970.98337889 1634.25929272 C969.7739425 1634.25922247 968.5645061 1634.25915222 967.31842013 1634.25907985 C947.67611845 1634.2579348 928.03381679 1634.25671538 908.39151512 1634.25548967 C830.48066343 1634.25063308 752.56981346 1634.25085849 674.65896177 1634.25572026 C655.02673419 1634.25694138 635.39450662 1634.2581524 615.76227903 1634.25929272 C614.55356418 1634.25936317 613.34484933 1634.25943362 612.09950675 1634.2595062 C574.86796703 1634.26166135 537.63642746 1634.26257686 500.40488768 1634.2621423 C499.23660461 1634.26212872 498.06832155 1634.26211513 496.86463596 1634.26210114 C471.22263585 1634.2617887 445.58063575 1634.26115515 419.93863566 1634.2602318 C410.76433147 1634.25990263 401.59002729 1634.25958956 392.41572311 1634.25928109 C390.1332509 1634.2592037 387.85077869 1634.25912497 385.56830648 1634.25904489 C351.40727774 1634.25784972 317.24624967 1634.2588708 283.08522102 1634.26139359 C281.40346784 1634.26151778 281.40346784 1634.26151778 279.68773985 1634.26164448 C278.00906881 1634.26176851 278.00906881 1634.26176851 276.29648522 1634.26189504 C238.61022878 1634.26464892 200.92397406 1634.26364749 163.23771787 1634.25836374 C159.19674492 1634.25781135 155.15577197 1634.25727465 151.11479902 1634.25675023 C149.62714437 1634.25655492 149.62714437 1634.25655492 148.10943609 1634.25635566 C132.36055832 1634.25437782 116.61168269 1634.25576229 100.86280511 1634.25851923 C85.40347882 1634.26115468 69.94415616 1634.26025403 54.48483034 1634.25550514 C45.40413089 1634.25282259 36.32344138 1634.25291628 27.24274239 1634.25698674 C21.22820837 1634.25941291 15.21368216 1634.25827676 9.19914909 1634.25411989 C5.77920834 1634.25185922 2.35928751 1634.25122245 -1.06065242 1634.2549364 C-4.72035153 1634.25809129 -8.37999504 1634.25522212 -12.03969145 1634.25069833 C-13.11296579 1634.25308907 -14.18624013 1634.25547981 -15.29203794 1634.257943 C-16.25486691 1634.2554845 -17.21769587 1634.253026 -18.20970148 1634.250493 C-19.04521541 1634.25046503 -19.88072935 1634.25043706 -20.74156189 1634.25040825 C-22.62717104 1634.12534916 -22.62717104 1634.12534916 -23.62717104 1633.12534916 C-23.7248013 1631.65741771 -23.75257607 1630.18478813 -23.75278754 1628.71361363 C-23.75535165 1627.75206745 -23.75791575 1626.79052127 -23.76055756 1625.79983733 C-23.75828495 1624.72799963 -23.75601235 1623.65616193 -23.75367087 1622.5518443 C-23.75519742 1621.41889814 -23.75672397 1620.28595198 -23.75829677 1619.11867412 C-23.76154867 1615.94044604 -23.76025923 1612.76225527 -23.75715091 1609.58402818 C-23.7548619 1606.12613349 -23.75834896 1602.66824403 -23.76111773 1599.21035036 C-23.7651863 1593.115384 -23.7654908 1587.02042615 -23.76341178 1580.92545892 C-23.76031642 1571.80103395 -23.76294054 1562.67661687 -23.76671049 1553.55219248 C-23.77296124 1538.00517396 -23.7744141 1522.45815823 -23.77329302 1506.91113865 C-23.77217048 1491.14558332 -23.77319597 1475.38003034 -23.77686548 1459.61447537 C-23.77709514 1458.62044407 -23.77732479 1457.62641277 -23.7775614 1456.60225931 C-23.77850299 1452.55403622 -23.77945867 1448.50581314 -23.78043259 1444.45759007 C-23.79059014 1402.17484343 -23.79363906 1359.89209811 -23.7942247 1317.60935039 C-23.79428945 1313.05469951 -23.79435739 1308.50004862 -23.79442811 1303.94539773 C-23.79444511 1302.81522555 -23.79446212 1301.68505336 -23.79447964 1300.52063353 C-23.79488767 1275.50334204 -23.79707621 1250.4860508 -23.79958395 1225.46875944 C-23.80061227 1215.17546777 -23.80160229 1204.88217609 -23.8026002 1194.58888441 C-23.80271079 1193.45164985 -23.80282138 1192.31441529 -23.80293532 1191.14271908 C-23.80926159 1125.95181748 -23.8133842 1060.76091604 -23.81292677 995.57001412 C-23.81291099 993.1290588 -23.81289525 990.68810347 -23.81287956 988.24714815 C-23.81280617 977.22580845 -23.812718 966.20446875 -23.81262568 955.18312906 C-23.81258455 950.26817458 -23.81254441 945.35322011 -23.81250436 940.43826564 C-23.81248397 937.97823924 -23.81246295 935.51821284 -23.8124413 933.05818644 C-23.81176088 855.24959877 -23.8190805 777.44101564 -23.83298159 699.63242924 C-23.83648241 680.02649543 -23.83995178 660.42056161 -23.84324598 640.81462777 C-23.84344886 639.60752685 -23.84365173 638.40042592 -23.84386075 637.15674619 C-23.85007232 599.97370842 -23.85384065 562.79067102 -23.85510397 525.60763276 C-23.85514392 524.44083509 -23.85518387 523.27403743 -23.85522503 522.07188226 C-23.85607817 496.4622088 -23.85633955 470.85253536 -23.85605466 445.24286188 C-23.85595817 436.08005907 -23.85590613 426.91725625 -23.85587593 417.75445344 C-23.85586801 415.47484716 -23.85585781 413.19524089 -23.8558453 410.91563461 C-23.85566873 374.54010567 -23.86137712 338.16458061 -23.86999912 301.78905278 C-23.87863516 265.16821726 -23.88085227 228.54738714 -23.8742378 191.92655103 C-23.87332541 186.87357537 -23.87248216 181.8205997 -23.87167978 176.76762402 C-23.8715197 175.77703986 -23.87135961 174.78645571 -23.87119467 173.76585385 C-23.86883553 158.03860901 -23.87321334 142.31137345 -23.88035097 126.58413036 C-23.88721867 111.14435602 -23.88702474 95.70459548 -23.87915883 80.26482146 C-23.87475417 71.1967039 -23.87590395 62.12862681 -23.88502562 53.06051254 C-23.89052912 47.05303634 -23.88889991 41.04559063 -23.88124284 35.03811683 C-23.87709606 31.6229918 -23.87618398 28.20794692 -23.88399353 24.79282651 C-23.89071215 21.13654215 -23.88535828 17.48047851 -23.8767187 13.82420319 C-23.88161832 12.75475624 -23.88651794 11.68530928 -23.89156603 10.58345484 C-23.88675463 9.61945015 -23.88194324 8.65544547 -23.87698604 7.66222853 C-23.87702208 6.82780271 -23.87705812 5.99337688 -23.87709525 5.13366543 C-23.62717104 3.12534916 -23.62717104 3.12534916 -21.62717104 1.12534916 C-14.60202118 -0.33251678 -7.14035934 -0.01637223 0 0 Z M-22.62717104 4.12534916 C-22.92785494 6.21251178 -22.92785494 6.21251178 -22.87388269 8.65743984 C-22.87799988 9.62037994 -22.88211708 10.58332005 -22.88635904 11.57544016 C-22.88068204 12.64367974 -22.87500504 13.71191932 -22.869156 14.8125298 C-22.8710178 15.94555063 -22.8728796 17.07857145 -22.87479781 18.24592623 C-22.87795728 21.41988669 -22.87204523 24.59368755 -22.86247707 27.76763063 C-22.85425333 31.22371557 -22.85761143 34.67979188 -22.85952356 38.13588338 C-22.8612733 44.22516691 -22.85551196 50.31440845 -22.84497762 56.40368259 C-22.8292766 65.50182663 -22.82504453 74.5999507 -22.82315163 83.6981068 C-22.8195863 99.20979428 -22.80646461 114.72146085 -22.78828597 130.23313749 C-22.76969343 146.13265383 -22.75556945 162.03216526 -22.74669385 177.9316901 C-22.74612719 178.9420988 -22.74556054 179.9525075 -22.74497671 180.99353465 C-22.74210719 186.14590723 -22.73930863 191.29827984 -22.73653562 196.45065248 C-22.71649014 233.43393131 -22.68699531 270.41719752 -22.65216494 307.40046513 C-22.60510417 357.40698326 -22.57051546 407.41349431 -22.53805971 457.4200269 C-22.45365854 577.69680913 -22.35183929 697.97357862 -22.25217104 818.25034916 C-22.04592104 1086.82909916 -21.83967104 1355.40784916 -21.62717104 1632.12534916 C516.27282896 1632.12534916 1054.17282896 1632.12534916 1608.37282896 1632.12534916 C1609.03527391 1628.15067948 1609.49788061 1625.02004494 1609.49844546 1621.11130325 C1609.50100957 1620.14270133 1609.50357367 1619.1740994 1609.50621548 1618.17614589 C1609.50280657 1616.59511696 1609.50280657 1616.59511696 1609.49932879 1614.98214805 C1609.50161861 1613.28147629 1609.50161861 1613.28147629 1609.50395469 1611.54644753 C1609.50787531 1607.71804333 1609.50463029 1603.88967813 1609.50146341 1600.06127369 C1609.50225371 1597.28868094 1609.50455118 1594.51608989 1609.50677565 1591.74349797 C1609.51083316 1585.68122328 1609.51115361 1579.61895716 1609.5090697 1573.5566816 C1609.50596713 1564.48127513 1609.50860404 1555.40587656 1609.51236841 1546.33047066 C1609.51861104 1530.86501806 1609.52007321 1515.39956825 1609.51895094 1499.93411458 C1609.51782756 1484.25612497 1609.51885683 1468.57813775 1609.5225234 1452.90014851 C1609.52286788 1451.41620566 1609.52286788 1451.41620566 1609.52321932 1449.90228416 C1609.52416093 1445.87321735 1609.52511661 1441.84415054 1609.52609051 1437.81508374 C1609.53624194 1395.75673829 1609.53929674 1353.69839417 1609.53988262 1311.64004764 C1609.53994737 1307.11131869 1609.54001531 1302.58258974 1609.54008603 1298.05386078 C1609.54010304 1296.93010274 1609.54012004 1295.80634469 1609.54013756 1294.64853337 C1609.54054574 1269.76387185 1609.54273474 1244.87921058 1609.54524188 1219.99454919 C1609.5462702 1209.75326799 1609.54726022 1199.51198678 1609.54825813 1189.27070558 C1609.54836872 1188.13919776 1609.5484793 1187.00768994 1609.54859325 1185.84189401 C1609.55491838 1120.99078559 1609.55904223 1056.13967735 1609.55858469 991.28856862 C1609.55856891 988.86093952 1609.55855318 986.43331042 1609.55853748 984.00568132 C1609.5584641 973.04468949 1609.55837593 962.08369767 1609.5582836 951.12270585 C1609.55824247 946.23473041 1609.55820233 941.34675497 1609.55816228 936.45877954 C1609.55814189 934.01225907 1609.55812087 931.5657386 1609.55809922 929.11921813 C1609.5574187 851.72607757 1609.56474068 774.33294157 1609.57863951 696.93980229 C1609.58214034 677.43532003 1609.58560972 657.93083777 1609.5889039 638.42635548 C1609.58910678 637.22549047 1609.58930965 636.02462547 1609.58951867 634.78737061 C1609.59573017 597.79681591 1609.59949855 560.80626158 1609.60076189 523.81570637 C1609.60080184 522.65497178 1609.60084179 521.49423718 1609.60088295 520.29832881 C1609.60173608 494.82197713 1609.60199747 469.34562548 1609.60171258 443.86927379 C1609.60161609 434.75431828 1609.60156405 425.63936278 1609.60153385 416.52440727 C1609.60152593 414.25672693 1609.60151573 411.98904658 1609.60150322 409.72136623 C1609.60132666 373.5385075 1609.60703453 337.35565268 1609.61565704 301.17279507 C1609.62429285 264.74914294 1609.62651035 228.32549623 1609.61989572 191.90184351 C1609.61898333 186.87621087 1609.61814008 181.85057823 1609.6173377 176.82494557 C1609.61717762 175.83972501 1609.61701753 174.85450444 1609.61685259 173.83942871 C1609.61449347 158.19745214 1609.61887122 142.5554849 1609.62600889 126.91351009 C1609.63287657 111.55758767 1609.63268269 96.20167912 1609.62481675 80.84575703 C1609.62041213 71.82700383 1609.62156179 62.80829133 1609.63068354 53.78954144 C1609.63618707 47.81480141 1609.63455781 41.84009203 1609.62690076 35.86535441 C1609.62275402 32.46886136 1609.6218418 29.07244889 1609.62965145 25.67596048 C1609.63637016 22.03961452 1609.63101613 18.40349049 1609.62237662 14.76715362 C1609.62972605 13.17178024 1609.62972605 13.17178024 1609.63722395 11.54417709 C1609.63241255 10.58540916 1609.62760116 9.62664124 1609.62264396 8.63881974 C1609.62269802 7.39401544 1609.62269802 7.39401544 1609.62275317 6.12406358 C1609.55172396 3.89497244 1609.55172396 3.89497244 1607.37282896 2.12534916 C1605.2861513 1.82318053 1605.2861513 1.82318053 1602.84168363 1.8750615 C1601.87896173 1.87014449 1600.91623984 1.86522749 1599.92434455 1.86016149 C1598.85633424 1.86494297 1597.78832392 1.86972446 1596.68794966 1.87465084 C1595.55511427 1.8718462 1594.42227887 1.86904157 1593.25511514 1.86615194 C1590.08182679 1.86035086 1586.9086903 1.86361365 1583.73540872 1.87053185 C1580.28118347 1.87587121 1576.82697651 1.86964229 1573.37275314 1.86485815 C1567.28581218 1.85804779 1561.19890696 1.85875119 1555.11196518 1.86422524 C1545.99957701 1.87238325 1536.88721806 1.86907156 1527.77482926 1.86345996 C1512.24793681 1.85423905 1496.72105744 1.8545701 1481.1941638 1.86002171 C1465.44998996 1.86551602 1449.70582473 1.86669151 1433.96165037 1.86254704 C1432.96881026 1.86228869 1431.97597015 1.86203035 1430.95304397 1.86176418 C1426.90964573 1.86069769 1422.8662475 1.85960028 1418.82284928 1.85846362 C1381.12307686 1.84787313 1343.42331023 1.84717276 1305.72353697 1.85275853 C1304.60539826 1.85292412 1303.48725955 1.85308971 1302.33523785 1.85326032 C1300.65536526 1.85350911 1300.65536526 1.85350911 1298.94155586 1.85376292 C1264.863918 1.85880326 1230.78628254 1.86011488 1196.70864439 1.85771763 C1194.42930618 1.85756267 1192.14996797 1.85740836 1189.87062976 1.85725469 C1180.71160465 1.85663379 1171.55257954 1.85599646 1162.39355443 1.85533517 C1136.78807419 1.85350088 1111.18259393 1.85235988 1085.57711363 1.85176289 C1084.41096562 1.8517356 1083.24481762 1.85170831 1082.04333179 1.85168019 C1044.86810929 1.85086127 1007.69288762 1.85311729 970.51766539 1.85746205 C969.31138891 1.85760255 968.10511243 1.85774304 966.86228212 1.8578878 C947.27141369 1.86017787 927.68054527 1.86261672 908.08967685 1.86506815 C830.38327733 1.8747813 752.6768847 1.87433048 674.97048521 1.86460698 C655.38965433 1.86216472 635.80882344 1.85974268 616.22799253 1.85746205 C615.0224351 1.85732115 613.81687766 1.85718026 612.57478818 1.85703509 C575.43937344 1.85272467 538.30395927 1.8508938 501.16854429 1.85176289 C499.42059628 1.85180364 499.42059628 1.85180364 497.63733618 1.85184522 C472.06061244 1.8524701 446.48388875 1.85373721 420.90716507 1.8555839 C411.75618052 1.85624222 402.60519598 1.85686838 393.45421143 1.85748532 C391.17754983 1.8576401 388.90088822 1.85779756 386.62422661 1.85795771 C352.55295676 1.86034786 318.48168959 1.85830627 284.41042008 1.85326032 C282.73321201 1.85301193 282.73321201 1.85301193 281.02212095 1.85275853 C279.90603228 1.85259316 278.78994361 1.8524278 277.64003406 1.85225742 C240.05214847 1.84674914 202.46426981 1.84875356 164.87638521 1.85932001 C160.84559267 1.86042479 156.81480011 1.86149819 152.78400755 1.86254704 C151.79473921 1.86280745 150.80547087 1.86306787 149.7862247 1.86333617 C134.07989506 1.86729117 118.37357401 1.86452364 102.66724514 1.85900903 C87.24803001 1.85373689 71.82882946 1.85554173 56.40961619 1.8650372 C47.35359846 1.87040043 38.29762058 1.87021818 29.2416047 1.86207401 C23.24214924 1.85721893 17.24272507 1.8594984 11.24327343 1.86780772 C7.83271383 1.87232571 4.42223409 1.87361017 1.0116778 1.86617468 C-2.63972306 1.85985688 -6.29090161 1.86561085 -9.94229174 1.87465084 C-11.01030205 1.86986935 -12.07831237 1.86508787 -13.17868663 1.86016149 C-14.62276947 1.86753699 -14.62276947 1.86753699 -16.09602571 1.8750615 C-16.92933545 1.87511743 -17.76264519 1.87517337 -18.62120675 1.875231 C-20.85671754 1.94543989 -20.85671754 1.94543989 -22.62717104 4.12534916 Z " fill="#1BFF1B" transform="translate(656.6271710395813,752.8746508359909)"/>
<path d="M0 0 C12.08239303 7.03099707 20.45063024 17.0300287 26.75 29.3125 C27.0795166 29.94808838 27.4090332 30.58367676 27.74853516 31.23852539 C32.67697468 41.26052608 33.99594189 50.78244321 33.89111328 61.90771484 C33.87501783 63.9352543 33.89105219 65.96080154 33.91015625 67.98828125 C33.85234031 87.62642956 26.29099853 105.84253245 12.84765625 120.18359375 C2.04714233 130.55280595 -11.00729652 134.90579286 -25.765625 134.78125 C-40.29151031 133.44413922 -52.31321368 124.19240121 -61.5 113.4375 C-66.58502511 106.30446134 -70.8973371 98.82385824 -73.5 90.4375 C-73.79777344 89.48488281 -74.09554688 88.53226563 -74.40234375 87.55078125 C-79.70580687 67.29008574 -77.66968069 45.03488768 -68.1875 26.375 C-54.02960528 2.33098913 -27.26056872 -13.74450462 0 0 Z " fill="#1D172C" transform="translate(1471.5,1781.5625)"/>
<path d="M0 0 C10.75308086 8.29153223 17.09443594 18.04444611 21 31 C21.19335938 31.62003906 21.38671875 32.24007813 21.5859375 32.87890625 C24.31092543 46.83804252 20.80285943 61.88860602 13.24609375 73.75390625 C4.75036948 85.97378362 -6.09195872 94.00345397 -20.765625 97.5234375 C-36.5021901 99.84211014 -50.92387206 98.15538683 -64.05859375 88.50390625 C-64.69925781 88.00761719 -65.33992188 87.51132813 -66 87 C-66.88365234 86.39478516 -66.88365234 86.39478516 -67.78515625 85.77734375 C-77.37590433 78.633438 -83.98287189 65.55848151 -86 54 C-86.8181672 42.84809893 -87.49200829 31.04884489 -82 21 C-81.55269531 20.14535156 -81.10539062 19.29070312 -80.64453125 18.41015625 C-72.87336354 4.55539344 -62.01149387 -3.86169517 -47 -9 C-30.98805439 -13.28258171 -13.23889512 -9.62828736 0 0 Z " fill="#FDFDFD" transform="translate(1133,1499)"/>
<path d="M0 0 C0.96292969 0.45890625 1.92585938 0.9178125 2.91796875 1.390625 C16.70045574 8.45856705 25.69040632 19.37013244 31 34 C34.31627904 48.46391641 33.39392788 64.05654567 26 77 C23.9083887 80.2812457 21.62978597 83.13834043 19 86 C18.45214844 86.67289063 17.90429688 87.34578125 17.33984375 88.0390625 C9.56901845 96.88584823 -3.49523541 103.07673983 -15.21679688 104.21533203 C-32.54401092 105.1243851 -45.79685089 101.12285219 -59.1875 89.8125 C-69.63009013 79.99285873 -75.21169777 66.95869327 -76.23828125 52.6875 C-76.55901995 36.75185115 -71.78712269 22.8521632 -60.6875 11.125 C-56.18503008 6.9186453 -51.4977978 3.76086798 -46 1 C-45.08089844 0.51273438 -44.16179687 0.02546875 -43.21484375 -0.4765625 C-30.08144319 -6.54334624 -13.02668356 -6.25280811 0 0 Z " fill="#FDFDFD" transform="translate(1648,1493)"/>
<path d="M0 0 C0.86979996 0.25449417 1.73959991 0.50898834 2.63575745 0.77119446 C4.46196357 1.30870417 6.28625648 1.85275406 8.10864258 2.40307617 C10.86405239 3.23380297 13.62547763 4.04129729 16.38867188 4.84570312 C25.40572061 7.50327443 34.00188601 10.35890601 42.44140625 14.55078125 C43.88512691 15.18926101 45.33294053 15.81858542 46.78515625 16.4375 C70.29990002 26.58582147 91.0526095 38.57348205 109.44140625 56.55078125 C110.18777344 57.23527344 110.93414063 57.91976563 111.703125 58.625 C124.85231602 70.94752282 136.06391361 90.08524816 137.00390625 108.30078125 C136.75772098 113.93021787 134.96597336 118.17363806 131.44140625 122.55078125 C125.26546419 128.19967355 119.71102292 128.90905156 111.609375 128.828125 C105.99523086 128.33662779 103.2092429 125.54188038 99.69140625 121.48828125 C96.59876621 117.45066786 95.05017116 114.43083739 93.75390625 109.55078125 C87.1061261 87.66648308 67.11500282 74.15916823 47.875 63.7890625 C33.29199259 56.23505798 17.80308555 50.54802156 2.19140625 45.55078125 C1.13566406 45.20789062 0.07992188 44.865 -1.0078125 44.51171875 C-7.30764125 42.49145543 -13.60591508 40.72899976 -20.05224609 39.23730469 C-26.3695442 37.50690899 -30.96974725 32.88144577 -34.55859375 27.55078125 C-36.55277848 21.75062199 -36.8406599 14.55409883 -34.4296875 8.90625 C-31.20126286 3.82337779 -27.57724537 -0.21467583 -21.66969299 -2.02949524 C-14.1769841 -3.51917702 -7.18693836 -2.18789579 0 0 Z " fill="#1C172C" transform="translate(1601.55859375,1160.44921875)"/>
<path d="M0 0 C4.41690111 3.02731424 7.76714398 5.68643258 9.25 11 C10.3004398 24.91832738 10.3004398 24.91832738 6.5 30.3125 C-0.34755551 37.68539707 -9.3506065 39.65029487 -18.75 42.25 C-29.8957708 45.38798851 -40.82755838 48.79559213 -51.5 53.3125 C-52.43126709 53.69849365 -52.43126709 53.69849365 -53.38134766 54.09228516 C-70.0720843 61.04577718 -85.9491013 69.20703049 -99.5 81.3125 C-100.2734375 81.9209375 -101.046875 82.529375 -101.84375 83.15625 C-111.76250931 91.1727815 -117.56516897 101.95186655 -121.47338867 113.89453125 C-123.29135404 119.3546699 -125.75327979 123.81928617 -130.9375 126.625 C-136.54535395 129.20271898 -142.46958412 129.08401535 -148.5 128.3125 C-154.34455719 125.59895559 -159.07999982 120.33584847 -161.5 114.3125 C-163.77142685 96.40409248 -155.51064868 81.21315504 -145.26953125 67.27734375 C-124.66259314 41.34542694 -94.9535079 24.33362154 -64.5 12.3125 C-63.43007812 11.87550781 -62.36015625 11.43851563 -61.2578125 10.98828125 C-53.471394 7.87931559 -45.57843602 5.53142832 -37.5 3.3125 C-35.74809498 2.79811087 -33.99787565 2.27791862 -32.25 1.75 C-31.45851563 1.51539063 -30.66703125 1.28078125 -29.8515625 1.0390625 C-28.25276096 0.54508063 -26.66400837 0.01760328 -25.0859375 -0.5390625 C-16.46193503 -3.46848556 -8.18753822 -4.67171298 0 0 Z " fill="#1C172C" transform="translate(1324.5,1160.6875)"/>
<path d="M0 0 C10.8513354 5.72598141 17.45514269 15.90606756 21.08203125 27.44140625 C22.45310218 33.17461447 22.36826939 38.94677636 22.375 44.8125 C22.39949219 45.92431641 22.42398437 47.03613281 22.44921875 48.18164062 C22.49529043 61.30438943 17.6548822 73.11141657 8.75 82.8125 C3.44306172 87.73453946 -2.67914685 91.19976991 -10 91.625 C-18.13632436 91.11568392 -24.13265597 87.27393689 -29.75 81.5625 C-40.61526325 68.69725908 -43.07645539 52.77849504 -42.23828125 36.54785156 C-41.04336065 23.77101615 -35.35778997 12.72772856 -25.9375 4.0625 C-18.08037267 -2.30733172 -9.53077988 -4.46121611 0 0 Z " fill="#EA1A5E" transform="translate(1460,1802)"/>
<path d="M0 0 C7.31921439 3.90448797 12.85096436 8.99795283 16.27734375 16.62890625 C18.57981806 24.25784187 18.16043924 32.29112651 14.44921875 39.375 C9.38281121 47.26604184 3.96473235 51.49092255 -4.875 54.4375 C-13.75635066 55.23659325 -20.69175511 55.02446825 -27.875 49.4375 C-34.15544887 43.99444431 -38.38358096 37.63888334 -39.17578125 29.25390625 C-39.21235417 19.0988263 -36.89227645 11.9090198 -29.875 4.4375 C-21.29819986 -2.14129556 -10.28378907 -4.20700462 0 0 Z " fill="#FCFCFC" transform="translate(1709.875,1581.5625)"/>
<path d="M0 0 C3.67418099 2.1594938 6.60045077 4.54832444 9.375 7.8125 C10.096875 8.575625 10.81875 9.33875 11.5625 10.125 C15.9964558 16.69948619 16.34540954 25.11853864 15.375 32.8125 C12.44249969 41.54941209 7.20523748 47.08173152 -0.625 51.8125 C-7.31735043 55.00476255 -15.80982711 55.01592414 -22.875 52.8125 C-30.41659282 49.38450326 -36.47820976 43.19111901 -39.80859375 35.6484375 C-41.96075168 28.17252047 -41.81839776 20.48172701 -38.5625 13.375 C-30.37796325 -0.6260755 -15.60341722 -7.38125725 0 0 Z " fill="#FCFCFC" transform="translate(1185.625,1582.1875)"/>
<path d="M0 0 C3.38071809 3.14253113 5.91772821 6.64367571 8.5 10.4375 C24.85988947 33.77818 46.60286166 48.80824734 72 61 C74.00180423 61.99638337 76.00246455 62.99508601 78 64 C74.59860729 66.78760756 70.87130611 68.65700223 66.9375 70.5625 C60.58324398 73.69290554 54.27414961 76.89933394 48 80.1875 C47.22390381 80.59105713 46.44780762 80.99461426 45.64819336 81.41040039 C41.18249118 83.75811945 36.91663928 86.26211758 32.7265625 89.07543945 C31 90 31 90 28 90 C12.42423598 63.57226924 -1.09710565 31.26751109 0 0 Z " fill="#FBFBFB" transform="translate(1532,1621)"/>
<path d="M0 0 C4.79977458 2.14515065 7.7154339 4.37437472 9.91015625 9.3125 C10.82307466 14.57264892 10.67926523 18.83949787 7.59765625 23.3125 C5.14525009 26.37616655 3.00195493 28.17402086 -1.015625 28.68359375 C-11.28615714 28.88497673 -11.28615714 28.88497673 -14.77734375 26.0625 C-18.91740347 21.13918574 -19.64522633 17.45218084 -19.54296875 11.078125 C-18.82032969 6.66753488 -16.54370231 4.02964102 -13.08984375 1.3125 C-8.75652336 -1.20116437 -4.84785609 -1.59480873 0 0 Z " fill="#F9F9F9" transform="translate(1713.08984375,1537.6875)"/>
<path d="M0 0 C3.39708677 2.21549137 6.12573734 4.18293923 7.875 7.875 C8.77650482 13.14292383 8.52875284 17.43674376 6.3125 22.3125 C2.63904509 26.17433722 -0.7613255 28.53733221 -6.1875 29.3125 C-12.91824952 28.31004794 -16.23326479 25.10104443 -20.125 19.875 C-21.87728701 16.37042598 -21.67578196 12.69917931 -21.125 8.875 C-19.32525337 4.81781255 -16.90549624 2.4009866 -13.25 -0.0625 C-8.40820049 -1.70871183 -4.81807276 -1.73450619 0 0 Z " fill="#F9F9F9" transform="translate(1189.125,1538.125)"/>
<path d="M0 0 C2.31394583 2.96668033 3.99586849 5.91950852 5.59985352 9.33007812 C11.05923768 20.92728883 18.00302217 31.20135991 26.8203125 40.546875 C28 42 28 42 28 44 C25.50145233 44.65192688 23.0013863 45.29663064 20.5 45.9375 C19.45585938 46.21110352 19.45585938 46.21110352 18.390625 46.49023438 C13.60162506 47.70965566 8.91462529 48.47422365 4 49 C3.5164865 46.52161318 3.03812799 44.04240222 2.5625 41.5625 C2.42779297 40.87478516 2.29308594 40.18707031 2.15429688 39.47851562 C0.36123915 30.07589583 -0.13750651 21.00948506 -0.0625 11.4375 C-0.05798828 10.33341797 -0.05347656 9.22933594 -0.04882812 8.09179688 C-0.0371514 5.394473 -0.02077525 2.69726653 0 0 Z " fill="#F7F6F7" transform="translate(997,1602)"/>
<path d="M0 0 C3.3 0 6.6 0 10 0 C10 2.97 10 5.94 10 9 C7.49672496 8.58278749 5.39148241 8.21731428 3.15952682 6.97834206 C0.52664797 5.78555478 -1.41551997 5.73864316 -4.3024292 5.7215271 C-5.37652542 5.71036362 -6.45062164 5.69920013 -7.55726624 5.68769836 C-9.31701027 5.68445808 -9.31701027 5.68445808 -11.11230469 5.68115234 C-12.35159225 5.67110672 -13.59087982 5.6610611 -14.86772156 5.65071106 C-18.26204106 5.62512023 -21.65619345 5.60826446 -25.05057049 5.59528303 C-28.59937483 5.57964857 -32.14809451 5.55285936 -35.69683838 5.5272522 C-42.41508231 5.48046997 -49.13334218 5.4437232 -55.85166574 5.41057932 C-63.5010002 5.37235399 -71.15024962 5.32294492 -78.79951239 5.27259517 C-94.53294678 5.1692836 -110.26642887 5.08002071 -126 5 C-126 4.67 -126 4.34 -126 4 C-84.42 4 -42.84 4 0 4 C0 2.68 0 1.36 0 0 Z " fill="#A3FFA3" transform="translate(2266,744)"/>
<path d="M0 0 C0.33 0 0.66 0 1 0 C1.00331015 0.64899324 1.00662029 1.29798649 1.01003075 1.96664619 C1.09129094 17.76629747 1.18339326 33.56584286 1.28752708 49.36535835 C1.33762486 57.00592171 1.38406808 64.6464745 1.421875 72.28710938 C1.45484114 78.94755888 1.49469783 85.60792563 1.54279006 92.26828372 C1.56800918 95.79409789 1.58980391 99.31985749 1.60334396 102.84573746 C1.6185974 106.78413935 1.64923611 110.7223407 1.68115234 114.66064453 C1.68331253 115.82661667 1.68547272 116.99258881 1.68769836 118.19389343 C1.74302937 123.53120172 1.88798673 128.0087678 4 133 C4.36106097 134.66088045 4.70462173 136.32618981 5 138 C2.03 138 -0.94 138 -4 138 C-4 135.69 -4 133.38 -4 131 C-2.68 131 -1.36 131 0 131 C0 87.77 0 44.54 0 0 Z " fill="#A3FFA3" transform="translate(628,2258)"/>
<path d="M0 0 C13.53 0 27.06 0 41 0 C41 0.66 41 1.32 41 2 C25.16 2.33 9.32 2.66 -7 3 C-7 2.67 -7 2.34 -7 2 C-4.69 2 -2.38 2 0 2 C0 1.34 0 0.68 0 0 Z " fill="#322B40" transform="translate(1784,1640)"/>
<path d="M0 0 C0 2.97 0 5.94 0 9 C-2.97 9 -5.94 9 -9 9 C-9.3125 6.75 -9.3125 6.75 -9 4 C-5.79364489 0.70457948 -4.69279787 0 0 0 Z " fill="#ABFFAB" transform="translate(2276,2387)"/>
<path d="M0 0 C6.27 0 12.54 0 19 0 C19 0.33 19 0.66 19 1 C17.75283203 1.16435547 17.75283203 1.16435547 16.48046875 1.33203125 C15.39378906 1.49058594 14.30710937 1.64914062 13.1875 1.8125 C12.10855469 1.96332031 11.02960937 2.11414063 9.91796875 2.26953125 C6.80742932 3.04820712 6.12427152 3.77834068 4 6 C2.68 6 1.36 6 0 6 C0 4.02 0 2.04 0 0 Z " fill="#DAFFDA" transform="translate(624,748)"/>
<path d="M0 0 C1.65 0 3.3 0 5 0 C5.33 2.31 5.66 4.62 6 7 C4.02 7 2.04 7 0 7 C0 4.69 0 2.38 0 0 Z " fill="#D0FFD0" transform="translate(624,2389)"/>
<path d="M0 0 C2.31 0 4.62 0 7 0 C7 1.98 7 3.96 7 6 C5.35 6 3.7 6 2 6 C2 5.34 2 4.68 2 4 C1.34 4 0.68 4 0 4 C0 2.68 0 1.36 0 0 Z " fill="#D1FFD1" transform="translate(2269,744)"/>
<path d="M0 0 C1.32 0 2.64 0 4 0 C4 1.98 4 3.96 4 6 C2.02 6 0.04 6 -2 6 C-1.125 1.125 -1.125 1.125 0 0 Z " fill="#C4FFC4" transform="translate(2272,2390)"/>
<path d="M0 0 C0.99 0 1.98 0 3 0 C3 1.32 3 2.64 3 4 C3.66 4 4.32 4 5 4 C5 4.66 5 5.32 5 6 C6.65 6 8.3 6 10 6 C10 6.99 10 7.98 10 9 C5.62214594 8.49967382 3.11840922 7.11840922 0 4 C0 2.68 0 1.36 0 0 Z " fill="#B8FFB8" transform="translate(2266,744)"/>
<path d="M0 0 C0.99 0.33 1.98 0.66 3 1 C3.76173392 5.3164922 4.16063604 8.74433453 3 13 C2.67 13 2.34 13 2 13 C1.66127487 11.58461283 1.32925376 10.16762037 1 8.75 C0.814375 7.96109375 0.62875 7.1721875 0.4375 6.359375 C0 4 0 4 0 0 Z " fill="#3E374B" transform="translate(1364,1570)"/>
<path d="M0 0 C3.7952131 1.49097658 5.61042731 3.75700849 8 7 C5 7 5 7 2.3125 4.625 C0 2 0 2 0 0 Z " fill="#2F283E" transform="translate(1846,1476)"/>
<path d="M0 0 C0.66 0.33 1.32 0.66 2 1 C-0.97 3.97 -3.94 6.94 -7 10 C-7 7 -7 7 -4.625 4.4375 C-3.75875 3.633125 -2.8925 2.82875 -2 2 C-1.34 1.34 -0.68 0.68 0 0 Z " fill="#174324" transform="translate(1576,1160)"/>
<path d="M0 0 C2.18975773 3.28463659 2.99806563 6.20696275 4 10 C3.34 10 2.68 10 2 10 C-0.09350689 6.5980513 -0.17942163 3.94727588 0 0 Z " fill="#351532" transform="translate(1420,1864)"/>
<path d="M0 0 C2 1.25 2 1.25 4 3 C4 4.32 4 5.64 4 7 C3.01 7 2.02 7 1 7 C0.67 4.69 0.34 2.38 0 0 Z " fill="#B3FFB3" transform="translate(629,2389)"/>
<path d="M0 0 C-1.25 1.5 -1.25 1.5 -3 3 C-4.32 3 -5.64 3 -7 3 C-7 2.01 -7 1.02 -7 0 C-2.25 -1.125 -2.25 -1.125 0 0 Z " fill="#C5FFC5" transform="translate(631,751)"/>
</svg>
