<?xml version="1.0" encoding="UTF-8"?>
<!DOCTYPE svg PUBLIC "-//W3C//DTD SVG 1.1//EN" "http://www.w3.org/Graphics/SVG/1.1/DTD/svg11.dtd">
<svg xmlns="http://www.w3.org/2000/svg" version="1.1" width="316px" height="316px" style="shape-rendering:geometricPrecision; text-rendering:geometricPrecision; image-rendering:optimizeQuality; fill-rule:evenodd; clip-rule:evenodd" xmlns:xlink="http://www.w3.org/1999/xlink">
<g><path style="opacity:1" fill="#73675d" d="M 128.5,-0.5 C 149.833,-0.5 171.167,-0.5 192.5,-0.5C 194.265,0.461384 196.265,0.794717 198.5,0.5C 201.854,2.25759 205.521,3.25759 209.5,3.5C 213.538,6.5328 217.871,8.36613 222.5,9C 222.167,9.33333 221.833,9.66667 221.5,10C 223.618,11.0491 225.284,12.5491 226.5,14.5C 223.726,13.2774 221.059,11.7774 218.5,10C 215.223,8.85662 211.89,8.02328 208.5,7.5C 199.866,4.38644 190.866,2.05311 181.5,0.5C 175.672,0.830875 170.839,3.16421 167,7.5C 154.367,1.35309 141.201,0.0197604 127.5,3.5C 121.622,5.94168 115.955,8.60835 110.5,11.5C 107.673,11.5838 105.006,12.2504 102.5,13.5C 110.306,7.26338 118.972,2.59672 128.5,-0.5 Z"/></g>
<g><path style="opacity:0.02" fill="#584b4d" d="M 198.5,0.5 C 198.5,0.166667 198.5,-0.166667 198.5,-0.5C 199.5,-0.5 200.5,-0.5 201.5,-0.5C 200.791,0.403972 199.791,0.737305 198.5,0.5 Z"/></g>
<g><path style="opacity:0.016" fill="#9f655f" d="M 202.5,1.5 C 203.251,0.426544 204.251,0.259877 205.5,1C 204.552,1.48278 203.552,1.64945 202.5,1.5 Z"/></g>
<g><path style="opacity:0.02" fill="#656667" d="M 209.5,2.5 C 210.833,3.16667 210.833,3.16667 209.5,2.5 Z"/></g>
<g><path style="opacity:1" fill="#887767" d="M 208.5,7.5 C 204.293,7.83401 199.96,7.33401 195.5,6C 188.299,4.55977 181.632,5.72643 175.5,9.5C 169.321,14.1702 164.821,20.1702 162,27.5C 161.291,33.9619 159.957,40.2952 158,46.5C 157.333,56.1667 157.333,65.8333 158,75.5C 158.198,77.3817 158.698,79.0484 159.5,80.5C 161.774,86.9284 163.44,93.5951 164.5,100.5C 164.5,103.5 164.5,106.5 164.5,109.5C 162.432,104.835 161.098,99.835 160.5,94.5C 156.257,89.0281 154.257,82.6948 154.5,75.5C 153.5,75.5 152.5,75.5 151.5,75.5C 152.013,70.915 151.346,66.5817 149.5,62.5C 152.798,58.9977 152.131,57.831 147.5,59C 148.574,61.9696 147.407,63.8029 144,64.5C 142.643,71.6088 141.976,78.6088 142,85.5C 140.426,88.9549 138.926,92.4549 137.5,96C 137.957,96.414 138.291,96.914 138.5,97.5C 137.349,102.142 135.349,106.309 132.5,110C 132.833,110.333 133.167,110.667 133.5,111C 132.062,111.219 130.729,111.719 129.5,112.5C 126.699,116.157 123.533,119.49 120,122.5C 119.275,121.941 118.442,121.608 117.5,121.5C 112.979,123.505 108.313,125.171 103.5,126.5C 103.326,128.861 102.993,131.194 102.5,133.5C 96.954,131.909 91.2873,130.575 85.5,129.5C 80.0107,129.695 75.344,131.695 71.5,135.5C 70.8333,134.833 70.1667,134.167 69.5,133.5C 67.8211,135.104 65.8211,135.771 63.5,135.5C 63.7725,137.958 62.7725,139.625 60.5,140.5C 58.4224,140.18 56.2557,139.18 54,137.5C 52.058,130.972 51.2247,124.305 51.5,117.5C 52.1174,117.389 52.6174,117.056 53,116.5C 53.4966,118.81 53.6633,121.143 53.5,123.5C 53.3756,128.547 55.7089,130.38 60.5,129C 65.6733,125.659 70.6733,121.993 75.5,118C 78.2413,117.023 81.0746,116.523 84,116.5C 89.1065,117.496 93.9398,118.496 98.5,119.5C 100.258,118.872 101.758,117.872 103,116.5C 103.764,112.901 105.93,110.901 109.5,110.5C 109.343,109.127 109.51,107.793 110,106.5C 112.59,105.55 114.59,103.884 116,101.5C 118.129,102.863 118.629,102.529 117.5,100.5C 125.704,94.3641 131.37,86.3641 134.5,76.5C 134.291,75.914 133.957,75.414 133.5,75C 134.915,71.2702 136.082,67.4368 137,63.5C 137.186,56.5863 137.686,49.7529 138.5,43C 138.043,42.586 137.709,42.086 137.5,41.5C 139.624,39.8793 141.624,38.046 143.5,36C 142.85,34.3908 143.35,32.8908 145,31.5C 145.497,28.854 145.664,26.1873 145.5,23.5C 142.87,22.5722 140.204,21.5722 137.5,20.5C 135.995,19.1585 135.328,17.4918 135.5,15.5C 133.833,15.5 132.167,15.5 130.5,15.5C 130.487,12.6387 129.321,11.6387 127,12.5C 125.619,10.5781 123.786,10.2448 121.5,11.5C 119.407,11.5142 117.574,10.8476 116,9.5C 114.599,11.1922 112.766,11.8588 110.5,11.5C 115.955,8.60835 121.622,5.94168 127.5,3.5C 141.201,0.0197604 154.367,1.35309 167,7.5C 170.839,3.16421 175.672,0.830875 181.5,0.5C 190.866,2.05311 199.866,4.38644 208.5,7.5 Z"/></g>
<g><path style="opacity:1" fill="#988675" d="M 208.5,7.5 C 211.89,8.02328 215.223,8.85662 218.5,10C 221.059,11.7774 223.726,13.2774 226.5,14.5C 229.464,16.9619 232.297,19.6286 235,22.5C 235.667,21.1667 236.333,21.1667 237,22.5C 238.122,24.6238 239.622,26.4571 241.5,28C 240.833,28.3333 240.167,28.6667 239.5,29C 242.491,29.1448 244.158,30.6448 244.5,33.5C 244.167,33.5 243.833,33.5 243.5,33.5C 243.167,32.1667 242.833,32.1667 242.5,33.5C 242.846,36.8851 243.512,40.2184 244.5,43.5C 246.648,44.07 248.482,45.7367 250,48.5C 250.333,51.8333 250.667,55.1667 251,58.5C 252.559,60.2166 253.392,62.2166 253.5,64.5C 250.701,60.261 247.868,55.9277 245,51.5C 241.982,38.7578 235.482,28.4245 225.5,20.5C 224.675,19.6143 223.675,19.281 222.5,19.5C 222.5,18.5 222.5,17.5 222.5,16.5C 215.303,14.0642 207.637,11.8975 199.5,10C 191.662,9.03307 183.995,9.69974 176.5,12C 171.244,16.2591 167.078,21.4258 164,27.5C 163.293,33.9572 161.96,40.2906 160,46.5C 159.818,55.0783 159.318,63.5783 158.5,72C 159.444,74.7191 159.777,77.5525 159.5,80.5C 158.698,79.0484 158.198,77.3817 158,75.5C 157.333,65.8333 157.333,56.1667 158,46.5C 159.957,40.2952 161.291,33.9619 162,27.5C 164.821,20.1702 169.321,14.1702 175.5,9.5C 181.632,5.72643 188.299,4.55977 195.5,6C 199.96,7.33401 204.293,7.83401 208.5,7.5 Z"/></g>
<g><path style="opacity:1" fill="#9c8875" d="M 53.5,123.5 C 53.6633,121.143 53.4966,118.81 53,116.5C 52.6174,117.056 52.1174,117.389 51.5,117.5C 52.1904,111.19 52.5237,104.857 52.5,98.5C 52.5,98.1667 52.5,97.8333 52.5,97.5C 52.8333,97.5 53.1667,97.5 53.5,97.5C 53.3338,103.509 53.5005,109.509 54,115.5C 55.0852,116.293 56.2519,116.96 57.5,117.5C 59.9238,117.023 62.5905,116.357 65.5,115.5C 65.3433,114.127 65.51,112.793 66,111.5C 70.7337,105.7 76.5671,101.2 83.5,98C 88.9953,97.3437 94.3286,97.0103 99.5,97C 100.939,96.0094 101.939,94.676 102.5,93C 107.907,89.1546 113.074,85.6546 118,82.5C 117.906,79.4992 119.239,77.4992 122,76.5C 126.711,69.5496 128.377,61.8829 127,53.5C 125.303,52.6364 124.137,51.3031 123.5,49.5C 124.052,47.9974 124.052,46.3307 123.5,44.5C 119.222,43.7682 116.055,41.4349 114,37.5C 113.667,35.8333 113.333,34.1667 113,32.5C 111.175,31.8971 109.341,31.2304 107.5,30.5C 106.926,28.9411 106.26,27.4411 105.5,26C 100.845,25.5008 96.1785,25.3342 91.5,25.5C 91.9528,24.5416 92.6195,23.7083 93.5,23C 96.6711,21.4017 100.004,20.0684 103.5,19C 103.167,18.6667 102.833,18.3333 102.5,18C 105.018,16.4977 107.518,14.9977 110,13.5C 112.667,14.8333 115.333,16.1667 118,17.5C 118.333,16.8333 118.667,16.1667 119,15.5C 121.924,18.8776 123.091,22.8776 122.5,27.5C 123.5,27.5 124.5,27.5 125.5,27.5C 125.889,31.6127 127.389,35.2794 130,38.5C 131.011,39.3366 132.178,39.67 133.5,39.5C 136.581,57.1888 133.081,72.8555 123,86.5C 116.332,92.8856 110.499,98.3856 105.5,103C 105.833,103.333 106.167,103.667 106.5,104C 103.927,106.091 101.26,107.925 98.5,109.5C 91.5202,110.087 84.5202,110.254 77.5,110C 70.4787,115.406 63.6454,120.906 57,126.5C 55.8261,125.456 54.6594,124.456 53.5,123.5 Z"/></g>
<g><path style="opacity:0.012" fill="#868686" d="M 89.5,22.5 C 88.8333,22.5 88.5,22.8333 88.5,23.5C 87.8333,23.5 87.5,23.8333 87.5,24.5C 86.8333,24.5 86.5,24.8333 86.5,25.5C 85.8333,25.5 85.5,25.8333 85.5,26.5C 84.7611,26.631 84.0944,26.4643 83.5,26C 84.8333,24.6667 86.1667,23.3333 87.5,22C 88.4368,21.3083 89.1034,21.475 89.5,22.5 Z"/></g>
<g><path style="opacity:1" fill="#bda58d" d="M 237.5,79.5 C 233.28,82.094 230.946,85.9273 230.5,91C 232.622,101.145 234.622,111.312 236.5,121.5C 237.542,125.697 238.875,129.697 240.5,133.5C 240.5,134.5 240.5,135.5 240.5,136.5C 240.657,137.873 240.49,139.207 240,140.5C 235.374,124.664 231.374,108.664 228,92.5C 226.22,91.4063 224.386,90.4063 222.5,89.5C 221.222,84.4634 219.555,79.63 217.5,75C 218.752,72.9587 219.419,70.6254 219.5,68C 219.4,62.4459 217.234,57.9459 213,54.5C 212.517,53.552 212.351,52.552 212.5,51.5C 211.5,51.5 210.5,51.5 209.5,51.5C 209.671,53.9928 208.671,55.8261 206.5,57C 207.46,60.73 207.793,64.5633 207.5,68.5C 202.787,69.1799 198.12,69.1799 193.5,68.5C 193.023,67.5224 192.357,66.6891 191.5,66C 192.357,65.3109 193.023,64.4776 193.5,63.5C 191.37,59.6665 189.536,55.6665 188,51.5C 186.601,50.7734 185.101,50.2734 183.5,50C 181.538,47.7277 179.205,45.8943 176.5,44.5C 175.796,41.2959 175.13,38.1292 174.5,35C 175.935,32.0568 177.602,29.2234 179.5,26.5C 181.99,24.9172 184.657,23.9172 187.5,23.5C 187.5,22.5 187.5,21.5 187.5,20.5C 190.13,19.5722 192.796,18.5722 195.5,17.5C 202.094,18.883 208.76,19.7163 215.5,20C 216.978,22.0386 218.978,22.8719 221.5,22.5C 221.351,23.552 221.517,24.552 222,25.5C 223.667,26.5 225.333,27.5 227,28.5C 230.202,34.3772 234.202,39.7106 239,44.5C 240.183,50.0847 242.85,54.7514 247,58.5C 247.473,60.779 248.473,62.779 250,64.5C 251.7,71.5895 248.867,75.4229 241.5,76C 240.269,77.4048 238.936,78.5714 237.5,79.5 Z"/></g>
<g><path style="opacity:0.424" fill="#64605f" d="M 77.5,34.5 C 77.8333,34.5 78.1667,34.5 78.5,34.5C 77.5806,37.0892 75.914,39.0892 73.5,40.5C 72.6493,42.8816 71.316,44.8816 69.5,46.5C 69.1667,45.1667 68.8333,45.1667 68.5,46.5C 67.5354,45.2789 67.702,43.9456 69,42.5C 70.6879,39.2776 72.8546,37.2776 75.5,36.5C 76.1667,36.5 76.5,36.1667 76.5,35.5C 77.1667,35.5 77.5,35.1667 77.5,34.5 Z"/></g>
<g><path style="opacity:0.998" fill="#746d66" d="M 242.5,33.5 C 242.833,33.5 243.167,33.5 243.5,33.5C 243.833,34.8333 244.167,34.8333 244.5,33.5C 247.558,36.5935 249.891,40.2601 251.5,44.5C 250.975,45.1924 250.308,45.6924 249.5,46C 250.552,47.1192 251.719,47.6192 253,47.5C 254.458,51.4152 255.624,55.4152 256.5,59.5C 256.023,60.4776 255.357,61.3109 254.5,62C 255.362,64.7344 256.195,64.9011 257,62.5C 258.158,67.1176 258.992,71.7842 259.5,76.5C 259.167,76.5 258.833,76.5 258.5,76.5C 258.737,75.209 258.404,74.209 257.5,73.5C 257.5,73.1667 257.5,72.8333 257.5,72.5C 257.167,71.1667 256.833,71.1667 256.5,72.5C 256.785,74.288 256.452,75.9547 255.5,77.5C 252.916,76.6072 250.249,76.2739 247.5,76.5C 249.744,75.0702 252.244,74.0702 255,73.5C 254.855,70.4857 254.355,67.4857 253.5,64.5C 253.392,62.2166 252.559,60.2166 251,58.5C 250.667,55.1667 250.333,51.8333 250,48.5C 248.482,45.7367 246.648,44.07 244.5,43.5C 243.512,40.2184 242.846,36.8851 242.5,33.5 Z"/></g>
<g><path style="opacity:1" fill="#d7baa2" d="M 58.5,79.5 C 59.1587,76.5448 59.4921,73.5448 59.5,70.5C 60.038,68.8828 60.3713,67.2161 60.5,65.5C 61.1667,65.5 61.5,65.1667 61.5,64.5C 62.3764,64.6309 63.0431,64.2975 63.5,63.5C 65.1981,58.5516 67.3648,53.885 70,49.5C 70.6708,48.7476 71.5041,48.4142 72.5,48.5C 73.7498,48.4226 74.5831,47.756 75,46.5C 76.3236,47.8802 77.6569,48.2135 79,47.5C 79.4922,48.549 79.3256,49.549 78.5,50.5C 80.0049,51.8415 80.6715,53.5082 80.5,55.5C 91.3948,55.4325 102.061,56.9325 112.5,60C 116.317,63.6151 116.483,67.4484 113,71.5C 111.442,73.3589 109.609,74.8589 107.5,76C 98.3638,78.9543 89.0305,80.2876 79.5,80C 77.2097,77.0331 74.3764,74.8665 71,73.5C 69.8118,74.5634 69.3118,75.8967 69.5,77.5C 68.448,77.3505 67.448,77.5172 66.5,78C 64.5792,79.5882 62.5792,81.0882 60.5,82.5C 59.8243,81.3984 59.1577,80.3984 58.5,79.5 Z"/></g>
<g><path style="opacity:1" fill="#ac9680" d="M 253.5,64.5 C 254.355,67.4857 254.855,70.4857 255,73.5C 252.244,74.0702 249.744,75.0702 247.5,76.5C 243.995,77.0238 240.661,78.0238 237.5,79.5C 238.936,78.5714 240.269,77.4048 241.5,76C 248.867,75.4229 251.7,71.5895 250,64.5C 248.473,62.779 247.473,60.779 247,58.5C 242.85,54.7514 240.183,50.0847 239,44.5C 234.202,39.7106 230.202,34.3772 227,28.5C 225.333,27.5 223.667,26.5 222,25.5C 221.517,24.552 221.351,23.552 221.5,22.5C 218.978,22.8719 216.978,22.0386 215.5,20C 208.76,19.7163 202.094,18.883 195.5,17.5C 192.796,18.5722 190.13,19.5722 187.5,20.5C 187.5,21.5 187.5,22.5 187.5,23.5C 184.657,23.9172 181.99,24.9172 179.5,26.5C 177.602,29.2234 175.935,32.0568 174.5,35C 175.13,38.1292 175.796,41.2959 176.5,44.5C 179.205,45.8943 181.538,47.7277 183.5,50C 185.101,50.2734 186.601,50.7734 188,51.5C 189.536,55.6665 191.37,59.6665 193.5,63.5C 193.023,64.4776 192.357,65.3109 191.5,66C 192.357,66.6891 193.023,67.5224 193.5,68.5C 198.12,69.1799 202.787,69.1799 207.5,68.5C 207.793,64.5633 207.46,60.73 206.5,57C 208.671,55.8261 209.671,53.9928 209.5,51.5C 210.5,51.5 211.5,51.5 212.5,51.5C 212.351,52.552 212.517,53.552 213,54.5C 217.234,57.9459 219.4,62.4459 219.5,68C 219.419,70.6254 218.752,72.9587 217.5,75C 219.555,79.63 221.222,84.4634 222.5,89.5C 224.386,90.4063 226.22,91.4063 228,92.5C 231.374,108.664 235.374,124.664 240,140.5C 240.49,139.207 240.657,137.873 240.5,136.5C 241.473,138.948 241.806,141.615 241.5,144.5C 238.31,144.559 235.143,144.893 232,145.5C 229.822,145.605 227.988,144.939 226.5,143.5C 226.389,142.883 226.056,142.383 225.5,142C 222.518,141.502 219.518,141.335 216.5,141.5C 215.459,138.266 214.126,135.099 212.5,132C 204.774,130.047 196.941,128.214 189,126.5C 187.174,125.99 187.007,125.156 188.5,124C 182.031,122.408 176.031,120.075 170.5,117C 169.667,115.5 168.5,114.333 167,113.5C 166.95,108.873 166.117,104.54 164.5,100.5C 163.44,93.5951 161.774,86.9284 159.5,80.5C 159.777,77.5525 159.444,74.7191 158.5,72C 159.318,63.5783 159.818,55.0783 160,46.5C 161.96,40.2906 163.293,33.9572 164,27.5C 167.078,21.4258 171.244,16.2591 176.5,12C 183.995,9.69974 191.662,9.03307 199.5,10C 207.637,11.8975 215.303,14.0642 222.5,16.5C 222.5,17.5 222.5,18.5 222.5,19.5C 223.675,19.281 224.675,19.6143 225.5,20.5C 235.482,28.4245 241.982,38.7578 245,51.5C 247.868,55.9277 250.701,60.261 253.5,64.5 Z"/></g>
<g><path style="opacity:0.541" fill="#77706f" d="M 68.5,46.5 C 68.8333,46.5 69.1667,46.5 69.5,46.5C 68.5324,49.1003 67.1991,51.4336 65.5,53.5C 65.1667,52.1667 64.8333,52.1667 64.5,53.5C 64.1667,53.5 63.8333,53.5 63.5,53.5C 64.0447,51.4068 64.878,49.4068 66,47.5C 67.159,48.566 67.9924,48.2327 68.5,46.5 Z"/></g>
<g><path style="opacity:0.239" fill="#575857" d="M 61.5,57.5 C 61.5,58.1667 61.8333,58.5 62.5,58.5C 62.4828,60.5648 62.1495,62.5648 61.5,64.5C 61.5,65.1667 61.1667,65.5 60.5,65.5C 59.9094,64.8485 59.2427,64.1818 58.5,63.5C 59.1359,61.22 60.1359,59.22 61.5,57.5 Z"/></g>
<g><path style="opacity:0.894" fill="#676565" d="M 60.5,65.5 C 60.3713,67.2161 60.038,68.8828 59.5,70.5C 59.1667,70.5 58.8333,70.5 58.5,70.5C 58.7406,72.8984 58.0739,74.8984 56.5,76.5C 55.1667,76.8333 55.1667,77.1667 56.5,77.5C 56.7678,79.099 56.4345,80.4324 55.5,81.5C 54.1667,81.8333 54.1667,82.1667 55.5,82.5C 55.5,83.1667 55.1667,83.5 54.5,83.5C 53.1667,83.8333 53.1667,84.1667 54.5,84.5C 54.7845,86.4147 54.4511,88.0813 53.5,89.5C 52.1667,89.8333 52.1667,90.1667 53.5,90.5C 53.5,92.8333 53.5,95.1667 53.5,97.5C 53.1667,97.5 52.8333,97.5 52.5,97.5C 52.3921,95.7909 52.2254,93.7909 52,91.5C 51.6667,92.5 51.3333,93.5 51,94.5C 52.0524,84.5827 54.3857,74.9161 58,65.5C 58.7697,66.5981 59.603,66.5981 60.5,65.5 Z"/></g>
<g><path style="opacity:1" fill="#54483e" d="M 196.5,73.5 C 203.232,72.243 208.732,74.243 213,79.5C 213.483,80.448 213.649,81.448 213.5,82.5C 207.667,80.559 201.667,79.2257 195.5,78.5C 188.878,78.1493 183.545,80.4826 179.5,85.5C 178.624,85.6309 177.957,85.2975 177.5,84.5C 182.803,79.0163 189.136,75.3497 196.5,73.5 Z"/></g>
<g><path style="opacity:1" fill="#c5ab93" d="M 58.5,79.5 C 59.1577,80.3984 59.8243,81.3984 60.5,82.5C 62.5792,81.0882 64.5792,79.5882 66.5,78C 67.448,77.5172 68.448,77.3505 69.5,77.5C 69.3118,75.8967 69.8118,74.5634 71,73.5C 74.3764,74.8665 77.2097,77.0331 79.5,80C 89.0305,80.2876 98.3638,78.9543 107.5,76C 109.609,74.8589 111.442,73.3589 113,71.5C 116.483,67.4484 116.317,63.6151 112.5,60C 102.061,56.9325 91.3948,55.4325 80.5,55.5C 80.6715,53.5082 80.0049,51.8415 78.5,50.5C 79.3256,49.549 79.4922,48.549 79,47.5C 77.6569,48.2135 76.3236,47.8802 75,46.5C 74.5831,47.756 73.7498,48.4226 72.5,48.5C 73.6613,41.6676 77.6613,37.3343 84.5,35.5C 87.1895,35.5454 88.5228,36.8787 88.5,39.5C 89.5,39.5 90.5,39.5 91.5,39.5C 91.2924,41.9201 91.6258,44.2534 92.5,46.5C 96.495,48.1637 100.495,49.8304 104.5,51.5C 105.086,51.2907 105.586,50.9574 106,50.5C 110.167,52 114.333,53.5 118.5,55C 118.167,55.3333 117.833,55.6667 117.5,56C 118.849,56.7724 119.682,57.9391 120,59.5C 120.334,63.1991 120.501,66.6991 120.5,70C 116.347,73.5755 112.014,76.9088 107.5,80C 98.804,82.005 90.1374,84.1716 81.5,86.5C 80.5581,86.3918 79.7247,86.0585 79,85.5C 71.8981,89.6027 65.8981,94.2693 61,99.5C 59.6012,99.4988 58.1012,99.1654 56.5,98.5C 55.4118,91.8984 56.0785,85.5651 58.5,79.5 Z"/></g>
<g><path style="opacity:0.999" fill="#3b322b" d="M 247.5,77.5 C 249.92,77.2924 252.253,77.6258 254.5,78.5C 255.631,80.0745 255.798,81.7412 255,83.5C 250.421,82.9912 245.588,82.4912 240.5,82C 241.056,81.6174 241.389,81.1174 241.5,80.5C 243.216,78.9752 245.216,77.9752 247.5,77.5 Z"/></g>
<g><path style="opacity:1" fill="#92806e" d="M 53.5,123.5 C 54.6594,124.456 55.8261,125.456 57,126.5C 63.6454,120.906 70.4787,115.406 77.5,110C 84.5202,110.254 91.5202,110.087 98.5,109.5C 101.26,107.925 103.927,106.091 106.5,104C 106.167,103.667 105.833,103.333 105.5,103C 110.499,98.3856 116.332,92.8856 123,86.5C 133.081,72.8555 136.581,57.1888 133.5,39.5C 132.178,39.67 131.011,39.3366 130,38.5C 127.389,35.2794 125.889,31.6127 125.5,27.5C 124.5,27.5 123.5,27.5 122.5,27.5C 123.091,22.8776 121.924,18.8776 119,15.5C 118.667,16.1667 118.333,16.8333 118,17.5C 115.333,16.1667 112.667,14.8333 110,13.5C 107.518,14.9977 105.018,16.4977 102.5,18C 102.833,18.3333 103.167,18.6667 103.5,19C 100.004,20.0684 96.6711,21.4017 93.5,23C 92.6195,23.7083 91.9528,24.5416 91.5,25.5C 88.2475,27.5616 85.2475,30.0616 82.5,33C 81.552,33.4828 80.552,33.6495 79.5,33.5C 79.1667,32.1667 78.8333,32.1667 78.5,33.5C 77.8333,33.5 77.5,33.8333 77.5,34.5C 76.8333,34.5 76.5,34.8333 76.5,35.5C 75.8333,35.5 75.5,35.8333 75.5,36.5C 74.475,36.1034 74.3083,35.4368 75,34.5C 78.2204,30.9685 81.7204,28.3018 85.5,26.5C 86.1667,26.5 86.5,26.1667 86.5,25.5C 87.1667,25.5 87.5,25.1667 87.5,24.5C 88.1667,24.5 88.5,24.1667 88.5,23.5C 89.1667,23.5 89.5,23.1667 89.5,22.5C 91.8031,20.6753 94.1364,18.8419 96.5,17C 95.5419,15.8525 95.8753,14.8525 97.5,14C 99.18,14.7712 100.847,14.6045 102.5,13.5C 105.006,12.2504 107.673,11.5838 110.5,11.5C 112.766,11.8588 114.599,11.1922 116,9.5C 117.574,10.8476 119.407,11.5142 121.5,11.5C 123.786,10.2448 125.619,10.5781 127,12.5C 129.321,11.6387 130.487,12.6387 130.5,15.5C 132.167,15.5 133.833,15.5 135.5,15.5C 135.328,17.4918 135.995,19.1585 137.5,20.5C 140.204,21.5722 142.87,22.5722 145.5,23.5C 145.664,26.1873 145.497,28.854 145,31.5C 143.35,32.8908 142.85,34.3908 143.5,36C 141.624,38.046 139.624,39.8793 137.5,41.5C 137.709,42.086 138.043,42.586 138.5,43C 137.686,49.7529 137.186,56.5863 137,63.5C 136.082,67.4368 134.915,71.2702 133.5,75C 133.957,75.414 134.291,75.914 134.5,76.5C 131.37,86.3641 125.704,94.3641 117.5,100.5C 118.629,102.529 118.129,102.863 116,101.5C 114.59,103.884 112.59,105.55 110,106.5C 109.51,107.793 109.343,109.127 109.5,110.5C 105.93,110.901 103.764,112.901 103,116.5C 101.758,117.872 100.258,118.872 98.5,119.5C 93.9398,118.496 89.1065,117.496 84,116.5C 81.0746,116.523 78.2413,117.023 75.5,118C 70.6733,121.993 65.6733,125.659 60.5,129C 55.7089,130.38 53.3756,128.547 53.5,123.5 Z"/></g>
<g><path style="opacity:1" fill="#84796e" d="M 196.5,73.5 C 200.634,72.5151 204.968,72.1818 209.5,72.5C 210.858,75.3751 212.858,77.8751 215.5,80C 216.233,81.7659 216.567,83.5992 216.5,85.5C 208.805,84.7818 201.138,83.7818 193.5,82.5C 191.933,82.477 190.6,82.977 189.5,84C 191.833,85.043 194.166,85.8763 196.5,86.5C 197.496,86.4142 198.329,86.7476 199,87.5C 199.497,89.8098 199.663,92.1432 199.5,94.5C 195.253,95.6018 190.92,95.7684 186.5,95C 183.64,91.9699 183.973,89.3032 187.5,87C 185.063,85.6253 182.397,85.1253 179.5,85.5C 183.545,80.4826 188.878,78.1493 195.5,78.5C 201.667,79.2257 207.667,80.559 213.5,82.5C 213.649,81.448 213.483,80.448 213,79.5C 208.732,74.243 203.232,72.243 196.5,73.5 Z"/></g>
<g><path style="opacity:1" fill="#b09b85" d="M 91.5,25.5 C 96.1785,25.3342 100.845,25.5008 105.5,26C 106.26,27.4411 106.926,28.9411 107.5,30.5C 109.341,31.2304 111.175,31.8971 113,32.5C 113.333,34.1667 113.667,35.8333 114,37.5C 116.055,41.4349 119.222,43.7682 123.5,44.5C 124.052,46.3307 124.052,47.9974 123.5,49.5C 124.137,51.3031 125.303,52.6364 127,53.5C 128.377,61.8829 126.711,69.5496 122,76.5C 119.239,77.4992 117.906,79.4992 118,82.5C 113.074,85.6546 107.907,89.1546 102.5,93C 101.939,94.676 100.939,96.0094 99.5,97C 94.3286,97.0103 88.9953,97.3437 83.5,98C 76.5671,101.2 70.7337,105.7 66,111.5C 65.51,112.793 65.3433,114.127 65.5,115.5C 62.5905,116.357 59.9238,117.023 57.5,117.5C 56.2519,116.96 55.0852,116.293 54,115.5C 53.5005,109.509 53.3338,103.509 53.5,97.5C 53.5,95.1667 53.5,92.8333 53.5,90.5C 53.5,90.1667 53.5,89.8333 53.5,89.5C 54.4511,88.0813 54.7845,86.4147 54.5,84.5C 54.5,84.1667 54.5,83.8333 54.5,83.5C 55.1667,83.5 55.5,83.1667 55.5,82.5C 55.5,82.1667 55.5,81.8333 55.5,81.5C 56.4345,80.4324 56.7678,79.099 56.5,77.5C 56.5,77.1667 56.5,76.8333 56.5,76.5C 58.0739,74.8984 58.7406,72.8984 58.5,70.5C 58.8333,70.5 59.1667,70.5 59.5,70.5C 59.4921,73.5448 59.1587,76.5448 58.5,79.5C 56.0785,85.5651 55.4118,91.8984 56.5,98.5C 58.1012,99.1654 59.6012,99.4988 61,99.5C 65.8981,94.2693 71.8981,89.6027 79,85.5C 79.7247,86.0585 80.5581,86.3918 81.5,86.5C 90.1374,84.1716 98.804,82.005 107.5,80C 112.014,76.9088 116.347,73.5755 120.5,70C 120.501,66.6991 120.334,63.1991 120,59.5C 119.682,57.9391 118.849,56.7724 117.5,56C 117.833,55.6667 118.167,55.3333 118.5,55C 114.333,53.5 110.167,52 106,50.5C 105.586,50.9574 105.086,51.2907 104.5,51.5C 100.495,49.8304 96.495,48.1637 92.5,46.5C 91.6258,44.2534 91.2924,41.9201 91.5,39.5C 90.5,39.5 89.5,39.5 88.5,39.5C 88.5228,36.8787 87.1895,35.5454 84.5,35.5C 77.6613,37.3343 73.6613,41.6676 72.5,48.5C 71.5041,48.4142 70.6708,48.7476 70,49.5C 67.3648,53.885 65.1981,58.5516 63.5,63.5C 63.0431,64.2975 62.3764,64.6309 61.5,64.5C 62.1495,62.5648 62.4828,60.5648 62.5,58.5C 61.8333,58.5 61.5,58.1667 61.5,57.5C 61.2291,55.6203 61.8958,54.287 63.5,53.5C 63.8333,54.8333 64.1667,54.8333 64.5,53.5C 64.8333,53.5 65.1667,53.5 65.5,53.5C 67.1991,51.4336 68.5324,49.1003 69.5,46.5C 71.316,44.8816 72.6493,42.8816 73.5,40.5C 75.914,39.0892 77.5806,37.0892 78.5,34.5C 78.5,34.1667 78.5,33.8333 78.5,33.5C 78.8333,33.5 79.1667,33.5 79.5,33.5C 80.552,33.6495 81.552,33.4828 82.5,33C 85.2475,30.0616 88.2475,27.5616 91.5,25.5 Z"/></g>
<g><path style="opacity:1" fill="#5b5149" d="M 256.5,72.5 C 256.833,72.5 257.167,72.5 257.5,72.5C 257.5,72.8333 257.5,73.1667 257.5,73.5C 257.263,74.791 257.596,75.791 258.5,76.5C 258.833,76.5 259.167,76.5 259.5,76.5C 260.482,80.3164 261.149,84.3164 261.5,88.5C 261.167,88.5 260.833,88.5 260.5,88.5C 259.955,84.8284 259.622,85.1617 259.5,89.5C 259.5,89.8333 259.5,90.1667 259.5,90.5C 259.5,90.8333 259.5,91.1667 259.5,91.5C 258.71,90.3915 258.21,89.0581 258,87.5C 257.751,88.624 257.251,89.624 256.5,90.5C 253.742,89.5705 251.076,88.5705 248.5,87.5C 247.575,85.1163 245.742,84.1163 243,84.5C 240.307,84.3602 238.14,85.3602 236.5,87.5C 236.01,83.9426 237.677,81.6092 241.5,80.5C 241.389,81.1174 241.056,81.6174 240.5,82C 245.588,82.4912 250.421,82.9912 255,83.5C 255.798,81.7412 255.631,80.0745 254.5,78.5C 252.253,77.6258 249.92,77.2924 247.5,77.5C 247.5,77.1667 247.5,76.8333 247.5,76.5C 250.249,76.2739 252.916,76.6072 255.5,77.5C 256.452,75.9547 256.785,74.288 256.5,72.5 Z"/></g>
<g><path style="opacity:1" fill="#796a5c" d="M 164.5,109.5 C 164.18,115.162 164.847,120.662 166.5,126C 166.167,126.333 165.833,126.667 165.5,127C 166.088,130.703 167.255,134.203 169,137.5C 169.271,142.53 169.771,147.53 170.5,152.5C 172.407,172.814 181.074,189.648 196.5,203C 196.167,203.333 195.833,203.667 195.5,204C 197.907,206.285 200.407,208.451 203,210.5C 204.12,215.748 207.453,218.414 213,218.5C 215.738,218.424 218.072,217.424 220,215.5C 222.434,216.322 224.934,216.656 227.5,216.5C 223.39,218.041 219.057,219.375 214.5,220.5C 210.671,221.069 207.337,220.402 204.5,218.5C 202.32,213.166 198.154,209.166 192,206.5C 191.544,202.706 189.544,200.039 186,198.5C 183.374,194.044 180.207,190.044 176.5,186.5C 175.754,185.264 175.421,183.93 175.5,182.5C 174.5,182.5 173.5,182.5 172.5,182.5C 172.16,177.153 170.66,172.153 168,167.5C 167.845,161.372 165.679,156.206 161.5,152C 161.889,150.382 163.222,149.215 165.5,148.5C 164.335,147.416 163.002,146.583 161.5,146C 162.308,145.692 162.975,145.192 163.5,144.5C 162.469,143.3 161.635,141.966 161,140.5C 160.892,131.457 161.058,122.624 161.5,114C 160.697,109.586 160.197,105.086 160,100.5C 158.297,95.665 156.297,90.9984 154,86.5C 151.447,87.9247 148.947,89.4247 146.5,91C 147.308,92.7058 148.641,93.5391 150.5,93.5C 150.5,95.5 150.5,97.5 150.5,99.5C 149.5,99.5 148.5,99.5 147.5,99.5C 147.657,98.1266 147.49,96.7932 147,95.5C 145.436,98.4616 145.269,101.462 146.5,104.5C 144.858,107.803 142.858,110.803 140.5,113.5C 139.253,115.042 139.253,116.542 140.5,118C 138.068,120.817 136.068,123.983 134.5,127.5C 130.387,129.688 126.387,132.022 122.5,134.5C 124.167,136.167 123.833,137.167 121.5,137.5C 118.358,135.881 115.025,135.215 111.5,135.5C 111.5,136.5 111.5,137.5 111.5,138.5C 109.801,138.34 108.134,138.506 106.5,139C 105.61,144.053 102.61,146.22 97.5,145.5C 95.3587,145.387 93.5253,144.72 92,143.5C 90.6667,144.833 89.3333,146.167 88,147.5C 86.3333,146.167 84.6667,146.167 83,147.5C 82.6924,146.692 82.1924,146.025 81.5,145.5C 80.7303,147.272 79.3969,148.272 77.5,148.5C 75.164,147.082 72.664,146.082 70,145.5C 68.9412,145.63 68.1079,146.13 67.5,147C 76.5957,148.101 76.7624,149.601 68,151.5C 66.2151,150.76 64.3817,150.093 62.5,149.5C 61.8333,150.833 61.1667,152.167 60.5,153.5C 57.3465,150.156 55.0131,146.489 53.5,142.5C 53.1667,142.5 52.8333,142.5 52.5,142.5C 52.0127,140.596 51.5127,138.263 51,135.5C 50.3333,142.167 49.6667,142.167 49,135.5C 48.0826,123.109 48.416,110.776 50,98.5C 50.3333,99.1667 50.6667,99.8333 51,100.5C 51.2784,99.5842 51.7784,98.9175 52.5,98.5C 52.5237,104.857 52.1904,111.19 51.5,117.5C 51.2247,124.305 52.058,130.972 54,137.5C 56.2557,139.18 58.4224,140.18 60.5,140.5C 62.7725,139.625 63.7725,137.958 63.5,135.5C 65.8211,135.771 67.8211,135.104 69.5,133.5C 70.1667,134.167 70.8333,134.833 71.5,135.5C 75.344,131.695 80.0107,129.695 85.5,129.5C 91.2873,130.575 96.954,131.909 102.5,133.5C 102.993,131.194 103.326,128.861 103.5,126.5C 108.313,125.171 112.979,123.505 117.5,121.5C 118.442,121.608 119.275,121.941 120,122.5C 123.533,119.49 126.699,116.157 129.5,112.5C 130.729,111.719 132.062,111.219 133.5,111C 133.167,110.667 132.833,110.333 132.5,110C 135.349,106.309 137.349,102.142 138.5,97.5C 138.291,96.914 137.957,96.414 137.5,96C 138.926,92.4549 140.426,88.9549 142,85.5C 141.976,78.6088 142.643,71.6088 144,64.5C 147.407,63.8029 148.574,61.9696 147.5,59C 152.131,57.831 152.798,58.9977 149.5,62.5C 151.346,66.5817 152.013,70.915 151.5,75.5C 152.5,75.5 153.5,75.5 154.5,75.5C 154.257,82.6948 156.257,89.0281 160.5,94.5C 161.098,99.835 162.432,104.835 164.5,109.5 Z"/></g>
<g><path style="opacity:1" fill="#2f4c61" d="M 191.5,87.5 C 192.919,86.5489 194.585,86.2155 196.5,86.5C 197.369,88.717 197.702,91.0504 197.5,93.5C 194.833,93.8333 192.167,94.1667 189.5,94.5C 189.198,91.9407 189.532,89.6074 190.5,87.5C 190.181,89.7505 190.681,91.7505 192,93.5C 194.016,92.0448 194.849,90.0448 194.5,87.5C 193.5,87.5 192.5,87.5 191.5,87.5 Z"/></g>
<g><path style="opacity:1" fill="#04121c" d="M 190.5,87.5 C 190.833,87.5 191.167,87.5 191.5,87.5C 192.5,87.5 193.5,87.5 194.5,87.5C 194.849,90.0448 194.016,92.0448 192,93.5C 190.681,91.7505 190.181,89.7505 190.5,87.5 Z"/></g>
<g><path style="opacity:1" fill="#736e6b" d="M 248.5,87.5 C 251.076,88.5705 253.742,89.5705 256.5,90.5C 257.251,89.624 257.751,88.624 258,87.5C 258.21,89.0581 258.71,90.3915 259.5,91.5C 260.833,91.1667 260.833,90.8333 259.5,90.5C 259.5,90.1667 259.5,89.8333 259.5,89.5C 260.167,89.5 260.5,89.1667 260.5,88.5C 260.833,88.5 261.167,88.5 261.5,88.5C 262.807,93.0662 263.474,97.7329 263.5,102.5C 263.167,102.5 262.833,102.5 262.5,102.5C 262.167,94.5 261.833,94.5 261.5,102.5C 261.5,106.5 261.5,110.5 261.5,114.5C 260.833,116.167 260.167,117.833 259.5,119.5C 259.616,116.14 259.949,112.807 260.5,109.5C 260.66,104.434 260.16,99.4342 259,94.5C 257.599,92.8078 255.766,92.1412 253.5,92.5C 252.951,94.9013 252.118,97.2346 251,99.5C 249.989,100.337 248.822,100.67 247.5,100.5C 246.5,99.1667 245.5,97.8333 244.5,96.5C 245.496,96.5858 246.329,96.2524 247,95.5C 247.494,93.8659 247.66,92.1992 247.5,90.5C 246.5,90.5 245.5,90.5 244.5,90.5C 245.833,89.5 247.167,88.5 248.5,87.5 Z"/></g>
<g><path style="opacity:1" fill="#d1b69d" d="M 199.5,94.5 C 203.527,92.6416 207.86,91.9749 212.5,92.5C 201.917,113.251 188.417,114.917 172,97.5C 171.202,95.7412 171.369,94.0745 172.5,92.5C 175.745,92.9737 179.079,92.9737 182.5,92.5C 182.22,95.3882 183.553,96.8882 186.5,97C 190.167,97.6667 193.833,97.6667 197.5,97C 198.756,96.5831 199.423,95.7498 199.5,94.5 Z"/></g>
<g><path style="opacity:1" fill="#938170" d="M 247.5,76.5 C 247.5,76.8333 247.5,77.1667 247.5,77.5C 245.216,77.9752 243.216,78.9752 241.5,80.5C 237.677,81.6092 236.01,83.9426 236.5,87.5C 238.14,85.3602 240.307,84.3602 243,84.5C 245.742,84.1163 247.575,85.1163 248.5,87.5C 247.167,88.5 245.833,89.5 244.5,90.5C 243.258,92.6112 243.258,94.6112 244.5,96.5C 245.5,97.8333 246.5,99.1667 247.5,100.5C 243.756,100.046 241.256,98.0459 240,94.5C 239.751,95.624 239.251,96.624 238.5,97.5C 236.937,96.0552 235.604,94.3885 234.5,92.5C 234.541,101.337 235.541,110.171 237.5,119C 237.472,120.07 237.139,120.903 236.5,121.5C 234.622,111.312 232.622,101.145 230.5,91C 230.946,85.9273 233.28,82.094 237.5,79.5C 240.661,78.0238 243.995,77.0238 247.5,76.5 Z"/></g>
<g><path style="opacity:1" fill="#0a151e" d="M 244.5,90.5 C 245.5,90.5 246.5,90.5 247.5,90.5C 247.66,92.1992 247.494,93.8659 247,95.5C 246.329,96.2524 245.496,96.5858 244.5,96.5C 243.258,94.6112 243.258,92.6112 244.5,90.5 Z"/></g>
<g><path style="opacity:1" fill="#a8937e" d="M 247.5,100.5 C 248.822,100.67 249.989,100.337 251,99.5C 252.118,97.2346 252.951,94.9013 253.5,92.5C 255.766,92.1412 257.599,92.8078 259,94.5C 260.16,99.4342 260.66,104.434 260.5,109.5C 259.5,109.5 258.5,109.5 257.5,109.5C 255.121,119.592 250.621,128.592 244,136.5C 242.615,135.449 241.615,134.116 241,132.5C 240.601,132.728 240.435,133.062 240.5,133.5C 238.875,129.697 237.542,125.697 236.5,121.5C 237.139,120.903 237.472,120.07 237.5,119C 235.541,110.171 234.541,101.337 234.5,92.5C 235.604,94.3885 236.937,96.0552 238.5,97.5C 239.251,96.624 239.751,95.624 240,94.5C 241.256,98.0459 243.756,100.046 247.5,100.5 Z"/></g>
<g><path style="opacity:1" fill="#9b8774" d="M 164.5,100.5 C 166.117,104.54 166.95,108.873 167,113.5C 168.5,114.333 169.667,115.5 170.5,117C 176.031,120.075 182.031,122.408 188.5,124C 187.007,125.156 187.174,125.99 189,126.5C 196.941,128.214 204.774,130.047 212.5,132C 214.126,135.099 215.459,138.266 216.5,141.5C 219.518,141.335 222.518,141.502 225.5,142C 226.056,142.383 226.389,142.883 226.5,143.5C 222.416,143.043 218.583,143.71 215,145.5C 214.482,140.719 213.148,140.386 211,144.5C 209.563,150.508 209.396,156.508 210.5,162.5C 211.933,164.122 213.599,165.455 215.5,166.5C 214.088,167.806 212.421,168.64 210.5,169C 206.809,169.42 203.142,169.92 199.5,170.5C 199.562,174.568 201.562,177.235 205.5,178.5C 208.297,180.653 211.297,182.319 214.5,183.5C 218.759,183.203 222.759,182.036 226.5,180C 229.187,178.951 231.52,177.451 233.5,175.5C 235.117,174.962 236.784,174.629 238.5,174.5C 235.302,187.626 231.635,200.626 227.5,213.5C 225.021,214.072 222.687,214.072 220.5,213.5C 218.438,214.729 216.271,215.729 214,216.5C 211.708,216.219 209.542,215.552 207.5,214.5C 202.906,206.727 198.072,199.061 193,191.5C 187.148,184.673 182.148,177.673 178,170.5C 174.662,163.806 173.495,156.806 174.5,149.5C 174.061,147.896 173.394,146.396 172.5,145C 172.645,144.228 172.978,143.561 173.5,143C 170.439,131.733 167.439,120.566 164.5,109.5C 164.5,106.5 164.5,103.5 164.5,100.5 Z"/></g>
<g><path style="opacity:1" fill="#64594d" d="M 204.5,218.5 C 207.337,220.402 210.671,221.069 214.5,220.5C 212.696,221.162 210.696,221.495 208.5,221.5C 205.186,221.657 202.186,220.991 199.5,219.5C 196.197,216.329 192.197,214.162 187.5,213C 182.121,206.814 175.455,202.981 167.5,201.5C 167.762,200.022 167.429,198.689 166.5,197.5C 164.697,196.863 163.364,195.697 162.5,194C 154.523,193.174 149.523,189.008 147.5,181.5C 146.167,181.5 144.833,181.5 143.5,181.5C 143.5,180.167 143.5,178.833 143.5,177.5C 137.722,177.473 132.056,176.64 126.5,175C 125.792,172.232 124.292,171.399 122,172.5C 118.415,171.074 114.749,169.74 111,168.5C 110.692,169.308 110.192,169.975 109.5,170.5C 108.561,174.898 107.895,179.065 107.5,183C 108.461,188.348 109.961,193.515 112,198.5C 114.012,204.453 116.512,210.12 119.5,215.5C 120.873,215.657 122.207,215.49 123.5,215C 124.05,213.155 125.05,211.655 126.5,210.5C 129.503,211.085 132.503,211.752 135.5,212.5C 141.759,216.461 147.425,221.127 152.5,226.5C 156.791,226.861 160.791,228.028 164.5,230C 165.098,234.345 166.432,238.345 168.5,242C 168.386,245.289 167.719,248.456 166.5,251.5C 168.478,254.874 168.811,258.374 167.5,262C 168.13,263.31 169.13,264.144 170.5,264.5C 169.612,267.243 168.445,269.91 167,272.5C 165.108,273.13 163.441,274.13 162,275.5C 161.727,273.899 161.227,272.399 160.5,271C 160.833,270 161.167,269 161.5,268C 160.692,267.692 160.025,267.192 159.5,266.5C 160.056,263.737 160.222,260.737 160,257.5C 159.465,259.271 158.631,259.604 157.5,258.5C 158.479,256.721 158.146,255.055 156.5,253.5C 157.668,248.839 157.668,244.172 156.5,239.5C 155.5,239.5 154.5,239.5 153.5,239.5C 153.762,238.022 153.429,236.689 152.5,235.5C 147.436,231.434 142.102,227.768 136.5,224.5C 134.556,225.189 132.556,225.689 130.5,226C 127.631,229.204 124.465,232.037 121,234.5C 117.971,224.644 113.804,215.311 108.5,206.5C 108.043,205.702 107.376,205.369 106.5,205.5C 104.469,200.226 101.969,195.226 99,190.5C 98.4033,184.059 97.2367,177.725 95.5,171.5C 97.1,166.965 98.1,162.298 98.5,157.5C 100.527,157.662 102.527,157.495 104.5,157C 106.334,154.797 108.168,152.63 110,150.5C 110.893,151.081 111.893,151.415 113,151.5C 116.812,150.854 120.646,150.354 124.5,150C 127.075,147.555 130.075,146.055 133.5,145.5C 133.5,144.5 133.5,143.5 133.5,142.5C 135.429,142.769 137.095,142.269 138.5,141C 137.833,140.667 137.167,140.333 136.5,140C 138.043,137.298 140.376,136.132 143.5,136.5C 143.5,138.833 143.5,141.167 143.5,143.5C 144.833,143.5 146.167,143.5 147.5,143.5C 146.985,147.796 148.152,151.463 151,154.5C 151.192,156.577 151.692,158.577 152.5,160.5C 154.931,163.105 156.764,166.105 158,169.5C 160.386,170.763 162.219,172.597 163.5,175C 162.5,175.333 161.5,175.667 160.5,176C 161.743,178.116 162.909,180.282 164,182.5C 165.011,183.337 166.178,183.67 167.5,183.5C 168.576,187.745 171.242,190.578 175.5,192C 176.833,194 178.167,196 179.5,198C 182.364,199.413 185.03,200.913 187.5,202.5C 187.343,203.873 187.51,205.207 188,206.5C 192.901,211.272 198.401,215.272 204.5,218.5 Z"/></g>
<g><path style="opacity:1" fill="#726356" d="M 204.5,218.5 C 198.401,215.272 192.901,211.272 188,206.5C 187.51,205.207 187.343,203.873 187.5,202.5C 185.03,200.913 182.364,199.413 179.5,198C 178.167,196 176.833,194 175.5,192C 171.242,190.578 168.576,187.745 167.5,183.5C 166.178,183.67 165.011,183.337 164,182.5C 162.909,180.282 161.743,178.116 160.5,176C 161.5,175.667 162.5,175.333 163.5,175C 162.219,172.597 160.386,170.763 158,169.5C 156.764,166.105 154.931,163.105 152.5,160.5C 151.692,158.577 151.192,156.577 151,154.5C 148.152,151.463 146.985,147.796 147.5,143.5C 146.167,143.5 144.833,143.5 143.5,143.5C 143.5,141.167 143.5,138.833 143.5,136.5C 140.376,136.132 138.043,137.298 136.5,140C 137.167,140.333 137.833,140.667 138.5,141C 137.095,142.269 135.429,142.769 133.5,142.5C 133.5,143.5 133.5,144.5 133.5,145.5C 130.075,146.055 127.075,147.555 124.5,150C 120.646,150.354 116.812,150.854 113,151.5C 111.893,151.415 110.893,151.081 110,150.5C 108.168,152.63 106.334,154.797 104.5,157C 102.527,157.495 100.527,157.662 98.5,157.5C 98.1,162.298 97.1,166.965 95.5,171.5C 97.2367,177.725 98.4033,184.059 99,190.5C 101.969,195.226 104.469,200.226 106.5,205.5C 105.167,207.5 105.167,209.5 106.5,211.5C 105.448,211.649 104.448,211.483 103.5,211C 104.258,209.636 103.758,208.469 102,207.5C 100.951,208.517 99.7839,208.684 98.5,208C 95.9361,204.383 92.6028,201.716 88.5,200C 89.3802,198.644 89.7135,197.144 89.5,195.5C 86.1016,195.18 82.7683,195.513 79.5,196.5C 76.1524,202.15 75.1524,208.15 76.5,214.5C 77.094,216.41 77.4274,218.41 77.5,220.5C 76.782,231.821 76.282,243.155 76,254.5C 74.4543,262.352 72.4543,270.019 70,277.5C 66.8451,283.194 66.6785,289.027 69.5,295C 71.8333,295.333 74.1667,295.667 76.5,296C 78.596,297.766 80.9293,299.099 83.5,300C 89.4832,301.031 95.4832,301.864 101.5,302.5C 110.656,304.648 119.989,305.814 129.5,306C 131.332,306.748 132.999,307.748 134.5,309C 145.167,309.667 155.833,309.667 166.5,309C 170.594,308.443 174.594,307.61 178.5,306.5C 177.359,308.229 175.693,309.229 173.5,309.5C 155.888,311.491 138.221,311.991 120.5,311C 104.761,307.595 89.0942,304.095 73.5,300.5C 71.5168,299.529 69.5168,298.529 67.5,297.5C 67.5,296.833 67.1667,296.5 66.5,296.5C 66.1667,295.167 65.8333,295.167 65.5,296.5C 64.0027,294.71 63.336,292.544 63.5,290C 65.4559,281.222 67.2892,272.388 69,263.5C 69.4999,250.504 69.6666,237.504 69.5,224.5C 69.8333,224.5 70.1667,224.5 70.5,224.5C 70.1714,237.011 70.5048,249.345 71.5,261.5C 72.3019,260.048 72.8019,258.382 73,256.5C 73.8685,239.099 73.3685,221.765 71.5,204.5C 72.4415,204.511 73.1081,204.011 73.5,203C 71.6591,197.69 70.9925,192.19 71.5,186.5C 70.1667,186.5 68.8333,186.5 67.5,186.5C 67.6621,184.473 67.4955,182.473 67,180.5C 64.2744,175.823 62.4411,170.823 61.5,165.5C 59.1491,163.893 58.4824,161.893 59.5,159.5C 58.2105,155.956 56.5439,152.623 54.5,149.5C 53.7766,147.218 53.4433,144.884 53.5,142.5C 55.0131,146.489 57.3465,150.156 60.5,153.5C 61.1667,152.167 61.8333,150.833 62.5,149.5C 64.3817,150.093 66.2151,150.76 68,151.5C 76.7624,149.601 76.5957,148.101 67.5,147C 68.1079,146.13 68.9412,145.63 70,145.5C 72.664,146.082 75.164,147.082 77.5,148.5C 79.3969,148.272 80.7303,147.272 81.5,145.5C 82.1924,146.025 82.6924,146.692 83,147.5C 84.6667,146.167 86.3333,146.167 88,147.5C 89.3333,146.167 90.6667,144.833 92,143.5C 93.5253,144.72 95.3587,145.387 97.5,145.5C 102.61,146.22 105.61,144.053 106.5,139C 108.134,138.506 109.801,138.34 111.5,138.5C 111.5,137.5 111.5,136.5 111.5,135.5C 115.025,135.215 118.358,135.881 121.5,137.5C 123.833,137.167 124.167,136.167 122.5,134.5C 126.387,132.022 130.387,129.688 134.5,127.5C 136.068,123.983 138.068,120.817 140.5,118C 139.253,116.542 139.253,115.042 140.5,113.5C 142.858,110.803 144.858,107.803 146.5,104.5C 145.269,101.462 145.436,98.4616 147,95.5C 147.49,96.7932 147.657,98.1266 147.5,99.5C 148.5,99.5 149.5,99.5 150.5,99.5C 150.5,97.5 150.5,95.5 150.5,93.5C 148.641,93.5391 147.308,92.7058 146.5,91C 148.947,89.4247 151.447,87.9247 154,86.5C 156.297,90.9984 158.297,95.665 160,100.5C 160.197,105.086 160.697,109.586 161.5,114C 161.058,122.624 160.892,131.457 161,140.5C 161.635,141.966 162.469,143.3 163.5,144.5C 162.975,145.192 162.308,145.692 161.5,146C 163.002,146.583 164.335,147.416 165.5,148.5C 163.222,149.215 161.889,150.382 161.5,152C 165.679,156.206 167.845,161.372 168,167.5C 170.66,172.153 172.16,177.153 172.5,182.5C 173.5,182.5 174.5,182.5 175.5,182.5C 175.421,183.93 175.754,185.264 176.5,186.5C 180.207,190.044 183.374,194.044 186,198.5C 189.544,200.039 191.544,202.706 192,206.5C 198.154,209.166 202.32,213.166 204.5,218.5 Z"/></g>
<g><path style="opacity:0.997" fill="#5d544c" d="M 261.5,102.5 C 261.833,102.5 262.167,102.5 262.5,102.5C 262.833,117.167 263.167,117.167 263.5,102.5C 264.681,113.094 263.348,123.428 259.5,133.5C 259.79,129.446 259.123,128.946 257.5,132C 258.056,132.383 258.389,132.883 258.5,133.5C 258.254,136.293 258.087,139.293 258,142.5C 257.167,144 256,145.167 254.5,146C 255.516,146.519 256.182,147.353 256.5,148.5C 255.004,154.828 253.504,161.162 252,167.5C 251.667,166.5 251.333,165.5 251,164.5C 249.436,166.665 249.603,168.332 251.5,169.5C 250.864,171.78 249.864,173.78 248.5,175.5C 248.167,174.167 247.833,174.167 247.5,175.5C 246.167,176.5 246.167,177.5 247.5,178.5C 243.56,186.942 239.393,195.275 235,203.5C 234.685,205.586 234.185,207.586 233.5,209.5C 233.167,209.5 232.833,209.5 232.5,209.5C 232.167,208.167 231.833,208.167 231.5,209.5C 231.5,209.833 231.5,210.167 231.5,210.5C 231.167,210.5 230.833,210.5 230.5,210.5C 230.338,208.473 230.505,206.473 231,204.5C 231.383,203.944 231.883,203.611 232.5,203.5C 233.677,198.972 235.011,194.472 236.5,190C 240.819,180.835 245.152,171.669 249.5,162.5C 248.907,160.618 248.24,158.785 247.5,157C 249.679,152.092 250.846,146.926 251,141.5C 253.525,134.099 256.358,126.766 259.5,119.5C 260.167,117.833 260.833,116.167 261.5,114.5C 261.5,110.5 261.5,106.5 261.5,102.5 Z M 259.5,133.5 C 259.167,133.5 258.833,133.5 258.5,133.5C 258.389,132.883 258.056,132.383 257.5,132C 259.123,128.946 259.79,129.446 259.5,133.5 Z"/></g>
<g><path style="opacity:1" fill="#837363" d="M 164.5,109.5 C 167.439,120.566 170.439,131.733 173.5,143C 172.978,143.561 172.645,144.228 172.5,145C 173.394,146.396 174.061,147.896 174.5,149.5C 173.495,156.806 174.662,163.806 178,170.5C 182.148,177.673 187.148,184.673 193,191.5C 198.072,199.061 202.906,206.727 207.5,214.5C 209.542,215.552 211.708,216.219 214,216.5C 216.271,215.729 218.438,214.729 220.5,213.5C 222.687,214.072 225.021,214.072 227.5,213.5C 231.635,200.626 235.302,187.626 238.5,174.5C 236.784,174.629 235.117,174.962 233.5,175.5C 236.099,173.521 238.765,171.521 241.5,169.5C 240.398,168.824 239.398,168.158 238.5,167.5C 239.5,167.5 240.5,167.5 241.5,167.5C 241.603,163.251 242.27,159.084 243.5,155C 242.721,150.445 240.388,149.445 236.5,152C 232.599,154.321 228.933,156.821 225.5,159.5C 227.575,155.861 230.241,152.695 233.5,150C 236.539,149.647 239.205,148.48 241.5,146.5C 232.646,145.913 223.646,145.913 214.5,146.5C 214.716,148.681 213.883,150.347 212,151.5C 211.502,154.817 211.335,158.15 211.5,161.5C 212.5,161.5 213.5,161.5 214.5,161.5C 214.458,163.849 215.625,165.182 218,165.5C 220.36,163.96 222.526,162.293 224.5,160.5C 223.585,162.754 222.252,164.754 220.5,166.5C 220.709,167.086 221.043,167.586 221.5,168C 223.81,168.497 226.143,168.663 228.5,168.5C 223.349,169.327 218.016,169.827 212.5,170C 219.485,171.52 226.485,171.853 233.5,171C 227.993,174.38 221.993,175.38 215.5,174C 210.567,172.257 205.567,171.757 200.5,172.5C 202.531,174.31 204.198,176.31 205.5,178.5C 201.562,177.235 199.562,174.568 199.5,170.5C 203.142,169.92 206.809,169.42 210.5,169C 212.421,168.64 214.088,167.806 215.5,166.5C 213.599,165.455 211.933,164.122 210.5,162.5C 209.396,156.508 209.563,150.508 211,144.5C 213.148,140.386 214.482,140.719 215,145.5C 218.583,143.71 222.416,143.043 226.5,143.5C 227.988,144.939 229.822,145.605 232,145.5C 235.143,144.893 238.31,144.559 241.5,144.5C 241.806,141.615 241.473,138.948 240.5,136.5C 240.5,135.5 240.5,134.5 240.5,133.5C 240.435,133.062 240.601,132.728 241,132.5C 241.615,134.116 242.615,135.449 244,136.5C 250.621,128.592 255.121,119.592 257.5,109.5C 258.5,109.5 259.5,109.5 260.5,109.5C 259.949,112.807 259.616,116.14 259.5,119.5C 256.358,126.766 253.525,134.099 251,141.5C 250.846,146.926 249.679,152.092 247.5,157C 248.24,158.785 248.907,160.618 249.5,162.5C 245.152,171.669 240.819,180.835 236.5,190C 235.011,194.472 233.677,198.972 232.5,203.5C 231.883,203.611 231.383,203.944 231,204.5C 230.505,206.473 230.338,208.473 230.5,210.5C 230.833,211.833 231.167,211.833 231.5,210.5C 231.5,210.167 231.5,209.833 231.5,209.5C 231.833,209.5 232.167,209.5 232.5,209.5C 232.833,209.5 233.167,209.5 233.5,209.5C 232.89,210.391 232.557,211.391 232.5,212.5C 232.167,212.5 231.833,212.5 231.5,212.5C 230.833,212.5 230.5,212.833 230.5,213.5C 229.167,214.167 228.167,215.167 227.5,216.5C 224.934,216.656 222.434,216.322 220,215.5C 218.072,217.424 215.738,218.424 213,218.5C 207.453,218.414 204.12,215.748 203,210.5C 200.407,208.451 197.907,206.285 195.5,204C 195.833,203.667 196.167,203.333 196.5,203C 181.074,189.648 172.407,172.814 170.5,152.5C 169.771,147.53 169.271,142.53 169,137.5C 167.255,134.203 166.088,130.703 165.5,127C 165.833,126.667 166.167,126.333 166.5,126C 164.847,120.662 164.18,115.162 164.5,109.5 Z"/></g>
<g><path style="opacity:1" fill="#5a4f43" d="M 225.5,159.5 C 224.833,159.5 224.5,159.833 224.5,160.5C 222.526,162.293 220.36,163.96 218,165.5C 215.625,165.182 214.458,163.849 214.5,161.5C 213.5,161.5 212.5,161.5 211.5,161.5C 211.335,158.15 211.502,154.817 212,151.5C 213.883,150.347 214.716,148.681 214.5,146.5C 223.646,145.913 232.646,145.913 241.5,146.5C 239.205,148.48 236.539,149.647 233.5,150C 230.241,152.695 227.575,155.861 225.5,159.5 Z"/></g>
<g><path style="opacity:1" fill="#968371" d="M 238.5,167.5 C 235.061,167.253 231.728,167.586 228.5,168.5C 226.143,168.663 223.81,168.497 221.5,168C 221.043,167.586 220.709,167.086 220.5,166.5C 222.252,164.754 223.585,162.754 224.5,160.5C 224.5,159.833 224.833,159.5 225.5,159.5C 228.933,156.821 232.599,154.321 236.5,152C 240.388,149.445 242.721,150.445 243.5,155C 242.27,159.084 241.603,163.251 241.5,167.5C 240.5,167.5 239.5,167.5 238.5,167.5 Z"/></g>
<g><path style="opacity:1" fill="#584c41" d="M 238.5,167.5 C 239.398,168.158 240.398,168.824 241.5,169.5C 238.765,171.521 236.099,173.521 233.5,175.5C 231.52,177.451 229.187,178.951 226.5,180C 222.759,182.036 218.759,183.203 214.5,183.5C 211.297,182.319 208.297,180.653 205.5,178.5C 204.198,176.31 202.531,174.31 200.5,172.5C 205.567,171.757 210.567,172.257 215.5,174C 221.993,175.38 227.993,174.38 233.5,171C 226.485,171.853 219.485,171.52 212.5,170C 218.016,169.827 223.349,169.327 228.5,168.5C 231.728,167.586 235.061,167.253 238.5,167.5 Z"/></g>
<g><path style="opacity:0.006" fill="#1a1919" d="M 247.5,175.5 C 247.833,175.5 248.167,175.5 248.5,175.5C 248.737,176.791 248.404,177.791 247.5,178.5C 247.5,177.5 247.5,176.5 247.5,175.5 Z"/></g>
<g><path style="opacity:1" fill="#574d42" d="M 199.5,219.5 C 195.498,218.398 191.498,217.232 187.5,216C 182.546,211.363 176.879,208.03 170.5,206C 169.874,205.25 169.374,204.416 169,203.5C 168.107,204.081 167.107,204.415 166,204.5C 160.49,200.408 154.323,197.741 147.5,196.5C 148.041,192.705 146.375,190.705 142.5,190.5C 141.885,188.884 140.885,187.551 139.5,186.5C 136.721,185.611 134.055,184.444 131.5,183C 128.833,182.333 126.167,182.333 123.5,183C 125.099,184.786 125.933,186.953 126,189.5C 132.487,195.493 137.654,202.493 141.5,210.5C 145.655,214.488 149.655,218.655 153.5,223C 160.393,225.304 167.393,227.471 174.5,229.5C 173.833,231.167 173.167,232.833 172.5,234.5C 173.025,235.192 173.692,235.692 174.5,236C 173.716,242.162 173.05,248.662 172.5,255.5C 173.833,255.5 175.167,255.5 176.5,255.5C 174.866,258.715 172.866,261.715 170.5,264.5C 169.13,264.144 168.13,263.31 167.5,262C 168.811,258.374 168.478,254.874 166.5,251.5C 167.719,248.456 168.386,245.289 168.5,242C 166.432,238.345 165.098,234.345 164.5,230C 160.791,228.028 156.791,226.861 152.5,226.5C 147.425,221.127 141.759,216.461 135.5,212.5C 132.503,211.752 129.503,211.085 126.5,210.5C 125.05,211.655 124.05,213.155 123.5,215C 122.207,215.49 120.873,215.657 119.5,215.5C 116.512,210.12 114.012,204.453 112,198.5C 109.961,193.515 108.461,188.348 107.5,183C 107.895,179.065 108.561,174.898 109.5,170.5C 110.192,169.975 110.692,169.308 111,168.5C 114.749,169.74 118.415,171.074 122,172.5C 124.292,171.399 125.792,172.232 126.5,175C 132.056,176.64 137.722,177.473 143.5,177.5C 143.5,178.833 143.5,180.167 143.5,181.5C 144.833,181.5 146.167,181.5 147.5,181.5C 149.523,189.008 154.523,193.174 162.5,194C 163.364,195.697 164.697,196.863 166.5,197.5C 167.429,198.689 167.762,200.022 167.5,201.5C 175.455,202.981 182.121,206.814 187.5,213C 192.197,214.162 196.197,216.329 199.5,219.5 Z"/></g>
<g><path style="opacity:1" fill="#5f564d" d="M 52.5,142.5 C 52.8333,142.5 53.1667,142.5 53.5,142.5C 53.4433,144.884 53.7766,147.218 54.5,149.5C 56.5439,152.623 58.2105,155.956 59.5,159.5C 58.4824,161.893 59.1491,163.893 61.5,165.5C 62.4411,170.823 64.2744,175.823 67,180.5C 67.4955,182.473 67.6621,184.473 67.5,186.5C 68.8333,186.5 70.1667,186.5 71.5,186.5C 70.9925,192.19 71.6591,197.69 73.5,203C 73.1081,204.011 72.4415,204.511 71.5,204.5C 73.3685,221.765 73.8685,239.099 73,256.5C 72.8019,258.382 72.3019,260.048 71.5,261.5C 71.8361,247.781 71.5027,235.448 70.5,224.5C 70.1667,224.5 69.8333,224.5 69.5,224.5C 68.3326,214.83 66.3326,205.33 63.5,196C 63.7591,194.739 64.4258,193.739 65.5,193C 63.9391,192.682 62.7724,191.849 62,190.5C 60.8333,186.833 59.6667,183.167 58.5,179.5C 58.8457,178.304 59.3457,178.304 60,179.5C 59.8516,178.175 60.0183,177.008 60.5,176C 58.9391,175.682 57.7724,174.849 57,173.5C 53.9768,163.717 51.9768,153.717 51,143.5C 52.0076,148.541 52.5076,148.208 52.5,142.5 Z"/></g>
<g><path style="opacity:1" fill="#b8a089" d="M 229.5,181.5 C 231.359,181.461 232.692,182.294 233.5,184C 231.675,188.805 229.841,193.639 228,198.5C 224.004,201.42 219.671,203.754 215,205.5C 214.167,205.167 213.333,204.833 212.5,204.5C 209.412,199.99 206.578,195.324 204,190.5C 202.49,185.336 203.99,183.836 208.5,186C 211.167,186.667 213.833,186.667 216.5,186C 220.46,184.909 224.46,183.909 228.5,183C 229.056,182.617 229.389,182.117 229.5,181.5 Z"/></g>
<g><path style="opacity:1" fill="#3c352f" d="M 193.5,224.5 C 185.552,221.239 177.552,218.072 169.5,215C 167.5,214.333 165.5,214.333 163.5,215C 162.397,216.68 162.73,218.18 164.5,219.5C 171.469,222.501 178.803,224.334 186.5,225C 186.968,228.535 187.635,232.368 188.5,236.5C 189.183,236.137 189.85,235.804 190.5,235.5C 190.328,236.492 190.662,237.158 191.5,237.5C 190.781,239.764 190.448,242.097 190.5,244.5C 190.167,244.5 189.833,244.5 189.5,244.5C 189.672,243.508 189.338,242.842 188.5,242.5C 188.5,242.167 188.5,241.833 188.5,241.5C 189.833,241.167 189.833,240.833 188.5,240.5C 185.676,240.989 184.343,242.656 184.5,245.5C 183.5,245.5 182.5,245.5 181.5,245.5C 181.94,239.264 182.607,233.097 183.5,227C 170.482,226.407 159.315,221.573 150,212.5C 147.04,207.544 143.874,202.877 140.5,198.5C 141.822,198.67 142.989,198.337 144,197.5C 151.422,200.793 158.922,203.959 166.5,207C 172.266,212.218 178.933,215.885 186.5,218C 188.444,220.629 190.777,222.796 193.5,224.5 Z"/></g>
<g><path style="opacity:1" fill="#716356" d="M 106.5,205.5 C 107.376,205.369 108.043,205.702 108.5,206.5C 113.804,215.311 117.971,224.644 121,234.5C 124.465,232.037 127.631,229.204 130.5,226C 132.556,225.689 134.556,225.189 136.5,224.5C 142.102,227.768 147.436,231.434 152.5,235.5C 153.429,236.689 153.762,238.022 153.5,239.5C 154.5,239.5 155.5,239.5 156.5,239.5C 157.668,244.172 157.668,248.839 156.5,253.5C 158.146,255.055 158.479,256.721 157.5,258.5C 158.631,259.604 159.465,259.271 160,257.5C 160.222,260.737 160.056,263.737 159.5,266.5C 160.025,267.192 160.692,267.692 161.5,268C 161.167,269 160.833,270 160.5,271C 161.227,272.399 161.727,273.899 162,275.5C 163.441,274.13 165.108,273.13 167,272.5C 168.445,269.91 169.612,267.243 170.5,264.5C 172.866,261.715 174.866,258.715 176.5,255.5C 178.6,253.502 180.6,251.335 182.5,249C 183.793,248.51 185.127,248.343 186.5,248.5C 186.178,254.358 186.511,260.025 187.5,265.5C 187.833,266.833 188.167,266.833 188.5,265.5C 188.5,265.167 188.5,264.833 188.5,264.5C 188.5,263.167 188.5,261.833 188.5,260.5C 188.833,260.5 189.167,260.5 189.5,260.5C 189.768,267.881 191.101,275.048 193.5,282C 192.944,283.011 192.278,283.844 191.5,284.5C 191.666,288.514 191.499,292.514 191,296.5C 190.292,297.381 189.458,298.047 188.5,298.5C 188.749,285.81 186.582,273.476 182,261.5C 180.867,259.789 179.367,259.289 177.5,260C 175.21,261.777 173.543,263.944 172.5,266.5C 170.271,269.184 168.605,272.184 167.5,275.5C 164.045,279.519 160.711,283.519 157.5,287.5C 155.52,286.152 154.353,284.152 154,281.5C 152.082,273.54 150.082,265.54 148,257.5C 147.667,257.833 147.333,258.167 147,258.5C 144.119,255.228 140.452,253.561 136,253.5C 132.497,254.504 128.997,255.504 125.5,256.5C 124.228,256.43 123.062,256.097 122,255.5C 116.109,244.352 112.609,232.852 111.5,221C 109.562,217.917 107.896,214.751 106.5,211.5C 105.167,209.5 105.167,207.5 106.5,205.5 Z"/></g>
<g><path style="opacity:1" fill="#272522" d="M 193.5,224.5 C 198.671,226.349 204.004,226.849 209.5,226C 210.5,225 211.5,224 212.5,223C 217.549,221.971 222.549,220.804 227.5,219.5C 227.5,219.833 227.5,220.167 227.5,220.5C 226.833,220.5 226.5,220.833 226.5,221.5C 225.833,221.5 225.5,221.833 225.5,222.5C 224.833,222.5 224.5,222.833 224.5,223.5C 223.833,223.5 223.5,223.833 223.5,224.5C 222.508,224.328 221.842,224.662 221.5,225.5C 219.597,225.796 217.93,226.463 216.5,227.5C 213.941,227.198 211.607,227.532 209.5,228.5C 204.95,227.867 200.45,227.867 196,228.5C 194.629,229.581 193.129,230.415 191.5,231C 192.308,231.308 192.975,231.808 193.5,232.5C 192.972,234.336 192.306,236.003 191.5,237.5C 191.754,235.599 191.42,234.933 190.5,235.5C 189.85,235.804 189.183,236.137 188.5,236.5C 187.635,232.368 186.968,228.535 186.5,225C 178.803,224.334 171.469,222.501 164.5,219.5C 162.73,218.18 162.397,216.68 163.5,215C 165.5,214.333 167.5,214.333 169.5,215C 177.552,218.072 185.552,221.239 193.5,224.5 Z"/></g>
<g><path style="opacity:0.012" fill="#565454" d="M 227.5,220.5 C 227.833,220.5 228.167,220.5 228.5,220.5C 228.315,221.17 227.981,221.17 227.5,220.5 Z"/></g>
<g><path style="opacity:0.008" fill="#7d7e7d" d="M 226.5,221.5 C 226.833,221.5 227.167,221.5 227.5,221.5C 227.315,222.17 226.981,222.17 226.5,221.5 Z"/></g>
<g><path style="opacity:0.024" fill="#282c2c" d="M 225.5,222.5 C 225.833,222.5 226.167,222.5 226.5,222.5C 226.315,223.17 225.981,223.17 225.5,222.5 Z"/></g>
<g><path style="opacity:0.02" fill="#313432" d="M 224.5,223.5 C 224.833,223.5 225.167,223.5 225.5,223.5C 225.315,224.17 224.981,224.17 224.5,223.5 Z"/></g>
<g><path style="opacity:0.012" fill="#000100" d="M 223.5,224.5 C 223.833,224.5 224.167,224.5 224.5,224.5C 224.315,225.17 223.981,225.17 223.5,224.5 Z"/></g>
<g><path style="opacity:0.006" fill="#010001" d="M 221.5,225.5 C 222.167,225.5 222.833,225.5 223.5,225.5C 221.606,228.187 220.939,228.187 221.5,225.5 Z"/></g>
<g><path style="opacity:0.02" fill="#1c292c" d="M 216.5,228.5 C 216.5,228.167 216.5,227.833 216.5,227.5C 220.5,227.833 220.5,228.167 216.5,228.5 Z"/></g>
<g><path style="opacity:0.016" fill="#131725" d="M 209.5,229.5 C 209.5,229.167 209.5,228.833 209.5,228.5C 211.833,228.5 214.167,228.5 216.5,228.5C 214.393,229.468 212.059,229.802 209.5,229.5 Z"/></g>
<g><path style="opacity:1" fill="#4c433b" d="M 199.5,219.5 C 202.186,220.991 205.186,221.657 208.5,221.5C 210.696,221.495 212.696,221.162 214.5,220.5C 219.057,219.375 223.39,218.041 227.5,216.5C 228.167,215.167 229.167,214.167 230.5,213.5C 231.206,214.557 231.539,214.224 231.5,212.5C 231.833,212.5 232.167,212.5 232.5,212.5C 231.696,215.442 230.362,218.109 228.5,220.5C 228.5,219.833 228.167,219.5 227.5,219.5C 222.549,220.804 217.549,221.971 212.5,223C 211.5,224 210.5,225 209.5,226C 204.004,226.849 198.671,226.349 193.5,224.5C 190.777,222.796 188.444,220.629 186.5,218C 178.933,215.885 172.266,212.218 166.5,207C 158.922,203.959 151.422,200.793 144,197.5C 142.989,198.337 141.822,198.67 140.5,198.5C 143.874,202.877 147.04,207.544 150,212.5C 159.315,221.573 170.482,226.407 183.5,227C 182.607,233.097 181.94,239.264 181.5,245.5C 182.5,245.5 183.5,245.5 184.5,245.5C 184.343,242.656 185.676,240.989 188.5,240.5C 188.5,240.833 188.5,241.167 188.5,241.5C 188.5,241.833 188.5,242.167 188.5,242.5C 188.338,244.527 188.505,246.527 189,248.5C 189.49,247.207 189.657,245.873 189.5,244.5C 189.833,244.5 190.167,244.5 190.5,244.5C 189.806,249.805 189.472,255.138 189.5,260.5C 189.167,260.5 188.833,260.5 188.5,260.5C 187.591,250.319 187.591,251.653 188.5,264.5C 188.5,264.833 188.5,265.167 188.5,265.5C 188.167,265.5 187.833,265.5 187.5,265.5C 186.511,260.025 186.178,254.358 186.5,248.5C 185.127,248.343 183.793,248.51 182.5,249C 180.6,251.335 178.6,253.502 176.5,255.5C 175.167,255.5 173.833,255.5 172.5,255.5C 173.05,248.662 173.716,242.162 174.5,236C 173.692,235.692 173.025,235.192 172.5,234.5C 173.167,232.833 173.833,231.167 174.5,229.5C 167.393,227.471 160.393,225.304 153.5,223C 149.655,218.655 145.655,214.488 141.5,210.5C 137.654,202.493 132.487,195.493 126,189.5C 125.933,186.953 125.099,184.786 123.5,183C 126.167,182.333 128.833,182.333 131.5,183C 134.055,184.444 136.721,185.611 139.5,186.5C 140.885,187.551 141.885,188.884 142.5,190.5C 146.375,190.705 148.041,192.705 147.5,196.5C 154.323,197.741 160.49,200.408 166,204.5C 167.107,204.415 168.107,204.081 169,203.5C 169.374,204.416 169.874,205.25 170.5,206C 176.879,208.03 182.546,211.363 187.5,216C 191.498,217.232 195.498,218.398 199.5,219.5 Z"/></g>
<g><path style="opacity:0.016" fill="#3f3d3f" d="M 209.5,229.5 C 207.372,230.629 205.039,230.796 202.5,230C 204.81,229.503 207.143,229.337 209.5,229.5 Z"/></g>
<g><path style="opacity:1" fill="#7a6b5d" d="M 106.5,211.5 C 107.896,214.751 109.562,217.917 111.5,221C 112.609,232.852 116.109,244.352 122,255.5C 123.062,256.097 124.228,256.43 125.5,256.5C 128.997,255.504 132.497,254.504 136,253.5C 140.452,253.561 144.119,255.228 147,258.5C 147.333,258.167 147.667,257.833 148,257.5C 150.082,265.54 152.082,273.54 154,281.5C 154.353,284.152 155.52,286.152 157.5,287.5C 157.5,287.833 157.5,288.167 157.5,288.5C 155.243,288.962 153.243,289.962 151.5,291.5C 148.398,287.963 146.398,283.963 145.5,279.5C 146.028,278.279 146.695,277.113 147.5,276C 144.771,272.969 143.105,269.469 142.5,265.5C 136.112,265.688 129.778,265.188 123.5,264C 120.053,262.218 118.22,259.385 118,255.5C 116.951,257.107 115.451,257.773 113.5,257.5C 113.662,255.473 113.495,253.473 113,251.5C 108.724,245.589 106.724,238.923 107,231.5C 105.667,227.5 104.333,223.5 103,219.5C 100.225,217.972 98.392,215.639 97.5,212.5C 95.1667,210.667 92.8333,208.833 90.5,207C 88.4183,207.932 86.085,208.432 83.5,208.5C 83.5,209.5 83.5,210.5 83.5,211.5C 80.7438,211.716 78.4105,212.716 76.5,214.5C 75.1524,208.15 76.1524,202.15 79.5,196.5C 82.7683,195.513 86.1016,195.18 89.5,195.5C 89.7135,197.144 89.3802,198.644 88.5,200C 92.6028,201.716 95.9361,204.383 98.5,208C 99.7839,208.684 100.951,208.517 102,207.5C 103.758,208.469 104.258,209.636 103.5,211C 104.448,211.483 105.448,211.649 106.5,211.5 Z"/></g>
<g><path style="opacity:1" fill="#847564" d="M 145.5,279.5 C 143.414,277.209 141.747,274.875 140.5,272.5C 137.296,271.796 134.129,271.13 131,270.5C 130.667,270.833 130.333,271.167 130,271.5C 124.44,268.573 118.94,265.573 113.5,262.5C 109.525,259.196 105.525,255.863 101.5,252.5C 99.604,251.534 97.604,251.201 95.5,251.5C 95.5,250.167 95.5,248.833 95.5,247.5C 94.1667,247.5 92.8333,247.5 91.5,247.5C 91.5,242.167 91.5,236.833 91.5,231.5C 92.8333,231.5 94.1667,231.5 95.5,231.5C 95.5,230.167 95.5,228.833 95.5,227.5C 94.5,227.5 93.5,227.5 92.5,227.5C 92.5,226.167 92.5,224.833 92.5,223.5C 90.8333,223.5 89.1667,223.5 87.5,223.5C 87.5,231.5 87.5,239.5 87.5,247.5C 86.1667,247.5 84.8333,247.5 83.5,247.5C 83.5,250.167 83.5,252.833 83.5,255.5C 82.1779,255.33 81.0113,255.663 80,256.5C 75.6048,264.466 72.6048,272.799 71,281.5C 70.3076,282.025 69.8076,282.692 69.5,283.5C 70.7565,290.266 74.7565,294.766 81.5,297C 88.1946,299.16 94.8612,300.993 101.5,302.5C 95.4832,301.864 89.4832,301.031 83.5,300C 80.9293,299.099 78.596,297.766 76.5,296C 74.1667,295.667 71.8333,295.333 69.5,295C 66.6785,289.027 66.8451,283.194 70,277.5C 72.4543,270.019 74.4543,262.352 76,254.5C 76.282,243.155 76.782,231.821 77.5,220.5C 77.4274,218.41 77.094,216.41 76.5,214.5C 78.4105,212.716 80.7438,211.716 83.5,211.5C 83.5,210.5 83.5,209.5 83.5,208.5C 86.085,208.432 88.4183,207.932 90.5,207C 92.8333,208.833 95.1667,210.667 97.5,212.5C 98.392,215.639 100.225,217.972 103,219.5C 104.333,223.5 105.667,227.5 107,231.5C 106.724,238.923 108.724,245.589 113,251.5C 113.495,253.473 113.662,255.473 113.5,257.5C 115.451,257.773 116.951,257.107 118,255.5C 118.22,259.385 120.053,262.218 123.5,264C 129.778,265.188 136.112,265.688 142.5,265.5C 143.105,269.469 144.771,272.969 147.5,276C 146.695,277.113 146.028,278.279 145.5,279.5 Z"/></g>
<g><path style="opacity:1" fill="#8f7d6c" d="M 145.5,279.5 C 146.398,283.963 148.398,287.963 151.5,291.5C 153.243,289.962 155.243,288.962 157.5,288.5C 154.713,292.043 151.046,293.543 146.5,293C 144.582,288.199 142.582,283.366 140.5,278.5C 137.663,277.669 135.496,276.002 134,273.5C 129.987,273.67 125.987,274.003 122,274.5C 116.795,272.546 111.795,270.213 107,267.5C 104.329,267.672 101.662,268.005 99,268.5C 96.7569,266.718 94.2569,266.218 91.5,267C 89.1218,267.511 86.7885,268.178 84.5,269C 83.8742,269.75 83.3742,270.584 83,271.5C 80.4475,268.806 79.2808,269.473 79.5,273.5C 78.325,273.281 77.325,273.614 76.5,274.5C 69.9284,283.006 71.5951,289.84 81.5,295C 88.95,297.421 96.45,299.588 104,301.5C 104.333,301.167 104.667,300.833 105,300.5C 112.421,301.316 119.921,301.816 127.5,302C 130.852,302.004 133.185,303.504 134.5,306.5C 152.256,309.317 169.256,307.317 185.5,300.5C 188.256,296.228 189.089,291.561 188,286.5C 185.337,279.232 182.67,271.898 180,264.5C 178.612,263.446 177.112,263.28 175.5,264C 174.627,265.045 173.627,265.878 172.5,266.5C 173.543,263.944 175.21,261.777 177.5,260C 179.367,259.289 180.867,259.789 182,261.5C 186.582,273.476 188.749,285.81 188.5,298.5C 186.336,302.588 183.003,305.254 178.5,306.5C 174.594,307.61 170.594,308.443 166.5,309C 155.833,309.667 145.167,309.667 134.5,309C 132.999,307.748 131.332,306.748 129.5,306C 119.989,305.814 110.656,304.648 101.5,302.5C 94.8612,300.993 88.1946,299.16 81.5,297C 74.7565,294.766 70.7565,290.266 69.5,283.5C 69.8076,282.692 70.3076,282.025 71,281.5C 72.6048,272.799 75.6048,264.466 80,256.5C 81.0113,255.663 82.1779,255.33 83.5,255.5C 83.5,252.833 83.5,250.167 83.5,247.5C 84.8333,247.5 86.1667,247.5 87.5,247.5C 87.5,239.5 87.5,231.5 87.5,223.5C 89.1667,223.5 90.8333,223.5 92.5,223.5C 92.5,224.833 92.5,226.167 92.5,227.5C 93.5,227.5 94.5,227.5 95.5,227.5C 95.5,228.833 95.5,230.167 95.5,231.5C 94.1667,231.5 92.8333,231.5 91.5,231.5C 91.5,236.833 91.5,242.167 91.5,247.5C 92.8333,247.5 94.1667,247.5 95.5,247.5C 95.5,248.833 95.5,250.167 95.5,251.5C 97.604,251.201 99.604,251.534 101.5,252.5C 105.525,255.863 109.525,259.196 113.5,262.5C 118.94,265.573 124.44,268.573 130,271.5C 130.333,271.167 130.667,270.833 131,270.5C 134.129,271.13 137.296,271.796 140.5,272.5C 141.747,274.875 143.414,277.209 145.5,279.5 Z"/></g>
<g><path style="opacity:1" fill="#9e8a77" d="M 157.5,288.5 C 157.5,288.167 157.5,287.833 157.5,287.5C 160.711,283.519 164.045,279.519 167.5,275.5C 168.605,272.184 170.271,269.184 172.5,266.5C 173.627,265.878 174.627,265.045 175.5,264C 177.112,263.28 178.612,263.446 180,264.5C 182.67,271.898 185.337,279.232 188,286.5C 189.089,291.561 188.256,296.228 185.5,300.5C 169.256,307.317 152.256,309.317 134.5,306.5C 133.185,303.504 130.852,302.004 127.5,302C 119.921,301.816 112.421,301.316 105,300.5C 104.667,300.833 104.333,301.167 104,301.5C 96.45,299.588 88.95,297.421 81.5,295C 71.5951,289.84 69.9284,283.006 76.5,274.5C 77.325,273.614 78.325,273.281 79.5,273.5C 79.2808,269.473 80.4475,268.806 83,271.5C 83.3742,270.584 83.8742,269.75 84.5,269C 86.7885,268.178 89.1218,267.511 91.5,267C 94.2569,266.218 96.7569,266.718 99,268.5C 101.662,268.005 104.329,267.672 107,267.5C 111.795,270.213 116.795,272.546 122,274.5C 125.987,274.003 129.987,273.67 134,273.5C 135.496,276.002 137.663,277.669 140.5,278.5C 142.582,283.366 144.582,288.199 146.5,293C 151.046,293.543 154.713,292.043 157.5,288.5 Z"/></g>
<g><path style="opacity:1" fill="#aa957f" d="M 162.5,287.5 C 162.489,289.017 161.823,290.184 160.5,291C 136.812,302.864 138.479,306.531 165.5,302C 169.356,301.242 172.356,299.242 174.5,296C 175.448,295.517 176.448,295.351 177.5,295.5C 180.059,288.403 178.559,282.403 173,277.5C 171.36,276.875 169.527,276.875 167.5,277.5C 167.5,276.833 167.5,276.167 167.5,275.5C 169.51,273.376 171.677,271.376 174,269.5C 176.148,274.289 178.481,278.956 181,283.5C 182.405,287.072 182.738,290.739 182,294.5C 180.808,297.452 179.308,300.119 177.5,302.5C 174.399,302.692 171.399,303.358 168.5,304.5C 166.477,303.959 164.477,304.459 162.5,306C 154.833,306.667 147.167,306.667 139.5,306C 138.04,304.418 136.373,303.085 134.5,302C 134.833,301.667 135.167,301.333 135.5,301C 122.556,299.044 109.556,297.377 96.5,296C 91.8551,292.921 86.8551,290.588 81.5,289C 80.3977,286.599 80.231,284.099 81,281.5C 81.3333,281.833 81.6667,282.167 82,282.5C 82.3742,281.584 82.8742,280.75 83.5,280C 98.4823,275.954 112.982,277.121 127,283.5C 129.678,281.038 132.845,280.205 136.5,281C 139.959,285.554 141.292,290.721 140.5,296.5C 143.85,296.665 147.183,296.498 150.5,296C 154.698,293.278 158.698,290.445 162.5,287.5 Z"/></g>
<g><path style="opacity:1" fill="#bca58d" d="M 162.5,287.5 C 164.167,284.167 165.833,280.833 167.5,277.5C 169.527,276.875 171.36,276.875 173,277.5C 178.559,282.403 180.059,288.403 177.5,295.5C 176.448,295.351 175.448,295.517 174.5,296C 172.356,299.242 169.356,301.242 165.5,302C 138.479,306.531 136.812,302.864 160.5,291C 161.823,290.184 162.489,289.017 162.5,287.5 Z"/></g>
<g><path style="opacity:0.004" fill="#010000" d="M 189.5,304.5 C 190.833,305.167 190.833,305.167 189.5,304.5 Z"/></g>
<g><path style="opacity:1" fill="#302c29" d="M 65.5,296.5 C 65.8333,296.5 66.1667,296.5 66.5,296.5C 67.1667,296.5 67.5,296.833 67.5,297.5C 69.5168,298.529 71.5168,299.529 73.5,300.5C 83.1605,304.783 93.1605,308.616 103.5,312C 128.639,315.857 153.639,315.19 178.5,310C 180.306,309.19 181.806,308.024 183,306.5C 184.44,305.852 185.94,305.519 187.5,305.5C 188.167,305.5 188.833,305.5 189.5,305.5C 189.144,307.19 188.144,308.19 186.5,308.5C 186.167,307.167 185.833,307.167 185.5,308.5C 184.508,308.328 183.842,308.662 183.5,309.5C 180.672,310.655 178.005,311.989 175.5,313.5C 174.508,313.328 173.842,313.662 173.5,314.5C 171.585,314.216 169.919,314.549 168.5,315.5C 145.5,315.5 122.5,315.5 99.5,315.5C 97.7354,314.539 95.7354,314.205 93.5,314.5C 91.1617,312.96 88.4951,312.294 85.5,312.5C 79.4816,310.072 73.9816,306.738 69,302.5C 68.6667,302.833 68.3333,303.167 68,303.5C 65.6623,301.453 64.829,299.119 65.5,296.5 Z"/></g>
<g><path style="opacity:1" fill="#544941" d="M 191.5,284.5 C 192.397,285.598 193.23,285.598 194,284.5C 196.341,290.758 195.841,296.758 192.5,302.5C 191.398,303.176 190.398,303.842 189.5,304.5C 188.508,304.328 187.842,304.662 187.5,305.5C 185.94,305.519 184.44,305.852 183,306.5C 181.806,308.024 180.306,309.19 178.5,310C 153.639,315.19 128.639,315.857 103.5,312C 93.1605,308.616 83.1605,304.783 73.5,300.5C 89.0942,304.095 104.761,307.595 120.5,311C 138.221,311.991 155.888,311.491 173.5,309.5C 175.693,309.229 177.359,308.229 178.5,306.5C 183.003,305.254 186.336,302.588 188.5,298.5C 189.458,298.047 190.292,297.381 191,296.5C 191.499,292.514 191.666,288.514 191.5,284.5 Z"/></g>
<g><path style="opacity:0.008" fill="#000001" d="M 185.5,308.5 C 185.833,308.5 186.167,308.5 186.5,308.5C 186.315,309.17 185.981,309.17 185.5,308.5 Z"/></g>
<g><path style="opacity:0.004" fill="#101013" d="M 183.5,309.5 C 184.167,309.5 184.833,309.5 185.5,309.5C 184.833,310.833 184.167,310.833 183.5,309.5 Z"/></g>
<g><path style="opacity:0.008" fill="#0a1414" d="M 85.5,312.5 C 85.5,312.833 85.5,313.167 85.5,313.5C 81.5,313.167 81.5,312.833 85.5,312.5 Z"/></g>
<g><path style="opacity:0.01" fill="#010124" d="M 85.5,313.5 C 86.8734,313.343 88.2068,313.51 89.5,314C 87.9343,314.765 86.6009,314.598 85.5,313.5 Z"/></g>
<g><path style="opacity:0.008" fill="#000002" d="M 175.5,314.5 C 175.5,314.167 175.5,313.833 175.5,313.5C 178.167,313.833 178.167,314.167 175.5,314.5 Z"/></g>
<g><path style="opacity:0.02" fill="#1f1b36" d="M 90.5,315.5 C 91.209,314.596 92.209,314.263 93.5,314.5C 93.5,314.833 93.5,315.167 93.5,315.5C 92.5,315.5 91.5,315.5 90.5,315.5 Z"/></g>
<g><path style="opacity:0.004" fill="#151618" d="M 173.5,315.5 C 173.5,315.167 173.5,314.833 173.5,314.5C 174.167,314.5 174.833,314.5 175.5,314.5C 175.5,314.833 175.5,315.167 175.5,315.5C 174.833,315.5 174.167,315.5 173.5,315.5 Z"/></g>
</svg>
