<svg version="1.1" id="Layer_1" xmlns="http://www.w3.org/2000/svg" xmlns:xlink="http://www.w3.org/1999/xlink" x="0px" y="0px"
	 width="100%" viewBox="0 0 656 496" enable-background="new 0 0 656 496" xml:space="preserve">
<path fill="#000000" opacity="1.000000" stroke="none" 
	d="
M618.251831,269.878662 
	C615.763672,293.495361 612.622375,316.529816 604.132812,338.435791 
	C602.756470,341.987274 601.179260,345.613037 598.925110,348.629181 
	C596.693726,351.614899 595.637878,354.189514 597.904175,357.156464 
	C597.233948,358.650879 596.167175,359.122009 595.108948,359.635162 
	C560.038818,376.639557 526.274414,396.190369 491.097931,412.986633 
	C472.315033,421.955109 453.561615,430.957001 433.918243,438.007629 
	C423.554626,441.727448 413.247070,442.638092 402.547150,440.350769 
	C383.899261,436.364441 366.035339,430.110718 348.796082,422.000183 
	C345.564331,420.479736 342.671448,418.738586 342.084808,413.643494 
	C337.016663,419.113159 333.260712,411.572205 327.518768,413.843811 
	C334.875824,418.090179 341.625854,421.808167 348.179047,425.845642 
	C351.334869,427.789948 356.937317,428.325287 356.981293,432.200470 
	C357.029694,436.466278 351.337555,436.534332 348.040863,437.975983 
	C318.439575,450.920746 288.733765,463.626221 259.102325,476.502533 
	C255.667786,477.995026 253.262009,477.459991 250.743576,474.692261 
	C237.062775,459.657135 241.404861,463.192383 222.538040,466.594482 
	C206.855911,469.422302 191.205017,472.423828 175.545135,475.374237 
	C162.986496,477.740356 150.436172,480.150604 137.879257,482.525909 
	C136.408051,482.804230 134.922852,483.021576 133.436356,483.203583 
	C129.575302,483.676392 128.195496,482.003693 129.086761,478.235077 
	C129.967178,474.512451 130.764496,470.769012 131.531281,467.020996 
	C132.363083,462.955170 131.255936,460.943481 126.499252,460.931091 
	C108.674881,460.884735 90.851425,460.478912 73.027718,460.202026 
	C71.861626,460.183899 70.695381,460.133606 69.530785,460.069489 
	C62.516720,459.683441 61.906898,458.719299 65.454430,452.842773 
	C74.751564,437.441895 84.104904,422.074554 93.519081,406.744934 
	C97.501831,400.259613 97.570740,400.348083 91.925453,395.504242 
	C86.847626,391.147247 82.113907,386.456177 78.801819,380.555054 
	C74.533745,372.950653 74.109444,365.755493 79.791389,358.282379 
	C86.410667,349.576447 89.277115,338.893921 93.479233,328.957367 
	C103.854965,304.422363 113.283134,279.499420 123.538353,254.907486 
	C127.944450,244.341721 134.245605,237.856827 145.874161,235.591049 
	C157.943161,233.239441 169.510117,228.724167 180.475418,222.941025 
	C186.591995,219.715149 192.018829,215.649948 196.209778,210.085526 
	C201.275772,203.359314 206.721970,197.100586 216.187622,194.318085 
	C207.065735,180.524811 198.511765,167.138168 194.336029,151.721207 
	C185.831848,153.194641 183.115097,151.945114 179.825317,144.513763 
	C175.105087,133.851120 172.639847,122.761368 174.677856,111.032333 
	C175.385239,106.961220 176.779144,103.243416 180.973877,101.488541 
	C183.738556,100.331924 183.707947,98.039459 183.659668,95.649025 
	C183.521011,88.783363 183.352051,81.556190 186.784210,75.654381 
	C190.462540,69.329308 191.756027,63.203812 192.123184,55.938301 
	C192.653549,45.443111 199.455063,38.023399 208.602173,33.015965 
	C222.879074,25.200317 238.398682,23.841656 254.182480,25.031794 
	C265.252045,25.866472 276.330841,26.951309 286.830200,31.352316 
	C302.376923,37.869011 309.774933,49.780888 307.878784,66.447792 
	C307.657379,68.393753 307.591766,69.873787 309.322693,71.298256 
	C312.343109,73.783875 313.427185,77.295959 313.374664,81.108505 
	C313.306030,86.096191 313.888550,91.117912 312.873779,96.060516 
	C312.563446,97.572243 312.871918,98.615784 314.071594,99.539337 
	C318.330963,102.818382 319.129211,107.536736 319.339417,112.471146 
	C319.804993,123.400436 318.666382,134.113724 314.324524,144.250092 
	C311.659485,150.471817 310.207275,151.121201 303.712372,150.099350 
	C301.716034,154.842758 299.920380,159.811340 297.586487,164.512711 
	C292.285431,175.191010 285.039856,184.516922 276.967499,193.245804 
	C273.102173,197.425491 273.429352,198.247406 278.797668,200.017685 
	C284.004852,201.734787 288.508972,204.782532 291.723785,209.088364 
	C298.118622,217.653442 307.265167,220.680893 317.032074,222.659302 
	C329.591125,225.203308 342.399597,225.906876 355.094696,227.390839 
	C361.210815,228.105759 365.738159,230.798737 369.815033,234.911331 
	C382.178558,247.383255 392.399414,261.609009 402.925903,275.573120 
	C412.452057,288.210236 421.759308,301.012207 431.191864,313.720062 
	C433.158691,316.369781 435.328613,320.144897 438.775879,319.133789 
	C442.109192,318.156067 440.764923,313.904144 440.768127,311.078430 
	C440.801239,282.083466 440.691223,253.088409 440.642731,224.093323 
	C440.630981,217.075470 441.859467,210.232056 443.380249,203.393600 
	C444.665894,197.612381 448.075592,194.121292 453.397217,191.930176 
	C466.630737,186.481430 480.620911,184.396393 494.660034,182.799316 
	C509.708435,181.087402 524.839722,180.087799 540.005798,180.676697 
	C557.802734,181.367722 575.562622,182.495438 592.760986,187.712967 
	C595.145813,188.436478 597.443237,189.447342 599.825806,190.179581 
	C610.685974,193.517136 616.395020,200.675110 617.814697,212.105667 
	C619.858643,228.561783 619.619934,244.991547 618.847717,261.466248 
	C618.723206,264.123047 618.469055,266.773804 618.251831,269.878662 
M207.580505,205.369873 
	C205.748459,210.566086 201.742859,213.961456 197.893417,217.620865 
	C193.226578,222.057327 191.201263,227.981247 189.579849,233.939758 
	C192.091843,235.369904 193.702759,233.937073 195.403503,233.560883 
	C201.372055,232.240677 205.452850,234.093048 208.337402,239.342758 
	C209.855759,242.106064 209.175125,246.337570 212.054092,247.763992 
	C215.032944,249.239899 217.580658,245.406281 220.680984,245.044968 
	C223.534409,244.712372 227.258514,243.154114 228.340256,247.182983 
	C229.430069,251.241943 231.448273,254.252960 235.718719,256.838348 
	C231.483246,257.364349 228.888031,256.565765 226.921249,253.845139 
	C223.241608,248.755157 222.198410,248.623184 217.046265,252.116562 
	C214.201981,254.045090 212.325775,257.264618 208.419586,258.663818 
	C206.080460,254.406311 205.236374,249.529846 201.453873,246.145279 
	C196.417267,241.638565 192.339218,246.683807 188.007538,247.486832 
	C187.135941,244.863022 189.657700,243.788620 189.655243,241.399170 
	C188.650085,242.191071 188.139404,242.604767 187.616852,243.002914 
	C186.214600,244.071259 184.928253,246.006775 182.902100,244.578049 
	C181.146515,243.340088 182.271286,241.496399 182.674225,239.966797 
	C183.352112,237.393509 184.202850,234.865112 185.004593,232.325317 
	C185.455231,230.897781 186.193909,229.414597 184.935974,228.099838 
	C183.520508,226.620438 181.841476,227.294724 180.279434,227.879288 
	C179.036179,228.344559 177.850754,228.963623 176.636703,229.507782 
	C168.447250,233.178467 160.141510,236.468658 151.607422,239.344940 
	C143.710236,242.006577 136.006714,245.332779 131.677887,253.826584 
	C128.022858,260.998260 125.330330,268.387817 122.739227,275.944183 
	C119.462975,285.498627 115.150795,294.631348 110.707596,303.753357 
	C106.671410,312.039703 103.471588,320.863892 99.554794,329.259583 
	C92.276451,344.860779 88.245285,361.045319 88.447311,378.262421 
	C88.499756,382.731415 89.879478,386.450012 93.227814,389.811920 
	C104.569160,401.199158 118.112686,409.282043 132.197479,416.588684 
	C140.924347,421.115875 149.837524,425.283813 159.275330,428.154541 
	C164.232315,429.662323 165.775284,428.745636 166.222931,423.598236 
	C166.506592,420.336548 165.595291,416.976746 165.825958,413.703644 
	C167.177826,394.521606 171.768417,376.288544 182.175262,359.831268 
	C182.942581,358.617859 184.103027,357.465851 183.514847,355.231140 
	C162.961502,354.072723 142.329865,345.501740 121.617447,356.734711 
	C121.466873,355.878387 121.316299,355.022064 121.165726,354.165741 
	C133.669357,347.084961 147.507874,343.964874 162.610397,342.440094 
	C158.283676,332.544159 158.035095,322.758301 159.238297,312.951019 
	C160.489929,302.748932 158.855637,292.686737 158.082703,282.619690 
	C157.502274,275.059784 154.497177,267.942383 150.215744,261.404602 
	C153.032974,260.248169 154.378067,261.923279 155.653824,263.380768 
	C158.191605,266.279968 160.103119,269.537018 161.449936,273.206238 
	C165.912552,285.364105 166.904404,298.124359 168.329453,310.825653 
	C169.492065,321.187958 169.778625,331.680725 172.540482,341.817230 
	C174.865082,350.348969 177.650162,352.295441 186.559830,351.794556 
	C188.204208,351.702118 189.838516,351.279510 191.457718,350.920258 
	C195.145081,350.102142 198.301498,351.107605 199.966507,354.455353 
	C201.189865,356.915131 202.711914,357.114075 204.780075,356.359100 
	C211.547913,353.888550 217.787079,350.389984 223.704102,346.312775 
	C225.849503,344.834473 226.511353,342.790466 224.554749,340.833252 
	C220.959930,337.237274 218.929947,332.621704 216.063736,328.560577 
	C209.828827,319.726410 203.634720,310.871094 198.428101,301.371948 
	C196.388565,297.650940 197.481537,292.422943 200.862534,289.760193 
	C204.337631,287.023376 209.477692,287.353607 212.558823,290.844910 
	C218.700211,297.803925 224.730103,304.863739 230.692139,311.977386 
	C233.373016,315.176056 236.824692,313.710785 240.003357,313.885925 
	C242.082245,314.000519 242.876724,312.519897 243.204361,310.730011 
	C246.251526,294.083649 250.132355,277.542633 246.632202,260.388123 
	C244.917938,251.986343 242.103088,245.001984 233.557465,241.125916 
	C227.342010,238.306732 222.006149,233.828079 217.275986,228.836426 
	C213.090271,224.419266 209.379395,219.576050 209.815979,213.051865 
	C210.017029,210.047485 209.363708,207.484467 208.668198,205.026703 
	C210.668747,205.192627 213.017883,206.622864 214.244370,203.277939 
	C211.066025,199.893173 209.331161,201.599838 207.580505,205.369873 
M551.682495,308.508667 
	C554.021545,300.694611 557.310608,293.217682 559.437012,285.303650 
	C562.258606,274.802094 559.113159,265.610474 554.363403,256.621521 
	C553.017639,254.074722 550.846497,252.092545 548.087158,251.114792 
	C540.668762,248.486099 533.139893,246.573029 525.121155,247.677185 
	C520.329529,248.336990 515.342285,249.030365 510.951813,246.395462 
	C505.245789,242.971069 499.628784,239.347916 494.275940,235.400162 
	C489.197174,231.654526 487.973053,226.728668 490.141876,220.771439 
	C491.553650,216.893585 492.194275,213.158508 490.642395,209.115448 
	C489.607880,206.420364 489.271271,203.250397 491.621948,201.135010 
	C493.926910,199.060776 494.609711,197.112961 492.848358,194.531830 
	C497.010773,191.328125 501.724396,192.062851 506.081329,191.446259 
	C526.914001,188.497818 547.842712,187.343796 568.843628,189.019852 
	C576.593262,189.638321 584.417236,190.039062 591.450989,194.348892 
	C595.510925,196.836578 597.171814,200.353287 594.958801,204.792511 
	C594.070862,206.573547 592.959106,208.262192 591.797058,209.883881 
	C588.008545,215.170914 586.305054,220.838882 588.315002,227.273636 
	C590.230347,233.405304 590.723999,239.653961 590.029236,246.040207 
	C589.680969,249.241806 590.190247,252.419250 591.716553,255.268295 
	C593.537231,258.666748 595.842957,262.781860 599.911316,262.290833 
	C604.115295,261.783417 603.568237,257.010956 604.096313,253.643967 
	C605.295105,245.999710 604.212646,237.778549 609.450317,231.140656 
	C613.943848,225.445831 613.556396,218.718094 613.680664,212.133667 
	C613.837891,203.797241 609.456909,198.811401 601.948486,195.397934 
	C586.786438,188.504974 570.680542,186.522568 554.412415,185.435349 
	C536.460754,184.235611 518.490112,184.529938 500.563202,186.310806 
	C485.987610,187.758774 471.553345,189.871063 457.639221,194.725464 
	C450.981232,197.048309 447.389862,201.500916 446.423737,208.570786 
	C444.318634,223.976135 443.884613,239.462341 444.520020,254.926407 
	C445.937256,289.417603 445.899017,323.836823 441.295471,358.117676 
	C438.555511,378.521027 433.841492,398.335815 422.831207,416.125122 
	C422.386322,416.843933 421.986084,417.555359 422.505920,418.456055 
	C423.732513,419.372009 425.209625,419.071472 426.262329,418.441284 
	C430.941956,415.640228 436.356659,415.113770 441.351410,413.309113 
	C473.769135,401.596222 505.598206,388.363586 537.789734,376.071686 
	C550.719238,371.134766 562.867859,364.530151 575.639221,359.328003 
	C584.533081,355.705353 584.478027,356.201385 579.758667,347.951752 
	C576.993958,343.118896 573.779785,340.223236 567.828369,341.095490 
	C557.040222,342.676697 551.940552,338.665283 551.035461,327.780884 
	C550.525574,321.648834 550.333679,315.463684 551.682495,308.508667 
M337.562103,255.374100 
	C338.712921,254.772751 339.546051,252.890564 341.272644,254.385712 
	C337.964264,261.348175 336.367676,277.637207 337.665436,287.751038 
	C338.543396,294.592896 339.488708,301.226776 344.664154,306.505066 
	C349.940247,311.885986 356.030151,316.147827 362.313110,320.177185 
	C363.939972,321.220520 365.916046,321.095459 367.632172,320.311951 
	C381.676788,313.900177 395.672882,319.239471 410.203156,319.924561 
	C408.102203,322.683136 405.662292,322.261017 403.422485,322.332184 
	C395.419128,322.586487 387.499817,320.822723 379.475281,321.331940 
	C376.778320,321.503052 374.211426,321.676025 372.638855,324.335754 
	C373.009277,324.922516 373.190063,325.436371 373.550415,325.729614 
	C374.187622,326.248260 374.889343,326.737976 375.641449,327.057739 
	C392.049377,334.032440 398.710266,347.742310 401.379211,364.224487 
	C402.126678,368.840302 404.170227,369.795563 408.311401,367.310181 
	C420.087250,360.242828 429.222321,350.386597 434.657928,338.007965 
	C438.285645,329.746429 440.028687,328.524811 431.082977,321.548737 
	C428.377838,319.439178 425.034760,317.929199 423.252808,314.705597 
	C420.047180,308.906433 415.616180,303.941772 411.807465,298.575623 
	C399.389954,281.080444 387.055084,263.492584 373.267761,247.009521 
	C366.713501,239.173737 360.401520,232.092407 348.482666,231.607498 
	C335.094849,231.062820 321.795837,228.055664 308.614166,225.198593 
	C307.351440,224.924911 306.005035,224.072647 304.904327,225.385300 
	C303.872742,226.615585 304.605927,227.918793 305.068512,229.151917 
	C307.056915,234.452728 309.101227,239.733078 311.032104,245.054642 
	C311.539734,246.453690 311.937439,248.126022 310.518341,249.219193 
	C308.962433,250.417786 307.641754,249.199127 306.546997,248.231705 
	C303.148071,245.228149 299.977509,244.979843 295.792114,247.330719 
	C291.139221,249.944229 287.972656,253.343094 286.056885,258.177582 
	C285.357391,259.942719 285.410583,262.193390 283.010681,263.248871 
	C279.922119,260.842804 276.882019,258.278534 273.638824,256.003815 
	C270.483826,253.791016 267.593719,253.536362 265.422363,257.636993 
	C263.471466,261.321289 259.913239,261.739288 255.310898,261.764252 
	C257.998810,259.182831 260.963287,258.238495 262.055145,255.065598 
	C264.409607,248.223709 265.963989,247.666382 272.977325,250.164795 
	C274.379028,250.664139 275.707336,251.395554 277.021729,252.108017 
	C279.113312,253.241745 280.496429,252.676544 281.325775,250.498047 
	C282.036163,248.632034 282.687469,246.737411 283.510681,244.921539 
	C286.247192,238.885178 291.331635,236.442673 297.784882,238.072937 
	C299.242065,238.441055 300.767120,239.248398 302.029236,238.054031 
	C303.532867,236.631119 302.558716,234.959106 301.980286,233.419388 
	C297.640442,221.867325 290.025604,212.804932 280.497833,205.201614 
	C279.221863,204.183380 277.747986,203.563828 276.501892,204.969254 
	C275.003662,206.659088 276.691406,207.586151 277.732574,208.605682 
	C282.513184,213.286942 283.248444,217.867996 280.044220,223.875366 
	C277.887085,227.919617 274.743347,231.078064 270.966827,233.680923 
	C267.403839,236.136612 263.746918,238.524612 260.511993,241.374466 
	C251.972458,248.897522 249.240234,258.523987 250.606003,269.897949 
	C253.230591,268.518616 255.357635,266.793640 257.933258,268.602722 
	C259.150513,269.457733 259.518341,270.777740 259.135468,272.162720 
	C258.065430,276.033539 254.424347,275.104340 251.758575,275.867615 
	C249.565231,281.040222 251.024521,286.023560 251.767380,291.156769 
	C252.567566,291.329254 253.190155,291.565613 253.817993,291.580444 
	C256.098480,291.634521 258.896973,290.944122 259.177338,294.398956 
	C259.428558,297.494537 257.236298,298.781006 254.559250,299.300934 
	C253.346970,299.536377 252.220673,299.824951 251.801819,301.098053 
	C249.480270,308.154541 249.994095,315.008392 253.016357,322.004028 
	C254.680511,321.475037 255.889526,320.903107 257.152771,320.732361 
	C259.142334,320.463409 261.393280,320.240570 262.185547,322.736938 
	C262.903992,325.000519 261.682983,327.141663 259.681244,327.536499 
	C254.335266,328.590912 255.032654,332.297638 255.388657,335.974365 
	C255.660950,338.786621 256.068939,341.585449 256.385193,344.393799 
	C256.844971,348.476807 258.352356,349.334351 262.000610,347.254974 
	C264.598816,345.774139 266.957703,343.879181 269.515228,342.319702 
	C272.276733,340.635773 275.307343,339.112122 278.355743,341.333466 
	C281.599609,343.697205 281.883545,347.253448 280.895050,350.839355 
	C279.561310,355.677887 277.885559,360.349976 273.894775,363.835815 
	C272.482605,365.069305 270.185394,366.807709 271.956940,368.815277 
	C275.374786,372.688416 277.681030,377.539642 282.020996,381.176605 
	C282.564575,377.164032 282.564575,377.164032 281.790436,375.307678 
	C278.562775,367.567841 281.369720,359.733185 288.811707,355.958679 
	C292.690155,353.991486 296.765778,352.439758 301.059143,351.732208 
	C309.912994,350.273071 317.811737,348.355103 324.410553,340.626740 
	C328.481384,335.859100 330.228668,331.567993 329.352753,326.451233 
	C326.888519,312.056641 327.412323,297.621124 327.739655,283.185089 
	C327.966400,273.184448 330.434448,263.750488 337.562103,255.374100 
M207.125031,420.330231 
	C206.048218,421.917999 207.356583,422.814819 208.216263,423.716003 
	C223.036240,439.251587 237.902084,454.743469 252.701248,470.298767 
	C254.742783,472.444672 256.744049,472.627869 259.391907,471.492615 
	C288.139832,459.167084 316.922607,446.922791 345.686859,434.635223 
	C347.145569,434.012115 348.963318,433.691071 349.259277,430.869385 
	C330.213196,419.722565 310.952637,408.450195 290.670471,396.579926 
	C291.292389,403.382874 292.088745,408.622162 292.173737,413.872955 
	C292.288818,420.983582 287.855286,423.478485 281.677673,420.143738 
	C278.707489,418.540375 276.178375,416.371155 273.996155,413.835999 
	C272.502014,412.100220 271.043610,411.381012 268.828308,412.616333 
	C263.861908,415.385712 257.101898,414.070007 253.313660,419.894684 
	C252.201935,421.604065 249.108597,421.646362 246.767807,421.846924 
	C245.081116,421.991486 243.467346,422.269775 242.100296,423.368347 
	C235.304550,428.829315 228.370316,428.195251 221.231003,424.006439 
	C217.068420,421.564148 212.790314,419.250946 207.125031,420.330231 
M294.697418,74.193001 
	C291.511597,66.791962 287.028107,63.696243 279.229889,64.414955 
	C274.631744,64.838737 270.059418,65.980530 265.582214,67.193314 
	C254.150803,70.289841 242.922806,70.232140 231.783432,65.910942 
	C228.687119,64.709808 225.480484,63.748245 222.262939,62.914070 
	C216.231262,61.350304 211.163025,64.133911 208.424561,69.696983 
	C206.394638,73.820709 205.421005,78.123611 204.820496,82.580009 
	C203.853455,89.756653 201.018402,96.501762 199.320877,103.914200 
	C201.481125,103.737198 202.966019,103.683815 204.431198,103.485046 
	C221.379578,101.185692 235.261551,108.625771 242.557755,124.013535 
	C243.349091,125.682487 244.296158,126.661919 246.289337,126.691818 
	C248.426453,126.723885 249.732285,125.969757 250.435181,123.921303 
	C251.578766,120.588516 253.116592,117.410652 255.577484,114.856186 
	C265.413605,104.646049 277.583710,101.854141 291.192719,103.960304 
	C292.954132,104.232887 294.643860,105.323219 296.699890,103.644371 
	C296.163116,99.411652 293.771057,95.454788 293.583344,90.914452 
	C293.360626,85.528503 294.606659,80.324188 294.697418,74.193001 
M192.465393,366.052704 
	C188.452820,378.252075 186.053436,390.806305 184.302689,403.495972 
	C183.537781,409.040070 186.893234,412.089844 192.530655,410.651642 
	C195.666000,409.851807 198.900085,409.029358 201.879013,409.816589 
	C210.273117,412.034882 216.783295,406.919708 224.207275,405.171326 
	C222.765457,398.645355 215.586487,401.101929 211.745575,396.705963 
	C219.532349,395.409058 224.968658,398.126221 229.968597,402.173431 
	C232.296143,404.057404 234.445786,406.160095 236.754089,408.069305 
	C237.899475,409.016571 239.485504,410.246033 240.731903,408.862274 
	C242.631165,406.753754 245.845047,406.431915 247.519791,403.725159 
	C240.905136,394.702881 232.268753,388.871613 221.574814,385.619232 
	C223.861572,384.548035 225.782928,383.431641 227.992813,384.411560 
	C231.787903,386.094391 235.823929,387.302277 239.148407,389.931702 
	C243.847427,393.648346 248.533661,397.381134 253.227661,401.104095 
	C256.067505,403.356445 258.690491,403.053894 261.207520,400.511230 
	C263.807495,397.884796 262.893524,395.281677 261.029663,392.909058 
	C256.701843,387.399811 252.092667,382.099091 246.558029,377.772247 
	C243.159653,375.115448 239.493790,372.049194 235.172607,371.866119 
	C230.016953,371.647705 227.362808,370.649780 229.902451,364.893372 
	C228.315689,364.582153 227.197800,364.310699 226.064072,364.152924 
	C224.390793,363.920105 222.557770,363.859253 222.272354,361.683044 
	C222.020264,359.760956 222.616119,357.983063 224.251556,356.840881 
	C225.959091,355.648376 227.736115,356.017975 229.384811,357.122986 
	C230.835327,358.095184 231.708145,359.525513 232.208237,361.139435 
	C233.764191,366.160797 236.646973,369.592407 241.826187,371.589020 
	C246.634781,373.442719 250.514236,377.107605 254.212204,380.744781 
	C258.843048,385.299500 263.456116,389.873260 268.017792,394.497101 
	C271.239594,397.762756 274.379639,397.378937 277.734833,394.693024 
	C281.103546,391.996338 281.474213,389.078949 278.926208,385.630341 
	C269.465546,372.825806 259.121857,360.797974 245.127899,352.834534 
	C239.187149,349.453857 232.977402,347.635895 225.468674,351.837280 
	C217.216278,356.454651 208.022659,359.989746 198.300766,360.977844 
	C195.343185,361.278473 193.898911,362.981689 192.465393,366.052704 
M355.164337,356.415863 
	C365.945526,352.794922 365.945526,352.794922 369.533875,354.526855 
	C367.956818,356.012909 365.908661,355.937561 364.033661,356.457642 
	C357.180237,358.358490 350.653931,360.878723 347.226685,367.832642 
	C345.596680,371.140015 345.798676,374.486420 348.518860,377.053314 
	C351.023468,379.416870 354.112793,378.875397 356.923523,377.376404 
	C360.773651,375.323120 364.198334,372.764526 366.822388,369.141907 
	C368.860443,366.328308 370.908112,363.388550 374.190460,361.814697 
	C375.832733,361.027252 377.669983,359.809875 379.596588,362.608276 
	C373.830536,363.479187 371.353485,367.666779 368.475769,371.547394 
	C364.665588,376.685364 360.333374,381.430603 353.659485,382.681396 
	C350.198273,383.330048 346.762177,383.329681 344.603699,386.908905 
	C343.574127,388.616150 341.539185,387.796753 339.983887,387.285278 
	C331.906769,384.629181 323.963531,381.622345 316.427887,377.649109 
	C313.907471,376.320190 312.310272,374.681030 313.385071,371.247864 
	C314.192078,368.669983 313.318176,365.702148 311.163757,363.945404 
	C307.072266,360.609070 306.771088,357.063171 310.476898,352.529510 
	C302.389740,354.201050 295.224915,355.728729 288.997589,359.867126 
	C284.761475,362.682220 284.583069,364.739532 288.534180,367.384857 
	C291.976715,369.689636 295.708588,371.615295 299.461334,373.394836 
	C321.593231,383.889679 344.418976,392.734802 367.213501,401.644073 
	C381.945709,407.402191 396.748291,412.980194 411.498291,418.693237 
	C415.057495,420.071808 417.924927,420.281952 419.034576,415.037231 
	C402.729492,408.778412 385.664856,404.890350 370.063538,397.032623 
	C376.066101,395.389374 381.667358,393.345886 387.693909,392.770477 
	C398.403473,391.747894 405.580414,385.725372 406.366943,378.160492 
	C406.701477,374.942902 405.712128,373.856934 402.605286,374.134033 
	C399.439240,374.416412 396.147522,374.616760 393.425507,372.650604 
	C391.241699,371.073151 389.044128,370.809357 386.427643,370.827789 
	C382.183350,370.857727 377.934601,370.247070 373.687714,369.906891 
	C375.903625,366.930786 378.468262,367.723785 380.827759,367.674744 
	C383.858459,367.611755 386.898285,367.603882 389.515289,365.905334 
	C391.756195,364.450897 394.323975,362.671326 393.021606,359.534119 
	C389.028717,349.916168 384.279144,340.763794 375.063049,334.922913 
	C373.483490,333.921814 371.943634,333.330688 369.912140,333.952667 
	C361.209656,336.616882 358.660034,341.487793 361.909454,349.672272 
	C354.178253,353.397522 345.218170,354.030731 338.046997,359.194092 
	C334.795929,361.534943 332.907166,364.637695 333.752625,368.539642 
	C334.494019,371.961273 337.064056,373.642731 340.785889,373.273438 
	C342.775940,365.339355 347.578613,360.146820 355.164337,356.415863 
M178.034134,470.754852 
	C195.860489,467.679901 213.686829,464.604980 231.408997,461.548035 
	C231.191284,457.955719 229.335037,456.675873 227.978882,455.027740 
	C218.807724,443.882660 208.382187,433.738892 200.961655,421.191071 
	C199.743301,419.130859 198.072845,417.510773 195.493622,417.282562 
	C194.127975,417.161774 192.808853,417.206757 192.064194,418.676331 
	C191.419479,419.948639 191.840454,421.038574 192.860901,421.751251 
	C195.982986,423.931732 195.405228,426.911194 194.672379,429.859558 
	C192.920883,436.906158 186.725418,441.587128 178.978195,440.944214 
	C172.381226,440.396759 165.706284,439.506073 159.354599,437.732880 
	C155.053772,436.532166 150.173859,435.826263 146.359329,432.579193 
	C148.946701,429.694427 151.107605,433.611786 153.901062,431.481567 
	C150.315155,429.083008 146.912918,427.352844 142.494781,426.535278 
	C138.843170,443.534515 136.072205,460.197113 134.287888,477.886536 
	C149.338959,476.736267 163.178925,472.644836 178.034134,470.754852 
M132.289993,445.856812 
	C133.923111,440.437744 135.221985,434.886444 137.296738,429.642090 
	C138.910126,425.563995 137.734222,423.375336 134.124146,421.696106 
	C123.681931,416.838898 113.731422,411.086273 104.098549,404.799774 
	C100.976631,402.762329 98.996582,403.330261 97.232635,406.475128 
	C89.008118,421.138214 80.709679,435.759857 72.453560,450.405243 
	C71.813835,451.540039 70.940865,452.687531 71.945351,454.235504 
	C74.270378,455.395508 76.955345,455.612610 79.580727,455.760986 
	C92.049377,456.465759 104.520111,457.183899 116.999641,457.631348 
	C128.956467,458.060028 128.961624,457.916321 132.289993,445.856812 
M271.660431,171.213531 
	C274.253113,169.626434 276.845825,168.039352 279.490021,166.420731 
	C280.388611,168.360062 279.017273,169.255859 278.541077,170.407211 
	C277.325775,173.345367 276.391388,176.850952 279.843781,178.224487 
	C283.180389,179.551941 285.057587,176.351685 286.459625,173.578781 
	C290.563263,165.462723 292.912903,156.735916 295.329224,148.036545 
	C295.856842,146.136948 296.423157,144.109726 293.906708,142.365479 
	C289.358368,145.015198 284.599243,147.677429 279.365112,149.331329 
	C264.549408,154.012878 250.936447,147.037842 249.648468,132.881302 
	C249.475250,130.977463 248.371811,130.351929 246.626755,130.364304 
	C244.929367,130.376358 243.660904,130.942535 243.438950,132.792831 
	C241.866623,145.900650 233.284607,150.547882 221.334488,151.175995 
	C216.916687,151.408203 215.771500,154.890442 216.810944,157.854706 
	C219.420822,165.297562 223.020126,172.320038 231.570465,174.797775 
	C245.128357,178.726624 258.190979,176.736084 271.660431,171.213531 
M280.777863,107.249992 
	C266.890320,108.443878 256.924011,115.644440 254.005203,126.592957 
	C251.335312,136.607849 258.579651,146.363083 268.935028,146.697525 
	C282.104736,147.122879 294.712616,138.741013 299.158234,126.449821 
	C300.274597,123.363319 301.198334,120.296844 299.826874,116.804443 
	C296.956696,109.495461 292.541046,106.989677 280.777863,107.249992 
M236.167709,140.594147 
	C241.382111,132.315979 240.918579,124.417511 234.283356,117.332085 
	C225.970856,108.455597 215.312927,105.975182 203.688660,107.626587 
	C199.077103,108.281731 195.633698,111.103943 194.127808,116.054169 
	C191.673752,124.121262 195.876434,134.237167 204.696869,140.539703 
	C215.927979,148.564758 227.707413,148.804062 236.167709,140.594147 
M250.811569,241.485886 
	C255.937912,239.655746 257.985962,234.209351 262.536865,231.613464 
	C270.839264,226.877686 272.449127,222.942200 270.439667,213.640198 
	C268.174713,203.155609 267.775818,202.706726 259.151764,208.907730 
	C250.139786,215.387665 241.335220,215.581375 232.210312,210.011520 
	C228.643707,207.834503 225.013489,208.035767 221.005432,208.079453 
	C220.441711,210.804001 219.987625,213.391098 219.364273,215.936752 
	C217.590088,223.182327 225.485825,234.187271 232.942108,233.759155 
	C237.443878,233.500671 240.154846,235.308670 242.878799,238.085114 
	C244.874939,240.119690 246.814163,242.258469 250.811569,241.485886 
M211.139664,296.349609 
	C209.208206,293.765717 207.309723,290.745087 203.557098,293.616089 
	C199.970261,296.360229 202.044281,299.005859 203.911270,301.742737 
	C212.243179,313.956665 220.471130,326.241486 228.772888,338.476105 
	C229.873032,340.097443 230.674286,342.396454 232.799759,342.673737 
	C238.885025,343.467773 243.821335,346.825134 249.472733,349.178986 
	C236.837631,331.758362 224.202530,314.337769 211.139664,296.349609 
M333.901642,329.411621 
	C334.765991,332.003754 331.305145,336.997803 337.397491,336.660797 
	C343.330902,336.332520 349.223053,335.241547 355.129395,334.456146 
	C356.147125,334.320831 357.033295,333.837280 357.538055,332.889282 
	C359.062622,330.025940 360.561615,327.149017 362.326019,323.791229 
	C351.211304,320.316406 341.759308,314.537048 333.937744,306.033844 
	C333.437469,306.394623 332.937225,306.755371 332.436951,307.116150 
	C332.902771,314.264526 333.368591,321.412903 333.901642,329.411621 
M256.900543,205.434204 
	C260.902618,201.905273 267.317902,200.081207 266.618378,192.286697 
	C265.217560,192.625305 264.514343,192.626450 264.007568,192.942566 
	C252.105591,200.367325 240.597351,200.769440 229.545578,191.194168 
	C228.193649,190.022827 226.438858,189.580734 225.065506,191.118469 
	C223.552139,192.812973 223.846970,194.844879 224.822113,196.724091 
	C230.863556,208.366623 245.195618,212.492615 256.900543,205.434204 
M269.813202,361.564911 
	C272.519592,359.547729 273.172485,356.285400 274.416809,353.476044 
	C275.832458,350.279968 274.033325,348.850372 270.791656,348.999939 
	C266.629791,349.191925 264.127747,352.421082 261.015381,354.483276 
	C259.893829,355.226379 260.348969,356.694214 261.218994,357.572449 
	C263.399689,359.773712 265.341064,362.520477 269.813202,361.564911 
M175.271530,406.886536 
	C174.956528,410.033417 174.512848,413.173828 174.354736,416.328552 
	C174.071457,421.980316 175.905197,425.638275 179.723404,427.247864 
	C174.868011,416.639801 179.874222,405.759308 177.983490,394.993042 
	C177.106735,398.668121 176.229980,402.343231 175.271530,406.886536 
M244.661469,181.009674 
	C237.875458,180.682785 231.471008,178.735397 225.201675,176.214157 
	C237.416016,184.687485 266.459229,183.016556 274.657196,172.865616 
	C265.175568,178.440521 255.587982,180.587631 244.661469,181.009674 
M330.809875,359.283569 
	C328.591309,356.142822 327.348785,359.072571 326.822205,360.337097 
	C325.756897,362.895416 324.778717,365.944458 329.277954,367.303986 
	C329.836548,364.660919 330.331451,362.319366 330.809875,359.283569 
M289.088135,389.990601 
	C288.490082,389.619476 288.168274,388.577942 287.149048,389.165894 
	C288.846191,393.173676 289.930145,393.999878 294.879395,394.928711 
	C292.986755,393.310883 291.268524,391.842194 289.088135,389.990601 
M250.632843,344.475800 
	C251.627319,345.255493 252.613480,345.224213 252.810593,343.891174 
	C253.092804,341.982605 252.692917,340.260345 250.262756,340.029663 
	C248.541763,341.429199 249.596802,342.704926 250.632843,344.475800 
z"/>
<path fill="#000000" opacity="1.000000" stroke="none" 
	d="
M456.187927,276.192993 
	C457.068329,282.483978 458.139679,288.368469 458.624390,294.300903 
	C458.958496,298.389832 458.257996,302.461365 454.763214,305.495819 
	C451.736084,301.256561 451.744934,280.886475 454.618256,272.532440 
	C456.365936,273.062958 455.749023,274.671326 456.187927,276.192993 
z"/>
<path fill="#000000" opacity="1.000000" stroke="none" 
	d="
M464.177887,218.614670 
	C460.626831,217.403641 460.626831,217.403641 462.208038,212.943619 
	C465.034149,213.994568 465.313141,215.918228 464.177887,218.614670 
z"/>
<path fill="#000000" opacity="1.000000" stroke="none" 
	d="
M239.993942,154.958130 
	C240.945953,160.569382 245.148743,158.640488 248.158264,158.371140 
	C252.365860,157.994553 249.567993,154.654144 249.280365,152.270111 
	C252.633911,152.762726 254.162933,154.167770 254.376144,156.820038 
	C254.560867,159.117981 253.280304,160.628052 251.268051,161.441818 
	C246.692001,163.292435 242.192337,163.250046 237.937927,160.491348 
	C236.263214,159.405396 235.515747,157.808090 235.749557,155.790543 
	C235.968018,153.905334 237.284714,152.921371 238.797714,152.134918 
	C239.573517,151.731644 240.514618,151.604004 240.968155,152.487778 
	C241.402405,153.333954 240.652863,154.025818 239.993942,154.958130 
z"/>
<path fill="#000000" opacity="1.000000" stroke="none" 
	d="
M265.896515,127.121857 
	C268.211426,124.049904 271.328552,123.361946 274.454803,123.014343 
	C277.262634,122.702156 279.848297,123.584595 280.912842,126.507881 
	C281.984375,129.450409 280.424316,131.632950 278.185730,133.354019 
	C274.620544,136.095062 268.605896,136.108109 266.285706,133.388229 
	C264.746490,131.583832 264.325592,129.592514 265.896515,127.121857 
z"/>
<path fill="#000000" opacity="1.000000" stroke="none" 
	d="
M215.036713,134.485260 
	C211.859665,132.635452 209.136795,130.685364 210.093735,126.930885 
	C210.846909,123.975975 213.519089,122.772865 216.328415,123.038696 
	C220.305634,123.415047 224.586060,124.079575 226.002472,128.640106 
	C227.068466,132.072418 225.272705,134.503601 221.744202,135.163040 
	C219.660416,135.552475 217.446823,135.717957 215.036713,134.485260 
z"/>
</svg>