<?xml version="1.0" encoding="UTF-8"?>
<!DOCTYPE svg PUBLIC "-//W3C//DTD SVG 1.1//EN" "http://www.w3.org/Graphics/SVG/1.1/DTD/svg11.dtd">
<svg xmlns="http://www.w3.org/2000/svg" version="1.1" width="470px" height="189px" style="shape-rendering:geometricPrecision; text-rendering:geometricPrecision; image-rendering:optimizeQuality; fill-rule:evenodd; clip-rule:evenodd" xmlns:xlink="http://www.w3.org/1999/xlink">
<g><path style="opacity:1" fill="#4921aa" d="M -0.5,-0.5 C 156.167,-0.5 312.833,-0.5 469.5,-0.5C 469.5,3.16667 469.5,6.83333 469.5,10.5C 312.833,10.5 156.167,10.5 -0.5,10.5C -0.5,6.83333 -0.5,3.16667 -0.5,-0.5 Z"/></g>
<g><path style="opacity:1" fill="#b1b0b2" d="M -0.5,10.5 C 156.167,10.5 312.833,10.5 469.5,10.5C 469.5,31.8333 469.5,53.1667 469.5,74.5C 458.162,74.6665 446.828,74.4999 435.5,74C 431.532,73.0357 428.365,70.8691 426,67.5C 423.403,58.3744 420.403,49.3744 417,40.5C 414.531,38.3485 411.698,36.8485 408.5,36C 325.167,35.3333 241.833,35.3333 158.5,36C 154.725,37.4421 151.892,39.9421 150,43.5C 146.872,51.8793 143.538,60.2126 140,68.5C 137.374,71.2308 134.207,73.0642 130.5,74C 89.1667,74.3333 47.8333,74.6667 6.5,75C 4.19243,75.9907 1.8591,76.824 -0.5,77.5C -0.5,55.1667 -0.5,32.8333 -0.5,10.5 Z"/></g>
<g><path style="opacity:1" fill="#f01841" d="M 20.5,34.5 C 30.8601,34.3556 35.3601,39.3556 34,49.5C 26.8098,59.0599 20.1431,58.7266 14,48.5C 12.6694,42.1632 14.8361,37.4965 20.5,34.5 Z"/></g>
<g><path style="opacity:1" fill="#e6e542" d="M 60.5,34.5 C 70.9125,34.4045 75.4125,39.4045 74,49.5C 66.8098,59.0599 60.1431,58.7266 54,48.5C 52.6694,42.1632 54.8361,37.4965 60.5,34.5 Z"/></g>
<g><path style="opacity:1" fill="#26a541" d="M 99.5,34.5 C 109.881,34.3747 114.381,39.3747 113,49.5C 105.81,59.0599 99.1431,58.7266 93,48.5C 92.3333,46.1667 92.3333,43.8333 93,41.5C 94.6941,38.6424 96.8607,36.309 99.5,34.5 Z"/></g>
<g><path style="opacity:1" fill="#dddedf" d="M 469.5,74.5 C 469.5,79.8333 469.5,85.1667 469.5,90.5C 344.167,90.5 218.833,90.5 93.5,90.5C 93.5,123.167 93.5,155.833 93.5,188.5C 62.1667,188.5 30.8333,188.5 -0.5,188.5C -0.5,151.5 -0.5,114.5 -0.5,77.5C 1.8591,76.824 4.19243,75.9907 6.5,75C 47.8333,74.6667 89.1667,74.3333 130.5,74C 134.207,73.0642 137.374,71.2308 140,68.5C 143.538,60.2126 146.872,51.8793 150,43.5C 151.892,39.9421 154.725,37.4421 158.5,36C 241.833,35.3333 325.167,35.3333 408.5,36C 411.698,36.8485 414.531,38.3485 417,40.5C 420.403,49.3744 423.403,58.3744 426,67.5C 428.365,70.8691 431.532,73.0357 435.5,74C 446.828,74.4999 458.162,74.6665 469.5,74.5 Z"/></g>
<g><path style="opacity:1" fill="#6a6c6c" d="M 381.5,48.5 C 382.552,48.3505 383.552,48.5172 384.5,49C 386.683,51.3504 389.016,53.517 391.5,55.5C 393.984,53.517 396.317,51.3504 398.5,49C 402.111,47.7458 403.611,48.9124 403,52.5C 400.5,55 398,57.5 395.5,60C 399.348,62.6474 401.681,66.1474 402.5,70.5C 401.127,70.6567 399.793,70.49 398.5,70C 396.615,67.7776 394.449,65.9443 392,64.5C 389.551,65.9443 387.385,67.7776 385.5,70C 383.866,70.4935 382.199,70.6602 380.5,70.5C 380.343,69.1266 380.51,67.7932 381,66.5C 383.35,64.3171 385.517,61.9837 387.5,59.5C 385.517,57.0163 383.35,54.6829 381,52.5C 380.421,51.0715 380.588,49.7382 381.5,48.5 Z"/></g>
<g><path style="opacity:1" fill="#f0f0f1" d="M 469.5,90.5 C 469.5,90.8333 469.5,91.1667 469.5,91.5C 344.5,91.5 219.5,91.5 94.5,91.5C 94.5,123.833 94.5,156.167 94.5,188.5C 94.1667,188.5 93.8333,188.5 93.5,188.5C 93.5,155.833 93.5,123.167 93.5,90.5C 218.833,90.5 344.167,90.5 469.5,90.5 Z"/></g>
<g><path style="opacity:1" fill="#fefdfe" d="M 469.5,91.5 C 469.5,123.833 469.5,156.167 469.5,188.5C 344.5,188.5 219.5,188.5 94.5,188.5C 94.5,156.167 94.5,123.833 94.5,91.5C 219.5,91.5 344.5,91.5 469.5,91.5 Z"/></g>
<g><path style="opacity:1" fill="#f21541" d="M 155.5,101.5 C 160.969,100.71 165.469,102.377 169,106.5C 180.918,125.333 192.584,144.333 204,163.5C 205.858,170.617 203.358,175.451 196.5,178C 170.5,178.667 144.5,178.667 118.5,178C 112.939,174.71 110.773,169.877 112,163.5C 125.392,144.439 138.392,125.106 151,105.5C 152.397,103.93 153.897,102.596 155.5,101.5 Z"/></g>
<g><path style="opacity:1" fill="#686a6a" d="M 29.5,108.5 C 47.5523,106.271 60.3856,113.271 68,129.5C 68.4935,131.134 68.6602,132.801 68.5,134.5C 71.8333,134.5 75.1667,134.5 78.5,134.5C 75.4236,141.759 70.9236,148.093 65,153.5C 61.7,150.528 58.7,147.195 56,143.5C 53.9404,140.714 52.4404,137.714 51.5,134.5C 54.8333,134.5 58.1667,134.5 61.5,134.5C 58.0903,121.616 49.5903,115.283 36,115.5C 24.5822,116.573 16.9156,122.573 13,133.5C 10.4699,152.28 18.4699,162.947 37,165.5C 39.8653,165.395 42.6986,165.062 45.5,164.5C 49.7951,165.585 50.4617,167.752 47.5,171C 26.907,175.917 13.0737,168.417 6,148.5C 3.24958,128.788 11.0829,115.454 29.5,108.5 Z"/></g>
<g><path style="opacity:1" fill="#fff5f7" d="M 154.5,121.5 C 157.5,121.5 160.5,121.5 163.5,121.5C 162.907,132.172 162.24,142.838 161.5,153.5C 159.833,153.5 158.167,153.5 156.5,153.5C 155.502,142.856 154.835,132.189 154.5,121.5 Z"/></g>
<g><path style="opacity:1" fill="#6d6f6f" d="M 225.5,126.5 C 227.199,126.34 228.866,126.506 230.5,127C 235.667,133.5 240.833,140 246,146.5C 246.5,139.842 246.666,133.175 246.5,126.5C 248.167,126.5 249.833,126.5 251.5,126.5C 251.5,136.167 251.5,145.833 251.5,155.5C 249.396,155.799 247.396,155.466 245.5,154.5C 240.858,148.024 236.025,141.691 231,135.5C 230.5,142.158 230.334,148.825 230.5,155.5C 228.833,155.5 227.167,155.5 225.5,155.5C 225.5,145.833 225.5,136.167 225.5,126.5 Z"/></g>
<g><path style="opacity:1" fill="#727474" d="M 286.5,126.5 C 288.167,126.5 289.833,126.5 291.5,126.5C 291.5,128.833 291.5,131.167 291.5,133.5C 293.167,133.5 294.833,133.5 296.5,133.5C 296.5,134.833 296.5,136.167 296.5,137.5C 294.833,137.5 293.167,137.5 291.5,137.5C 291.5,142.167 291.5,146.833 291.5,151.5C 293.262,151.643 294.929,151.309 296.5,150.5C 297.415,151.328 298.081,152.328 298.5,153.5C 294.965,156.128 291.465,156.128 288,153.5C 286.603,148.292 286.103,142.959 286.5,137.5C 285.5,137.5 284.5,137.5 283.5,137.5C 283.5,136.167 283.5,134.833 283.5,133.5C 284.5,133.5 285.5,133.5 286.5,133.5C 286.5,131.167 286.5,128.833 286.5,126.5 Z"/></g>
<g><path style="opacity:1" fill="#6f7171" d="M 264.5,133.5 C 275.381,132.224 280.548,136.891 280,147.5C 276.997,155.14 271.497,157.64 263.5,155C 255.273,147.345 255.607,140.178 264.5,133.5 Z"/></g>
<g><path style="opacity:1" fill="#707272" d="M 316.5,133.5 C 319.518,133.335 322.518,133.502 325.5,134C 327.985,135.223 328.152,136.723 326,138.5C 323.281,137.556 320.448,137.223 317.5,137.5C 317.238,138.978 317.571,140.311 318.5,141.5C 321.885,142.462 325.051,143.796 328,145.5C 329.721,152.616 326.888,155.95 319.5,155.5C 316.253,155.919 313.586,154.919 311.5,152.5C 311.865,151.098 312.699,150.098 314,149.5C 315.721,150.895 317.721,151.561 320,151.5C 321.973,151.691 323.473,151.024 324.5,149.5C 320.679,147.267 316.845,144.934 313,142.5C 312.333,140.833 312.333,139.167 313,137.5C 314.376,136.295 315.542,134.962 316.5,133.5 Z"/></g>
<g><path style="opacity:1" fill="#707272" d="M 339.5,133.5 C 349.719,132.08 354.719,136.413 354.5,146.5C 348.794,146.171 343.128,146.505 337.5,147.5C 340.187,151.314 343.853,152.48 348.5,151C 350.46,149.061 351.793,149.561 352.5,152.5C 351.5,153.333 350.5,154.167 349.5,155C 336.394,156.895 331.227,151.395 334,138.5C 335.73,136.598 337.563,134.931 339.5,133.5 Z"/></g>
<g><path style="opacity:1" fill="#6e7070" d="M 364.5,133.5 C 367.518,133.335 370.518,133.502 373.5,134C 375.223,134.523 376.556,135.523 377.5,137C 377.387,138.28 376.72,139.113 375.5,139.5C 369.19,135.758 364.857,137.258 362.5,144C 362.795,146.923 364.129,149.257 366.5,151C 370.015,151.519 373.348,151.186 376.5,150C 377.167,150.667 377.833,151.333 378.5,152C 374.094,155.382 369.094,156.382 363.5,155C 358.789,150.86 357.289,145.694 359,139.5C 360.36,136.977 362.193,134.977 364.5,133.5 Z"/></g>
<g><path style="opacity:1" fill="#6f7171" d="M 409.5,133.5 C 410.833,133.5 412.167,133.5 413.5,133.5C 413.367,138.272 414.7,138.438 417.5,134C 418.793,133.51 420.127,133.343 421.5,133.5C 421.5,134.833 421.5,136.167 421.5,137.5C 418.439,137.444 416.272,138.778 415,141.5C 414.501,146.155 414.334,150.821 414.5,155.5C 412.833,155.5 411.167,155.5 409.5,155.5C 409.5,148.167 409.5,140.833 409.5,133.5 Z"/></g>
<g><path style="opacity:1" fill="#707272" d="M 430.5,133.5 C 440.926,131.939 445.926,136.272 445.5,146.5C 440.167,146.5 434.833,146.5 429.5,146.5C 429.297,148.39 429.963,149.89 431.5,151C 435.118,151.966 438.451,151.466 441.5,149.5C 444.105,151.236 444.105,153.069 441.5,155C 428.504,157.669 423.004,152.502 425,139.5C 426.36,136.977 428.193,134.977 430.5,133.5 Z"/></g>
<g><path style="opacity:1" fill="#6d6e6e" d="M 382.5,133.5 C 384.167,133.5 385.833,133.5 387.5,133.5C 387.334,138.844 387.501,144.177 388,149.5C 391.619,152.343 394.952,152.01 398,148.5C 398.499,143.511 398.666,138.511 398.5,133.5C 399.833,133.5 401.167,133.5 402.5,133.5C 402.5,140.833 402.5,148.167 402.5,155.5C 401.167,155.5 399.833,155.5 398.5,155.5C 398.649,154.448 398.483,153.448 398,152.5C 393.855,155.979 389.522,156.312 385,153.5C 384.333,152.167 383.667,150.833 383,149.5C 382.501,144.177 382.334,138.844 382.5,133.5 Z"/></g>
<g><path style="opacity:1" fill="#f9fafa" d="M 265.5,137.5 C 275.247,137.085 277.913,141.252 273.5,150C 264.735,152.908 261.235,149.741 263,140.5C 264.045,139.627 264.878,138.627 265.5,137.5 Z"/></g>
<g><path style="opacity:1" fill="#f7f7f7" d="M 340.5,137.5 C 342.857,137.337 345.19,137.503 347.5,138C 349.037,139.11 349.703,140.61 349.5,142.5C 345.445,142.824 341.445,142.491 337.5,141.5C 338.172,139.84 339.172,138.507 340.5,137.5 Z"/></g>
<g><path style="opacity:1" fill="#f8f8f8" d="M 431.5,137.5 C 435.849,136.577 439.183,137.91 441.5,141.5C 437.555,142.491 433.555,142.824 429.5,142.5C 429.392,140.486 430.058,138.82 431.5,137.5 Z"/></g>
<g><path style="opacity:1" fill="#ffeef1" d="M 156.5,158.5 C 163.641,158.62 165.308,161.787 161.5,168C 156.967,169.471 154.633,167.804 154.5,163C 154.519,161.167 155.185,159.667 156.5,158.5 Z"/></g>
</svg>
