<?xml version="1.0" encoding="UTF-8"?>
<!DOCTYPE svg PUBLIC "-//W3C//DTD SVG 1.1//EN" "http://www.w3.org/Graphics/SVG/1.1/DTD/svg11.dtd">
<svg xmlns="http://www.w3.org/2000/svg" version="1.1" width="461px" height="246px" style="shape-rendering:geometricPrecision; text-rendering:geometricPrecision; image-rendering:optimizeQuality; fill-rule:evenodd; clip-rule:evenodd" xmlns:xlink="http://www.w3.org/1999/xlink">
<g><path style="opacity:1" fill="#c3d1f3" d="M -0.5,-0.5 C 153.167,-0.5 306.833,-0.5 460.5,-0.5C 460.5,43.5 460.5,87.5 460.5,131.5C 460.037,127.826 458.37,124.659 455.5,122C 450.387,119.077 445.054,116.743 439.5,115C 442.167,114.667 444.833,114.333 447.5,114C 443.611,113.821 439.944,112.988 436.5,111.5C 435.71,110.599 434.71,109.932 433.5,109.5C 431.421,107.127 428.754,105.794 425.5,105.5C 422.713,104.523 419.713,104.19 416.5,104.5C 416.667,92.4954 416.5,80.4954 416,68.5C 411.995,50.2445 400.828,39.2445 382.5,35.5C 364.01,31.9848 348.843,37.6514 337,52.5C 334.713,55.0722 333.547,58.0722 333.5,61.5C 332.069,62.7804 331.402,64.4471 331.5,66.5C 330.778,66.9175 330.278,67.5842 330,68.5C 329.503,71.146 329.336,73.8127 329.5,76.5C 228.833,76.3333 128.166,76.5 27.5,77C 6.81843,84.1791 -1.68157,98.6791 2,120.5C 3.51788,124.92 5.68455,128.92 8.5,132.5C 9.69354,133.272 10.6935,134.272 11.5,135.5C 12.4363,136.974 13.7697,137.974 15.5,138.5C 15.5,139.167 15.8333,139.5 16.5,139.5C 17.391,140.11 18.391,140.443 19.5,140.5C 20.9649,141.737 22.6316,142.737 24.5,143.5C 25.1667,143.833 25.8333,144.167 26.5,144.5C 26.84,146.679 27.84,148.512 29.5,150C 33.3067,153.203 37.64,155.37 42.5,156.5C 130.497,157.5 218.497,157.833 306.5,157.5C 306.333,177.836 306.5,198.169 307,218.5C 307.278,219.416 307.778,220.082 308.5,220.5C 308.932,221.71 309.599,222.71 310.5,223.5C 311.585,225.587 313.251,226.92 315.5,227.5C 316.29,228.401 317.29,229.068 318.5,229.5C 320.515,230.924 322.848,231.59 325.5,231.5C 327.862,238.529 332.529,243.195 339.5,245.5C 226.167,245.5 112.833,245.5 -0.5,245.5C -0.5,163.5 -0.5,81.5 -0.5,-0.5 Z"/></g>
<g><path style="opacity:1" fill="#cc2634" d="M 369.5,36.5 C 369.5,36.1667 369.5,35.8333 369.5,35.5C 373.833,35.5 378.167,35.5 382.5,35.5C 400.828,39.2445 411.995,50.2445 416,68.5C 416.5,80.4954 416.667,92.4954 416.5,104.5C 416.167,104.5 415.833,104.5 415.5,104.5C 415.667,93.495 415.5,82.495 415,71.5C 413.384,60.0664 407.884,51.0664 398.5,44.5C 392.33,41.3329 391.33,42.3329 395.5,47.5C 392.171,45.3397 388.504,44.0064 384.5,43.5C 381.136,43.2259 378.803,44.5592 377.5,47.5C 361.568,46.2896 350.568,52.9563 344.5,67.5C 343.732,68.2625 343.232,69.2625 343,70.5C 342.5,81.8284 342.333,93.1618 342.5,104.5C 340.5,104.5 338.5,104.5 336.5,104.5C 336.333,92.4954 336.5,80.4954 337,68.5C 337.21,66.9419 337.71,65.6085 338.5,64.5C 337.396,77.5023 337.396,90.5023 338.5,103.5C 339.086,103.291 339.586,102.957 340,102.5C 340.333,91.5 340.667,80.5 341,69.5C 342.94,62.4614 346.773,56.628 352.5,52C 358.232,49.134 363.899,46.3007 369.5,43.5C 364.831,42.8767 360.164,43.21 355.5,44.5C 355.611,43.8826 355.944,43.3826 356.5,43C 362.222,41.4836 367.889,39.6503 373.5,37.5C 372.311,36.5713 370.978,36.238 369.5,36.5 Z"/></g>
<g><path style="opacity:1" fill="#f6726a" d="M 382.5,35.5 C 378.167,35.5 373.833,35.5 369.5,35.5C 363.026,36.232 357.026,38.3986 351.5,42C 346.975,45.8627 342.475,49.696 338,53.5C 336.529,56.2785 335.029,58.9452 333.5,61.5C 333.547,58.0722 334.713,55.0722 337,52.5C 348.843,37.6514 364.01,31.9848 382.5,35.5 Z"/></g>
<g><path style="opacity:1" fill="#f14c44" d="M 369.5,35.5 C 369.5,35.8333 369.5,36.1667 369.5,36.5C 364.546,37.4726 359.879,39.3059 355.5,42C 349.786,44.8782 344.786,48.7116 340.5,53.5C 338.179,58.6291 336.346,63.9624 335,69.5C 334.5,81.1619 334.333,92.8286 334.5,104.5C 333.5,104.5 332.5,104.5 331.5,104.5C 331.037,90.0913 331.704,75.7579 333.5,61.5C 335.029,58.9452 336.529,56.2785 338,53.5C 342.475,49.696 346.975,45.8627 351.5,42C 357.026,38.3986 363.026,36.232 369.5,35.5 Z"/></g>
<g><path style="opacity:1" fill="#c3cff0" d="M 377.5,47.5 C 390.759,49.4266 399.425,56.7599 403.5,69.5C 404.757,81.3139 404.757,92.9805 403.5,104.5C 395.5,104.5 387.5,104.5 379.5,104.5C 379.719,103.325 379.386,102.325 378.5,101.5C 374.244,96.0678 369.744,90.7344 365,85.5C 365.036,91.2491 365.869,96.9157 367.5,102.5C 367.137,103.183 366.804,103.85 366.5,104.5C 363.833,104.5 361.167,104.5 358.5,104.5C 359.376,100.825 359.042,97.1581 357.5,93.5C 358.606,89.223 358.772,84.8897 358,80.5C 353.503,78.0004 348.67,76.6671 343.5,76.5C 343.704,73.4824 344.037,70.4824 344.5,67.5C 350.568,52.9563 361.568,46.2896 377.5,47.5 Z"/></g>
<g><path style="opacity:1" fill="#e43838" d="M 395.5,47.5 C 398.144,49.969 400.977,52.3024 404,54.5C 405.969,58.3811 407.636,62.3811 409,66.5C 409.5,79.1623 409.667,91.8289 409.5,104.5C 408.167,104.5 406.833,104.5 405.5,104.5C 405.667,93.8281 405.5,83.1615 405,72.5C 404.768,71.2625 404.268,70.2625 403.5,69.5C 399.425,56.7599 390.759,49.4266 377.5,47.5C 378.803,44.5592 381.136,43.2259 384.5,43.5C 388.504,44.0064 392.171,45.3397 395.5,47.5 Z"/></g>
<g><path style="opacity:1" fill="#af0b2b" d="M 338.5,64.5 C 341.288,55.3793 346.955,48.7126 355.5,44.5C 360.164,43.21 364.831,42.8767 369.5,43.5C 363.899,46.3007 358.232,49.134 352.5,52C 346.773,56.628 342.94,62.4614 341,69.5C 340.667,80.5 340.333,91.5 340,102.5C 339.586,102.957 339.086,103.291 338.5,103.5C 337.396,90.5023 337.396,77.5023 338.5,64.5 Z"/></g>
<g><path style="opacity:1" fill="#f6f7fb" d="M 329.5,76.5 C 329.5,77.8333 329.5,79.1667 329.5,80.5C 229.833,80.3333 130.166,80.5 30.5,81C 22.6655,82.2839 16.8321,85.7839 13,91.5C 10.8092,95.4371 9.30923,99.6037 8.5,104C 8.77131,109.221 8.77131,114.554 8.5,120C 11.1335,124.275 11.1335,128.442 8.5,132.5C 5.68455,128.92 3.51788,124.92 2,120.5C -1.68157,98.6791 6.81843,84.1791 27.5,77C 128.166,76.5 228.833,76.3333 329.5,76.5 Z"/></g>
<g><path style="opacity:1" fill="#b6102b" d="M 415.5,104.5 C 413.5,104.5 411.5,104.5 409.5,104.5C 409.667,91.8289 409.5,79.1623 409,66.5C 407.636,62.3811 405.969,58.3811 404,54.5C 400.977,52.3024 398.144,49.969 395.5,47.5C 391.33,42.3329 392.33,41.3329 398.5,44.5C 407.884,51.0664 413.384,60.0664 415,71.5C 415.5,82.495 415.667,93.495 415.5,104.5 Z"/></g>
<g><path style="opacity:1" fill="#e9ebf8" d="M 329.5,80.5 C 329.5,82.5 329.5,84.5 329.5,86.5C 230.168,86.8365 130.835,87.0031 31.5,87C 28.4151,88.9596 25.2485,90.7929 22,92.5C 19.873,105.091 20.0397,117.591 22.5,130C 19.0318,132.279 15.3652,134.112 11.5,135.5C 10.6935,134.272 9.69354,133.272 8.5,132.5C 11.1335,128.442 11.1335,124.275 8.5,120C 8.77131,114.554 8.77131,109.221 8.5,104C 9.30923,99.6037 10.8092,95.4371 13,91.5C 16.8321,85.7839 22.6655,82.2839 30.5,81C 130.166,80.5 229.833,80.3333 329.5,80.5 Z"/></g>
<g><path style="opacity:1" fill="#e0e2f3" d="M 343.5,76.5 C 348.67,76.6671 353.503,78.0004 358,80.5C 358.772,84.8897 358.606,89.223 357.5,93.5C 359.042,97.1581 359.376,100.825 358.5,104.5C 353.5,104.5 348.5,104.5 343.5,104.5C 343.5,95.1667 343.5,85.8333 343.5,76.5 Z"/></g>
<g><path style="opacity:1" fill="#d82a30" d="M 369.5,36.5 C 370.978,36.238 372.311,36.5713 373.5,37.5C 367.889,39.6503 362.222,41.4836 356.5,43C 355.944,43.3826 355.611,43.8826 355.5,44.5C 346.955,48.7126 341.288,55.3793 338.5,64.5C 337.71,65.6085 337.21,66.9419 337,68.5C 336.5,80.4954 336.333,92.4954 336.5,104.5C 335.833,104.5 335.167,104.5 334.5,104.5C 334.333,92.8286 334.5,81.1619 335,69.5C 336.346,63.9624 338.179,58.6291 340.5,53.5C 344.786,48.7116 349.786,44.8782 355.5,42C 359.879,39.3059 364.546,37.4726 369.5,36.5 Z"/></g>
<g><path style="opacity:1" fill="#dfe0f3" d="M 329.5,86.5 C 329.5,92.5 329.5,98.5 329.5,104.5C 325.298,104.183 321.298,104.517 317.5,105.5C 316.508,105.328 315.842,105.662 315.5,106.5C 313.938,106.733 312.605,107.4 311.5,108.5C 309.674,110.147 308.34,112.147 307.5,114.5C 306.509,121.313 306.175,128.313 306.5,135.5C 214.901,135.847 124.067,135.847 34,135.5C 28.1267,135.557 22.2933,136.057 16.5,137C 15.944,137.383 15.6107,137.883 15.5,138.5C 13.7697,137.974 12.4363,136.974 11.5,135.5C 15.3652,134.112 19.0318,132.279 22.5,130C 20.0397,117.591 19.873,105.091 22,92.5C 25.2485,90.7929 28.4151,88.9596 31.5,87C 130.835,87.0031 230.168,86.8365 329.5,86.5 Z"/></g>
<g><path style="opacity:1" fill="#e6bbc3" d="M 331.5,66.5 C 330.911,79.3156 330.244,91.9822 329.5,104.5C 329.5,98.5 329.5,92.5 329.5,86.5C 329.5,84.5 329.5,82.5 329.5,80.5C 329.5,79.1667 329.5,77.8333 329.5,76.5C 329.336,73.8127 329.503,71.146 330,68.5C 330.278,67.5842 330.778,66.9175 331.5,66.5 Z"/></g>
<g><path style="opacity:1" fill="#a1a8d2" d="M 379.5,104.5 C 375.167,104.5 370.833,104.5 366.5,104.5C 366.804,103.85 367.137,103.183 367.5,102.5C 365.869,96.9157 365.036,91.2491 365,85.5C 369.744,90.7344 374.244,96.0678 378.5,101.5C 379.386,102.325 379.719,103.325 379.5,104.5 Z"/></g>
<g><path style="opacity:1" fill="#565657" d="M 93.5,98.5 C 95.1667,98.5 96.8333,98.5 98.5,98.5C 98.8333,101.167 99.1667,103.833 99.5,106.5C 102.545,106.492 105.545,106.159 108.5,105.5C 108.5,107.167 108.5,108.833 108.5,110.5C 105.614,110.61 103.28,111.777 101.5,114C 103.212,115.923 104.546,118.089 105.5,120.5C 104.833,121.833 103.833,122.833 102.5,123.5C 100.183,121.684 98.0165,119.684 96,117.5C 93.9056,120.315 91.4056,122.148 88.5,123C 87.6433,122.311 86.9767,121.478 86.5,120.5C 88.3435,118.018 89.6769,115.351 90.5,112.5C 88.0733,112.477 85.74,111.977 83.5,111C 82.8617,109.293 82.8617,107.46 83.5,105.5C 86.8333,106.167 90.1667,106.833 93.5,107.5C 93.5,104.5 93.5,101.5 93.5,98.5 Z"/></g>
<g><path style="opacity:1" fill="#545455" d="M 139.5,98.5 C 141.167,98.5 142.833,98.5 144.5,98.5C 144.211,101.649 144.711,104.649 146,107.5C 148.687,106.287 151.52,105.62 154.5,105.5C 154.5,107.167 154.5,108.833 154.5,110.5C 151.821,110.673 149.487,111.673 147.5,113.5C 148.833,115.833 150.167,118.167 151.5,120.5C 150.653,121.845 149.487,122.845 148,123.5C 145.984,121.316 143.817,119.316 141.5,117.5C 139.833,119.833 137.833,121.833 135.5,123.5C 134.098,123.135 133.098,122.301 132.5,121C 133.615,118.384 134.949,115.884 136.5,113.5C 134.711,112.123 132.711,111.123 130.5,110.5C 129.548,108.955 129.215,107.288 129.5,105.5C 132.833,106.167 136.167,106.833 139.5,107.5C 139.5,104.5 139.5,101.5 139.5,98.5 Z"/></g>
<g><path style="opacity:1" fill="#555556" d="M 185.5,98.5 C 187.167,98.5 188.833,98.5 190.5,98.5C 190.5,101.5 190.5,104.5 190.5,107.5C 193.833,106.833 197.167,106.167 200.5,105.5C 200.5,107.167 200.5,108.833 200.5,110.5C 197.614,110.61 195.28,111.777 193.5,114C 194.701,116.234 196.035,118.401 197.5,120.5C 196.485,123.168 194.818,123.834 192.5,122.5C 191.185,120.684 189.685,119.017 188,117.5C 185.984,119.684 183.817,121.684 181.5,123.5C 180.354,122.855 179.354,122.022 178.5,121C 179.496,118.684 180.496,116.35 181.5,114C 179.527,112.009 177.193,110.509 174.5,109.5C 175.246,108.264 175.579,106.93 175.5,105.5C 178.238,105.851 180.904,106.518 183.5,107.5C 184.678,104.609 185.345,101.609 185.5,98.5 Z"/></g>
<g><path style="opacity:1" fill="#565657" d="M 230.5,98.5 C 232.5,98.5 234.5,98.5 236.5,98.5C 236.5,101.5 236.5,104.5 236.5,107.5C 239.789,106.626 243.123,105.959 246.5,105.5C 246.5,107.167 246.5,108.833 246.5,110.5C 243.821,110.673 241.487,111.673 239.5,113.5C 240.833,115.833 242.167,118.167 243.5,120.5C 242.564,121.974 241.23,122.974 239.5,123.5C 237.861,121.194 235.861,119.194 233.5,117.5C 232.018,119.483 230.351,121.316 228.5,123C 226.704,123.436 225.371,122.769 224.5,121C 225.615,118.384 226.949,115.884 228.5,113.5C 226.029,111.929 223.363,110.929 220.5,110.5C 220.291,108.286 221.124,106.619 223,105.5C 225.434,106.322 227.934,106.656 230.5,106.5C 230.5,103.833 230.5,101.167 230.5,98.5 Z"/></g>
<g><path style="opacity:1" fill="#565657" d="M 276.5,98.5 C 278.5,98.5 280.5,98.5 282.5,98.5C 282.5,101.5 282.5,104.5 282.5,107.5C 285.789,106.626 289.123,105.959 292.5,105.5C 292.5,107.167 292.5,108.833 292.5,110.5C 289.614,110.61 287.28,111.777 285.5,114C 286.701,116.234 288.035,118.401 289.5,120.5C 288.573,122.946 286.906,123.779 284.5,123C 283.359,120.692 281.692,118.859 279.5,117.5C 277.833,119.833 275.833,121.833 273.5,123.5C 271.833,123.167 270.833,122.167 270.5,120.5C 271.618,118.429 272.618,116.262 273.5,114C 272.214,112.351 270.547,111.185 268.5,110.5C 267.548,108.955 267.215,107.288 267.5,105.5C 270.238,105.851 272.904,106.518 275.5,107.5C 276.484,104.572 276.817,101.572 276.5,98.5 Z"/></g>
<g><path style="opacity:1" fill="#e3808c" d="M 344.5,67.5 C 344.037,70.4824 343.704,73.4824 343.5,76.5C 343.5,85.8333 343.5,95.1667 343.5,104.5C 343.167,104.5 342.833,104.5 342.5,104.5C 342.333,93.1618 342.5,81.8284 343,70.5C 343.232,69.2625 343.732,68.2625 344.5,67.5 Z"/></g>
<g><path style="opacity:1" fill="#fb7367" d="M 333.5,61.5 C 331.704,75.7579 331.037,90.0913 331.5,104.5C 332.5,104.5 333.5,104.5 334.5,104.5C 335.167,104.5 335.833,104.5 336.5,104.5C 338.5,104.5 340.5,104.5 342.5,104.5C 342.833,104.5 343.167,104.5 343.5,104.5C 348.5,104.5 353.5,104.5 358.5,104.5C 361.167,104.5 363.833,104.5 366.5,104.5C 370.833,104.5 375.167,104.5 379.5,104.5C 387.5,104.5 395.5,104.5 403.5,104.5C 375.005,105.498 346.338,105.831 317.5,105.5C 321.298,104.517 325.298,104.183 329.5,104.5C 330.244,91.9822 330.911,79.3156 331.5,66.5C 331.402,64.4471 332.069,62.7804 333.5,61.5 Z"/></g>
<g><path style="opacity:1" fill="#f65d53" d="M 403.5,69.5 C 404.268,70.2625 404.768,71.2625 405,72.5C 405.5,83.1615 405.667,93.8281 405.5,104.5C 406.833,104.5 408.167,104.5 409.5,104.5C 411.5,104.5 413.5,104.5 415.5,104.5C 415.833,104.5 416.167,104.5 416.5,104.5C 419.713,104.19 422.713,104.523 425.5,105.5C 388.864,106.481 352.197,106.814 315.5,106.5C 315.842,105.662 316.508,105.328 317.5,105.5C 346.338,105.831 375.005,105.498 403.5,104.5C 404.757,92.9805 404.757,81.3139 403.5,69.5 Z"/></g>
<g><path style="opacity:1" fill="#e73433" d="M 418.5,108.5 C 419.122,109.627 419.955,110.627 421,111.5C 422.333,110.167 423.667,110.167 425,111.5C 425.667,108.833 426.333,108.833 427,111.5C 429.09,110.209 430.424,110.876 431,113.5C 431.319,142.911 431.319,172.577 431,202.5C 430.818,208.897 430.152,215.23 429,221.5C 421.697,222.754 414.363,223.754 407,224.5C 377.716,224.52 347.55,224.354 316.5,224C 314.277,223.348 313.11,221.848 313,219.5C 312.667,215.833 312.333,212.167 312,208.5C 311.254,213.042 311.421,217.542 312.5,222C 312.164,223.03 311.497,223.53 310.5,223.5C 311.569,185.903 312.402,148.236 313,110.5C 314.734,109.751 316.567,109.251 318.5,109C 325,108.833 331.5,108.667 338,108.5C 364.732,108.539 391.566,108.539 418.5,108.5 Z"/></g>
<g><path style="opacity:1" fill="#e03033" d="M 418.5,108.5 C 422.514,108.334 426.514,108.501 430.5,109C 431.691,109.698 432.691,110.531 433.5,111.5C 433.667,146.835 433.5,182.168 433,217.5C 432.667,218.833 432.333,220.167 432,221.5C 430.22,223.794 428.053,225.461 425.5,226.5C 389.004,227.498 352.337,227.832 315.5,227.5C 313.251,226.92 311.585,225.587 310.5,223.5C 311.497,223.53 312.164,223.03 312.5,222C 311.421,217.542 311.254,213.042 312,208.5C 312.333,212.167 312.667,215.833 313,219.5C 313.11,221.848 314.277,223.348 316.5,224C 347.55,224.354 377.716,224.52 407,224.5C 414.363,223.754 421.697,222.754 429,221.5C 430.152,215.23 430.818,208.897 431,202.5C 431.319,172.577 431.319,142.911 431,113.5C 430.424,110.876 429.09,110.209 427,111.5C 426.333,108.833 425.667,108.833 425,111.5C 423.667,110.167 422.333,110.167 421,111.5C 419.955,110.627 419.122,109.627 418.5,108.5 Z"/></g>
<g><path style="opacity:1" fill="#ab1332" d="M 433.5,109.5 C 434.71,109.932 435.71,110.599 436.5,111.5C 438.353,114.208 439.353,117.208 439.5,120.5C 439.5,121.833 439.5,123.167 439.5,124.5C 439.667,156.168 439.5,187.835 439,219.5C 437.741,222.356 436.241,225.023 434.5,227.5C 431.982,228.264 429.649,229.264 427.5,230.5C 391.142,230.808 354.809,230.474 318.5,229.5C 317.29,229.068 316.29,228.401 315.5,227.5C 352.337,227.832 389.004,227.498 425.5,226.5C 430.732,225.77 433.899,222.77 435,217.5C 435.667,182.833 435.667,148.167 435,113.5C 434.722,112.584 434.222,111.918 433.5,111.5C 433.5,110.833 433.5,110.167 433.5,109.5 Z"/></g>
<g><path style="opacity:1" fill="#98a4c9" d="M 440.5,126.5 C 446.843,131.35 450.176,137.85 450.5,146C 449.781,165.763 449.281,185.93 449,206.5C 449.256,220.496 442.756,229.662 429.5,234C 403.523,235.557 377.523,235.89 351.5,235C 348.401,234.613 345.734,233.446 343.5,231.5C 371.672,231.831 399.672,231.498 427.5,230.5C 429.649,229.264 431.982,228.264 434.5,227.5C 436.722,227.822 438.556,227.155 440,225.5C 444.355,219.134 446.688,212.134 447,204.5C 447.267,185.958 447.767,167.625 448.5,149.5C 447.99,145.095 447.157,140.762 446,136.5C 443.879,133.253 442.046,129.919 440.5,126.5 Z"/></g>
<g><path style="opacity:1" fill="#a3b0d4" d="M 439.5,120.5 C 439.833,120.5 440.167,120.5 440.5,120.5C 443.224,123.385 446.391,125.718 450,127.5C 451.049,131.265 452.382,134.932 454,138.5C 454.667,163.833 454.667,189.167 454,214.5C 452.899,224.889 447.732,232.389 438.5,237C 431.349,238.199 424.182,239.366 417,240.5C 394.848,239.436 372.681,239.269 350.5,240C 344.374,238.44 339.041,235.607 334.5,231.5C 337.5,231.5 340.5,231.5 343.5,231.5C 345.734,233.446 348.401,234.613 351.5,235C 377.523,235.89 403.523,235.557 429.5,234C 442.756,229.662 449.256,220.496 449,206.5C 449.281,185.93 449.781,165.763 450.5,146C 450.176,137.85 446.843,131.35 440.5,126.5C 440.672,125.508 440.338,124.842 439.5,124.5C 439.5,123.167 439.5,121.833 439.5,120.5 Z"/></g>
<g><path style="opacity:1" fill="#8d98bd" d="M 439.5,124.5 C 440.338,124.842 440.672,125.508 440.5,126.5C 442.046,129.919 443.879,133.253 446,136.5C 447.157,140.762 447.99,145.095 448.5,149.5C 447.767,167.625 447.267,185.958 447,204.5C 446.688,212.134 444.355,219.134 440,225.5C 438.556,227.155 436.722,227.822 434.5,227.5C 436.241,225.023 437.741,222.356 439,219.5C 439.5,187.835 439.667,156.168 439.5,124.5 Z"/></g>
<g><path style="opacity:1" fill="#ced2eb" d="M 306.5,135.5 C 306.5,136.167 306.5,136.833 306.5,137.5C 210.166,137.333 113.833,137.5 17.5,138C 16.944,138.383 16.6107,138.883 16.5,139.5C 15.8333,139.5 15.5,139.167 15.5,138.5C 15.6107,137.883 15.944,137.383 16.5,137C 22.2933,136.057 28.1267,135.557 34,135.5C 124.067,135.847 214.901,135.847 306.5,135.5 Z"/></g>
<g><path style="opacity:1" fill="#c2c6e5" d="M 306.5,137.5 C 306.5,138.167 306.5,138.833 306.5,139.5C 210.665,139.167 114.999,139.501 19.5,140.5C 18.391,140.443 17.391,140.11 16.5,139.5C 16.6107,138.883 16.944,138.383 17.5,138C 113.833,137.5 210.166,137.333 306.5,137.5 Z"/></g>
<g><path style="opacity:1" fill="#eb4642" d="M 425.5,105.5 C 428.754,105.794 431.421,107.127 433.5,109.5C 433.5,110.167 433.5,110.833 433.5,111.5C 432.691,110.531 431.691,109.698 430.5,109C 426.514,108.501 422.514,108.334 418.5,108.5C 391.566,108.539 364.732,108.539 338,108.5C 331.5,108.667 325,108.833 318.5,109C 316.567,109.251 314.734,109.751 313,110.5C 312.402,148.236 311.569,185.903 310.5,223.5C 309.599,222.71 308.932,221.71 308.5,220.5C 308.5,219.5 308.5,218.5 308.5,217.5C 308.333,183.498 308.5,149.498 309,115.5C 309.333,116.167 309.667,116.833 310,117.5C 310.363,114.456 310.863,111.456 311.5,108.5C 312.605,107.4 313.938,106.733 315.5,106.5C 352.197,106.814 388.864,106.481 425.5,105.5 Z"/></g>
<g><path style="opacity:1" fill="#b3b7dc" d="M 306.5,139.5 C 306.5,140.5 306.5,141.5 306.5,142.5C 212.332,142.167 118.332,142.501 24.5,143.5C 22.6316,142.737 20.9649,141.737 19.5,140.5C 114.999,139.501 210.665,139.167 306.5,139.5 Z"/></g>
<g><path style="opacity:1" fill="#9ba1cd" d="M 24.5,143.5 C 118.332,142.501 212.332,142.167 306.5,142.5C 306.5,143.167 306.5,143.833 306.5,144.5C 215.665,144.167 124.998,144.501 34.5,145.5C 32.3792,145.675 30.3792,145.341 28.5,144.5C 27.8333,144.5 27.1667,144.5 26.5,144.5C 25.8333,144.167 25.1667,143.833 24.5,143.5 Z"/></g>
<g><path style="opacity:1" fill="#9196c9" d="M 34.5,145.5 C 124.998,144.501 215.665,144.167 306.5,144.5C 306.5,145.5 306.5,146.5 306.5,147.5C 218.903,148.664 131.237,148.83 43.5,148C 40.7935,146.092 37.7935,145.259 34.5,145.5 Z"/></g>
<g><path style="opacity:1" fill="#989fcf" d="M 34.5,145.5 C 37.7935,145.259 40.7935,146.092 43.5,148C 131.237,148.83 218.903,148.664 306.5,147.5C 306.5,148.5 306.5,149.5 306.5,150.5C 219.5,150.5 132.5,150.5 45.5,150.5C 41.2062,150.205 37.5395,148.538 34.5,145.5 Z"/></g>
<g><path style="opacity:1" fill="#9ea7d4" d="M 45.5,150.5 C 132.5,150.5 219.5,150.5 306.5,150.5C 306.5,151.167 306.5,151.833 306.5,152.5C 219.16,153.164 132.16,152.497 45.5,150.5 Z"/></g>
<g><path style="opacity:1" fill="#6f021e" d="M 378.5,152.5 C 379.939,153.988 380.605,155.822 380.5,158C 379.759,161.463 378.759,164.796 377.5,168C 378.659,173.783 379.325,179.617 379.5,185.5C 375.5,185.5 371.5,185.5 367.5,185.5C 367.96,179.65 368.627,173.817 369.5,168C 369.486,166.615 369.152,165.449 368.5,164.5C 363.463,153.537 366.796,149.537 378.5,152.5 Z"/></g>
<g><path style="opacity:1" fill="#a7b1db" d="M 28.5,144.5 C 30.3792,145.341 32.3792,145.675 34.5,145.5C 37.5395,148.538 41.2062,150.205 45.5,150.5C 132.16,152.497 219.16,153.164 306.5,152.5C 306.5,153.167 306.5,153.833 306.5,154.5C 218.499,154.667 130.499,154.5 42.5,154C 36.8206,152.019 32.1539,148.852 28.5,144.5 Z"/></g>
<g><path style="opacity:1" fill="#b4c0e6" d="M 26.5,144.5 C 27.1667,144.5 27.8333,144.5 28.5,144.5C 32.1539,148.852 36.8206,152.019 42.5,154C 130.499,154.5 218.499,154.667 306.5,154.5C 306.5,155.5 306.5,156.5 306.5,157.5C 218.497,157.833 130.497,157.5 42.5,156.5C 37.64,155.37 33.3067,153.203 29.5,150C 27.84,148.512 26.84,146.679 26.5,144.5 Z"/></g>
<g><path style="opacity:1" fill="#fa695e" d="M 311.5,108.5 C 310.863,111.456 310.363,114.456 310,117.5C 309.667,116.833 309.333,116.167 309,115.5C 308.5,149.498 308.333,183.498 308.5,217.5C 307.502,183.337 307.168,149.004 307.5,114.5C 308.34,112.147 309.674,110.147 311.5,108.5 Z"/></g>
<g><path style="opacity:1" fill="#a60c2a" d="M 378.5,152.5 C 366.796,149.537 363.463,153.537 368.5,164.5C 366.589,164.426 365.422,163.426 365,161.5C 363.301,155.223 365.467,151.223 371.5,149.5C 374.36,149.555 376.693,150.555 378.5,152.5 Z"/></g>
<g><path style="opacity:1" fill="#d12630" d="M 433.5,111.5 C 434.222,111.918 434.722,112.584 435,113.5C 435.667,148.167 435.667,182.833 435,217.5C 433.899,222.77 430.732,225.77 425.5,226.5C 428.053,225.461 430.22,223.794 432,221.5C 432.333,220.167 432.667,218.833 433,217.5C 433.5,182.168 433.667,146.835 433.5,111.5 Z"/></g>
<g><path style="opacity:1" fill="#dc9da6" d="M 307.5,114.5 C 307.168,149.004 307.502,183.337 308.5,217.5C 308.5,218.5 308.5,219.5 308.5,220.5C 307.778,220.082 307.278,219.416 307,218.5C 306.5,198.169 306.333,177.836 306.5,157.5C 306.5,156.5 306.5,155.5 306.5,154.5C 306.5,153.833 306.5,153.167 306.5,152.5C 306.5,151.833 306.5,151.167 306.5,150.5C 306.5,149.5 306.5,148.5 306.5,147.5C 306.5,146.5 306.5,145.5 306.5,144.5C 306.5,143.833 306.5,143.167 306.5,142.5C 306.5,141.5 306.5,140.5 306.5,139.5C 306.5,138.833 306.5,138.167 306.5,137.5C 306.5,136.833 306.5,136.167 306.5,135.5C 306.175,128.313 306.509,121.313 307.5,114.5 Z"/></g>
<g><path style="opacity:1" fill="#b4132c" d="M 368.5,164.5 C 369.152,165.449 369.486,166.615 369.5,168C 368.627,173.817 367.96,179.65 367.5,185.5C 371.5,185.5 375.5,185.5 379.5,185.5C 375.03,186.486 370.363,186.819 365.5,186.5C 366.817,179.225 367.817,171.891 368.5,164.5 Z"/></g>
<g><path style="opacity:1" fill="#adbadd" d="M 331.5,231.5 C 332.5,231.5 333.5,231.5 334.5,231.5C 339.041,235.607 344.374,238.44 350.5,240C 372.681,239.269 394.848,239.436 417,240.5C 424.182,239.366 431.349,238.199 438.5,237C 447.732,232.389 452.899,224.889 454,214.5C 454.667,189.167 454.667,163.833 454,138.5C 452.382,134.932 451.049,131.265 450,127.5C 446.391,125.718 443.224,123.385 440.5,120.5C 442.288,119.378 444.288,119.211 446.5,120C 452.053,123.244 455.553,128.078 457,134.5C 457.24,146.35 457.74,158.183 458.5,170C 458.215,185.362 458.048,200.862 458,216.5C 458.755,229.049 453.255,237.216 441.5,241C 436.547,241.995 431.547,242.662 426.5,243C 400.167,243.667 373.833,243.667 347.5,243C 341.328,242.497 336.162,239.997 332,235.5C 331.51,234.207 331.343,232.873 331.5,231.5 Z"/></g>
<g><path style="opacity:1" fill="#9d86ad" d="M 318.5,229.5 C 354.809,230.474 391.142,230.808 427.5,230.5C 399.672,231.498 371.672,231.831 343.5,231.5C 340.5,231.5 337.5,231.5 334.5,231.5C 333.5,231.5 332.5,231.5 331.5,231.5C 329.5,231.5 327.5,231.5 325.5,231.5C 322.848,231.59 320.515,230.924 318.5,229.5 Z"/></g>
<g><path style="opacity:1" fill="#b9c6e8" d="M 436.5,111.5 C 439.944,112.988 443.611,113.821 447.5,114C 444.833,114.333 442.167,114.667 439.5,115C 445.054,116.743 450.387,119.077 455.5,122C 458.37,124.659 460.037,127.826 460.5,131.5C 460.5,169.5 460.5,207.5 460.5,245.5C 420.167,245.5 379.833,245.5 339.5,245.5C 332.529,243.195 327.862,238.529 325.5,231.5C 327.5,231.5 329.5,231.5 331.5,231.5C 331.343,232.873 331.51,234.207 332,235.5C 336.162,239.997 341.328,242.497 347.5,243C 373.833,243.667 400.167,243.667 426.5,243C 431.547,242.662 436.547,241.995 441.5,241C 453.255,237.216 458.755,229.049 458,216.5C 458.048,200.862 458.215,185.362 458.5,170C 457.74,158.183 457.24,146.35 457,134.5C 455.553,128.078 452.053,123.244 446.5,120C 444.288,119.211 442.288,119.378 440.5,120.5C 440.167,120.5 439.833,120.5 439.5,120.5C 439.353,117.208 438.353,114.208 436.5,111.5 Z"/></g>
</svg>
