<?xml version="1.0" encoding="UTF-8"?>
<!DOCTYPE svg PUBLIC "-//W3C//DTD SVG 1.1//EN" "http://www.w3.org/Graphics/SVG/1.1/DTD/svg11.dtd">
<svg xmlns="http://www.w3.org/2000/svg" version="1.1" width="292px" height="281px" style="shape-rendering:geometricPrecision; text-rendering:geometricPrecision; image-rendering:optimizeQuality; fill-rule:evenodd; clip-rule:evenodd" xmlns:xlink="http://www.w3.org/1999/xlink">
<g><path style="opacity:1" fill="#d8dce6" d="M -0.5,-0.5 C 96.8333,-0.5 194.167,-0.5 291.5,-0.5C 291.5,9.83333 291.5,20.1667 291.5,30.5C 287.167,30.5 282.833,30.5 278.5,30.5C 278.5,32.5 278.5,34.5 278.5,36.5C 277.167,36.5 275.833,36.5 274.5,36.5C 274.5,37.8333 274.5,39.1667 274.5,40.5C 273.621,39.4236 271.954,38.5903 269.5,38C 270.167,37.6667 270.833,37.3333 271.5,37C 267.744,35.8673 264.744,36.8673 262.5,40C 263.654,40.9138 263.487,41.7471 262,42.5C 261.667,42.1667 261.333,41.8333 261,41.5C 260.088,47.6341 259.255,53.6341 258.5,59.5C 256.483,61.6922 255.316,64.3588 255,67.5C 253.384,68.8009 251.884,68.8009 250.5,67.5C 252.113,67.0557 253.28,66.0557 254,64.5C 255.357,58.1376 255.857,51.8042 255.5,45.5C 256.833,42.8333 256.833,40.1667 255.5,37.5C 255.928,35.5953 255.262,33.762 253.5,32C 247.034,31.0705 240.701,30.2372 234.5,29.5C 235.821,26.4018 236.488,22.9018 236.5,19C 236.333,15.5 236.167,12 236,8.5C 234.833,6.66667 233.333,5.16667 231.5,4C 218.838,3.50012 206.171,3.33345 193.5,3.5C 193.5,4.5 193.5,5.5 193.5,6.5C 193.082,7.22158 192.416,7.72158 191.5,8C 201.342,8.16997 211.009,8.66997 220.5,9.5C 208.495,9.33346 196.495,9.50013 184.5,10C 181.112,11.3137 179.779,13.4804 180.5,16.5C 180.565,16.0618 180.399,15.7284 180,15.5C 179.066,16.8584 178.232,18.1917 177.5,19.5C 173.277,16.8433 168.944,17.0099 164.5,20C 127.835,20.5 91.1682,20.6667 54.5,20.5C 45.8269,20.3336 37.1603,20.5002 28.5,21C 27.0692,21.4652 25.9025,22.2986 25,23.5C 23.8756,29.3953 23.3756,35.3953 23.5,41.5C 23.6667,46.8333 23.8333,52.1667 24,57.5C 24.5133,58.5266 25.0133,59.5266 25.5,60.5C 21.0086,61.2241 19.342,63.8907 20.5,68.5C 19.5,68.5 18.5,68.5 17.5,68.5C 17.9153,70.7468 18.5819,72.9135 19.5,75C 17.8719,77.9615 15.5386,80.2948 12.5,82C 12.8333,82.3333 13.1667,82.6667 13.5,83C 12.451,83.4922 11.451,83.3256 10.5,82.5C 6.29308,86.7118 6.79308,88.0451 12,86.5C 13.0299,86.8361 13.5299,87.5028 13.5,88.5C 9.49378,90.5062 6.49378,93.5062 4.5,97.5C 3.16667,97.5 1.83333,97.5 0.5,97.5C 1.52304,100.393 1.52304,103.226 0.5,106C 2.99134,106.626 2.99134,107.459 0.5,108.5C 1.7506,114.756 2.41727,121.09 2.5,127.5C 1.5,127.5 0.5,127.5 -0.5,127.5C -0.5,84.8333 -0.5,42.1667 -0.5,-0.5 Z"/></g>
<g><path style="opacity:1" fill="#599ab4" d="M 234.5,29.5 C 234.666,23.1579 234.5,16.8246 234,10.5C 233.535,9.06919 232.701,7.90252 231.5,7C 218.838,6.50012 206.171,6.33345 193.5,6.5C 193.5,5.5 193.5,4.5 193.5,3.5C 206.171,3.33345 218.838,3.50012 231.5,4C 233.333,5.16667 234.833,6.66667 236,8.5C 236.167,12 236.333,15.5 236.5,19C 236.488,22.9018 235.821,26.4018 234.5,29.5 Z"/></g>
<g><path style="opacity:1" fill="#190f22" d="M 177.5,19.5 C 177.5,19.8333 177.5,20.1667 177.5,20.5C 177.167,20.5 176.833,20.5 176.5,20.5C 173.287,20.19 170.287,20.5233 167.5,21.5C 161.833,21.5 156.167,21.5 150.5,21.5C 118.329,21.8316 86.329,21.4982 54.5,20.5C 91.1682,20.6667 127.835,20.5 164.5,20C 168.944,17.0099 173.277,16.8433 177.5,19.5 Z"/></g>
<g><path style="opacity:1" fill="#33151f" d="M 150.5,21.5 C 156.167,21.5 161.833,21.5 167.5,21.5C 167.082,22.2216 166.416,22.7216 165.5,23C 160.511,23.4993 155.511,23.6659 150.5,23.5C 150.5,22.8333 150.5,22.1667 150.5,21.5 Z"/></g>
<g><path style="opacity:1" fill="#f4f3f3" d="M 55.5,23.5 C 87.1667,23.5 118.833,23.5 150.5,23.5C 150.5,29.5 150.5,35.5 150.5,41.5C 147.833,41.5 145.167,41.5 142.5,41.5C 142.5,39.5 142.5,37.5 142.5,35.5C 142.671,30.5057 140.338,28.6724 135.5,30C 134.177,30.8159 133.511,31.9826 133.5,33.5C 131.64,34.0715 129.973,34.0715 128.5,33.5C 128.389,32.8826 128.056,32.3826 127.5,32C 118.5,31.3333 109.5,31.3333 100.5,32C 99.944,32.3826 99.6107,32.8826 99.5,33.5C 97.8049,34.8264 96.4716,34.4931 95.5,32.5C 95.3893,31.8826 95.056,31.3826 94.5,31C 90.8333,30.3333 87.1667,30.3333 83.5,31C 80.8333,32.6667 80.8333,34.3333 83.5,36C 86.4816,36.498 89.4816,36.6646 92.5,36.5C 91.1834,38.8762 91.8501,40.5429 94.5,41.5C 80.5,41.5 66.5,41.5 52.5,41.5C 52.5,37.1667 52.5,32.8333 52.5,28.5C 53.075,26.5887 54.075,24.922 55.5,23.5 Z"/></g>
<g><path style="opacity:1" fill="#e85651" d="M 55.5,23.5 C 54.075,24.922 53.075,26.5887 52.5,28.5C 51.8333,30.1667 51.1667,31.8333 50.5,33.5C 43.5344,29.8996 37.701,31.2329 33,37.5C 30.9065,47.2251 34.7398,52.5584 44.5,53.5C 44.5,55.8333 44.5,58.1667 44.5,60.5C 39.5,60.5 34.5,60.5 29.5,60.5C 27.39,59.5475 26.2233,57.8808 26,55.5C 25.3333,45.8333 25.3333,36.1667 26,26.5C 26.8333,25.6667 27.6667,24.8333 28.5,24C 37.4938,23.5002 46.4938,23.3336 55.5,23.5 Z"/></g>
<g><path style="opacity:1" fill="#e65350" d="M 176.5,20.5 C 176.5,28.8333 176.5,37.1667 176.5,45.5C 174.735,46.4614 172.735,46.7947 170.5,46.5C 169.527,46.0133 168.527,45.5133 167.5,45C 161.843,44.5006 156.176,44.3339 150.5,44.5C 150.5,43.5 150.5,42.5 150.5,41.5C 150.5,35.5 150.5,29.5 150.5,23.5C 155.511,23.6659 160.511,23.4993 165.5,23C 166.416,22.7216 167.082,22.2216 167.5,21.5C 170.287,20.5233 173.287,20.19 176.5,20.5 Z"/></g>
<g><path style="opacity:1" fill="#0f101b" d="M 142.5,35.5 C 138.515,38.6386 135.515,37.9719 133.5,33.5C 133.511,31.9826 134.177,30.8159 135.5,30C 140.338,28.6724 142.671,30.5057 142.5,35.5 Z"/></g>
<g><path style="opacity:1" fill="#fcecea" d="M 157.5,24.5 C 169.448,22.5559 172.781,27.0559 167.5,38C 159.166,40.1668 155.833,37.0001 157.5,28.5C 166.833,28.1667 166.833,27.8333 157.5,27.5C 157.5,26.5 157.5,25.5 157.5,24.5 Z"/></g>
<g><path style="opacity:1" fill="#13131c" d="M 95.5,32.5 C 95.9118,34.9726 94.9118,36.3059 92.5,36.5C 89.4816,36.6646 86.4816,36.498 83.5,36C 80.8333,34.3333 80.8333,32.6667 83.5,31C 87.1667,30.3333 90.8333,30.3333 94.5,31C 95.056,31.3826 95.3893,31.8826 95.5,32.5 Z"/></g>
<g><path style="opacity:1" fill="#e06b69" d="M 161.5,30.5 C 162.833,30.5 164.167,30.5 165.5,30.5C 165.881,32.9418 165.214,33.6085 163.5,32.5C 162.167,33.5 162.167,34.5 163.5,35.5C 164.451,34.6744 165.451,34.5078 166.5,35C 160.31,37.9072 158.643,36.4072 161.5,30.5 Z"/></g>
<g><path style="opacity:1" fill="#090916" d="M 128.5,33.5 C 128.586,34.4959 128.252,35.3292 127.5,36C 118.5,36.6667 109.5,36.6667 100.5,36C 99.7476,35.3292 99.4142,34.4959 99.5,33.5C 99.6107,32.8826 99.944,32.3826 100.5,32C 109.5,31.3333 118.5,31.3333 127.5,32C 128.056,32.3826 128.389,32.8826 128.5,33.5 Z"/></g>
<g><path style="opacity:1" fill="#c36264" d="M 176.5,20.5 C 176.833,20.5 177.167,20.5 177.5,20.5C 177.199,28.5856 177.533,36.5856 178.5,44.5C 177.833,44.5 177.5,44.8333 177.5,45.5C 177.167,45.5 176.833,45.5 176.5,45.5C 176.5,37.1667 176.5,28.8333 176.5,20.5 Z"/></g>
<g><path style="opacity:1" fill="#dddbda" d="M 95.5,32.5 C 96.4716,34.4931 97.8049,34.8264 99.5,33.5C 99.4142,34.4959 99.7476,35.3292 100.5,36C 109.5,36.6667 118.5,36.6667 127.5,36C 128.252,35.3292 128.586,34.4959 128.5,33.5C 129.973,34.0715 131.64,34.0715 133.5,33.5C 135.515,37.9719 138.515,38.6386 142.5,35.5C 142.5,37.5 142.5,39.5 142.5,41.5C 126.5,41.5 110.5,41.5 94.5,41.5C 91.8501,40.5429 91.1834,38.8762 92.5,36.5C 94.9118,36.3059 95.9118,34.9726 95.5,32.5 Z"/></g>
<g><path style="opacity:1" fill="#fcf4f4" d="M 50.5,33.5 C 50.5,34.5 50.5,35.5 50.5,36.5C 45.2913,35.7052 43.2913,37.7052 44.5,42.5C 45.9492,43.1719 47.2825,43.8386 48.5,44.5C 47.1103,45.8993 46.1103,47.5659 45.5,49.5C 44.5655,50.5676 44.2322,51.901 44.5,53.5C 34.7398,52.5584 30.9065,47.2251 33,37.5C 37.701,31.2329 43.5344,29.8996 50.5,33.5 Z"/></g>
<g><path style="opacity:1" fill="#ce615e" d="M 52.5,28.5 C 52.5,32.8333 52.5,37.1667 52.5,41.5C 51.205,42.4884 49.8717,43.4884 48.5,44.5C 47.2825,43.8386 45.9492,43.1719 44.5,42.5C 43.2913,37.7052 45.2913,35.7052 50.5,36.5C 50.5,35.5 50.5,34.5 50.5,33.5C 51.1667,31.8333 51.8333,30.1667 52.5,28.5 Z"/></g>
<g><path style="opacity:1" fill="#fef1f0" d="M 46.5,38.5 C 49.9571,38.6672 50.2904,39.6672 47.5,41.5C 46.6143,40.675 46.281,39.675 46.5,38.5 Z"/></g>
<g><path style="opacity:1" fill="#7aacc5" d="M 255.5,37.5 C 256.833,40.1667 256.833,42.8333 255.5,45.5C 254.167,42.8333 254.167,40.1667 255.5,37.5 Z"/></g>
<g><path style="opacity:1" fill="#de6769" d="M 37.5,39.5 C 39.3588,39.4609 40.6921,40.2942 41.5,42C 40.5769,44.0408 40.2436,46.2075 40.5,48.5C 39.5,48.5 38.5,48.5 37.5,48.5C 36.9241,45.393 36.9241,42.393 37.5,39.5 Z"/></g>
<g><path style="opacity:1" fill="#7599a8" d="M 258.5,59.5 C 257.507,51.3501 257.174,43.0168 257.5,34.5C 260.187,34.3359 262.854,34.5026 265.5,35C 263.19,35.4966 260.857,35.6633 258.5,35.5C 258.687,43.3923 258.687,51.3923 258.5,59.5 Z"/></g>
<g><path style="opacity:1" fill="#6b5f93" d="M 170.5,46.5 C 172.735,46.7947 174.735,46.4614 176.5,45.5C 176.833,45.5 177.167,45.5 177.5,45.5C 177.333,65.5028 177.5,85.5028 178,105.5C 178.278,106.416 178.778,107.082 179.5,107.5C 179.229,112.434 179.896,117.1 181.5,121.5C 179.782,122.224 177.948,122.891 176,123.5C 175.824,119.312 175.324,115.312 174.5,111.5C 173.624,107.337 170.957,105.17 166.5,105C 167.893,103.829 168.727,102.329 169,100.5C 169.667,92.8333 169.667,85.1667 169,77.5C 168.215,75.714 167.049,74.214 165.5,73C 156.167,72.3333 146.833,72.3333 137.5,73C 132.549,74.728 130.549,78.228 131.5,83.5C 127.937,81.9629 124.603,82.2963 121.5,84.5C 120.863,81.544 120.363,78.544 120,75.5C 114.771,73.4118 109.938,70.7451 105.5,67.5C 105.666,63.4862 105.499,59.4862 105,55.5C 104.167,53.3333 102.667,51.8333 100.5,51C 91.5,50.3333 82.5,50.3333 73.5,51C 72.3279,51.4186 71.3279,52.0853 70.5,53C 65.1667,53.3333 59.8333,53.6667 54.5,54C 51.0586,55.3184 49.7253,57.8184 50.5,61.5C 49.5,61.5 48.5,61.5 47.5,61.5C 47.3345,57.4862 47.5012,53.4862 48,49.5C 48.7845,47.714 49.9512,46.214 51.5,45C 83.1667,44.3333 114.833,44.3333 146.5,45C 145.667,45.8333 144.833,46.6667 144,47.5C 143.333,53.5 143.333,59.5 144,65.5C 145.319,67.4875 147.152,68.6541 149.5,69C 168.767,72.9002 175.767,65.4002 170.5,46.5 Z"/></g>
<g><path style="opacity:1" fill="#191923" d="M 220.5,9.5 C 224.562,9.72415 227.395,11.7241 229,15.5C 229.5,22.4921 229.666,29.4921 229.5,36.5C 229.224,39.7186 227.891,42.3852 225.5,44.5C 219.915,45.288 214.248,45.788 208.5,46C 202.993,48.4254 197.326,50.2587 191.5,51.5C 189.167,51.5 186.833,51.5 184.5,51.5C 184.232,53.099 184.566,54.4324 185.5,55.5C 186.117,55.6107 186.617,55.944 187,56.5C 189.484,73.9325 189.984,91.2658 188.5,108.5C 187.833,112.833 187.167,117.167 186.5,121.5C 185.833,89.5 185.167,89.5 184.5,121.5C 183.833,121.5 183.167,121.5 182.5,121.5C 182.899,86.4079 182.233,51.4079 180.5,16.5C 179.779,13.4804 181.112,11.3137 184.5,10C 196.495,9.50013 208.495,9.33346 220.5,9.5 Z"/></g>
<g><path style="opacity:1" fill="#d7dbdb" d="M 188.5,49.5 C 185.656,49.6574 183.989,48.324 183.5,45.5C 184.531,44.7515 185.698,44.0848 187,43.5C 187.333,33.8333 187.667,24.1667 188,14.5C 189.555,12.4848 191.389,12.1515 193.5,13.5C 195.063,23.5827 194.563,33.5827 192,43.5C 191.074,45.6917 189.907,47.6917 188.5,49.5 Z"/></g>
<g><path style="opacity:1" fill="#e1e8eb" d="M 210.5,42.5 C 209.041,42.4326 207.708,42.7659 206.5,43.5C 203.894,42.2571 203.894,40.9238 206.5,39.5C 204.833,37.8333 205.167,36.8333 207.5,36.5C 210.206,37.9056 211.206,39.9056 210.5,42.5 Z"/></g>
<g><path style="opacity:1" fill="#2f6379" d="M 210.5,42.5 C 211.206,39.9056 210.206,37.9056 207.5,36.5C 205.167,36.8333 204.833,37.8333 206.5,39.5C 203.894,40.9238 203.894,42.2571 206.5,43.5C 201.043,46.8745 195.043,48.8745 188.5,49.5C 189.907,47.6917 191.074,45.6917 192,43.5C 194.563,33.5827 195.063,23.5827 193.5,13.5C 191.389,12.1515 189.555,12.4848 188,14.5C 187.667,24.1667 187.333,33.8333 187,43.5C 185.698,44.0848 184.531,44.7515 183.5,45.5C 182.341,35.008 182.175,24.3414 183,13.5C 184.067,12.8095 185.234,12.3095 186.5,12C 198.833,11.3333 211.167,11.3333 223.5,12C 224.333,12.8333 225.167,13.6667 226,14.5C 227.972,23.5252 227.972,32.5252 226,41.5C 220.928,42.4714 215.762,42.8047 210.5,42.5 Z"/></g>
<g><path style="opacity:1" fill="#e0e3e4" d="M 210.5,19.5 C 212.806,19.9926 215.139,20.3259 217.5,20.5C 216.681,31.877 211.181,35.5437 201,31.5C 199.578,28.9699 199.245,26.3033 200,23.5C 202.235,25.2024 204.735,26.2024 207.5,26.5C 207.15,23.5466 208.15,21.2133 210.5,19.5 Z"/></g>
<g><path style="opacity:1" fill="#efeef0" d="M 180.5,16.5 C 182.233,51.4079 182.899,86.4079 182.5,121.5C 182.167,121.5 181.833,121.5 181.5,121.5C 179.896,117.1 179.229,112.434 179.5,107.5C 179.821,86.4245 179.488,65.4245 178.5,44.5C 177.533,36.5856 177.199,28.5856 177.5,20.5C 177.5,20.1667 177.5,19.8333 177.5,19.5C 178.232,18.1917 179.066,16.8584 180,15.5C 180.399,15.7284 180.565,16.0618 180.5,16.5 Z"/></g>
<g><path style="opacity:1" fill="#7a787e" d="M 191.5,51.5 C 189.735,52.4614 187.735,52.7947 185.5,52.5C 185.5,53.5 185.5,54.5 185.5,55.5C 184.566,54.4324 184.232,53.099 184.5,51.5C 186.833,51.5 189.167,51.5 191.5,51.5 Z"/></g>
<g><path style="opacity:1" fill="#f6b64c" d="M 229.5,36.5 C 235.509,36.3338 241.509,36.5005 247.5,37C 248,37.5 248.5,38 249,38.5C 249.667,45.8333 249.667,53.1667 249,60.5C 248.5,61 248,61.5 247.5,62C 241.056,62.9148 234.723,62.5815 228.5,61C 227.667,60.1667 226.833,59.3333 226,58.5C 225.501,53.8452 225.334,49.1785 225.5,44.5C 227.891,42.3852 229.224,39.7186 229.5,36.5 Z"/></g>
<g><path style="opacity:1" fill="#fef7e4" d="M 234.5,41.5 C 237.271,41.4207 239.937,41.9207 242.5,43C 244.421,44.2408 244.754,45.7408 243.5,47.5C 239.233,44.6333 235.233,44.9667 231.5,48.5C 230.5,48.1667 229.833,47.5 229.5,46.5C 230.882,44.4514 232.548,42.7847 234.5,41.5 Z"/></g>
<g><path style="opacity:1" fill="#0a0513" d="M 178.5,44.5 C 179.488,65.4245 179.821,86.4245 179.5,107.5C 178.778,107.082 178.278,106.416 178,105.5C 177.5,85.5028 177.333,65.5028 177.5,45.5C 177.5,44.8333 177.833,44.5 178.5,44.5 Z"/></g>
<g><path style="opacity:1" fill="#d75366" d="M 105.5,67.5 C 109.938,70.7451 114.771,73.4118 120,75.5C 120.363,78.544 120.863,81.544 121.5,84.5C 120.833,85.8333 120.167,87.1667 119.5,88.5C 114.623,85.7478 109.29,84.7478 103.5,85.5C 103.385,83.0532 102.385,81.0532 100.5,79.5C 105.031,76.8787 106.698,72.8787 105.5,67.5 Z"/></g>
<g><path style="opacity:1" fill="#1b1620" d="M 54.5,20.5 C 86.329,21.4982 118.329,21.8316 150.5,21.5C 150.5,22.1667 150.5,22.8333 150.5,23.5C 118.833,23.5 87.1667,23.5 55.5,23.5C 46.4938,23.3336 37.4938,23.5002 28.5,24C 27.6667,24.8333 26.8333,25.6667 26,26.5C 25.3333,36.1667 25.3333,45.8333 26,55.5C 26.2233,57.8808 27.39,59.5475 29.5,60.5C 34.6405,61.4881 39.9738,61.8214 45.5,61.5C 45.5,57.5 45.5,53.5 45.5,49.5C 46.1103,47.5659 47.1103,45.8993 48.5,44.5C 49.8717,43.4884 51.205,42.4884 52.5,41.5C 66.5,41.5 80.5,41.5 94.5,41.5C 110.5,41.5 126.5,41.5 142.5,41.5C 145.167,41.5 147.833,41.5 150.5,41.5C 150.5,42.5 150.5,43.5 150.5,44.5C 156.176,44.3339 161.843,44.5006 167.5,45C 168.527,45.5133 169.527,46.0133 170.5,46.5C 175.767,65.4002 168.767,72.9002 149.5,69C 147.152,68.6541 145.319,67.4875 144,65.5C 143.333,59.5 143.333,53.5 144,47.5C 144.833,46.6667 145.667,45.8333 146.5,45C 114.833,44.3333 83.1667,44.3333 51.5,45C 49.9512,46.214 48.7845,47.714 48,49.5C 47.5012,53.4862 47.3345,57.4862 47.5,61.5C 48.5,61.5 49.5,61.5 50.5,61.5C 49.7253,57.8184 51.0586,55.3184 54.5,54C 59.8333,53.6667 65.1667,53.3333 70.5,53C 71.3279,52.0853 72.3279,51.4186 73.5,51C 82.5,50.3333 91.5,50.3333 100.5,51C 102.667,51.8333 104.167,53.3333 105,55.5C 105.499,59.4862 105.666,63.4862 105.5,67.5C 106.698,72.8787 105.031,76.8787 100.5,79.5C 91.4938,79.6664 82.4938,79.4998 73.5,79C 70.4659,77.8088 68.7993,75.6421 68.5,72.5C 63.1563,72.666 57.8229,72.4994 52.5,72C 50.771,70.2111 50.1043,68.0444 50.5,65.5C 49.5,65.5 48.5,65.5 47.5,65.5C 47.5,124.167 47.5,182.833 47.5,241.5C 47.5,241.833 47.5,242.167 47.5,242.5C 46.8333,242.167 46.1667,241.833 45.5,241.5C 46.5664,182.838 46.7331,124.171 46,65.5C 45.7679,66.7375 45.2679,67.7375 44.5,68.5C 44.7852,66.712 44.4519,65.0453 43.5,63.5C 42.5,122.83 42.1667,182.163 42.5,241.5C 41.6673,197.335 41.1673,153.002 41,108.5C 40.5,159.166 40.3333,209.832 40.5,260.5C 39.5036,244.675 39.1703,228.675 39.5,212.5C 39.5,194.5 39.5,176.5 39.5,158.5C 39.5,152.5 39.5,146.5 39.5,140.5C 39.5,134.5 39.5,128.5 39.5,122.5C 39.5,115.833 39.5,109.167 39.5,102.5C 39.5,97.5 39.5,92.5 39.5,87.5C 39.5,79.5 39.5,71.5 39.5,63.5C 34.3597,64.1974 29.693,63.1974 25.5,60.5C 25.0133,59.5266 24.5133,58.5266 24,57.5C 23.8333,52.1667 23.6667,46.8333 23.5,41.5C 23.3756,35.3953 23.8756,29.3953 25,23.5C 25.9025,22.2986 27.0692,21.4652 28.5,21C 37.1603,20.5002 45.8269,20.3336 54.5,20.5 Z"/></g>
<g><path style="opacity:1" fill="#efa644" d="M 73.5,52.5 C 82.9402,52.0545 92.2736,52.5545 101.5,54C 102.646,61.0862 102.812,68.2529 102,75.5C 92.2441,76.6515 82.4107,76.8181 72.5,76C 71.3544,68.9138 71.1877,61.7471 72,54.5C 72.7172,53.9558 73.2172,53.2891 73.5,52.5 Z"/></g>
<g><path style="opacity:1" fill="#f8d7a2" d="M 78.5,70.5 C 80.924,70.1924 83.2573,70.5258 85.5,71.5C 84.3333,71.8333 83.1667,72.1667 82,72.5C 80.3189,72.3917 79.1522,71.7251 78.5,70.5 Z"/></g>
<g><path style="opacity:1" fill="#f9d99f" d="M 79.5,67.5 C 82.5719,67.1826 85.5719,67.5159 88.5,68.5C 87,68.8333 85.5,69.1667 84,69.5C 82.0145,69.4313 80.5145,68.7647 79.5,67.5 Z"/></g>
<g><path style="opacity:1" fill="#fbfcfb" d="M 44.5,68.5 C 44.5,126.167 44.5,183.833 44.5,241.5C 43.8333,242.833 43.1667,242.833 42.5,241.5C 42.1667,182.163 42.5,122.83 43.5,63.5C 44.4519,65.0453 44.7852,66.712 44.5,68.5 Z"/></g>
<g><path style="opacity:1" fill="#d9d3e4" d="M 121.5,61.5 C 123.121,61.7869 124.121,62.7869 124.5,64.5C 123.675,65.3857 122.675,65.719 121.5,65.5C 121.5,64.1667 121.5,62.8333 121.5,61.5 Z"/></g>
<g><path style="opacity:1" fill="#58b0d4" d="M 147.5,46.5 C 153.842,46.3338 160.175,46.5005 166.5,47C 168.066,48.6839 169.066,50.6839 169.5,53C 168.77,56.7938 168.27,60.6272 168,64.5C 167.5,65 167,65.5 166.5,66C 159.724,66.9196 153.057,66.5863 146.5,65C 145.361,59.5838 145.194,54.0838 146,48.5C 146.717,47.9558 147.217,47.2891 147.5,46.5 Z"/></g>
<g><path style="opacity:1" fill="#e1d9ec" d="M 134.5,61.5 C 134.56,60.9569 134.893,60.6236 135.5,60.5C 138.749,62.205 139.416,64.205 137.5,66.5C 135.926,67.6309 134.259,67.7975 132.5,67C 133.793,66.51 135.127,66.3433 136.5,66.5C 136.88,64.302 136.213,62.6354 134.5,61.5 Z"/></g>
<g><path style="opacity:1" fill="#e7e0f0" d="M 130.5,59.5 C 132.863,61.083 132.863,62.9164 130.5,65C 130.833,65.3333 131.167,65.6667 131.5,66C 128.876,68.3587 128.209,68.0254 129.5,65C 127.842,64.2747 127.342,63.108 128,61.5C 128.308,62.3081 128.808,62.9747 129.5,63.5C 130.429,62.3112 130.762,60.9778 130.5,59.5 Z"/></g>
<g><path style="opacity:1" fill="#a2d4e6" d="M 155.5,50.5 C 156.552,50.3505 157.552,50.5172 158.5,51C 159.651,53.1193 161.151,54.9527 163,56.5C 163.743,58.4406 163.576,60.2739 162.5,62C 151.387,63.0895 149.053,59.2561 155.5,50.5 Z"/></g>
<g><path style="opacity:1" fill="#fef3d5" d="M 79.5,60.5 C 85.1764,60.3339 90.8431,60.5006 96.5,61C 97.6023,63.4009 97.769,65.9009 97,68.5C 95.1745,69.5709 94.0079,68.9042 93.5,66.5C 88.5,65.8333 83.5,65.1667 78.5,64.5C 83.8025,63.6705 89.1358,63.1705 94.5,63C 89.0675,63.1184 84.0675,62.2851 79.5,60.5 Z"/></g>
<g><path style="opacity:1" fill="#c8494e" d="M 54.5,55.5 C 59.1667,55.5 63.8333,55.5 68.5,55.5C 68.5,60.5 68.5,65.5 68.5,70.5C 63.2384,70.8047 58.0717,70.4714 53,69.5C 51.9656,64.5431 52.4656,59.8764 54.5,55.5 Z"/></g>
<g><path style="opacity:1" fill="#f9cbc6" d="M 59.5,58.5 C 65.5433,59.103 67.21,61.9364 64.5,67C 57.4086,67.3958 55.7419,64.5625 59.5,58.5 Z"/></g>
<g><path style="opacity:1" fill="#f25955" d="M 60.5,62.5 C 61.8333,62.5 63.1667,62.5 64.5,62.5C 64.5,63.5 64.5,64.5 64.5,65.5C 62.712,65.7852 61.0453,65.4519 59.5,64.5C 59.8627,63.8165 60.1961,63.1499 60.5,62.5 Z"/></g>
<g><path style="opacity:1" fill="#a4464b" d="M 45.5,49.5 C 45.5,53.5 45.5,57.5 45.5,61.5C 39.9738,61.8214 34.6405,61.4881 29.5,60.5C 34.5,60.5 39.5,60.5 44.5,60.5C 44.5,58.1667 44.5,55.8333 44.5,53.5C 44.2322,51.901 44.5655,50.5676 45.5,49.5 Z"/></g>
<g><path style="opacity:1" fill="#695e91" d="M 100.5,79.5 C 102.385,81.0532 103.385,83.0532 103.5,85.5C 100.482,85.3354 97.4816,85.502 94.5,86C 93.0692,86.4652 91.9025,87.2986 91,88.5C 90.3333,96.5 90.3333,104.5 91,112.5C 91.5,114.333 92.6667,115.5 94.5,116C 99.8229,116.499 105.156,116.666 110.5,116.5C 111.753,119.767 112.753,123.101 113.5,126.5C 111.655,131.945 110.988,137.612 111.5,143.5C 105.299,142.285 100.132,143.952 96,148.5C 95.5005,154.491 95.3338,160.491 95.5,166.5C 86.3921,166.057 77.3921,166.557 68.5,168C 67.2986,168.903 66.4652,170.069 66,171.5C 65.2019,179.246 65.3686,186.913 66.5,194.5C 59.8166,193.6 54.8166,195.934 51.5,201.5C 50.0337,202.347 49.2004,203.68 49,205.5C 48.1925,209.027 48.3592,212.36 49.5,215.5C 49.5,216.167 49.8333,216.5 50.5,216.5C 50.3338,222.509 50.5005,228.509 51,234.5C 51.8333,235.333 52.6667,236.167 53.5,237C 58.8333,237.667 64.1667,237.667 69.5,237C 73.0067,235.67 74.6734,233.17 74.5,229.5C 76.5,229.5 78.5,229.5 80.5,229.5C 81.1828,233.02 83.1828,235.52 86.5,237C 93.5,237.667 100.5,237.667 107.5,237C 109.286,236.215 110.786,235.049 112,233.5C 112.499,227.509 112.666,221.509 112.5,215.5C 114.124,217.137 115.124,216.803 115.5,214.5C 114.555,205.535 114.221,196.535 114.5,187.5C 115.222,186.449 116.222,185.782 117.5,185.5C 116.571,190.765 117.904,195.265 121.5,199C 128.158,199.5 134.825,199.666 141.5,199.5C 140.081,200.451 138.415,200.784 136.5,200.5C 133.246,200.207 130.246,200.874 127.5,202.5C 126.662,202.842 126.328,203.508 126.5,204.5C 123.305,203.961 120.805,204.961 119,207.5C 118.069,215.272 118.402,222.939 120,230.5C 120.75,231.126 121.584,231.626 122.5,232C 129.5,232.667 136.5,232.667 143.5,232C 145.041,230.629 146.375,229.129 147.5,227.5C 148.156,228.622 148.489,229.955 148.5,231.5C 147.829,235.176 147.162,238.843 146.5,242.5C 146.5,242.833 146.5,243.167 146.5,243.5C 139.798,243.664 133.131,243.331 126.5,242.5C 100.182,241.575 73.8484,241.242 47.5,241.5C 47.5,182.833 47.5,124.167 47.5,65.5C 48.5,65.5 49.5,65.5 50.5,65.5C 50.1043,68.0444 50.771,70.2111 52.5,72C 57.8229,72.4994 63.1563,72.666 68.5,72.5C 68.7993,75.6421 70.4659,77.8088 73.5,79C 82.4938,79.4998 91.4938,79.6664 100.5,79.5 Z"/></g>
<g><path style="opacity:1" fill="#0c1220" d="M 174.5,111.5 C 174.221,116.595 174.555,121.595 175.5,126.5C 175.334,131.179 175.501,135.845 176,140.5C 176.717,141.044 177.217,141.711 177.5,142.5C 178.815,151.265 178.815,159.932 177.5,168.5C 177.666,160.493 177.5,152.493 177,144.5C 174.391,142.892 173.058,140.559 173,137.5C 171.829,138.893 170.329,139.727 168.5,140C 164.848,140.499 161.182,140.665 157.5,140.5C 153.154,140.666 148.821,140.499 144.5,140C 142.333,139.167 140.833,137.667 140,135.5C 139.333,127.167 139.333,118.833 140,110.5C 141.109,108.185 142.943,106.685 145.5,106C 140.257,106.436 135.757,104.936 132,101.5C 131.501,95.5092 131.334,89.5092 131.5,83.5C 130.549,78.228 132.549,74.728 137.5,73C 146.833,72.3333 156.167,72.3333 165.5,73C 167.049,74.214 168.215,75.714 169,77.5C 169.667,85.1667 169.667,92.8333 169,100.5C 168.727,102.329 167.893,103.829 166.5,105C 170.957,105.17 173.624,107.337 174.5,111.5 Z"/></g>
<g><path style="opacity:1" fill="#388db9" d="M 157.5,74.5 C 160.685,74.0196 163.519,74.6863 166,76.5C 166.667,85.1667 166.667,93.8333 166,102.5C 165.25,103.126 164.416,103.626 163.5,104C 157.984,104.817 152.65,104.651 147.5,103.5C 148.167,100.833 148.833,98.1667 149.5,95.5C 158.157,95.3418 160.823,91.3418 157.5,83.5C 157.5,82.8333 157.167,82.5 156.5,82.5C 155.048,81.6981 153.382,81.1981 151.5,81C 153.706,78.9633 155.706,76.7966 157.5,74.5 Z"/></g>
<g><path style="opacity:1" fill="#ecfafc" d="M 156.5,82.5 C 157.167,82.5 157.5,82.8333 157.5,83.5C 157.649,84.552 157.483,85.552 157,86.5C 152.822,84.6013 148.322,83.9347 143.5,84.5C 143.34,86.1992 143.506,87.8659 144,89.5C 144.483,88.552 144.649,87.552 144.5,86.5C 148.167,86.5 151.833,86.5 155.5,86.5C 155.785,88.288 155.452,89.9547 154.5,91.5C 151.682,91.7387 148.848,92.072 146,92.5C 140.977,91.3922 139.31,88.3922 141,83.5C 146.072,82.5286 151.238,82.1953 156.5,82.5 Z"/></g>
<g><path style="opacity:1" fill="#58add3" d="M 157.5,74.5 C 155.706,76.7966 153.706,78.9633 151.5,81C 153.382,81.1981 155.048,81.6981 156.5,82.5C 151.238,82.1953 146.072,82.5286 141,83.5C 139.31,88.3922 140.977,91.3922 146,92.5C 148.848,92.072 151.682,91.7387 154.5,91.5C 155.452,89.9547 155.785,88.288 155.5,86.5C 151.833,86.5 148.167,86.5 144.5,86.5C 144.649,87.552 144.483,88.552 144,89.5C 143.506,87.8659 143.34,86.1992 143.5,84.5C 148.322,83.9347 152.822,84.6013 157,86.5C 157.483,85.552 157.649,84.552 157.5,83.5C 160.823,91.3418 158.157,95.3418 149.5,95.5C 148.833,98.1667 148.167,100.833 147.5,103.5C 144.15,103.665 140.817,103.498 137.5,103C 136.069,102.535 134.903,101.701 134,100.5C 133.333,92.8333 133.333,85.1667 134,77.5C 134.903,76.2986 136.069,75.4652 137.5,75C 144.158,74.5004 150.825,74.3337 157.5,74.5 Z"/></g>
<g><path style="opacity:1" fill="#8cb0c0" d="M 13.5,88.5 C 12.2529,90.2852 10.4196,92.2852 8,94.5C 7.13759,96.087 6.47093,97.7536 6,99.5C 5.66667,109.833 5.33333,120.167 5,130.5C 4.50015,119.505 4.33349,108.505 4.5,97.5C 6.49378,93.5062 9.49378,90.5062 13.5,88.5 Z"/></g>
<g><path style="opacity:1" fill="#e75b56" d="M 39.5,102.5 C 39.5,109.167 39.5,115.833 39.5,122.5C 38.2502,122.577 37.4169,123.244 37,124.5C 36.5,124 36,123.5 35.5,123C 31.1667,122.667 26.8333,122.333 22.5,122C 19.9595,119.251 18.9595,115.918 19.5,112C 19.6667,109.5 19.8333,107 20,104.5C 20.5,104 21,103.5 21.5,103C 27.4908,102.501 33.4908,102.334 39.5,102.5 Z"/></g>
<g><path style="opacity:1" fill="#f5f5f5" d="M 193.5,6.5 C 206.171,6.33345 218.838,6.50012 231.5,7C 232.701,7.90252 233.535,9.06919 234,10.5C 234.5,16.8246 234.666,23.1579 234.5,29.5C 240.701,30.2372 247.034,31.0705 253.5,32C 255.262,33.762 255.928,35.5953 255.5,37.5C 254.167,40.1667 254.167,42.8333 255.5,45.5C 255.857,51.8042 255.357,58.1376 254,64.5C 253.28,66.0557 252.113,67.0557 250.5,67.5C 242.311,67.5595 233.978,67.3928 225.5,67C 222.305,65.3054 219.972,62.8054 218.5,59.5C 217.119,59.9996 216.453,60.9996 216.5,62.5C 216.981,65.0832 217.648,67.5832 218.5,70C 223.519,70.4108 228.519,70.9108 233.5,71.5C 233.5,72.5 233.5,73.5 233.5,74.5C 245.067,73.911 249.734,79.411 247.5,91C 247.483,94.7501 247.149,98.4168 246.5,102C 248.682,104.012 251.349,105.012 254.5,105C 249.511,105.499 244.511,105.666 239.5,105.5C 239.666,97.4931 239.5,89.4931 239,81.5C 238.626,80.5838 238.126,79.7504 237.5,79C 226.598,77.3796 215.598,77.0463 204.5,78C 202.951,79.214 201.785,80.714 201,82.5C 200.581,91.1871 200.581,99.8538 201,108.5C 199.5,110 198,111.5 196.5,113C 203.388,114.089 209.722,112.756 215.5,109C 218.482,108.502 221.482,108.335 224.5,108.5C 224.334,115.841 224.5,123.174 225,130.5C 227.22,134.692 230.72,136.359 235.5,135.5C 236.462,140.74 234.795,144.907 230.5,148C 238.44,147.022 244.44,143.022 248.5,136C 252.489,136.107 255.989,134.941 259,132.5C 260.591,125.608 260.924,118.608 260,111.5C 258.975,109.313 257.475,107.646 255.5,106.5C 258.752,104.853 261.586,105.52 264,108.5C 264.213,117.742 264.88,127.075 266,136.5C 267.276,133 269.109,129.833 271.5,127C 275.628,125.719 278.961,126.719 281.5,130C 282.793,130.49 284.127,130.657 285.5,130.5C 286.461,132.265 286.795,134.265 286.5,136.5C 285.221,137.968 283.554,138.635 281.5,138.5C 281.334,147.173 281.5,155.84 282,164.5C 283.011,163.663 284.178,163.33 285.5,163.5C 285.5,164.833 285.5,166.167 285.5,167.5C 284.5,167.5 283.5,167.5 282.5,167.5C 281.883,167.389 281.383,167.056 281,166.5C 280.667,160.5 280.333,154.5 280,148.5C 278.587,146.348 277.754,144.014 277.5,141.5C 274.836,140.186 272.169,138.852 269.5,137.5C 268.5,137.833 267.5,138.167 266.5,138.5C 268.078,139.298 269.744,139.798 271.5,140C 269.132,140.856 266.798,141.69 264.5,142.5C 264.688,140.897 264.188,139.563 263,138.5C 262.75,141.754 261.75,144.754 260,147.5C 259.503,149.81 259.337,152.143 259.5,154.5C 264.407,156.237 267.907,159.571 270,164.5C 269.881,171.935 269.715,179.601 269.5,187.5C 265.327,186.956 261.494,187.623 258,189.5C 257.175,193.211 257.341,196.878 258.5,200.5C 260.336,201.028 262.003,201.694 263.5,202.5C 261.473,202.662 259.473,202.495 257.5,202C 255.343,199.678 253.01,197.511 250.5,195.5C 249.891,191.365 249.224,187.365 248.5,183.5C 248.953,182.542 249.619,181.708 250.5,181C 264.28,182.908 268.613,177.575 263.5,165C 258.5,164.333 253.5,164.333 248.5,165C 247.748,165.671 247.414,166.504 247.5,167.5C 247.167,167.5 246.833,167.5 246.5,167.5C 245.354,165.525 243.687,164.025 241.5,163C 228.738,162.04 216.071,162.373 203.5,164C 202.333,165.167 201.167,166.333 200,167.5C 199.333,177.5 199.333,187.5 200,197.5C 200.792,199.644 202.292,200.977 204.5,201.5C 210.645,202.49 216.978,202.823 223.5,202.5C 223.832,212.19 223.498,221.856 222.5,231.5C 221.833,226.683 221.166,222.017 220.5,217.5C 219.698,216.115 219.031,216.282 218.5,218C 218.57,218.765 218.903,219.265 219.5,219.5C 219.666,223.514 219.499,227.514 219,231.5C 218.119,233.274 216.953,233.94 215.5,233.5C 216.981,234.48 218.315,235.647 219.5,237C 218.833,237.667 218.167,238.333 217.5,239C 211.992,240.851 206.325,241.851 200.5,242C 202.5,244 204.5,246 206.5,248C 200.652,249.957 196.652,248.124 194.5,242.5C 192.869,244.059 192.036,246.059 192,248.5C 190.989,249.337 189.822,249.67 188.5,249.5C 188.5,233.167 188.5,216.833 188.5,200.5C 189.819,187.76 189.819,175.094 188.5,162.5C 188.564,160.611 188.064,158.944 187,157.5C 186.819,160.695 186.319,163.695 185.5,166.5C 185.5,158.5 185.5,150.5 185.5,142.5C 185.833,142.5 186.167,142.5 186.5,142.5C 186.392,146.247 186.892,149.914 188,153.5C 188.498,150.518 188.665,147.518 188.5,144.5C 197.162,145.838 200.829,142.171 199.5,133.5C 200.829,124.829 197.162,121.162 188.5,122.5C 188.5,117.833 188.5,113.167 188.5,108.5C 189.984,91.2658 189.484,73.9325 187,56.5C 186.617,55.944 186.117,55.6107 185.5,55.5C 185.5,54.5 185.5,53.5 185.5,52.5C 187.735,52.7947 189.735,52.4614 191.5,51.5C 197.326,50.2587 202.993,48.4254 208.5,46C 214.248,45.788 219.915,45.288 225.5,44.5C 225.334,49.1785 225.501,53.8452 226,58.5C 226.833,59.3333 227.667,60.1667 228.5,61C 234.723,62.5815 241.056,62.9148 247.5,62C 248,61.5 248.5,61 249,60.5C 249.667,53.1667 249.667,45.8333 249,38.5C 248.5,38 248,37.5 247.5,37C 241.509,36.5005 235.509,36.3338 229.5,36.5C 229.666,29.4921 229.5,22.4921 229,15.5C 227.395,11.7241 224.562,9.72415 220.5,9.5C 211.009,8.66997 201.342,8.16997 191.5,8C 192.416,7.72158 193.082,7.22158 193.5,6.5 Z"/></g>
<g><path style="opacity:1" fill="#8c8c8c" d="M 208.5,59.5 C 209.566,58.3079 210.399,58.6412 211,60.5C 211.684,61.7839 211.517,62.9505 210.5,64C 205.845,64.4992 201.179,64.6658 196.5,64.5C 196.343,63.1266 196.51,61.7932 197,60.5C 200.836,62.3888 205.003,63.0555 209.5,62.5C 209.737,61.209 209.404,60.209 208.5,59.5 Z"/></g>
<g><path style="opacity:1" fill="#fdf5dd" d="M 236.5,53.5 C 237.833,53.5 239.167,53.5 240.5,53.5C 240.5,54.5 240.5,55.5 240.5,56.5C 239.167,56.5 237.833,56.5 236.5,56.5C 236.5,55.5 236.5,54.5 236.5,53.5 Z"/></g>
<g><path style="opacity:1" fill="#fdfaeb" d="M 234.5,47.5 C 236.857,47.3367 239.19,47.5034 241.5,48C 242.337,49.0113 242.67,50.1779 242.5,51.5C 239.107,49.523 236.441,50.1897 234.5,53.5C 232.001,51.6045 232.001,49.6045 234.5,47.5 Z"/></g>
<g><path style="opacity:1" fill="#161d2f" d="M 59.5,89.5 C 81.0182,84.851 89.1849,93.1844 84,114.5C 83.6541,116.848 82.4875,118.681 80.5,120C 73.608,121.591 66.608,121.924 59.5,121C 57.2739,119.773 55.7739,117.939 55,115.5C 54.3333,108.833 54.3333,102.167 55,95.5C 56.332,93.34 57.832,91.34 59.5,89.5 Z"/></g>
<g><path style="opacity:1" fill="#53abd1" d="M 59.5,92.5 C 66.175,92.3337 72.8417,92.5004 79.5,93C 80,93.5 80.5,94 81,94.5C 81.6667,101.833 81.6667,109.167 81,116.5C 80.5,117 80,117.5 79.5,118C 72.8333,118.667 66.1667,118.667 59.5,118C 59,117.5 58.5,117 58,116.5C 57.3333,109.167 57.3333,101.833 58,94.5C 58.7172,93.9558 59.2172,93.2891 59.5,92.5 Z"/></g>
<g><path style="opacity:1" fill="#f0f8fa" d="M 63.5,97.5 C 75.4867,94.3215 79.9867,98.6548 77,110.5C 76.1667,111.333 75.3333,112.167 74.5,113C 66.0588,115.955 61.7255,113.122 61.5,104.5C 61.3187,101.837 61.9854,99.5034 63.5,97.5 Z"/></g>
<g><path style="opacity:1" fill="#85c0d3" d="M 67.5,100.5 C 68.9194,102.151 70.2527,103.984 71.5,106C 70.3816,107.074 69.3816,108.24 68.5,109.5C 66.7389,107.747 65.4056,105.747 64.5,103.5C 64.8333,102.833 65.1667,102.167 65.5,101.5C 66.9867,106.657 67.6534,106.324 67.5,100.5 Z"/></g>
<g><path style="opacity:1" fill="#53aace" d="M 172.5,111.5 C 172.666,118.175 172.5,124.842 172,131.5C 169.618,132.554 167.118,133.221 164.5,133.5C 165.315,132.163 166.482,131.163 168,130.5C 168.684,129.216 168.517,128.049 167.5,127C 170.829,122.863 171.329,118.363 169,113.5C 167.806,112.57 166.473,111.903 165,111.5C 161.923,112.711 158.923,114.044 156,115.5C 153.934,112.868 151.434,112.201 148.5,113.5C 147.784,118.402 146.784,123.235 145.5,128C 145.439,130.806 146.772,132.473 149.5,133C 154.155,133.499 158.821,133.666 163.5,133.5C 162.972,134.721 162.305,135.887 161.5,137C 156.177,137.499 150.844,137.666 145.5,137.5C 143.589,137.426 142.422,136.426 142,134.5C 141.333,126.5 141.333,118.5 142,110.5C 142.833,109.667 143.667,108.833 144.5,108C 153.167,107.333 161.833,107.333 170.5,108C 171.823,108.816 172.489,109.983 172.5,111.5 Z"/></g>
<g><path style="opacity:1" fill="#fcf0ec" d="M 27.5,109.5 C 29.1667,109.5 30.8333,109.5 32.5,109.5C 32.9616,114.244 31.4616,115.244 28,112.5C 27.5172,111.552 27.3505,110.552 27.5,109.5 Z"/></g>
<g><path style="opacity:1" fill="#160a17" d="M 103.5,85.5 C 109.29,84.7478 114.623,85.7478 119.5,88.5C 120.597,95.7842 120.763,103.118 120,110.5C 118.529,114.958 115.362,116.958 110.5,116.5C 105.156,116.666 99.8229,116.499 94.5,116C 92.6667,115.5 91.5,114.333 91,112.5C 90.3333,104.5 90.3333,96.5 91,88.5C 91.9025,87.2986 93.0692,86.4652 94.5,86C 97.4816,85.502 100.482,85.3354 103.5,85.5 Z"/></g>
<g><path style="opacity:1" fill="#e47583" d="M 94.5,87.5 C 101.175,87.3337 107.842,87.5004 114.5,88C 115.416,88.3742 116.25,88.8742 117,89.5C 117.667,96.8333 117.667,104.167 117,111.5C 116.167,112.333 115.333,113.167 114.5,114C 108.167,114.667 101.833,114.667 95.5,114C 94.5838,113.626 93.7504,113.126 93,112.5C 92.3333,104.833 92.3333,97.1667 93,89.5C 93.7172,88.9558 94.2172,88.2891 94.5,87.5 Z"/></g>
<g><path style="opacity:1" fill="#fdeff1" d="M 113.5,99.5 C 115.807,101.592 115.474,103.758 112.5,106C 108.542,108.558 106.876,107.392 107.5,102.5C 110.089,102.539 112.089,101.539 113.5,99.5 Z"/></g>
<g><path style="opacity:1" fill="#fdf4f5" d="M 100.5,94.5 C 104.266,95.7687 107.933,97.2687 111.5,99C 109.75,100.319 107.75,100.819 105.5,100.5C 105.813,107.11 103.313,107.777 98,102.5C 97.0182,99.2253 97.8515,96.5586 100.5,94.5 Z"/></g>
<g><path style="opacity:1" fill="#918e95" d="M 186.5,121.5 C 185.833,121.5 185.167,121.5 184.5,121.5C 185.167,89.5 185.833,89.5 186.5,121.5 Z"/></g>
<g><path style="opacity:1" fill="#302134" d="M 188.5,108.5 C 188.5,113.167 188.5,117.833 188.5,122.5C 189.528,123.295 191.194,123.962 193.5,124.5C 188.156,124.334 182.823,124.501 177.5,125C 176.956,125.717 176.289,126.217 175.5,126.5C 174.555,121.595 174.221,116.595 174.5,111.5C 175.324,115.312 175.824,119.312 176,123.5C 177.948,122.891 179.782,122.224 181.5,121.5C 181.833,121.5 182.167,121.5 182.5,121.5C 183.167,121.5 183.833,121.5 184.5,121.5C 185.167,121.5 185.833,121.5 186.5,121.5C 187.167,117.167 187.833,112.833 188.5,108.5 Z"/></g>
<g><path style="opacity:1" fill="#21171b" d="M 239.5,105.5 C 244.64,106.488 249.974,106.821 255.5,106.5C 257.475,107.646 258.975,109.313 260,111.5C 260.924,118.608 260.591,125.608 259,132.5C 255.989,134.941 252.489,136.107 248.5,136C 244.44,143.022 238.44,147.022 230.5,148C 234.795,144.907 236.462,140.74 235.5,135.5C 230.72,136.359 227.22,134.692 225,130.5C 224.5,123.174 224.334,115.841 224.5,108.5C 221.482,108.335 218.482,108.502 215.5,109C 209.722,112.756 203.388,114.089 196.5,113C 198,111.5 199.5,110 201,108.5C 200.581,99.8538 200.581,91.1871 201,82.5C 201.785,80.714 202.951,79.214 204.5,78C 215.598,77.0463 226.598,77.3796 237.5,79C 238.126,79.7504 238.626,80.5838 239,81.5C 239.5,89.4931 239.666,97.4931 239.5,105.5 Z"/></g>
<g><path style="opacity:1" fill="#eda542" d="M 232.5,79.5 C 234.39,79.2965 235.89,79.9632 237,81.5C 237.5,89.4931 237.666,97.4931 237.5,105.5C 229.832,105.905 222.165,106.405 214.5,107C 210.694,110.158 206.36,111.492 201.5,111C 202,110.5 202.5,110 203,109.5C 203.17,99.991 203.67,90.6577 204.5,81.5C 204.334,89.84 204.5,98.1733 205,106.5C 206.131,107.604 206.965,107.271 207.5,105.5C 209.833,104.833 212.167,104.167 214.5,103.5C 212.587,102.949 210.587,102.782 208.5,103C 208.043,102.586 207.709,102.086 207.5,101.5C 208.689,100.571 210.022,100.238 211.5,100.5C 216.214,100.827 220.88,100.493 225.5,99.5C 226.193,98.4822 226.859,97.4822 227.5,96.5C 229.31,97.9551 230.977,97.7884 232.5,96C 231.552,95.5172 230.552,95.3505 229.5,95.5C 229.238,94.0222 229.571,92.6888 230.5,91.5C 231.396,92.5063 232.062,92.5063 232.5,91.5C 233.687,87.803 233.687,83.803 232.5,79.5 Z"/></g>
<g><path style="opacity:1" fill="#fad797" d="M 227.5,96.5 C 226.859,97.4822 226.193,98.4822 225.5,99.5C 220.88,100.493 216.214,100.827 211.5,100.5C 211.443,99.391 211.11,98.391 210.5,97.5C 214.099,98.3439 217.766,98.6773 221.5,98.5C 221.281,97.325 221.614,96.325 222.5,95.5C 224.071,96.3094 225.738,96.6427 227.5,96.5 Z"/></g>
<g><path style="opacity:1" fill="#f6b648" d="M 232.5,79.5 C 233.687,83.803 233.687,87.803 232.5,91.5C 232.062,92.5063 231.396,92.5063 230.5,91.5C 229.571,92.6888 229.238,94.0222 229.5,95.5C 230.552,95.3505 231.552,95.5172 232.5,96C 230.977,97.7884 229.31,97.9551 227.5,96.5C 225.738,96.6427 224.071,96.3094 222.5,95.5C 221.614,96.325 221.281,97.325 221.5,98.5C 217.766,98.6773 214.099,98.3439 210.5,97.5C 211.11,98.391 211.443,99.391 211.5,100.5C 210.022,100.238 208.689,100.571 207.5,101.5C 207.709,102.086 208.043,102.586 208.5,103C 210.587,102.782 212.587,102.949 214.5,103.5C 212.167,104.167 209.833,104.833 207.5,105.5C 206.965,107.271 206.131,107.604 205,106.5C 204.5,98.1733 204.334,89.84 204.5,81.5C 205.289,81.2172 205.956,80.7172 206.5,80C 215.16,79.5002 223.827,79.3336 232.5,79.5 Z"/></g>
<g><path style="opacity:1" fill="#fef5c6" d="M 210.5,97.5 C 209.194,94.3132 209.194,90.9798 210.5,87.5C 215.446,86.3857 220.446,86.219 225.5,87C 221.167,87.3333 216.833,87.6667 212.5,88C 210.66,90.8263 209.994,93.9929 210.5,97.5 Z"/></g>
<g><path style="opacity:1" fill="#7f484d" d="M 210.5,119.5 C 211.919,118.549 213.585,118.216 215.5,118.5C 215.5,121.167 215.5,123.833 215.5,126.5C 213.5,126.5 211.5,126.5 209.5,126.5C 209.198,123.941 209.532,121.607 210.5,119.5 Z"/></g>
<g><path style="opacity:1" fill="#e25859" d="M 210.5,119.5 C 211.833,119.5 213.167,119.5 214.5,119.5C 214.5,121.5 214.5,123.5 214.5,125.5C 213.167,125.5 211.833,125.5 210.5,125.5C 210.5,123.5 210.5,121.5 210.5,119.5 Z"/></g>
<g><path style="opacity:1" fill="#5e596a" d="M 205.5,126.5 C 217.39,128.121 217.39,129.121 205.5,129.5C 205.5,128.5 205.5,127.5 205.5,126.5 Z"/></g>
<g><path style="opacity:1" fill="#c3bcd4" d="M 100.5,123.5 C 104.028,123.202 106.361,124.702 107.5,128C 107.031,131.822 105.531,132.322 103,129.5C 102.667,128.167 102.333,126.833 102,125.5C 99.372,126.756 98.372,128.756 99,131.5C 101.243,132.971 103.743,133.971 106.5,134.5C 101.5,135.833 96.5,135.833 91.5,134.5C 93.7662,133.686 96.0995,133.186 98.5,133C 97.7069,131.915 97.0402,130.748 96.5,129.5C 97.961,127.483 99.2943,125.483 100.5,123.5 Z"/></g>
<g><path style="opacity:1" fill="#d54d5a" d="M 227.5,108.5 C 236.506,108.334 245.506,108.5 254.5,109C 255.416,109.374 256.25,109.874 257,110.5C 257.667,117.167 257.667,123.833 257,130.5C 254.103,133.231 250.603,134.231 246.5,133.5C 245.029,137.653 242.363,140.987 238.5,143.5C 238.527,140.555 238.193,137.555 237.5,134.5C 227.989,134.361 224.322,129.528 226.5,120C 226.572,116.117 226.905,112.283 227.5,108.5 Z"/></g>
<g><path style="opacity:1" fill="#fcedef" d="M 233.5,115.5 C 234.857,116.685 236.357,117.685 238,118.5C 240.256,116.915 242.756,116.248 245.5,116.5C 244.793,124.409 240.793,127.242 233.5,125C 233.678,122.045 233.678,118.879 233.5,115.5 Z"/></g>
<g><path style="opacity:1" fill="#f4f0ef" d="M 39.5,87.5 C 39.5,92.5 39.5,97.5 39.5,102.5C 33.4908,102.334 27.4908,102.501 21.5,103C 21,103.5 20.5,104 20,104.5C 19.8333,107 19.6667,109.5 19.5,112C 18.9595,115.918 19.9595,119.251 22.5,122C 26.8333,122.333 31.1667,122.667 35.5,123C 36,123.5 36.5,124 37,124.5C 37.4169,123.244 38.2502,122.577 39.5,122.5C 39.5,128.5 39.5,134.5 39.5,140.5C 38.7321,139.737 38.2321,138.737 38,137.5C 35.6533,141.587 32.32,143.253 28,142.5C 27.2018,139.289 27.7018,136.289 29.5,133.5C 23.4779,132.794 17.4779,132.128 11.5,131.5C 10.8076,130.975 10.3076,130.308 10,129.5C 9.12092,118.45 9.45425,107.45 11,96.5C 14.5159,92.444 19.0159,90.2773 24.5,90C 24.9574,89.586 25.2907,89.086 25.5,88.5C 30.1196,87.5067 34.7863,87.1734 39.5,87.5 Z"/></g>
<g><path style="opacity:1" fill="#acd6e5" d="M 164.5,133.5 C 164.167,133.5 163.833,133.5 163.5,133.5C 158.821,133.666 154.155,133.499 149.5,133C 146.772,132.473 145.439,130.806 145.5,128C 146.784,123.235 147.784,118.402 148.5,113.5C 151.434,112.201 153.934,112.868 156,115.5C 158.923,114.044 161.923,112.711 165,111.5C 166.473,111.903 167.806,112.57 169,113.5C 171.329,118.363 170.829,122.863 167.5,127C 168.517,128.049 168.684,129.216 168,130.5C 166.482,131.163 165.315,132.163 164.5,133.5 Z"/></g>
<g><path style="opacity:1" fill="#deedf3" d="M 162.5,120.5 C 163.5,120.5 164.5,120.5 165.5,120.5C 165.079,122.91 163.746,124.743 161.5,126C 160.216,126.684 159.049,126.517 158,125.5C 154.935,128.949 151.102,130.616 146.5,130.5C 146.239,126.956 147.905,125.122 151.5,125C 152.337,123.989 152.67,122.822 152.5,121.5C 154.342,121.723 156.175,122.057 158,122.5C 159.876,122.475 161.376,121.809 162.5,120.5 Z"/></g>
<g><path style="opacity:1" fill="#54525a" d="M 217.5,127.5 C 218.782,128.708 218.782,130.042 217.5,131.5C 216.708,130.3 216.708,128.967 217.5,127.5 Z"/></g>
<g><path style="opacity:1" fill="#377aa1" d="M 172.5,111.5 C 173.655,118.321 173.821,125.321 173,132.5C 172.654,134.848 171.487,136.681 169.5,138C 161.323,138.823 153.323,138.656 145.5,137.5C 150.844,137.666 156.177,137.499 161.5,137C 162.305,135.887 162.972,134.721 163.5,133.5C 163.833,133.5 164.167,133.5 164.5,133.5C 167.118,133.221 169.618,132.554 172,131.5C 172.5,124.842 172.666,118.175 172.5,111.5 Z"/></g>
<g><path style="opacity:1" fill="#de5a73" d="M 193.5,124.5 C 195.411,124.574 196.578,125.574 197,127.5C 197.667,131.833 197.667,136.167 197,140.5C 196.5,141 196,141.5 195.5,142C 192.518,142.498 189.518,142.665 186.5,142.5C 186.167,142.5 185.833,142.5 185.5,142.5C 185.167,142.5 184.833,142.5 184.5,142.5C 182.167,142.5 179.833,142.5 177.5,142.5C 177.217,141.711 176.717,141.044 176,140.5C 175.501,135.845 175.334,131.179 175.5,126.5C 176.289,126.217 176.956,125.717 177.5,125C 182.823,124.501 188.156,124.334 193.5,124.5 Z"/></g>
<g><path style="opacity:1" fill="#ec98a8" d="M 185.5,127.5 C 191.067,126.753 192.9,129.087 191,134.5C 189.324,135.061 187.991,136.061 187,137.5C 185.596,135.606 184.43,133.606 183.5,131.5C 183.752,129.927 184.418,128.594 185.5,127.5 Z"/></g>
<g><path style="opacity:1" fill="#191318" d="M 188.5,122.5 C 197.162,121.162 200.829,124.829 199.5,133.5C 200.829,142.171 197.162,145.838 188.5,144.5C 188.665,147.518 188.498,150.518 188,153.5C 186.892,149.914 186.392,146.247 186.5,142.5C 189.518,142.665 192.518,142.498 195.5,142C 196,141.5 196.5,141 197,140.5C 197.667,136.167 197.667,131.833 197,127.5C 196.578,125.574 195.411,124.574 193.5,124.5C 191.194,123.962 189.528,123.295 188.5,122.5 Z"/></g>
<g><path style="opacity:1" fill="#2c2b3a" d="M 45.5,241.5 C 45.1667,241.5 44.8333,241.5 44.5,241.5C 44.5,183.833 44.5,126.167 44.5,68.5C 45.2679,67.7375 45.7679,66.7375 46,65.5C 46.7331,124.171 46.5664,182.838 45.5,241.5 Z"/></g>
<g><path style="opacity:1" fill="#4eaabc" d="M 131.5,83.5 C 131.334,89.5092 131.501,95.5092 132,101.5C 135.757,104.936 140.257,106.436 145.5,106C 142.943,106.685 141.109,108.185 140,110.5C 139.333,118.833 139.333,127.167 140,135.5C 140.833,137.667 142.333,139.167 144.5,140C 148.821,140.499 153.154,140.666 157.5,140.5C 158.272,144.452 158.605,148.452 158.5,152.5C 154.154,152.334 149.821,152.501 145.5,153C 142.846,156.327 141.846,160.161 142.5,164.5C 137.528,164.53 134.195,162.197 132.5,157.5C 132.946,153.64 131.613,150.64 128.5,148.5C 128.5,147.5 128.5,146.5 128.5,145.5C 131.97,146.125 134.804,145.125 137,142.5C 137.667,137.833 137.667,133.167 137,128.5C 136.167,127.667 135.333,126.833 134.5,126C 127.42,125.205 120.42,125.372 113.5,126.5C 112.753,123.101 111.753,119.767 110.5,116.5C 115.362,116.958 118.529,114.958 120,110.5C 120.763,103.118 120.597,95.7842 119.5,88.5C 120.167,87.1667 120.833,85.8333 121.5,84.5C 124.603,82.2963 127.937,81.9629 131.5,83.5 Z"/></g>
<g><path style="opacity:1" fill="#6b5d90" d="M 177.5,168.5 C 174.474,167.118 171.474,165.785 168.5,164.5C 170.496,155.84 167.162,151.84 158.5,152.5C 158.605,148.452 158.272,144.452 157.5,140.5C 161.182,140.665 164.848,140.499 168.5,140C 170.329,139.727 171.829,138.893 173,137.5C 173.058,140.559 174.391,142.892 177,144.5C 177.5,152.493 177.666,160.493 177.5,168.5 Z"/></g>
<g><path style="opacity:1" fill="#7ea5c3" d="M 217.5,148.5 C 214.038,147.518 210.371,147.185 206.5,147.5C 206.5,146.167 206.5,144.833 206.5,143.5C 207.552,143.649 208.552,143.483 209.5,143C 208.663,141.989 208.33,140.822 208.5,139.5C 211.227,135.692 213.894,135.692 216.5,139.5C 216.055,142.218 216.721,144.885 218.5,147.5C 218.376,148.107 218.043,148.44 217.5,148.5 Z"/></g>
<g><path style="opacity:1" fill="#697a8b" d="M 208.5,139.5 C 208.33,140.822 208.663,141.989 209.5,143C 208.552,143.483 207.552,143.649 206.5,143.5C 206.5,144.833 206.5,146.167 206.5,147.5C 210.371,147.185 214.038,147.518 217.5,148.5C 214.024,149.643 210.358,149.81 206.5,149C 205.195,145.416 205.862,142.249 208.5,139.5 Z"/></g>
<g><path style="opacity:1" fill="#0c0f20" d="M 57.5,124.5 C 67.1724,124.334 76.8391,124.5 86.5,125C 87.9308,125.465 89.0975,126.299 90,127.5C 90.6667,136.833 90.6667,146.167 90,155.5C 89.5348,156.931 88.7014,158.097 87.5,159C 77.5998,160.615 67.5998,160.949 57.5,160C 56.0692,159.535 54.9025,158.701 54,157.5C 52.3886,148.268 52.0553,138.935 53,129.5C 54.025,127.313 55.525,125.646 57.5,124.5 Z"/></g>
<g><path style="opacity:1" fill="#2a66a3" d="M 57.5,127.5 C 67.5056,127.334 77.5056,127.5 87.5,128C 88.1528,132.419 88.4861,136.919 88.5,141.5C 88.6141,146.609 88.1141,151.609 87,156.5C 86.2496,157.126 85.4162,157.626 84.5,158C 75.5,158.667 66.5,158.667 57.5,158C 56.2986,157.097 55.4652,155.931 55,154.5C 54.3333,146.5 54.3333,138.5 55,130.5C 56.045,129.627 56.8783,128.627 57.5,127.5 Z"/></g>
<g><path style="opacity:1" fill="#f4f9fa" d="M 71.5,136.5 C 73.8333,136.5 76.1667,136.5 78.5,136.5C 79.8119,145.184 76.1452,150.184 67.5,151.5C 65.6107,151.564 63.9441,151.064 62.5,150C 63.624,149.751 64.624,149.251 65.5,148.5C 62.8542,145.628 62.0208,142.295 63,138.5C 64.7342,140.451 66.9009,141.451 69.5,141.5C 69.3915,139.486 70.0582,137.82 71.5,136.5 Z"/></g>
<g><path style="opacity:1" fill="#655c8c" d="M 128.5,148.5 C 131.613,150.64 132.946,153.64 132.5,157.5C 130.912,161.41 128.579,164.743 125.5,167.5C 125.334,163.486 125.501,159.486 126,155.5C 128.137,153.679 128.97,151.346 128.5,148.5 Z"/></g>
<g><path style="opacity:1" fill="#f8f6f5" d="M 19.5,159.5 C 17.9826,159.511 16.8159,160.177 16,161.5C 15.3333,164.833 15.3333,168.167 16,171.5C 16.5,172 17,172.5 17.5,173C 22.0222,173.049 26.3556,173.882 30.5,175.5C 31.1354,170.741 31.4687,165.741 31.5,160.5C 33.6353,158.631 36.3019,157.964 39.5,158.5C 39.5,176.5 39.5,194.5 39.5,212.5C 33.8236,212.666 28.1569,212.499 22.5,212C 17.476,209.475 14.8093,205.308 14.5,199.5C 12.2619,202.433 11.2619,202.099 11.5,198.5C 14.2469,198.813 16.9135,198.48 19.5,197.5C 19.3764,196.893 19.0431,196.56 18.5,196.5C 16.1665,194.154 14.6665,191.487 14,188.5C 15.2045,189.859 16.7045,190.859 18.5,191.5C 18.2907,192.086 17.9574,192.586 17.5,193C 19.3869,193.78 21.0536,193.613 22.5,192.5C 28.0926,189.27 28.2592,186.27 23,183.5C 22.3162,182.216 22.4829,181.049 23.5,180C 19.1667,179.667 14.8333,179.333 10.5,179C 10,178.5 9.5,178 9,177.5C 8.33333,171.5 8.33333,165.5 9,159.5C 11.3695,157.883 14.0362,156.883 17,156.5C 18.7491,156.748 19.5824,157.748 19.5,159.5 Z"/></g>
<g><path style="opacity:1" fill="#ea5d57" d="M 248.5,183.5 C 247.757,178.506 247.423,173.173 247.5,167.5C 247.414,166.504 247.748,165.671 248.5,165C 253.5,164.333 258.5,164.333 263.5,165C 268.613,177.575 264.28,182.908 250.5,181C 249.619,181.708 248.953,182.542 248.5,183.5 Z"/></g>
<g><path style="opacity:1" fill="#9f4d67" d="M 19.5,159.5 C 23.6002,159.237 27.6002,159.57 31.5,160.5C 31.4687,165.741 31.1354,170.741 30.5,175.5C 26.3556,173.882 22.0222,173.049 17.5,173C 17,172.5 16.5,172 16,171.5C 15.3333,168.167 15.3333,164.833 16,161.5C 16.8159,160.177 17.9826,159.511 19.5,159.5 Z"/></g>
<g><path style="opacity:1" fill="#e3b7c1" d="M 21.5,163.5 C 23.7615,164.976 23.4281,166.476 20.5,168C 24.5537,169.941 24.2203,170.775 19.5,170.5C 19.4003,167.892 20.0669,165.558 21.5,163.5 Z"/></g>
<g><path style="opacity:1" fill="#df5157" d="M 175.5,210.5 C 173.781,207.781 171.447,205.781 168.5,204.5C 168.666,199.156 168.499,193.823 168,188.5C 167.338,187.016 166.504,185.683 165.5,184.5C 165.148,181.921 163.814,180.087 161.5,179C 163.769,178.242 165.936,178.409 168,179.5C 168.492,178.451 168.326,177.451 167.5,176.5C 168.868,174.363 169.868,172.03 170.5,169.5C 172.416,170.248 174.416,170.248 176.5,169.5C 176.829,183.344 176.496,197.01 175.5,210.5 Z"/></g>
<g><path style="opacity:1" fill="#161521" d="M 128.5,148.5 C 128.97,151.346 128.137,153.679 126,155.5C 125.501,159.486 125.334,163.486 125.5,167.5C 125.5,168.833 125.5,170.167 125.5,171.5C 131.167,171.5 136.833,171.5 142.5,171.5C 142.5,169.167 142.5,166.833 142.5,164.5C 141.846,160.161 142.846,156.327 145.5,153C 149.821,152.501 154.154,152.334 158.5,152.5C 167.162,151.84 170.496,155.84 168.5,164.5C 168.665,167.518 168.498,170.518 168,173.5C 167.5,174 167,174.5 166.5,175C 161.833,175.333 157.167,175.667 152.5,176C 149.875,178.196 148.875,181.03 149.5,184.5C 154.833,184.5 160.167,184.5 165.5,184.5C 166.504,185.683 167.338,187.016 168,188.5C 168.499,193.823 168.666,199.156 168.5,204.5C 168.141,206.371 167.141,207.871 165.5,209C 162.518,209.498 159.518,209.665 156.5,209.5C 153.5,209.5 150.5,209.5 147.5,209.5C 147.5,215.5 147.5,221.5 147.5,227.5C 146.375,229.129 145.041,230.629 143.5,232C 136.5,232.667 129.5,232.667 122.5,232C 121.584,231.626 120.75,231.126 120,230.5C 118.402,222.939 118.069,215.272 119,207.5C 120.805,204.961 123.305,203.961 126.5,204.5C 132.358,204.822 138.025,204.489 143.5,203.5C 143.843,201.517 143.176,200.183 141.5,199.5C 134.825,199.666 128.158,199.5 121.5,199C 117.904,195.265 116.571,190.765 117.5,185.5C 117.335,182.15 117.502,178.817 118,175.5C 119.803,173.377 121.637,171.377 123.5,169.5C 123.5,166.167 123.5,162.833 123.5,159.5C 124.978,155.323 125.978,150.989 126.5,146.5C 121.833,146.5 117.167,146.5 112.5,146.5C 107.901,146.2 103.401,146.533 99,147.5C 97.961,156.328 98.461,164.995 100.5,173.5C 100.5,178.833 100.5,184.167 100.5,189.5C 100.621,193.31 99.2876,196.477 96.5,199C 88.1733,199.5 79.84,199.666 71.5,199.5C 69.5,198.167 67.8333,196.5 66.5,194.5C 65.3686,186.913 65.2019,179.246 66,171.5C 66.4652,170.069 67.2986,168.903 68.5,168C 77.3921,166.557 86.3921,166.057 95.5,166.5C 95.3338,160.491 95.5005,154.491 96,148.5C 100.132,143.952 105.299,142.285 111.5,143.5C 110.988,137.612 111.655,131.945 113.5,126.5C 120.42,125.372 127.42,125.205 134.5,126C 135.333,126.833 136.167,127.667 137,128.5C 137.667,133.167 137.667,137.833 137,142.5C 134.804,145.125 131.97,146.125 128.5,145.5C 128.5,146.5 128.5,147.5 128.5,148.5 Z"/></g>
<g><path style="opacity:1" fill="#f6f6f6" d="M 69.5,169.5 C 78.1731,169.334 86.8397,169.5 95.5,170C 96,170.5 96.5,171 97,171.5C 97.6667,179.5 97.6667,187.5 97,195.5C 96.5,196 96,196.5 95.5,197C 91.6667,197.167 87.8333,197.333 84,197.5C 71.0308,200.363 65.8641,195.363 68.5,182.5C 68.5291,178.086 68.8625,173.753 69.5,169.5 Z"/></g>
<g><path style="opacity:1" fill="#e18641" d="M 160.5,154.5 C 162.766,154.141 164.599,154.808 166,156.5C 166.667,161.833 166.667,167.167 166,172.5C 161.251,173.305 156.418,173.805 151.5,174C 150.421,174.956 149.255,175.789 148,176.5C 147.536,175.906 147.369,175.239 147.5,174.5C 149.459,170.874 152.126,167.874 155.5,165.5C 158.395,163.798 160.228,161.464 161,158.5C 160.617,159.056 160.117,159.389 159.5,159.5C 159.196,158.85 158.863,158.183 158.5,157.5C 159.612,156.735 160.279,155.735 160.5,154.5 Z"/></g>
<g><path style="opacity:1" fill="#a06f92" d="M 123.5,159.5 C 123.5,162.833 123.5,166.167 123.5,169.5C 119.154,169.334 114.821,169.501 110.5,170C 108.881,170.236 107.881,171.069 107.5,172.5C 107.167,172.5 106.833,172.5 106.5,172.5C 103.857,169.417 104.857,168.083 109.5,168.5C 109.67,167.178 109.337,166.011 108.5,165C 111.695,164.819 114.695,164.319 117.5,163.5C 119.5,163.5 120.5,162.5 120.5,160.5C 121.268,159.737 121.768,158.737 122,157.5C 122.278,158.416 122.778,159.082 123.5,159.5 Z"/></g>
<g><path style="opacity:1" fill="#a48aad" d="M 112.5,146.5 C 112.647,149.443 113.313,152.276 114.5,155C 114.257,155.902 113.923,156.735 113.5,157.5C 109.167,157.5 104.833,157.5 100.5,157.5C 100.5,159.5 100.5,161.5 100.5,163.5C 106.167,163.5 111.833,163.5 117.5,163.5C 114.695,164.319 111.695,164.819 108.5,165C 109.337,166.011 109.67,167.178 109.5,168.5C 104.857,168.083 103.857,169.417 106.5,172.5C 105.662,172.842 105.328,173.508 105.5,174.5C 103.767,176.355 102.767,178.688 102.5,181.5C 101.833,178.833 101.167,176.167 100.5,173.5C 98.461,164.995 97.961,156.328 99,147.5C 103.401,146.533 107.901,146.2 112.5,146.5 Z"/></g>
<g><path style="opacity:1" fill="#e7615f" d="M 132.5,157.5 C 134.195,162.197 137.528,164.53 142.5,164.5C 142.5,166.833 142.5,169.167 142.5,171.5C 136.833,171.5 131.167,171.5 125.5,171.5C 125.5,170.167 125.5,168.833 125.5,167.5C 128.579,164.743 130.912,161.41 132.5,157.5 Z"/></g>
<g><path style="opacity:1" fill="#feefd4" d="M 155.5,165.5 C 153.456,164.969 151.789,163.802 150.5,162C 152.256,161.86 153.922,162.36 155.5,163.5C 157.188,162.479 158.521,161.145 159.5,159.5C 160.117,159.389 160.617,159.056 161,158.5C 160.228,161.464 158.395,163.798 155.5,165.5 Z"/></g>
<g><path style="opacity:1" fill="#eca547" d="M 160.5,154.5 C 160.279,155.735 159.612,156.735 158.5,157.5C 158.863,158.183 159.196,158.85 159.5,159.5C 158.521,161.145 157.188,162.479 155.5,163.5C 153.922,162.36 152.256,161.86 150.5,162C 151.789,163.802 153.456,164.969 155.5,165.5C 152.126,167.874 149.459,170.874 147.5,174.5C 146.542,174.047 145.708,173.381 145,172.5C 144.333,167.167 144.333,161.833 145,156.5C 145.5,156 146,155.5 146.5,155C 151.155,154.501 155.821,154.334 160.5,154.5 Z"/></g>
<g><path style="opacity:1" fill="#f8f4f8" d="M 113.5,157.5 C 115.833,157.5 118.167,157.5 120.5,157.5C 120.5,158.5 120.5,159.5 120.5,160.5C 120.5,162.5 119.5,163.5 117.5,163.5C 111.833,163.5 106.167,163.5 100.5,163.5C 100.5,161.5 100.5,159.5 100.5,157.5C 104.833,157.5 109.167,157.5 113.5,157.5 Z"/></g>
<g><path style="opacity:1" fill="#ab98ad" d="M 102.5,159.5 C 107.361,159.063 112.028,159.563 116.5,161C 114.167,161.167 111.833,161.333 109.5,161.5C 106.731,161.471 104.397,160.805 102.5,159.5 Z"/></g>
<g><path style="opacity:1" fill="#efe7f3" d="M 101.5,153.5 C 103.604,153.201 105.604,153.534 107.5,154.5C 105.235,155.647 102.902,155.814 100.5,155C 101.056,154.617 101.389,154.117 101.5,153.5 Z"/></g>
<g><path style="opacity:1" fill="#bc89a0" d="M 112.5,146.5 C 117.167,146.5 121.833,146.5 126.5,146.5C 125.978,150.989 124.978,155.323 123.5,159.5C 122.778,159.082 122.278,158.416 122,157.5C 121.768,158.737 121.268,159.737 120.5,160.5C 120.5,159.5 120.5,158.5 120.5,157.5C 118.167,157.5 115.833,157.5 113.5,157.5C 113.923,156.735 114.257,155.902 114.5,155C 113.313,152.276 112.647,149.443 112.5,146.5 Z"/></g>
<g><path style="opacity:1" fill="#78b3a5" d="M 119.5,127.5 C 118.962,129.117 118.629,130.784 118.5,132.5C 119.873,132.343 121.207,132.51 122.5,133C 119.177,136.045 118.844,139.212 121.5,142.5C 122.466,140.604 122.799,138.604 122.5,136.5C 123.5,136.5 124.5,136.5 125.5,136.5C 125.351,135.448 125.517,134.448 126,133.5C 129.683,133.429 132.183,131.762 133.5,128.5C 134.117,128.611 134.617,128.944 135,129.5C 135.667,133.5 135.667,137.5 135,141.5C 134.5,142 134,142.5 133.5,143C 126.842,143.5 120.175,143.666 113.5,143.5C 113.334,138.821 113.501,134.155 114,129.5C 115.444,127.845 117.278,127.178 119.5,127.5 Z"/></g>
<g><path style="opacity:1" fill="#eef7f7" d="M 127.5,133.5 C 128.822,133.33 129.989,133.663 131,134.5C 131.497,136.81 131.663,139.143 131.5,141.5C 126.882,142.025 125.882,140.692 128.5,137.5C 127.754,136.264 127.421,134.93 127.5,133.5 Z"/></g>
<g><path style="opacity:1" fill="#cee5e2" d="M 119.5,127.5 C 124.363,127.181 129.03,127.514 133.5,128.5C 132.183,131.762 129.683,133.429 126,133.5C 125.517,134.448 125.351,135.448 125.5,136.5C 124.5,136.5 123.5,136.5 122.5,136.5C 122.799,138.604 122.466,140.604 121.5,142.5C 118.844,139.212 119.177,136.045 122.5,133C 121.207,132.51 119.873,132.343 118.5,132.5C 118.629,130.784 118.962,129.117 119.5,127.5 Z"/></g>
<g><path style="opacity:1" fill="#f4eeea" d="M 282.5,167.5 C 283.596,171.413 283.762,175.413 283,179.5C 282,178.167 281,178.167 280,179.5C 279.333,184.167 279.333,188.833 280,193.5C 283.054,195.123 282.554,195.79 278.5,195.5C 278.649,194.448 278.483,193.448 278,192.5C 277.446,197.138 274.946,199.971 270.5,201C 270.833,201.333 271.167,201.667 271.5,202C 268.854,202.497 266.187,202.664 263.5,202.5C 262.003,201.694 260.336,201.028 258.5,200.5C 257.341,196.878 257.175,193.211 258,189.5C 261.494,187.623 265.327,186.956 269.5,187.5C 269.715,179.601 269.881,171.935 270,164.5C 267.907,159.571 264.407,156.237 259.5,154.5C 259.337,152.143 259.503,149.81 260,147.5C 261.75,144.754 262.75,141.754 263,138.5C 264.188,139.563 264.688,140.897 264.5,142.5C 266.798,141.69 269.132,140.856 271.5,140C 269.744,139.798 268.078,139.298 266.5,138.5C 267.5,138.167 268.5,137.833 269.5,137.5C 272.169,138.852 274.836,140.186 277.5,141.5C 277.754,144.014 278.587,146.348 280,148.5C 280.333,154.5 280.667,160.5 281,166.5C 281.383,167.056 281.883,167.389 282.5,167.5 Z"/></g>
<g><path style="opacity:1" fill="#e5645c" d="M 263.5,143.5 C 267.833,143.5 272.167,143.5 276.5,143.5C 276.5,146.167 276.5,148.833 276.5,151.5C 272.046,151.724 267.712,151.724 263.5,151.5C 262.271,148.801 262.271,146.135 263.5,143.5 Z"/></g>
<g><path style="opacity:1" fill="#bab9c2" d="M 188.5,200.5 C 187.67,191.676 187.17,182.676 187,173.5C 186.501,178.155 186.334,182.821 186.5,187.5C 185.509,180.687 185.175,173.687 185.5,166.5C 186.319,163.695 186.819,160.695 187,157.5C 188.064,158.944 188.564,160.611 188.5,162.5C 189.819,175.094 189.819,187.76 188.5,200.5 Z"/></g>
<g><path style="opacity:1" fill="#17161a" d="M 70.5,179.5 C 78.1955,179.169 85.8622,179.503 93.5,180.5C 89.6667,180.833 85.8333,181.167 82,181.5C 77.771,181.49 73.9377,180.823 70.5,179.5 Z"/></g>
<g><path style="opacity:1" fill="#d1555d" d="M 168.5,164.5 C 171.474,165.785 174.474,167.118 177.5,168.5C 177.5,183.167 177.5,197.833 177.5,212.5C 176.5,212.167 175.833,211.5 175.5,210.5C 176.496,197.01 176.829,183.344 176.5,169.5C 174.416,170.248 172.416,170.248 170.5,169.5C 169.868,172.03 168.868,174.363 167.5,176.5C 168.326,177.451 168.492,178.451 168,179.5C 165.936,178.409 163.769,178.242 161.5,179C 163.814,180.087 165.148,181.921 165.5,184.5C 160.167,184.5 154.833,184.5 149.5,184.5C 148.875,181.03 149.875,178.196 152.5,176C 157.167,175.667 161.833,175.333 166.5,175C 167,174.5 167.5,174 168,173.5C 168.498,170.518 168.665,167.518 168.5,164.5 Z"/></g>
<g><path style="opacity:1" fill="#44434b" d="M 70.5,184.5 C 77.9887,183.344 85.6554,183.178 93.5,184C 89.8471,185.134 86.0137,185.634 82,185.5C 78.0848,185.467 74.2514,185.133 70.5,184.5 Z"/></g>
<g><path style="opacity:1" fill="#695587" d="M 106.5,172.5 C 106.833,172.5 107.167,172.5 107.5,172.5C 108.283,176.146 108.45,179.812 108,183.5C 106.52,186.817 104.02,188.817 100.5,189.5C 100.5,184.167 100.5,178.833 100.5,173.5C 101.167,176.167 101.833,178.833 102.5,181.5C 101.719,183.663 102.553,183.996 105,182.5C 105.497,179.854 105.664,177.187 105.5,174.5C 105.328,173.508 105.662,172.842 106.5,172.5 Z"/></g>
<g><path style="opacity:1" fill="#151122" d="M 105.5,174.5 C 105.664,177.187 105.497,179.854 105,182.5C 102.553,183.996 101.719,183.663 102.5,181.5C 102.767,178.688 103.767,176.355 105.5,174.5 Z"/></g>
<g><path style="opacity:1" fill="#110f1a" d="M 246.5,167.5 C 246.333,179.838 246.5,192.171 247,204.5C 248.589,207.383 251.089,208.883 254.5,209C 244.425,211.438 235.759,209.104 228.5,202C 220.507,201.5 212.507,201.334 204.5,201.5C 202.292,200.977 200.792,199.644 200,197.5C 199.333,187.5 199.333,177.5 200,167.5C 201.167,166.333 202.333,165.167 203.5,164C 216.071,162.373 228.738,162.04 241.5,163C 243.687,164.025 245.354,165.525 246.5,167.5 Z"/></g>
<g><path style="opacity:1" fill="#cbd4e2" d="M 202.5,167.5 C 203.494,177.319 203.827,187.319 203.5,197.5C 203.19,198.738 202.69,198.738 202,197.5C 201.217,187.453 201.383,177.453 202.5,167.5 Z"/></g>
<g><path style="opacity:1" fill="#3b3a3f" d="M 71.5,186.5 C 78.3452,186.042 85.0119,186.542 91.5,188C 85.0041,189.622 78.3374,189.956 71.5,189C 70.4019,188.23 70.4019,187.397 71.5,186.5 Z"/></g>
<g><path style="opacity:1" fill="#2e466b" d="M 243.5,168.5 C 244.331,180.66 244.831,192.993 245,205.5C 246.784,206.667 246.784,207.667 245,208.5C 239.147,207.494 234.314,204.828 230.5,200.5C 232.6,200.523 234.433,199.856 236,198.5C 238.185,199.758 240.352,199.758 242.5,198.5C 243.499,188.522 243.832,178.522 243.5,168.5 Z"/></g>
<g><path style="opacity:1" fill="#9a88ae" d="M 22.5,192.5 C 21.0536,193.613 19.3869,193.78 17.5,193C 17.9574,192.586 18.2907,192.086 18.5,191.5C 16.7045,190.859 15.2045,189.859 14,188.5C 14.6665,191.487 16.1665,194.154 18.5,196.5C 15.4355,197.818 12.2688,197.818 9,196.5C 8.14625,192.375 8.47958,188.375 10,184.5C 11.6934,183.816 13.1934,182.816 14.5,181.5C 16.2262,183.03 18.2262,184.03 20.5,184.5C 21.3953,186.246 22.062,188.08 22.5,190C 22.0946,190.945 21.428,191.612 20.5,192C 21.0944,192.464 21.7611,192.631 22.5,192.5 Z"/></g>
<g><path style="opacity:1" fill="#55a4c7" d="M 139.5,197.5 C 139.286,195.856 139.62,194.356 140.5,193C 135.833,192.667 131.167,192.333 126.5,192C 124.833,191.167 123.167,190.333 121.5,189.5C 120.508,185.217 120.174,180.884 120.5,176.5C 120.953,175.542 121.619,174.708 122.5,174C 129.524,173.169 136.524,173.336 143.5,174.5C 145.372,176.535 147.039,178.702 148.5,181C 147.015,183.156 145.515,185.323 144,187.5C 143.502,190.817 143.335,194.15 143.5,197.5C 142.167,197.5 140.833,197.5 139.5,197.5 Z"/></g>
<g><path style="opacity:1" fill="#f2fafb" d="M 133.5,179.5 C 140.869,180.154 141.535,182.987 135.5,188C 132.366,188.79 129.366,188.457 126.5,187C 127.448,186.517 128.448,186.351 129.5,186.5C 129.215,184.712 129.548,183.045 130.5,181.5C 132.137,182.444 133.137,181.777 133.5,179.5 Z"/></g>
<g><path style="opacity:1" fill="#779ec3" d="M 163.5,186.5 C 162.89,188.434 161.89,190.101 160.5,191.5C 158.076,191.192 155.743,191.526 153.5,192.5C 152.828,195.344 151.828,198.01 150.5,200.5C 149.167,200.5 147.833,200.5 146.5,200.5C 146.5,196.167 146.5,191.833 146.5,187.5C 152.075,186.548 157.741,186.214 163.5,186.5 Z"/></g>
<g><path style="opacity:1" fill="#db5661" d="M 123.5,169.5 C 121.637,171.377 119.803,173.377 118,175.5C 117.502,178.817 117.335,182.15 117.5,185.5C 116.222,185.782 115.222,186.449 114.5,187.5C 113.833,195.5 113.167,203.5 112.5,211.5C 111.684,209.856 110.35,208.69 108.5,208C 100.507,207.5 92.5069,207.334 84.5,207.5C 86.6979,206.835 89.0312,206.168 91.5,205.5C 92.2758,203.644 93.6091,202.311 95.5,201.5C 87.3433,200.833 79.3433,200.167 71.5,199.5C 79.84,199.666 88.1733,199.5 96.5,199C 99.2876,196.477 100.621,193.31 100.5,189.5C 104.02,188.817 106.52,186.817 108,183.5C 108.45,179.812 108.283,176.146 107.5,172.5C 107.881,171.069 108.881,170.236 110.5,170C 114.821,169.501 119.154,169.334 123.5,169.5 Z"/></g>
<g><path style="opacity:1" fill="#3b86ac" d="M 120.5,176.5 C 120.174,180.884 120.508,185.217 121.5,189.5C 123.167,190.333 124.833,191.167 126.5,192C 131.167,192.333 135.833,192.667 140.5,193C 139.62,194.356 139.286,195.856 139.5,197.5C 133.824,197.666 128.157,197.499 122.5,197C 121.667,196.167 120.833,195.333 120,194.5C 119.181,188.319 119.347,182.319 120.5,176.5 Z"/></g>
<g><path style="opacity:1" fill="#38639d" d="M 243.5,168.5 C 243.832,178.522 243.499,188.522 242.5,198.5C 240.352,199.758 238.185,199.758 236,198.5C 234.433,199.856 232.6,200.523 230.5,200.5C 222.245,199.697 213.911,199.197 205.5,199C 204.956,198.283 204.289,197.783 203.5,197.5C 203.827,187.319 203.494,177.319 202.5,167.5C 203.429,166.685 204.429,165.852 205.5,165C 217.167,164.333 228.833,164.333 240.5,165C 242.426,165.422 243.426,166.589 243.5,168.5 Z"/></g>
<g><path style="opacity:1" fill="#e2eef6" d="M 218.5,167.5 C 219.675,167.281 220.675,167.614 221.5,168.5C 220.68,170.111 219.346,170.778 217.5,170.5C 217.144,173.564 217.977,176.231 220,178.5C 226.223,175.077 231.556,176.077 236,181.5C 237.167,192.333 232.333,197.167 221.5,196C 214.843,191.737 213.843,186.403 218.5,180C 214.688,175.525 214.688,171.359 218.5,167.5 Z"/></g>
<g><path style="opacity:1" fill="#416da5" d="M 224.5,177.5 C 233.683,178.19 236.517,182.856 233,191.5C 228.609,196.269 223.943,196.603 219,192.5C 215.816,185.551 217.65,180.551 224.5,177.5 Z"/></g>
<g><path style="opacity:1" fill="#d9e5ef" d="M 230.5,185.5 C 231.675,185.281 232.675,185.614 233.5,186.5C 231.948,187.798 230.948,187.465 230.5,185.5 Z"/></g>
<g><path style="opacity:1" fill="#656566" d="M 28.5,198.5 C 29.8917,197.478 31.225,197.811 32.5,199.5C 31.7579,200.287 30.9246,200.953 30,201.5C 29.7679,200.263 29.2679,199.263 28.5,198.5 Z"/></g>
<g><path style="opacity:1" fill="#c8b1ad" d="M 141.5,199.5 C 143.176,200.183 143.843,201.517 143.5,203.5C 141.167,203.5 138.833,203.5 136.5,203.5C 136.5,202.5 136.5,201.5 136.5,200.5C 138.415,200.784 140.081,200.451 141.5,199.5 Z"/></g>
<g><path style="opacity:1" fill="#f1b057" d="M 136.5,200.5 C 136.5,201.5 136.5,202.5 136.5,203.5C 133.287,203.81 130.287,203.477 127.5,202.5C 130.246,200.874 133.246,200.207 136.5,200.5 Z"/></g>
<g><path style="opacity:1" fill="#5d493a" d="M 127.5,202.5 C 130.287,203.477 133.287,203.81 136.5,203.5C 138.833,203.5 141.167,203.5 143.5,203.5C 138.025,204.489 132.358,204.822 126.5,204.5C 126.328,203.508 126.662,202.842 127.5,202.5 Z"/></g>
<g><path style="opacity:1" fill="#4d7ba9" d="M 163.5,186.5 C 164.458,186.953 165.292,187.619 166,188.5C 166.667,194.167 166.667,199.833 166,205.5C 165.5,206 165,206.5 164.5,207C 158.833,207.667 153.167,207.667 147.5,207C 147,206.5 146.5,206 146,205.5C 145.181,199.319 145.347,193.319 146.5,187.5C 146.5,191.833 146.5,196.167 146.5,200.5C 147.833,200.5 149.167,200.5 150.5,200.5C 150.343,201.873 150.51,203.207 151,204.5C 154.099,203.26 157.266,202.26 160.5,201.5C 160.5,200.5 160.5,199.5 160.5,198.5C 159.5,198.5 158.5,198.5 157.5,198.5C 157.5,197.5 157.5,196.5 157.5,195.5C 158.5,195.5 159.5,195.5 160.5,195.5C 160.5,194.167 160.5,192.833 160.5,191.5C 161.89,190.101 162.89,188.434 163.5,186.5 Z"/></g>
<g><path style="opacity:1" fill="#eef5f9" d="M 160.5,191.5 C 160.5,192.833 160.5,194.167 160.5,195.5C 159.5,195.5 158.5,195.5 157.5,195.5C 157.5,196.5 157.5,197.5 157.5,198.5C 158.5,198.5 159.5,198.5 160.5,198.5C 160.5,199.5 160.5,200.5 160.5,201.5C 157.266,202.26 154.099,203.26 151,204.5C 150.51,203.207 150.343,201.873 150.5,200.5C 151.828,198.01 152.828,195.344 153.5,192.5C 155.743,191.526 158.076,191.192 160.5,191.5 Z"/></g>
<g><path style="opacity:1" fill="#dadee7" d="M 291.5,30.5 C 291.5,113.833 291.5,197.167 291.5,280.5C 271.167,280.5 250.833,280.5 230.5,280.5C 210.194,278.512 189.527,277.845 168.5,278.5C 168.5,278.167 168.5,277.833 168.5,277.5C 169.833,277.5 171.167,277.5 172.5,277.5C 185.019,272.479 190.353,263.146 188.5,249.5C 189.822,249.67 190.989,249.337 192,248.5C 192.036,246.059 192.869,244.059 194.5,242.5C 196.652,248.124 200.652,249.957 206.5,248C 204.5,246 202.5,244 200.5,242C 206.325,241.851 211.992,240.851 217.5,239C 218.167,238.333 218.833,237.667 219.5,237C 218.315,235.647 216.981,234.48 215.5,233.5C 216.953,233.94 218.119,233.274 219,231.5C 219.499,227.514 219.666,223.514 219.5,219.5C 220.338,219.158 220.672,218.492 220.5,217.5C 221.166,222.017 221.833,226.683 222.5,231.5C 223.498,221.856 223.832,212.19 223.5,202.5C 216.978,202.823 210.645,202.49 204.5,201.5C 212.507,201.334 220.507,201.5 228.5,202C 235.759,209.104 244.425,211.438 254.5,209C 251.089,208.883 248.589,207.383 247,204.5C 246.5,192.171 246.333,179.838 246.5,167.5C 246.833,167.5 247.167,167.5 247.5,167.5C 247.423,173.173 247.757,178.506 248.5,183.5C 249.224,187.365 249.891,191.365 250.5,195.5C 253.01,197.511 255.343,199.678 257.5,202C 259.473,202.495 261.473,202.662 263.5,202.5C 266.187,202.664 268.854,202.497 271.5,202C 271.167,201.667 270.833,201.333 270.5,201C 274.946,199.971 277.446,197.138 278,192.5C 278.483,193.448 278.649,194.448 278.5,195.5C 282.554,195.79 283.054,195.123 280,193.5C 279.333,188.833 279.333,184.167 280,179.5C 281,178.167 282,178.167 283,179.5C 283.762,175.413 283.596,171.413 282.5,167.5C 283.5,167.5 284.5,167.5 285.5,167.5C 285.5,166.167 285.5,164.833 285.5,163.5C 284.178,163.33 283.011,163.663 282,164.5C 281.5,155.84 281.334,147.173 281.5,138.5C 283.554,138.635 285.221,137.968 286.5,136.5C 287.649,136.209 288.316,135.376 288.5,134C 287.101,126.401 282.768,122.901 275.5,123.5C 280.331,123.899 283.664,126.232 285.5,130.5C 284.127,130.657 282.793,130.49 281.5,130C 278.961,126.719 275.628,125.719 271.5,127C 269.109,129.833 267.276,133 266,136.5C 264.88,127.075 264.213,117.742 264,108.5C 261.586,105.52 258.752,104.853 255.5,106.5C 249.974,106.821 244.64,106.488 239.5,105.5C 244.511,105.666 249.511,105.499 254.5,105C 251.349,105.012 248.682,104.012 246.5,102C 247.149,98.4168 247.483,94.7501 247.5,91C 249.734,79.411 245.067,73.911 233.5,74.5C 233.5,73.5 233.5,72.5 233.5,71.5C 228.519,70.9108 223.519,70.4108 218.5,70C 217.648,67.5832 216.981,65.0832 216.5,62.5C 216.453,60.9996 217.119,59.9996 218.5,59.5C 219.972,62.8054 222.305,65.3054 225.5,67C 233.978,67.3928 242.311,67.5595 250.5,67.5C 251.884,68.8009 253.384,68.8009 255,67.5C 255.316,64.3588 256.483,61.6922 258.5,59.5C 259.255,53.6341 260.088,47.6341 261,41.5C 261.333,41.8333 261.667,42.1667 262,42.5C 263.487,41.7471 263.654,40.9138 262.5,40C 264.744,36.8673 267.744,35.8673 271.5,37C 270.833,37.3333 270.167,37.6667 269.5,38C 271.954,38.5903 273.621,39.4236 274.5,40.5C 274.5,39.1667 274.5,37.8333 274.5,36.5C 275.833,36.5 277.167,36.5 278.5,36.5C 278.5,34.5 278.5,32.5 278.5,30.5C 282.833,30.5 287.167,30.5 291.5,30.5 Z"/></g>
<g><path style="opacity:1" fill="#d8bc76" d="M 258.5,195.5 C 260.346,195.222 261.68,195.889 262.5,197.5C 261.311,198.429 259.978,198.762 258.5,198.5C 258.5,197.5 258.5,196.5 258.5,195.5 Z"/></g>
<g><path style="opacity:1" fill="#e59c51" d="M 262.5,189.5 C 265.95,188.756 267.616,190.09 267.5,193.5C 265.5,193.5 263.5,193.5 261.5,193.5C 261.433,192.041 261.766,190.708 262.5,189.5 Z"/></g>
<g><path style="opacity:1" fill="#fde7e4" d="M 252.5,170.5 C 254.871,171.342 257.204,171.676 259.5,171.5C 256.7,175.284 254.367,174.951 252.5,170.5 Z"/></g>
<g><path style="opacity:1" fill="#87abbb" d="M 286.5,136.5 C 286.795,134.265 286.461,132.265 285.5,130.5C 283.664,126.232 280.331,123.899 275.5,123.5C 282.768,122.901 287.101,126.401 288.5,134C 288.316,135.376 287.649,136.209 286.5,136.5 Z"/></g>
<g><path style="opacity:1" fill="#f3f0ee" d="M 263.5,97.5 C 265.124,97.6399 266.29,96.9733 267,95.5C 267.667,93.1667 267.667,90.8333 267,88.5C 263.333,87.1667 259.667,87.1667 256,88.5C 255.502,91.4816 255.335,94.4816 255.5,97.5C 254.034,96.653 253.2,95.3197 253,93.5C 252.692,94.3081 252.192,94.9747 251.5,95.5C 248.991,85.833 252.824,81.4997 263,82.5C 269.168,82.0878 273.501,84.7545 276,90.5C 276.226,94.8874 276.726,99.2207 277.5,103.5C 275.389,104.848 273.555,104.515 272,102.5C 271.355,103.646 270.522,104.646 269.5,105.5C 269.222,110.177 267.389,110.51 264,106.5C 263.383,105.551 263.549,104.718 264.5,104C 260.701,102.447 260.701,101.114 264.5,100C 263.5,99.6667 262.5,99.3333 261.5,99C 262.416,98.7216 263.082,98.2216 263.5,97.5 Z"/></g>
<g><path style="opacity:1" fill="#69acc2" d="M 263.5,97.5 C 262.127,97.6567 260.793,97.49 259.5,97C 267.471,92.6922 267.138,90.5255 258.5,90.5C 258.67,91.8221 258.337,92.9887 257.5,94C 259.167,93.6667 260.833,93.3333 262.5,93C 260.449,95.0202 258.116,96.5202 255.5,97.5C 255.335,94.4816 255.502,91.4816 256,88.5C 259.667,87.1667 263.333,87.1667 267,88.5C 267.667,90.8333 267.667,93.1667 267,95.5C 266.29,96.9733 265.124,97.6399 263.5,97.5 Z"/></g>
<g><path style="opacity:1" fill="#a65776" d="M 114.5,187.5 C 114.221,196.535 114.555,205.535 115.5,214.5C 115.124,216.803 114.124,217.137 112.5,215.5C 112.5,214.167 112.5,212.833 112.5,211.5C 113.167,203.5 113.833,195.5 114.5,187.5 Z"/></g>
<g><path style="opacity:1" fill="#dbdee7" d="M 25.5,60.5 C 29.693,63.1974 34.3597,64.1974 39.5,63.5C 39.5,71.5 39.5,79.5 39.5,87.5C 34.7863,87.1734 30.1196,87.5067 25.5,88.5C 25.2907,89.086 24.9574,89.586 24.5,90C 19.0159,90.2773 14.5159,92.444 11,96.5C 9.45425,107.45 9.12092,118.45 10,129.5C 10.3076,130.308 10.8076,130.975 11.5,131.5C 17.4779,132.128 23.4779,132.794 29.5,133.5C 27.7018,136.289 27.2018,139.289 28,142.5C 32.32,143.253 35.6533,141.587 38,137.5C 38.2321,138.737 38.7321,139.737 39.5,140.5C 39.5,146.5 39.5,152.5 39.5,158.5C 36.3019,157.964 33.6353,158.631 31.5,160.5C 27.6002,159.57 23.6002,159.237 19.5,159.5C 19.5824,157.748 18.7491,156.748 17,156.5C 14.0362,156.883 11.3695,157.883 9,159.5C 8.33333,165.5 8.33333,171.5 9,177.5C 9.5,178 10,178.5 10.5,179C 14.8333,179.333 19.1667,179.667 23.5,180C 22.4829,181.049 22.3162,182.216 23,183.5C 28.2592,186.27 28.0926,189.27 22.5,192.5C 21.7611,192.631 21.0944,192.464 20.5,192C 21.428,191.612 22.0946,190.945 22.5,190C 22.062,188.08 21.3953,186.246 20.5,184.5C 18.2262,184.03 16.2262,183.03 14.5,181.5C 13.1934,182.816 11.6934,183.816 10,184.5C 8.47958,188.375 8.14625,192.375 9,196.5C 12.2688,197.818 15.4355,197.818 18.5,196.5C 19.0431,196.56 19.3764,196.893 19.5,197.5C 16.9135,198.48 14.2469,198.813 11.5,198.5C 11.2619,202.099 12.2619,202.433 14.5,199.5C 14.8093,205.308 17.476,209.475 22.5,212C 28.1569,212.499 33.8236,212.666 39.5,212.5C 39.1703,228.675 39.5036,244.675 40.5,260.5C 40.8333,262.5 41.1667,264.5 41.5,266.5C 41.3893,267.117 41.056,267.617 40.5,268C 26.8374,268.5 13.1707,268.667 -0.5,268.5C -0.5,221.5 -0.5,174.5 -0.5,127.5C 0.5,127.5 1.5,127.5 2.5,127.5C 2.41727,121.09 1.7506,114.756 0.5,108.5C 2.99134,107.459 2.99134,106.626 0.5,106C 1.52304,103.226 1.52304,100.393 0.5,97.5C 1.83333,97.5 3.16667,97.5 4.5,97.5C 4.33349,108.505 4.50015,119.505 5,130.5C 5.33333,120.167 5.66667,109.833 6,99.5C 6.47093,97.7536 7.13759,96.087 8,94.5C 10.4196,92.2852 12.2529,90.2852 13.5,88.5C 13.5299,87.5028 13.0299,86.8361 12,86.5C 6.79308,88.0451 6.29308,86.7118 10.5,82.5C 11.451,83.3256 12.451,83.4922 13.5,83C 13.1667,82.6667 12.8333,82.3333 12.5,82C 15.5386,80.2948 17.8719,77.9615 19.5,75C 18.5819,72.9135 17.9153,70.7468 17.5,68.5C 18.5,68.5 19.5,68.5 20.5,68.5C 19.342,63.8907 21.0086,61.2241 25.5,60.5 Z"/></g>
<g><path style="opacity:1" fill="#363548" d="M 184.5,142.5 C 184.833,142.5 185.167,142.5 185.5,142.5C 185.5,150.5 185.5,158.5 185.5,166.5C 185.175,173.687 185.509,180.687 186.5,187.5C 186.831,211.672 186.498,235.672 185.5,259.5C 185.819,254.637 185.486,249.97 184.5,245.5C 184.5,211.167 184.5,176.833 184.5,142.5 Z"/></g>
<g><path style="opacity:1" fill="#ea605f" d="M 66.5,194.5 C 67.8333,196.5 69.5,198.167 71.5,199.5C 79.3433,200.167 87.3433,200.833 95.5,201.5C 93.6091,202.311 92.2758,203.644 91.5,205.5C 89.0312,206.168 86.6979,206.835 84.5,207.5C 83.5178,208.141 82.5178,208.807 81.5,209.5C 80.5033,216.134 80.17,222.8 80.5,229.5C 78.5,229.5 76.5,229.5 74.5,229.5C 74.6657,225.154 74.499,220.821 74,216.5C 72.8333,215.333 71.6667,214.167 70.5,213C 64.8333,212.333 59.1667,212.333 53.5,213C 52.2899,214.039 51.2899,215.206 50.5,216.5C 49.8333,216.5 49.5,216.167 49.5,215.5C 49.2207,210.673 49.8874,206.007 51.5,201.5C 54.8166,195.934 59.8166,193.6 66.5,194.5 Z"/></g>
<g><path style="opacity:1" fill="#b05d7d" d="M 51.5,201.5 C 49.8874,206.007 49.2207,210.673 49.5,215.5C 48.3592,212.36 48.1925,209.027 49,205.5C 49.2004,203.68 50.0337,202.347 51.5,201.5 Z"/></g>
<g><path style="opacity:1" fill="#409cb4" d="M 156.5,209.5 C 156.666,217.507 156.5,225.507 156,233.5C 155.056,236.602 153.889,239.602 152.5,242.5C 150.5,242.5 148.5,242.5 146.5,242.5C 147.162,238.843 147.829,235.176 148.5,231.5C 148.489,229.955 148.156,228.622 147.5,227.5C 147.5,221.5 147.5,215.5 147.5,209.5C 150.5,209.5 153.5,209.5 156.5,209.5 Z"/></g>
<g><path style="opacity:1" fill="#35353e" d="M 220.5,217.5 C 220.672,218.492 220.338,219.158 219.5,219.5C 218.903,219.265 218.57,218.765 218.5,218C 219.031,216.282 219.698,216.115 220.5,217.5 Z"/></g>
<g><path style="opacity:1" fill="#160f1d" d="M 84.5,207.5 C 92.5069,207.334 100.507,207.5 108.5,208C 110.35,208.69 111.684,209.856 112.5,211.5C 112.5,212.833 112.5,214.167 112.5,215.5C 112.666,221.509 112.499,227.509 112,233.5C 110.786,235.049 109.286,236.215 107.5,237C 100.5,237.667 93.5,237.667 86.5,237C 83.1828,235.52 81.1828,233.02 80.5,229.5C 80.17,222.8 80.5033,216.134 81.5,209.5C 82.5178,208.807 83.5178,208.141 84.5,207.5 Z"/></g>
<g><path style="opacity:1" fill="#0d0b15" d="M 42.5,241.5 C 43.1667,242.833 43.8333,242.833 44.5,241.5C 44.8333,241.5 45.1667,241.5 45.5,241.5C 46.1667,241.833 46.8333,242.167 47.5,242.5C 70.8357,242.333 94.169,242.5 117.5,243C 116.944,243.383 116.611,243.883 116.5,244.5C 93.5,244.5 70.5,244.5 47.5,244.5C 47.5,249.5 47.5,254.5 47.5,259.5C 46.8333,259.5 46.1667,259.5 45.5,259.5C 45.5,254.5 45.5,249.5 45.5,244.5C 44.5,244.5 43.5,244.5 42.5,244.5C 42.161,251.574 42.661,258.574 44,265.5C 45.8198,270.488 49.3198,273.488 54.5,274.5C 92.9964,275.499 131.663,275.832 170.5,275.5C 171.833,275.5 172.5,276.167 172.5,277.5C 171.167,277.5 169.833,277.5 168.5,277.5C 131.5,277.5 94.5,277.5 57.5,277.5C 50.054,276.786 44.7207,273.12 41.5,266.5C 41.1667,264.5 40.8333,262.5 40.5,260.5C 40.3333,209.832 40.5,159.166 41,108.5C 41.1673,153.002 41.6673,197.335 42.5,241.5 Z"/></g>
<g><path style="opacity:1" fill="#5db1d4" d="M 121.5,206.5 C 128.841,206.334 136.174,206.5 143.5,207C 144,207.5 144.5,208 145,208.5C 145.667,214.833 145.667,221.167 145,227.5C 144.167,228.333 143.333,229.167 142.5,230C 136.167,230.667 129.833,230.667 123.5,230C 122.667,229.167 121.833,228.333 121,227.5C 120.205,220.42 120.372,213.42 121.5,206.5 Z"/></g>
<g><path style="opacity:1" fill="#bae6f2" d="M 127.5,211.5 C 129.527,211.338 131.527,211.505 133.5,212C 128.039,211.788 125.872,214.288 127,219.5C 127.005,215.308 128.839,213.642 132.5,214.5C 131.372,215.262 130.205,215.929 129,216.5C 129.057,219.965 130.891,221.131 134.5,220C 135.731,214.013 136.565,214.18 137,220.5C 138.324,212.5 138.991,212.5 139,220.5C 137.028,223.889 134.028,225.222 130,224.5C 128.167,224.333 126.333,224.167 124.5,224C 128.358,223.921 132.024,223.254 135.5,222C 132.183,221.502 128.85,221.335 125.5,221.5C 123.875,217.709 124.541,214.376 127.5,211.5 Z"/></g>
<g><path style="opacity:1" fill="#685d91" d="M 168.5,204.5 C 171.447,205.781 173.781,207.781 175.5,210.5C 175.833,211.5 176.5,212.167 177.5,212.5C 177.5,222.5 177.5,232.5 177.5,242.5C 169.167,242.5 160.833,242.5 152.5,242.5C 153.889,239.602 155.056,236.602 156,233.5C 156.5,225.507 156.666,217.507 156.5,209.5C 159.518,209.665 162.518,209.498 165.5,209C 167.141,207.871 168.141,206.371 168.5,204.5 Z"/></g>
<g><path style="opacity:1" fill="#515388" d="M 84.5,209.5 C 92.1739,209.334 99.8406,209.5 107.5,210C 108.333,210.833 109.167,211.667 110,212.5C 110.667,219.167 110.667,225.833 110,232.5C 109.097,233.701 107.931,234.535 106.5,235C 99.8333,235.667 93.1667,235.667 86.5,235C 85.6667,234.167 84.8333,233.333 84,232.5C 83.2019,224.754 83.3686,217.087 84.5,209.5 Z"/></g>
<g><path style="opacity:1" fill="#898eb8" d="M 93.5,227.5 C 91.8333,227.5 90.1667,227.5 88.5,227.5C 87.0008,214.668 92.6674,209.334 105.5,211.5C 105.666,216.179 105.499,220.845 105,225.5C 101.34,228.193 97.5063,228.86 93.5,227.5 Z"/></g>
<g><path style="opacity:1" fill="#f8fafb" d="M 93.5,227.5 C 93.1046,223.815 92.9379,220.148 93,216.5C 94.4936,215.253 95.9936,215.253 97.5,216.5C 94.8333,217.833 94.8333,219.167 97.5,220.5C 96.4174,223.138 95.0841,225.471 93.5,227.5 Z"/></g>
<g><path style="opacity:1" fill="#707176" d="M 206.5,226.5 C 209.572,226.183 212.572,226.516 215.5,227.5C 212.625,228.081 209.958,229.081 207.5,230.5C 205.358,229.563 205.024,228.23 206.5,226.5 Z"/></g>
<g><path style="opacity:1" fill="#7e7d7d" d="M 200.5,230.5 C 202.912,230.694 203.912,232.027 203.5,234.5C 200.046,234.733 199.046,233.4 200.5,230.5 Z"/></g>
<g><path style="opacity:1" fill="#1b0e1b" d="M 74.5,229.5 C 74.6734,233.17 73.0067,235.67 69.5,237C 64.1667,237.667 58.8333,237.667 53.5,237C 52.6667,236.167 51.8333,235.333 51,234.5C 50.5005,228.509 50.3338,222.509 50.5,216.5C 51.2899,215.206 52.2899,214.039 53.5,213C 59.1667,212.333 64.8333,212.333 70.5,213C 71.6667,214.167 72.8333,215.333 74,216.5C 74.499,220.821 74.6657,225.154 74.5,229.5 Z"/></g>
<g><path style="opacity:1" fill="#c05666" d="M 52.5,219.5 C 53.5,220.167 54.5,220.833 55.5,221.5C 55.5,222.833 55.5,224.167 55.5,225.5C 55.5,226.5 55.5,227.5 55.5,228.5C 57.5273,228.338 59.5273,228.505 61.5,229C 60.376,229.249 59.376,229.749 58.5,230.5C 59.2458,231.736 59.5792,233.07 59.5,234.5C 57.2075,234.756 55.0408,234.423 53,233.5C 52.5008,228.845 52.3342,224.179 52.5,219.5 Z"/></g>
<g><path style="opacity:1" fill="#9c4e70" d="M 71.5,217.5 C 71.666,222.844 71.4994,228.177 71,233.5C 67.27,234.46 63.4367,234.793 59.5,234.5C 59.5792,233.07 59.2458,231.736 58.5,230.5C 59.376,229.749 60.376,229.249 61.5,229C 59.5273,228.505 57.5273,228.338 55.5,228.5C 55.5,227.5 55.5,226.5 55.5,225.5C 55.8333,225.5 56.1667,225.5 56.5,225.5C 59.6248,226.479 62.9581,226.813 66.5,226.5C 67.3171,224.031 67.8171,221.365 68,218.5C 69.0113,217.663 70.1779,217.33 71.5,217.5 Z"/></g>
<g><path style="opacity:1" fill="#dfd5e8" d="M 66.5,226.5 C 62.9581,226.813 59.6248,226.479 56.5,225.5C 56.1667,225.5 55.8333,225.5 55.5,225.5C 55.5,224.167 55.5,222.833 55.5,221.5C 55.5,219.833 55.5,218.167 55.5,216.5C 59.1667,216.5 62.8333,216.5 66.5,216.5C 66.5,219.833 66.5,223.167 66.5,226.5 Z"/></g>
<g><path style="opacity:1" fill="#aa8ea5" d="M 64.5,225.5 C 64.5,223.833 64.5,222.167 64.5,220.5C 62.1667,220.5 59.8333,220.5 57.5,220.5C 57.5,222.167 57.5,223.833 57.5,225.5C 57.1667,225.5 56.8333,225.5 56.5,225.5C 56.5,222.833 56.5,220.167 56.5,217.5C 64.4996,215.495 67.1663,218.161 64.5,225.5 Z"/></g>
<g><path style="opacity:1" fill="#c36c7a" d="M 64.5,225.5 C 62.1667,225.5 59.8333,225.5 57.5,225.5C 57.5,223.833 57.5,222.167 57.5,220.5C 59.8333,220.5 62.1667,220.5 64.5,220.5C 64.5,222.167 64.5,223.833 64.5,225.5 Z"/></g>
<g><path style="opacity:1" fill="#725c80" d="M 71.5,217.5 C 70.1779,217.33 69.0113,217.663 68,218.5C 67.8171,221.365 67.3171,224.031 66.5,226.5C 66.5,223.167 66.5,219.833 66.5,216.5C 62.8333,216.5 59.1667,216.5 55.5,216.5C 55.5,218.167 55.5,219.833 55.5,221.5C 54.5,220.833 53.5,220.167 52.5,219.5C 52.2965,217.61 52.9632,216.11 54.5,215C 59.5,214.333 64.5,214.333 69.5,215C 70.3805,215.708 71.0472,216.542 71.5,217.5 Z"/></g>
<g><path style="opacity:1" fill="#332c4e" d="M 47.5,242.5 C 47.5,242.167 47.5,241.833 47.5,241.5C 73.8484,241.242 100.182,241.575 126.5,242.5C 126.389,243.117 126.056,243.617 125.5,244C 122.518,244.498 119.518,244.665 116.5,244.5C 116.611,243.883 116.944,243.383 117.5,243C 94.169,242.5 70.8357,242.333 47.5,242.5 Z"/></g>
<g><path style="opacity:1" fill="#0e0913" d="M 177.5,142.5 C 179.833,142.5 182.167,142.5 184.5,142.5C 184.5,176.833 184.5,211.167 184.5,245.5C 184.666,250.844 184.499,256.177 184,261.5C 182.474,267.026 178.974,270.526 173.5,272C 134.835,272.5 96.1681,272.667 57.5,272.5C 94.5,271.833 131.5,271.167 168.5,270.5C 175.956,269.88 180.456,265.88 182,258.5C 182.499,253.845 182.666,249.179 182.5,244.5C 170.42,244.812 158.42,244.479 146.5,243.5C 146.5,243.167 146.5,242.833 146.5,242.5C 148.5,242.5 150.5,242.5 152.5,242.5C 160.833,242.5 169.167,242.5 177.5,242.5C 177.5,232.5 177.5,222.5 177.5,212.5C 177.5,197.833 177.5,183.167 177.5,168.5C 178.815,159.932 178.815,151.265 177.5,142.5 Z"/></g>
<g><path style="opacity:1" fill="#b6b4bb" d="M 182.5,145.5 C 181.167,161.152 180.501,177.152 180.5,193.5C 180.501,209.848 181.167,225.848 182.5,241.5C 181.791,242.404 180.791,242.737 179.5,242.5C 179.5,209.833 179.5,177.167 179.5,144.5C 180.791,144.263 181.791,144.596 182.5,145.5 Z"/></g>
<g><path style="opacity:1" fill="#ececef" d="M 182.5,145.5 C 182.5,177.5 182.5,209.5 182.5,241.5C 181.167,225.848 180.501,209.848 180.5,193.5C 180.501,177.152 181.167,161.152 182.5,145.5 Z"/></g>
<g><path style="opacity:1" fill="#f1f1f0" d="M 126.5,242.5 C 133.131,243.331 139.798,243.664 146.5,243.5C 158.42,244.479 170.42,244.812 182.5,244.5C 182.666,249.179 182.499,253.845 182,258.5C 180.456,265.88 175.956,269.88 168.5,270.5C 130.499,270.667 92.4985,270.5 54.5,270C 50.3008,267.774 47.9675,264.274 47.5,259.5C 47.5,254.5 47.5,249.5 47.5,244.5C 70.5,244.5 93.5,244.5 116.5,244.5C 119.518,244.665 122.518,244.498 125.5,244C 126.056,243.617 126.389,243.117 126.5,242.5 Z"/></g>
<g><path style="opacity:1" fill="#1d1d28" d="M 188.5,200.5 C 188.5,216.833 188.5,233.167 188.5,249.5C 190.353,263.146 185.019,272.479 172.5,277.5C 172.5,276.167 171.833,275.5 170.5,275.5C 178.877,273.453 183.877,268.12 185.5,259.5C 186.498,235.672 186.831,211.672 186.5,187.5C 186.334,182.821 186.501,178.155 187,173.5C 187.17,182.676 187.67,191.676 188.5,200.5 Z"/></g>
<g><path style="opacity:1" fill="#0f101a" d="M 109.5,249.5 C 118.211,248.38 122.044,252.047 121,260.5C 116.947,265.008 112.28,265.674 107,262.5C 105.888,260.61 105.054,258.61 104.5,256.5C 105.769,253.895 107.436,251.562 109.5,249.5 Z"/></g>
<g><path style="opacity:1" fill="#cbcdd9" d="M 41.5,266.5 C 44.7207,273.12 50.054,276.786 57.5,277.5C 50.6787,278.329 43.6787,278.829 36.5,279C 41.8229,279.499 47.1563,279.666 52.5,279.5C 52.5,279.833 52.5,280.167 52.5,280.5C 34.8333,280.5 17.1667,280.5 -0.5,280.5C -0.5,276.5 -0.5,272.5 -0.5,268.5C 13.1707,268.667 26.8374,268.5 40.5,268C 41.056,267.617 41.3893,267.117 41.5,266.5 Z"/></g>
<g><path style="opacity:1" fill="#e8e8e9" d="M 45.5,259.5 C 46.1199,267.115 50.1199,271.449 57.5,272.5C 94.3311,273.333 131.331,273.833 168.5,274C 130.501,274.5 92.5015,274.667 54.5,274.5C 49.3198,273.488 45.8198,270.488 44,265.5C 42.661,258.574 42.161,251.574 42.5,244.5C 43.5,244.5 44.5,244.5 45.5,244.5C 45.5,249.5 45.5,254.5 45.5,259.5 Z"/></g>
<g><path style="opacity:1" fill="#212022" d="M 45.5,259.5 C 46.1667,259.5 46.8333,259.5 47.5,259.5C 47.9675,264.274 50.3008,267.774 54.5,270C 92.4985,270.5 130.499,270.667 168.5,270.5C 131.5,271.167 94.5,271.833 57.5,272.5C 50.1199,271.449 46.1199,267.115 45.5,259.5 Z"/></g>
<g><path style="opacity:1" fill="#b5b4b6" d="M 184.5,245.5 C 185.486,249.97 185.819,254.637 185.5,259.5C 183.877,268.12 178.877,273.453 170.5,275.5C 131.663,275.832 92.9964,275.499 54.5,274.5C 92.5015,274.667 130.501,274.5 168.5,274C 131.331,273.833 94.3311,273.333 57.5,272.5C 96.1681,272.667 134.835,272.5 173.5,272C 178.974,270.526 182.474,267.026 184,261.5C 184.499,256.177 184.666,250.844 184.5,245.5 Z"/></g>
<g><path style="opacity:1" fill="#262b41" d="M 57.5,277.5 C 94.5,277.5 131.5,277.5 168.5,277.5C 168.5,277.833 168.5,278.167 168.5,278.5C 130.004,279.499 91.3369,279.832 52.5,279.5C 47.1563,279.666 41.8229,279.499 36.5,279C 43.6787,278.829 50.6787,278.329 57.5,277.5 Z"/></g>
<g><path style="opacity:1" fill="#63646e" d="M 168.5,278.5 C 189.527,277.845 210.194,278.512 230.5,280.5C 171.167,280.5 111.833,280.5 52.5,280.5C 52.5,280.167 52.5,279.833 52.5,279.5C 91.3369,279.832 130.004,279.499 168.5,278.5 Z"/></g>
</svg>
