<?xml version="1.0" encoding="UTF-8"?>
<svg version="1.1" xmlns="http://www.w3.org/2000/svg" width="1044" height="993">
<path d="M0 0 C0.66 0 1.32 0 2 0 C5.00361753 9.1238118 8.00334624 18.24889893 11 27.375 C11.34085443 28.41303205 11.34085443 28.41303205 11.68859482 29.47203445 C17.80547733 48.10348194 23.86824018 66.75011574 29.8125 85.4375 C36.49190825 106.43296201 43.35881555 127.36430586 50.25445938 148.28944016 C56.90465264 168.47096237 63.49069613 188.66931238 69.92822266 208.91992188 C76.23564807 228.74796418 82.73599857 248.51081963 89.24881744 268.27206802 C96.50306696 290.28386231 103.68494904 312.31530198 110.68945312 334.40820312 C115.32154437 348.99071261 120.15972052 363.47916155 125 378 C322.01 378.495 322.01 378.495 523 379 C517.37868481 384.62131519 517.37868481 384.62131519 514.2421875 386.83984375 C513.19514648 387.58717773 513.19514648 387.58717773 512.12695312 388.34960938 C511.38380859 388.87361328 510.64066406 389.39761719 509.875 389.9375 C508.25718457 391.09156817 506.64001796 392.24654632 505.0234375 393.40234375 C504.19295898 393.99515137 503.36248047 394.58795898 502.50683594 395.19873047 C498.47657182 398.09464873 494.48883375 401.04741425 490.5 404 C482.12117809 410.19099462 473.68891357 416.3047523 465.23388672 422.39111328 C461.48640231 425.09012118 457.74338799 427.79531494 454 430.5 C449.51389621 433.74131453 445.02695169 436.98141954 440.53515625 440.21484375 C432.82537027 445.76804624 425.14242369 451.35437205 417.5 457 C407.64592179 464.27942622 397.71425666 471.44830324 387.77050781 478.60449219 C379.31406964 484.6923875 370.88111091 490.80868741 362.5 497 C354.12051542 503.19011119 345.68892637 509.30474309 337.23388672 515.39111328 C333.48640231 518.09012118 329.74338799 520.79531494 326 523.5 C321.51389621 526.74131453 317.02695169 529.98141954 312.53515625 533.21484375 C304.82537027 538.76804624 297.14242369 544.35437205 289.5 550 C279.64592179 557.27942622 269.71425666 564.44830324 259.77050781 571.60449219 C250.51954057 578.26437889 241.30580633 584.97023328 232.13867188 591.74511719 C225.71966416 596.4837147 219.26139815 601.16616591 212.78515625 605.82617188 C212.08390625 606.33083984 211.38265625 606.83550781 210.66015625 607.35546875 C209.69166748 608.050354 209.69166748 608.050354 208.70361328 608.75927734 C207.32173949 609.7656807 205.96692126 610.8091602 204.62109375 611.86328125 C203 613 203 613 201 613 C201.24306885 613.71873291 201.4861377 614.43746582 201.73657227 615.17797852 C210.16301496 640.15629419 218.27999111 665.23392309 226.38948059 690.31638718 C227.64872292 694.21100686 228.90823102 698.10554053 230.16796875 702 C230.41664452 702.76879738 230.66532028 703.53759476 230.92153168 704.32968903 C235.72269883 719.16965577 240.57283806 733.99322132 245.4375 748.8125 C251.27766971 766.60638083 257.02988232 784.42593423 262.71188354 802.27090454 C268.69573413 821.05121837 274.83444547 839.77879741 281 858.5 C288.18883618 880.32849249 295.30039901 902.17823146 302.26953125 924.078125 C305.65139522 934.69865712 309.06854057 945.30650393 312.5390625 955.8984375 C312.9142099 957.04369904 313.2893573 958.18896057 313.6758728 959.368927 C315.48798996 964.89742754 317.30453809 970.42443181 319.12646484 975.94970703 C319.7718611 977.9143712 320.41720888 979.87905129 321.0625 981.84375 C321.36161285 982.7462851 321.66072571 983.64882019 321.96890259 984.57870483 C322.2382663 985.40029083 322.50763 986.22187683 322.78515625 987.06835938 C323.02113525 987.78358765 323.25711426 988.49881592 323.50024414 989.23571777 C324 991 324 991 324 993 C319.11797915 991.42575911 315.56065429 988.59782131 311.5625 985.5 C310.12467633 984.40366356 308.68585731 983.30863138 307.24609375 982.21484375 C306.52921387 981.66940918 305.81233398 981.12397461 305.07373047 980.56201172 C302.12758692 978.34286568 299.13428093 976.19488105 296.125 974.0625 C294.97523294 973.24613244 293.825494 972.42972528 292.67578125 971.61328125 C292.08490723 971.19385254 291.4940332 970.77442383 290.88525391 970.34228516 C280.21558539 962.74556961 269.64366348 955.0158674 259.10888672 947.23364258 C250.7856412 941.09126792 242.39600805 935.04233081 234 929 C223.99449602 921.79936792 214.02311522 914.55749214 204.10791016 907.23291016 C196.5233116 901.63567826 188.8841167 896.11591373 181.23388672 890.60888672 C176.73476831 887.36853805 172.24175881 884.11972298 167.74755859 880.87255859 C164.012055 878.17401978 160.2751852 875.47742047 156.53515625 872.78515625 C148.02079319 866.65243321 139.54783798 860.46767211 131.10791016 854.23291016 C122.78497251 848.09080366 114.39567785 842.04209317 106 836 C95.99449602 828.79936792 86.02311522 821.55749214 76.10791016 814.23291016 C68.5233116 808.63567826 60.8841167 803.11591373 53.23388672 797.60888672 C49.48640211 794.90987868 45.74346279 792.20458184 42 789.5 C40.50522119 788.42055511 39.01042952 787.34112804 37.515625 786.26171875 C34.46281883 784.05698797 31.41082821 781.85113417 28.359375 779.64453125 C19.26073003 773.0664698 10.14511318 766.51332016 1 760 C-5.12447011 764.00435695 -11.07057415 768.19102852 -16.9375 772.5625 C-23.28616625 777.26634987 -29.65261519 781.94236993 -36.0625 786.5625 C-36.80113281 787.09504395 -37.53976562 787.62758789 -38.30078125 788.17626953 C-41.27617209 790.32018662 -44.25285582 792.46230491 -47.22949219 794.60449219 C-55.68593036 800.6923875 -64.11888909 806.80868741 -72.5 813 C-82.35407821 820.27942622 -92.28574334 827.44830324 -102.22949219 834.60449219 C-110.68593036 840.6923875 -119.11888909 846.80868741 -127.5 853 C-135.87948458 859.19011119 -144.31107363 865.30474309 -152.76611328 871.39111328 C-156.51359769 874.09012118 -160.25661201 876.79531494 -164 879.5 C-168.48610379 882.74131453 -172.97304831 885.98141954 -177.46484375 889.21484375 C-185.17462973 894.76804624 -192.85757631 900.35437205 -200.5 906 C-210.35407821 913.27942622 -220.28574334 920.44830324 -230.22949219 927.60449219 C-238.68593036 933.6923875 -247.11888909 939.80868741 -255.5 946 C-263.87948458 952.19011119 -272.31107363 958.30474309 -280.76611328 964.39111328 C-283.76332298 966.54975939 -286.757582 968.71247544 -289.75146484 970.87573242 C-291.23962608 971.95073098 -292.72822656 973.02512175 -294.21728516 974.09887695 C-298.16273102 976.94470843 -302.10002491 979.8010677 -306.02734375 982.671875 C-306.84912109 983.27064453 -307.67089844 983.86941406 -308.51757812 984.48632812 C-310.09798572 985.63815061 -311.67621427 986.79297057 -313.25195312 987.95117188 C-313.96158203 988.46744141 -314.67121094 988.98371094 -315.40234375 989.515625 C-316.33808228 990.20060059 -316.33808228 990.20060059 -317.29272461 990.89941406 C-319 992 -319 992 -322 993 C-320.59044715 986.0997471 -318.65550475 979.52534392 -316.4296875 972.84765625 C-315.90060036 971.24167068 -315.90060036 971.24167068 -315.36082458 969.60324097 C-314.60038782 967.29592637 -313.83809506 964.98922279 -313.0741272 962.68307495 C-311.22110413 957.08816481 -309.37975246 951.48942401 -307.53927803 945.89037514 C-307.11853564 944.61046062 -306.69765029 943.33059309 -306.27662468 942.05077171 C-302.53778455 930.68369249 -298.87676738 919.2929782 -295.2510376 907.88937378 C-288.22269348 885.78393575 -281.00610481 863.74331473 -273.7463913 841.71311188 C-267.07376352 821.46328994 -260.46512293 801.19659933 -254.00439453 780.87792969 C-248.11922688 762.37993788 -242.07211148 743.93721843 -236 725.5 C-227.7089862 700.32391228 -219.53828079 675.11263402 -211.50131226 649.85406494 C-208.85021961 641.52254374 -206.17866136 633.19769262 -203.5 624.875 C-203.13156982 623.72974854 -202.76313965 622.58449707 -202.38354492 621.40454102 C-201.5893529 618.9362565 -200.79488039 616.4680629 -200 614 C-211.22501278 605.51242222 -222.57193821 597.21154622 -234 589 C-244.00696582 581.80143369 -253.97691537 574.55746954 -263.89208984 567.23291016 C-271.4766884 561.63567826 -279.1158833 556.11591373 -286.76611328 550.60888672 C-291.26523169 547.36853805 -295.75824119 544.11972298 -300.25244141 540.87255859 C-303.987945 538.17401978 -307.7248148 535.47742047 -311.46484375 532.78515625 C-319.97920681 526.65243321 -328.45216202 520.46767211 -336.89208984 514.23291016 C-345.21502749 508.09080366 -353.60432215 502.04209317 -362 496 C-372.00550398 488.79936792 -381.97688478 481.55749214 -391.89208984 474.23291016 C-399.4766884 468.63567826 -407.1158833 463.11591373 -414.76611328 457.60888672 C-419.26523169 454.36853805 -423.75824119 451.11972298 -428.25244141 447.87255859 C-431.987945 445.17401978 -435.7248148 442.47742047 -439.46484375 439.78515625 C-447.97920681 433.65243321 -456.45216202 427.46767211 -464.89208984 421.23291016 C-473.98889017 414.5197136 -483.16486728 407.91724891 -492.34228516 401.31494141 C-507.92268014 390.10336253 -507.92268014 390.10336253 -515.0625 384.8125 C-516.00222656 384.11769531 -516.94195313 383.42289062 -517.91015625 382.70703125 C-520 381 -520 381 -521 379 C-389.66 378.67 -258.32 378.34 -123 378 C-116.4 357.54 -109.8 337.08 -103 316 C-96.74204298 296.85302583 -96.74204298 296.85302583 -93.86117554 288.11965942 C-87.21859425 267.97591444 -80.67287016 247.80334773 -74.24206543 227.59094238 C-67.87315689 207.5877613 -61.31577964 187.64823896 -54.74554062 167.71055984 C-48.41505121 148.49925159 -42.12826231 129.27703056 -36 110 C-29.39624181 89.22935338 -22.62229639 68.51629622 -15.8125 47.8125 C-15.55980347 47.0440979 -15.30710693 46.2756958 -15.04675293 45.48400879 C-13.35131912 40.3288073 -11.65469368 35.17399924 -9.95703125 30.01953125 C-9.7406431 29.36241465 -9.52425495 28.70529804 -9.30130959 28.02826881 C-6.22170467 18.67852071 -3.11820785 9.33692615 0 0 Z " fill="#E8B330" transform="translate(521,0)"/>
<path d="M0 0 C50.65978697 -0.32042811 101.31947157 -0.5671265 151.98007255 -0.71491461 C157.96067502 -0.73242455 163.9412755 -0.75054506 169.921875 -0.76904297 C171.11250719 -0.77271531 172.30313938 -0.77638766 173.52985133 -0.78017129 C192.80982114 -0.84109393 212.08920667 -0.95147943 231.36882983 -1.08013915 C251.15083875 -1.21105066 270.93254162 -1.28882053 290.71496594 -1.31723893 C302.92266928 -1.33645151 315.12872125 -1.39713159 327.33591624 -1.51083054 C335.70637199 -1.58482333 344.07597385 -1.60720483 352.44673292 -1.58901928 C357.27733996 -1.58004861 362.10506182 -1.59381083 366.93515587 -1.66887665 C371.3609537 -1.73715623 375.7819364 -1.74037906 380.20795883 -1.69258453 C381.80580085 -1.68668153 383.40394658 -1.70434518 385.00119303 -1.74836455 C396.61063779 -2.04962487 396.61063779 -2.04962487 400.60811797 1.37946376 C404.0321629 5.2210104 406.49281718 9.52815029 409 14 C410.08540864 15.56249692 411.18823021 17.11351541 412.328125 18.63671875 C412.81023437 19.30574219 413.29234375 19.97476562 413.7890625 20.6640625 C414.51222656 21.66566406 414.51222656 21.66566406 415.25 22.6875 C415.78882813 23.43386719 416.32765625 24.18023437 416.8828125 24.94921875 C421.47113581 31.29252286 426.11470405 37.59418264 430.76635742 43.89111328 C437.45240175 52.95106021 444.02736019 62.09036112 450.60449219 71.22949219 C456.6923875 79.68593036 462.80868741 88.11888909 469 96.5 C475.19011119 104.87948458 481.30474309 113.31107363 487.39111328 121.76611328 C489.54938874 124.76280834 491.71176779 127.75652894 493.87451172 130.75 C494.95329405 132.24324992 496.03174764 133.73673741 497.10986328 135.23046875 C499.9001677 139.09617659 502.69477963 142.95866765 505.49609375 146.81640625 C506.07230469 147.61111328 506.64851563 148.40582031 507.2421875 149.22460938 C508.3306394 150.72561966 509.42037315 152.22570171 510.51171875 153.72460938 C514.13963518 158.73169506 517.60321809 163.83354224 521 169 C518.36961578 171.63038422 515.97294638 172.15784962 512.43115234 173.31567383 C511.41399092 173.65093472 511.41399092 173.65093472 510.37628078 173.99296856 C508.11468546 174.73677375 505.85036318 175.47189213 503.5859375 176.20703125 C501.9933759 176.72885271 500.40098694 177.2512013 498.8087616 177.77404785 C494.5477222 179.17158602 490.2842781 180.56164691 486.02031326 181.95022964 C481.61754596 183.38536241 477.21698345 184.82722404 472.81616211 186.26831055 C463.5857184 189.28948603 454.35218796 192.30113889 445.11768341 195.30987549 C442.10473541 196.29175468 439.09215399 197.27475631 436.07958984 198.2578125 C426.49598193 201.38448284 416.90869043 204.4995725 407.31738281 207.60253906 C402.70799032 209.09394511 398.10002597 210.58973819 393.4921875 212.0859375 C386.53153208 214.34600009 379.57001891 216.60339741 372.60772705 218.8584137 C368.21631196 220.28099032 363.82582765 221.70639327 359.43608093 223.1341095 C356.63797799 224.0436764 353.83922051 224.95121696 351.04031372 225.85830688 C349.14930401 226.47183681 347.25908072 227.08778905 345.36889648 227.70385742 C343.06168253 228.45074655 340.75047416 229.18543219 338.43505859 229.90649414 C336.0366917 230.66998279 333.65473631 231.48613863 331.28759766 232.34155273 C322.38190782 235.36070087 322.38190782 235.36070087 318.68969727 234.39697266 C316.61531727 233.13091914 314.99880449 231.74848051 313.25 230.0625 C311.90077449 228.91391577 310.54911837 227.76818191 309.1953125 226.625 C308.50985352 226.02300781 307.82439453 225.42101562 307.11816406 224.80078125 C303.61867683 221.82565241 299.87303886 219.21227631 296.125 216.5625 C294.6046704 215.46985999 293.08514242 214.37610374 291.56640625 213.28125 C290.04428558 212.18747948 288.52215023 211.09372938 287 210 C276.99303418 202.80143369 267.02308463 195.55746954 257.10791016 188.23291016 C249.5233116 182.63567826 241.8841167 177.11591373 234.23388672 171.60888672 C229.73476831 168.36853805 225.24175881 165.11972298 220.74755859 161.87255859 C217.012055 159.17401978 213.2751852 156.47742047 209.53515625 153.78515625 C201.02079319 147.65243321 192.54783798 141.46767211 184.10791016 135.23291016 C175.78497251 129.09080366 167.39567785 123.04209317 159 117 C148.99449602 109.79936792 139.02311522 102.55749214 129.10791016 95.23291016 C121.5233116 89.63567826 113.8841167 84.11591373 106.23388672 78.60888672 C101.73476831 75.36853805 97.24175881 72.11972298 92.74755859 68.87255859 C89.012055 66.17401978 85.2751852 63.47742047 81.53515625 60.78515625 C73.02079319 54.65243321 64.54783798 48.46767211 56.10791016 42.23291016 C47.01110983 35.5197136 37.83513272 28.91724891 28.65771484 22.31494141 C13.07731986 11.10336253 13.07731986 11.10336253 5.9375 5.8125 C4.99777344 5.11769531 4.05804687 4.42289062 3.08984375 3.70703125 C1 2 1 2 0 0 Z " fill="#D39F2C" transform="translate(0,379)"/>
<path d="M0 0 C-8.21718869 6.4154131 -16.56077477 12.59916746 -25.06640625 18.62548828 C-35.75745564 26.22531253 -46.34092177 33.97274545 -56.89111328 41.76635742 C-64.47602148 47.36385515 -72.11555308 52.88384856 -79.76611328 58.39111328 C-83.51359769 61.09012118 -87.25661201 63.79531494 -91 66.5 C-95.48610379 69.74131453 -99.97304831 72.98141954 -104.46484375 76.21484375 C-112.17462973 81.76804624 -119.85757631 87.35437205 -127.5 93 C-137.35407821 100.27942622 -147.28574334 107.44830324 -157.22949219 114.60449219 C-165.77052993 120.75329179 -174.28591764 126.93305997 -182.75 133.1875 C-189.26868079 138.00394216 -195.8244828 142.76022935 -202.4296875 147.45703125 C-213.66515843 155.44845775 -224.80144428 163.57422395 -235.89111328 171.76635742 C-244.95106021 178.45240175 -254.09036112 185.02736019 -263.22949219 191.60449219 C-271.68593151 197.69238833 -280.11883304 203.80876191 -288.5 210 C-294.91575496 214.7386541 -301.34958268 219.4508308 -307.8125 224.125 C-308.54726563 224.65738281 -309.28203125 225.18976563 -310.0390625 225.73828125 C-311.40669143 226.72530843 -312.78216672 227.70158585 -314.16650391 228.66503906 C-316.23278007 230.12001713 -316.23278007 230.12001713 -318.82421875 232.5546875 C-322.51606602 234.23486399 -323.18035634 233.95245956 -326.92626953 232.83984375 C-327.90756332 232.55108368 -328.88885712 232.26232361 -329.89988708 231.96481323 C-335.06710837 230.35667714 -340.21750829 228.70724679 -345.35546875 227.0078125 C-346.51872177 226.62560547 -347.68197479 226.24339844 -348.88047791 225.84960938 C-352.00404152 224.82291023 -355.12682531 223.79388061 -358.24930573 222.76389313 C-361.5214393 221.68528936 -364.79466025 220.60999728 -368.06787109 219.53466797 C-369.38714626 219.10122762 -370.70642116 218.66778645 -372.0256958 218.23434448 C-372.67733955 218.02025814 -373.32898331 217.8061718 -374.00037384 217.58559799 C-375.97077499 216.93811819 -377.94106073 216.29028831 -379.91131592 215.6423645 C-390.64192067 212.11404032 -401.38048721 208.61071761 -412.125 205.125 C-412.91779358 204.86775146 -413.71058716 204.61050293 -414.52740479 204.34545898 C-417.68293116 203.32157556 -420.83847252 202.29773854 -423.99414062 201.27429199 C-429.55892142 199.46909579 -435.1215896 197.65748096 -440.68359375 195.84375 C-443.15306481 195.03905596 -445.62258489 194.2345126 -448.09213257 193.43005371 C-449.72688069 192.89731513 -451.36150587 192.3641991 -452.9960022 191.83068848 C-463.26574098 188.4794794 -473.55246016 185.18828559 -483.859375 181.953125 C-487.11240178 180.92846106 -490.36526992 179.90329458 -493.61813354 178.87811279 C-496.76293849 177.89056358 -499.91080291 176.9132297 -503.05883789 175.93603516 C-504.98338863 175.3302383 -506.90779398 174.7239793 -508.83203125 174.1171875 C-509.71755676 173.84585999 -510.60308228 173.57453247 -511.51544189 173.29498291 C-512.32865906 173.0363446 -513.14187622 172.7777063 -513.97973633 172.51123047 C-514.68737625 172.29062958 -515.39501617 172.07002869 -516.12409973 171.84274292 C-518.24515639 170.88986418 -519.46561152 169.72707529 -521 168 C-500.79613413 160.92151137 -480.4994893 154.18663868 -460.09634399 147.70559692 C-441.05380388 141.65347072 -422.06620882 135.4440061 -403.08985519 129.18822861 C-379.49908701 121.41154775 -355.8857109 113.72011813 -332.21064758 106.20303345 C-331.31355576 105.91818085 -330.41646393 105.63332825 -329.4921875 105.33984375 C-328.61141037 105.06022797 -327.73063324 104.78061218 -326.82316589 104.49252319 C-313.31851425 100.20034527 -299.84895797 95.79935105 -286.37724304 91.40513611 C-280.68904461 89.54977092 -274.99923675 87.69941495 -269.30859375 85.8515625 C-252.90991993 80.52443254 -236.51872594 75.1752236 -220.140625 69.78515625 C-214.40631481 67.8982405 -208.67196022 66.01145975 -202.9375 64.125 C-202.21282532 63.88659393 -201.48815063 63.64818787 -200.74151611 63.40255737 C-180.94100103 56.88930959 -161.12074104 50.44698363 -141.25640869 44.13046265 C-123.59678266 38.51145757 -105.98800605 32.74382547 -88.38699341 26.94454956 C-44.06914605 12.34267536 -44.06914605 12.34267536 -24.31552124 5.98757935 C-22.28670962 5.33398334 -20.25871943 4.67783156 -18.2315979 4.01901245 C-15.49520792 3.13042253 -12.75599013 2.25123995 -10.015625 1.375 C-9.22030869 1.11481583 -8.42499237 0.85463165 -7.60557556 0.58656311 C-2.22905498 -1.11452749 -2.22905498 -1.11452749 0 0 Z " fill="#D39F2C" transform="translate(1044,380)"/>
<path d="M0 0 C0.33 0 0.66 0 1 0 C1 180.84 1 361.68 1 548 C0.34 548 -0.32 548 -1 548 C-2.296875 546.32568359 -2.296875 546.32568359 -3.75 544.0234375 C-6.69983119 539.45048491 -9.80176022 535.02664186 -13 530.625 C-13.55469971 529.85897461 -14.10939941 529.09294922 -14.6809082 528.30371094 C-19.4096654 521.78521144 -24.19092646 515.30582364 -28.97631836 508.82885742 C-33.19278035 503.11496034 -37.34195572 497.35742398 -41.45703125 491.5703125 C-49.44845775 480.33484157 -57.57422395 469.19855572 -65.76635742 458.10888672 C-72.45240175 449.04893979 -79.02736019 439.90963888 -85.60449219 430.77050781 C-87.21465509 428.53389856 -88.82571961 426.2979439 -90.4375 424.0625 C-90.97052734 423.32322266 -91.50355469 422.58394531 -92.05273438 421.82226562 C-95.43536065 417.14019108 -98.84714005 412.48100987 -102.28833008 407.84179688 C-103.46630812 406.24543968 -104.63552491 404.64257827 -105.7956543 403.03320312 C-109.12721919 398.42440467 -112.57508453 394.0842308 -116.4440918 389.91259766 C-123.02822419 381.34441347 -123.02822419 381.34441347 -122.97496033 376.92010498 C-122.4513168 374.6425248 -121.73633687 372.53541697 -120.9140625 370.34765625 C-120.48527298 369.07615219 -120.48527298 369.07615219 -120.04782104 367.77896118 C-119.40666793 365.88235729 -118.75131978 363.99051161 -118.08422852 362.10287476 C-116.51481758 357.6114917 -115.06481003 353.08317465 -113.60018921 348.55674744 C-112.35251546 344.71130942 -111.08983198 340.87114069 -109.82080078 337.03271484 C-109.49338614 336.04206292 -109.49338614 336.04206292 -109.15935707 335.03139782 C-108.71029399 333.67267681 -108.26121171 332.31396214 -107.8121109 330.9552536 C-105.68107137 324.50345279 -103.55915803 318.04864072 -101.4375 311.59375 C-101.20205601 310.87760906 -100.96661201 310.16146812 -100.72403336 309.42362595 C-96.45362124 296.42977186 -92.26862436 283.40985068 -88.125 270.375 C-81.46771793 249.44138723 -74.62045385 228.57272961 -67.74533844 207.70995331 C-61.41491041 188.49885246 -55.12798848 169.27689169 -49 150 C-42.38796486 129.20043652 -35.58674023 108.46566636 -28.75430679 87.73775101 C-21.28593477 65.08052342 -13.9074105 42.39864698 -6.6953125 19.65820312 C-6.23418816 18.20698814 -6.23418816 18.20698814 -5.76374817 16.72645569 C-5.20036763 14.95246912 -4.63861324 13.17796484 -4.0789032 11.40281677 C-2.8515916 7.53728714 -1.5802631 3.74000307 0 0 Z " fill="#FBDA31" transform="translate(521,0)"/>
<path d="M0 0 C-4.00633134 6.61973291 -8.33820687 12.87045735 -13.10180664 18.9609375 C-17.45306508 24.53784519 -21.53284752 30.29117758 -25.62109375 36.06201172 C-28.16577566 39.6384432 -30.74025284 43.19336922 -33.3125 46.75 C-34.42448262 48.28775792 -35.53646176 49.82551836 -36.6484375 51.36328125 C-37.20370117 52.1310791 -37.75896484 52.89887695 -38.33105469 53.68994141 C-39.96518299 55.95180829 -41.5963713 58.21576308 -43.2265625 60.48046875 C-49.35497197 68.98992059 -55.53619498 77.45739685 -61.76708984 85.89208984 C-67.90919634 94.21502749 -73.95790683 102.60432215 -80 111 C-87.20063208 121.00550398 -94.44250786 130.97688478 -101.76708984 140.89208984 C-107.36432174 148.4766884 -112.88408627 156.1158833 -118.39111328 163.76611328 C-121.63146195 168.26523169 -124.88027702 172.75824119 -128.12744141 177.25244141 C-130.82598022 180.987945 -133.52257953 184.7248148 -136.21484375 188.46484375 C-142.34756679 196.97920681 -148.53232789 205.45216202 -154.76708984 213.89208984 C-160.90919634 222.21502749 -166.95790683 230.60432215 -173 239 C-180.20063208 249.00550398 -187.44250786 258.97688478 -194.76708984 268.89208984 C-200.36432174 276.4766884 -205.88408627 284.1158833 -211.39111328 291.76611328 C-214.63146195 296.26523169 -217.88027702 300.75824119 -221.12744141 305.25244141 C-223.82598022 308.987945 -226.52257953 312.7248148 -229.21484375 316.46484375 C-235.34756679 324.97920681 -241.53232789 333.45216202 -247.76708984 341.89208984 C-253.90919634 350.21502749 -259.95790683 358.60432215 -266 367 C-273.20063208 377.00550398 -280.44250786 386.97688478 -287.76708984 396.89208984 C-291.72901207 402.26074174 -295.65907597 407.6511763 -299.5625 413.0625 C-300.08763184 413.79025635 -300.61276367 414.5180127 -301.15380859 415.26782227 C-303.9752062 419.18152729 -306.78887931 423.10066594 -309.59765625 427.0234375 C-310.48312134 428.25694946 -310.48312134 428.25694946 -311.38647461 429.51538086 C-312.51856888 431.09261822 -313.64840735 432.67147797 -314.77563477 434.25219727 C-315.28537842 434.96174561 -315.79512207 435.67129395 -316.3203125 436.40234375 C-316.98957764 437.33808228 -316.98957764 437.33808228 -317.67236328 438.29272461 C-319.00554688 440.00713301 -320.45325756 441.47915707 -322 443 C-320.59044715 436.0997471 -318.65550475 429.52534392 -316.4296875 422.84765625 C-316.07696274 421.77699921 -315.72423798 420.70634216 -315.36082458 419.60324097 C-314.60038782 417.29592637 -313.83809506 414.98922279 -313.0741272 412.68307495 C-311.22110413 407.08816481 -309.37975246 401.48942401 -307.53927803 395.89037514 C-307.11853564 394.61046062 -306.69765029 393.33059309 -306.27662468 392.05077171 C-302.53778455 380.68369249 -298.87676738 369.2929782 -295.2510376 357.88937378 C-288.22269348 335.78393575 -281.00610481 313.74331473 -273.7463913 291.71311188 C-267.07376352 271.46328994 -260.46512293 251.19659933 -254.00439453 230.87792969 C-247.65910899 210.9337162 -241.12434795 191.05358704 -234.57528687 171.17562866 C-229.07066674 154.46608314 -223.60034582 137.7479573 -218.27856445 120.97900391 C-216.95339405 116.80851791 -215.60290294 112.64776705 -214.22729492 108.49365234 C-211.43193404 100.00877189 -208.80698722 91.68130767 -207.09765625 82.90625 C-203.5532346 65.99679885 -203.5532346 65.99679885 -197.22106934 61.8291626 C-187.627061 56.68933131 -176.87500738 54.26112173 -166.31542969 51.96679688 C-160.42457385 50.68168312 -154.7276624 48.87121072 -149 47 C-147.75404053 46.59998779 -146.50808105 46.19997559 -145.22436523 45.7878418 C-140.93780121 44.4107761 -136.65630227 43.01832188 -132.375 41.625 C-130.74391753 41.09490594 -129.1128134 40.56487852 -127.48168945 40.03491211 C-124.0466683 38.91860333 -120.61187561 37.80159518 -117.17724609 36.68408203 C-113.01817473 35.33093651 -108.85855686 33.97948206 -104.69869995 32.62875366 C-101.38252734 31.55177558 -98.06666361 30.47384856 -94.75085449 29.39575195 C-93.03959984 28.83948621 -91.32825514 28.28349737 -89.61682129 27.7277832 C-77.87224831 23.91343748 -66.14174505 20.05815041 -54.42068672 16.17226219 C-50.01705412 14.7132186 -45.61213533 13.25806108 -41.2072401 11.80283451 C-36.84501763 10.36111926 -32.48508108 8.91273188 -28.12663746 7.45963573 C-25.3925367 6.5498162 -22.65641432 5.64620081 -19.91972542 4.74419975 C-18.02018177 4.11598814 -16.12314648 3.48020795 -14.22618103 2.84425354 C-13.08242508 2.46848679 -11.93866913 2.09272003 -10.76025391 1.70556641 C-9.76410065 1.37473053 -8.76794739 1.04389465 -7.74160767 0.70303345 C-5.03584721 0.00919234 -2.77885105 -0.13842144 0 0 Z " fill="#FBDA30" transform="translate(521,550)"/>
<path d="M0 0 C2.91960639 2.89070694 5.67233022 5.68961904 8.09375 9.01171875 C8.64232666 9.7601001 9.19090332 10.50848145 9.75610352 11.27954102 C10.33158936 12.07416748 10.9070752 12.86879395 11.5 13.6875 C12.11093506 14.524021 12.72187012 15.36054199 13.35131836 16.22241211 C15.23943916 18.81118848 17.12072963 21.40479352 19 24 C19.56348145 24.77698242 20.12696289 25.55396484 20.70751953 26.35449219 C25.01963279 32.30338556 29.31270919 38.26592519 33.60449219 44.22949219 C39.6923875 52.68593036 45.80868741 61.11888909 52 69.5 C59.27942622 79.35407821 66.44830324 89.28574334 73.60449219 99.22949219 C79.6923875 107.68593036 85.80868741 116.11888909 92 124.5 C98.19011119 132.87948458 104.30474309 141.31107363 110.39111328 149.76611328 C113.09012118 153.51359769 115.79531494 157.25661201 118.5 161 C121.74131453 165.48610379 124.98141954 169.97304831 128.21484375 174.46484375 C133.76804624 182.17462973 139.35437205 189.85757631 145 197.5 C152.27942622 207.35407821 159.44830324 217.28574334 166.60449219 227.22949219 C172.6923875 235.68593036 178.80868741 244.11888909 185 252.5 C191.19011119 260.87948458 197.30474309 269.31107363 203.39111328 277.76611328 C206.09012118 281.51359769 208.79531494 285.25661201 211.5 289 C214.74131453 293.48610379 217.98141954 297.97304831 221.21484375 302.46484375 C226.76804624 310.17462973 232.35437205 317.85757631 238 325.5 C245.27942622 335.35407821 252.44830324 345.28574334 259.60449219 355.22949219 C265.6923875 363.68593036 271.80868741 372.11888909 278 380.5 C284.18576524 388.87360152 290.29598074 397.29932732 296.37792969 405.74853516 C298.03339288 408.04634996 299.69196457 410.34188876 301.3515625 412.63671875 C301.90473145 413.40177734 302.45790039 414.16683594 303.02783203 414.95507812 C304.12221537 416.46834723 305.21693434 417.98137368 306.31201172 419.49414062 C308.88395965 423.05154242 311.44214113 426.61725374 313.96875 430.20703125 C314.42934814 430.85961914 314.88994629 431.51220703 315.36450195 432.18457031 C316.2235508 433.40394726 317.07907093 434.62582067 317.93041992 435.85058594 C320.01342218 438.91670137 320.01342218 438.91670137 323 441 C323 441.66 323 442.32 323 443 C318.11797915 441.42575911 314.56065429 438.59782131 310.5625 435.5 C309.12467633 434.40366356 307.68585731 433.30863138 306.24609375 432.21484375 C305.52921387 431.66940918 304.81233398 431.12397461 304.07373047 430.56201172 C301.12758692 428.34286568 298.13428093 426.19488105 295.125 424.0625 C293.97523294 423.24613244 292.825494 422.42972528 291.67578125 421.61328125 C291.08490723 421.19385254 290.4940332 420.77442383 289.88525391 420.34228516 C279.21558539 412.74556961 268.64366348 405.0158674 258.10888672 397.23364258 C249.7856412 391.09126792 241.39600805 385.04233081 233 379 C222.99449602 371.79936792 213.02311522 364.55749214 203.10791016 357.23291016 C195.5233116 351.63567826 187.8841167 346.11591373 180.23388672 340.60888672 C175.73476831 337.36853805 171.24175881 334.11972298 166.74755859 330.87255859 C163.012055 328.17401978 159.2751852 325.47742047 155.53515625 322.78515625 C147.02079319 316.65243321 138.54783798 310.46767211 130.10791016 304.23291016 C121.78497251 298.09080366 113.39567785 292.04209317 105 286 C94.99449602 278.79936792 85.02311522 271.55749214 75.10791016 264.23291016 C67.5233116 258.63567826 59.8841167 253.11591373 52.23388672 247.60888672 C48.48640211 244.90987868 44.74346279 242.20458184 41 239.5 C39.50522119 238.42055511 38.01042952 237.34112804 36.515625 236.26171875 C33.46281883 234.05698797 30.41082821 231.85113417 27.359375 229.64453125 C26.58722656 229.08636719 25.81507813 228.52820313 25.01953125 227.953125 C23.58440448 226.91568396 22.14948206 225.87796015 20.71484375 224.83984375 C20.04066406 224.35257813 19.36648438 223.8653125 18.671875 223.36328125 C18.00722795 222.85903311 17.34258091 222.35478497 16.65779305 221.83525658 C13.9425903 219.87856766 13.9425903 219.87856766 10.53713799 218.20168495 C5.94905107 215.68947724 1.19493653 213.03189577 -0.80212164 207.96478796 C-2.08160014 201.90972943 -1.75393726 195.73782385 -1.58935547 189.58740234 C-1.58540232 187.51699086 -1.58763117 185.44655978 -1.59555054 183.37615967 C-1.59955629 177.77602164 -1.51745214 172.18010953 -1.41951513 166.58095121 C-1.33179753 160.72220711 -1.32375767 154.86335828 -1.30715942 149.00405884 C-1.26370232 137.91826283 -1.14889885 126.83440735 -1.00826657 115.74946463 C-0.85160105 103.12580588 -0.77476282 90.50205278 -0.70453048 77.87766337 C-0.558324 51.91736775 -0.3121904 25.95879275 0 0 Z " fill="#D39F2C" transform="translate(522,550)"/>
<path d="M0 0 C10.81232864 2.42005838 21.23912064 5.90765646 31.75 9.375 C33.66261181 10.00240633 35.57537506 10.62935115 37.48828125 11.25585938 C41.41525097 12.5423144 45.3416188 13.83058216 49.26757812 15.12011719 C57.02412807 17.66603857 64.78885662 20.18666445 72.55401611 22.70617676 C76.695294 24.05019323 80.83590073 25.3962743 84.9765625 26.7421875 C86.6461581 27.28483304 88.31575446 27.82747626 89.98535156 28.37011719 C90.8131311 28.6391687 91.64091064 28.90822021 92.49377441 29.1854248 C94.16067568 29.72720222 95.82758644 30.26895041 97.49450684 30.81066895 C107.92643084 34.20092949 118.35692808 37.59552247 128.78521729 40.99694824 C134.3573892 42.81402954 139.93060295 44.62787262 145.50488281 46.43847656 C151.51604652 48.39099438 157.5260729 50.34697407 163.5349865 52.30640602 C166.83755849 53.38318699 170.14064216 54.45833521 173.44500732 55.52960205 C177.142067 56.72824795 180.83673698 57.93415119 184.53125 59.140625 C185.64791046 59.50145172 186.76457092 59.86227844 187.91506958 60.23403931 C188.9388974 60.5696286 189.96272522 60.9052179 191.01757812 61.25097656 C192.35858582 61.68727386 192.35858582 61.68727386 193.72668457 62.13238525 C196 63 196 63 199 65 C200.12610052 67.88948713 201.08536449 70.71107646 201.984375 73.671875 C202.41638214 75.04524017 202.41638214 75.04524017 202.8571167 76.4463501 C203.49201634 78.46754285 204.12216868 80.49023118 204.74829102 82.51416016 C206.50168942 88.17819681 208.2920848 93.83056383 210.078125 99.484375 C210.46468262 100.71095825 210.85124023 101.9375415 211.24951172 103.20129395 C215.71192677 117.33810089 220.36406311 131.41228897 225.01113892 145.48922729 C227.50019778 153.02909991 229.98410951 160.57066581 232.46484375 168.11328125 C232.82685159 169.21395022 232.82685159 169.21395022 233.19617271 170.33685493 C237.87627097 184.57316135 242.45459272 198.84081095 246.99560547 213.12207031 C252.88077172 231.62005772 258.92763118 250.06286945 265 268.5 C271.71111503 288.87651329 278.36024606 309.26912219 284.86001587 329.71429443 C291.90605161 351.86255195 299.17622071 373.93667301 306.45782661 396.00835323 C307.42457263 398.93910277 308.39051307 401.87011758 309.35643768 404.80113792 C310.01503869 406.79812399 310.67508889 408.79462649 311.33526611 410.79109192 C312.56610408 414.52443479 313.78385932 418.26184664 315 422 C315.35436316 423.06916782 315.35436316 423.06916782 315.71588516 424.159935 C316.44311045 426.35640791 317.1586721 428.556406 317.87231445 430.75732422 C318.10006907 431.43699312 318.3278237 432.11666203 318.56247997 432.81692696 C320.11380964 437.65857108 320.11380964 437.65857108 319 441 C309.37471428 427.98767664 299.84974164 414.90746206 290.39550781 401.77050781 C284.3076125 393.31406964 278.19131259 384.88111091 272 376.5 C264.72057378 366.64592179 257.55169676 356.71425666 250.39550781 346.77050781 C244.3076125 338.31406964 238.19131259 329.88111091 232 321.5 C225.80988881 313.12051542 219.69525691 304.68892637 213.60888672 296.23388672 C210.90987882 292.48640231 208.20468506 288.74338799 205.5 285 C202.25868547 280.51389621 199.01858046 276.02695169 195.78515625 271.53515625 C190.23195376 263.82537027 184.64562795 256.14242369 179 248.5 C171.72057378 238.64592179 164.55169676 228.71425666 157.39550781 218.77050781 C151.3076125 210.31406964 145.19131259 201.88111091 139 193.5 C132.80988881 185.12051542 126.69525691 176.68892637 120.60888672 168.23388672 C117.90987882 164.48640231 115.20468506 160.74338799 112.5 157 C109.25868547 152.51389621 106.01858046 148.02695169 102.78515625 143.53515625 C97.23195376 135.82537027 91.64562795 128.14242369 86 120.5 C78.72057378 110.64592179 71.55169676 100.71425666 64.39550781 90.77050781 C58.3076125 82.31406964 52.19131259 73.88111091 46 65.5 C39.80988881 57.12051542 33.69525691 48.68892637 27.60888672 40.23388672 C25.45017417 37.23658477 23.28740607 34.24222334 21.12402344 31.24829102 C20.04971963 29.76102948 18.97614008 28.27324449 17.90332031 26.78491211 C15.04782509 22.82489185 12.17923379 18.87516329 9.29296875 14.9375 C8.6896875 14.11121094 8.08640625 13.28492188 7.46484375 12.43359375 C6.30071665 10.83963511 5.13288027 9.24837733 3.9609375 7.66015625 C3.44144531 6.94730469 2.92195312 6.23445312 2.38671875 5.5 C1.92483154 4.8709375 1.46294434 4.241875 0.98706055 3.59375 C0 2 0 2 0 0 Z " fill="#FBDA30" transform="translate(524,550)"/>
<path d="M0 0 C0.33 0 0.66 0 1 0 C1.30383936 27.0771402 1.53300269 54.15402453 1.67355824 81.23252678 C1.74055925 93.80598856 1.83188303 106.37839046 1.98071289 118.95117188 C2.11038984 129.91119764 2.19418031 140.87045581 2.22315043 151.83122742 C2.24008301 157.63403557 2.27979644 163.4346481 2.37449074 169.23675156 C2.46296697 174.70232273 2.48990756 180.1648022 2.47039986 185.6310215 C2.47396634 187.63301359 2.49969849 189.63511267 2.54967117 191.63648415 C2.89932718 206.36680838 2.89932718 206.36680838 -0.2870791 210.78438234 C-3.75188063 214.28699733 -7.70941019 216.63576554 -12 219 C-13.24859866 219.88073518 -14.48600001 220.77816455 -15.69921875 221.70703125 C-16.68535156 222.40183594 -17.67148437 223.09664062 -18.6875 223.8125 C-19.86363013 224.64534087 -21.03939222 225.47870165 -22.21484375 226.3125 C-22.82440918 226.74433594 -23.43397461 227.17617188 -24.06201172 227.62109375 C-27.6384432 230.16577566 -31.19336922 232.74025284 -34.75 235.3125 C-36.28775792 236.42448262 -37.82551836 237.53646176 -39.36328125 238.6484375 C-40.1310791 239.20370117 -40.89887695 239.75896484 -41.68994141 240.33105469 C-43.95180829 241.96518299 -46.21576308 243.5963713 -48.48046875 245.2265625 C-56.1853087 250.77549973 -63.8628106 256.35823874 -71.5 262 C-81.35407821 269.27942622 -91.28574334 276.44830324 -101.22949219 283.60449219 C-109.68593036 289.6923875 -118.11888909 295.80868741 -126.5 302 C-134.87948458 308.19011119 -143.31107363 314.30474309 -151.76611328 320.39111328 C-155.51359769 323.09012118 -159.25661201 325.79531494 -163 328.5 C-167.48610379 331.74131453 -171.97304831 334.98141954 -176.46484375 338.21484375 C-184.17462973 343.76804624 -191.85757631 349.35437205 -199.5 355 C-209.35407821 362.27942622 -219.28574334 369.44830324 -229.22949219 376.60449219 C-237.68593036 382.6923875 -246.11888909 388.80868741 -254.5 395 C-262.87948458 401.19011119 -271.31107363 407.30474309 -279.76611328 413.39111328 C-282.76337638 415.54979785 -285.75766166 417.71259076 -288.75170898 419.87573242 C-290.23927996 420.95042128 -291.7270696 422.02480754 -293.21508789 423.09887695 C-297.16755978 425.95196855 -301.11693924 428.80923191 -305.0625 431.671875 C-306.30193359 432.5700293 -306.30193359 432.5700293 -307.56640625 433.48632812 C-309.15841453 434.64008693 -310.74959487 435.79498926 -312.33984375 436.95117188 C-313.05269531 437.46744141 -313.76554688 437.98371094 -314.5 438.515625 C-315.44359375 439.20060059 -315.44359375 439.20060059 -316.40625 439.89941406 C-318 441 -318 441 -320 442 C-318.73424249 439.35601338 -317.36324713 436.95132423 -315.671875 434.55859375 C-314.97783569 433.57451538 -314.97783569 433.57451538 -314.26977539 432.57055664 C-313.51748657 431.5146936 -313.51748657 431.5146936 -312.75 430.4375 C-312.22204834 429.69298584 -311.69409668 428.94847168 -311.15014648 428.18139648 C-306.59969244 421.78920288 -301.95338501 415.46946652 -297.28637695 409.16210938 C-293.30327543 403.77767784 -289.35452673 398.37018399 -285.4375 392.9375 C-284.90447266 392.19822266 -284.37144531 391.45894531 -283.82226562 390.69726562 C-282.21412447 388.46536063 -280.60688142 386.23281209 -279 384 C-271.79936792 373.99449602 -264.55749214 364.02311522 -257.23291016 354.10791016 C-251.63567826 346.5233116 -246.11591373 338.8841167 -240.60888672 331.23388672 C-237.36853805 326.73476831 -234.11972298 322.24175881 -230.87255859 317.74755859 C-228.17401978 314.012055 -225.47742047 310.2751852 -222.78515625 306.53515625 C-216.65243321 298.02079319 -210.46767211 289.54783798 -204.23291016 281.10791016 C-198.09080366 272.78497251 -192.04209317 264.39567785 -186 256 C-178.79936792 245.99449602 -171.55749214 236.02311522 -164.23291016 226.10791016 C-158.63567826 218.5233116 -153.11591373 210.8841167 -147.60888672 203.23388672 C-144.36853805 198.73476831 -141.11972298 194.24175881 -137.87255859 189.74755859 C-135.17401978 186.012055 -132.47742047 182.2751852 -129.78515625 178.53515625 C-123.65243321 170.02079319 -117.46767211 161.54783798 -111.23291016 153.10791016 C-105.09080366 144.78497251 -99.04209317 136.39567785 -93 128 C-85.79936792 117.99449602 -78.55749214 108.02311522 -71.23291016 98.10791016 C-65.63567826 90.5233116 -60.11591373 82.8841167 -54.60888672 75.23388672 C-51.36853805 70.73476831 -48.11972298 66.24175881 -44.87255859 61.74755859 C-42.17401978 58.012055 -39.47742047 54.2751852 -36.78515625 50.53515625 C-30.66171144 42.03367462 -24.49123217 33.56977745 -18.25927734 25.14746094 C-15.23252949 21.05119987 -12.22941391 16.94007758 -9.26171875 12.80078125 C-8.66166016 11.96417969 -8.06160156 11.12757813 -7.44335938 10.265625 C-6.29199221 8.65704084 -5.14345132 7.04642914 -3.99804688 5.43359375 C-3.48693359 4.71945312 -2.97582031 4.0053125 -2.44921875 3.26953125 C-1.99893311 2.63635986 -1.54864746 2.00318848 -1.0847168 1.35083008 C-0.72676025 0.90505615 -0.36880371 0.45928223 0 0 Z " fill="#E9B331" transform="translate(520,551)"/>
<path d="M0 0 C50.40499759 -0.32042996 100.80989228 -0.56712743 151.21570801 -0.71491461 C157.16626794 -0.73242455 163.11682587 -0.75054506 169.06738281 -0.76904297 C170.25203377 -0.77271531 171.43668473 -0.77638766 172.65723421 -0.78017129 C191.84020769 -0.8410935 211.02259393 -0.95147875 230.20521902 -1.08013915 C249.88778665 -1.21105189 269.5700467 -1.28882079 289.25303185 -1.31723893 C301.39931992 -1.33645126 313.54394823 -1.39712992 325.68972535 -1.51083054 C334.01813247 -1.58482487 342.34568137 -1.6072045 350.67439334 -1.58901928 C355.48070293 -1.58004883 360.28411273 -1.59380803 365.08990669 -1.66887665 C369.4935071 -1.73715982 373.89226823 -1.74037709 378.29609443 -1.69258453 C379.88586162 -1.68668185 381.47593414 -1.7043428 383.06510268 -1.74836455 C394.61527799 -2.04962492 394.61527799 -2.04962492 398.60499492 1.37946376 C402.02685682 5.2223911 404.4903096 9.52983573 407 14 C408.085527 15.56241469 409.18837531 17.11340684 410.328125 18.63671875 C410.81023437 19.30574219 411.29234375 19.97476562 411.7890625 20.6640625 C412.51222656 21.66566406 412.51222656 21.66566406 413.25 22.6875 C413.78882813 23.43386719 414.32765625 24.18023437 414.8828125 24.94921875 C419.47113581 31.29252286 424.11470405 37.59418264 428.76635742 43.89111328 C435.45240175 52.95106021 442.02736019 62.09036112 448.60449219 71.22949219 C454.6923875 79.68593036 460.80868741 88.11888909 467 96.5 C473.19011119 104.87948458 479.30474309 113.31107363 485.39111328 121.76611328 C488.0901213 125.51359786 490.79540286 129.25654829 493.5 133 C494.57294041 134.48565994 495.64585703 135.97133706 496.71875 137.45703125 C498.98908315 140.60062206 501.26000348 143.74378778 503.53125 146.88671875 C504.11197266 147.69044922 504.69269531 148.49417969 505.29101562 149.32226562 C506.39372692 150.84841806 507.49658099 152.37446735 508.59960938 153.90039062 C509.5939822 155.27672484 510.58689328 156.65411669 511.578125 158.03271484 C512.53877178 159.36185148 513.50776878 160.68498676 514.484375 162.00244141 C518 166.78581461 518 166.78581461 518 169 C510.81588644 167.19664088 503.88659735 164.96270147 496.9453125 162.37890625 C493.62858852 161.18195431 490.27119506 160.1488024 486.8984375 159.12109375 C478.91429639 156.68813106 471.01397589 154.02197346 463.10546875 151.35546875 C456.61081418 149.17560199 450.09876904 147.08327562 443.54589844 145.08544922 C436.30910008 142.87016379 429.09284796 140.58863837 421.875 138.3125 C421.03797546 138.04855438 420.20095093 137.78460876 419.33856201 137.51266479 C408.00355914 133.93454249 396.70053991 130.2767907 385.43334961 126.48974609 C375.78585429 123.25033679 366.1159833 120.08285379 356.4375 116.9375 C355.60907593 116.66820679 354.78065186 116.39891357 353.92712402 116.12145996 C338.00731992 110.94995147 322.06120479 105.86147322 306.11502075 100.77203369 C292.68659288 96.48412605 279.28159359 92.14222979 265.91967773 87.65112305 C250.67089842 82.53046356 235.36109629 77.59641035 220.05859375 72.63916016 C215.14259961 71.04653374 210.22746087 69.45128058 205.3125 67.85546875 C202.18752851 66.84105799 199.06252002 65.82676125 195.9375 64.8125 C194.80019943 64.44333466 194.80019943 64.44333466 193.6399231 64.06671143 C185.49150819 61.42221976 177.34076982 58.78532192 169.18359375 56.16796875 C167.7676543 55.71315098 166.35171995 55.2583173 164.93579102 54.8034668 C162.32635217 53.965297 159.7160806 53.12990535 157.10522461 52.29614258 C151.84880929 50.60858134 146.62209565 48.8878748 141.4453125 46.96875 C136.55766354 45.16558705 131.61924358 43.61218956 126.63378906 42.10302734 C122.53721741 40.85952353 118.45140317 39.58416974 114.3671875 38.30078125 C113.60824188 38.06229965 112.84929626 37.82381805 112.06735229 37.57810974 C109.66960024 36.82385908 107.27221424 36.0684582 104.875 35.3125 C104.03797546 35.04855438 103.20095093 34.78460876 102.33856201 34.51266479 C91.02703384 30.94195276 79.74575231 27.29630664 68.50366211 23.51171875 C56.50917572 19.47953355 44.46922258 15.58836462 32.43017578 11.69165039 C21.60095478 8.18421285 10.79308276 4.61712812 0 1 C0 0.67 0 0.34 0 0 Z " fill="#E8B230" transform="translate(2,379)"/>
<path d="M0 0 C1.20485261 0.00151888 2.40970522 0.00303776 3.65106851 0.00460267 C4.32481439 -0.00001271 4.99856028 -0.00462808 5.69272271 -0.00938332 C7.96695543 -0.02003304 10.24007192 -0.00197739 12.51424772 0.01577592 C14.15438533 0.01403277 15.79452187 0.01053258 17.43465245 0.00541925 C21.9544408 -0.00355498 26.47385237 0.0125163 30.99359268 0.0325315 C35.86270624 0.04975703 40.73179745 0.04396328 45.6009329 0.0409224 C54.04127355 0.03882193 62.48149082 0.05140393 70.92180043 0.07387376 C83.12514823 0.10634047 95.32843617 0.11679531 107.53182248 0.12182572 C127.329531 0.13058675 147.1271737 0.15722423 166.92484647 0.19503617 C186.15986915 0.23173537 205.39487398 0.26005736 224.6299246 0.27706742 C225.81497367 0.27811832 227.00002274 0.27916921 228.2209824 0.28025195 C234.16584667 0.28547199 240.11071107 0.29052685 246.05557555 0.29549956 C295.39770549 0.33698675 344.73976399 0.40745715 394.08182889 0.49679399 C391.26217746 2.37656161 389.16199337 3.23966861 385.97025663 4.25826859 C384.91412671 4.59795167 383.8579968 4.93763474 382.76986295 5.28761125 C381.61339765 5.65441499 380.45693235 6.02121873 379.26542264 6.39913774 C377.40265796 6.99657901 375.53989431 7.59402353 373.67717057 8.19159245 C371.67746544 8.8321819 369.67705518 9.47052369 367.67643338 10.10824418 C361.31968531 12.13481944 354.96750446 14.17563763 348.6150282 16.21555543 C347.15674291 16.68376933 345.69840144 17.15180828 344.24000531 17.61967683 C329.24868426 22.42914522 314.28775548 27.32832536 299.33182889 32.24679399 C281.85574262 37.99029103 264.36106829 43.66768107 246.83182889 49.24679399 C226.33331841 55.7715684 205.88984539 62.45793504 185.45682889 69.18429399 C184.69737218 69.43429406 183.93791547 69.68429414 183.15544492 69.94186997 C179.37714272 71.18567217 175.59888467 72.42960846 171.82062894 73.6735518 C171.0898929 73.91413316 170.35915685 74.15471452 169.60627729 74.40258622 C168.14615311 74.88331518 166.686037 75.36406862 165.22592908 75.84484696 C149.41996462 81.04898924 133.59780632 86.20238579 117.76670438 91.32949662 C112.35937709 93.0811156 106.9545561 94.84033813 101.55057889 96.60226274 C87.645727 101.13403188 73.73880329 105.65783936 59.80448514 110.09835649 C58.83408292 110.40764588 57.8636807 110.71693528 56.86387235 111.03559709 C55.87796109 111.34981111 54.89204984 111.66402513 53.87626249 111.98776078 C31.01781016 119.27306774 8.21003788 126.70232003 -14.57680529 134.20780015 C-36.19917821 141.32957909 -57.84734407 148.36067302 -79.54317111 155.25631547 C-88.02069572 157.95302742 -96.49151905 160.66005562 -104.91817111 163.51241899 C-105.58143405 163.73656983 -106.24469699 163.96072068 -106.9280588 164.19166398 C-109.85421043 165.18280914 -112.77628625 166.18413779 -115.69356173 167.20113969 C-116.64424533 167.52686967 -117.59492892 167.85259965 -118.57442111 168.18820024 C-119.77808322 168.60887773 -119.77808322 168.60887773 -121.00606173 169.03805375 C-122.91817111 169.49679399 -122.91817111 169.49679399 -124.91817111 168.49679399 C-124.12259819 167.39523149 -123.32702527 166.29366899 -122.53145236 165.19210649 C-122.01204074 164.47289018 -121.49262912 163.75367387 -120.95747775 163.01266313 C-119.78881359 161.39457631 -118.62002755 159.77657751 -117.45113009 158.15865922 C-114.51548909 154.09498005 -111.58131826 150.03027085 -108.65254611 145.96163774 C-102.53687539 137.4706296 -96.36866049 129.0213719 -90.15108126 120.60470414 C-84.55384937 113.02010559 -79.03408484 105.38091069 -73.52705783 97.7306807 C-70.28670916 93.2315623 -67.03789409 88.7385528 -63.7907297 84.24435258 C-61.09219089 80.50884899 -58.39559158 76.77197918 -55.70332736 73.03195024 C-49.57060432 64.51758718 -43.38584321 56.04463196 -37.15108126 47.60470414 C-31.56881907 40.04039046 -26.06338821 32.42191259 -20.57100314 24.79220414 C-17.64822025 20.73311925 -14.72072001 16.67744205 -11.79317111 12.62179399 C-10.9761069 11.4885872 -10.9761069 11.4885872 -10.14253634 10.33248734 C-9.63279269 9.62616166 -9.12304904 8.91983598 -8.59785861 8.19210649 C-8.15168185 7.57351762 -7.70550509 6.95492875 -7.24580783 6.31759477 C-6.80768771 5.71673051 -6.36956759 5.11586625 -5.91817111 4.49679399 C-5.53127917 3.80939142 -5.14438723 3.12198884 -4.74577129 2.41375589 C-2.91817111 0.49679399 -2.91817111 0.49679399 0 0 Z " fill="#FBDA30" transform="translate(647.918171107769,378.5032060146332)"/>
</svg>
