<?xml version="1.0" encoding="UTF-8"?>
<svg version="1.1" xmlns="http://www.w3.org/2000/svg" width="512" height="512">
<path d="M0 0 C1.17297577 -0.00384115 2.34595154 -0.00768229 3.55447203 -0.01163983 C4.83908101 -0.01077335 6.12369 -0.00990687 7.44722652 -0.00901413 C8.82892325 -0.01159881 10.21061923 -0.01461225 11.59231418 -0.01801753 C15.38878264 -0.02607895 19.18523217 -0.02787663 22.98170817 -0.028615 C27.0766444 -0.03046709 31.17157086 -0.03801528 35.26650143 -0.04475021 C44.22126959 -0.05832871 53.17603328 -0.06435771 62.13081002 -0.06876087 C67.72424842 -0.07152452 73.31768509 -0.07576215 78.91112232 -0.08026505 C94.40295872 -0.09245786 109.89479373 -0.10275664 125.38663483 -0.10614014 C126.37805786 -0.1063597 127.36948089 -0.10657927 128.39094704 -0.10680549 C129.88161181 -0.10713291 129.88161181 -0.10713291 131.40239102 -0.10746694 C133.4161104 -0.1079104 135.42982978 -0.10835696 137.44354916 -0.10880661 C138.94185615 -0.10913875 138.94185615 -0.10913875 140.47043198 -0.10947761 C156.64774387 -0.11342376 172.82501067 -0.13087213 189.00230516 -0.15416613 C205.61822553 -0.17789819 222.23412329 -0.19034286 238.85006088 -0.19150805 C248.17642544 -0.19242386 257.50273127 -0.1981521 266.82907963 -0.21632767 C274.7725558 -0.2317538 282.71595508 -0.23683437 290.65944339 -0.22858956 C294.70953063 -0.22469174 298.75946316 -0.22557002 302.80953121 -0.23964691 C306.52384852 -0.25243826 310.23789571 -0.25114283 313.95221292 -0.2390562 C315.91849026 -0.23619178 317.88477249 -0.24799528 319.85101229 -0.26047826 C334.96812376 -0.17685091 347.08646507 3.75882937 358.29193783 14.10408401 C369.20334084 25.87751055 371.78959165 39.73049313 371.65186214 55.28580093 C371.65361046 56.77370216 371.65712014 58.26160217 371.66221881 59.74949569 C371.67109162 63.80204876 371.6552624 67.85417269 371.63510656 71.90667117 C371.61773387 76.29025903 371.62368517 80.67382526 371.62671566 85.0574379 C371.62880685 92.64036926 371.61632209 100.2231623 371.59376431 107.80605888 C371.56117147 118.76945285 371.55082985 129.73278034 371.54581234 140.6962175 C371.53707109 158.48626359 371.51048732 176.27623607 371.47260189 194.06624222 C371.43585148 211.34130359 371.40755456 228.61634493 371.39057064 245.89143753 C371.38951975 246.95736654 371.38846885 248.02329555 371.38738611 249.12152544 C371.38216573 254.46930458 371.37711096 259.81708386 371.3721385 265.16486323 C371.33071291 309.48710238 371.26029642 353.80926126 371.17084408 398.13142776 C372.13796322 398.11571732 373.10508236 398.10000687 374.10150814 398.08382034 C377.74692861 398.02883537 381.3923138 397.99483301 385.03803158 397.96663284 C386.60515191 397.95170024 388.17223162 397.93134661 389.73920345 397.90510941 C406.42790983 397.63301093 420.65385107 399.88656562 433.42084408 411.63142776 C443.52528127 422.28292047 447.66758327 435.15441988 447.42084408 449.60408401 C446.54372141 461.97973662 441.23702979 473.63077411 432.17084408 482.13142776 C422.96864994 489.82351825 412.38816444 494.24802636 400.33889484 494.26285553 C399.16530238 494.26669667 397.99170991 494.27053782 396.78255403 494.27449536 C395.49726293 494.27362888 394.21197182 494.2727624 392.88773251 494.27186966 C391.50532309 494.27445433 390.12291441 494.27746778 388.74050677 494.28087306 C384.9421077 494.28893445 381.14372755 494.29073215 377.34532094 494.29147053 C373.24835883 494.2933226 369.15140649 494.30087076 365.05445004 494.30760574 C356.09561691 494.32118387 347.13678827 494.32721308 338.17794657 494.3316164 C332.58250585 494.33437992 326.98706686 494.3386175 321.39162731 494.34312057 C305.8954997 494.35531298 290.39937346 494.36561208 274.90324116 494.36899567 C273.91156656 494.36921523 272.91989197 494.3694348 271.89816663 494.36966102 C270.40711868 494.36998843 270.40711868 494.36998843 268.88594854 494.37032247 C266.87170148 494.37076593 264.85745442 494.37121249 262.84320736 494.37166214 C261.84407372 494.37188357 260.84494008 494.372105 259.81552966 494.37233314 C243.63107569 494.37627997 227.44666677 494.3937306 211.2622302 494.41702166 C194.6406646 494.44074842 178.01912159 494.45319814 161.39753878 494.45436358 C152.06729372 494.45527964 142.73710735 494.46101448 133.40687847 494.4791832 C125.46081187 494.49460211 117.51482211 494.49969411 109.56874339 494.49144509 C105.51675482 494.48754482 101.4649209 494.48843762 97.41295147 494.50250244 C93.69806962 494.5152789 89.98345802 494.51401127 86.26857634 494.50191173 C84.29957155 494.49904243 82.33056193 494.51086212 80.36159456 494.52333379 C65.87509493 494.44306079 52.95397877 490.5131231 42.27240658 480.41658401 C31.28277359 468.46689016 28.55001213 454.76777317 28.68982601 438.9770546 C28.68807769 437.48915337 28.68456802 436.00125336 28.67946935 434.51335984 C28.67059653 430.46080677 28.68642576 426.40868284 28.70658159 422.35618436 C28.72395429 417.9725965 28.71800299 413.58903027 28.7149725 409.20541763 C28.71288131 401.62248627 28.72536607 394.03969322 28.74792385 386.45679665 C28.78051668 375.49340268 28.7908583 364.53007519 28.79587582 353.56663803 C28.80461707 335.77659194 28.83120084 317.98661946 28.86908627 300.19661331 C28.90583668 282.92155194 28.9341336 265.6465106 28.95111752 248.371418 C28.95269386 246.77252448 28.95269386 246.77252448 28.95430204 245.14133009 C28.95952242 239.79355095 28.9645772 234.44577167 28.96954966 229.0979923 C29.01097525 184.77575315 29.08139174 140.45359427 29.17084408 96.13142776 C28.31750988 96.1380896 27.46417568 96.14475143 26.58498287 96.15161514 C18.5368399 96.21176609 10.48877261 96.25742242 2.44045639 96.28686428 C-1.69711948 96.30250959 -5.83450935 96.32372694 -9.97197819 96.35774612 C-13.96607443 96.39038036 -17.95999194 96.40828932 -21.95421124 96.41605949 C-23.47683176 96.42159573 -24.99944268 96.43240676 -26.52198696 96.44861794 C-28.65738662 96.4704469 -30.79205102 96.47339251 -32.92754459 96.47200394 C-34.74955639 96.48199669 -34.74955639 96.48199669 -36.6083765 96.49219131 C-40.13763691 96.09687442 -41.99911543 95.23410885 -44.82915592 93.13142776 C-46.80185156 90.2460371 -47.08419684 87.89722831 -47.10381413 84.44563675 C-47.11334614 83.52044739 -47.12287815 82.59525803 -47.13269901 81.64203262 C-47.13178761 80.64724396 -47.1308762 79.65245529 -47.12993717 78.62752151 C-47.1342223 77.59385956 -47.13850742 76.5601976 -47.1429224 75.49521255 C-47.14866509 73.30551764 -47.14916642 71.11580365 -47.14482975 68.9261055 C-47.14169053 65.60553413 -47.16505788 62.28587203 -47.19048405 58.96541214 C-47.19275937 56.83194971 -47.19345945 54.69848491 -47.19243717 52.56502151 C-47.20164692 51.58440247 -47.21085667 50.60378342 -47.2203455 49.59344864 C-47.13360965 36.40293809 -42.94023765 23.74694711 -33.83306217 14.01033401 C-24.40545435 5.17080309 -12.9891725 0.01599448 0 0 Z " fill="#FCC727" transform="translate(55.829155921936035,8.868572235107422)"/>
<path d="M0 0 C1.17297577 -0.00384115 2.34595154 -0.00768229 3.55447203 -0.01163983 C4.83908101 -0.01077335 6.12369 -0.00990687 7.44722652 -0.00901413 C8.82892325 -0.01159881 10.21061923 -0.01461225 11.59231418 -0.01801753 C15.38878264 -0.02607895 19.18523217 -0.02787663 22.98170817 -0.028615 C27.0766444 -0.03046709 31.17157086 -0.03801528 35.26650143 -0.04475021 C44.22126959 -0.05832871 53.17603328 -0.06435771 62.13081002 -0.06876087 C67.72424842 -0.07152452 73.31768509 -0.07576215 78.91112232 -0.08026505 C94.40295872 -0.09245786 109.89479373 -0.10275664 125.38663483 -0.10614014 C126.37805786 -0.1063597 127.36948089 -0.10657927 128.39094704 -0.10680549 C129.88161181 -0.10713291 129.88161181 -0.10713291 131.40239102 -0.10746694 C133.4161104 -0.1079104 135.42982978 -0.10835696 137.44354916 -0.10880661 C138.94185615 -0.10913875 138.94185615 -0.10913875 140.47043198 -0.10947761 C156.64774387 -0.11342376 172.82501067 -0.13087213 189.00230516 -0.15416613 C205.61822553 -0.17789819 222.23412329 -0.19034286 238.85006088 -0.19150805 C248.17642544 -0.19242386 257.50273127 -0.1981521 266.82907963 -0.21632767 C274.7725558 -0.2317538 282.71595508 -0.23683437 290.65944339 -0.22858956 C294.70953063 -0.22469174 298.75946316 -0.22557002 302.80953121 -0.23964691 C306.52384852 -0.25243826 310.23789571 -0.25114283 313.95221292 -0.2390562 C315.91849026 -0.23619178 317.88477249 -0.24799528 319.85101229 -0.26047826 C334.96812376 -0.17685091 347.08646507 3.75882937 358.29193783 14.10408401 C369.20334084 25.87751055 371.78959165 39.73049313 371.65186214 55.28580093 C371.65361046 56.77370216 371.65712014 58.26160217 371.66221881 59.74949569 C371.67109162 63.80204876 371.6552624 67.85417269 371.63510656 71.90667117 C371.61773387 76.29025903 371.62368517 80.67382526 371.62671566 85.0574379 C371.62880685 92.64036926 371.61632209 100.2231623 371.59376431 107.80605888 C371.56117147 118.76945285 371.55082985 129.73278034 371.54581234 140.6962175 C371.53707109 158.48626359 371.51048732 176.27623607 371.47260189 194.06624222 C371.43585148 211.34130359 371.40755456 228.61634493 371.39057064 245.89143753 C371.38951975 246.95736654 371.38846885 248.02329555 371.38738611 249.12152544 C371.38216573 254.46930458 371.37711096 259.81708386 371.3721385 265.16486323 C371.33071291 309.48710238 371.26029642 353.80926126 371.17084408 398.13142776 C372.13796322 398.11571732 373.10508236 398.10000687 374.10150814 398.08382034 C377.74692861 398.02883537 381.3923138 397.99483301 385.03803158 397.96663284 C386.60515191 397.95170024 388.17223162 397.93134661 389.73920345 397.90510941 C406.42790983 397.63301093 420.65385107 399.88656562 433.42084408 411.63142776 C443.52528127 422.28292047 447.66758327 435.15441988 447.42084408 449.60408401 C446.54372141 461.97973662 441.23702979 473.63077411 432.17084408 482.13142776 C422.96864994 489.82351825 412.38816444 494.24802636 400.33889484 494.26285553 C399.16530238 494.26669667 397.99170991 494.27053782 396.78255403 494.27449536 C395.49726293 494.27362888 394.21197182 494.2727624 392.88773251 494.27186966 C391.50532309 494.27445433 390.12291441 494.27746778 388.74050677 494.28087306 C384.9421077 494.28893445 381.14372755 494.29073215 377.34532094 494.29147053 C373.24835883 494.2933226 369.15140649 494.30087076 365.05445004 494.30760574 C356.09561691 494.32118387 347.13678827 494.32721308 338.17794657 494.3316164 C332.58250585 494.33437992 326.98706686 494.3386175 321.39162731 494.34312057 C305.8954997 494.35531298 290.39937346 494.36561208 274.90324116 494.36899567 C273.91156656 494.36921523 272.91989197 494.3694348 271.89816663 494.36966102 C270.40711868 494.36998843 270.40711868 494.36998843 268.88594854 494.37032247 C266.87170148 494.37076593 264.85745442 494.37121249 262.84320736 494.37166214 C261.84407372 494.37188357 260.84494008 494.372105 259.81552966 494.37233314 C243.63107569 494.37627997 227.44666677 494.3937306 211.2622302 494.41702166 C194.6406646 494.44074842 178.01912159 494.45319814 161.39753878 494.45436358 C152.06729372 494.45527964 142.73710735 494.46101448 133.40687847 494.4791832 C125.46081187 494.49460211 117.51482211 494.49969411 109.56874339 494.49144509 C105.51675482 494.48754482 101.4649209 494.48843762 97.41295147 494.50250244 C93.69806962 494.5152789 89.98345802 494.51401127 86.26857634 494.50191173 C84.29957155 494.49904243 82.33056193 494.51086212 80.36159456 494.52333379 C65.87509493 494.44306079 52.95397877 490.5131231 42.27240658 480.41658401 C31.28277359 468.46689016 28.55001213 454.76777317 28.68982601 438.9770546 C28.68807769 437.48915337 28.68456802 436.00125336 28.67946935 434.51335984 C28.67059653 430.46080677 28.68642576 426.40868284 28.70658159 422.35618436 C28.72395429 417.9725965 28.71800299 413.58903027 28.7149725 409.20541763 C28.71288131 401.62248627 28.72536607 394.03969322 28.74792385 386.45679665 C28.78051668 375.49340268 28.7908583 364.53007519 28.79587582 353.56663803 C28.80461707 335.77659194 28.83120084 317.98661946 28.86908627 300.19661331 C28.90583668 282.92155194 28.9341336 265.6465106 28.95111752 248.371418 C28.95269386 246.77252448 28.95269386 246.77252448 28.95430204 245.14133009 C28.95952242 239.79355095 28.9645772 234.44577167 28.96954966 229.0979923 C29.01097525 184.77575315 29.08139174 140.45359427 29.17084408 96.13142776 C28.31750988 96.1380896 27.46417568 96.14475143 26.58498287 96.15161514 C18.5368399 96.21176609 10.48877261 96.25742242 2.44045639 96.28686428 C-1.69711948 96.30250959 -5.83450935 96.32372694 -9.97197819 96.35774612 C-13.96607443 96.39038036 -17.95999194 96.40828932 -21.95421124 96.41605949 C-23.47683176 96.42159573 -24.99944268 96.43240676 -26.52198696 96.44861794 C-28.65738662 96.4704469 -30.79205102 96.47339251 -32.92754459 96.47200394 C-34.74955639 96.48199669 -34.74955639 96.48199669 -36.6083765 96.49219131 C-40.13763691 96.09687442 -41.99911543 95.23410885 -44.82915592 93.13142776 C-46.80185156 90.2460371 -47.08419684 87.89722831 -47.10381413 84.44563675 C-47.11334614 83.52044739 -47.12287815 82.59525803 -47.13269901 81.64203262 C-47.13178761 80.64724396 -47.1308762 79.65245529 -47.12993717 78.62752151 C-47.1342223 77.59385956 -47.13850742 76.5601976 -47.1429224 75.49521255 C-47.14866509 73.30551764 -47.14916642 71.11580365 -47.14482975 68.9261055 C-47.14169053 65.60553413 -47.16505788 62.28587203 -47.19048405 58.96541214 C-47.19275937 56.83194971 -47.19345945 54.69848491 -47.19243717 52.56502151 C-47.20164692 51.58440247 -47.21085667 50.60378342 -47.2203455 49.59344864 C-47.13360965 36.40293809 -42.94023765 23.74694711 -33.83306217 14.01033401 C-24.40545435 5.17080309 -12.9891725 0.01599448 0 0 Z M39.17084408 19.13142776 C40.64979386 22.87540454 42.29938321 26.41110964 44.17084408 29.97127151 C46.57101238 35.15601008 47.42118299 39.56518496 47.42417717 45.27893162 C47.42727444 45.97876827 47.43037172 46.67860493 47.43356284 47.39964876 C47.44152308 49.74435224 47.43528278 52.08880024 47.4291296 54.43350601 C47.43198447 56.13168952 47.4357226 57.82987173 47.4402681 59.52805156 C47.45025414 64.19459147 47.44787428 68.86105626 47.44354117 73.52760184 C47.44106616 78.56044441 47.4501317 83.59326717 47.45792294 88.62610245 C47.4699715 97.3478854 47.47507606 106.06965008 47.47580433 114.79144096 C47.47712955 127.4115139 47.49223764 140.03154245 47.5112995 152.65159973 C47.54214786 173.13941778 47.56631012 193.62723695 47.58417416 214.11507034 C47.58524684 215.34144983 47.58631952 216.56782931 47.5874247 217.83137181 C47.59924396 231.51279003 47.6094493 245.19420869 47.61786556 258.87562943 C47.62093944 263.83597693 47.62402824 268.79632443 47.62714291 273.75667191 C47.62790825 274.98064911 47.62867358 276.20462632 47.62946212 277.46569375 C47.64254264 297.87283972 47.66718087 318.27995359 47.70088631 338.68707579 C47.72117974 351.27527531 47.73146521 363.86340616 47.7288971 376.45162215 C47.72786218 385.07742202 47.73749651 393.70316761 47.75553613 402.32894854 C47.76558263 407.30622297 47.77070757 412.2833773 47.76276875 417.26065826 C47.75558526 421.8185693 47.76218304 426.37624649 47.77965415 430.93412777 C47.78353341 432.58146915 47.78236748 434.22883191 47.77559727 435.87616394 C47.73022609 447.86865637 48.39810177 458.13180419 57.17084408 467.13142776 C66.04880719 474.22146775 73.99483742 475.13900557 85.17084408 474.13142776 C88.69143409 473.01146832 91.29591463 471.42903873 94.17084408 469.13142776 C94.81666439 468.62353714 95.4624847 468.11564651 96.12787533 467.59236526 C101.89170301 462.47165941 104.59527323 456.55137746 105.58490658 448.95174026 C105.98355716 440.03455623 104.13945447 433.47835429 98.08100033 426.84236526 C92.29666878 421.40410483 87.06363738 418.2623976 79.04584408 417.69392776 C74.62476924 417.37092686 72.29373319 416.45579359 69.17084408 413.13142776 C67.72653553 410.24281067 67.79395902 408.33495075 68.17084408 405.13142776 C70.20942099 402.15909972 71.84807705 400.39713856 75.46680129 399.67022741 C78.44289217 399.48158299 81.38198681 399.46247341 84.36403561 399.49219131 C86.07941046 399.4796578 86.07941046 399.4796578 87.82943934 399.46687108 C91.66986716 399.44488544 95.50934389 399.45856638 99.34979916 399.47200394 C102.09929479 399.46632705 104.84874224 399.45313113 107.59821224 399.44023514 C113.52191612 399.41639121 119.44541193 399.41078733 125.36915684 399.41758156 C133.93384232 399.42737843 142.49829696 399.40965221 151.06294509 399.38521425 C164.95853565 399.34631241 178.85406023 399.32966099 192.7497015 399.32698441 C206.24778281 399.32433679 219.74578701 399.31122115 233.24384212 399.28401566 C234.49192935 399.28150559 234.49192935 399.28150559 235.76523045 399.27894481 C239.93943353 399.27048532 244.11363614 399.26181991 248.28783858 399.25305212 C282.91549653 399.18058408 317.54311461 399.14421878 352.17084408 399.13142776 C352.23950847 354.05973392 352.29237199 308.98804561 352.32404007 263.91630978 C352.32779219 258.59535618 352.33167516 253.27440269 352.335639 247.95344925 C352.33642593 246.8941418 352.33721286 245.83483435 352.33802364 244.74342667 C352.35107808 227.59056279 352.37473214 210.43772908 352.40230247 193.28488309 C352.43035559 175.68489838 352.44702014 158.08492946 352.45310956 140.4849233 C352.45722619 129.62450986 352.47022901 118.76418166 352.49459348 107.90379446 C352.5104495 100.45674159 352.51524473 93.0097328 352.51134821 85.56266428 C352.50942647 81.26590046 352.51237558 76.96928563 352.5284605 72.67254829 C352.54308872 68.73614874 352.54377756 64.79999798 352.53354076 60.86358684 C352.53227607 59.44216595 352.53605689 58.02072937 352.54549363 56.59933925 C352.6174746 45.08453594 351.45415646 35.64782036 343.17084408 27.13142776 C334.61506822 20.21627559 327.2684709 18.83413204 316.47775936 18.89091873 C315.29248618 18.88920988 314.107213 18.88750103 312.88602245 18.8857404 C309.60446462 18.88301904 306.3230654 18.88925696 303.04152632 18.89929652 C299.4996765 18.90794289 295.95783393 18.90501002 292.41597652 18.90349197 C286.28224726 18.90244387 280.14856059 18.90871264 274.01484203 18.91996765 C265.14654862 18.93622984 256.27827578 18.94143139 247.40996908 18.94394363 C233.0213298 18.94831961 218.63271322 18.96162607 204.24408627 18.98054886 C190.26785044 18.99891018 176.29162078 19.01306545 162.31537533 19.02156448 C161.02287726 19.02235265 161.02287726 19.02235265 159.70426811 19.02315675 C155.38149537 19.02576684 151.05872257 19.02829426 146.73594975 19.03078055 C110.88089851 19.05151001 75.02587306 19.08673289 39.17084408 19.13142776 Z " fill="#040300" transform="translate(55.829155921936035,8.868572235107422)"/>
<path d="M0 0 C0.95967353 -0.00779995 1.91934707 -0.01559991 2.90810162 -0.02363622 C6.12654765 -0.04359333 9.34381613 -0.0277765 12.56227112 -0.01205444 C14.86852205 -0.01882892 17.17476756 -0.02773109 19.48100281 -0.03860474 C25.74757322 -0.06142575 32.01373267 -0.0525495 38.28031039 -0.03670931 C44.83451886 -0.02406348 51.38869179 -0.03578691 57.94290161 -0.04364014 C69.65679395 -0.05432455 81.37051321 -0.03776995 93.08437557 -0.01234345 C103.70193743 0.00999011 114.31922592 0.00611958 124.93678284 -0.01693726 C137.26912817 -0.04370538 149.6012992 -0.05364899 161.93366963 -0.03887594 C168.46084568 -0.03107735 174.98783349 -0.03005116 181.51499748 -0.04655838 C187.65221409 -0.06099467 193.78891421 -0.05099588 199.92607498 -0.0220871 C202.17951792 -0.01547163 204.43300427 -0.01738174 206.68642998 -0.02840042 C209.76094255 -0.04204868 212.83379647 -0.02494735 215.90820312 0 C216.80168833 -0.01115361 217.69517353 -0.02230722 218.61573404 -0.03379881 C222.8515976 0.03294793 225.67819429 0.31715325 229.07098198 2.98489571 C232.07444298 6.23806425 232.27127629 7.71346561 232.27809143 12.08999634 C232.2937767 13.3748291 232.30946198 14.65966187 232.32562256 15.98342896 C232.31156379 17.37768995 232.29609268 18.77193732 232.27931213 20.16616821 C232.28081554 21.60436318 232.28424799 23.04255731 232.28952026 24.48074341 C232.29384636 27.49039609 232.27705739 30.49897529 232.24488831 33.50845337 C232.20510479 37.35911146 232.21440926 41.20775736 232.23912334 45.05847931 C232.25333125 48.02695097 232.24320065 50.9949555 232.22561073 53.96339417 C232.21977599 55.3827045 232.22104107 56.80206294 232.22963524 58.22135925 C232.23765765 60.20757104 232.20978636 62.19382898 232.18043518 64.17984009 C232.17344101 65.30837402 232.16644684 66.43690796 232.15924072 67.59963989 C231.32020717 71.56864309 229.58479047 73.07170177 226.51759338 75.63491821 C223.11007169 77.33867906 219.21457015 76.78285956 215.46514893 76.78208923 C214.04067584 76.78760427 214.04067584 76.78760427 212.58742553 76.79323071 C209.38535046 76.80429897 206.1833078 76.80811669 202.98121643 76.81192017 C200.69349565 76.81818238 198.40577589 76.82482896 196.11805725 76.83183289 C189.88870333 76.84926371 183.65935709 76.85980005 177.42998481 76.86803842 C173.54136314 76.87318352 169.65274389 76.87925943 165.76412392 76.88554955 C155.00078789 76.9024214 144.23745558 76.91705688 133.4741087 76.92429829 C130.68041673 76.92620823 127.88672477 76.92812855 125.09303284 76.93008423 C124.39866215 76.93056797 123.70429146 76.93105171 122.98887924 76.93155011 C111.73734404 76.93985266 100.48591508 76.96519319 89.23442628 76.99766491 C77.68673512 77.03072019 66.13911395 77.04841273 54.59137374 77.05194253 C48.10609935 77.05429773 41.62099286 77.06331939 35.13576317 77.0884037 C29.03645368 77.11161381 22.93742349 77.11594605 16.83808136 77.10564232 C14.59710323 77.10514515 12.35611168 77.11151863 10.11517525 77.12519836 C7.06010813 77.14280727 4.00605535 77.1358651 0.95098877 77.12266541 C0.06032626 77.13363465 -0.83033624 77.1446039 -1.74798852 77.15590554 C-5.86237267 77.11286909 -7.95040236 76.96980308 -11.50949383 74.72943401 C-14.74186964 71.29782657 -14.62277038 69.15526727 -14.67527771 64.52041626 C-14.69134064 63.2353569 -14.70740356 61.95029755 -14.72395325 60.626297 C-14.73544012 59.21641704 -14.74604876 57.80652969 -14.75584412 56.39663696 C-14.76116779 55.68759531 -14.76649147 54.97855366 -14.77197647 54.24802589 C-14.79870283 50.4945954 -14.81807874 46.74119809 -14.83250427 42.98770142 C-14.84914581 39.11367426 -14.89391917 35.2404989 -14.94487572 31.36679363 C-14.978558 28.38560528 -14.99008264 25.40461882 -14.99573135 22.42325783 C-15.00244193 20.99549669 -15.01765935 19.56774876 -15.04162216 18.14017296 C-15.07328613 16.13955075 -15.07030787 14.13847168 -15.06590271 12.13760376 C-15.07398956 11.00002121 -15.08207642 9.86243866 -15.09040833 8.69038391 C-13.41864335 0.28905797 -7.19883043 -0.08964107 0 0 Z " fill="#020100" transform="translate(147.48240661621094,56.365081787109375)"/>
<path d="M0 0 C36.77404376 -0.09159117 73.54807031 -0.16205682 110.32220509 -0.20426132 C114.66548717 -0.20926404 119.00876903 -0.21444134 123.35205078 -0.21972656 C124.64903355 -0.22130043 124.64903355 -0.22130043 125.97221799 -0.22290608 C139.96552708 -0.24030284 153.95877031 -0.27183651 167.95204036 -0.30861118 C182.31454215 -0.34604091 196.67700949 -0.36824015 211.03955805 -0.37635398 C219.89929091 -0.38183754 228.75883763 -0.39914571 237.61851318 -0.43166587 C243.69710462 -0.45283885 249.77560006 -0.45919376 255.85422568 -0.45400551 C259.35930335 -0.45144804 262.86405614 -0.45531886 266.36907578 -0.4768219 C270.17561969 -0.49675685 273.98137064 -0.49192515 277.78793335 -0.48101807 C279.43680324 -0.49849512 279.43680324 -0.49849512 281.11898363 -0.51632524 C289.33361671 -0.4528137 296.64485362 1.2272641 303.3125 6.25 C310.12103577 13.21687381 312.29600561 19.47160344 312.31689453 29.1640625 C312.15574043 37.44061905 309.24500908 43.45430827 303.703125 49.5 C300.80106328 52.05594426 297.58440823 53.60972401 294 55 C293.20655874 55.34203901 292.41311749 55.68407803 291.59563255 56.03648186 C286.49130995 57.4042822 281.60707996 57.26829932 276.34487915 57.24050903 C274.57309471 57.24307231 274.57309471 57.24307231 272.76551664 57.24568737 C269.49536018 57.24840866 266.22536288 57.24217098 262.95522523 57.23213124 C259.42564547 57.22348469 255.89607297 57.22641776 252.3664856 57.22793579 C246.25403719 57.22898388 240.14163153 57.22271523 234.02919388 57.21146011 C225.19166955 57.19519777 216.35416586 57.18999635 207.51662819 57.18748413 C193.17790318 57.18310818 178.83920093 57.16980179 164.50048828 57.15087891 C150.57275506 57.13251752 136.64502803 57.11836228 122.71728516 57.10986328 C121.85860677 57.10933783 120.99992839 57.10881239 120.11522944 57.10827102 C115.80744077 57.10566092 111.49965205 57.10313351 107.1918633 57.10064721 C71.46122597 57.07991783 35.73061508 57.04469502 0 57 C1.87919008 52.27688597 3.87153824 47.60746001 5.87890625 42.9375 C9.7217772 32.86837472 9.36878467 20.52468681 5.265625 10.625 C4.1695558 8.3516713 3.05090236 6.09249845 1.92089844 3.8359375 C1.56106873 3.11712402 1.20123901 2.39831055 0.83050537 1.65771484 C0.5564386 1.11066895 0.28237183 0.56362305 0 0 Z " fill="#F27A00" transform="translate(171,427)"/>
<path d="M0 0 C68.64 0 137.28 0 208 0 C208 12.54 208 25.08 208 38 C139.36 38 70.72 38 0 38 C0 25.46 0 12.92 0 0 Z " fill="#F37B00" transform="translate(152,76)"/>
<path d="M0 0 C0.96446265 -0.00779995 1.9289253 -0.01559991 2.9226141 -0.02363622 C6.15721167 -0.04359388 9.39063765 -0.02777631 12.62524414 -0.01205444 C14.94296964 -0.01882885 17.26068976 -0.02773098 19.57839966 -0.03860474 C25.87589301 -0.0614253 32.17297743 -0.05255001 38.47047806 -0.03670931 C45.05585089 -0.02406477 51.64118832 -0.03578641 58.2265625 -0.04364014 C69.99501493 -0.05432422 81.76329507 -0.03776995 93.53171766 -0.01234345 C104.20133181 0.00999534 114.87067396 0.00611518 125.5402832 -0.01693726 C137.93158235 -0.043697 150.32270806 -0.05365386 162.71403217 -0.03887594 C169.2730341 -0.0310742 175.83184867 -0.03005993 182.39083862 -0.04655838 C188.55677854 -0.06098432 194.72220399 -0.05101493 200.88808823 -0.0220871 C203.15323914 -0.01546636 205.41843322 -0.01739069 207.68356705 -0.02840042 C210.77156606 -0.04202776 213.85790789 -0.02497289 216.94580078 0 C217.84608977 -0.01115361 218.74637877 -0.02230722 219.67394924 -0.03379881 C224.13766788 0.03641173 225.91088702 0.19126558 229.52684021 3.04569435 C231.95557607 6.27711592 232.20861708 7.80463293 231.97290039 11.70132446 C231.12453292 14.98212053 229.06107099 16.6013556 226.47290039 18.63491821 C223.07603368 20.33335157 219.20251005 19.78286101 215.46514893 19.78208923 C214.52028932 19.78576592 213.57542972 19.78944261 212.60193801 19.79323071 C209.41601642 19.80429889 206.23012742 19.80811669 203.04418945 19.81192017 C200.76794327 19.81818243 198.49169812 19.82482902 196.2154541 19.83183289 C190.0170238 19.84926424 183.81860123 19.85980037 177.62015247 19.86803842 C173.75028409 19.87318383 169.88041813 19.87925975 166.01055145 19.88554955 C155.29782979 19.90242213 144.58511187 19.91705716 133.8723793 19.92429829 C131.09175871 19.92620821 128.31113813 19.92812854 125.53051758 19.93008423 C124.83939982 19.93056797 124.14828206 19.93105171 123.43622133 19.93155011 C112.24032689 19.93985057 101.04453928 19.96518719 89.84869149 19.99766491 C78.35636608 20.03073107 66.86411102 20.04841384 55.37173629 20.05194253 C48.9182877 20.05429677 42.46500793 20.06330594 36.01160431 20.0884037 C29.94101849 20.11163068 23.87071328 20.11593919 17.8000946 20.10564232 C15.57082437 20.10514555 13.34154057 20.11150738 11.11231232 20.12519836 C8.07073164 20.14283459 5.03016701 20.13585145 1.98858643 20.12266541 C1.10472771 20.13363465 0.22086899 20.1446039 -0.68977332 20.15590554 C-6.24363829 20.09770624 -9.25744788 19.25877877 -13.52709961 15.63491821 C-15.10608014 12.47695715 -15.34638132 9.02821186 -14.52709961 5.63491821 C-10.26734112 -0.07287751 -6.61992929 -0.08201378 0 0 Z " fill="#060501" transform="translate(147.527099609375,208.36508178710938)"/>
<path d="M0 0 C0.95967353 -0.00779995 1.91934707 -0.01559991 2.90810162 -0.02363622 C6.12654765 -0.04359333 9.34381613 -0.0277765 12.56227112 -0.01205444 C14.86852205 -0.01882892 17.17476756 -0.02773109 19.48100281 -0.03860474 C25.74757322 -0.06142575 32.01373267 -0.0525495 38.28031039 -0.03670931 C44.83451886 -0.02406348 51.38869179 -0.03578691 57.94290161 -0.04364014 C69.65679395 -0.05432455 81.37051321 -0.03776995 93.08437557 -0.01234345 C103.70193743 0.00999011 114.31922592 0.00611958 124.93678284 -0.01693726 C137.26912817 -0.04370538 149.6012992 -0.05364899 161.93366963 -0.03887594 C168.46084568 -0.03107735 174.98783349 -0.03005116 181.51499748 -0.04655838 C187.65221409 -0.06099467 193.78891421 -0.05099588 199.92607498 -0.0220871 C202.17951792 -0.01547163 204.43300427 -0.01738174 206.68642998 -0.02840042 C209.76094255 -0.04204868 212.83379647 -0.02494735 215.90820312 0 C216.80168833 -0.01115361 217.69517353 -0.02230722 218.61573404 -0.03379881 C222.89022945 0.03355667 225.6729223 0.31922439 229.07057285 3.04569435 C231.51759338 5.63491821 231.51759338 5.63491821 232.27931213 7.69741821 C232.12285465 11.78178199 231.82385517 13.25612074 229.14259338 16.57241821 C224.63230311 20.11621771 221.0186557 19.78323021 215.46514893 19.78208923 C214.51550021 19.78576592 213.56585148 19.78944261 212.58742553 19.79323071 C209.38535046 19.80429897 206.1833078 19.80811669 202.98121643 19.81192017 C200.69349565 19.81818238 198.40577589 19.82482896 196.11805725 19.83183289 C189.88870333 19.84926371 183.65935709 19.85980005 177.42998481 19.86803842 C173.54136314 19.87318352 169.65274389 19.87925943 165.76412392 19.88554955 C155.00078789 19.9024214 144.23745558 19.91705688 133.4741087 19.92429829 C130.68041673 19.92620823 127.88672477 19.92812855 125.09303284 19.93008423 C124.39866215 19.93056797 123.70429146 19.93105171 122.98887924 19.93155011 C111.73734404 19.93985266 100.48591508 19.96519319 89.23442628 19.99766491 C77.68673512 20.03072019 66.13911395 20.04841273 54.59137374 20.05194253 C48.10609935 20.05429773 41.62099286 20.06331939 35.13576317 20.0884037 C29.03645368 20.11161381 22.93742349 20.11594605 16.83808136 20.10564232 C14.59710323 20.10514515 12.35611168 20.11151863 10.11517525 20.12519836 C7.06010813 20.14280727 4.00605535 20.1358651 0.95098877 20.12266541 C0.06032626 20.13363465 -0.83033624 20.1446039 -1.74798852 20.15590554 C-5.86237267 20.11286909 -7.95040236 19.96980308 -11.50949383 17.72943401 C-14.5549138 14.49630567 -14.68274565 12.19872665 -15.00584412 7.80288696 C-13.12626754 0.01807353 -6.58932327 -0.08205139 0 0 Z " fill="#020200" transform="translate(147.48240661621094,350.3650817871094)"/>
<path d="M0 0 C0.9448596 -0.00367669 1.8897192 -0.00735338 2.86321092 -0.01114148 C6.0491325 -0.02220966 9.23502151 -0.02602745 12.42095947 -0.02983093 C14.69720565 -0.0360932 16.9734508 -0.04273978 19.24969482 -0.04974365 C25.44812512 -0.067175 31.6465477 -0.07771114 37.84499645 -0.08594918 C41.71486483 -0.0910946 45.5847308 -0.09717052 49.45459747 -0.10346031 C60.16731913 -0.1203329 70.88003706 -0.13496792 81.59276962 -0.14220905 C84.37339021 -0.14411898 87.15401079 -0.1460393 89.93463135 -0.147995 C90.62574911 -0.14847874 91.31686687 -0.14896248 92.02892759 -0.14946087 C103.22482204 -0.15776133 114.42060964 -0.18309796 125.61645743 -0.21557567 C137.10878285 -0.24864184 148.60103791 -0.26632461 160.09341264 -0.26985329 C166.54686123 -0.27220753 173.000141 -0.2812167 179.45354462 -0.30631447 C185.52413043 -0.32954144 191.59443564 -0.33384995 197.66505432 -0.32355309 C199.89432456 -0.32305631 202.12360836 -0.32941815 204.35283661 -0.34310913 C207.39441729 -0.36074536 210.43498192 -0.35376222 213.4765625 -0.34057617 C214.80235057 -0.35703004 214.80235057 -0.35703004 216.15492225 -0.37381631 C221.70878721 -0.31561701 224.72259681 0.52331046 228.99224854 4.14717102 C230.50443523 7.17154441 230.16488222 9.80958636 229.99224854 13.14717102 C228.80456998 16.52748691 228.09399628 17.07933919 224.99224854 19.14717102 C223.11101681 19.40017068 223.11101681 19.40017068 220.94857883 19.40443993 C219.71019728 19.41411326 219.71019728 19.41411326 218.44679791 19.42398202 C217.54000111 19.42088482 216.63320432 19.41778762 215.69892883 19.41459656 C214.73546946 19.41912767 213.7720101 19.42365878 212.77935499 19.4283272 C209.53655066 19.44103267 206.29391296 19.43934688 203.05108643 19.43769836 C200.73203819 19.44367973 198.41299196 19.45048436 196.09394836 19.45805359 C189.78413071 19.47575951 183.47436727 19.48041087 177.16452718 19.48168516 C171.90330791 19.48358119 166.64210136 19.49093521 161.38088697 19.49802935 C149.68172173 19.51339632 137.98258299 19.5193657 126.28340847 19.51801865 C125.58122462 19.51793874 124.87904076 19.51785882 124.15557861 19.51777649 C123.1010196 19.51765385 123.1010196 19.51765385 122.02515637 19.51752873 C110.62750646 19.51671556 99.22998861 19.53586021 87.8323769 19.56405322 C76.13436272 19.59276143 64.43641906 19.60622815 52.73836893 19.60486567 C46.16875613 19.60435474 39.59929277 19.61011006 33.02971077 19.63122177 C26.85322607 19.65052764 20.67703457 19.65078109 14.50053978 19.63618851 C12.23011982 19.63408986 9.95968188 19.63886361 7.68929291 19.65090942 C4.59669675 19.66625837 1.50512469 19.65712217 -1.58744812 19.64164734 C-2.49201419 19.65193447 -3.39658027 19.66222159 -4.32855743 19.67282045 C-10.40038504 19.60538928 -10.40038504 19.60538928 -13.53402042 17.24126625 C-16.23253571 13.40681625 -16.48713725 10.86113126 -16.00775146 6.14717102 C-11.00981785 0.09704086 -7.47365797 -0.00154334 0 0 Z " fill="#050400" transform="translate(149.00775146484375,302.8528289794922)"/>
<path d="M0 0 C0.94894315 -0.00367669 1.89788631 -0.00735338 2.87558532 -0.01114148 C6.07532641 -0.0222098 9.27503507 -0.02602748 12.47479248 -0.02983093 C14.76089075 -0.03609319 17.04698799 -0.04273977 19.33308411 -0.04974365 C25.55837307 -0.0671751 31.78365434 -0.07771116 38.00896168 -0.08594918 C41.89558103 -0.09109457 45.78219796 -0.09717049 49.66881561 -0.10346031 C60.42786042 -0.1203329 71.18690151 -0.13496794 81.94595718 -0.14220905 C84.73860933 -0.14411898 87.53126146 -0.14603931 90.32391357 -0.147995 C91.01802195 -0.14847874 91.71213033 -0.14896248 92.42727229 -0.14946087 C103.67166546 -0.15776137 114.91595226 -0.18309806 126.16029897 -0.21557567 C137.7023449 -0.24864156 149.24432078 -0.26632458 160.78641582 -0.26985329 C167.26780977 -0.27220756 173.74903564 -0.28121706 180.23038483 -0.30631447 C186.32723512 -0.32954102 192.423806 -0.33385012 198.52068901 -0.32355309 C200.75963455 -0.3230563 202.99859359 -0.32941843 205.23749733 -0.34310913 C208.29221376 -0.36074465 211.34591844 -0.35376255 214.40063477 -0.34057617 C215.73225926 -0.35703004 215.73225926 -0.35703004 217.09078526 -0.37381631 C222.65469488 -0.31575873 225.67812757 0.51429606 229.95428467 4.14717102 C231.50452931 7.2476603 231.24420482 9.7261132 230.95428467 13.14717102 C229.15866062 15.90046123 227.90173545 17.67344563 224.95428467 19.14717102 C221.90429455 19.2564455 218.87658947 19.30382363 215.82591248 19.30780029 C214.86809665 19.31288811 213.91028082 19.31797593 212.92344028 19.32321793 C209.69373301 19.33899302 206.46404819 19.34748073 203.23431396 19.35591125 C200.92688859 19.3654455 198.61946466 19.37533646 196.31204224 19.38555908 C188.71754665 19.41698896 181.12303995 19.43721347 173.52850342 19.45576477 C171.59265707 19.46071075 171.59265707 19.46071075 169.61770272 19.46575665 C157.45464364 19.49653532 145.29158382 19.52341433 133.12849712 19.54017544 C130.31074197 19.54412503 127.49298691 19.54812801 124.67523193 19.55220032 C123.97488002 19.55320868 123.2745281 19.55421704 122.5529534 19.55525596 C111.20436309 19.57226765 99.85599065 19.61338201 88.50750675 19.66422331 C76.86037795 19.71597405 65.21337305 19.74463159 53.56613094 19.75237232 C47.02487021 19.75733827 40.48399673 19.77250946 33.9428463 19.81211662 C27.79091572 19.8488759 21.63959529 19.85742753 15.48757553 19.84411049 C13.22723136 19.84416461 10.96686088 19.85453171 8.70661736 19.87586212 C5.62486998 19.90339511 2.54537078 19.89410078 -0.53639221 19.87542725 C-1.88405882 19.90061964 -1.88405882 19.90061964 -3.25895101 19.92632097 C-9.12738221 19.83720786 -9.12738221 19.83720786 -11.7214855 17.88799489 C-14.13994246 15.15437887 -15.03781247 13.19722248 -15.60821533 9.58467102 C-14.96001122 5.62342365 -13.85772159 3.95917728 -11.04571533 1.14717102 C-7.63979748 -0.55578791 -3.74760577 -0.00077054 0 0 Z " fill="#020200" transform="translate(148.04571533203125,160.8528289794922)"/>
<path d="M0 0 C1.42447308 -0.00445668 1.42447308 -0.00445668 2.8777234 -0.0090034 C6.07980187 -0.01771843 9.28184308 -0.01920101 12.4839325 -0.02069092 C14.77165304 -0.02531711 17.05937281 -0.03034149 19.34709167 -0.03573608 C25.57644885 -0.0488812 31.80579524 -0.05530914 38.03516412 -0.05974674 C41.9237859 -0.06267403 45.81240472 -0.06677818 49.70102501 -0.07125092 C60.46436258 -0.08336284 71.22769626 -0.09374388 81.99104023 -0.09712601 C82.6801656 -0.09734557 83.36929097 -0.09756514 84.07929892 -0.09779136 C84.77008831 -0.09800964 85.46087769 -0.09822791 86.17260009 -0.09845281 C87.57243876 -0.09889627 88.97227742 -0.09934284 90.37211609 -0.09979248 C91.06648678 -0.10001391 91.76085746 -0.10023534 92.47626968 -0.10046348 C103.72778393 -0.10441155 114.97923342 -0.12186519 126.23072264 -0.145152 C137.7784122 -0.1688592 149.32606002 -0.18106953 160.87377518 -0.18249393 C167.35901666 -0.18354383 173.84416683 -0.18949106 180.32938576 -0.20731354 C186.42866175 -0.2237487 192.52777737 -0.22597187 198.62706757 -0.21717453 C200.86804063 -0.21640171 203.10902215 -0.22077889 205.34997368 -0.23063278 C208.40489542 -0.24327996 211.45924296 -0.23751472 214.51416016 -0.22705078 C215.40482266 -0.23510719 216.29548517 -0.24316359 217.21313745 -0.25146413 C221.93896473 -0.21350185 225.13857633 0.02551272 228.94755554 3.14044189 C231.43914594 6.87782749 231.40548839 8.71375772 230.94755554 13.14044189 C228.81076269 16.52983745 227.77007884 17.86626746 223.94755554 19.14044189 C220.88261221 19.24344077 217.84013912 19.28824473 214.77485657 19.28761292 C213.34910185 19.29312795 213.34910185 19.29312795 211.89454401 19.29875439 C208.695575 19.3098062 205.49663845 19.31363758 202.2976532 19.31744385 C200.00978492 19.32370724 197.72191765 19.33035393 195.43405151 19.33735657 C189.2088889 19.35477486 182.98373397 19.36532006 176.75855303 19.3735621 C172.8721036 19.37870926 168.98565657 19.38478504 165.09920883 19.39107323 C154.34012142 19.40794182 143.58103773 19.42257791 132.82193947 19.42982197 C130.03047815 19.43173187 127.23901683 19.4336522 124.44755554 19.43560791 C123.75375036 19.43609165 123.05994517 19.43657539 122.34511559 19.43707379 C111.10011049 19.44537825 99.85521162 19.4707234 88.61025293 19.50318859 C77.06705017 19.53624344 65.5239174 19.55393629 53.98066556 19.55746621 C47.49875949 19.55982123 41.01702141 19.56884077 34.53516006 19.59392738 C28.43994115 19.61713673 22.34500172 19.62147005 16.24975014 19.611166 C14.01038371 19.61066883 11.77100385 19.61704224 9.53167915 19.63072205 C6.47885483 19.64833091 3.42704559 19.64138885 0.3742218 19.62818909 C-0.51575858 19.63915833 -1.40573897 19.65012758 -2.32268846 19.66142923 C-6.43552335 19.61837661 -8.52138258 19.47478001 -12.0791111 17.2349577 C-14.64385722 14.51271046 -15.00857404 13.60546836 -15.36494446 9.82794189 C-15.00368504 5.56508079 -14.03252392 4.12052135 -11.05244446 1.14044189 C-7.64483588 -0.5633624 -3.74931985 -0.00362033 0 0 Z " fill="#010000" transform="translate(148.0524444580078,255.85955810546875)"/>
<path d="M0 0 C5.85646544 4.05447607 9.75178244 9.25534731 12 16 C12.08506322 18.73135251 12.11599182 21.43712315 12.09765625 24.16796875 C12.09664917 24.87264282 12.09564209 25.57731689 12.09460449 26.30334473 C12.08937914 28.93141308 12.07541786 31.5594582 12.0625 34.1875 C12.041875 40.065625 12.02125 45.94375 12 52 C-6.48 52 -24.96 52 -44 52 C-44.061875 46.39 -44.12375 40.78 -44.1875 35 C-44.22846802 32.36837891 -44.22846802 32.36837891 -44.27026367 29.68359375 C-44.27903851 28.26823613 -44.28668008 26.85287085 -44.29296875 25.4375 C-44.30831665 24.72271484 -44.32366455 24.00792969 -44.33947754 23.27148438 C-44.34369532 15.01587971 -41.51309325 8.79950204 -35.90234375 2.76171875 C-26.2873671 -6.14249987 -10.97293442 -6.9147624 0 0 Z " fill="#F47B00" transform="translate(73,33)"/>
<path d="M0 0 C0.66 0.33 1.32 0.66 2 1 C-2.29 5.29 -6.58 9.58 -11 14 C-11 9.40845608 -8.09282279 7.18698368 -5 4 C-3.3719908 2.61973133 -1.71956118 1.26438322 0 0 Z " fill="#573806" transform="translate(29,17)"/>
</svg>
