<?xml version="1.0" encoding="UTF-8"?>
<!DOCTYPE svg PUBLIC "-//W3C//DTD SVG 1.1//EN" "http://www.w3.org/Graphics/SVG/1.1/DTD/svg11.dtd">
<svg xmlns="http://www.w3.org/2000/svg" version="1.1" width="148px" height="157px" style="shape-rendering:geometricPrecision; text-rendering:geometricPrecision; image-rendering:optimizeQuality; fill-rule:evenodd; clip-rule:evenodd" xmlns:xlink="http://www.w3.org/1999/xlink">
<g><path style="opacity:1" fill="#fefefe" d="M -0.5,-0.5 C 48.8333,-0.5 98.1667,-0.5 147.5,-0.5C 147.5,51.8333 147.5,104.167 147.5,156.5C 98.1667,156.5 48.8333,156.5 -0.5,156.5C -0.5,104.167 -0.5,51.8333 -0.5,-0.5 Z"/></g>
<g><path style="opacity:1" fill="#93d3f5" d="M 79.5,45.5 C 81.8984,45.2594 83.8984,45.9261 85.5,47.5C 81.6909,47.0125 77.8576,46.6792 74,46.5C 70.1952,46.3037 66.6952,46.9704 63.5,48.5C 62.1667,48.5 60.8333,48.5 59.5,48.5C 61.0188,47.5902 62.6854,46.7568 64.5,46C 69.4889,45.5007 74.4889,45.3341 79.5,45.5 Z"/></g>
<g><path style="opacity:1" fill="#21a1e6" d="M 59.5,48.5 C 60.8333,48.5 62.1667,48.5 63.5,48.5C 70.8409,48.3337 78.1742,48.5003 85.5,49C 89.337,51.9161 93.6704,53.7495 98.5,54.5C 99.6049,55.6005 100.938,56.2671 102.5,56.5C 104.909,58.9024 106.909,61.5691 108.5,64.5C 108.427,66.0269 109.094,67.0269 110.5,67.5C 111.674,68.5137 112.34,69.847 112.5,71.5C 112.259,73.8984 112.926,75.8984 114.5,77.5C 114.5,77.8333 114.5,78.1667 114.5,78.5C 114.886,86.6194 114.219,94.6194 112.5,102.5C 112.167,103.833 111.833,105.167 111.5,106.5C 109.917,108.663 108.584,110.996 107.5,113.5C 104.5,115.833 101.833,118.5 99.5,121.5C 96.331,122.917 93.331,124.583 90.5,126.5C 87.5394,127.323 84.5394,127.99 81.5,128.5C 73.219,129.213 65.219,128.213 57.5,125.5C 54.9801,123.396 52.6468,121.063 50.5,118.5C 48.8983,119.55 48.065,118.883 48,116.5C 46.108,115.87 44.4413,114.87 43,113.5C 42.1519,108.754 39.6519,105.42 35.5,103.5C 34.6908,101.972 34.0241,100.306 33.5,98.5C 33.5,97.1667 33.5,95.8333 33.5,94.5C 33.3357,87.7978 33.669,81.1311 34.5,74.5C 34.7073,71.7594 35.7073,69.4261 37.5,67.5C 39.369,65.9663 40.7023,63.9663 41.5,61.5C 44.1667,58.1667 47.1667,55.1667 50.5,52.5C 53.3777,50.8946 56.3777,49.5612 59.5,48.5 Z"/></g>
<g><path style="opacity:1" fill="#e7fcfe" d="M 79.5,45.5 C 74.4889,45.3341 69.4889,45.5007 64.5,46C 62.6854,46.7568 61.0188,47.5902 59.5,48.5C 56.3777,49.5612 53.3777,50.8946 50.5,52.5C 50.281,51.325 50.6143,50.325 51.5,49.5C 57.0774,47.251 62.7441,45.251 68.5,43.5C 72.331,44.0272 75.9976,44.6939 79.5,45.5 Z"/></g>
<g><path style="opacity:1" fill="#3aa2da" d="M 85.5,47.5 C 89.7338,48.6172 93.7338,50.2839 97.5,52.5C 97.8333,53.1667 98.1667,53.8333 98.5,54.5C 93.6704,53.7495 89.337,51.9161 85.5,49C 78.1742,48.5003 70.8409,48.3337 63.5,48.5C 66.6952,46.9704 70.1952,46.3037 74,46.5C 77.8576,46.6792 81.6909,47.0125 85.5,47.5 Z"/></g>
<g><path style="opacity:1" fill="#bde8fb" d="M 97.5,52.5 C 99.7488,53.0798 101.415,54.4131 102.5,56.5C 100.938,56.2671 99.6049,55.6005 98.5,54.5C 98.1667,53.8333 97.8333,53.1667 97.5,52.5 Z"/></g>
<g><path style="opacity:1" fill="#e5fcff" d="M 37.5,65.5 C 37.5,66.1667 37.5,66.8333 37.5,67.5C 35.7073,69.4261 34.7073,71.7594 34.5,74.5C 33.4625,75.9303 32.7959,77.597 32.5,79.5C 32.1667,79.5 31.8333,79.5 31.5,79.5C 32.0129,75.454 32.8462,71.454 34,67.5C 34.8159,66.1772 35.9826,65.5106 37.5,65.5 Z"/></g>
<g><path style="opacity:1" fill="#5db1e1" d="M 41.5,61.5 C 40.7023,63.9663 39.369,65.9663 37.5,67.5C 37.5,66.8333 37.5,66.1667 37.5,65.5C 38.4725,63.8608 39.8058,62.5274 41.5,61.5 Z"/></g>
<g><path style="opacity:1" fill="#73c5e8" d="M 108.5,64.5 C 108.833,64.5 109.167,64.5 109.5,64.5C 110.11,65.391 110.443,66.391 110.5,67.5C 109.094,67.0269 108.427,66.0269 108.5,64.5 Z"/></g>
<g><path style="opacity:1" fill="#46ace1" d="M 61.5,72.5 C 58.9066,73.7536 56.5732,75.4202 54.5,77.5C 54.67,76.1779 54.3366,75.0113 53.5,74C 55.6096,73.4456 57.6096,72.6123 59.5,71.5C 60.4164,71.5427 61.0831,71.8761 61.5,72.5 Z"/></g>
<g><path style="opacity:1" fill="#56b5e6" d="M 84.5,72.5 C 79.456,72.1725 74.456,72.5059 69.5,73.5C 74.6511,74.1668 79.6511,74.8335 84.5,75.5C 78.7104,75.0962 73.0438,75.5962 67.5,77C 68.3802,78.3561 68.7135,79.8561 68.5,81.5C 67.209,81.7373 66.209,81.404 65.5,80.5C 66.0869,78.3152 65.0869,76.6485 62.5,75.5C 62.1667,74.8333 61.8333,74.1667 61.5,73.5C 63.3146,74.6298 65.3146,75.2964 67.5,75.5C 67.1159,73.3352 67.7826,71.6685 69.5,70.5C 74.632,71.1208 79.632,71.7875 84.5,72.5 Z"/></g>
<g><path style="opacity:1" fill="#71bbe2" d="M 112.5,71.5 C 114.074,73.1016 114.741,75.1016 114.5,77.5C 112.926,75.8984 112.259,73.8984 112.5,71.5 Z"/></g>
<g><path style="opacity:1" fill="#20a1e5" d="M 84.5,75.5 C 84.8333,75.5 85.1667,75.5 85.5,75.5C 85.8245,82.6866 85.4912,89.6866 84.5,96.5C 83.3951,95.3995 82.0618,94.7329 80.5,94.5C 77.8753,95.4577 77.8753,96.6243 80.5,98C 74.5092,98.4995 68.5092,98.6662 62.5,98.5C 62.1765,91.9779 62.5098,85.6446 63.5,79.5C 64.1667,79.8333 64.8333,80.1667 65.5,80.5C 66.209,81.404 67.209,81.7373 68.5,81.5C 68.7135,79.8561 68.3802,78.3561 67.5,77C 73.0438,75.5962 78.7104,75.0962 84.5,75.5 Z"/></g>
<g><path style="opacity:1" fill="#54aad8" d="M 85.5,75.5 C 86.8194,82.6769 86.8194,90.0102 85.5,97.5C 84.8933,97.3764 84.56,97.0431 84.5,96.5C 85.4912,89.6866 85.8245,82.6866 85.5,75.5 Z"/></g>
<g><path style="opacity:1" fill="#d1f8fe" d="M 61.5,72.5 C 61.5,72.8333 61.5,73.1667 61.5,73.5C 61.8333,74.1667 62.1667,74.8333 62.5,75.5C 61.2389,79.2436 60.5722,83.2436 60.5,87.5C 60.5013,91.3492 60.8346,95.0159 61.5,98.5C 66.9273,100.146 72.594,101.146 78.5,101.5C 73.0247,102.489 67.358,102.822 61.5,102.5C 60.8333,101.5 60.1667,100.5 59.5,99.5C 59.8306,92.1365 59.4973,84.8032 58.5,77.5C 57.8933,77.6236 57.56,77.9569 57.5,78.5C 56.5178,79.1408 55.5178,79.8075 54.5,80.5C 53.8933,80.3764 53.56,80.0431 53.5,79.5C 53.8333,78.8333 54.1667,78.1667 54.5,77.5C 56.5732,75.4202 58.9066,73.7536 61.5,72.5 Z"/></g>
<g><path style="opacity:1" fill="#bcebfe" d="M 62.5,75.5 C 65.0869,76.6485 66.0869,78.3152 65.5,80.5C 64.8333,80.1667 64.1667,79.8333 63.5,79.5C 63.2172,78.7109 62.7172,78.0442 62,77.5C 61.5004,84.4921 61.3337,91.4921 61.5,98.5C 60.8346,95.0159 60.5013,91.3492 60.5,87.5C 60.5722,83.2436 61.2389,79.2436 62.5,75.5 Z"/></g>
<g><path style="opacity:1" fill="#3baae2" d="M 57.5,78.5 C 58.4907,84.979 58.824,91.6457 58.5,98.5C 57.5111,93.0247 57.1778,87.358 57.5,81.5C 55.712,81.7852 54.0453,81.4519 52.5,80.5C 52.6236,79.8933 52.9569,79.56 53.5,79.5C 53.56,80.0431 53.8933,80.3764 54.5,80.5C 55.5178,79.8075 56.5178,79.1408 57.5,78.5 Z"/></g>
<g><path style="opacity:1" fill="#7dcefb" d="M 88.5,76.5 C 89.1667,83.5 89.8333,90.5 90.5,97.5C 90.44,98.0431 90.1067,98.3764 89.5,98.5C 88.5027,91.1968 88.1694,83.8635 88.5,76.5 Z"/></g>
<g><path style="opacity:1" fill="#aae3fb" d="M 31.5,79.5 C 31.8333,79.5 32.1667,79.5 32.5,79.5C 32.1795,84.6946 32.5128,89.6946 33.5,94.5C 33.5,95.8333 33.5,97.1667 33.5,98.5C 32.8333,97.8333 32.1667,97.1667 31.5,96.5C 31.5,90.8333 31.5,85.1667 31.5,79.5 Z"/></g>
<g><path style="opacity:1" fill="#46a4d6" d="M 114.5,78.5 C 115.653,84.3188 115.819,90.3188 115,96.5C 114.434,98.7226 113.6,100.723 112.5,102.5C 114.219,94.6194 114.886,86.6194 114.5,78.5 Z"/></g>
<g><path style="opacity:1" fill="#84d1f7" d="M 57.5,78.5 C 57.56,77.9569 57.8933,77.6236 58.5,77.5C 59.4973,84.8032 59.8306,92.1365 59.5,99.5C 59.1667,99.5 58.8333,99.5 58.5,99.5C 58.5,99.1667 58.5,98.8333 58.5,98.5C 58.824,91.6457 58.4907,84.979 57.5,78.5 Z"/></g>
<g><path style="opacity:1" fill="#46a9dc" d="M 34.5,74.5 C 33.669,81.1311 33.3357,87.7978 33.5,94.5C 32.5128,89.6946 32.1795,84.6946 32.5,79.5C 32.7959,77.597 33.4625,75.9303 34.5,74.5 Z"/></g>
<g><path style="opacity:1" fill="#35a1dc" d="M 63.5,79.5 C 62.5098,85.6446 62.1765,91.9779 62.5,98.5C 68.5092,98.6662 74.5092,98.4995 80.5,98C 77.8753,96.6243 77.8753,95.4577 80.5,94.5C 82.4302,98.1002 85.0969,101.1 88.5,103.5C 86.8715,104.001 85.3715,104.001 84,103.5C 82.314,99.5521 80.814,99.5521 79.5,103.5C 79.6716,102.508 79.3382,101.842 78.5,101.5C 72.594,101.146 66.9273,100.146 61.5,98.5C 61.3337,91.4921 61.5004,84.4921 62,77.5C 62.7172,78.0442 63.2172,78.7109 63.5,79.5 Z"/></g>
<g><path style="opacity:1" fill="#ccf5fd" d="M 84.5,72.5 C 85.2625,73.2679 86.2625,73.7679 87.5,74C 88.2524,74.6708 88.5858,75.5041 88.5,76.5C 88.1694,83.8635 88.5027,91.1968 89.5,98.5C 90.1067,98.3764 90.44,98.0431 90.5,97.5C 91.4793,94.8433 93.146,94.1766 95.5,95.5C 92.4275,97.5691 90.0941,100.236 88.5,103.5C 85.0969,101.1 82.4302,98.1002 80.5,94.5C 82.0618,94.7329 83.3951,95.3995 84.5,96.5C 84.56,97.0431 84.8933,97.3764 85.5,97.5C 86.8194,90.0102 86.8194,82.6769 85.5,75.5C 85.1667,75.5 84.8333,75.5 84.5,75.5C 79.6511,74.8335 74.6511,74.1668 69.5,73.5C 74.456,72.5059 79.456,72.1725 84.5,72.5 Z"/></g>
<g><path style="opacity:1" fill="#9ad4f3" d="M 78.5,101.5 C 79.3382,101.842 79.6716,102.508 79.5,103.5C 73.31,103.823 67.31,103.49 61.5,102.5C 67.358,102.822 73.0247,102.489 78.5,101.5 Z"/></g>
<g><path style="opacity:1" fill="#339ad1" d="M 58.5,99.5 C 58.8333,99.5 59.1667,99.5 59.5,99.5C 60.1667,100.5 60.8333,101.5 61.5,102.5C 67.31,103.49 73.31,103.823 79.5,103.5C 73.3471,104.653 67.0137,104.82 60.5,104C 59.4178,102.67 58.7512,101.17 58.5,99.5 Z"/></g>
<g><path style="opacity:1" fill="#def8fe" d="M 109.5,64.5 C 110.675,64.281 111.675,64.6143 112.5,65.5C 113.21,68.6731 114.377,71.6731 116,74.5C 116.667,83.5 116.667,92.5 116,101.5C 114.956,102.623 114.29,103.956 114,105.5C 113.329,106.252 112.496,106.586 111.5,106.5C 111.833,105.167 112.167,103.833 112.5,102.5C 113.6,100.723 114.434,98.7226 115,96.5C 115.819,90.3188 115.653,84.3188 114.5,78.5C 114.5,78.1667 114.5,77.8333 114.5,77.5C 114.741,75.1016 114.074,73.1016 112.5,71.5C 112.34,69.847 111.674,68.5137 110.5,67.5C 110.443,66.391 110.11,65.391 109.5,64.5 Z"/></g>
<g><path style="opacity:1" fill="#dff9fe" d="M 31.5,96.5 C 32.1667,97.1667 32.8333,97.8333 33.5,98.5C 34.0241,100.306 34.6908,101.972 35.5,103.5C 35.8333,104.833 36.1667,106.167 36.5,107.5C 36.427,109.027 37.0937,110.027 38.5,110.5C 40.5475,112.55 42.2141,114.883 43.5,117.5C 41.0264,115.426 38.3598,113.593 35.5,112C 35.8333,111.667 36.1667,111.333 36.5,111C 33.9849,106.43 32.3182,101.596 31.5,96.5 Z"/></g>
<g><path style="opacity:1" fill="#ace0f6" d="M 36.5,107.5 C 37.9063,107.973 38.573,108.973 38.5,110.5C 37.0937,110.027 36.427,109.027 36.5,107.5 Z"/></g>
<g><path style="opacity:1" fill="#c7f0fb" d="M 107.5,113.5 C 105.878,117.123 103.211,119.789 99.5,121.5C 101.833,118.5 104.5,115.833 107.5,113.5 Z"/></g>
<g><path style="opacity:1" fill="#45a7de" d="M 35.5,103.5 C 39.6519,105.42 42.1519,108.754 43,113.5C 44.4413,114.87 46.108,115.87 48,116.5C 48.065,118.883 48.8983,119.55 50.5,118.5C 52.6468,121.063 54.9801,123.396 57.5,125.5C 56.8333,125.5 56.1667,125.5 55.5,125.5C 51.1846,123.34 47.1846,120.673 43.5,117.5C 42.2141,114.883 40.5475,112.55 38.5,110.5C 38.573,108.973 37.9063,107.973 36.5,107.5C 36.1667,106.167 35.8333,104.833 35.5,103.5 Z"/></g>
<g><path style="opacity:1" fill="#71bce2" d="M 55.5,125.5 C 56.1667,125.5 56.8333,125.5 57.5,125.5C 65.219,128.213 73.219,129.213 81.5,128.5C 74.642,129.738 67.642,129.738 60.5,128.5C 58.7392,127.687 57.0725,126.687 55.5,125.5 Z"/></g>
<g><path style="opacity:1" fill="#defafe" d="M 90.5,126.5 C 87.5314,128.307 84.1981,129.807 80.5,131C 75.1667,131.667 69.8333,131.667 64.5,131C 62.9336,130.392 61.6002,129.558 60.5,128.5C 67.642,129.738 74.642,129.738 81.5,128.5C 84.5394,127.99 87.5394,127.323 90.5,126.5 Z"/></g>
</svg>
