<?xml version="1.0" encoding="UTF-8"?>
<!DOCTYPE svg PUBLIC "-//W3C//DTD SVG 1.1//EN" "http://www.w3.org/Graphics/SVG/1.1/DTD/svg11.dtd">
<svg xmlns="http://www.w3.org/2000/svg" version="1.1" width="337px" height="240px" style="shape-rendering:geometricPrecision; text-rendering:geometricPrecision; image-rendering:optimizeQuality; fill-rule:evenodd; clip-rule:evenodd" xmlns:xlink="http://www.w3.org/1999/xlink">
<g><path style="opacity:1" fill="#110e24" d="M -0.5,-0.5 C 11.8333,-0.5 24.1667,-0.5 36.5,-0.5C 36.5,2.16667 36.5,4.83333 36.5,7.5C 34.1667,7.5 31.8333,7.5 29.5,7.5C 29.5,9.83333 29.5,12.1667 29.5,14.5C 27.5,14.5 25.5,14.5 23.5,14.5C 23.5,16.8333 23.5,19.1667 23.5,21.5C 21.1667,21.5 18.8333,21.5 16.5,21.5C 16.5,26.1667 16.5,30.8333 16.5,35.5C 14.1667,35.5 11.8333,35.5 9.5,35.5C 9.5,37.5 9.5,39.5 9.5,41.5C 8.5,41.5 7.5,41.5 6.5,41.5C 6.5,43.8333 6.5,46.1667 6.5,48.5C 5.16667,48.5 3.83333,48.5 2.5,48.5C 2.5,53.1667 2.5,57.8333 2.5,62.5C 1.5,62.5 0.5,62.5 -0.5,62.5C -0.5,41.5 -0.5,20.5 -0.5,-0.5 Z"/></g>
<g><path style="opacity:1" fill="#131028" d="M 36.5,-0.5 C 59.1667,-0.5 81.8333,-0.5 104.5,-0.5C 100.366,0.484888 96.0323,0.818222 91.5,0.5C 91.5,2.83333 91.5,5.16667 91.5,7.5C 86.8333,7.5 82.1667,7.5 77.5,7.5C 77.5,9.83333 77.5,12.1667 77.5,14.5C 75.1667,14.5 72.8333,14.5 70.5,14.5C 70.5,16.8333 70.5,19.1667 70.5,21.5C 68.1667,21.5 65.8333,21.5 63.5,21.5C 63.5,23.8333 63.5,26.1667 63.5,28.5C 61.5,28.5 59.5,28.5 57.5,28.5C 57.5,30.8333 57.5,33.1667 57.5,35.5C 55.1667,35.5 52.8333,35.5 50.5,35.5C 50.5,37.5 50.5,39.5 50.5,41.5C 48.1667,41.5 45.8333,41.5 43.5,41.5C 43.5,46.1667 43.5,50.8333 43.5,55.5C 41.1667,55.5 38.8333,55.5 36.5,55.5C 36.5,60.1667 36.5,64.8333 36.5,69.5C 34.1667,69.5 31.8333,69.5 29.5,69.5C 29.5,76.1667 29.5,82.8333 29.5,89.5C 27.5,89.5 25.5,89.5 23.5,89.5C 23.5,111.833 23.5,134.167 23.5,156.5C 25.5,156.5 27.5,156.5 29.5,156.5C 29.5,161.167 29.5,165.833 29.5,170.5C 31.8333,170.5 34.1667,170.5 36.5,170.5C 36.5,177.167 36.5,183.833 36.5,190.5C 38.8333,190.5 41.1667,190.5 43.5,190.5C 43.5,192.833 43.5,195.167 43.5,197.5C 45.5,197.5 47.5,197.5 49.5,197.5C 50.2295,202.13 50.5628,206.797 50.5,211.5C 52.8333,211.5 55.1667,211.5 57.5,211.5C 57.5,213.833 57.5,216.167 57.5,218.5C 59.5,218.5 61.5,218.5 63.5,218.5C 63.5,220.5 63.5,222.5 63.5,224.5C 65.8333,224.5 68.1667,224.5 70.5,224.5C 70.5,226.833 70.5,229.167 70.5,231.5C 72.8333,231.5 75.1667,231.5 77.5,231.5C 77.5,233.833 77.5,236.167 77.5,238.5C 82.0323,238.182 86.3656,238.515 90.5,239.5C 70.1667,239.5 49.8333,239.5 29.5,239.5C 29.5,236.833 29.5,234.167 29.5,231.5C 27.5,231.5 25.5,231.5 23.5,231.5C 23.5,229.167 23.5,226.833 23.5,224.5C 21.5,224.5 19.5,224.5 17.5,224.5C 16.7051,220.215 16.3718,215.881 16.5,211.5C 14.1667,211.5 11.8333,211.5 9.5,211.5C 9.5,209.167 9.5,206.833 9.5,204.5C 8.5,204.5 7.5,204.5 6.5,204.5C 6.5,203.167 6.5,201.833 6.5,200.5C 5.16667,200.5 3.83333,200.5 2.5,200.5C 2.5,197.167 2.5,193.833 2.5,190.5C 1.5,190.5 0.5,190.5 -0.5,190.5C -0.5,147.833 -0.5,105.167 -0.5,62.5C 0.5,62.5 1.5,62.5 2.5,62.5C 2.5,57.8333 2.5,53.1667 2.5,48.5C 3.83333,48.5 5.16667,48.5 6.5,48.5C 6.5,46.1667 6.5,43.8333 6.5,41.5C 7.5,41.5 8.5,41.5 9.5,41.5C 9.5,39.5 9.5,37.5 9.5,35.5C 11.8333,35.5 14.1667,35.5 16.5,35.5C 16.5,30.8333 16.5,26.1667 16.5,21.5C 18.8333,21.5 21.1667,21.5 23.5,21.5C 23.5,19.1667 23.5,16.8333 23.5,14.5C 25.5,14.5 27.5,14.5 29.5,14.5C 29.5,12.1667 29.5,9.83333 29.5,7.5C 31.8333,7.5 34.1667,7.5 36.5,7.5C 36.5,4.83333 36.5,2.16667 36.5,-0.5 Z"/></g>
<g><path style="opacity:1" fill="#16122d" d="M 104.5,-0.5 C 145.167,-0.5 185.833,-0.5 226.5,-0.5C 230.634,0.484888 234.968,0.818222 239.5,0.5C 239.5,2.83333 239.5,5.16667 239.5,7.5C 244.167,7.5 248.833,7.5 253.5,7.5C 253.5,9.83333 253.5,12.1667 253.5,14.5C 255.833,14.5 258.167,14.5 260.5,14.5C 260.5,16.8333 260.5,19.1667 260.5,21.5C 262.833,21.5 265.167,21.5 267.5,21.5C 267.5,23.8333 267.5,26.1667 267.5,28.5C 269.833,28.5 272.167,28.5 274.5,28.5C 274.5,32.8333 274.5,37.1667 274.5,41.5C 276.5,41.5 278.5,41.5 280.5,41.5C 280.5,43.8333 280.5,46.1667 280.5,48.5C 282.833,48.5 285.167,48.5 287.5,48.5C 287.5,50.8333 287.5,53.1667 287.5,55.5C 289.833,55.5 292.167,55.5 294.5,55.5C 294.5,60.1667 294.5,64.8333 294.5,69.5C 296.833,69.5 299.167,69.5 301.5,69.5C 301.5,80.8333 301.5,92.1667 301.5,103.5C 303.833,103.5 306.167,103.5 308.5,103.5C 308.5,118.833 308.5,134.167 308.5,149.5C 306.167,149.5 303.833,149.5 301.5,149.5C 301.5,156.5 301.5,163.5 301.5,170.5C 299.167,170.5 296.833,170.5 294.5,170.5C 294.5,174.833 294.5,179.167 294.5,183.5C 292.5,183.5 290.5,183.5 288.5,183.5C 287.771,188.13 287.437,192.797 287.5,197.5C 285.5,197.5 283.5,197.5 281.5,197.5C 281.326,199.861 280.993,202.194 280.5,204.5C 278.5,204.5 276.5,204.5 274.5,204.5C 274.5,209.167 274.5,213.833 274.5,218.5C 272.167,218.5 269.833,218.5 267.5,218.5C 267.5,220.5 267.5,222.5 267.5,224.5C 265.167,224.5 262.833,224.5 260.5,224.5C 260.5,226.833 260.5,229.167 260.5,231.5C 256.167,231.5 251.833,231.5 247.5,231.5C 247.326,233.861 246.993,236.194 246.5,238.5C 244.265,238.205 242.265,238.539 240.5,239.5C 190.5,239.5 140.5,239.5 90.5,239.5C 86.3656,238.515 82.0323,238.182 77.5,238.5C 77.5,236.167 77.5,233.833 77.5,231.5C 75.1667,231.5 72.8333,231.5 70.5,231.5C 70.5,229.167 70.5,226.833 70.5,224.5C 68.1667,224.5 65.8333,224.5 63.5,224.5C 63.5,222.5 63.5,220.5 63.5,218.5C 61.5,218.5 59.5,218.5 57.5,218.5C 57.5,216.167 57.5,213.833 57.5,211.5C 55.1667,211.5 52.8333,211.5 50.5,211.5C 50.5628,206.797 50.2295,202.13 49.5,197.5C 47.5,197.5 45.5,197.5 43.5,197.5C 43.5,195.167 43.5,192.833 43.5,190.5C 41.1667,190.5 38.8333,190.5 36.5,190.5C 36.5,183.833 36.5,177.167 36.5,170.5C 34.1667,170.5 31.8333,170.5 29.5,170.5C 29.5,165.833 29.5,161.167 29.5,156.5C 27.5,156.5 25.5,156.5 23.5,156.5C 23.5,134.167 23.5,111.833 23.5,89.5C 25.5,89.5 27.5,89.5 29.5,89.5C 29.5,82.8333 29.5,76.1667 29.5,69.5C 31.8333,69.5 34.1667,69.5 36.5,69.5C 36.5,64.8333 36.5,60.1667 36.5,55.5C 38.8333,55.5 41.1667,55.5 43.5,55.5C 43.5,50.8333 43.5,46.1667 43.5,41.5C 45.8333,41.5 48.1667,41.5 50.5,41.5C 50.5,39.5 50.5,37.5 50.5,35.5C 52.8333,35.5 55.1667,35.5 57.5,35.5C 57.5,33.1667 57.5,30.8333 57.5,28.5C 59.5,28.5 61.5,28.5 63.5,28.5C 63.5,26.1667 63.5,23.8333 63.5,21.5C 65.8333,21.5 68.1667,21.5 70.5,21.5C 70.5,19.1667 70.5,16.8333 70.5,14.5C 72.8333,14.5 75.1667,14.5 77.5,14.5C 77.5,12.1667 77.5,9.83333 77.5,7.5C 82.1667,7.5 86.8333,7.5 91.5,7.5C 91.5,5.16667 91.5,2.83333 91.5,0.5C 96.0323,0.818222 100.366,0.484888 104.5,-0.5 Z"/></g>
<g><path style="opacity:1" fill="#131028" d="M 226.5,-0.5 C 249.167,-0.5 271.833,-0.5 294.5,-0.5C 294.5,2.16667 294.5,4.83333 294.5,7.5C 296.833,7.5 299.167,7.5 301.5,7.5C 301.5,9.83333 301.5,12.1667 301.5,14.5C 303.833,14.5 306.167,14.5 308.5,14.5C 308.5,16.8333 308.5,19.1667 308.5,21.5C 309.5,21.5 310.5,21.5 311.5,21.5C 311.5,22.5 311.5,23.5 311.5,24.5C 312.5,24.5 313.5,24.5 314.5,24.5C 314.5,28.1667 314.5,31.8333 314.5,35.5C 316.833,35.5 319.167,35.5 321.5,35.5C 321.5,39.8333 321.5,44.1667 321.5,48.5C 323.833,48.5 326.167,48.5 328.5,48.5C 328.5,50.8333 328.5,53.1667 328.5,55.5C 329.5,55.5 330.5,55.5 331.5,55.5C 331.5,57.8333 331.5,60.1667 331.5,62.5C 332.833,62.5 334.167,62.5 335.5,62.5C 335.182,67.0323 335.515,71.3656 336.5,75.5C 336.5,107.167 336.5,138.833 336.5,170.5C 335.521,173.625 335.187,176.958 335.5,180.5C 334.5,180.5 333.5,180.5 332.5,180.5C 331.793,183.786 331.46,187.119 331.5,190.5C 330.5,190.5 329.5,190.5 328.5,190.5C 328.54,193.881 328.207,197.214 327.5,200.5C 326.5,200.5 325.5,200.5 324.5,200.5C 324.5,201.833 324.5,203.167 324.5,204.5C 323.5,204.5 322.5,204.5 321.5,204.5C 321.5,206.833 321.5,209.167 321.5,211.5C 320.5,211.5 319.5,211.5 318.5,211.5C 318.5,213.833 318.5,216.167 318.5,218.5C 317.167,218.5 315.833,218.5 314.5,218.5C 314.5,220.5 314.5,222.5 314.5,224.5C 312.5,224.5 310.5,224.5 308.5,224.5C 308.5,226.833 308.5,229.167 308.5,231.5C 307.167,231.5 305.833,231.5 304.5,231.5C 304.5,232.833 304.5,234.167 304.5,235.5C 303.5,235.5 302.5,235.5 301.5,235.5C 301.5,236.833 301.5,238.167 301.5,239.5C 281.167,239.5 260.833,239.5 240.5,239.5C 242.265,238.539 244.265,238.205 246.5,238.5C 246.993,236.194 247.326,233.861 247.5,231.5C 251.833,231.5 256.167,231.5 260.5,231.5C 260.5,229.167 260.5,226.833 260.5,224.5C 262.833,224.5 265.167,224.5 267.5,224.5C 267.5,222.5 267.5,220.5 267.5,218.5C 269.833,218.5 272.167,218.5 274.5,218.5C 274.5,213.833 274.5,209.167 274.5,204.5C 276.5,204.5 278.5,204.5 280.5,204.5C 280.993,202.194 281.326,199.861 281.5,197.5C 283.5,197.5 285.5,197.5 287.5,197.5C 287.437,192.797 287.771,188.13 288.5,183.5C 290.5,183.5 292.5,183.5 294.5,183.5C 294.5,179.167 294.5,174.833 294.5,170.5C 296.833,170.5 299.167,170.5 301.5,170.5C 301.5,163.5 301.5,156.5 301.5,149.5C 303.833,149.5 306.167,149.5 308.5,149.5C 308.5,134.167 308.5,118.833 308.5,103.5C 306.167,103.5 303.833,103.5 301.5,103.5C 301.5,92.1667 301.5,80.8333 301.5,69.5C 299.167,69.5 296.833,69.5 294.5,69.5C 294.5,64.8333 294.5,60.1667 294.5,55.5C 292.167,55.5 289.833,55.5 287.5,55.5C 287.5,53.1667 287.5,50.8333 287.5,48.5C 285.167,48.5 282.833,48.5 280.5,48.5C 280.5,46.1667 280.5,43.8333 280.5,41.5C 278.5,41.5 276.5,41.5 274.5,41.5C 274.5,37.1667 274.5,32.8333 274.5,28.5C 272.167,28.5 269.833,28.5 267.5,28.5C 267.5,26.1667 267.5,23.8333 267.5,21.5C 265.167,21.5 262.833,21.5 260.5,21.5C 260.5,19.1667 260.5,16.8333 260.5,14.5C 258.167,14.5 255.833,14.5 253.5,14.5C 253.5,12.1667 253.5,9.83333 253.5,7.5C 248.833,7.5 244.167,7.5 239.5,7.5C 239.5,5.16667 239.5,2.83333 239.5,0.5C 234.968,0.818222 230.634,0.484888 226.5,-0.5 Z"/></g>
<g><path style="opacity:1" fill="#100e24" d="M 294.5,-0.5 C 308.5,-0.5 322.5,-0.5 336.5,-0.5C 336.5,24.8333 336.5,50.1667 336.5,75.5C 335.515,71.3656 335.182,67.0323 335.5,62.5C 334.167,62.5 332.833,62.5 331.5,62.5C 331.5,60.1667 331.5,57.8333 331.5,55.5C 330.5,55.5 329.5,55.5 328.5,55.5C 328.5,53.1667 328.5,50.8333 328.5,48.5C 326.167,48.5 323.833,48.5 321.5,48.5C 321.5,44.1667 321.5,39.8333 321.5,35.5C 319.167,35.5 316.833,35.5 314.5,35.5C 314.5,31.8333 314.5,28.1667 314.5,24.5C 313.5,24.5 312.5,24.5 311.5,24.5C 311.5,23.5 311.5,22.5 311.5,21.5C 310.5,21.5 309.5,21.5 308.5,21.5C 308.5,19.1667 308.5,16.8333 308.5,14.5C 306.167,14.5 303.833,14.5 301.5,14.5C 301.5,12.1667 301.5,9.83333 301.5,7.5C 299.167,7.5 296.833,7.5 294.5,7.5C 294.5,4.83333 294.5,2.16667 294.5,-0.5 Z"/></g>
<g><path style="opacity:1" fill="#1a1332" d="M 151.5,11.5 C 156.386,11.5554 161.053,12.5554 165.5,14.5C 169.79,12.7249 174.29,11.7249 179,11.5C 186.71,13.4236 194.543,14.4236 202.5,14.5C 202.5,15.5 202.5,16.5 202.5,17.5C 203.833,17.5 205.167,17.5 206.5,17.5C 206.5,18.5 206.5,19.5 206.5,20.5C 210.785,21.2949 215.119,21.6282 219.5,21.5C 219.833,23.5 220.167,25.5 220.5,27.5C 226.5,26.1667 228.833,28.5 227.5,34.5C 230.518,34.3354 233.518,34.502 236.5,35C 237.337,36.0113 237.67,37.1779 237.5,38.5C 238.5,38.5 239.5,38.5 240.5,38.5C 240.5,39.5 240.5,40.5 240.5,41.5C 242.5,41.5 244.5,41.5 246.5,41.5C 246.5,43.8333 246.5,46.1667 246.5,48.5C 248.833,48.5 251.167,48.5 253.5,48.5C 254.092,52.9056 254.092,57.2389 253.5,61.5C 255.857,61.3367 258.19,61.5034 260.5,62C 261.371,65.7956 262.705,69.2956 264.5,72.5C 265.5,72.5 266.5,72.5 267.5,72.5C 267.5,75.5 267.5,78.5 267.5,81.5C 268.5,81.5 269.5,81.5 270.5,81.5C 270.5,83.1667 270.5,84.8333 270.5,86.5C 271.5,86.5 272.5,86.5 273.5,86.5C 274.148,96.1532 274.482,105.82 274.5,115.5C 275.5,115.5 276.5,115.5 277.5,115.5C 277.229,117.821 277.896,119.821 279.5,121.5C 278.15,122.95 276.484,123.617 274.5,123.5C 274.667,134.505 274.5,145.505 274,156.5C 273.273,158.953 272.273,161.286 271,163.5C 269.989,164.337 268.822,164.67 267.5,164.5C 267.5,168.833 267.5,173.167 267.5,177.5C 265.5,177.5 263.5,177.5 261.5,177.5C 260.626,180.789 259.959,184.123 259.5,187.5C 258.5,187.5 257.5,187.5 256.5,187.5C 256.5,188.5 256.5,189.5 256.5,190.5C 255.167,190.5 253.833,190.5 252.5,190.5C 252.884,192.929 253.551,195.263 254.5,197.5C 249.146,196.946 246.479,199.279 246.5,204.5C 241.574,204.33 239.241,206.663 239.5,211.5C 235.5,211.5 231.5,211.5 227.5,211.5C 227.5,213.833 227.5,216.167 227.5,218.5C 225.167,218.5 222.833,218.5 220.5,218.5C 220.167,220.5 219.833,222.5 219.5,224.5C 215.215,225.295 210.881,225.628 206.5,225.5C 206.167,227.5 205.833,229.5 205.5,231.5C 196.833,231.833 188.167,232.167 179.5,232.5C 179.167,234.5 178.833,236.5 178.5,238.5C 173.331,238.935 168.331,238.268 163.5,236.5C 162.328,236.919 161.328,237.585 160.5,238.5C 159.614,237.675 159.281,236.675 159.5,235.5C 156.833,235.5 154.167,235.5 151.5,235.5C 151.5,234.167 151.5,232.833 151.5,231.5C 142.555,233.287 133.888,232.453 125.5,229C 124.663,227.989 124.33,226.822 124.5,225.5C 117.575,225.232 110.909,223.899 104.5,221.5C 104.5,220.5 104.5,219.5 104.5,218.5C 103.5,218.5 102.5,218.5 101.5,218.5C 101.5,217.167 101.5,215.833 101.5,214.5C 100.167,214.5 98.8333,214.5 97.5,214.5C 97.5,213.5 97.5,212.5 97.5,211.5C 95.5,211.5 93.5,211.5 91.5,211.5C 92.0077,207.075 90.0077,204.742 85.5,204.5C 84.9191,199.78 82.2524,197.446 77.5,197.5C 76.7839,193.8 75.4506,190.466 73.5,187.5C 72.5,187.5 71.5,187.5 70.5,187.5C 70.5405,184.119 70.2071,180.786 69.5,177.5C 67.5,177.5 65.5,177.5 63.5,177.5C 63.5,173.167 63.5,168.833 63.5,164.5C 62.5,164.5 61.5,164.5 60.5,164.5C 60.5,163.167 60.5,161.833 60.5,160.5C 59.5,160.5 58.5,160.5 57.5,160.5C 57.4676,154.811 57.1342,149.145 56.5,143.5C 55.5,143.5 54.5,143.5 53.5,143.5C 53.3259,141.139 52.9926,138.806 52.5,136.5C 53.8333,136.5 55.1667,136.5 56.5,136.5C 56.5,134.5 56.5,132.5 56.5,130.5C 54.5,130.5 52.5,130.5 50.5,130.5C 50.5789,128.334 51.2455,126.334 52.5,124.5C 52.0814,123.328 51.4147,122.328 50.5,121.5C 51.8631,120.107 52.6964,118.441 53,116.5C 53.4992,111.845 53.6658,107.179 53.5,102.5C 54.5,102.5 55.5,102.5 56.5,102.5C 57.1982,98.1076 57.3648,93.7743 57,89.5C 59.0408,88.5769 61.2075,88.2436 63.5,88.5C 63.5,83.1667 63.5,77.8333 63.5,72.5C 64.5,72.5 65.5,72.5 66.5,72.5C 68.3201,69.5472 69.4868,66.2139 70,62.5C 72.0408,61.5769 74.2075,61.2436 76.5,61.5C 76.3354,58.4816 76.502,55.4816 77,52.5C 78.0113,51.6634 79.1779,51.33 80.5,51.5C 80.5,50.1667 80.5,48.8333 80.5,47.5C 83.7794,46.9694 85.1128,44.9694 84.5,41.5C 86.5,41.5 88.5,41.5 90.5,41.5C 90.3286,38.5123 91.6619,36.5123 94.5,35.5C 97.1678,34.2622 99.8345,34.2622 102.5,35.5C 103.474,33.2573 103.808,30.924 103.5,28.5C 105.591,28.6816 107.591,28.3482 109.5,27.5C 110.386,26.675 110.719,25.675 110.5,24.5C 111.833,24.5 113.167,24.5 114.5,24.5C 114.5,23.5 114.5,22.5 114.5,21.5C 117.807,20.9492 121.14,20.6159 124.5,20.5C 124.5,19.5 124.5,18.5 124.5,17.5C 125.833,17.5 127.167,17.5 128.5,17.5C 128.5,16.5 128.5,15.5 128.5,14.5C 134.011,14.399 139.511,14.0657 145,13.5C 147.61,13.4668 149.777,12.8001 151.5,11.5 Z"/></g>
<g><path style="opacity:1" fill="#711339" d="M 172.5,46.5 C 166.794,46.1712 161.128,46.5046 155.5,47.5C 157.078,48.2978 158.744,48.7978 160.5,49C 159.833,49.3333 159.167,49.6667 158.5,50C 163.864,51.9424 169.198,52.9424 174.5,53C 176.37,55.0396 178.37,56.8729 180.5,58.5C 181.414,63.2579 184.081,66.7579 188.5,69C 187.944,69.3826 187.611,69.8826 187.5,70.5C 183.102,70.2941 178.768,70.6274 174.5,71.5C 174.804,70.8501 175.137,70.1835 175.5,69.5C 172.647,67.7607 169.814,66.0941 167,64.5C 166.667,64.8333 166.333,65.1667 166,65.5C 165.506,63.8659 165.34,62.1992 165.5,60.5C 163.5,60.5 161.5,60.5 159.5,60.5C 159.67,59.1779 159.337,58.0113 158.5,57C 155.901,56.231 153.401,56.3977 151,57.5C 149.312,56.6753 149.145,55.6753 150.5,54.5C 147.08,52.4741 146.747,50.1408 149.5,47.5C 153.909,46.0207 158.576,45.3541 163.5,45.5C 166.686,45.502 169.686,45.8353 172.5,46.5 Z"/></g>
<g><path style="opacity:1" fill="#790e32" d="M 172.5,46.5 C 182.39,46.637 191.39,49.3036 199.5,54.5C 197.235,55.3424 194.902,55.0091 192.5,53.5C 188.511,54.1066 184.511,54.7733 180.5,55.5C 182.188,56.5213 183.521,57.8546 184.5,59.5C 183.167,59.1667 181.833,58.8333 180.5,58.5C 178.37,56.8729 176.37,55.0396 174.5,53C 169.198,52.9424 163.864,51.9424 158.5,50C 159.167,49.6667 159.833,49.3333 160.5,49C 158.744,48.7978 157.078,48.2978 155.5,47.5C 161.128,46.5046 166.794,46.1712 172.5,46.5 Z"/></g>
<g><path style="opacity:1" fill="#721a42" d="M 149.5,47.5 C 146.747,50.1408 147.08,52.4741 150.5,54.5C 149.145,55.6753 149.312,56.6753 151,57.5C 153.401,56.3977 155.901,56.231 158.5,57C 159.337,58.0113 159.67,59.1779 159.5,60.5C 161.5,60.5 163.5,60.5 165.5,60.5C 165.34,62.1992 165.506,63.8659 166,65.5C 166.333,65.1667 166.667,64.8333 167,64.5C 169.814,66.0941 172.647,67.7607 175.5,69.5C 175.137,70.1835 174.804,70.8501 174.5,71.5C 173.833,72.1667 173.167,72.8333 172.5,73.5C 170.283,74.3686 167.95,74.702 165.5,74.5C 167.042,73.8365 168.709,73.1698 170.5,72.5C 166.689,70.6731 162.689,69.5064 158.5,69C 156.5,68.3333 155.167,67 154.5,65C 152.048,64.7105 149.715,64.0438 147.5,63C 148.747,61.5064 148.747,60.0064 147.5,58.5C 145.885,57.846 144.218,57.346 142.5,57C 141.495,55.4933 140.162,54.3267 138.5,53.5C 140.332,52.9432 141.665,51.9432 142.5,50.5C 142.5,50.1667 142.5,49.8333 142.5,49.5C 144.515,48.0762 146.848,47.4095 149.5,47.5 Z"/></g>
<g><path style="opacity:1" fill="#6c0927" d="M 199.5,54.5 C 205.271,56.283 210.271,59.283 214.5,63.5C 214.582,65.2517 213.749,66.2517 212,66.5C 207.663,64.0605 203.496,64.0605 199.5,66.5C 197.179,66.7711 195.179,66.1045 193.5,64.5C 192.833,64.8333 192.167,65.1667 191.5,65.5C 189.322,63.2553 186.988,61.2553 184.5,59.5C 183.521,57.8546 182.188,56.5213 180.5,55.5C 184.511,54.7733 188.511,54.1066 192.5,53.5C 194.902,55.0091 197.235,55.3424 199.5,54.5 Z"/></g>
<g><path style="opacity:1" fill="#670d2e" d="M 180.5,58.5 C 181.833,58.8333 183.167,59.1667 184.5,59.5C 186.988,61.2553 189.322,63.2553 191.5,65.5C 192.167,65.1667 192.833,64.8333 193.5,64.5C 195.179,66.1045 197.179,66.7711 199.5,66.5C 199.157,68.4832 199.824,69.8166 201.5,70.5C 201.756,72.7761 203.09,73.9428 205.5,74C 204.062,74.2189 202.729,74.7189 201.5,75.5C 202.18,76.8599 202.847,78.1932 203.5,79.5C 199.162,78.1662 194.828,76.8328 190.5,75.5C 188.981,74.5902 187.315,73.7568 185.5,73C 186.756,72.5831 187.423,71.7498 187.5,70.5C 187.611,69.8826 187.944,69.3826 188.5,69C 184.081,66.7579 181.414,63.2579 180.5,58.5 Z"/></g>
<g><path style="opacity:1" fill="#71234c" d="M 142.5,50.5 C 141.665,51.9432 140.332,52.9432 138.5,53.5C 140.162,54.3267 141.495,55.4933 142.5,57C 144.218,57.346 145.885,57.846 147.5,58.5C 148.747,60.0064 148.747,61.5064 147.5,63C 149.715,64.0438 152.048,64.7105 154.5,65C 155.167,67 156.5,68.3333 158.5,69C 162.689,69.5064 166.689,70.6731 170.5,72.5C 168.709,73.1698 167.042,73.8365 165.5,74.5C 162.461,75.01 159.461,75.6766 156.5,76.5C 154.833,77.1667 153.167,77.8333 151.5,78.5C 152.598,77.603 152.598,76.7697 151.5,76C 152.5,75.6667 153.5,75.3333 154.5,75C 151.44,73.942 148.606,72.442 146,70.5C 145.586,70.9574 145.086,71.2907 144.5,71.5C 142.509,70.1796 140.509,68.8463 138.5,67.5C 139.074,65.9411 139.74,64.4411 140.5,63C 138.395,60.979 136.395,58.979 134.5,57C 135.034,52.3062 137.701,50.1395 142.5,50.5 Z"/></g>
<g><path style="opacity:1" fill="#692953" d="M 142.5,49.5 C 142.5,49.8333 142.5,50.1667 142.5,50.5C 137.701,50.1395 135.034,52.3062 134.5,57C 136.395,58.979 138.395,60.979 140.5,63C 139.74,64.4411 139.074,65.9411 138.5,67.5C 140.509,68.8463 142.509,70.1796 144.5,71.5C 145.086,71.2907 145.586,70.9574 146,70.5C 148.606,72.442 151.44,73.942 154.5,75C 153.5,75.3333 152.5,75.6667 151.5,76C 152.598,76.7697 152.598,77.603 151.5,78.5C 149.091,79.7007 147.091,81.3674 145.5,83.5C 144.833,83.8333 144.167,84.1667 143.5,84.5C 143.5,83.8333 143.5,83.1667 143.5,82.5C 143.342,80.1789 142.342,78.3455 140.5,77C 141.956,76.5774 142.456,75.7441 142,74.5C 140.301,73.5939 138.467,73.2606 136.5,73.5C 136.67,72.1779 136.337,71.0113 135.5,70C 136.167,69.6667 136.833,69.3333 137.5,69C 134.911,67.8035 132.244,66.8035 129.5,66C 127.303,63.0795 124.637,61.5795 121.5,61.5C 122.403,59.3796 123.737,59.0462 125.5,60.5C 124.945,58.6068 125.612,56.9401 127.5,55.5C 132.1,52.5844 137.1,50.5844 142.5,49.5 Z"/></g>
<g><path style="opacity:1" fill="#5c0720" d="M 214.5,63.5 C 217.919,65.6451 220.919,68.3118 223.5,71.5C 223.703,73.0443 224.37,74.3777 225.5,75.5C 225.167,75.8333 224.833,76.1667 224.5,76.5C 217.771,73.5992 211.104,70.9325 204.5,68.5C 203.735,69.6119 202.735,70.2786 201.5,70.5C 199.824,69.8166 199.157,68.4832 199.5,66.5C 203.496,64.0605 207.663,64.0605 212,66.5C 213.749,66.2517 214.582,65.2517 214.5,63.5 Z"/></g>
<g><path style="opacity:1" fill="#65335c" d="M 127.5,55.5 C 125.612,56.9401 124.945,58.6068 125.5,60.5C 123.737,59.0462 122.403,59.3796 121.5,61.5C 124.637,61.5795 127.303,63.0795 129.5,66C 132.244,66.8035 134.911,67.8035 137.5,69C 136.833,69.3333 136.167,69.6667 135.5,70C 136.337,71.0113 136.67,72.1779 136.5,73.5C 138.467,73.2606 140.301,73.5939 142,74.5C 142.456,75.7441 141.956,76.5774 140.5,77C 142.342,78.3455 143.342,80.1789 143.5,82.5C 140.794,82.4249 138.127,82.0916 135.5,81.5C 133.444,80.7839 131.277,80.1172 129,79.5C 128.654,77.1523 127.487,75.3189 125.5,74C 125.957,73.586 126.291,73.086 126.5,72.5C 121.336,71.008 118.336,67.6747 117.5,62.5C 120.475,59.6771 123.808,57.3437 127.5,55.5 Z"/></g>
<g><path style="opacity:1" fill="#921d45" d="M 187.5,70.5 C 187.423,71.7498 186.756,72.5831 185.5,73C 187.315,73.7568 188.981,74.5902 190.5,75.5C 189.833,75.5 189.167,75.5 188.5,75.5C 185.236,74.6758 181.902,74.3424 178.5,74.5C 176.735,73.5386 174.735,73.2053 172.5,73.5C 173.167,72.8333 173.833,72.1667 174.5,71.5C 178.768,70.6274 183.102,70.2941 187.5,70.5 Z"/></g>
<g><path style="opacity:1" fill="#540821" d="M 223.5,71.5 C 225.984,73.8003 227.984,76.4669 229.5,79.5C 229.55,81.5901 228.55,82.9234 226.5,83.5C 222.701,81.5776 218.701,81.0776 214.5,82C 215.696,82.6543 215.696,83.1543 214.5,83.5C 213.391,82.4104 212.391,82.4104 211.5,83.5C 212.347,84.8448 213.513,85.8448 215,86.5C 215.483,87.448 215.649,88.448 215.5,89.5C 215.167,89.5 214.833,89.5 214.5,89.5C 214.5,88.8333 214.167,88.5 213.5,88.5C 211.761,85.7573 209.427,83.7573 206.5,82.5C 205.694,81.2719 204.694,80.2719 203.5,79.5C 202.847,78.1932 202.18,76.8599 201.5,75.5C 202.729,74.7189 204.062,74.2189 205.5,74C 203.09,73.9428 201.756,72.7761 201.5,70.5C 202.735,70.2786 203.735,69.6119 204.5,68.5C 211.104,70.9325 217.771,73.5992 224.5,76.5C 224.833,76.1667 225.167,75.8333 225.5,75.5C 224.37,74.3777 223.703,73.0443 223.5,71.5 Z"/></g>
<g><path style="opacity:1" fill="#f94074" d="M 178.5,74.5 C 181.902,74.3424 185.236,74.6758 188.5,75.5C 192.351,77.3602 192.351,79.1935 188.5,81C 189.056,81.3826 189.389,81.8826 189.5,82.5C 189.167,82.5 188.833,82.5 188.5,82.5C 184.5,82.5 180.5,82.5 176.5,82.5C 176.425,79.7938 176.092,77.1272 175.5,74.5C 176.5,74.5 177.5,74.5 178.5,74.5 Z"/></g>
<g><path style="opacity:1" fill="#5a3d66" d="M 117.5,62.5 C 118.336,67.6747 121.336,71.008 126.5,72.5C 126.291,73.086 125.957,73.586 125.5,74C 127.487,75.3189 128.654,77.1523 129,79.5C 131.277,80.1172 133.444,80.7839 135.5,81.5C 135.167,81.5 134.833,81.5 134.5,81.5C 131.654,81.5516 129.32,82.5516 127.5,84.5C 124.594,84.0435 121.928,83.0435 119.5,81.5C 120.694,79.5156 120.694,77.5156 119.5,75.5C 118.284,74.9984 117.117,74.6651 116,74.5C 114.659,71.978 113.826,69.3113 113.5,66.5C 114.5,64.8333 115.833,63.5 117.5,62.5 Z"/></g>
<g><path style="opacity:1" fill="#f84e88" d="M 172.5,73.5 C 174.735,73.2053 176.735,73.5386 178.5,74.5C 177.5,74.5 176.5,74.5 175.5,74.5C 176.092,77.1272 176.425,79.7938 176.5,82.5C 180.5,82.5 184.5,82.5 188.5,82.5C 188.5,83.1667 188.5,83.8333 188.5,84.5C 187.609,85.1098 186.609,85.4431 185.5,85.5C 180.788,83.8451 175.788,83.0117 170.5,83C 169.692,82.6924 169.025,82.1924 168.5,81.5C 169.246,80.2638 169.579,78.9305 169.5,77.5C 165.74,76.7736 163.073,78.1069 161.5,81.5C 160.833,81.5 160.167,81.5 159.5,81.5C 153.511,81.7937 152.511,80.127 156.5,76.5C 159.461,75.6766 162.461,75.01 165.5,74.5C 167.95,74.702 170.283,74.3686 172.5,73.5 Z"/></g>
<g><path style="opacity:1" fill="#4e486e" d="M 113.5,66.5 C 113.826,69.3113 114.659,71.978 116,74.5C 117.117,74.6651 118.284,74.9984 119.5,75.5C 120.694,77.5156 120.694,79.5156 119.5,81.5C 118.294,82.8804 118.627,84.0471 120.5,85C 119.101,85.5946 117.768,85.4279 116.5,84.5C 115.745,87.3246 114.745,89.9913 113.5,92.5C 110.104,92.3671 109.771,91.3671 112.5,89.5C 111.593,86.5788 111.26,83.5788 111.5,80.5C 110.5,80.5 109.5,80.5 108.5,80.5C 108.969,77.6067 107.969,75.6067 105.5,74.5C 107.188,70.8116 109.855,68.1449 113.5,66.5 Z"/></g>
<g><path style="opacity:1" fill="#724d81" d="M 134.5,81.5 C 134.833,81.5 135.167,81.5 135.5,81.5C 138.127,82.0916 140.794,82.4249 143.5,82.5C 143.5,83.1667 143.5,83.8333 143.5,84.5C 140.39,87.8311 139.056,91.8311 139.5,96.5C 139.5,96.8333 139.5,97.1667 139.5,97.5C 139.167,97.5 138.833,97.5 138.5,97.5C 138.857,93.336 137.19,90.1693 133.5,88C 134.167,87.6667 134.833,87.3333 135.5,87C 134.359,86.2588 134.359,85.4255 135.5,84.5C 133.565,83.787 133.232,82.787 134.5,81.5 Z"/></g>
<g><path style="opacity:1" fill="#f95b9a" d="M 185.5,85.5 C 185.217,86.2891 184.717,86.9558 184,87.5C 181.573,86.433 181.073,87.0997 182.5,89.5C 181.527,90.7914 180.527,90.7914 179.5,89.5C 178.355,88.2243 178.355,86.891 179.5,85.5C 176.02,84.1944 172.687,84.1944 169.5,85.5C 167.712,85.7852 166.045,85.4519 164.5,84.5C 164.121,82.7869 163.121,81.7869 161.5,81.5C 163.073,78.1069 165.74,76.7736 169.5,77.5C 169.579,78.9305 169.246,80.2638 168.5,81.5C 169.025,82.1924 169.692,82.6924 170.5,83C 175.788,83.0117 180.788,83.8451 185.5,85.5 Z"/></g>
<g><path style="opacity:1" fill="#da325c" d="M 188.5,75.5 C 189.167,75.5 189.833,75.5 190.5,75.5C 194.828,76.8328 199.162,78.1662 203.5,79.5C 204.694,80.2719 205.694,81.2719 206.5,82.5C 204.936,85.4771 202.603,86.1438 199.5,84.5C 196.413,82.983 193.079,82.3163 189.5,82.5C 189.389,81.8826 189.056,81.3826 188.5,81C 192.351,79.1935 192.351,77.3602 188.5,75.5 Z"/></g>
<g><path style="opacity:1" fill="#f15790" d="M 156.5,76.5 C 152.511,80.127 153.511,81.7937 159.5,81.5C 157.093,84.2666 154.259,86.5999 151,88.5C 148.637,87.2984 146.803,85.6317 145.5,83.5C 147.091,81.3674 149.091,79.7007 151.5,78.5C 153.167,77.8333 154.833,77.1667 156.5,76.5 Z"/></g>
<g><path style="opacity:1" fill="#430c1e" d="M 229.5,79.5 C 231.39,81.5901 233.057,83.9235 234.5,86.5C 235.429,87.6888 235.762,89.0222 235.5,90.5C 235.719,91.675 235.386,92.675 234.5,93.5C 229.661,90.0179 224.661,89.3512 219.5,91.5C 218.914,91.2907 218.414,90.9574 218,90.5C 217.506,92.1341 217.34,93.8008 217.5,95.5C 217.167,95.5 216.833,95.5 216.5,95.5C 216.483,93.4352 216.15,91.4352 215.5,89.5C 215.649,88.448 215.483,87.448 215,86.5C 213.513,85.8448 212.347,84.8448 211.5,83.5C 212.391,82.4104 213.391,82.4104 214.5,83.5C 215.696,83.1543 215.696,82.6543 214.5,82C 218.701,81.0776 222.701,81.5776 226.5,83.5C 228.55,82.9234 229.55,81.5901 229.5,79.5 Z"/></g>
<g><path style="opacity:1" fill="#475579" d="M 105.5,74.5 C 107.969,75.6067 108.969,77.6067 108.5,80.5C 109.5,80.5 110.5,80.5 111.5,80.5C 111.26,83.5788 111.593,86.5788 112.5,89.5C 109.771,91.3671 110.104,92.3671 113.5,92.5C 115.839,93.6343 118.173,94.6343 120.5,95.5C 115.77,95.2834 111.103,95.6167 106.5,96.5C 104.738,96.3573 103.071,96.6906 101.5,97.5C 100.692,97.1924 100.025,96.6924 99.5,96C 100.658,91.2458 101.158,86.4124 101,81.5C 100.617,82.056 100.117,82.3893 99.5,82.5C 101.016,79.4669 103.016,76.8003 105.5,74.5 Z"/></g>
<g><path style="opacity:1" fill="#d83c6d" d="M 188.5,82.5 C 188.833,82.5 189.167,82.5 189.5,82.5C 193.079,82.3163 196.413,82.983 199.5,84.5C 199.427,86.0269 200.094,87.0269 201.5,87.5C 199.171,89.8298 196.838,89.8298 194.5,87.5C 193.265,88.3398 192.265,89.3398 191.5,90.5C 191.631,89.7611 191.464,89.0944 191,88.5C 190.333,89.8333 189.667,89.8333 189,88.5C 188.51,87.2068 188.343,85.8734 188.5,84.5C 188.5,83.8333 188.5,83.1667 188.5,82.5 Z"/></g>
<g><path style="opacity:1" fill="#59527b" d="M 119.5,81.5 C 121.928,83.0435 124.594,84.0435 127.5,84.5C 125.397,86.2273 123.73,88.3939 122.5,91C 124.74,91.977 127.073,92.477 129.5,92.5C 130.379,95.3815 132.046,97.7149 134.5,99.5C 132.167,98.8333 129.833,98.1667 127.5,97.5C 125.485,96.0762 123.152,95.4095 120.5,95.5C 118.173,94.6343 115.839,93.6343 113.5,92.5C 114.745,89.9913 115.745,87.3246 116.5,84.5C 117.768,85.4279 119.101,85.5946 120.5,85C 118.627,84.0471 118.294,82.8804 119.5,81.5 Z"/></g>
<g><path style="opacity:1" fill="#f670b4" d="M 159.5,81.5 C 160.167,81.5 160.833,81.5 161.5,81.5C 163.121,81.7869 164.121,82.7869 164.5,84.5C 166.045,85.4519 167.712,85.7852 169.5,85.5C 171.288,85.2148 172.955,85.5481 174.5,86.5C 175.051,89.0561 176.051,91.3894 177.5,93.5C 177.376,94.1067 177.043,94.44 176.5,94.5C 175.395,93.3995 174.062,92.7329 172.5,92.5C 172.489,90.9826 171.823,89.8159 170.5,89C 173.16,87.0183 172.66,86.185 169,86.5C 162.519,88.0786 156.019,89.5786 149.5,91C 148.619,91.7083 147.953,92.5416 147.5,93.5C 145.046,95.0598 142.38,96.0598 139.5,96.5C 139.056,91.8311 140.39,87.8311 143.5,84.5C 144.167,84.1667 144.833,83.8333 145.5,83.5C 146.803,85.6317 148.637,87.2984 151,88.5C 154.259,86.5999 157.093,84.2666 159.5,81.5 Z"/></g>
<g><path style="opacity:1" fill="#c93157" d="M 206.5,82.5 C 209.427,83.7573 211.761,85.7573 213.5,88.5C 213.5,89.5 213.5,90.5 213.5,91.5C 211.801,91.6602 210.134,91.4935 208.5,91C 206.473,89.1207 204.14,87.954 201.5,87.5C 200.094,87.0269 199.427,86.0269 199.5,84.5C 202.603,86.1438 204.936,85.4771 206.5,82.5 Z"/></g>
<g><path style="opacity:1" fill="#665383" d="M 134.5,81.5 C 133.232,82.787 133.565,83.787 135.5,84.5C 134.359,85.4255 134.359,86.2588 135.5,87C 134.833,87.3333 134.167,87.6667 133.5,88C 137.19,90.1693 138.857,93.336 138.5,97.5C 137.5,98.1667 136.5,98.8333 135.5,99.5C 135.167,99.5 134.833,99.5 134.5,99.5C 132.046,97.7149 130.379,95.3815 129.5,92.5C 127.073,92.477 124.74,91.977 122.5,91C 123.73,88.3939 125.397,86.2273 127.5,84.5C 129.32,82.5516 131.654,81.5516 134.5,81.5 Z"/></g>
<g><path style="opacity:1" fill="#c53962" d="M 201.5,87.5 C 204.14,87.954 206.473,89.1207 208.5,91C 210.134,91.4935 211.801,91.6602 213.5,91.5C 213.5,90.5 213.5,89.5 213.5,88.5C 214.167,88.5 214.5,88.8333 214.5,89.5C 214.357,91.2624 214.691,92.9291 215.5,94.5C 214.758,95.2868 213.925,95.9535 213,96.5C 211.874,95.0564 210.374,94.3898 208.5,94.5C 204.358,95.4366 200.358,95.7699 196.5,95.5C 195.482,94.8075 194.482,94.1408 193.5,93.5C 192.449,92.7777 191.782,91.7777 191.5,90.5C 192.265,89.3398 193.265,88.3398 194.5,87.5C 196.838,89.8298 199.171,89.8298 201.5,87.5 Z"/></g>
<g><path style="opacity:1" fill="#fb88da" d="M 172.5,92.5 C 171.833,92.8333 171.167,93.1667 170.5,93.5C 169.348,92.375 168.348,92.375 167.5,93.5C 165.765,91.7649 163.765,90.4316 161.5,89.5C 159.149,90.1734 156.816,90.8401 154.5,91.5C 151.892,91.4003 149.558,92.0669 147.5,93.5C 147.953,92.5416 148.619,91.7083 149.5,91C 156.019,89.5786 162.519,88.0786 169,86.5C 172.66,86.185 173.16,87.0183 170.5,89C 171.823,89.8159 172.489,90.9826 172.5,92.5 Z"/></g>
<g><path style="opacity:1" fill="#fca0f5" d="M 167.5,93.5 C 168.906,93.9731 169.573,94.9731 169.5,96.5C 164.402,95.4461 159.402,94.1127 154.5,92.5C 154.5,92.1667 154.5,91.8333 154.5,91.5C 156.816,90.8401 159.149,90.1734 161.5,89.5C 163.765,90.4316 165.765,91.7649 167.5,93.5 Z"/></g>
<g><path style="opacity:1" fill="#f165a3" d="M 169.5,85.5 C 172.687,84.1944 176.02,84.1944 179.5,85.5C 178.355,86.891 178.355,88.2243 179.5,89.5C 180.527,90.7914 181.527,90.7914 182.5,89.5C 183.695,89.8656 184.361,90.699 184.5,92C 183.956,93.585 183.289,95.085 182.5,96.5C 182.158,97.3382 181.492,97.6716 180.5,97.5C 178.596,97.2624 177.262,96.2624 176.5,94.5C 177.043,94.44 177.376,94.1067 177.5,93.5C 176.051,91.3894 175.051,89.0561 174.5,86.5C 172.955,85.5481 171.288,85.2148 169.5,85.5 Z"/></g>
<g><path style="opacity:1" fill="#f9bbf6" d="M 154.5,91.5 C 154.5,91.8333 154.5,92.1667 154.5,92.5C 154.511,94.0174 155.177,95.1841 156.5,96C 161.048,97.0156 165.382,98.5156 169.5,100.5C 170.416,100.457 171.083,100.124 171.5,99.5C 174.73,99.561 176.563,101.228 177,104.5C 178.302,105.085 179.469,105.751 180.5,106.5C 180.5,106.833 180.5,107.167 180.5,107.5C 171.71,104.233 163.044,100.567 154.5,96.5C 152.121,97.0022 149.621,98.0022 147,99.5C 146.05,98.9777 145.216,98.311 144.5,97.5C 142.971,98.7629 141.305,99.7629 139.5,100.5C 139.5,99.5 139.5,98.5 139.5,97.5C 139.5,97.1667 139.5,96.8333 139.5,96.5C 142.38,96.0598 145.046,95.0598 147.5,93.5C 149.558,92.0669 151.892,91.4003 154.5,91.5 Z"/></g>
<g><path style="opacity:1" fill="#fcb0f9" d="M 154.5,92.5 C 159.402,94.1127 164.402,95.4461 169.5,96.5C 169.782,97.7777 170.449,98.7777 171.5,99.5C 171.083,100.124 170.416,100.457 169.5,100.5C 165.382,98.5156 161.048,97.0156 156.5,96C 155.177,95.1841 154.511,94.0174 154.5,92.5 Z"/></g>
<g><path style="opacity:1" fill="#d25282" d="M 188.5,84.5 C 188.343,85.8734 188.51,87.2068 189,88.5C 189.667,89.8333 190.333,89.8333 191,88.5C 191.464,89.0944 191.631,89.7611 191.5,90.5C 191.782,91.7777 192.449,92.7777 193.5,93.5C 192.766,94.7079 192.433,96.0413 192.5,97.5C 194.38,97.2291 195.713,97.8958 196.5,99.5C 195.883,99.6107 195.383,99.944 195,100.5C 191.678,99.8683 188.511,98.8683 185.5,97.5C 184.391,97.4431 183.391,97.1098 182.5,96.5C 183.289,95.085 183.956,93.585 184.5,92C 184.361,90.699 183.695,89.8656 182.5,89.5C 181.073,87.0997 181.573,86.433 184,87.5C 184.717,86.9558 185.217,86.2891 185.5,85.5C 186.609,85.4431 187.609,85.1098 188.5,84.5 Z"/></g>
<g><path style="opacity:1" fill="#371423" d="M 235.5,90.5 C 237.267,92.7916 238.267,95.4582 238.5,98.5C 238.714,102.257 237.714,102.924 235.5,100.5C 234.833,100.833 234.167,101.167 233.5,101.5C 231.883,100.358 230.05,99.691 228,99.5C 224.298,100.17 220.798,100.503 217.5,100.5C 217.5,98.8333 217.5,97.1667 217.5,95.5C 217.34,93.8008 217.506,92.1341 218,90.5C 218.414,90.9574 218.914,91.2907 219.5,91.5C 224.661,89.3512 229.661,90.0179 234.5,93.5C 235.386,92.675 235.719,91.675 235.5,90.5 Z"/></g>
<g><path style="opacity:1" fill="#fa88c4" d="M 172.5,92.5 C 174.062,92.7329 175.395,93.3995 176.5,94.5C 177.262,96.2624 178.596,97.2624 180.5,97.5C 180.5,98.1667 180.5,98.8333 180.5,99.5C 178.801,99.6602 177.134,99.4935 175.5,99C 174.238,96.724 172.571,94.8907 170.5,93.5C 171.167,93.1667 171.833,92.8333 172.5,92.5 Z"/></g>
<g><path style="opacity:1" fill="#67c3c4" d="M 120.5,95.5 C 123.152,95.4095 125.485,96.0762 127.5,97.5C 125.139,97.3259 122.806,96.9926 120.5,96.5C 120.5,97.5 120.5,98.5 120.5,99.5C 123.727,99.6761 126.727,100.343 129.5,101.5C 126.869,103.153 124.203,104.819 121.5,106.5C 121.167,106.5 120.833,106.5 120.5,106.5C 121.562,105.425 121.562,104.425 120.5,103.5C 116.301,102.861 112.301,101.694 108.5,100C 107.244,99.5831 106.577,98.7498 106.5,97.5C 106.5,97.1667 106.5,96.8333 106.5,96.5C 111.103,95.6167 115.77,95.2834 120.5,95.5 Z"/></g>
<g><path style="opacity:1" fill="#7bdedc" d="M 127.5,97.5 C 129.833,98.1667 132.167,98.8333 134.5,99.5C 134.833,99.5 135.167,99.5 135.5,99.5C 135.5,99.8333 135.5,100.167 135.5,100.5C 133.435,100.517 131.435,100.85 129.5,101.5C 126.727,100.343 123.727,99.6761 120.5,99.5C 120.5,98.5 120.5,97.5 120.5,96.5C 122.806,96.9926 125.139,97.3259 127.5,97.5 Z"/></g>
<g><path style="opacity:1" fill="#849ae3" d="M 138.5,97.5 C 138.833,97.5 139.167,97.5 139.5,97.5C 139.5,98.5 139.5,99.5 139.5,100.5C 139.5,100.833 139.5,101.167 139.5,101.5C 139.167,101.5 138.833,101.5 138.5,101.5C 138.027,100.094 137.027,99.427 135.5,99.5C 136.5,98.8333 137.5,98.1667 138.5,97.5 Z"/></g>
<g><path style="opacity:1" fill="#ad3d5f" d="M 214.5,89.5 C 214.833,89.5 215.167,89.5 215.5,89.5C 216.15,91.4352 216.483,93.4352 216.5,95.5C 217.072,100.246 215.072,102.913 210.5,103.5C 206.78,103.436 203.114,102.936 199.5,102C 198.058,101.623 197.058,100.79 196.5,99.5C 195.713,97.8958 194.38,97.2291 192.5,97.5C 192.433,96.0413 192.766,94.7079 193.5,93.5C 194.482,94.1408 195.482,94.8075 196.5,95.5C 200.358,95.7699 204.358,95.4366 208.5,94.5C 210.374,94.3898 211.874,95.0564 213,96.5C 213.925,95.9535 214.758,95.2868 215.5,94.5C 214.691,92.9291 214.357,91.2624 214.5,89.5 Z"/></g>
<g><path style="opacity:1" fill="#77c3ed" d="M 135.5,100.5 C 135.5,100.167 135.5,99.8333 135.5,99.5C 137.027,99.427 138.027,100.094 138.5,101.5C 137.391,101.443 136.391,101.11 135.5,100.5 Z"/></g>
<g><path style="opacity:1" fill="#fbd0f9" d="M 180.5,107.5 C 180.733,109.062 181.4,110.395 182.5,111.5C 182.5,112.167 182.5,112.833 182.5,113.5C 175.768,106.753 167.601,102.753 158,101.5C 153.206,102.453 148.373,103.12 143.5,103.5C 141.847,103.34 140.514,102.674 139.5,101.5C 139.5,101.167 139.5,100.833 139.5,100.5C 141.305,99.7629 142.971,98.7629 144.5,97.5C 145.216,98.311 146.05,98.9777 147,99.5C 149.621,98.0022 152.121,97.0022 154.5,96.5C 163.044,100.567 171.71,104.233 180.5,107.5 Z"/></g>
<g><path style="opacity:1" fill="#f296c9" d="M 167.5,93.5 C 168.348,92.375 169.348,92.375 170.5,93.5C 172.571,94.8907 174.238,96.724 175.5,99C 177.134,99.4935 178.801,99.6602 180.5,99.5C 182.482,101.502 184.148,103.835 185.5,106.5C 183.833,106.5 182.167,106.5 180.5,106.5C 179.469,105.751 178.302,105.085 177,104.5C 176.563,101.228 174.73,99.561 171.5,99.5C 170.449,98.7777 169.782,97.7777 169.5,96.5C 169.573,94.9731 168.906,93.9731 167.5,93.5 Z"/></g>
<g><path style="opacity:1" fill="#40668e" d="M 106.5,96.5 C 106.5,96.8333 106.5,97.1667 106.5,97.5C 104.246,98.1237 102.579,99.457 101.5,101.5C 99.4689,102.539 98.1355,104.205 97.5,106.5C 96.5987,107.29 95.9321,108.29 95.5,109.5C 94.3516,113.981 94.1849,118.648 95,123.5C 95.3333,123.833 95.6667,124.167 96,124.5C 98.9508,122.924 102.117,122.257 105.5,122.5C 105.354,120.058 106.187,119.391 108,120.5C 108.278,119.584 108.778,118.918 109.5,118.5C 109.417,122.335 110.083,126.002 111.5,129.5C 111.5,130.5 111.5,131.5 111.5,132.5C 106.56,132.388 101.727,133.055 97,134.5C 95.9889,133.944 95.1556,133.278 94.5,132.5C 94.1667,131.167 93.8333,129.833 93.5,128.5C 94.0061,123.843 93.1728,119.51 91,115.5C 89.908,118.044 89.2414,120.711 89,123.5C 88.5017,120.183 88.335,116.85 88.5,113.5C 89.6171,102.142 93.2838,91.8084 99.5,82.5C 100.117,82.3893 100.617,82.056 101,81.5C 101.158,86.4124 100.658,91.2458 99.5,96C 100.025,96.6924 100.692,97.1924 101.5,97.5C 103.071,96.6906 104.738,96.3573 106.5,96.5 Z"/></g>
<g><path style="opacity:1" fill="#5db2b7" d="M 106.5,97.5 C 106.577,98.7498 107.244,99.5831 108.5,100C 112.301,101.694 116.301,102.861 120.5,103.5C 121.562,104.425 121.562,105.425 120.5,106.5C 118.77,107.026 117.436,108.026 116.5,109.5C 116.167,109.5 115.833,109.5 115.5,109.5C 114.826,107.976 113.826,106.642 112.5,105.5C 109.553,104.679 106.553,104.179 103.5,104C 102.244,103.583 101.577,102.75 101.5,101.5C 102.579,99.457 104.246,98.1237 106.5,97.5 Z"/></g>
<g><path style="opacity:1" fill="#fae5fa" d="M 182.5,113.5 C 183.752,115.001 184.752,116.668 185.5,118.5C 183.738,118.643 182.071,118.309 180.5,117.5C 178.029,114.193 175.362,111.027 172.5,108C 165.286,104.871 157.952,104.704 150.5,107.5C 147.56,107.091 145.227,105.757 143.5,103.5C 148.373,103.12 153.206,102.453 158,101.5C 167.601,102.753 175.768,106.753 182.5,113.5 Z"/></g>
<g><path style="opacity:1" fill="#ca739a" d="M 182.5,96.5 C 183.391,97.1098 184.391,97.4431 185.5,97.5C 187.124,100.79 189.457,103.457 192.5,105.5C 191.005,105.989 189.671,106.655 188.5,107.5C 188.167,107.5 187.833,107.5 187.5,107.5C 186.833,107.167 186.167,106.833 185.5,106.5C 184.148,103.835 182.482,101.502 180.5,99.5C 180.5,98.8333 180.5,98.1667 180.5,97.5C 181.492,97.6716 182.158,97.3382 182.5,96.5 Z"/></g>
<g><path style="opacity:1" fill="#a94e6f" d="M 185.5,97.5 C 188.511,98.8683 191.678,99.8683 195,100.5C 195.383,99.944 195.883,99.6107 196.5,99.5C 197.058,100.79 198.058,101.623 199.5,102C 203.114,102.936 206.78,103.436 210.5,103.5C 206.565,105.479 202.565,106.812 198.5,107.5C 196.703,106.27 194.703,105.604 192.5,105.5C 189.457,103.457 187.124,100.79 185.5,97.5 Z"/></g>
<g><path style="opacity:1" fill="#2c1e2a" d="M 238.5,98.5 C 241.2,102.272 242.534,106.605 242.5,111.5C 241.685,110.571 240.852,109.571 240,108.5C 234.428,109.207 228.928,109.54 223.5,109.5C 221.618,103.208 218.951,102.875 215.5,108.5C 216.167,105.833 216.833,103.167 217.5,100.5C 220.798,100.503 224.298,100.17 228,99.5C 230.05,99.691 231.883,100.358 233.5,101.5C 234.167,101.167 234.833,100.833 235.5,100.5C 237.714,102.924 238.714,102.257 238.5,98.5 Z"/></g>
<g><path style="opacity:1" fill="#fcfdfd" d="M 138.5,101.5 C 138.833,101.5 139.167,101.5 139.5,101.5C 140.514,102.674 141.847,103.34 143.5,103.5C 145.227,105.757 147.56,107.091 150.5,107.5C 157.952,104.704 165.286,104.871 172.5,108C 175.362,111.027 178.029,114.193 180.5,117.5C 182.071,118.309 183.738,118.643 185.5,118.5C 185.5,118.833 185.5,119.167 185.5,119.5C 185.167,119.5 184.833,119.5 184.5,119.5C 182.78,121.658 181.947,124.325 182,127.5C 177.739,130.592 173.905,134.258 170.5,138.5C 168.09,140.768 165.423,141.101 162.5,139.5C 159.747,138.978 157.08,138.144 154.5,137C 151.491,134.323 148.824,131.323 146.5,128C 144.03,127.011 141.697,125.845 139.5,124.5C 135.413,123.233 131.747,121.233 128.5,118.5C 130.829,114.503 133.162,110.503 135.5,106.5C 137.727,105.599 138.727,103.933 138.5,101.5 Z"/></g>
<g><path style="opacity:1" fill="#6cf7fa" d="M 135.5,100.5 C 136.391,101.11 137.391,101.443 138.5,101.5C 138.727,103.933 137.727,105.599 135.5,106.5C 134.312,107.684 133.145,107.684 132,106.5C 130.14,108.061 128.974,109.728 128.5,111.5C 126.205,109.52 123.539,108.353 120.5,108C 121.056,107.617 121.389,107.117 121.5,106.5C 124.203,104.819 126.869,103.153 129.5,101.5C 131.435,100.85 133.435,100.517 135.5,100.5 Z"/></g>
<g><path style="opacity:1" fill="#934762" d="M 216.5,95.5 C 216.833,95.5 217.167,95.5 217.5,95.5C 217.5,97.1667 217.5,98.8333 217.5,100.5C 216.833,103.167 216.167,105.833 215.5,108.5C 214.833,109.833 214.167,111.167 213.5,112.5C 209.205,110.203 204.538,109.036 199.5,109C 198.944,108.617 198.611,108.117 198.5,107.5C 202.565,106.812 206.565,105.479 210.5,103.5C 215.072,102.913 217.072,100.246 216.5,95.5 Z"/></g>
<g><path style="opacity:1" fill="#4e99a9" d="M 101.5,101.5 C 101.577,102.75 102.244,103.583 103.5,104C 106.553,104.179 109.553,104.679 112.5,105.5C 113.826,106.642 114.826,107.976 115.5,109.5C 114.833,110.833 113.833,111.833 112.5,112.5C 107.296,111.466 101.963,111.3 96.5,112C 97.4061,110.301 97.7394,108.467 97.5,106.5C 98.1355,104.205 99.4689,102.539 101.5,101.5 Z"/></g>
<g><path style="opacity:1" fill="#66ebf9" d="M 120.5,106.5 C 120.833,106.5 121.167,106.5 121.5,106.5C 121.389,107.117 121.056,107.617 120.5,108C 123.539,108.353 126.205,109.52 128.5,111.5C 128.974,109.728 130.14,108.061 132,106.5C 133.145,107.684 134.312,107.684 135.5,106.5C 133.162,110.503 130.829,114.503 128.5,118.5C 128.167,118.5 127.833,118.5 127.5,118.5C 127.167,118.5 126.833,118.5 126.5,118.5C 122.716,115.951 119.383,112.951 116.5,109.5C 117.436,108.026 118.77,107.026 120.5,106.5 Z"/></g>
<g><path style="opacity:1" fill="#d6a1c2" d="M 180.5,106.5 C 182.167,106.5 183.833,106.5 185.5,106.5C 186.167,106.833 186.833,107.167 187.5,107.5C 189.19,109.423 189.523,111.423 188.5,113.5C 186.498,112.005 184.498,111.338 182.5,111.5C 181.4,110.395 180.733,109.062 180.5,107.5C 180.5,107.167 180.5,106.833 180.5,106.5 Z"/></g>
<g><path style="opacity:1" fill="#2c3843" d="M 223.5,109.5 C 224.092,112.127 224.425,114.794 224.5,117.5C 221.806,114.159 218.806,113.826 215.5,116.5C 214.583,115.873 213.583,115.539 212.5,115.5C 212.5,114.833 212.5,114.167 212.5,113.5C 213.167,113.5 213.5,113.167 213.5,112.5C 214.167,111.167 214.833,109.833 215.5,108.5C 218.951,102.875 221.618,103.208 223.5,109.5 Z"/></g>
<g><path style="opacity:1" fill="#4889a0" d="M 97.5,106.5 C 97.7394,108.467 97.4061,110.301 96.5,112C 101.963,111.3 107.296,111.466 112.5,112.5C 111.833,113.833 111.167,115.167 110.5,116.5C 110.167,116.5 109.833,116.5 109.5,116.5C 104.987,115.403 100.321,115.403 95.5,116.5C 95.5,114.167 95.5,111.833 95.5,109.5C 95.9321,108.29 96.5987,107.29 97.5,106.5 Z"/></g>
<g><path style="opacity:1" fill="#8e5872" d="M 192.5,105.5 C 194.703,105.604 196.703,106.27 198.5,107.5C 198.611,108.117 198.944,108.617 199.5,109C 204.538,109.036 209.205,110.203 213.5,112.5C 213.5,113.167 213.167,113.5 212.5,113.5C 211.374,114.714 210.041,115.714 208.5,116.5C 203.559,115.793 199.226,114.46 195.5,112.5C 194.833,112.5 194.167,112.5 193.5,112.5C 193.43,109.341 191.763,107.674 188.5,107.5C 189.671,106.655 191.005,105.989 192.5,105.5 Z"/></g>
<g><path style="opacity:1" fill="#b489a4" d="M 187.5,107.5 C 187.833,107.5 188.167,107.5 188.5,107.5C 191.763,107.674 193.43,109.341 193.5,112.5C 192.983,114.19 192.65,115.857 192.5,117.5C 191.761,117.631 191.094,117.464 190.5,117C 189.915,115.698 189.249,114.531 188.5,113.5C 189.523,111.423 189.19,109.423 187.5,107.5 Z"/></g>
<g><path style="opacity:1" fill="#1e2934" d="M 242.5,111.5 C 243.833,119.167 243.833,126.833 242.5,134.5C 242.5,133.833 242.5,133.167 242.5,132.5C 242.826,128.116 242.492,123.783 241.5,119.5C 240.707,119.931 239.873,120.265 239,120.5C 237.923,119.571 236.756,118.904 235.5,118.5C 231.629,118.815 227.962,118.482 224.5,117.5C 224.425,114.794 224.092,112.127 223.5,109.5C 228.928,109.54 234.428,109.207 240,108.5C 240.852,109.571 241.685,110.571 242.5,111.5 Z"/></g>
<g><path style="opacity:1" fill="#4fc6f9" d="M 115.5,109.5 C 115.833,109.5 116.167,109.5 116.5,109.5C 119.383,112.951 122.716,115.951 126.5,118.5C 121.253,117.435 116.087,117.768 111,119.5C 110.517,118.552 110.351,117.552 110.5,116.5C 111.167,115.167 111.833,113.833 112.5,112.5C 113.833,111.833 114.833,110.833 115.5,109.5 Z"/></g>
<g><path style="opacity:1" fill="#ceb5ce" d="M 182.5,111.5 C 184.498,111.338 186.498,112.005 188.5,113.5C 189.249,114.531 189.915,115.698 190.5,117C 191.094,117.464 191.761,117.631 192.5,117.5C 192.557,118.609 192.89,119.609 193.5,120.5C 191.435,120.483 189.435,120.15 187.5,119.5C 186.833,119.5 186.167,119.5 185.5,119.5C 185.5,119.167 185.5,118.833 185.5,118.5C 184.752,116.668 183.752,115.001 182.5,113.5C 182.5,112.833 182.5,112.167 182.5,111.5 Z"/></g>
<g><path style="opacity:1" fill="#7c6074" d="M 195.5,112.5 C 199.226,114.46 203.559,115.793 208.5,116.5C 210.041,115.714 211.374,114.714 212.5,113.5C 212.5,114.167 212.5,114.833 212.5,115.5C 211.11,116.899 210.11,118.566 209.5,120.5C 209.167,120.5 208.833,120.5 208.5,120.5C 205.5,120.5 202.5,120.5 199.5,120.5C 197.733,118.062 196.399,115.395 195.5,112.5 Z"/></g>
<g><path style="opacity:1" fill="#947a90" d="M 193.5,112.5 C 194.167,112.5 194.833,112.5 195.5,112.5C 196.399,115.395 197.733,118.062 199.5,120.5C 197.5,120.5 195.5,120.5 193.5,120.5C 192.89,119.609 192.557,118.609 192.5,117.5C 192.65,115.857 192.983,114.19 193.5,112.5 Z"/></g>
<g><path style="opacity:1" fill="#27474e" d="M 224.5,117.5 C 227.962,118.482 231.629,118.815 235.5,118.5C 235.573,120.027 234.906,121.027 233.5,121.5C 231.012,119.612 228.012,118.945 224.5,119.5C 219.405,119.221 214.405,119.555 209.5,120.5C 210.11,118.566 211.11,116.899 212.5,115.5C 213.583,115.539 214.583,115.873 215.5,116.5C 218.806,113.826 221.806,114.159 224.5,117.5 Z"/></g>
<g><path style="opacity:1" fill="#437997" d="M 95.5,109.5 C 95.5,111.833 95.5,114.167 95.5,116.5C 100.321,115.403 104.987,115.403 109.5,116.5C 109.5,117.167 109.5,117.833 109.5,118.5C 108.778,118.918 108.278,119.584 108,120.5C 106.187,119.391 105.354,120.058 105.5,122.5C 102.117,122.257 98.9508,122.924 96,124.5C 95.6667,124.167 95.3333,123.833 95,123.5C 94.1849,118.648 94.3516,113.981 95.5,109.5 Z"/></g>
<g><path style="opacity:1" fill="#4eb2f8" d="M 109.5,116.5 C 109.833,116.5 110.167,116.5 110.5,116.5C 110.351,117.552 110.517,118.552 111,119.5C 116.087,117.768 121.253,117.435 126.5,118.5C 126.833,118.5 127.167,118.5 127.5,118.5C 127.233,120.965 126.566,123.299 125.5,125.5C 125.167,125.5 124.833,125.5 124.5,125.5C 121.399,125.692 118.399,126.358 115.5,127.5C 114.833,127.167 114.167,126.833 113.5,126.5C 112.824,127.602 112.158,128.602 111.5,129.5C 110.083,126.002 109.417,122.335 109.5,118.5C 109.5,117.833 109.5,117.167 109.5,116.5 Z"/></g>
<g><path style="opacity:1" fill="#c8fafa" d="M 184.5,119.5 C 184.833,119.5 185.167,119.5 185.5,119.5C 186.167,119.5 186.833,119.5 187.5,119.5C 188.59,120.857 189.924,121.857 191.5,122.5C 190.5,122.5 189.5,122.5 188.5,122.5C 188.5,124.833 188.5,127.167 188.5,129.5C 187.167,129.5 185.833,129.5 184.5,129.5C 181.508,135.009 177.508,139.842 172.5,144C 171.5,144.333 170.5,144.667 169.5,145C 170.252,145.671 170.586,146.504 170.5,147.5C 169.167,146.5 167.833,145.5 166.5,144.5C 166.167,143.833 165.833,143.167 165.5,142.5C 166.873,142.657 168.207,142.49 169.5,142C 175.054,137.779 179.888,132.946 184,127.5C 184.497,124.854 184.664,122.187 184.5,119.5 Z"/></g>
<g><path style="opacity:1" fill="#81a1a1" d="M 187.5,119.5 C 189.435,120.15 191.435,120.483 193.5,120.5C 195.5,120.5 197.5,120.5 199.5,120.5C 202.5,120.5 205.5,120.5 208.5,120.5C 207.974,122.23 206.974,123.564 205.5,124.5C 203.529,124.864 201.529,125.197 199.5,125.5C 198.278,123.022 196.278,122.022 193.5,122.5C 192.833,122.5 192.167,122.5 191.5,122.5C 189.924,121.857 188.59,120.857 187.5,119.5 Z"/></g>
<g><path style="opacity:1" fill="#2c8d7d" d="M 224.5,119.5 C 224.575,122.206 224.908,124.873 225.5,127.5C 225.167,127.5 224.833,127.5 224.5,127.5C 222.579,128.363 220.579,129.029 218.5,129.5C 217.77,128.288 216.77,127.288 215.5,126.5C 212.232,125.513 208.898,125.18 205.5,125.5C 205.5,125.167 205.5,124.833 205.5,124.5C 206.974,123.564 207.974,122.23 208.5,120.5C 208.833,120.5 209.167,120.5 209.5,120.5C 214.405,119.555 219.405,119.221 224.5,119.5 Z"/></g>
<g><path style="opacity:1" fill="#3d5e91" d="M 88.5,113.5 C 88.335,116.85 88.5017,120.183 89,123.5C 89.2414,120.711 89.908,118.044 91,115.5C 93.1728,119.51 94.0061,123.843 93.5,128.5C 91.8417,130.827 90.175,133.161 88.5,135.5C 87.257,128.025 87.257,120.692 88.5,113.5 Z"/></g>
<g><path style="opacity:1" fill="#20615c" d="M 224.5,119.5 C 228.012,118.945 231.012,119.612 233.5,121.5C 231.353,123.737 229.02,125.737 226.5,127.5C 226.167,127.5 225.833,127.5 225.5,127.5C 224.908,124.873 224.575,122.206 224.5,119.5 Z"/></g>
<g><path style="opacity:1" fill="#77b9b1" d="M 193.5,122.5 C 196.278,122.022 198.278,123.022 199.5,125.5C 201.529,125.197 203.529,124.864 205.5,124.5C 205.5,124.833 205.5,125.167 205.5,125.5C 204.694,126.728 203.694,127.728 202.5,128.5C 202.5,129.167 202.167,129.5 201.5,129.5C 198.808,127.138 196.141,124.804 193.5,122.5 Z"/></g>
<g><path style="opacity:1" fill="#49a1f7" d="M 124.5,125.5 C 123.85,127.435 123.517,129.435 123.5,131.5C 123.167,131.5 122.833,131.5 122.5,131.5C 122.44,130.957 122.107,130.624 121.5,130.5C 119.224,131.213 116.891,131.713 114.5,132C 113.663,133.011 113.33,134.178 113.5,135.5C 112.833,134.5 112.167,133.5 111.5,132.5C 111.5,131.5 111.5,130.5 111.5,129.5C 112.158,128.602 112.824,127.602 113.5,126.5C 114.167,126.833 114.833,127.167 115.5,127.5C 118.399,126.358 121.399,125.692 124.5,125.5 Z"/></g>
<g><path style="opacity:1" fill="#31aa95" d="M 205.5,125.5 C 208.898,125.18 212.232,125.513 215.5,126.5C 216.77,127.288 217.77,128.288 218.5,129.5C 215.888,130.371 213.221,131.037 210.5,131.5C 210.586,130.504 210.252,129.671 209.5,129C 207.19,128.503 204.857,128.337 202.5,128.5C 203.694,127.728 204.694,126.728 205.5,125.5 Z"/></g>
<g><path style="opacity:1" fill="#ccb2fa" d="M 124.5,125.5 C 124.833,125.5 125.167,125.5 125.5,125.5C 125.5,125.833 125.5,126.167 125.5,126.5C 133.881,127.199 139.547,131.533 142.5,139.5C 142.167,139.5 141.833,139.5 141.5,139.5C 137.33,133.053 131.497,131.053 124,133.5C 123.536,132.906 123.369,132.239 123.5,131.5C 123.517,129.435 123.85,127.435 124.5,125.5 Z"/></g>
<g><path style="opacity:1" fill="#0e3944" d="M 235.5,118.5 C 236.756,118.904 237.923,119.571 239,120.5C 239.873,120.265 240.707,119.931 241.5,119.5C 242.492,123.783 242.826,128.116 242.5,132.5C 237.081,135.013 231.415,135.679 225.5,134.5C 225.674,132.139 226.007,129.806 226.5,127.5C 229.02,125.737 231.353,123.737 233.5,121.5C 234.906,121.027 235.573,120.027 235.5,118.5 Z"/></g>
<g><path style="opacity:1" fill="#decefa" d="M 127.5,118.5 C 127.833,118.5 128.167,118.5 128.5,118.5C 131.747,121.233 135.413,123.233 139.5,124.5C 141.93,127.268 144.763,129.601 148,131.5C 148.862,133.087 149.529,134.754 150,136.5C 151.667,137.733 153.167,139.067 154.5,140.5C 152.883,139.962 151.216,139.629 149.5,139.5C 145.576,135.515 141.576,131.515 137.5,127.5C 133.235,125.651 129.235,125.318 125.5,126.5C 125.5,126.167 125.5,125.833 125.5,125.5C 126.566,123.299 127.233,120.965 127.5,118.5 Z"/></g>
<g><path style="opacity:1" fill="#40cfb4" d="M 202.5,128.5 C 204.857,128.337 207.19,128.503 209.5,129C 210.252,129.671 210.586,130.504 210.5,131.5C 208.167,131.5 205.833,131.5 203.5,131.5C 203.167,131.5 202.833,131.5 202.5,131.5C 202.167,131.5 201.833,131.5 201.5,131.5C 201.5,130.833 201.5,130.167 201.5,129.5C 202.167,129.5 202.5,129.167 202.5,128.5 Z"/></g>
<g><path style="opacity:1" fill="#c1a5f5" d="M 122.5,131.5 C 122.833,131.5 123.167,131.5 123.5,131.5C 123.369,132.239 123.536,132.906 124,133.5C 131.497,131.053 137.33,133.053 141.5,139.5C 143.078,141.375 142.745,142.708 140.5,143.5C 140.158,142.662 139.492,142.328 138.5,142.5C 137.5,141.5 136.5,140.5 135.5,139.5C 135.714,137.856 135.38,136.356 134.5,135C 131.905,134.774 129.405,134.274 127,133.5C 124.649,135.751 123.149,138.417 122.5,141.5C 122.5,138.167 122.5,134.833 122.5,131.5 Z"/></g>
<g><path style="opacity:1" fill="#187070" d="M 224.5,127.5 C 223.761,132.147 223.094,136.814 222.5,141.5C 222.167,141.5 221.833,141.5 221.5,141.5C 221.5,140.5 221.5,139.5 221.5,138.5C 216.699,138.175 212.199,136.841 208,134.5C 206.93,134.528 206.097,134.861 205.5,135.5C 203.896,134.713 203.229,133.38 203.5,131.5C 205.833,131.5 208.167,131.5 210.5,131.5C 213.221,131.037 215.888,130.371 218.5,129.5C 220.579,129.029 222.579,128.363 224.5,127.5 Z"/></g>
<g><path style="opacity:1" fill="#4589e4" d="M 122.5,131.5 C 122.5,134.833 122.5,138.167 122.5,141.5C 122.5,143.833 122.5,146.167 122.5,148.5C 122.5,149.833 122.5,151.167 122.5,152.5C 122.167,152.5 121.833,152.5 121.5,152.5C 120.89,150.566 119.89,148.899 118.5,147.5C 116.833,143.5 115.167,139.5 113.5,135.5C 113.33,134.178 113.663,133.011 114.5,132C 116.891,131.713 119.224,131.213 121.5,130.5C 122.107,130.624 122.44,130.957 122.5,131.5 Z"/></g>
<g><path style="opacity:1" fill="#1c9cb9" d="M 202.5,131.5 C 202.833,131.5 203.167,131.5 203.5,131.5C 203.229,133.38 203.896,134.713 205.5,135.5C 205.5,137.167 205.5,138.833 205.5,140.5C 205.167,140.5 204.833,140.5 204.5,140.5C 203.833,137.5 203.167,134.5 202.5,131.5 Z"/></g>
<g><path style="opacity:1" fill="#415389" d="M 93.5,128.5 C 93.8333,129.833 94.1667,131.167 94.5,132.5C 93.5184,135.962 93.185,139.629 93.5,143.5C 92.5028,143.47 91.8361,143.97 91.5,145C 92.1476,146.44 92.4809,147.94 92.5,149.5C 90.1879,145.217 88.8545,140.55 88.5,135.5C 90.175,133.161 91.8417,130.827 93.5,128.5 Z"/></g>
<g><path style="opacity:1" fill="#eafcfc" d="M 184.5,119.5 C 184.664,122.187 184.497,124.854 184,127.5C 179.888,132.946 175.054,137.779 169.5,142C 168.207,142.49 166.873,142.657 165.5,142.5C 165.167,142.5 164.833,142.5 164.5,142.5C 163.833,141.5 163.167,140.5 162.5,139.5C 165.423,141.101 168.09,140.768 170.5,138.5C 173.905,134.258 177.739,130.592 182,127.5C 181.947,124.325 182.78,121.658 184.5,119.5 Z"/></g>
<g><path style="opacity:1" fill="#eee7fb" d="M 139.5,124.5 C 141.697,125.845 144.03,127.011 146.5,128C 148.824,131.323 151.491,134.323 154.5,137C 157.08,138.144 159.747,138.978 162.5,139.5C 163.167,140.5 163.833,141.5 164.5,142.5C 161.237,141.518 157.903,140.851 154.5,140.5C 153.167,139.067 151.667,137.733 150,136.5C 149.529,134.754 148.862,133.087 148,131.5C 144.763,129.601 141.93,127.268 139.5,124.5 Z"/></g>
<g><path style="opacity:1" fill="#1ec9f9" d="M 201.5,131.5 C 201.833,131.5 202.167,131.5 202.5,131.5C 203.167,134.5 203.833,137.5 204.5,140.5C 204.5,141.5 204.5,142.5 204.5,143.5C 202.7,144.605 201.533,143.939 201,141.5C 200.692,142.308 200.192,142.975 199.5,143.5C 197.79,142.113 196.123,140.779 194.5,139.5C 196.124,136.21 198.457,133.543 201.5,131.5 Z"/></g>
<g><path style="opacity:1" fill="#3d4a78" d="M 94.5,132.5 C 95.1556,133.278 95.9889,133.944 97,134.5C 101.727,133.055 106.56,132.388 111.5,132.5C 112.167,133.5 112.833,134.5 113.5,135.5C 115.167,139.5 116.833,143.5 118.5,147.5C 117.178,147.33 116.011,147.663 115,148.5C 114.835,145.007 113.002,143.174 109.5,143C 107.402,142.322 105.402,142.489 103.5,143.5C 101.339,143.174 99.5059,142.174 98,140.5C 97.6012,140.728 97.4346,141.062 97.5,141.5C 96.8186,143.158 95.9853,144.825 95,146.5C 94.7679,145.263 94.2679,144.263 93.5,143.5C 93.185,139.629 93.5184,135.962 94.5,132.5 Z"/></g>
<g><path style="opacity:1" fill="#63ddfa" d="M 201.5,131.5 C 198.457,133.543 196.124,136.21 194.5,139.5C 192.29,139.894 190.957,141.227 190.5,143.5C 189.833,143.5 189.167,143.5 188.5,143.5C 188.062,143.565 187.728,143.399 187.5,143C 190.167,140.195 190.833,137.028 189.5,133.5C 189.222,131.654 189.889,130.32 191.5,129.5C 194.863,130.168 198.197,130.835 201.5,131.5 Z"/></g>
<g><path style="opacity:1" fill="#c5b6f4" d="M 149.5,139.5 C 150.833,140.5 150.833,141.5 149.5,142.5C 148.833,142.5 148.167,142.5 147.5,142.5C 145.706,141.767 144.039,140.767 142.5,139.5C 139.547,131.533 133.881,127.199 125.5,126.5C 129.235,125.318 133.235,125.651 137.5,127.5C 141.576,131.515 145.576,135.515 149.5,139.5 Z"/></g>
<g><path style="opacity:1" fill="#044654" d="M 224.5,127.5 C 224.833,127.5 225.167,127.5 225.5,127.5C 225.833,127.5 226.167,127.5 226.5,127.5C 226.007,129.806 225.674,132.139 225.5,134.5C 231.415,135.679 237.081,135.013 242.5,132.5C 242.5,133.167 242.5,133.833 242.5,134.5C 242.373,139.151 241.373,143.485 239.5,147.5C 240.135,144.507 240.301,141.507 240,138.5C 238.31,140.603 236.476,142.603 234.5,144.5C 231.924,145.429 229.424,146.429 227,147.5C 225.463,146.886 224.13,146.886 223,147.5C 222.505,145.527 222.338,143.527 222.5,141.5C 223.094,136.814 223.761,132.147 224.5,127.5 Z"/></g>
<g><path style="opacity:1" fill="#c098f7" d="M 135.5,139.5 C 133.801,139.34 132.134,139.506 130.5,140C 128.598,142.484 126.765,144.984 125,147.5C 124.517,148.448 124.351,149.448 124.5,150.5C 123.833,149.833 123.167,149.167 122.5,148.5C 122.5,146.167 122.5,143.833 122.5,141.5C 123.149,138.417 124.649,135.751 127,133.5C 129.405,134.274 131.905,134.774 134.5,135C 135.38,136.356 135.714,137.856 135.5,139.5 Z"/></g>
<g><path style="opacity:1" fill="#cac9ed" d="M 154.5,140.5 C 157.903,140.851 161.237,141.518 164.5,142.5C 164.833,142.5 165.167,142.5 165.5,142.5C 165.833,143.167 166.167,143.833 166.5,144.5C 166.5,144.833 166.5,145.167 166.5,145.5C 164.118,146.546 161.785,146.546 159.5,145.5C 159.631,144.761 159.464,144.094 159,143.5C 157.122,142.947 155.622,141.947 154.5,140.5 Z"/></g>
<g><path style="opacity:1" fill="#a396d9" d="M 141.5,139.5 C 141.833,139.5 142.167,139.5 142.5,139.5C 144.039,140.767 145.706,141.767 147.5,142.5C 146.77,144.006 146.437,145.34 146.5,146.5C 143.68,146.913 141.68,145.913 140.5,143.5C 142.745,142.708 143.078,141.375 141.5,139.5 Z"/></g>
<g><path style="opacity:1" fill="#b8b7e7" d="M 149.5,139.5 C 151.216,139.629 152.883,139.962 154.5,140.5C 155.622,141.947 157.122,142.947 159,143.5C 159.464,144.094 159.631,144.761 159.5,145.5C 157.5,145.5 155.5,145.5 153.5,145.5C 151.027,145.912 149.694,144.912 149.5,142.5C 150.833,141.5 150.833,140.5 149.5,139.5 Z"/></g>
<g><path style="opacity:1" fill="#a5fafb" d="M 191.5,122.5 C 192.167,122.5 192.833,122.5 193.5,122.5C 196.141,124.804 198.808,127.138 201.5,129.5C 201.5,130.167 201.5,130.833 201.5,131.5C 198.197,130.835 194.863,130.168 191.5,129.5C 189.889,130.32 189.222,131.654 189.5,133.5C 188.833,134.5 188.167,135.5 187.5,136.5C 181.044,138.942 176.044,143.275 172.5,149.5C 171.5,149.167 170.833,148.5 170.5,147.5C 170.586,146.504 170.252,145.671 169.5,145C 170.5,144.667 171.5,144.333 172.5,144C 177.508,139.842 181.508,135.009 184.5,129.5C 185.833,129.5 187.167,129.5 188.5,129.5C 188.5,127.167 188.5,124.833 188.5,122.5C 189.5,122.5 190.5,122.5 191.5,122.5 Z"/></g>
<g><path style="opacity:1" fill="#148582" d="M 221.5,141.5 C 220.983,145.222 220.15,148.888 219,152.5C 218.617,153.056 218.117,153.389 217.5,153.5C 217.5,151.5 217.5,149.5 217.5,147.5C 214.164,147.533 210.997,146.866 208,145.5C 207.768,146.737 207.268,147.737 206.5,148.5C 206.784,146.585 206.451,144.919 205.5,143.5C 205.5,142.5 205.5,141.5 205.5,140.5C 205.5,138.833 205.5,137.167 205.5,135.5C 206.097,134.861 206.93,134.528 208,134.5C 212.199,136.841 216.699,138.175 221.5,138.5C 221.5,139.5 221.5,140.5 221.5,141.5 Z"/></g>
<g><path style="opacity:1" fill="#3a3d67" d="M 118.5,147.5 C 119.89,148.899 120.89,150.566 121.5,152.5C 122.795,154.372 122.628,156.038 121,157.5C 120.692,156.692 120.192,156.025 119.5,155.5C 115.692,153.355 111.692,151.689 107.5,150.5C 102.465,149.165 102.465,147.999 107.5,147C 106.207,146.51 104.873,146.343 103.5,146.5C 103.5,145.5 103.5,144.5 103.5,143.5C 105.402,142.489 107.402,142.322 109.5,143C 113.002,143.174 114.835,145.007 115,148.5C 116.011,147.663 117.178,147.33 118.5,147.5 Z"/></g>
<g><path style="opacity:1" fill="#af89e3" d="M 135.5,139.5 C 136.5,140.5 137.5,141.5 138.5,142.5C 138.025,144.784 137.025,146.784 135.5,148.5C 132.549,149.809 131.216,152.143 131.5,155.5C 129.473,155.662 127.473,155.495 125.5,155C 124.62,153.644 124.286,152.144 124.5,150.5C 124.351,149.448 124.517,148.448 125,147.5C 126.765,144.984 128.598,142.484 130.5,140C 132.134,139.506 133.801,139.34 135.5,139.5 Z"/></g>
<g><path style="opacity:1" fill="#88faf8" d="M 187.5,136.5 C 184.948,139.387 183.282,142.72 182.5,146.5C 181.5,147.833 180.5,149.167 179.5,150.5C 178.288,149.77 177.288,148.77 176.5,147.5C 174.889,148.32 174.222,149.654 174.5,151.5C 173.833,151.167 173.167,150.833 172.5,150.5C 172.5,150.167 172.5,149.833 172.5,149.5C 176.044,143.275 181.044,138.942 187.5,136.5 Z"/></g>
<g><path style="opacity:1" fill="#1dd5fb" d="M 194.5,139.5 C 196.123,140.779 197.79,142.113 199.5,143.5C 200.192,142.975 200.692,142.308 201,141.5C 201.533,143.939 202.7,144.605 204.5,143.5C 204.662,145.527 204.495,147.527 204,149.5C 203.586,149.957 203.086,150.291 202.5,150.5C 199.557,149.756 196.557,149.256 193.5,149C 191.393,147.736 190.393,145.903 190.5,143.5C 190.957,141.227 192.29,139.894 194.5,139.5 Z"/></g>
<g><path style="opacity:1" fill="#8889bb" d="M 147.5,142.5 C 148.167,142.5 148.833,142.5 149.5,142.5C 149.694,144.912 151.027,145.912 153.5,145.5C 153.539,146.583 153.873,147.583 154.5,148.5C 157.012,149.795 159.679,150.461 162.5,150.5C 163.833,150.5 164.5,151.167 164.5,152.5C 163.833,152.5 163.5,152.833 163.5,153.5C 162.224,155.562 161.39,157.896 161,160.5C 160.802,158.618 160.302,156.952 159.5,155.5C 159.5,154.5 159.5,153.5 159.5,152.5C 155.043,152.824 150.71,152.824 146.5,152.5C 146.36,150.876 147.027,149.71 148.5,149C 147.244,148.583 146.577,147.75 146.5,146.5C 146.437,145.34 146.77,144.006 147.5,142.5 Z"/></g>
<g><path style="opacity:1" fill="#11948e" d="M 217.5,153.5 C 217.34,155.153 216.674,156.486 215.5,157.5C 215.5,156.167 215.5,154.833 215.5,153.5C 212.5,152.833 209.5,152.167 206.5,151.5C 206.5,150.5 206.5,149.5 206.5,148.5C 207.268,147.737 207.768,146.737 208,145.5C 210.997,146.866 214.164,147.533 217.5,147.5C 217.5,149.5 217.5,151.5 217.5,153.5 Z"/></g>
<g><path style="opacity:1" fill="#9ca0c7" d="M 153.5,145.5 C 155.5,145.5 157.5,145.5 159.5,145.5C 161.785,146.546 164.118,146.546 166.5,145.5C 166.5,146.833 166.5,148.167 166.5,149.5C 164.901,149.232 163.568,149.566 162.5,150.5C 159.679,150.461 157.012,149.795 154.5,148.5C 153.873,147.583 153.539,146.583 153.5,145.5 Z"/></g>
<g><path style="opacity:1" fill="#3b3668" d="M 103.5,143.5 C 103.5,144.5 103.5,145.5 103.5,146.5C 104.873,146.343 106.207,146.51 107.5,147C 102.465,147.999 102.465,149.165 107.5,150.5C 107.421,151.93 107.754,153.264 108.5,154.5C 112.522,154.689 112.522,156.023 108.5,158.5C 107.702,160.078 107.202,161.744 107,163.5C 106.167,162.5 105.333,161.5 104.5,160.5C 104.167,161.5 103.833,162.5 103.5,163.5C 105.093,168.399 107.093,173.065 109.5,177.5C 105.101,173.432 101.435,168.765 98.5,163.5C 99.2546,159.401 99.588,155.234 99.5,151C 97.7732,148.096 97.1065,144.93 97.5,141.5C 97.4346,141.062 97.6012,140.728 98,140.5C 99.5059,142.174 101.339,143.174 103.5,143.5 Z"/></g>
<g><path style="opacity:1" fill="#1cdefb" d="M 204.5,140.5 C 204.833,140.5 205.167,140.5 205.5,140.5C 205.5,141.5 205.5,142.5 205.5,143.5C 205.5,146.833 205.5,150.167 205.5,153.5C 204.178,153.67 203.011,153.337 202,152.5C 201.225,154.223 199.892,155.223 198,155.5C 193.892,155.214 190.225,153.881 187,151.5C 186.833,150.667 186.667,149.833 186.5,149C 186.954,147.061 187.621,145.228 188.5,143.5C 189.167,143.5 189.833,143.5 190.5,143.5C 190.393,145.903 191.393,147.736 193.5,149C 196.557,149.256 199.557,149.756 202.5,150.5C 203.086,150.291 203.586,149.957 204,149.5C 204.495,147.527 204.662,145.527 204.5,143.5C 204.5,142.5 204.5,141.5 204.5,140.5 Z"/></g>
<g><path style="opacity:1" fill="#7987a7" d="M 166.5,144.5 C 167.833,145.5 169.167,146.5 170.5,147.5C 170.833,148.5 171.5,149.167 172.5,149.5C 172.5,149.833 172.5,150.167 172.5,150.5C 170.072,151.212 167.739,152.212 165.5,153.5C 164.893,153.376 164.56,153.043 164.5,152.5C 164.5,151.167 163.833,150.5 162.5,150.5C 163.568,149.566 164.901,149.232 166.5,149.5C 166.5,148.167 166.5,146.833 166.5,145.5C 166.5,145.167 166.5,144.833 166.5,144.5 Z"/></g>
<g><path style="opacity:1" fill="#8d7ec4" d="M 138.5,142.5 C 139.492,142.328 140.158,142.662 140.5,143.5C 141.68,145.913 143.68,146.913 146.5,146.5C 146.577,147.75 147.244,148.583 148.5,149C 147.027,149.71 146.36,150.876 146.5,152.5C 146.167,153.167 145.833,153.833 145.5,154.5C 141.846,154.942 138.179,155.276 134.5,155.5C 134.674,153.139 135.007,150.806 135.5,148.5C 137.025,146.784 138.025,144.784 138.5,142.5 Z"/></g>
<g><path style="opacity:1" fill="#015163" d="M 239.5,147.5 C 239.065,150.157 238.065,152.491 236.5,154.5C 236.728,152.645 236.061,151.812 234.5,152C 231.169,156.693 226.836,160.026 221.5,162C 218.202,165.061 214.869,167.394 211.5,169C 212.167,169.333 212.833,169.667 213.5,170C 210.008,173.649 207.341,177.816 205.5,182.5C 200.984,185.31 196.984,188.81 193.5,193C 194.056,193.383 194.389,193.883 194.5,194.5C 194.5,195.167 194.833,195.5 195.5,195.5C 190.256,198.232 184.589,199.899 178.5,200.5C 178.5,200.167 178.5,199.833 178.5,199.5C 180.833,198.167 183.167,196.833 185.5,195.5C 189.274,194.694 191.774,192.361 193,188.5C 193.167,186.833 193.333,185.167 193.5,183.5C 193.387,181.359 192.72,179.525 191.5,178C 192.167,177.667 192.833,177.333 193.5,177C 192.167,176.333 192.167,175.667 193.5,175C 192.207,174.51 190.873,174.343 189.5,174.5C 189.649,173.448 189.483,172.448 189,171.5C 188.667,171.833 188.333,172.167 188,172.5C 186.961,171.29 185.794,170.29 184.5,169.5C 184.517,165.623 183.351,164.957 181,167.5C 178.515,165.334 178.015,162.668 179.5,159.5C 181.395,160.973 183.061,162.64 184.5,164.5C 186.9,167.903 189.9,170.57 193.5,172.5C 201.245,174.304 207.245,171.637 211.5,164.5C 213.588,162.664 214.921,160.331 215.5,157.5C 216.674,156.486 217.34,155.153 217.5,153.5C 218.117,153.389 218.617,153.056 219,152.5C 220.15,148.888 220.983,145.222 221.5,141.5C 221.833,141.5 222.167,141.5 222.5,141.5C 222.338,143.527 222.505,145.527 223,147.5C 224.13,146.886 225.463,146.886 227,147.5C 229.424,146.429 231.924,145.429 234.5,144.5C 236.476,142.603 238.31,140.603 240,138.5C 240.301,141.507 240.135,144.507 239.5,147.5 Z"/></g>
<g><path style="opacity:1" fill="#5c6d8d" d="M 172.5,150.5 C 173.167,150.833 173.833,151.167 174.5,151.5C 174.833,152.167 175.167,152.833 175.5,153.5C 171.779,154.728 168.112,156.062 164.5,157.5C 163.566,156.432 163.232,155.099 163.5,153.5C 163.5,152.833 163.833,152.5 164.5,152.5C 164.56,153.043 164.893,153.376 165.5,153.5C 167.739,152.212 170.072,151.212 172.5,150.5 Z"/></g>
<g><path style="opacity:1" fill="#55e9d1" d="M 179.5,150.5 C 180.328,153.804 181.828,156.804 184,159.5C 184.494,161.134 184.66,162.801 184.5,164.5C 183.061,162.64 181.395,160.973 179.5,159.5C 178.92,157.251 177.587,155.585 175.5,154.5C 175.5,154.167 175.5,153.833 175.5,153.5C 175.167,152.833 174.833,152.167 174.5,151.5C 174.222,149.654 174.889,148.32 176.5,147.5C 177.288,148.77 178.288,149.77 179.5,150.5 Z"/></g>
<g><path style="opacity:1" fill="#3ee9fb" d="M 189.5,133.5 C 190.833,137.028 190.167,140.195 187.5,143C 187.728,143.399 188.062,143.565 188.5,143.5C 187.621,145.228 186.954,147.061 186.5,149C 186.667,149.833 186.833,150.667 187,151.5C 190.225,153.881 193.892,155.214 198,155.5C 199.892,155.223 201.225,154.223 202,152.5C 203.011,153.337 204.178,153.67 205.5,153.5C 205.5,154.833 205.5,156.167 205.5,157.5C 204.662,157.842 204.328,158.508 204.5,159.5C 203.265,159.279 202.265,158.612 201.5,157.5C 191.995,159.249 185.661,155.582 182.5,146.5C 183.282,142.72 184.948,139.387 187.5,136.5C 188.167,135.5 188.833,134.5 189.5,133.5 Z"/></g>
<g><path style="opacity:1" fill="#10a49d" d="M 205.5,143.5 C 206.451,144.919 206.784,146.585 206.5,148.5C 206.5,149.5 206.5,150.5 206.5,151.5C 209.5,152.167 212.5,152.833 215.5,153.5C 215.5,154.833 215.5,156.167 215.5,157.5C 214.921,160.331 213.588,162.664 211.5,164.5C 211.863,162.089 210.863,160.589 208.5,160C 210.313,160.046 211.979,159.88 213.5,159.5C 211.711,158.123 209.711,157.123 207.5,156.5C 206.749,157.376 206.249,158.376 206,159.5C 205.536,158.906 205.369,158.239 205.5,157.5C 205.5,156.167 205.5,154.833 205.5,153.5C 205.5,150.167 205.5,146.833 205.5,143.5 Z"/></g>
<g><path style="opacity:1" fill="#005b6e" d="M 236.5,154.5 C 235.873,158.42 234.207,161.753 231.5,164.5C 231.649,163.448 231.483,162.448 231,161.5C 224.675,167.456 218.341,173.456 212,179.5C 211.691,180.766 211.191,181.933 210.5,183C 205.265,187.084 199.931,190.917 194.5,194.5C 194.389,193.883 194.056,193.383 193.5,193C 196.984,188.81 200.984,185.31 205.5,182.5C 207.341,177.816 210.008,173.649 213.5,170C 212.833,169.667 212.167,169.333 211.5,169C 214.869,167.394 218.202,165.061 221.5,162C 226.836,160.026 231.169,156.693 234.5,152C 236.061,151.812 236.728,152.645 236.5,154.5 Z"/></g>
<g><path style="opacity:1" fill="#43427a" d="M 97.5,141.5 C 97.1065,144.93 97.7732,148.096 99.5,151C 99.588,155.234 99.2546,159.401 98.5,163.5C 95.5329,159.271 93.5329,154.604 92.5,149.5C 92.4809,147.94 92.1476,146.44 91.5,145C 91.8361,143.97 92.5028,143.47 93.5,143.5C 94.2679,144.263 94.7679,145.263 95,146.5C 95.9853,144.825 96.8186,143.158 97.5,141.5 Z"/></g>
<g><path style="opacity:1" fill="#372b59" d="M 107.5,150.5 C 111.692,151.689 115.692,153.355 119.5,155.5C 120.192,156.025 120.692,156.692 121,157.5C 122.628,156.038 122.795,154.372 121.5,152.5C 121.833,152.5 122.167,152.5 122.5,152.5C 124.425,156.751 127.092,160.417 130.5,163.5C 131.11,164.391 131.443,165.391 131.5,166.5C 129.161,164.493 126.828,162.493 124.5,160.5C 122.865,161.046 121.199,161.38 119.5,161.5C 119.768,163.099 119.434,164.432 118.5,165.5C 111.367,169.757 110.7,174.924 116.5,181C 116.164,182.03 115.497,182.53 114.5,182.5C 112.5,181.167 110.833,179.5 109.5,177.5C 107.093,173.065 105.093,168.399 103.5,163.5C 103.833,162.5 104.167,161.5 104.5,160.5C 105.333,161.5 106.167,162.5 107,163.5C 107.202,161.744 107.702,160.078 108.5,158.5C 112.522,156.023 112.522,154.689 108.5,154.5C 107.754,153.264 107.421,151.93 107.5,150.5 Z"/></g>
<g><path style="opacity:1" fill="#5b6293" d="M 146.5,152.5 C 150.71,152.824 155.043,152.824 159.5,152.5C 159.5,153.5 159.5,154.5 159.5,155.5C 159.5,156.833 159.5,158.167 159.5,159.5C 158.167,159.833 156.833,160.167 155.5,160.5C 153.863,161.218 152.197,161.384 150.5,161C 152.947,159.771 153.113,158.271 151,156.5C 149.187,157.609 148.354,156.942 148.5,154.5C 147.5,154.5 146.5,154.5 145.5,154.5C 145.833,153.833 146.167,153.167 146.5,152.5 Z"/></g>
<g><path style="opacity:1" fill="#956fc5" d="M 122.5,148.5 C 123.167,149.167 123.833,149.833 124.5,150.5C 124.286,152.144 124.62,153.644 125.5,155C 127.473,155.495 129.473,155.662 131.5,155.5C 131.216,152.143 132.549,149.809 135.5,148.5C 135.007,150.806 134.674,153.139 134.5,155.5C 134.254,158.415 133.921,161.415 133.5,164.5C 132.583,163.873 131.583,163.539 130.5,163.5C 127.092,160.417 124.425,156.751 122.5,152.5C 122.5,151.167 122.5,149.833 122.5,148.5 Z"/></g>
<g><path style="opacity:1" fill="#425574" d="M 175.5,153.5 C 175.5,153.833 175.5,154.167 175.5,154.5C 175.414,155.496 175.748,156.329 176.5,157C 174.294,159.037 172.294,161.203 170.5,163.5C 167.527,164.81 165.193,166.81 163.5,169.5C 164.021,165.519 164.354,161.519 164.5,157.5C 168.112,156.062 171.779,154.728 175.5,153.5 Z"/></g>
<g><path style="opacity:1" fill="#8163b1" d="M 145.5,154.5 C 145.771,156.38 145.104,157.713 143.5,158.5C 141.026,159.276 140.359,160.776 141.5,163C 139.479,163.401 138.145,164.568 137.5,166.5C 136.311,167.429 134.978,167.762 133.5,167.5C 132.833,167.167 132.167,166.833 131.5,166.5C 131.443,165.391 131.11,164.391 130.5,163.5C 131.583,163.539 132.583,163.873 133.5,164.5C 133.921,161.415 134.254,158.415 134.5,155.5C 138.179,155.276 141.846,154.942 145.5,154.5 Z"/></g>
<g><path style="opacity:1" fill="#1af8f9" d="M 182.5,146.5 C 185.661,155.582 191.995,159.249 201.5,157.5C 202.265,158.612 203.265,159.279 204.5,159.5C 203.572,163.362 202.072,167.029 200,170.5C 198.211,172.229 196.044,172.896 193.5,172.5C 189.9,170.57 186.9,167.903 184.5,164.5C 184.66,162.801 184.494,161.134 184,159.5C 181.828,156.804 180.328,153.804 179.5,150.5C 180.5,149.167 181.5,147.833 182.5,146.5 Z"/></g>
<g><path style="opacity:1" fill="#6b579d" d="M 143.5,158.5 C 142.553,162.886 142.553,167.386 143.5,172C 141.311,172.322 139.311,171.822 137.5,170.5C 135.596,170.262 134.262,169.262 133.5,167.5C 134.978,167.762 136.311,167.429 137.5,166.5C 138.145,164.568 139.479,163.401 141.5,163C 140.359,160.776 141.026,159.276 143.5,158.5 Z"/></g>
<g><path style="opacity:1" fill="#564f78" d="M 163.5,153.5 C 163.232,155.099 163.566,156.432 164.5,157.5C 164.354,161.519 164.021,165.519 163.5,169.5C 163.167,170.167 162.833,170.833 162.5,171.5C 161.833,171.833 161.167,172.167 160.5,172.5C 159.275,171.848 158.608,170.681 158.5,169C 159.107,165.857 159.441,162.69 159.5,159.5C 159.5,158.167 159.5,156.833 159.5,155.5C 160.302,156.952 160.802,158.618 161,160.5C 161.39,157.896 162.224,155.562 163.5,153.5 Z"/></g>
<g><path style="opacity:1" fill="#114359" d="M 175.5,154.5 C 177.587,155.585 178.92,157.251 179.5,159.5C 178.015,162.668 178.515,165.334 181,167.5C 183.351,164.957 184.517,165.623 184.5,169.5C 182.391,170.65 180.391,171.984 178.5,173.5C 178.265,172.903 177.765,172.57 177,172.5C 175.141,173.675 173.308,174.675 171.5,175.5C 170.833,175.5 170.167,175.5 169.5,175.5C 170.413,173.914 170.413,172.414 169.5,171C 170.167,169.667 170.833,168.333 171.5,167C 170.92,165.665 170.587,164.498 170.5,163.5C 172.294,161.203 174.294,159.037 176.5,157C 175.748,156.329 175.414,155.496 175.5,154.5 Z"/></g>
<g><path style="opacity:1" fill="#1c3d5c" d="M 170.5,163.5 C 170.587,164.498 170.92,165.665 171.5,167C 170.833,168.333 170.167,169.667 169.5,171C 170.413,172.414 170.413,173.914 169.5,175.5C 169.158,176.338 168.492,176.672 167.5,176.5C 166.25,176.423 165.417,175.756 165,174.5C 164.163,176.007 162.996,176.507 161.5,176C 162.38,174.644 162.714,173.144 162.5,171.5C 162.833,170.833 163.167,170.167 163.5,169.5C 165.193,166.81 167.527,164.81 170.5,163.5 Z"/></g>
<g><path style="opacity:1" fill="#004050" d="M 184.5,169.5 C 185.794,170.29 186.961,171.29 188,172.5C 188.333,172.167 188.667,171.833 189,171.5C 189.483,172.448 189.649,173.448 189.5,174.5C 190.873,174.343 192.207,174.51 193.5,175C 192.167,175.667 192.167,176.333 193.5,177C 192.833,177.333 192.167,177.667 191.5,178C 192.72,179.525 193.387,181.359 193.5,183.5C 193.333,185.167 193.167,186.833 193,188.5C 191.774,192.361 189.274,194.694 185.5,195.5C 186.431,191.381 186.264,187.381 185,183.5C 181.833,181 178.667,178.5 175.5,176C 176.942,175.623 177.942,174.79 178.5,173.5C 180.391,171.984 182.391,170.65 184.5,169.5 Z"/></g>
<g><path style="opacity:1" fill="#13bba9" d="M 211.5,164.5 C 207.245,171.637 201.245,174.304 193.5,172.5C 196.044,172.896 198.211,172.229 200,170.5C 202.072,167.029 203.572,163.362 204.5,159.5C 204.328,158.508 204.662,157.842 205.5,157.5C 205.369,158.239 205.536,158.906 206,159.5C 206.249,158.376 206.749,157.376 207.5,156.5C 209.711,157.123 211.711,158.123 213.5,159.5C 211.979,159.88 210.313,160.046 208.5,160C 210.863,160.589 211.863,162.089 211.5,164.5 Z"/></g>
<g><path style="opacity:1" fill="#3c4372" d="M 159.5,159.5 C 159.441,162.69 159.107,165.857 158.5,169C 158.608,170.681 159.275,171.848 160.5,172.5C 159.328,174.539 157.662,175.872 155.5,176.5C 151.878,176.678 148.544,176.011 145.5,174.5C 146.978,174.762 148.311,174.429 149.5,173.5C 152.249,169.489 154.249,165.156 155.5,160.5C 156.833,160.167 158.167,159.833 159.5,159.5 Z"/></g>
<g><path style="opacity:1" fill="#56508d" d="M 145.5,154.5 C 146.5,154.5 147.5,154.5 148.5,154.5C 148.354,156.942 149.187,157.609 151,156.5C 153.113,158.271 152.947,159.771 150.5,161C 152.197,161.384 153.863,161.218 155.5,160.5C 154.249,165.156 152.249,169.489 149.5,173.5C 148.311,174.429 146.978,174.762 145.5,174.5C 143.565,173.85 141.565,173.517 139.5,173.5C 138.833,172.5 138.167,171.5 137.5,170.5C 139.311,171.822 141.311,172.322 143.5,172C 142.553,167.386 142.553,162.886 143.5,158.5C 145.104,157.713 145.771,156.38 145.5,154.5 Z"/></g>
<g><path style="opacity:1" fill="#123361" d="M 139.5,174.5 C 139.5,174.167 139.5,173.833 139.5,173.5C 141.565,173.517 143.565,173.85 145.5,174.5C 148.544,176.011 151.878,176.678 155.5,176.5C 159.597,181.756 158.264,183.756 151.5,182.5C 150.609,181.89 149.609,181.557 148.5,181.5C 145.81,178.815 142.81,176.482 139.5,174.5 Z"/></g>
<g><path style="opacity:1" fill="#110e24" d="M 336.5,170.5 C 336.5,193.5 336.5,216.5 336.5,239.5C 324.833,239.5 313.167,239.5 301.5,239.5C 301.5,238.167 301.5,236.833 301.5,235.5C 302.5,235.5 303.5,235.5 304.5,235.5C 304.5,234.167 304.5,232.833 304.5,231.5C 305.833,231.5 307.167,231.5 308.5,231.5C 308.5,229.167 308.5,226.833 308.5,224.5C 310.5,224.5 312.5,224.5 314.5,224.5C 314.5,222.5 314.5,220.5 314.5,218.5C 315.833,218.5 317.167,218.5 318.5,218.5C 318.5,216.167 318.5,213.833 318.5,211.5C 319.5,211.5 320.5,211.5 321.5,211.5C 321.5,209.167 321.5,206.833 321.5,204.5C 322.5,204.5 323.5,204.5 324.5,204.5C 324.5,203.167 324.5,201.833 324.5,200.5C 325.5,200.5 326.5,200.5 327.5,200.5C 328.207,197.214 328.54,193.881 328.5,190.5C 329.5,190.5 330.5,190.5 331.5,190.5C 331.46,187.119 331.793,183.786 332.5,180.5C 333.5,180.5 334.5,180.5 335.5,180.5C 335.187,176.958 335.521,173.625 336.5,170.5 Z"/></g>
<g><path style="opacity:1" fill="#231a40" d="M 131.5,166.5 C 132.167,166.833 132.833,167.167 133.5,167.5C 134.262,169.262 135.596,170.262 137.5,170.5C 138.167,171.5 138.833,172.5 139.5,173.5C 139.5,173.833 139.5,174.167 139.5,174.5C 137.857,174.52 136.524,173.853 135.5,172.5C 133.512,173.289 133.179,174.455 134.5,176C 132.956,176.29 131.623,176.956 130.5,178C 131.113,180.147 131.779,182.314 132.5,184.5C 134.146,185.779 135.313,187.445 136,189.5C 137.156,188.007 137.99,188.174 138.5,190C 138.355,190.772 138.022,191.439 137.5,192C 140.297,193.233 142.963,194.733 145.5,196.5C 147.396,197.466 149.396,197.799 151.5,197.5C 150.9,198.9 149.9,199.9 148.5,200.5C 144.303,199.458 140.303,198.125 136.5,196.5C 137.239,196.631 137.906,196.464 138.5,196C 133.639,192.798 129.306,188.965 125.5,184.5C 124.341,180.878 124.175,177.211 125,173.5C 126.779,171.983 126.279,171.149 123.5,171C 123.944,169.467 124.277,167.967 124.5,166.5C 122.463,166.502 120.463,166.168 118.5,165.5C 119.434,164.432 119.768,163.099 119.5,161.5C 121.199,161.38 122.865,161.046 124.5,160.5C 126.828,162.493 129.161,164.493 131.5,166.5 Z"/></g>
<g><path style="opacity:1" fill="#1a1636" d="M 139.5,174.5 C 142.81,176.482 145.81,178.815 148.5,181.5C 147.829,182.847 147.829,184.014 148.5,185C 147.552,185.483 146.552,185.649 145.5,185.5C 145.042,190.362 147.042,193.529 151.5,195C 150.833,195.333 150.167,195.667 149.5,196C 150.416,196.278 151.082,196.778 151.5,197.5C 149.396,197.799 147.396,197.466 145.5,196.5C 142.963,194.733 140.297,193.233 137.5,192C 138.022,191.439 138.355,190.772 138.5,190C 137.99,188.174 137.156,188.007 136,189.5C 135.313,187.445 134.146,185.779 132.5,184.5C 131.779,182.314 131.113,180.147 130.5,178C 131.623,176.956 132.956,176.29 134.5,176C 133.179,174.455 133.512,173.289 135.5,172.5C 136.524,173.853 137.857,174.52 139.5,174.5 Z"/></g>
<g><path style="opacity:1" fill="#013549" d="M 178.5,173.5 C 177.942,174.79 176.942,175.623 175.5,176C 178.667,178.5 181.833,181 185,183.5C 186.264,187.381 186.431,191.381 185.5,195.5C 183.167,196.833 180.833,198.167 178.5,199.5C 177.624,199.631 176.957,199.298 176.5,198.5C 177.865,197.059 179.365,195.726 181,194.5C 181.346,192.782 181.846,191.115 182.5,189.5C 180.058,187.956 178.058,185.956 176.5,183.5C 174.465,182.959 172.465,182.292 170.5,181.5C 169.359,180.575 169.359,179.741 170.5,179C 171.833,178.667 173.167,178.333 174.5,178C 173.167,177.333 173.167,176.667 174.5,176C 173.552,175.517 172.552,175.351 171.5,175.5C 173.308,174.675 175.141,173.675 177,172.5C 177.765,172.57 178.265,172.903 178.5,173.5 Z"/></g>
<g><path style="opacity:1" fill="#0c2f50" d="M 162.5,171.5 C 162.714,173.144 162.38,174.644 161.5,176C 162.996,176.507 164.163,176.007 165,174.5C 165.417,175.756 166.25,176.423 167.5,176.5C 166.192,177.232 164.858,178.066 163.5,179C 165.002,179.583 166.335,180.416 167.5,181.5C 165.896,183.179 165.229,185.179 165.5,187.5C 163.833,187.5 162.167,187.5 160.5,187.5C 159.833,187.5 159.167,187.5 158.5,187.5C 155.991,186.079 153.657,184.412 151.5,182.5C 158.264,183.756 159.597,181.756 155.5,176.5C 157.662,175.872 159.328,174.539 160.5,172.5C 161.167,172.167 161.833,171.833 162.5,171.5 Z"/></g>
<g><path style="opacity:1" fill="#0f1733" d="M 148.5,181.5 C 149.609,181.557 150.609,181.89 151.5,182.5C 153.657,184.412 155.991,186.079 158.5,187.5C 158.694,189.912 160.027,190.912 162.5,190.5C 162.714,192.144 162.38,193.644 161.5,195C 162.759,195.923 164.092,196.757 165.5,197.5C 164.5,198.333 163.5,199.167 162.5,200C 162.728,200.399 163.062,200.565 163.5,200.5C 166.962,201.482 170.629,201.815 174.5,201.5C 165.929,202.76 157.262,202.426 148.5,200.5C 149.9,199.9 150.9,198.9 151.5,197.5C 151.082,196.778 150.416,196.278 149.5,196C 150.167,195.667 150.833,195.333 151.5,195C 147.042,193.529 145.042,190.362 145.5,185.5C 146.552,185.649 147.552,185.483 148.5,185C 147.829,184.014 147.829,182.847 148.5,181.5 Z"/></g>
<g><path style="opacity:1" fill="#032e43" d="M 169.5,175.5 C 170.167,175.5 170.833,175.5 171.5,175.5C 172.552,175.351 173.552,175.517 174.5,176C 173.167,176.667 173.167,177.333 174.5,178C 173.167,178.333 171.833,178.667 170.5,179C 169.359,179.741 169.359,180.575 170.5,181.5C 172.465,182.292 174.465,182.959 176.5,183.5C 178.058,185.956 180.058,187.956 182.5,189.5C 181.846,191.115 181.346,192.782 181,194.5C 179.365,195.726 177.865,197.059 176.5,198.5C 176.957,199.298 177.624,199.631 178.5,199.5C 178.5,199.833 178.5,200.167 178.5,200.5C 177.432,201.434 176.099,201.768 174.5,201.5C 170.629,201.815 166.962,201.482 163.5,200.5C 169.457,201.378 173.124,198.878 174.5,193C 174.355,192.228 174.022,191.561 173.5,191C 169.026,189.88 164.693,188.714 160.5,187.5C 162.167,187.5 163.833,187.5 165.5,187.5C 165.229,185.179 165.896,183.179 167.5,181.5C 166.335,180.416 165.002,179.583 163.5,179C 164.858,178.066 166.192,177.232 167.5,176.5C 168.492,176.672 169.158,176.338 169.5,175.5 Z"/></g>
<g><path style="opacity:1" fill="#066c80" d="M 231.5,164.5 C 223.195,179.14 211.195,189.473 195.5,195.5C 194.833,195.5 194.5,195.167 194.5,194.5C 199.931,190.917 205.265,187.084 210.5,183C 211.191,181.933 211.691,180.766 212,179.5C 218.341,173.456 224.675,167.456 231,161.5C 231.483,162.448 231.649,163.448 231.5,164.5 Z"/></g>
<g><path style="opacity:1" fill="#032035" d="M 158.5,187.5 C 159.167,187.5 159.833,187.5 160.5,187.5C 164.693,188.714 169.026,189.88 173.5,191C 174.022,191.561 174.355,192.228 174.5,193C 173.124,198.878 169.457,201.378 163.5,200.5C 163.062,200.565 162.728,200.399 162.5,200C 163.5,199.167 164.5,198.333 165.5,197.5C 164.092,196.757 162.759,195.923 161.5,195C 162.38,193.644 162.714,192.144 162.5,190.5C 160.027,190.912 158.694,189.912 158.5,187.5 Z"/></g>
<g><path style="opacity:1" fill="#2e204c" d="M 118.5,165.5 C 120.463,166.168 122.463,166.502 124.5,166.5C 124.277,167.967 123.944,169.467 123.5,171C 126.279,171.149 126.779,171.983 125,173.5C 124.175,177.211 124.341,180.878 125.5,184.5C 129.306,188.965 133.639,192.798 138.5,196C 137.906,196.464 137.239,196.631 136.5,196.5C 130.845,194.362 125.511,191.528 120.5,188C 118.004,186.669 116.004,184.836 114.5,182.5C 115.497,182.53 116.164,182.03 116.5,181C 110.7,174.924 111.367,169.757 118.5,165.5 Z"/></g>
<g><path style="opacity:1" fill="#110e24" d="M -0.5,190.5 C 0.5,190.5 1.5,190.5 2.5,190.5C 2.5,193.833 2.5,197.167 2.5,200.5C 3.83333,200.5 5.16667,200.5 6.5,200.5C 6.5,201.833 6.5,203.167 6.5,204.5C 7.5,204.5 8.5,204.5 9.5,204.5C 9.5,206.833 9.5,209.167 9.5,211.5C 11.8333,211.5 14.1667,211.5 16.5,211.5C 16.3718,215.881 16.7051,220.215 17.5,224.5C 19.5,224.5 21.5,224.5 23.5,224.5C 23.5,226.833 23.5,229.167 23.5,231.5C 25.5,231.5 27.5,231.5 29.5,231.5C 29.5,234.167 29.5,236.833 29.5,239.5C 19.5,239.5 9.5,239.5 -0.5,239.5C -0.5,223.167 -0.5,206.833 -0.5,190.5 Z"/></g>
</svg>
