<?xml version="1.0" encoding="UTF-8"?>
<svg version="1.1" xmlns="http://www.w3.org/2000/svg" width="256" height="256">
<path d="M0 0 C1.16692383 0.36206543 1.16692383 0.36206543 2.35742188 0.73144531 C19.51676195 6.19248429 34.16162787 14.56332882 48 26 C48.77085937 26.6290625 49.54171875 27.258125 50.3359375 27.90625 C55.0491663 31.87908653 59.12096201 36.21502957 63 41 C63.69996094 41.86238281 64.39992187 42.72476563 65.12109375 43.61328125 C75.66206627 57.11376426 82.93038452 71.66081205 88 88 C88.2259082 88.70833984 88.45181641 89.41667969 88.68457031 90.14648438 C95.12454176 111.29649814 94.70003659 138.99189667 88 160 C87.75862305 160.77794922 87.51724609 161.55589844 87.26855469 162.35742188 C81.80751571 179.51676195 73.43667118 194.16162787 62 208 C61.3709375 208.77085937 60.741875 209.54171875 60.09375 210.3359375 C56.12091347 215.0491663 51.78497043 219.12096201 47 223 C46.13761719 223.69996094 45.27523437 224.39992187 44.38671875 225.12109375 C30.88623574 235.66206627 16.33918795 242.93038452 0 248 C-0.70833984 248.2259082 -1.41667969 248.45181641 -2.14648438 248.68457031 C-23.29649814 255.12454176 -50.99189667 254.70003659 -72 248 C-72.77794922 247.75862305 -73.55589844 247.51724609 -74.35742188 247.26855469 C-91.51676195 241.80751571 -106.16162787 233.43667118 -120 222 C-121.15628906 221.05640625 -121.15628906 221.05640625 -122.3359375 220.09375 C-127.0491663 216.12091347 -131.12096201 211.78497043 -135 207 C-135.69996094 206.13761719 -136.39992187 205.27523437 -137.12109375 204.38671875 C-147.66206627 190.88623574 -154.93038452 176.33918795 -160 160 C-160.2259082 159.29166016 -160.45181641 158.58332031 -160.68457031 157.85351562 C-167.12454176 136.70350186 -166.70003659 109.00810333 -160 88 C-159.75862305 87.22205078 -159.51724609 86.44410156 -159.26855469 85.64257812 C-153.80751571 68.48323805 -145.43667118 53.83837213 -134 40 C-133.3709375 39.22914062 -132.741875 38.45828125 -132.09375 37.6640625 C-128.12091347 32.9508337 -123.78497043 28.87903799 -119 25 C-118.13761719 24.30003906 -117.27523437 23.60007812 -116.38671875 22.87890625 C-102.88623574 12.33793373 -88.33918795 5.06961548 -72 0 C-71.29166016 -0.2259082 -70.58332031 -0.45181641 -69.85351562 -0.68457031 C-48.70350186 -7.12454176 -21.00810333 -6.70003659 0 0 Z " fill="#FEC300" transform="translate(164,4)"/>
<path d="M0 0 C73.26 0 146.52 0 222 0 C217.23652061 11.90869846 207.99237349 21.09127649 199 30 C198.25363281 30.75539062 197.50726563 31.51078125 196.73828125 32.2890625 C170.34431332 57.70547606 135.6615395 64.86847892 100.26686096 64.23246765 C91.49862045 64.00371094 83.35447036 62.66446029 75 60 C73.83307617 59.63793457 73.83307617 59.63793457 72.64257812 59.26855469 C55.48323805 53.80751571 40.83837213 45.43667118 27 34 C26.22914062 33.3709375 25.45828125 32.741875 24.6640625 32.09375 C14.96275222 23.91640034 6.0812624 13.14256623 0 2 C0 1.34 0 0.68 0 0 Z " fill="#C60B1E" transform="translate(17,192)"/>
<path d="M0 0 C1.16692383 0.36206543 1.16692383 0.36206543 2.35742188 0.73144531 C19.51676195 6.19248429 34.16162787 14.56332882 48 26 C48.77085937 26.6290625 49.54171875 27.258125 50.3359375 27.90625 C60.03724778 36.08359966 68.9187376 46.85743377 75 58 C75 58.66 75 59.32 75 60 C1.74 60 -71.52 60 -147 60 C-142.23652061 48.09130154 -132.99237349 38.90872351 -124 30 C-123.25363281 29.24460938 -122.50726563 28.48921875 -121.73828125 27.7109375 C-91.25912925 -1.63935702 -40.2730277 -12.84412758 0 0 Z " fill="#C60B1E" transform="translate(164,4)"/>
<path d="M0 0 C0.99 0.33 1.98 0.66 3 1 C3.495 3.475 3.495 3.475 4 6 C9.0838099 7.62249252 14.03381687 9.04946159 19.3125 9.875 C22.66872723 10.53671672 24.22124554 11.14315888 27.1875 13.0625 C29.75377649 17.22163775 29.01920191 20.36818141 28 25 C27.01 25 26.02 25 25 25 C24.505 26.485 24.505 26.485 24 28 C20.55555556 31 20.55555556 31 18 31 C18 32.32 18 33.64 18 35 C20.97 35.33 23.94 35.66 27 36 C27 36.33 27 36.66 27 37 C18.75 37 10.5 37 2 37 C2.495 45.91 2.495 45.91 3 55 C4.65 55.66 6.3 56.32 8 57 C9.65 55.02 11.3 53.04 13 51 C12.05125 51.350625 11.1025 51.70125 10.125 52.0625 C7 53 7 53 5 52 C5 51.01 5 50.02 5 49 C5.99 48.67 6.98 48.34 8 48 C7.01 47.505 7.01 47.505 6 47 C6 46.34 6 45.68 6 45 C5.01 44.505 5.01 44.505 4 44 C4 43.34 4 42.68 4 42 C5.98 41.505 5.98 41.505 8 41 C8 41.99 8 42.98 8 44 C8.99 44 9.98 44 11 44 C10.67 43.01 10.34 42.02 10 41 C10.61875 40.87625 11.2375 40.7525 11.875 40.625 C14.19120832 40.12802644 14.19120832 40.12802644 16 38 C16.763125 38.515625 17.52625 39.03125 18.3125 39.5625 C19.199375 40.036875 20.08625 40.51125 21 41 C21.99 40.67 22.98 40.34 24 40 C23.71861942 42.29295236 23.4245814 44.58435456 23.125 46.875 C22.96257812 48.15117188 22.80015625 49.42734375 22.6328125 50.7421875 C22 54 22 54 20 56 C20.33 56.99 20.66 57.98 21 59 C20.67 59.99 20.34 60.98 20 62 C19.01 62 18.02 62 17 62 C16.505 60.02 16.505 60.02 16 58 C14.02 58.66 12.04 59.32 10 60 C10 61.65 10 63.3 10 65 C15.61 65 21.22 65 27 65 C27.13534203 68.54295358 27.23428424 72.08070854 27.3125 75.625 C27.35439453 76.62402344 27.39628906 77.62304688 27.43945312 78.65234375 C27.57771056 87.00309266 27.57771056 87.00309266 24.9296875 90.53125 C18.33164337 96.09120185 8.10496529 98.85956945 -0.51171875 98.3671875 C-13.55801105 96.44198895 -13.55801105 96.44198895 -17 93 C-17.13525391 90.20263672 -17.13525391 90.20263672 -16.9765625 86.6796875 C-16.925 85.42285156 -16.8734375 84.16601562 -16.8203125 82.87109375 C-16.75543074 81.53905165 -16.69032366 80.2070205 -16.625 78.875 C-16.56676177 77.53519706 -16.50945844 76.19535313 -16.453125 74.85546875 C-16.31129726 71.56979268 -16.15985087 68.28484064 -16 65 C-16.99 65 -17.98 65 -19 65 C-19 73.91 -19 82.82 -19 92 C-23 88 -23 88 -23.36230469 85.52636719 C-23.29946289 84.62563477 -23.23662109 83.72490234 -23.171875 82.796875 C-23.11386719 81.8171875 -23.05585937 80.8375 -22.99609375 79.828125 C-22.91488281 78.81234375 -22.83367188 77.7965625 -22.75 76.75 C-22.68425781 75.71875 -22.61851563 74.6875 -22.55078125 73.625 C-22.38592189 71.08145555 -22.20169465 68.54084512 -22 66 C-22.66 66 -23.32 66 -24 66 C-24 72.27 -24 78.54 -24 85 C-24.33 85 -24.66 85 -25 85 C-25.495 72.13 -25.495 72.13 -26 59 C-27.98 58.67 -29.96 58.34 -32 58 C-31.505 58.37125 -31.01 58.7425 -30.5 59.125 C-29 61 -29 61 -28.5625 64 C-28.706875 64.99 -28.85125 65.98 -29 67 C-29.98033203 67.61294922 -29.98033203 67.61294922 -30.98046875 68.23828125 C-33.34851198 69.93417237 -33.34851198 69.93417237 -33.609375 73.35546875 C-33.67898437 75.25232422 -33.67898437 75.25232422 -33.75 77.1875 C-33.80671875 78.45980469 -33.8634375 79.73210937 -33.921875 81.04296875 C-33.94765625 82.01878906 -33.9734375 82.99460937 -34 84 C-33.34 84 -32.68 84 -32 84 C-31.67 85.98 -31.34 87.96 -31 90 C-30.34 90 -29.68 90 -29 90 C-29 91.98 -29 93.96 -29 96 C-34.52967941 96.71033431 -39.49983036 97.30267176 -45 96 C-45 94.02 -45 92.04 -45 90 C-40.71 90 -36.42 90 -32 90 C-32.33 89.01 -32.66 88.02 -33 87 C-35.97 87 -38.94 87 -42 87 C-42.1546875 85.1128125 -42.1546875 85.1128125 -42.3125 83.1875 C-42.73760736 79.67574356 -43.31361627 78.35058577 -46 76 C-46.6875 73.3125 -46.6875 73.3125 -47 71 C-46.360625 70.5875 -45.72125 70.175 -45.0625 69.75 C-42.79009069 67.82189513 -42.39803561 66.88575819 -42 64 C-42.61875 63.773125 -43.2375 63.54625 -43.875 63.3125 C-46.61410209 61.62070165 -47.05024472 60.00755839 -48 57 C-46.77216797 56.26523438 -46.77216797 56.26523438 -45.51953125 55.515625 C-42.61142332 53.12702751 -42.61142332 53.12702751 -42.51171875 49.109375 C-42.54476262 47.6554446 -42.60413037 46.20191425 -42.6875 44.75 C-42.71005859 44.00492188 -42.73261719 43.25984375 -42.75585938 42.4921875 C-42.81456439 40.660591 -42.90424243 38.83003347 -43 37 C-42.67 37.66 -42.34 38.32 -42 39 C-38.7 39 -35.4 39 -32 39 C-31.67 38.34 -31.34 37.68 -31 37 C-31.875 42.875 -31.875 42.875 -33 44 C-33.23075082 45.34747084 -33.41153063 46.70377565 -33.5625 48.0625 C-33.706875 49.361875 -33.85125 50.66125 -34 52 C-31.36 52 -28.72 52 -26 52 C-25.67 46.72 -25.34 41.44 -25 36 C-20.545 35.505 -20.545 35.505 -16 35 C-16.52022762 30.93197436 -16.52022762 30.93197436 -19.25 29.625 C-20.1575 29.08875 -21.065 28.5525 -22 28 C-24.98064914 25.01935086 -26.77571521 23.09899547 -27.625 18.9375 C-26.72518311 14.7083606 -25.54667735 13.52359734 -22 11 C-16.74935752 9.20764187 -11.47823072 8.03353419 -5.9375 7.75 C-2.96810916 7.33899055 -2.96810916 7.33899055 -1.9140625 5.38671875 C-0.92712556 3.22669921 -0.92712556 3.22669921 0 0 Z " fill="#654C06" transform="translate(63,79)"/>
<path d="M0 0 C8.25 0 16.5 0 25 0 C25 5.94 25 11.88 25 18 C21 20 21 20 18 20 C18 15.05 18 10.1 18 5 C17.01 5 16.02 5 15 5 C14.67 4.34 14.34 3.68 14 3 C11.97536745 2.34786708 11.97536745 2.34786708 10 2 C10 2.99 10 3.98 10 5 C9.01 5 8.02 5 7 5 C7 9.95 7 14.9 7 20 C6.34 20 5.68 20 5 20 C5 21.32 5 22.64 5 24 C9.62 24 14.24 24 19 24 C19.12375 25.6396875 19.12375 25.6396875 19.25 27.3125 C19.63689209 31.03276664 19.63689209 31.03276664 22.0625 32.9375 C22.701875 33.288125 23.34125 33.63875 24 34 C23.65213292 32.02463255 23.65213292 32.02463255 23 30 C22.34 29.67 21.68 29.34 21 29 C21.33 27.35 21.66 25.7 22 24 C22.66 25.32 23.32 26.64 24 28 C24.66 28 25.32 28 26 28 C27.125 31.75 27.125 31.75 26 34 C28.17728073 33.12355567 28.17728073 33.12355567 30 31 C30.36475845 27.97465051 30.22893297 25.03336186 30 22 C31.32 22.66 32.64 23.32 34 24 C34 25.32 34 26.64 34 28 C39.61 28 45.22 28 51 28 C51.13534203 31.54295358 51.23428424 35.08070854 51.3125 38.625 C51.35439453 39.62402344 51.39628906 40.62304688 51.43945312 41.65234375 C51.57771056 50.00309266 51.57771056 50.00309266 48.9296875 53.53125 C42.33164337 59.09120185 32.10496529 61.85956945 23.48828125 61.3671875 C10.44198895 59.44198895 10.44198895 59.44198895 7 56 C6.86474609 53.20263672 6.86474609 53.20263672 7.0234375 49.6796875 C7.075 48.42285156 7.1265625 47.16601562 7.1796875 45.87109375 C7.24456926 44.53905165 7.30967634 43.2070205 7.375 41.875 C7.43323823 40.53519706 7.49054156 39.19535313 7.546875 37.85546875 C7.68870274 34.56979268 7.84014913 31.28484064 8 28 C7.01 28 6.02 28 5 28 C5 36.91 5 45.82 5 55 C1 51 1 51 0.63769531 48.43457031 C0.70053711 47.49194336 0.76337891 46.54931641 0.828125 45.578125 C0.88613281 44.55332031 0.94414063 43.52851563 1.00390625 42.47265625 C1.08511719 41.40917969 1.16632812 40.34570312 1.25 39.25 C1.31574219 38.17105469 1.38148437 37.09210938 1.44921875 35.98046875 C1.61411798 33.31852411 1.79835946 30.65937236 2 28 C1.34 28 0.68 28 0 28 C0 18.76 0 9.52 0 0 Z " fill="#96530B" transform="translate(39,116)"/>
<path d="M0 0 C-0.020625 0.7425 -0.04125 1.485 -0.0625 2.25 C-0.10240811 4.94167789 -0.10240811 4.94167789 0.5625 7.25 C0.7790625 8.11625 0.7790625 8.11625 1 9 C0.67 9.33 0.34 9.66 0 10 C-0.2039085 11.95169561 -0.3138543 13.91363424 -0.375 15.875 C-0.42398438 16.94492188 -0.47296875 18.01484375 -0.5234375 19.1171875 C-0.29764012 22.22427494 -0.29764012 22.22427494 2.5234375 23.8828125 C3.74933594 24.43582031 3.74933594 24.43582031 5 25 C4.62403791 27.78211944 4.32681541 29.5879284 2.5625 31.8125 C1 33 1 33 -1 33 C-0.80528889 34.94999129 -0.80528889 34.94999129 0 37 C1.9837767 38.28436734 1.9837767 38.28436734 4 39 C3.67 41.31 3.34 43.62 3 46 C1.515 46.495 1.515 46.495 0 47 C-0.19814261 53.08408472 -0.19814261 53.08408472 1 59 C1.66 59 2.32 59 3 59 C3 61.31 3 63.62 3 66 C-2.61 66 -8.22 66 -14 66 C-14 63.69 -14 61.38 -14 59 C-13.34 59 -12.68 59 -12 59 C-11.11143662 54.38520311 -10.80570444 49.94774072 -10.75 45.25 C-10.72421875 43.93515625 -10.6984375 42.6203125 -10.671875 41.265625 C-10.78015625 40.18796875 -10.8884375 39.1103125 -11 38 C-11.99 37.34 -12.98 36.68 -14 36 C-14.1875 33.375 -14.1875 33.375 -14 31 C-12.68 30.34 -11.36 29.68 -10 29 C-10 28.34 -10 27.68 -10 27 C-13.96 27.495 -13.96 27.495 -18 28 C-18 26.02 -18 24.04 -18 22 C-15.29120665 20.64560332 -12.99066732 20.93498549 -10 21 C-10.14183696 19.24967156 -10.28863429 17.49974466 -10.4375 15.75 C-10.51871094 14.77546875 -10.59992188 13.8009375 -10.68359375 12.796875 C-10.95143355 10.42930342 -11.41534527 8.29931439 -12 6 C-12 3 -12 3 -11 0 C-6.80579236 -2.51652459 -4.3853472 -1.83572673 0 0 Z " fill="#A27D32" transform="translate(108,110)"/>
<path d="M0 0 C0.33 0 0.66 0 1 0 C1.33 5.94 1.66 11.88 2 18 C3.65 18.66 5.3 19.32 7 20 C8.65 18.02 10.3 16.04 12 14 C11.05125 14.350625 10.1025 14.70125 9.125 15.0625 C6 16 6 16 4 15 C4 14.01 4 13.02 4 12 C4.99 11.67 5.98 11.34 7 11 C6.34 10.67 5.68 10.34 5 10 C5 9.34 5 8.68 5 8 C4.34 7.67 3.68 7.34 3 7 C3 6.34 3 5.68 3 5 C4.32 4.67 5.64 4.34 7 4 C7 4.99 7 5.98 7 7 C7.99 7 8.98 7 10 7 C9.67 6.01 9.34 5.02 9 4 C9.61875 3.87625 10.2375 3.7525 10.875 3.625 C13.19120832 3.12802644 13.19120832 3.12802644 15 1 C15.763125 1.515625 16.52625 2.03125 17.3125 2.5625 C18.199375 3.036875 19.08625 3.51125 20 4 C20.99 3.67 21.98 3.34 23 3 C22.71861942 5.29295236 22.4245814 7.58435456 22.125 9.875 C21.96257812 11.15117188 21.80015625 12.42734375 21.6328125 13.7421875 C21 17 21 17 19 19 C19.495 20.485 19.495 20.485 20 22 C19.505 23.485 19.505 23.485 19 25 C18.01 25 17.02 25 16 25 C15.505 23.02 15.505 23.02 15 21 C14.071875 21.33 13.14375 21.66 12.1875 22 C9 23 9 23 6 23 C6.061875 24.258125 6.12375 25.51625 6.1875 26.8125 C6.19441101 30.71722035 6.19441101 30.71722035 4.625 33 C3 34 3 34 1 34 C1 32.02 1 30.04 1 28 C0.34 28 -0.32 28 -1 28 C-1.66 27.34 -2.32 26.68 -3 26 C-3.33 26.99 -3.66 27.98 -4 29 C-3.01 29.33 -2.02 29.66 -1 30 C-1 31.32 -1 32.64 -1 34 C-2.875 33.4375 -2.875 33.4375 -5 32 C-6.25 28.375 -6.25 28.375 -7 25 C-11.29 24.67 -15.58 24.34 -20 24 C-20 22.68 -20 21.36 -20 20 C-19.34 20 -18.68 20 -18 20 C-18.12568359 18.75283203 -18.12568359 18.75283203 -18.25390625 17.48046875 C-18.35574219 16.39378906 -18.45757812 15.30710938 -18.5625 14.1875 C-18.66691406 13.10855469 -18.77132812 12.02960938 -18.87890625 10.91796875 C-19 8 -19 8 -18 5 C-17.01 5 -16.02 5 -15 5 C-15 4.01 -15 3.02 -15 2 C-13.35 2.33 -11.7 2.66 -10 3 C-10 3.66 -10 4.32 -10 5 C-9.01 5 -8.02 5 -7 5 C-6.15111805 10.37625234 -5.9975695 14.65370398 -7 20 C-6.401875 19.67 -5.80375 19.34 -5.1875 19 C-3 18 -3 18 0 18 C0 12.06 0 6.12 0 0 Z " fill="#35311F" transform="translate(64,116)"/>
<path d="M0 0 C0.33 0.66 0.66 1.32 1 2 C4.3 2 7.6 2 11 2 C11.33 1.34 11.66 0.68 12 0 C11.125 5.875 11.125 5.875 10 7 C9.76924918 8.34747084 9.58846937 9.70377565 9.4375 11.0625 C9.293125 12.361875 9.14875 13.66125 9 15 C11.64 15 14.28 15 17 15 C16.01 15.99 15.02 16.98 14 18 C14.33 18.99 14.66 19.98 15 21 C13.68 21 12.36 21 11 21 C11.495 21.37125 11.99 21.7425 12.5 22.125 C14 24 14 24 14.4375 27 C14.293125 27.99 14.14875 28.98 14 30 C13.34644531 30.40863281 12.69289063 30.81726563 12.01953125 31.23828125 C9.65148802 32.93417237 9.65148802 32.93417237 9.390625 36.35546875 C9.32101563 38.25232422 9.32101563 38.25232422 9.25 40.1875 C9.19328125 41.45980469 9.1365625 42.73210937 9.078125 44.04296875 C9.05234375 45.01878906 9.0265625 45.99460938 9 47 C9.66 47 10.32 47 11 47 C11.33 48.98 11.66 50.96 12 53 C12.66 53 13.32 53 14 53 C14 54.98 14 56.96 14 59 C8.47032059 59.71033431 3.50016964 60.30267176 -2 59 C-2 57.02 -2 55.04 -2 53 C2.29 53 6.58 53 11 53 C10.505 51.515 10.505 51.515 10 50 C7.03 50 4.06 50 1 50 C0.896875 48.741875 0.79375 47.48375 0.6875 46.1875 C0.26239264 42.67574356 -0.31361627 41.35058577 -3 39 C-3.6875 36.3125 -3.6875 36.3125 -4 34 C-3.360625 33.5875 -2.72125 33.175 -2.0625 32.75 C0.20990931 30.82189513 0.60196439 29.88575819 1 27 C0.38125 26.773125 -0.2375 26.54625 -0.875 26.3125 C-3.61410209 24.62070165 -4.05024472 23.00755839 -5 20 C-4.18144531 19.51015625 -3.36289062 19.0203125 -2.51953125 18.515625 C0.38857668 16.12702751 0.38857668 16.12702751 0.48828125 12.109375 C0.45523738 10.6554446 0.39586963 9.20191425 0.3125 7.75 C0.28994141 7.00492187 0.26738281 6.25984375 0.24414062 5.4921875 C0.18543561 3.660591 0.09575757 1.83003347 0 0 Z " fill="#65521D" transform="translate(20,116)"/>
<path d="M0 0 C8.25 0 16.5 0 25 0 C25 5.94 25 11.88 25 18 C21 20 21 20 18 20 C18 15.05 18 10.1 18 5 C17.01 5 16.02 5 15 5 C14.67 4.34 14.34 3.68 14 3 C11.97536745 2.34786708 11.97536745 2.34786708 10 2 C10 2.99 10 3.98 10 5 C9.01 5 8.02 5 7 5 C7 9.95 7 14.9 7 20 C6.34 20 5.68 20 5 20 C5 21.32 5 22.64 5 24 C5.85464844 23.98839844 6.70929687 23.97679687 7.58984375 23.96484375 C8.69457031 23.95582031 9.79929687 23.94679687 10.9375 23.9375 C12.03964844 23.92589844 13.14179687 23.91429687 14.27734375 23.90234375 C17 24 17 24 18 25 C18.04063832 26.66617115 18.042721 28.33388095 18 30 C17.67 30 17.34 30 17 30 C16.67 38.58 16.34 47.16 16 56 C15.34 56 14.68 56 14 56 C14 46.76 14 37.52 14 28 C13.01 28 12.02 28 11 28 C11.33 37.9 11.66 47.8 12 58 C10.35 57.67 8.7 57.34 7 57 C7.33 47.43 7.66 37.86 8 28 C7.01 28 6.02 28 5 28 C5 36.91 5 45.82 5 55 C1 51 1 51 0.63769531 48.43457031 C0.70053711 47.49194336 0.76337891 46.54931641 0.828125 45.578125 C0.88613281 44.55332031 0.94414063 43.52851563 1.00390625 42.47265625 C1.08511719 41.40917969 1.16632812 40.34570312 1.25 39.25 C1.31574219 38.17105469 1.38148437 37.09210938 1.44921875 35.98046875 C1.61411798 33.31852411 1.79835946 30.65937236 2 28 C1.34 28 0.68 28 0 28 C0 18.76 0 9.52 0 0 Z " fill="#A91418" transform="translate(39,116)"/>
<path d="M0 0 C0.99 0.33 1.98 0.66 3 1 C2.67 2.98 2.34 4.96 2 7 C1.01 7 0.02 7 -1 7 C-1 8.32 -1 9.64 -1 11 C-1 11.99 -1 12.98 -1 14 C-6.625 17 -6.625 17 -10 17 C-9.67 17.99 -9.34 18.98 -9 20 C-8.34 20.33 -7.68 20.66 -7 21 C-7 22.32 -7 23.64 -7 25 C-6.34 25.33 -5.68 25.66 -5 26 C-5 24.68 -5 23.36 -5 22 C-3.35 22 -1.7 22 0 22 C0 20.68 0 19.36 0 18 C1.32 17.67 2.64 17.34 4 17 C3.67 15.02 3.34 13.04 3 11 C8.41538462 9.76923077 8.41538462 9.76923077 11.375 10.9375 C11.91125 11.288125 12.4475 11.63875 13 12 C12.85961979 14.85439763 12.73911237 17.27013972 12 20 C8.93452696 22.6397129 5.96293489 23.43386644 2 24 C2 24.66 2 25.32 2 26 C2.7425 25.979375 3.485 25.95875 4.25 25.9375 C8.95748196 26.04448823 12.14594844 27.21651832 16 30 C16 30.99 16 31.98 16 33 C14.7934375 32.7215625 14.7934375 32.7215625 13.5625 32.4375 C12.716875 32.293125 11.87125 32.14875 11 32 C10.67 32.33 10.34 32.66 10 33 C8.22130274 33.15764405 6.43681524 33.25100677 4.65234375 33.31640625 C3.57275391 33.35830078 2.49316406 33.40019531 1.38085938 33.44335938 C0.24455078 33.48267578 -0.89175781 33.52199219 -2.0625 33.5625 C-3.77276367 33.62727539 -3.77276367 33.62727539 -5.51757812 33.69335938 C-8.34492195 33.79982839 -11.17235738 33.90184207 -14 34 C-13.01 33.505 -13.01 33.505 -12 33 C-11.67 32.34 -11.34 31.68 -11 31 C-10.34 30.01 -9.68 29.02 -9 28 C-9.66 27.67 -10.32 27.34 -11 27 C-11 26.34 -11 25.68 -11 25 C-11.99 25 -12.98 25 -14 25 C-13.814375 24.030625 -13.62875 23.06125 -13.4375 22.0625 C-13.293125 21.051875 -13.14875 20.04125 -13 19 C-14.1036623 17.67109616 -14.1036623 17.67109616 -16.875 17.875 C-20.03212413 17.85623134 -20.03212413 17.85623134 -23 19 C-23 15 -23 15 -20.875 12.75 C-17.59175057 10.75150035 -15.77281397 10.64904056 -12 11 C-12 10.34 -12 9.68 -12 9 C-8.6828589 7.5783681 -5.55780196 6.60990891 -2 6 C-1.34 4.02 -0.68 2.04 0 0 Z " fill="#583908" transform="translate(63,79)"/>
<path d="M0 0 C4.62 0 9.24 0 14 0 C14.05404449 2.75026417 14.09369306 5.49946203 14.125 8.25 C14.15013672 9.41595703 14.15013672 9.41595703 14.17578125 10.60546875 C14.23662606 17.72431144 14.23662606 17.72431144 12 21 C11.34 21 10.68 21 10 21 C9.67 21.99 9.34 22.98 9 24 C4.58937864 25.0257259 2.07369424 25.03684712 -2 23 C-2 22.34 -2 21.68 -2 21 C-2.99 21 -3.98 21 -5 21 C-5.93619813 17.84493858 -6.1057123 15.03413498 -6.0625 11.75 C-6.05347656 10.85796875 -6.04445313 9.9659375 -6.03515625 9.046875 C-6.02355469 8.37140625 -6.01195313 7.6959375 -6 7 C-5.01 6.67 -4.02 6.34 -3 6 C-3.33 7.32 -3.66 8.64 -4 10 C-3.01 9.67 -2.02 9.34 -1 9 C-1.33 7.35 -1.66 5.7 -2 4 C-0.68 4.66 0.64 5.32 2 6 C2.33 5.01 2.66 4.02 3 3 C1.68 2.67 0.36 2.34 -1 2 C-0.67 1.34 -0.34 0.68 0 0 Z " fill="#AE6113" transform="translate(73,146)"/>
<path d="M0 0 C8.25 0 16.5 0 25 0 C25 9.24 25 18.48 25 28 C19.39 28 13.78 28 8 28 C7.67 25.69 7.34 23.38 7 21 C7.33 21.66 7.66 22.32 8 23 C10.47266765 22.65555119 10.47266765 22.65555119 13 22 C13.33 21.34 13.66 20.68 14 20 C14.33 21.65 14.66 23.3 15 25 C15.99 25 16.98 25 18 25 C18 24.236875 18 23.47375 18 22.6875 C18 20.79166667 18 18.89583333 18 17 C18.66 17 19.32 17 20 17 C19.98839844 16.39671875 19.97679688 15.7934375 19.96484375 15.171875 C19.95582031 14.37265625 19.94679688 13.5734375 19.9375 12.75 C19.92589844 11.96109375 19.91429688 11.1721875 19.90234375 10.359375 C19.99614694 8.09308998 20.36758937 6.1711105 21 4 C20.01 4.33 19.02 4.66 18 5 C15.8125 3.5625 15.8125 3.5625 14 2 C13.34 2.66 12.68 3.32 12 4 C10.68 4 9.36 4 8 4 C8.66 5.32 9.32 6.64 10 8 C8.0625 7.625 8.0625 7.625 6 7 C5.67 6.34 5.34 5.68 5 5 C4.34 5.66 3.68 6.32 3 7 C3.33 7.99 3.66 8.98 4 10 C4.99 10.33 5.98 10.66 7 11 C5.68 11.33 4.36 11.66 3 12 C3 12.99 3 13.98 3 15 C5.64 14.67 8.28 14.34 11 14 C9.70700306 16.88437779 8.34058637 18.87219421 6 21 C4.02 20.01 2.04 19.02 0 18 C0 12.06 0 6.12 0 0 Z " fill="#BEBEBE" transform="translate(65,116)"/>
<path d="M0 0 C1.32 0.66 2.64 1.32 4 2 C4 3.32 4 4.64 4 6 C9.61 6 15.22 6 21 6 C21.13534203 9.54295358 21.23428424 13.08070854 21.3125 16.625 C21.35439453 17.62402344 21.39628906 18.62304688 21.43945312 19.65234375 C21.57767475 28.00092984 21.57767475 28.00092984 18.8125 31.59375 C16.00974707 33.99166084 14.23493725 35.02361506 10.6875 35.875 C9.80449219 36.09929687 8.92148438 36.32359375 8.01171875 36.5546875 C7.34785156 36.70164063 6.68398437 36.84859375 6 37 C6 36.34 6 35.68 6 35 C5.236875 34.896875 4.47375 34.79375 3.6875 34.6875 C0.73421485 33.93200845 0.04132166 33.13007477 -2 31 C-4.10332891 30.28552357 -4.10332891 30.28552357 -6 30 C-5.67 29.01 -5.34 28.02 -5 27 C-4.77820215 25.10787263 -4.59385985 23.21115528 -4.4375 21.3125 C-4.35371094 20.31863281 -4.26992187 19.32476562 -4.18359375 18.30078125 C-4.12300781 17.54152344 -4.06242187 16.78226563 -4 16 C-3.01 16 -2.02 16 -1 16 C-1 20.29 -1 24.58 -1 29 C-0.01 29 0.98 29 2 29 C2.33 29.66 2.66 30.32 3 31 C6.58002899 31.8751182 9.53857906 32.43231211 13 31 C14.83115894 30.00484776 14.83115894 30.00484776 16 28 C16.9577702 22.94993897 17.08272528 18.10873644 16.9375 12.98046875 C17 11 17 11 18 8 C10.95792295 8.7187807 10.95792295 8.7187807 4 10 C4.99 10.33 5.98 10.66 7 11 C7 12.98 7 14.96 7 17 C5.68 15.68 4.36 14.36 3 13 C3 13.99 3 14.98 3 16 C3.66 16.66 4.32 17.32 5 18 C3.35 18 1.7 18 0 18 C0.33 16.68 0.66 15.36 1 14 C-1.64 13.67 -4.28 13.34 -7 13 C-7 11.35 -7 9.7 -7 8 C-7.66 7.67 -8.32 7.34 -9 7 C-8.67 5.35 -8.34 3.7 -8 2 C-7.34 3.32 -6.68 4.64 -6 6 C-5.34 6 -4.68 6 -4 6 C-2.875 9.75 -2.875 9.75 -4 12 C-1.82271927 11.12355567 -1.82271927 11.12355567 0 9 C0.36475845 5.97465051 0.22893297 3.03336186 0 0 Z " fill="#A41B16" transform="translate(69,138)"/>
<path d="M0 0 C3.3 0.99 6.6 1.98 10 3 C9.98839844 3.89203125 9.97679688 4.7840625 9.96484375 5.703125 C9.95582031 6.87359375 9.94679688 8.0440625 9.9375 9.25 C9.92589844 10.41015625 9.91429688 11.5703125 9.90234375 12.765625 C9.98217908 15.40977128 10.21356222 17.49826091 11 20 C11.66 20 12.32 20 13 20 C13 22.31 13 24.62 13 27 C7.39 27 1.78 27 -4 27 C-4 24.69 -4 22.38 -4 20 C-3.34 20 -2.68 20 -2 20 C-1.34 13.4 -0.68 6.8 0 0 Z " fill="#3D5360" transform="translate(98,149)"/>
<path d="M0 0 C0.8021503 2.80752605 1.04968183 4.73917041 0.5 7.625 C-1.66229066 11.04862687 -4.24668218 11.72655288 -8 13 C-8.66 13 -9.32 13 -10 13 C-10 13.66 -10 14.32 -10 15 C-9.2575 14.979375 -8.515 14.95875 -7.75 14.9375 C-3.04251804 15.04448823 0.14594844 16.21651832 4 19 C4 19.99 4 20.98 4 22 C3.195625 21.814375 2.39125 21.62875 1.5625 21.4375 C0.2940625 21.2209375 0.2940625 21.2209375 -1 21 C-1.33 21.33 -1.66 21.66 -2 22 C-4.53049402 22.07313567 -7.03304837 22.09247527 -9.5625 22.0625 C-10.27341797 22.05798828 -10.98433594 22.05347656 -11.71679688 22.04882812 C-13.47790013 22.03700864 -15.23896036 22.01907263 -17 22 C-17.33 20.35 -17.66 18.7 -18 17 C-17.01 16.67 -16.02 16.34 -15 16 C-15.33 14.35 -15.66 12.7 -16 11 C-14.68 11 -13.36 11 -12 11 C-12 9.68 -12 8.36 -12 7 C-10.68 6.67 -9.36 6.34 -8 6 C-8.33 4.02 -8.66 2.04 -9 0 C-5.52176885 -1.15941038 -3.54104422 -0.70820884 0 0 Z " fill="#723D07" transform="translate(75,90)"/>
<path d="M0 0 C0.33 0 0.66 0 1 0 C1 1.65 1 3.3 1 5 C0.67 5 0.34 5 0 5 C-0.33 13.58 -0.66 22.16 -1 31 C-1.66 31 -2.32 31 -3 31 C-3 21.76 -3 12.52 -3 3 C-3.99 3 -4.98 3 -6 3 C-5.67 12.9 -5.34 22.8 -5 33 C-6.65 32.67 -8.3 32.34 -10 32 C-9.67 22.43 -9.34 12.86 -9 3 C-9.99 3 -10.98 3 -12 3 C-12 11.91 -12 20.82 -12 30 C-16 26 -16 26 -16.36230469 23.43457031 C-16.29946289 22.49194336 -16.23662109 21.54931641 -16.171875 20.578125 C-16.11386719 19.55332031 -16.05585937 18.52851563 -15.99609375 17.47265625 C-15.91488281 16.40917969 -15.83367188 15.34570312 -15.75 14.25 C-15.68425781 13.17105469 -15.61851563 12.09210938 -15.55078125 10.98046875 C-15.38588202 8.31852411 -15.20164054 5.65937236 -15 3 C-15.66 2.67 -16.32 2.34 -17 2 C-15.85660156 1.93941406 -14.71320312 1.87882813 -13.53515625 1.81640625 C-12.04425695 1.73201572 -10.55337225 1.64736698 -9.0625 1.5625 C-8.30775391 1.52318359 -7.55300781 1.48386719 -6.77539062 1.44335938 C-3.08055813 1.55961976 -3.08055813 1.55961976 0 0 Z " fill="#841113" transform="translate(56,141)"/>
<path d="M0 0 C0.928125 0.515625 1.85625 1.03125 2.8125 1.5625 C5.92757947 3.40096246 5.92757947 3.40096246 9 2 C8.71861942 4.29295236 8.4245814 6.58435456 8.125 8.875 C7.96257812 10.15117188 7.80015625 11.42734375 7.6328125 12.7421875 C7 16 7 16 5 18 C5.33 18.99 5.66 19.98 6 21 C5.67 21.99 5.34 22.98 5 24 C4.01 24 3.02 24 2 24 C1.67 21.69 1.34 19.38 1 17 C0.34 17 -0.32 17 -1 17 C-1 17.99 -1 18.98 -1 20 C-1.99 19.67 -2.98 19.34 -4 19 C-3.67 18.67 -3.34 18.34 -3 18 C-3 17.01 -3 16.02 -3 15 C-2.67 14.34 -2.34 13.68 -2 13 C-2.94875 13.350625 -3.8975 13.70125 -4.875 14.0625 C-8 15 -8 15 -10 14 C-10 13.01 -10 12.02 -10 11 C-9.01 10.67 -8.02 10.34 -7 10 C-7.66 9.67 -8.32 9.34 -9 9 C-9 8.34 -9 7.68 -9 7 C-9.66 6.67 -10.32 6.34 -11 6 C-11 5.34 -11 4.68 -11 4 C-9.68 3.67 -8.36 3.34 -7 3 C-7 3.99 -7 4.98 -7 6 C-6.01 6 -5.02 6 -4 6 C-4.33 5.01 -4.66 4.02 -5 3 C-4.360625 2.87625 -3.72125 2.7525 -3.0625 2.625 C-2.381875 2.41875 -1.70125 2.2125 -1 2 C-0.67 1.34 -0.34 0.68 0 0 Z " fill="#684153" transform="translate(78,117)"/>
<path d="M0 0 C3.96 1.32 7.92 2.64 12 4 C12 4.66 12 5.32 12 6 C13.98 6 15.96 6 18 6 C16.68 6.33 15.36 6.66 14 7 C14.12375 8.36125 14.12375 8.36125 14.25 9.75 C14 13 14 13 12.125 15.375 C10 17 10 17 8 17 C8 17.66 8 18.32 8 19 C9.32 18.67 10.64 18.34 12 18 C12 18.66 12 19.32 12 20 C9.1875 21.5625 9.1875 21.5625 6 23 C4 22.33333333 2 21.66666667 0 21 C0 20.34 0 19.68 0 19 C2.97 17.68 5.94 16.36 9 15 C9 13.68 9 12.36 9 11 C9.66 11 10.32 11 11 11 C10.67 9.68 10.34 8.36 10 7 C7.03 6.67 4.06 6.34 1 6 C1 6.99 1 7.98 1 9 C1.66 9.33 2.32 9.66 3 10 C1.625 11.5 1.625 11.5 0 13 C-0.66 13 -1.32 13 -2 13 C-2 14.32 -2 15.64 -2 17 C-3.65 17 -5.3 17 -7 17 C-7 18.32 -7 19.64 -7 21 C-8.32 20.67 -9.64 20.34 -11 20 C-10.34 20 -9.68 20 -9 20 C-9 18.68 -9 17.36 -9 16 C-9.99 15.67 -10.98 15.34 -12 15 C-12 14.01 -12 13.02 -12 12 C-9.03 11.01 -6.06 10.02 -3 9 C-3.66 7.35 -4.32 5.7 -5 4 C-4.34 4 -3.68 4 -3 4 C-3 3.34 -3 2.68 -3 2 C-2.01 2 -1.02 2 0 2 C0 1.34 0 0.68 0 0 Z " fill="#524311" transform="translate(65,84)"/>
<path d="M0 0 C0.33 0.66 0.66 1.32 1 2 C2.65 1.67 4.3 1.34 6 1 C6 1.99 6 2.98 6 4 C6.66 4.33 7.32 4.66 8 5 C6.02 5 4.04 5 2 5 C2 7.31 2 9.62 2 12 C4.31 12.66 6.62 13.32 9 14 C9 11.03 9 8.06 9 5 C9.99 5.33 10.98 5.66 12 6 C12.33 5.01 12.66 4.02 13 3 C11.68 3.33 10.36 3.66 9 4 C8.67 2.68 8.34 1.36 8 0 C11.37462715 0.54723683 13.08235 1.0549 16 3 C15.62403791 5.78211944 15.32681541 7.5879284 13.5625 9.8125 C12 11 12 11 10 11 C10.19471111 12.94999129 10.19471111 12.94999129 11 15 C12.9837767 16.28436734 12.9837767 16.28436734 15 17 C14.67 19.31 14.34 21.62 14 24 C13.01 24.33 12.02 24.66 11 25 C11 23.35 11 21.7 11 20 C9.80375 19.7525 8.6075 19.505 7.375 19.25 C3.28943937 18.21043564 0.21834199 16.81604924 -3 14 C-3.375 11.25 -3.375 11.25 -3 9 C-1.68 8.34 -0.36 7.68 1 7 C1 6.34 1 5.68 1 5 C-1.64 5.33 -4.28 5.66 -7 6 C-7 4.02 -7 2.04 -7 0 C-4.30234372 -1.34882814 -2.84835666 -0.80338265 0 0 Z " fill="#82281D" transform="translate(97,132)"/>
<path d="M0 0 C0.99 0 1.98 0 3 0 C3 9.24 3 18.48 3 28 C3.66 28 4.32 28 5 28 C5 18.76 5 9.52 5 0 C5.99 1.32 6.98 2.64 8 4 C7.67 4.66 7.34 5.32 7 6 C6.84777027 7.66565749 6.75082785 9.33656496 6.68359375 11.0078125 C6.64169922 11.99394531 6.59980469 12.98007813 6.55664062 13.99609375 C6.51732422 15.02863281 6.47800781 16.06117188 6.4375 17.125 C6.39431641 18.16527344 6.35113281 19.20554688 6.30664062 20.27734375 C6.2003712 22.85142528 6.09833417 25.42560508 6 28 C6.763125 27.484375 7.52625 26.96875 8.3125 26.4375 C9.199375 25.963125 10.08625 25.48875 11 25 C11.99 25.33 12.98 25.66 14 26 C14 27.66666667 14 29.33333333 14 31 C15.65 30.67 17.3 30.34 19 30 C17.68 29.34 16.36 28.68 15 28 C15.33 27.01 15.66 26.02 16 25 C20.455 26.98 20.455 26.98 25 29 C24.67 29.99 24.34 30.98 24 32 C21.16883178 33.07883723 18.38342109 33.16300146 15.375 33.1875 C14.59898438 33.20167969 13.82296875 33.21585938 13.0234375 33.23046875 C8.63182517 32.8957076 4.31882328 31.86376466 0 31 C0 20.77 0 10.54 0 0 Z " fill="#9B7C03" transform="translate(50,144)"/>
<path d="M0 0 C0 4.29 0 8.58 0 13 C0.66 13 1.32 13 2 13 C2.33 14.98 2.66 16.96 3 19 C3.66 19 4.32 19 5 19 C5 20.98 5 22.96 5 25 C-0.52967941 25.71033431 -5.49983036 26.30267176 -11 25 C-11 23.02 -11 21.04 -11 19 C-6.71 19 -2.42 19 2 19 C1.67 18.01 1.34 17.02 1 16 C-1.97 16 -4.94 16 -8 16 C-7.94014621 13.70759993 -7.85140973 11.41593794 -7.75 9.125 C-7.70359375 7.84882813 -7.6571875 6.57265625 -7.609375 5.2578125 C-7 2 -7 2 -5.140625 0.5546875 C-3 0 -3 0 0 0 Z " fill="#45596B" transform="translate(29,150)"/>
<path d="M0 0 C0 1.32 0 2.64 0 4 C0.66 4 1.32 4 2 4 C2 3.34 2 2.68 2 2 C4.31 2.33 6.62 2.66 9 3 C9 3.33 9 3.66 9 4 C6.69 4.33 4.38 4.66 2 5 C2.33 7.64 2.66 10.28 3 13 C5.31 12.34 7.62 11.68 10 11 C10 9.35 10 7.7 10 6 C11.32 6.33 12.64 6.66 14 7 C14.3125 9.75 14.3125 9.75 14 13 C10.50376134 16.81407854 6.87475056 17.85299987 2 19 C2 22.63 2 26.26 2 30 C1.67 30 1.34 30 1 30 C0.896875 29.236875 0.79375 28.47375 0.6875 27.6875 C0.23930177 24.98440058 0.23930177 24.98440058 -1.5 23.5 C-3.49901075 21.50098925 -3.62890981 19.74606742 -4 17 C-3.360625 16.5875 -2.72125 16.175 -2.0625 15.75 C0.20990931 13.82189513 0.60196439 12.88575819 1 10 C0.38125 9.773125 -0.2375 9.54625 -0.875 9.3125 C-3.61410209 7.62070165 -4.05024472 6.00755839 -5 3 C-2.25 0 -2.25 0 0 0 Z " fill="#8A2A14" transform="translate(20,133)"/>
<path d="M0 0 C0.33 0 0.66 0 1 0 C1.33 5.94 1.66 11.88 2 18 C4.475 18.99 4.475 18.99 7 20 C7.33 19.34 7.66 18.68 8 18 C9.32 18 10.64 18 12 18 C12.33 18.99 12.66 19.98 13 21 C13 20.01 13 19.02 13 18 C13.66 18 14.32 18 15 18 C14.67 19.32 14.34 20.64 14 22 C10.04 22.495 10.04 22.495 6 23 C6.061875 24.258125 6.12375 25.51625 6.1875 26.8125 C6.19441101 30.71722035 6.19441101 30.71722035 4.625 33 C3 34 3 34 1 34 C1 32.02 1 30.04 1 28 C0.34 28 -0.32 28 -1 28 C-1.66 27.34 -2.32 26.68 -3 26 C-3.33 26.99 -3.66 27.98 -4 29 C-3.01 29.33 -2.02 29.66 -1 30 C-1 31.32 -1 32.64 -1 34 C-4.875 32.125 -4.875 32.125 -6 31 C-7.53472222 23.91666667 -7.53472222 23.91666667 -5.25 20 C-3 18 -3 18 0 18 C0 12.06 0 6.12 0 0 Z " fill="#673337" transform="translate(64,116)"/>
<path d="M0 0 C5.28 0 10.56 0 16 0 C16 0.66 16 1.32 16 2 C12.91190305 3.76462683 11.76687864 4 8 4 C8.66 5.32 9.32 6.64 10 8 C8.0625 7.625 8.0625 7.625 6 7 C5.67 6.34 5.34 5.68 5 5 C4.34 5.66 3.68 6.32 3 7 C3.33 7.99 3.66 8.98 4 10 C4.99 10.33 5.98 10.66 7 11 C5.68 11.33 4.36 11.66 3 12 C3 12.99 3 13.98 3 15 C5.64 14.67 8.28 14.34 11 14 C9.70700306 16.88437779 8.34058637 18.87219421 6 21 C4.02 20.01 2.04 19.02 0 18 C0 12.06 0 6.12 0 0 Z " fill="#C5C5C5" transform="translate(65,116)"/>
<path d="M0 0 C-0.020625 0.7425 -0.04125 1.485 -0.0625 2.25 C-0.14836183 4.93482756 -0.14836183 4.93482756 0.75 7.0625 C1 9 1 9 -0.5 11.25 C-3.79391492 13.55574044 -6.06706043 13.30253381 -10 13 C-11.54272906 10.54978326 -12.06214316 9.41428772 -11.625 6.5 C-11.41875 5.675 -11.2125 4.85 -11 4 C-11 2.68 -11 1.36 -11 0 C-6.66370819 -2.2956839 -4.46535773 -1.86921951 0 0 Z " fill="#AD9700" transform="translate(108,110)"/>
<path d="M0 0 C1.32 0.66 2.64 1.32 4 2 C4 3.32 4 4.64 4 6 C9.61 6 15.22 6 21 6 C21 12.93 21 19.86 21 27 C20.67 27 20.34 27 20 27 C20 20.4 20 13.8 20 7 C14.72 7 9.44 7 4 7 C4 7.99 4 8.98 4 10 C4.99 10.33 5.98 10.66 7 11 C7 12.98 7 14.96 7 17 C5.68 15.68 4.36 14.36 3 13 C3 13.99 3 14.98 3 16 C3.66 16.66 4.32 17.32 5 18 C3.35 18 1.7 18 0 18 C0.33 16.68 0.66 15.36 1 14 C-1.64 13.67 -4.28 13.34 -7 13 C-7 11.35 -7 9.7 -7 8 C-7.66 7.67 -8.32 7.34 -9 7 C-8.67 5.35 -8.34 3.7 -8 2 C-7.34 3.32 -6.68 4.64 -6 6 C-5.34 6 -4.68 6 -4 6 C-2.875 9.75 -2.875 9.75 -4 12 C-1.82271927 11.12355567 -1.82271927 11.12355567 0 9 C0.36475845 5.97465051 0.22893297 3.03336186 0 0 Z " fill="#7D1D17" transform="translate(69,138)"/>
<path d="M0 0 C4.62 0 9.24 0 14 0 C14.05404449 2.75026417 14.09369306 5.49946203 14.125 8.25 C14.15013672 9.41595703 14.15013672 9.41595703 14.17578125 10.60546875 C14.23662606 17.72431144 14.23662606 17.72431144 12 21 C11.34 21 10.68 21 10 21 C10 21.66 10 22.32 10 23 C8.68 23 7.36 23 6 23 C6 22.34 6 21.68 6 21 C7.32 20.67 8.64 20.34 10 20 C9.34 19.38125 8.68 18.7625 8 18.125 C6 16 6 16 6 14 C7.32 14.33 8.64 14.66 10 15 C10.33 14.01 10.66 13.02 11 12 C9.35 12 7.7 12 6 12 C6 11.34 6 10.68 6 10 C7.98 10 9.96 10 12 10 C11.34 9.01 10.68 8.02 10 7 C8.02 7.99 8.02 7.99 6 9 C6.375 7.0625 6.375 7.0625 7 5 C7.66 4.67 8.32 4.34 9 4 C7.68 3.67 6.36 3.34 5 3 C4.67 4.98 4.34 6.96 4 9 C3.67 9 3.34 9 3 9 C3 7.02 3 5.04 3 3 C1.68 2.67 0.36 2.34 -1 2 C-0.67 1.34 -0.34 0.68 0 0 Z " fill="#C49C03" transform="translate(73,146)"/>
<path d="M0 0 C4.62 0 9.24 0 14 0 C14.33 1.65 14.66 3.3 15 5 C13.68 5 12.36 5 11 5 C10.67 7.31 10.34 9.62 10 12 C7.36 12.99 4.72 13.98 2 15 C1.94600264 13.54207116 1.90720823 12.08357288 1.875 10.625 C1.84019531 9.40683594 1.84019531 9.40683594 1.8046875 8.1640625 C2 6 2 6 4 4 C3.34 3.67 2.68 3.34 2 3 C2 3.66 2 4.32 2 5 C1.34 5 0.68 5 0 5 C0 3.35 0 1.7 0 0 Z " fill="#B04410" transform="translate(20,132)"/>
<path d="M0 0 C3.3 0.99 6.6 1.98 10 3 C9.67 6.63 9.34 10.26 9 14 C6.03 14 3.06 14 0 14 C0 9.38 0 4.76 0 0 Z " fill="#7A776D" transform="translate(98,149)"/>
<path d="M0 0 C5.75 0.875 5.75 0.875 8 2 C8 4.64 8 7.28 8 10 C6.02 10.33 4.04 10.66 2 11 C2.66 12.32 3.32 13.64 4 15 C1.69 14.67 -0.62 14.34 -3 14 C-2.01 12.35 -1.02 10.7 0 9 C-0.66 9 -1.32 9 -2 9 C-3 6 -3 6 -1.5625 2.8125 C-1.046875 1.884375 -0.53125 0.95625 0 0 Z " fill="#9B1616" transform="translate(80,92)"/>
<path d="M0 0 C0.83686751 2.9290363 1.07479299 4.7076274 0.3125 7.6875 C-1 10 -1 10 -2.875 11.4375 C-5 12 -5 12 -7.25 11.125 C-7.8275 10.75375 -8.405 10.3825 -9 10 C-8.814375 9.0925 -8.62875 8.185 -8.4375 7.25 C-8.04265379 4.31685676 -8.05308428 2.7355343 -9 0 C-5.52176885 -1.15941038 -3.54104422 -0.70820884 0 0 Z " fill="#A11517" transform="translate(75,90)"/>
<path d="M0 0 C2.05078125 0.03255208 4.1015625 0.06510417 6.15234375 0.09765625 C6.15234375 3.39765625 6.15234375 6.69765625 6.15234375 10.09765625 C2.52234375 10.09765625 -1.10765625 10.09765625 -4.84765625 10.09765625 C-4.18765625 9.76765625 -3.52765625 9.43765625 -2.84765625 9.09765625 C-2.86828125 7.79828125 -2.88890625 6.49890625 -2.91015625 5.16015625 C-2.93165079 3.80599992 -2.91913824 2.45009542 -2.84765625 1.09765625 C-1.84765625 0.09765625 -1.84765625 0.09765625 0 0 Z " fill="#736961" transform="translate(100.84765625,121.90234375)"/>
<path d="M0 0 C0.99 0.33 1.98 0.66 3 1 C3 2.66666667 3 4.33333333 3 6 C4.65 5.67 6.3 5.34 8 5 C6.68 4.34 5.36 3.68 4 3 C4.33 2.01 4.66 1.02 5 0 C7.97 1.32 10.94 2.64 14 4 C13.67 4.99 13.34 5.98 13 7 C7.00126833 9.31950958 -0.87623899 8.28921284 -7 7 C-7 6.01 -7 5.02 -7 4 C-6.030625 3.525625 -5.06125 3.05125 -4.0625 2.5625 C-1.19522563 1.29806053 -1.19522563 1.29806053 0 0 Z " fill="#716F47" transform="translate(61,169)"/>
<path d="M0 0 C0.66 0.33 1.32 0.66 2 1 C2 5.29 2 9.58 2 14 C2.99 14 3.98 14 5 14 C5.33 14.66 5.66 15.32 6 16 C8.34386809 16.91031272 8.34386809 16.91031272 11.0625 17.625 C11.98160156 17.88539063 12.90070313 18.14578125 13.84765625 18.4140625 C14.55792969 18.60742188 15.26820312 18.80078125 16 19 C13.64046906 21.35953094 12.22104383 21.49141413 9 22 C9 21.34 9 20.68 9 20 C8.236875 19.896875 7.47375 19.79375 6.6875 19.6875 C3.73421485 18.93200845 3.04132166 18.13007477 1 16 C-1.10332891 15.28552357 -1.10332891 15.28552357 -3 15 C-2.67 14.01 -2.34 13.02 -2 12 C-1.69760965 9.13569136 -1.49234231 6.27080066 -1.28125 3.3984375 C-1 1 -1 1 0 0 Z " fill="#9D2A2A" transform="translate(66,153)"/>
<path d="M0 0 C0.99 0 1.98 0 3 0 C3 9.24 3 18.48 3 28 C2.01 28 1.02 28 0 28 C0 18.76 0 9.52 0 0 Z " fill="#A89500" transform="translate(44,144)"/>
<path d="M0 0 C1.65 0.99 3.3 1.98 5 3 C4.38640625 3.08121094 3.7728125 3.16242188 3.140625 3.24609375 C0.86169372 3.81193356 0.86169372 3.81193356 -0.265625 5.84765625 C-0.59046875 6.57855469 -0.9153125 7.30945313 -1.25 8.0625 C-1.58515625 8.79597656 -1.9203125 9.52945313 -2.265625 10.28515625 C-2.50796875 10.85105469 -2.7503125 11.41695312 -3 12 C-3.66 12 -4.32 12 -5 12 C-5 12.66 -5 13.32 -5 14 C-5.99 14.33 -6.98 14.66 -8 15 C-8.66 14.67 -9.32 14.34 -10 14 C-10 13.01 -10 12.02 -10 11 C-9.01 10.67 -8.02 10.34 -7 10 C-7.66 9.67 -8.32 9.34 -9 9 C-9 8.34 -9 7.68 -9 7 C-9.66 6.67 -10.32 6.34 -11 6 C-11 5.34 -11 4.68 -11 4 C-9.68 3.67 -8.36 3.34 -7 3 C-7 3.99 -7 4.98 -7 6 C-6.01 6 -5.02 6 -4 6 C-4.33 5.01 -4.66 4.02 -5 3 C-4.360625 2.87625 -3.72125 2.7525 -3.0625 2.625 C-2.381875 2.41875 -1.70125 2.2125 -1 2 C-0.67 1.34 -0.34 0.68 0 0 Z " fill="#74475C" transform="translate(78,117)"/>
<path d="M0 0 C1.32 0.66 2.64 1.32 4 2 C4 3.98 4 5.96 4 8 C2.02 8 0.04 8 -2 8 C-1.01 9.485 -1.01 9.485 0 11 C1.32 10.34 2.64 9.68 4 9 C3.43628586 12.26954202 2.50037734 13.82575883 0 16 C0.99 16.33 1.98 16.66 3 17 C2.67 17.66 2.34 18.32 2 19 C1.34 19 0.68 19 0 19 C0 18.34 0 17.68 0 17 C-0.99 17 -1.98 17 -3 17 C-3.93619813 13.84493858 -4.1057123 11.03413498 -4.0625 7.75 C-4.05347656 6.85796875 -4.04445313 5.9659375 -4.03515625 5.046875 C-4.02355469 4.37140625 -4.01195313 3.6959375 -4 3 C-3.01 2.67 -2.02 2.34 -1 2 C-1.33 3.32 -1.66 4.64 -2 6 C-1.01 5.67 -0.02 5.34 1 5 C0.67 3.35 0.34 1.7 0 0 Z " fill="#C39903" transform="translate(71,150)"/>
<path d="M0 0 C0.66 0.99 1.32 1.98 2 3 C1.125 5.6875 1.125 5.6875 0 8 C0.99 8 1.98 8 3 8 C3 8.66 3 9.32 3 10 C0.36 10.33 -2.28 10.66 -5 11 C-4.67 10.01 -4.34 9.02 -4 8 C-4.99 8 -5.98 8 -7 8 C-7 7.34 -7 6.68 -7 6 C-7.66 5.67 -8.32 5.34 -9 5 C-8.625 3.0625 -8.625 3.0625 -8 1 C-5.21136993 -0.39431504 -3.07921132 -0.25660094 0 0 Z " fill="#A11816" transform="translate(49,96)"/>
<path d="M0 0 C0.81984375 -0.01224609 1.6396875 -0.02449219 2.484375 -0.03710938 C3.27328125 -0.03904297 4.0621875 -0.04097656 4.875 -0.04296875 C5.59429687 -0.04707764 6.31359375 -0.05118652 7.0546875 -0.05541992 C9 0.1875 9 0.1875 12 2.1875 C4.27111181 4.14153042 -3.05042008 4.41178282 -11 4.1875 C-11.33 3.1975 -11.66 2.2075 -12 1.1875 C-7.96103843 -0.15882052 -4.2287853 0.00332452 0 0 Z " fill="#54110B" transform="translate(63,111.8125)"/>
<path d="M0 0 C0.33 0 0.66 0 1 0 C1 9.24 1 18.48 1 28 C1.66 28.33 2.32 28.66 3 29 C2.34 29 1.68 29 1 29 C1 35.27 1 41.54 1 48 C0.67 48 0.34 48 0 48 C-0.0093457 47.23333008 -0.01869141 46.46666016 -0.02832031 45.67675781 C-0.08202773 42.20051897 -0.16567576 38.72562526 -0.25 35.25 C-0.26417969 34.0434375 -0.27835938 32.836875 -0.29296875 31.59375 C-0.32519531 30.43359375 -0.35742188 29.2734375 -0.390625 28.078125 C-0.41157227 27.00981445 -0.43251953 25.94150391 -0.45410156 24.84082031 C-1.11538394 21.39954938 -2.33982376 20.1967309 -5 18 C-4.67 17.34 -4.34 16.68 -4 16 C-2.68 16 -1.36 16 0 16 C0 10.72 0 5.44 0 0 Z " fill="#6B4204" transform="translate(38,116)"/>
<path d="M0 0 C1.62418745 -0.08090971 3.24951745 -0.13914995 4.875 -0.1875 C5.77992187 -0.22230469 6.68484375 -0.25710937 7.6171875 -0.29296875 C8.79667969 -0.14794922 8.79667969 -0.14794922 10 0 C12 3 12 3 12 6 C7.71 6 3.42 6 -1 6 C-0.67 4.02 -0.34 2.04 0 0 Z " fill="#827200" transform="translate(97,163)"/>
<path d="M0 0 C-0.33 2.31 -0.66 4.62 -1 7 C-0.01 6.67 0.98 6.34 2 6 C1.67 7.65 1.34 9.3 1 11 C0.01 11.33 -0.98 11.66 -2 12 C-2 10.02 -2 8.04 -2 6 C-2.66 6 -3.32 6 -4 6 C-4.66 5.34 -5.32 4.68 -6 4 C-6.33 4.99 -6.66 5.98 -7 7 C-6.01 7.33 -5.02 7.66 -4 8 C-4 9.32 -4 10.64 -4 12 C-5.32 11.34 -6.64 10.68 -8 10 C-8.36248013 2.62957075 -8.36248013 2.62957075 -6.8125 -0.0625 C-4.26271335 -1.38135516 -2.68253902 -0.7975116 0 0 Z " fill="#024995" transform="translate(67,138)"/>
<path d="M0 0 C-0.50603992 2.16874252 -0.99983813 3.99967627 -2 6 C-8.52307692 6.36923077 -8.52307692 6.36923077 -10.9375 4.5 C-11.4634375 3.7575 -11.4634375 3.7575 -12 3 C-11 0 -11 0 -8.8125 -1.3125 C-5.25782353 -2.18142092 -3.32356365 -1.3912592 0 0 Z " fill="#100601" transform="translate(108,110)"/>
<path d="M0 0 C0.66 0 1.32 0 2 0 C2.33 0.66 2.66 1.32 3 2 C5.02463255 2.65213292 5.02463255 2.65213292 7 3 C6.34 4.65 5.68 6.3 5 8 C2.36 8 -0.28 8 -3 8 C-3.66 6.35 -4.32 4.7 -5 3 C-3.35 2.67 -1.7 2.34 0 2 C0 1.34 0 0.68 0 0 Z " fill="#3C1505" transform="translate(25,108)"/>
<path d="M0 0 C0 0.33 0 0.66 0 1 C-0.7425 1.103125 -1.485 1.20625 -2.25 1.3125 C-5.1863157 2.04657893 -6.66108288 3.14499677 -9 5 C-9.66 5 -10.32 5 -11 5 C-10.67 7.31 -10.34 9.62 -10 12 C-10.99 12.66 -11.98 13.32 -13 14 C-15 12 -15 12 -15.4375 9.1875 C-14.86115252 4.98839696 -13.19698232 3.66415193 -10 1 C-6.78548731 -0.60725635 -3.56387464 -0.05748185 0 0 Z " fill="#564813" transform="translate(51,89)"/>
<path d="M0 0 C0.99 0 1.98 0 3 0 C3 0.66 3 1.32 3 2 C3.639375 1.835 4.27875 1.67 4.9375 1.5 C6.91645199 1.02025406 7.97886036 1 10 1 C10 2.32 10 3.64 10 5 C12.97 5.33 15.94 5.66 19 6 C19 6.33 19 6.66 19 7 C10.75 7 2.5 7 -6 7 C-6 6.67 -6 6.34 -6 6 C-4.865625 5.731875 -3.73125 5.46375 -2.5625 5.1875 C-1.386875 4.795625 -0.21125 4.40375 1 4 C1.33 3.01 1.66 2.02 2 1 C1.34 0.67 0.68 0.34 0 0 Z " fill="#5A4B19" transform="translate(71,109)"/>
<path d="M0 0 C1.65 0 3.3 0 5 0 C5 0.66 5 1.32 5 2 C5.66 2 6.32 2 7 2 C7 1.34 7 0.68 7 0 C7.66 0 8.32 0 9 0 C9 0.66 9 1.32 9 2 C9.66 2.33 10.32 2.66 11 3 C10.360625 3.2475 9.72125 3.495 9.0625 3.75 C6.81258459 4.81562433 6.81258459 4.81562433 6.25 7.125 C6.1675 7.74375 6.085 8.3625 6 9 C6.99 9.33 7.98 9.66 9 10 C6.36 10.33 3.72 10.66 1 11 C0.67 10.34 0.34 9.68 0 9 C0.99 9 1.98 9 3 9 C2.42655063 6.13275314 2.1385485 5.1385485 0 3 C0 2.01 0 1.02 0 0 Z " fill="#5F5400" transform="translate(47,125)"/>
<path d="M0 0 C0 4.29 0 8.58 0 13 C-1.65 13 -3.3 13 -5 13 C-5 9.37 -5 5.74 -5 2 C-1 0 -1 0 0 0 Z " fill="#C7C7C7" transform="translate(27,150)"/>
<path d="M0 0 C0.33 0.99 0.66 1.98 1 3 C0.67 3.66 0.34 4.32 0 5 C-0.27024708 7.29924497 -0.44497841 9.59801487 -0.62109375 11.90625 C-1 14 -1 14 -3 16 C-2.67 16.99 -2.34 17.98 -2 19 C-2.33 19.99 -2.66 20.98 -3 22 C-3.99 22 -4.98 22 -6 22 C-6.33 20.35 -6.66 18.7 -7 17 C-6.34 17 -5.68 17 -5 17 C-5 15.35 -5 13.7 -5 12 C-4.01 12 -3.02 12 -2 12 C-2.33 11.34 -2.66 10.68 -3 10 C-3.203125 8.125 -3.203125 8.125 -3.25 6 C-3.27578125 5.29875 -3.3015625 4.5975 -3.328125 3.875 C-3.21984375 3.25625 -3.1115625 2.6375 -3 2 C-2.01 1.34 -1.02 0.68 0 0 Z " fill="#724C5D" transform="translate(86,119)"/>
<path d="M0 0 C0.33 0.66 0.66 1.32 1 2 C2.65 1.67 4.3 1.34 6 1 C6 1.99 6 2.98 6 4 C6.66 4.33 7.32 4.66 8 5 C3.05 5.33 -1.9 5.66 -7 6 C-7 4.02 -7 2.04 -7 0 C-4.30234372 -1.34882814 -2.84835666 -0.80338265 0 0 Z " fill="#9C3C0F" transform="translate(97,132)"/>
<path d="M0 0 C0.33 1.98 0.66 3.96 1 6 C-0.32 6.33 -1.64 6.66 -3 7 C-3 8.32 -3 9.64 -3 11 C-4.32 10.67 -5.64 10.34 -7 10 C-6.34 10 -5.68 10 -5 10 C-5 8.68 -5 7.36 -5 6 C-5.99 5.67 -6.98 5.34 -8 5 C-8 4.01 -8 3.02 -8 2 C-2.25 0 -2.25 0 0 0 Z " fill="#A11417" transform="translate(61,94)"/>
<path d="M0 0 C0 1.32 0 2.64 0 4 C0.66 4 1.32 4 2 4 C2 3.34 2 2.68 2 2 C4.31 2.33 6.62 2.66 9 3 C9 3.33 9 3.66 9 4 C6.69 4.33 4.38 4.66 2 5 C2 6.65 2 8.3 2 10 C0.1875 9.875 0.1875 9.875 -2 9 C-3.75 5.9375 -3.75 5.9375 -5 3 C-2.25 0 -2.25 0 0 0 Z " fill="#70241B" transform="translate(20,133)"/>
<path d="M0 0 C0.66 0 1.32 0 2 0 C2 4.29 2 8.58 2 13 C2.66 13 3.32 13 4 13 C4.33 14.98 4.66 16.96 5 19 C4.34 18.01 3.68 17.02 3 16 C0.79274927 15.63637182 0.79274927 15.63637182 -1.625 15.8125 C-2.44226563 15.83957031 -3.25953125 15.86664063 -4.1015625 15.89453125 C-4.72804688 15.92933594 -5.35453125 15.96414062 -6 16 C-6 15.01 -6 14.02 -6 13 C-4.02 13 -2.04 13 0 13 C0 8.71 0 4.42 0 0 Z " fill="#595332" transform="translate(27,150)"/>
<path d="M0 0 C0.66 0.33 1.32 0.66 2 1 C1.67 3.31 1.34 5.62 1 8 C1.99 8.33 2.98 8.66 4 9 C2.68 10.32 1.36 11.64 0 13 C-0.99 12.67 -1.98 12.34 -3 12 C-4.25792333 7.72306069 -3.75983132 5.07539885 -2 1 C-1.34 0.67 -0.68 0.34 0 0 Z " fill="#392C01" transform="translate(56,128)"/>
<path d="M0 0 C1.98 0.99 1.98 0.99 4 2 C4 5.63 4 9.26 4 13 C2.68 13 1.36 13 0 13 C0 8.71 0 4.42 0 0 Z " fill="#CBCBCB" transform="translate(99,149)"/>
<path d="M0 0 C1.65 0.33 3.3 0.66 5 1 C5 1.66 5 2.32 5 3 C5.99 3 6.98 3 8 3 C8.33 4.98 8.66 6.96 9 9 C8.34 9 7.68 9 7 9 C7 8.34 7 7.68 7 7 C6.34 7 5.68 7 5 7 C5 7.66 5 8.32 5 9 C4.34 9 3.68 9 3 9 C3 8.34 3 7.68 3 7 C2.34 7 1.68 7 1 7 C1 6.34 1 5.68 1 5 C1.66 5 2.32 5 3 5 C3 4.34 3 3.68 3 3 C2.34 2.67 1.68 2.34 1 2 C1 2.66 1 3.32 1 4 C-0.32 3.67 -1.64 3.34 -3 3 C-2.01 3 -1.02 3 0 3 C0 2.01 0 1.02 0 0 Z " fill="#3C1B05" transform="translate(49,118)"/>
<path d="M0 0 C0.66 0 1.32 0 2 0 C2 7.26 2 14.52 2 22 C1.34 22 0.68 22 0 22 C-0.97556564 19.07330309 -1.0606341 17.55938679 -0.87890625 14.55078125 C-0.83056641 13.70322266 -0.78222656 12.85566406 -0.73242188 11.98242188 C-0.67634766 11.10134766 -0.62027344 10.22027344 -0.5625 9.3125 C-0.51029297 8.41982422 -0.45808594 7.52714844 -0.40429688 6.60742188 C-0.2747182 4.4045844 -0.13975754 2.20221127 0 0 Z " fill="#C0A900" transform="translate(39,145)"/>
<path d="M0 0 C0.33 0.66 0.66 1.32 1 2 C0.34 2 -0.32 2 -1 2 C-1 2.66 -1 3.32 -1 4 C0.32 3.67 1.64 3.34 3 3 C3 3.66 3 4.32 3 5 C0.1875 6.5625 0.1875 6.5625 -3 8 C-5 7.33333333 -7 6.66666667 -9 6 C-9 5.34 -9 4.68 -9 4 C-6.03 2.68 -3.06 1.36 0 0 Z " fill="#66190F" transform="translate(74,99)"/>
<path d="M0 0 C0.33 1.65 0.66 3.3 1 5 C-6.75 4.125 -6.75 4.125 -9 3 C-9 2.01 -9 1.02 -9 0 C-5.52176885 -1.15941038 -3.54104422 -0.70820884 0 0 Z " fill="#EFB700" transform="translate(75,90)"/>
<path d="M0 0 C0 0.99 0 1.98 0 3 C-3.3 3.66 -6.6 4.32 -10 5 C-9.67 3.35 -9.34 1.7 -9 0 C-5.93109813 -1.53445094 -3.29905734 -0.54984289 0 0 Z " fill="#EDB600" transform="translate(62,90)"/>
<path d="M0 0 C3.3 0 6.6 0 10 0 C10.33 1.32 10.66 2.64 11 4 C7.37 4 3.74 4 0 4 C0 2.68 0 1.36 0 0 Z " fill="#9F8D00" transform="translate(20,165)"/>
<path d="M0 0 C0 2.64 0 5.28 0 8 C-1.65 8.66 -3.3 9.32 -5 10 C-5 7.03 -5 4.06 -5 1 C-3 0 -3 0 0 0 Z " fill="#CACACA" transform="translate(27,137)"/>
<path d="M0 0 C1.65 0 3.3 0 5 0 C5 2.64 5 5.28 5 8 C3.35 8.33 1.7 8.66 0 9 C0 6.03 0 3.06 0 0 Z " fill="#CCCCCC" transform="translate(22,123)"/>
<path d="M0 0 C1.65 0 3.3 0 5 0 C5 2.64 5 5.28 5 8 C3.35 7.67 1.7 7.34 0 7 C0 4.69 0 2.38 0 0 Z " fill="#BFBFBF" transform="translate(99,137)"/>
<path d="M0 0 C0.66 0 1.32 0 2 0 C3.6875 2.3125 3.6875 2.3125 5 5 C4.67 5.99 4.34 6.98 4 8 C3.34 8 2.68 8 2 8 C2 7.34 2 6.68 2 6 C1.34 6 0.68 6 0 6 C0 6.99 0 7.98 0 9 C-0.99 8.67 -1.98 8.34 -3 8 C-2.67 7.67 -2.34 7.34 -2 7 C-2 6.01 -2 5.02 -2 4 C-1 1.8125 -1 1.8125 0 0 Z " fill="#A1597A" transform="translate(77,128)"/>
<path d="M0 0 C0 1.65 0 3.3 0 5 C-2.97 5.66 -5.94 6.32 -9 7 C-9 5.68 -9 4.36 -9 3 C-3.375 0 -3.375 0 0 0 Z " fill="#E8B300" transform="translate(49,91)"/>
<path d="M0 0 C3.3 0 6.6 0 10 0 C10.33 0.99 10.66 1.98 11 3 C9.02 3 7.04 3 5 3 C4.67 4.98 4.34 6.96 4 9 C3.67 9 3.34 9 3 9 C3 7.02 3 5.04 3 3 C1.68 2.67 0.36 2.34 -1 2 C-0.67 1.34 -0.34 0.68 0 0 Z " fill="#C29304" transform="translate(73,146)"/>
<path d="M0 0 C2.64 0.33 5.28 0.66 8 1 C6.68 1.33 5.36 1.66 4 2 C4.0825 2.928125 4.165 3.85625 4.25 4.8125 C4 8 4 8 2 9.875 C1.01 10.431875 1.01 10.431875 0 11 C-0.33 9.35 -0.66 7.7 -1 6 C-0.34 6 0.32 6 1 6 C0.67 4.02 0.34 2.04 0 0 Z " fill="#423409" transform="translate(75,89)"/>
<path d="M0 0 C0.33 0 0.66 0 1 0 C1.33 10.23 1.66 20.46 2 31 C0.68 30.67 -0.64 30.34 -2 30 C-1.67 29.67 -1.34 29.34 -1 29 C-0.84141158 26.85613343 -0.74870702 24.70733162 -0.68359375 22.55859375 C-0.64169922 21.25341797 -0.59980469 19.94824219 -0.55664062 18.60351562 C-0.51682392 17.2148467 -0.47711175 15.82617478 -0.4375 14.4375 C-0.39432011 13.04490817 -0.350706 11.65232972 -0.30664062 10.25976562 C-0.20014124 6.83995199 -0.09813077 3.42006237 0 0 Z " fill="#665C0F" transform="translate(52,144)"/>
<path d="M0 0 C1.65 0.99 3.3 1.98 5 3 C4.4225 3.04125 3.845 3.0825 3.25 3.125 C-0.13312465 4.44065958 -1.19222685 6.96552364 -3 10 C-3.66 9.67 -4.32 9.34 -5 9 C-5 7 -5 5 -5 3 C-4.360625 2.87625 -3.72125 2.7525 -3.0625 2.625 C-2.0415625 2.315625 -2.0415625 2.315625 -1 2 C-0.67 1.34 -0.34 0.68 0 0 Z " fill="#4D353D" transform="translate(78,117)"/>
<path d="M0 0 C2.94887797 0.50842724 5.37371875 1.59306362 8 3 C8 3.99 8 4.98 8 6 C7.195625 5.814375 6.39125 5.62875 5.5625 5.4375 C4.716875 5.293125 3.87125 5.14875 3 5 C2.67 5.33 2.34 5.66 2 6 C-0.0625 5.5625 -0.0625 5.5625 -2 5 C-1.125 1.125 -1.125 1.125 0 0 Z " fill="#817200" transform="translate(71,106)"/>
<path d="M0 0 C4.95 1.98 4.95 1.98 10 4 C9.67 4.99 9.34 5.98 9 7 C6.03 7 3.06 7 0 7 C1.32 6.34 2.64 5.68 4 5 C2.68 4.34 1.36 3.68 0 3 C0 2.01 0 1.02 0 0 Z " fill="#9F998F" transform="translate(65,169)"/>
<path d="M0 0 C5.28 0 10.56 0 16 0 C16 1.32 16 2.64 16 4 C12.7 4 9.4 4 6 4 C6.99 3.34 7.98 2.68 9 2 C6.03 2 3.06 2 0 2 C0 1.34 0 0.68 0 0 Z " fill="#0A3768" transform="translate(18,169)"/>
<path d="M0 0 C1.32 0 2.64 0 4 0 C4 2.64 4 5.28 4 8 C2.68 8 1.36 8 0 8 C0 5.36 0 2.72 0 0 Z " fill="#CCCCCC" transform="translate(99,123)"/>
<path d="M0 0 C5.75 0.875 5.75 0.875 8 2 C7.67 3.32 7.34 4.64 7 6 C4.36 5.34 1.72 4.68 -1 4 C-0.67 2.68 -0.34 1.36 0 0 Z " fill="#F8BF00" transform="translate(80,92)"/>
<path d="M0 0 C1.98 0 3.96 0 6 0 C6.33 0.66 6.66 1.32 7 2 C6.34 2 5.68 2 5 2 C4.67 2.66 4.34 3.32 4 4 C6.97 4.495 6.97 4.495 10 5 C8 7 8 7 5.5 7.1875 C3 7 3 7 1 6 C1.20625 5.38125 1.4125 4.7625 1.625 4.125 C1.74875 3.42375 1.8725 2.7225 2 2 C1.34 1.34 0.68 0.68 0 0 Z " fill="#36372F" transform="translate(61,168)"/>
<path d="M0 0 C3.3 0 6.6 0 10 0 C10 0.99 10 1.98 10 3 C6.8035914 4.06546953 4.34252724 4.07427838 1 4 C0.67 2.68 0.34 1.36 0 0 Z " fill="#4B4203" transform="translate(97,119)"/>
<path d="M0 0 C0 0.99 0 1.98 0 3 C-2.66666667 3.66666667 -5.33333333 4.33333333 -8 5 C-8 3.68 -8 2.36 -8 1 C-3.375 -1.125 -3.375 -1.125 0 0 Z " fill="#3A1E03" transform="translate(105,109)"/>
<path d="M0 0 C2.31 0 4.62 0 7 0 C6.67 1.32 6.34 2.64 6 4 C3.69 4 1.38 4 -1 4 C-0.67 2.68 -0.34 1.36 0 0 Z " fill="#0B0500" transform="translate(24,112)"/>
<path d="M0 0 C0.99 0 1.98 0 3 0 C3.33 1.98 3.66 3.96 4 6 C-0.455 6.495 -0.455 6.495 -5 7 C-4.34 6.67 -3.68 6.34 -3 6 C-2.67 5.34 -2.34 4.68 -2 4 C-1.33333333 2.66666667 -0.66666667 1.33333333 0 0 Z " fill="#565509" transform="translate(54,106)"/>
<path d="M0 0 C1.46015291 0.28241641 2.91809793 0.57626614 4.375 0.875 C5.18710938 1.03742188 5.99921875 1.19984375 6.8359375 1.3671875 C9 2 9 2 11 4 C7.846632 4.70074844 5.27275026 5 2 5 C1.34 4.34 0.68 3.68 0 3 C0 2.01 0 1.02 0 0 Z " fill="#6A560B" transform="translate(66,85)"/>
<path d="M0 0 C0.99 0.33 1.98 0.66 3 1 C2.67 2.98 2.34 4.96 2 7 C0.35 7.33 -1.3 7.66 -3 8 C-2.01 5.36 -1.02 2.72 0 0 Z " fill="#8E790A" transform="translate(63,79)"/>
<path d="M0 0 C1.5 1.125 1.5 1.125 3 3 C3.1875 6.1875 3.1875 6.1875 3 9 C-0.75283733 7.54728878 -0.75283733 7.54728878 -1.875 5.0625 C-2 3 -2 3 0 0 Z " fill="#243A39" transform="translate(67,138)"/>
<path d="M0 0 C2.04119788 1.61594832 4.04072937 3.2856382 6 5 C6 5.66 6 6.32 6 7 C4.35 7.66 2.7 8.32 1 9 C0.67 6.03 0.34 3.06 0 0 Z " fill="#B23414" transform="translate(77,159)"/>
<path d="M0 0 C0.66 1.32 1.32 2.64 2 4 C2.66 4 3.32 4 4 4 C4.33 5.32 4.66 6.64 5 8 C3.68 8 2.36 8 1 8 C1 7.34 1 6.68 1 6 C0.34 5.67 -0.32 5.34 -1 5 C-0.67 3.35 -0.34 1.7 0 0 Z " fill="#494A13" transform="translate(61,140)"/>
<path d="M0 0 C-0.33 0.99 -0.66 1.98 -1 3 C-7.0546875 3.1953125 -7.0546875 3.1953125 -9 3 C-9.66 2.34 -10.32 1.68 -11 1 C-6.92630576 -1.03684712 -4.41062136 -1.0257259 0 0 Z " fill="#5D4D0E" transform="translate(62,87)"/>
<path d="M0 0 C2.475 0.495 2.475 0.495 5 1 C5 1.66 5 2.32 5 3 C5.99 3.33 6.98 3.66 8 4 C7 5 7 5 3.9375 5.0625 C2.968125 5.041875 1.99875 5.02125 1 5 C0.67 3.35 0.34 1.7 0 0 Z " fill="#817300" transform="translate(57,107)"/>
<path d="M0 0 C0.33 0.66 0.66 1.32 1 2 C1.99 2 2.98 2 4 2 C4 2.66 4 3.32 4 4 C1.36 4.33 -1.28 4.66 -4 5 C-3.67 4.01 -3.34 3.02 -3 2 C-3.99 1.67 -4.98 1.34 -6 1 C-4.02 0.67 -2.04 0.34 0 0 Z " fill="#701B0F" transform="translate(48,102)"/>
<path d="M0 0 C1.5 1.3125 1.5 1.3125 3 3 C3 3.99 3 4.98 3 6 C0.69 6 -1.62 6 -4 6 C-4.33 5.34 -4.66 4.68 -5 4 C-4.34 4 -3.68 4 -3 4 C-3 3.34 -3 2.68 -3 2 C-2.01 2 -1.02 2 0 2 C0 1.34 0 0.68 0 0 Z " fill="#2D321B" transform="translate(65,84)"/>
<path d="M0 0 C0 2.64 0 5.28 0 8 C-0.99 8.33 -1.98 8.66 -3 9 C-3 6.36 -3 3.72 -3 1 C-1 0 -1 0 0 0 Z " fill="#818181" transform="translate(30,136)"/>
<path d="M0 0 C0.66 0.33 1.32 0.66 2 1 C1.67 3.31 1.34 5.62 1 8 C0.67 7.34 0.34 6.68 0 6 C-0.99 6 -1.98 6 -3 6 C-2.625 3.5625 -2.625 3.5625 -2 1 C-1.34 0.67 -0.68 0.34 0 0 Z " fill="#1B2C5B" transform="translate(56,128)"/>
<path d="M0 0 C1.24546405 2.49092811 0.7767578 3.41080733 0 6 C0.66 6 1.32 6 2 6 C2.33 5.34 2.66 4.68 3 4 C2.67 5.32 2.34 6.64 2 8 C1.01 8 0.02 8 -1 8 C-2 7 -2 7 -2.0625 3.9375 C-2.041875 2.968125 -2.02125 1.99875 -2 1 C-1.34 0.67 -0.68 0.34 0 0 Z " fill="#43330F" transform="translate(38,94)"/>
<path d="M0 0 C0.99 0.33 1.98 0.66 3 1 C3 2.98 3 4.96 3 7 C1.68 7.33 0.36 7.66 -1 8 C-1.33 6.68 -1.66 5.36 -2 4 C-1.01 4.495 -1.01 4.495 0 5 C0 3.35 0 1.7 0 0 Z " fill="#42320D" transform="translate(89,94)"/>
<path d="M0 0 C0 2.64 0 5.28 0 8 C-2.475 7.01 -2.475 7.01 -5 6 C-4.23844604 3.71533812 -2.984409 0 0 0 Z " fill="#B02716" transform="translate(76,160)"/>
<path d="M0 0 C0.33 1.65 0.66 3.3 1 5 C-0.65 5.33 -2.3 5.66 -4 6 C-4.33 5.01 -4.66 4.02 -5 3 C-2.25 0 -2.25 0 0 0 Z " fill="#912012" transform="translate(20,133)"/>
<path d="M0 0 C1.32 0.66 2.64 1.32 4 2 C3.67 3.32 3.34 4.64 3 6 C1.35 6 -0.3 6 -2 6 C-1.34 4.02 -0.68 2.04 0 0 Z " fill="#6E6202" transform="translate(66,106)"/>
<path d="M0 0 C0.66 0.33 1.32 0.66 2 1 C1.67 1.99 1.34 2.98 1 4 C1.99 4.33 2.98 4.66 4 5 C2.02 5.99 2.02 5.99 0 7 C0 6.34 0 5.68 0 5 C-0.66 5 -1.32 5 -2 5 C-2 3.68 -2 2.36 -2 1 C-1.34 0.67 -0.68 0.34 0 0 Z " fill="#6F6000" transform="translate(65,96)"/>
<path d="M0 0 C0.928125 0.515625 1.85625 1.03125 2.8125 1.5625 C2.8125 1.8925 2.8125 2.2225 2.8125 2.5625 C-0.1575 2.5625 -3.1275 2.5625 -6.1875 2.5625 C-6.1875 1.5725 -6.1875 0.5825 -6.1875 -0.4375 C-3.1875 -1.4375 -3.1875 -1.4375 0 0 Z " fill="#A9A69D" transform="translate(60.1875,173.4375)"/>
<path d="M0 0 C0.99 0.33 1.98 0.66 3 1 C3.1953125 7.0546875 3.1953125 7.0546875 3 9 C2.34 9.66 1.68 10.32 1 11 C0.67 7.37 0.34 3.74 0 0 Z " fill="#931216" transform="translate(69,138)"/>
<path d="M0 0 C2 0.25 2 0.25 4 1 C4.33 1.99 4.66 2.98 5 4 C3.35 4.33 1.7 4.66 0 5 C-0.5625 3.0625 -0.5625 3.0625 -1 1 C-0.67 0.67 -0.34 0.34 0 0 Z M4 0 C7 1 7 1 7 1 Z " fill="#827300" transform="translate(49,107)"/>
<path d="M0 0 C0 0.66 0 1.32 0 2 C-0.99 2 -1.98 2 -3 2 C-3.33 2.66 -3.66 3.32 -4 4 C-5.65 3.67 -7.3 3.34 -9 3 C-9 2.34 -9 1.68 -9 1 C-5.92677456 0.08941469 -3.19902639 -0.08886184 0 0 Z " fill="#745B01" transform="translate(91,102)"/>
<path d="M0 0 C2.0625 0.4375 2.0625 0.4375 4 1 C4 2.32 4 3.64 4 5 C2.68 5 1.36 5 0 5 C-0.5625 3.0625 -0.5625 3.0625 -1 1 C-0.67 0.67 -0.34 0.34 0 0 Z " fill="#1C3885" transform="translate(49,135)"/>
<path d="M0 0 C3.37462715 0.54723683 5.08235 1.0549 8 3 C7.67 3.99 7.34 4.98 7 6 C7 5.34 7 4.68 7 4 C5.02 4 3.04 4 1 4 C0.67 2.68 0.34 1.36 0 0 Z " fill="#8D300D" transform="translate(105,132)"/>
<path d="M0 0 C2.0625 0.4375 2.0625 0.4375 4 1 C4 2.65 4 4.3 4 6 C2.0625 5.1875 2.0625 5.1875 0 4 C-0.33 3.01 -0.66 2.02 -1 1 C-0.67 0.67 -0.34 0.34 0 0 Z " fill="#A21C15" transform="translate(34,132)"/>
<path d="M0 0 C0.99 0.66 1.98 1.32 3 2 C2.67 3.32 2.34 4.64 2 6 C1.67 5.01 1.34 4.02 1 3 C-1.97 3 -4.94 3 -8 3 C-7.67 2.34 -7.34 1.68 -7 1 C-4.69 1.33 -2.38 1.66 0 2 C0 1.34 0 0.68 0 0 Z " fill="#998000" transform="translate(106,114)"/>
<path d="M0 0 C-2.35953094 2.35953094 -3.77895617 2.49141413 -7 3 C-7 2.34 -7 1.68 -7 1 C-7.99 0.67 -8.98 0.34 -10 0 C-6.42355152 -1.2380014 -3.66305234 -0.74926071 0 0 Z " fill="#6C2623" transform="translate(82,172)"/>
<path d="M0 0 C0.66 0.33 1.32 0.66 2 1 C1.67 3.64 1.34 6.28 1 9 C0.34 9 -0.32 9 -1 9 C-1.09765625 2.84765625 -1.09765625 2.84765625 -1 1 C-0.67 0.67 -0.34 0.34 0 0 Z " fill="#AD2216" transform="translate(66,153)"/>
<path d="M0 0 C0.66 0 1.32 0 2 0 C1.67 1.98 1.34 3.96 1 6 C-0.32 6 -1.64 6 -3 6 C-3 5.01 -3 4.02 -3 3 C-2.01 3 -1.02 3 0 3 C0 2.01 0 1.02 0 0 Z " fill="#8F1A12" transform="translate(110,136)"/>
<path d="M0 0 C0.33 0 0.66 0 1 0 C1.33 3.3 1.66 6.6 2 10 C1.01 10 0.02 10 -1 10 C-2.46726798 6.18510326 -1.43336419 3.70988378 0 0 Z " fill="#BFBFBF" transform="translate(82,121)"/>
<path d="M0 0 C2.97 0.495 2.97 0.495 6 1 C6 1.99 6 2.98 6 4 C4.68 4 3.36 4 2 4 C2 3.34 2 2.68 2 2 C1.34 2 0.68 2 0 2 C-0.33 2.66 -0.66 3.32 -1 4 C-0.67 2.68 -0.34 1.36 0 0 Z " fill="#694A07" transform="translate(60,106)"/>
<path d="M0 0 C0.33 0.66 0.66 1.32 1 2 C1.66 2.33 2.32 2.66 3 3 C2.34 3 1.68 3 1 3 C1 4.98 1 6.96 1 9 C0.34 9 -0.32 9 -1 9 C-1 1 -1 1 0 0 Z " fill="#625205" transform="translate(39,91)"/>
<path d="M0 0 C0.33 0.99 0.66 1.98 1 3 C-0.9375 5.6875 -0.9375 5.6875 -3 8 C-3.1875 5.125 -3.1875 5.125 -3 2 C-2.01 1.34 -1.02 0.68 0 0 Z " fill="#644553" transform="translate(86,119)"/>
<path d="M0 0 C0.33 0.66 0.66 1.32 1 2 C1.99 2.33 2.98 2.66 4 3 C4 4.32 4 5.64 4 7 C2.68 6.34 1.36 5.68 0 5 C0 3.35 0 1.7 0 0 Z " fill="#0050A9" transform="translate(59,143)"/>
<path d="M0 0 C1.32 0.33 2.64 0.66 4 1 C4 2.98 4 4.96 4 7 C3.34 6.01 2.68 5.02 2 4 C1.01 4.495 1.01 4.495 0 5 C0 3.35 0 1.7 0 0 Z " fill="#6E210B" transform="translate(30,139)"/>
<path d="M0 0 C0.66 0.33 1.32 0.66 2 1 C2.625 3.0625 2.625 3.0625 3 5 C1.68 5 0.36 5 -1 5 C-1.33 5.66 -1.66 6.32 -2 7 C-1.125 1.125 -1.125 1.125 0 0 Z " fill="#AE7705" transform="translate(32,132)"/>
<path d="M0 0 C2.475 0.495 2.475 0.495 5 1 C5.33 1.99 5.66 2.98 6 4 C4.68 3.67 3.36 3.34 2 3 C2 3.66 2 4.32 2 5 C1.34 5 0.68 5 0 5 C0 3.35 0 1.7 0 0 Z " fill="#BC7F07" transform="translate(20,132)"/>
<path d="M0 0 C0.66 0 1.32 0 2 0 C3.6875 2.3125 3.6875 2.3125 5 5 C4.67 5.99 4.34 6.98 4 8 C3.34 8 2.68 8 2 8 C2 6.68 2 5.36 2 4 C0.5833253 2.2488427 0.5833253 2.2488427 -1 1 C-0.67 0.67 -0.34 0.34 0 0 Z " fill="#E36DA3" transform="translate(77,128)"/>
<path d="M0 0 C0.66 0.33 1.32 0.66 2 1 C1.34 2.65 0.68 4.3 0 6 C-0.99 6 -1.98 6 -3 6 C-1.125 1.125 -1.125 1.125 0 0 Z " fill="#E16CA1" transform="translate(79,120)"/>
</svg>
