<svg version="1.1" id="Layer_1" xmlns="http://www.w3.org/2000/svg" xmlns:xlink="http://www.w3.org/1999/xlink" x="0px" y="0px"
	 width="100%" viewBox="0 0 337 328" enable-background="new 0 0 337 328" xml:space="preserve">
<path fill="#FEFEFE" opacity="1.000000" stroke="none" 
	d="
M194.000000,329.000000 
	C129.333344,329.000000 65.166687,329.000000 1.000026,329.000000 
	C1.000017,219.666702 1.000017,110.333397 1.000009,1.000070 
	C113.333282,1.000046 225.666565,1.000046 337.999878,1.000023 
	C337.999939,110.333260 337.999939,219.666519 337.999969,328.999878 
	C290.166656,329.000000 242.333328,329.000000 194.000000,329.000000 
M254.798355,163.080643 
	C259.637665,161.807190 260.033936,160.955078 257.479309,157.042847 
	C255.975693,154.740128 254.381500,152.496552 253.158447,149.598251 
	C258.935944,145.465591 263.622070,140.623749 261.905670,132.765274 
	C261.215210,129.604095 259.714355,126.563148 258.232544,123.645119 
	C256.089752,119.425484 255.394714,115.157288 257.324005,110.796402 
	C258.117249,109.003433 259.627533,107.527695 261.254578,105.301682 
	C258.884216,105.652420 257.457245,105.863564 255.393951,106.304001 
	C249.126862,109.767540 245.217331,114.589302 245.959503,122.243027 
	C246.166458,124.377174 246.515839,126.723106 245.860870,128.653229 
	C245.174835,130.674850 243.738739,133.090164 241.959381,133.958832 
	C238.145981,135.820526 233.900391,136.796921 229.132050,138.035736 
	C226.134705,136.360596 223.137344,134.685440 219.934174,132.895264 
	C220.813660,131.305267 221.641312,129.808960 223.056503,127.250496 
	C218.096939,128.325211 214.172684,129.175583 210.155472,130.046097 
	C210.023026,129.009750 209.864380,127.768539 209.589111,125.614746 
	C207.472885,128.040741 205.883560,129.862717 204.559372,131.380737 
	C200.934601,130.250305 197.418045,129.153610 193.901474,128.056931 
	C193.727097,128.385101 193.552719,128.713257 193.378326,129.041428 
	C194.022507,129.893845 194.666702,130.746246 195.317520,131.607437 
	C193.678711,132.152756 192.065033,132.689697 190.150894,133.326630 
	C191.205170,134.270920 191.920776,134.911865 192.952759,135.836182 
	C190.980988,137.016708 189.153320,138.110962 186.439697,139.077881 
	C181.580078,138.095795 176.695877,137.219833 171.867966,136.100937 
	C167.297195,135.041656 165.761795,132.459167 166.582535,127.780342 
	C168.087692,119.199821 163.432114,111.690948 154.287521,109.023643 
	C153.421127,109.138367 152.554733,109.253090 151.280396,109.421829 
	C154.803787,114.407677 157.655914,119.089165 155.029221,124.977791 
	C154.083374,127.098251 153.209671,129.252563 152.358612,131.413315 
	C149.453568,138.788895 151.065201,144.596283 157.184525,149.578461 
	C158.375320,150.547974 159.180771,151.990814 159.861603,153.807144 
	C158.673080,156.230591 157.484543,158.654037 156.727386,161.769073 
	C162.317429,165.127014 168.044113,164.345749 173.590317,163.314911 
	C173.290787,166.877625 172.991257,170.440323 172.258408,174.472672 
	C166.550995,180.476730 161.940384,186.963882 162.450409,196.085266 
	C162.200073,196.261826 162.042877,196.499878 161.343918,197.094543 
	C159.223846,198.378403 157.103775,199.662262 154.275208,201.022614 
	C146.836884,205.640228 139.398575,210.257843 131.274918,214.978745 
	C129.516617,216.685730 127.758308,218.392731 125.278931,219.964569 
	C122.936829,219.134628 120.640488,218.127655 118.244003,217.508041 
	C111.152420,215.674561 106.164444,211.397095 105.090057,204.176392 
	C104.179520,198.056870 104.385742,191.721085 104.594994,185.497711 
	C104.855415,177.752640 105.626656,170.024719 106.828056,161.844162 
	C108.286530,159.992096 109.745003,158.140030 112.014732,155.257782 
	C108.562569,155.098907 106.818459,155.018646 105.381340,154.312927 
	C105.804054,154.049957 106.195198,153.695633 106.654007,153.537079 
	C131.439362,144.970428 138.254715,119.307663 130.817627,97.345566 
	C127.159859,86.888771 121.020531,78.418907 110.812157,73.584389 
	C100.761116,68.824387 90.216560,67.774216 77.764648,71.640022 
	C79.931213,66.619026 81.364174,63.042461 82.999367,59.560875 
	C86.599373,51.895935 90.515862,44.371857 93.880547,36.607143 
	C95.861794,32.035007 93.910606,28.140348 89.984360,25.376844 
	C85.186447,21.999819 80.001869,21.881792 74.892387,24.495186 
	C64.542984,29.788681 57.616425,38.522873 52.386768,48.517963 
	C41.839848,68.675568 36.999851,90.062881 39.312874,113.344696 
	C39.593273,114.961617 39.924923,116.571548 40.146259,118.196510 
	C42.812157,137.768784 54.650928,152.475281 72.819107,156.367096 
	C80.702797,158.055847 89.229866,156.741119 97.270569,157.586716 
	C96.655983,159.811676 96.041397,162.036621 95.426804,164.261581 
	C97.956070,164.197983 100.485344,164.134399 103.197388,164.960800 
	C102.919136,169.421799 102.788986,173.898376 102.321732,178.339493 
	C101.836662,182.949844 100.789146,187.505936 100.399780,192.120529 
	C99.086517,207.685028 104.872963,216.338013 119.642532,221.330750 
	C121.363472,221.912491 123.048744,222.599762 124.971855,223.966049 
	C125.606575,226.180359 126.023796,228.486877 126.916298,230.591888 
	C129.740692,237.253464 135.934219,239.800156 142.505341,236.992386 
	C142.667328,236.935959 142.829315,236.879532 143.766357,237.282867 
	C143.800858,243.563461 143.457001,249.874039 143.951477,256.118195 
	C144.877808,267.815765 148.821030,278.379303 157.449341,287.555267 
	C164.829544,296.425537 174.632584,301.667938 184.947174,306.763000 
	C184.360199,309.521576 183.773224,312.280151 182.947433,315.795013 
	C182.591599,317.882568 182.235748,319.970123 181.684921,323.201538 
	C189.121033,324.424194 196.163681,325.582184 203.411713,326.773956 
	C204.011765,323.112732 204.426910,320.579773 205.164764,317.302185 
	C205.677017,314.579041 206.189270,311.855896 207.524948,309.146149 
	C210.648575,309.109283 213.772202,309.072449 217.011292,309.817383 
	C217.681183,312.544830 218.351089,315.272308 218.929520,318.791779 
	C219.394241,320.851654 219.858978,322.911499 220.376633,325.205994 
	C228.239563,325.534973 235.394058,324.052032 242.120682,319.868530 
	C241.359329,317.620789 240.734756,315.776886 240.143402,313.088928 
	C239.664185,310.043732 239.184982,306.998505 239.403549,303.737946 
	C245.604156,300.476440 251.804764,297.214935 258.636414,294.480011 
	C269.165649,296.499573 274.385590,294.198578 279.835938,285.154602 
	C280.773651,283.598663 281.480499,281.753204 282.789886,280.608887 
	C284.523376,279.093872 286.761169,277.232605 288.751343,277.267761 
	C290.021790,277.290253 291.236328,280.474609 292.071411,282.798859 
	C283.552032,290.819153 283.531464,296.274811 292.040863,303.757629 
	C292.874786,302.028931 293.720856,300.275116 294.566895,298.521271 
	C295.106689,298.556427 295.646515,298.591583 296.186310,298.626740 
	C296.926483,301.935913 297.666687,305.245087 298.408356,308.560730 
	C308.108398,300.113708 309.256012,286.147247 298.263550,280.928467 
	C298.044434,275.748749 295.617554,272.056885 290.607208,270.562927 
	C285.417969,269.015625 281.604889,271.759491 278.582550,275.506683 
	C276.420868,278.186859 274.953430,281.417969 272.878174,284.179199 
	C270.347992,287.545776 267.479218,290.607025 263.117676,287.556641 
	C276.932678,272.910492 279.681519,254.923752 278.786896,235.816223 
	C278.722137,234.432999 279.059418,233.030914 279.764038,232.046036 
	C280.660156,232.783081 281.529602,233.555710 282.456848,234.251312 
	C287.957825,238.378052 293.831451,237.667816 298.776276,232.298492 
	C303.673828,226.980484 303.759583,221.353897 298.817749,215.331558 
	C289.485931,205.792755 278.982391,197.831558 266.655579,191.243240 
	C263.114105,189.535507 259.572601,187.827759 255.392532,185.892838 
	C254.945465,185.955902 254.498413,186.018951 253.637009,185.904480 
	C253.637009,185.904480 253.202011,185.786011 253.132324,185.064514 
	C249.708206,180.687119 246.284088,176.309708 242.923264,170.994644 
	C242.876602,168.112076 242.829926,165.229507 243.637634,162.555679 
	C247.097763,162.718491 250.557877,162.881302 254.798355,163.080643 
z"/>
<path fill="#FDE65D" opacity="1.000000" stroke="none" 
	d="
M39.875008,112.888512 
	C36.999851,90.062881 41.839848,68.675568 52.386768,48.517963 
	C57.616425,38.522873 64.542984,29.788681 74.892387,24.495186 
	C80.001869,21.881792 85.186447,21.999819 89.984360,25.376844 
	C93.910606,28.140348 95.861794,32.035007 93.880547,36.607143 
	C90.515862,44.371857 86.599373,51.895935 82.999367,59.560875 
	C81.364174,63.042461 79.931213,66.619026 77.764648,71.640022 
	C90.216560,67.774216 100.761116,68.824387 110.812157,73.584389 
	C121.020531,78.418907 127.159859,86.888771 130.585754,97.970459 
	C128.350113,115.483223 123.558662,131.151413 109.928795,142.554077 
	C100.675423,150.295395 90.170387,154.616791 77.796234,152.153259 
	C62.613026,149.130539 52.461876,139.833817 45.912098,126.196098 
	C43.803810,121.806305 41.882080,117.326912 39.875008,112.888512 
M114.880989,87.118362 
	C114.880989,87.118362 114.750404,87.161636 114.642220,86.491982 
	C111.032516,84.344711 107.616554,81.614037 103.723137,80.321136 
	C102.032410,79.759682 98.390045,81.584961 97.355644,83.340538 
	C95.729584,86.100258 98.177505,88.126205 100.806900,89.374130 
	C106.847153,92.240883 112.816528,95.188568 115.175514,102.214073 
	C115.424316,102.955063 116.010139,103.838089 116.672371,104.133575 
	C118.196007,104.813408 120.524368,106.055832 121.321587,105.459526 
	C122.613724,104.493042 124.036011,101.641869 123.485367,100.623238 
	C120.968857,95.967972 117.784538,91.673706 114.880989,87.118362 
M100.380394,105.433990 
	C96.962318,99.594444 91.626404,98.296188 85.424545,99.211426 
	C78.926216,100.170418 74.714638,103.951134 71.686684,110.312683 
	C71.116112,111.985725 70.139633,113.636154 70.044975,115.335693 
	C69.627434,122.832687 75.248634,129.636017 82.669388,130.939758 
	C92.452675,132.658615 101.590317,127.521072 103.834572,118.694359 
	C105.009468,114.073471 105.409500,109.319046 100.380394,105.433990 
M48.106663,108.764694 
	C49.151253,112.029297 51.010841,115.210136 54.700607,113.750114 
	C56.640659,112.982437 58.124634,109.686317 58.722786,107.262497 
	C59.420937,104.433472 58.955891,101.310349 58.946404,98.314995 
	C58.910744,87.055374 60.942635,76.150864 65.584549,65.926315 
	C69.074303,58.239586 73.288910,50.876556 77.309914,43.439209 
	C78.792267,40.697418 79.729027,38.192177 76.571709,36.081017 
	C73.679237,34.146954 70.603996,34.258942 68.574379,37.042717 
	C64.886269,42.101246 61.076351,47.206810 58.329937,52.790813 
	C49.797848,70.138268 46.656364,88.629333 48.106663,108.764694 
z"/>
<path fill="#B3807F" opacity="1.000000" stroke="none" 
	d="
M157.210129,286.947205 
	C148.821030,278.379303 144.877808,267.815765 143.951477,256.118195 
	C143.457001,249.874039 143.800858,243.563461 143.593567,236.782806 
	C144.292282,234.775345 145.519577,233.368484 145.978500,231.744476 
	C149.359787,219.779221 154.586395,208.866409 163.785706,200.047546 
	C167.755249,204.072815 171.415329,207.999710 175.050613,212.359833 
	C174.825668,214.262299 174.688675,215.743423 174.415146,217.198868 
	C172.657700,226.549728 172.194611,235.739258 174.758636,245.180328 
	C180.134109,264.973328 202.181488,275.450592 220.967056,269.320709 
	C246.201309,261.086517 258.762115,231.250946 248.087372,206.677444 
	C250.455719,202.577377 252.673828,198.784393 255.215210,195.138916 
	C255.947784,196.279968 256.999817,197.706207 256.667175,198.200333 
	C253.265732,203.253113 256.186035,205.293320 261.350708,206.875549 
	C257.965576,209.641876 259.966309,211.311066 261.379578,213.995834 
	C262.793732,216.682297 262.511871,221.069031 261.332825,224.064758 
	C260.339355,226.588943 259.657104,227.946747 261.703613,230.047714 
	C262.375458,230.737442 262.282318,232.544861 262.006317,233.715591 
	C261.169434,237.265106 260.071869,240.753159 259.075836,244.265167 
	C258.501495,246.155930 256.346222,248.740631 256.950958,250.000488 
	C258.674194,253.590485 256.103638,253.918640 254.411591,255.670654 
	C252.801620,257.337677 252.478638,260.228058 251.457123,262.521454 
	C251.378128,262.698822 250.251633,262.394714 249.609879,262.338837 
	C246.188660,262.040924 245.409302,263.421478 246.926056,266.428925 
	C248.567612,269.683807 246.634094,270.872009 243.936172,270.361328 
	C239.588058,269.538300 238.464996,271.466736 237.832718,275.302399 
	C237.509552,277.262939 235.719070,279.168030 234.183136,280.684174 
	C232.922714,281.928375 231.058334,282.560730 229.195084,283.615143 
	C222.477493,280.716431 222.077957,280.917480 220.145935,289.280579 
	C216.579208,289.927673 211.410477,289.320343 209.062790,291.608063 
	C203.932556,296.607208 197.898560,292.439484 192.805176,294.788300 
	C192.199844,295.067474 190.838974,294.531738 190.273804,293.944794 
	C185.605560,289.096558 185.637405,289.065887 181.868515,294.715729 
	C179.719299,294.445831 177.550308,294.372955 175.496277,293.849274 
	C173.987442,293.464600 171.563385,292.698151 171.376434,291.743561 
	C170.144943,285.455566 166.590637,287.397217 162.995972,288.638733 
	C162.334976,282.312653 159.185913,287.179749 157.210129,286.947205 
M195.783829,288.172089 
	C196.259445,285.581421 195.358292,283.675903 192.590012,284.267548 
	C191.571640,284.485199 190.993713,286.763580 190.214905,288.101990 
	C191.948410,288.353088 193.681931,288.604156 195.783829,288.172089 
z"/>
<path fill="#AA7374" opacity="1.000000" stroke="none" 
	d="
M163.000000,289.000000 
	C166.590637,287.397217 170.144943,285.455566 171.376434,291.743561 
	C171.563385,292.698151 173.987442,293.464600 175.496277,293.849274 
	C177.550308,294.372955 179.719299,294.445831 181.868515,294.715729 
	C185.637405,289.065887 185.605560,289.096558 190.273804,293.944794 
	C190.838974,294.531738 192.199844,295.067474 192.805176,294.788300 
	C197.898560,292.439484 203.932556,296.607208 209.062790,291.608063 
	C211.410477,289.320343 216.579208,289.927673 220.145935,289.280579 
	C222.077957,280.917480 222.477493,280.716431 229.195084,283.615143 
	C231.058334,282.560730 232.922714,281.928375 234.183136,280.684174 
	C235.719070,279.168030 237.509552,277.262939 237.832718,275.302399 
	C238.464996,271.466736 239.588058,269.538300 243.936172,270.361328 
	C246.634094,270.872009 248.567612,269.683807 246.926056,266.428925 
	C245.409302,263.421478 246.188660,262.040924 249.609879,262.338837 
	C250.251633,262.394714 251.378128,262.698822 251.457123,262.521454 
	C252.478638,260.228058 252.801620,257.337677 254.411591,255.670654 
	C256.103638,253.918640 258.674194,253.590485 256.950958,250.000488 
	C256.346222,248.740631 258.501495,246.155930 259.075836,244.265167 
	C260.071869,240.753159 261.169434,237.265106 262.006317,233.715591 
	C262.282318,232.544861 262.375458,230.737442 261.703613,230.047714 
	C259.657104,227.946747 260.339355,226.588943 261.332825,224.064758 
	C262.511871,221.069031 262.793732,216.682297 261.379578,213.995834 
	C259.966309,211.311066 257.965576,209.641876 261.350708,206.875549 
	C256.186035,205.293320 253.265732,203.253113 256.667175,198.200333 
	C256.999817,197.706207 255.947784,196.279968 255.222427,194.712189 
	C254.621368,191.452652 254.336349,188.767334 254.051346,186.082001 
	C254.498413,186.018951 254.945465,185.955902 255.749512,186.341400 
	C256.653473,187.599915 257.080627,188.532608 257.765472,189.201385 
	C267.913452,199.111359 273.979980,211.188629 277.043488,224.933304 
	C277.520569,227.073700 278.656464,229.067261 279.456299,231.276733 
	C279.424896,231.424759 279.209747,231.637604 279.209778,231.637604 
	C279.059418,233.030914 278.722137,234.432999 278.786896,235.816223 
	C279.681519,254.923752 276.932678,272.910492 262.611847,287.968811 
	C260.739136,290.238464 259.372253,292.095947 258.005371,293.953430 
	C251.804764,297.214935 245.604156,300.476440 238.703384,303.935730 
	C230.967422,305.767517 223.931625,307.401550 216.895828,309.035583 
	C213.772202,309.072449 210.648575,309.109283 206.609497,309.099426 
	C198.813065,308.031403 191.932068,307.010101 185.051071,305.988770 
	C174.632584,301.667938 164.829544,296.425537 157.329742,287.251221 
	C159.185913,287.179749 162.334976,282.312653 162.857666,288.692566 
	C162.815613,289.071808 162.907806,289.035889 163.000000,289.000000 
z"/>
<path fill="#EFC0AE" opacity="1.000000" stroke="none" 
	d="
M242.859985,171.932297 
	C246.284088,176.309708 249.708206,180.687119 252.875488,185.639648 
	C246.094131,196.684845 238.034439,205.356171 225.426880,209.078888 
	C223.492432,210.040344 221.915024,211.039993 219.893707,212.029175 
	C212.414444,212.679413 205.351440,214.093231 198.349762,213.836273 
	C185.714478,213.372604 174.443512,209.311218 166.729553,198.300278 
	C165.921814,197.147324 164.154083,196.666885 162.831757,195.874435 
	C161.940384,186.963882 166.550995,180.476730 172.875244,174.233093 
	C182.564392,169.303848 191.721390,169.344940 201.255692,172.797668 
	C204.352524,173.919144 208.440170,174.541473 211.374573,173.471771 
	C221.825226,169.662079 232.172302,168.596558 242.859985,171.932297 
M227.128860,182.808060 
	C226.731750,184.380493 226.161316,185.932373 225.972076,187.529434 
	C225.519043,191.353012 226.333466,194.859131 229.784134,197.035950 
	C230.484436,197.477737 232.827301,196.893677 232.987503,196.357056 
	C234.012039,192.924866 234.649475,189.376083 235.374680,185.857513 
	C235.432358,185.577667 235.199356,185.233170 235.087372,184.923813 
	C233.685242,181.049789 231.360535,179.646835 227.128860,182.808060 
M187.651932,183.972763 
	C183.363251,186.926666 182.121719,194.972977 185.830978,198.148682 
	C187.050629,199.192871 190.156418,199.695312 191.292770,198.887772 
	C196.200882,195.399857 194.280197,186.119003 187.651932,183.972763 
M170.453781,199.845200 
	C171.323898,200.465668 172.194000,201.086136 172.973541,201.642014 
	C172.973541,194.707932 172.973541,188.053314 172.973541,181.472534 
	C167.625916,183.344376 166.302490,190.702759 170.453781,199.845200 
z"/>
<path fill="#B3807F" opacity="1.000000" stroke="none" 
	d="
M242.891632,171.463470 
	C232.172302,168.596558 221.825226,169.662079 211.374573,173.471771 
	C208.440170,174.541473 204.352524,173.919144 201.255692,172.797668 
	C191.721390,169.344940 182.564392,169.303848 173.091888,173.998260 
	C172.991257,170.440323 173.290787,166.877625 173.776489,162.543549 
	C175.965057,156.858673 177.967484,151.945160 180.115906,146.737579 
	C181.518219,144.941162 182.774521,143.438812 184.306152,141.802307 
	C185.496216,140.847168 186.410919,140.026184 187.325638,139.205200 
	C189.153320,138.110962 190.980988,137.016708 192.952759,135.836182 
	C191.920776,134.911865 191.205170,134.270920 190.150894,133.326630 
	C192.065033,132.689697 193.678711,132.152756 195.317520,131.607437 
	C194.666702,130.746246 194.022507,129.893845 193.378326,129.041428 
	C193.552719,128.713257 193.727097,128.385101 193.901474,128.056931 
	C197.418045,129.153610 200.934601,130.250305 204.559372,131.380737 
	C205.883560,129.862717 207.472885,128.040741 209.589111,125.614746 
	C209.864380,127.768539 210.023026,129.009750 210.155472,130.046097 
	C214.172684,129.175583 218.096939,128.325211 223.056503,127.250496 
	C221.641312,129.808960 220.813660,131.305267 219.934174,132.895264 
	C223.137344,134.685440 226.134705,136.360596 229.657471,138.367935 
	C231.131073,139.207108 232.079254,139.714081 233.064178,140.544220 
	C234.386978,142.582718 235.673065,144.298065 237.113480,146.334045 
	C239.106293,151.885452 240.944778,157.116196 242.783264,162.346939 
	C242.829926,165.229507 242.876602,168.112076 242.891632,171.463470 
M193.117783,159.372971 
	C194.252914,155.200165 194.125015,151.314194 190.767960,148.005325 
	C186.699387,152.334335 186.586929,157.912415 190.660110,163.098663 
	C191.472504,162.026932 192.196320,161.072037 193.117783,159.372971 
M219.510422,150.013138 
	C218.186874,154.396698 217.961838,158.569855 221.396942,162.405212 
	C225.009766,158.453812 225.883011,152.822525 223.411713,149.394455 
	C222.993698,148.814590 221.082642,149.311096 219.510422,150.013138 
z"/>
<path fill="#FDC81F" opacity="1.000000" stroke="none" 
	d="
M39.593941,113.116608 
	C41.882080,117.326912 43.803810,121.806305 45.912098,126.196098 
	C52.461876,139.833817 62.613026,149.130539 77.796234,152.153259 
	C90.170387,154.616791 100.675423,150.295395 109.928795,142.554077 
	C123.558662,131.151413 128.350113,115.483223 130.632446,98.328857 
	C138.254715,119.307663 131.439362,144.970428 106.654007,153.537079 
	C106.195198,153.695633 105.804054,154.049957 104.837128,154.644531 
	C102.016838,155.580948 99.740768,156.185760 97.464706,156.790588 
	C89.229866,156.741119 80.702797,158.055847 72.819107,156.367096 
	C54.650928,152.475281 42.812157,137.768784 40.146259,118.196510 
	C39.924923,116.571548 39.593273,114.961617 39.593941,113.116608 
z"/>
<path fill="#E9AC98" opacity="1.000000" stroke="none" 
	d="
M162.641083,195.979858 
	C164.154083,196.666885 165.921814,197.147324 166.729553,198.300278 
	C174.443512,209.311218 185.714478,213.372604 198.349762,213.836273 
	C205.351440,214.093231 212.414444,212.679413 220.001282,212.365341 
	C221.910599,214.127884 223.108871,215.795135 224.717346,216.816254 
	C225.243408,217.150208 227.841232,215.623138 227.775192,215.255569 
	C227.398270,213.157867 226.503052,211.153305 225.783936,209.117096 
	C238.034439,205.356171 246.094131,196.684845 252.910339,186.000397 
	C253.202011,185.786011 253.637009,185.904480 253.844177,185.993240 
	C254.336349,188.767334 254.621368,191.452652 254.899170,194.564697 
	C252.673828,198.784393 250.455719,202.577377 247.781860,206.816345 
	C243.103271,209.834854 238.855820,212.368561 234.681030,215.016800 
	C233.958801,215.474930 233.347458,216.338501 233.018890,217.150024 
	C230.397949,223.623459 226.094269,224.763596 220.185867,220.772308 
	C218.670929,219.748917 216.574768,219.030685 214.770203,219.079559 
	C201.021729,219.451981 187.644379,217.999573 175.075424,211.926605 
	C171.415329,207.999710 167.755249,204.072815 163.731354,199.681290 
	C162.904633,198.410919 162.441727,197.605179 161.978806,196.799423 
	C162.042877,196.499878 162.200073,196.261826 162.641083,195.979858 
z"/>
<path fill="#965A5F" opacity="1.000000" stroke="none" 
	d="
M267.077454,191.757187 
	C278.982391,197.831558 289.485931,205.792755 298.565918,215.686356 
	C294.028351,218.091965 290.001526,220.358841 290.004517,225.996307 
	C290.000000,226.000000 289.992981,226.008820 289.597595,226.020935 
	C286.474152,227.392136 283.746063,228.751221 281.011780,229.683136 
	C279.373352,217.548416 276.021973,206.479446 269.182007,196.641724 
	C268.190277,195.215332 267.764923,193.395142 267.077454,191.757187 
z"/>
<path fill="#6A3342" opacity="1.000000" stroke="none" 
	d="
M298.267120,281.715576 
	C309.256012,286.147247 308.108398,300.113708 298.408356,308.560730 
	C297.666687,305.245087 296.926483,301.935913 296.186310,298.626740 
	C295.646515,298.591583 295.106689,298.556427 294.566895,298.521271 
	C293.720856,300.275116 292.874786,302.028931 292.040863,303.757629 
	C283.531464,296.274811 283.552032,290.819153 292.682129,282.460327 
	C294.950928,281.986420 296.609009,281.850983 298.267120,281.715576 
z"/>
<path fill="#E8E8E8" opacity="1.000000" stroke="none" 
	d="
M186.882660,139.141541 
	C186.410919,140.026184 185.496216,140.847168 183.996353,141.567917 
	C176.528732,139.883286 171.438797,143.892029 165.745697,146.885101 
	C157.474609,143.824600 154.148499,134.476501 156.397705,127.946609 
	C158.742569,121.139038 158.514801,115.131783 154.977890,109.063477 
	C163.432114,111.690948 168.087692,119.199821 166.582535,127.780342 
	C165.761795,132.459167 167.297195,135.041656 171.867966,136.100937 
	C176.695877,137.219833 181.580078,138.095795 186.882660,139.141541 
M160.000870,119.917419 
	C160.305038,122.766312 158.982925,126.235931 164.378479,128.687042 
	C163.627884,124.465088 163.083786,121.404579 162.539673,118.344070 
	C161.699417,118.599716 160.859177,118.855362 160.000870,119.917419 
z"/>
<path fill="#E9E8E8" opacity="1.000000" stroke="none" 
	d="
M233.027451,140.221054 
	C232.079254,139.714081 231.131073,139.207108 230.007324,138.417984 
	C233.900391,136.796921 238.145981,135.820526 241.959381,133.958832 
	C243.738739,133.090164 245.174835,130.674850 245.860870,128.653229 
	C246.515839,126.723106 246.166458,124.377174 245.959503,122.243027 
	C245.217331,114.589302 249.126862,109.767540 255.695435,106.578606 
	C255.340164,110.890488 254.186310,114.928932 254.195862,118.964638 
	C254.202591,121.806137 255.958817,124.604202 256.639679,127.491051 
	C258.412506,135.008057 253.687622,142.790665 246.313446,144.104935 
	C241.671326,142.736710 237.349380,141.478882 233.027451,140.221054 
M248.504150,124.739624 
	C249.642120,124.340233 251.710251,124.039307 251.764664,123.525238 
	C252.079071,120.554871 251.918076,117.534172 251.918076,114.530525 
	C251.265411,114.454414 250.612747,114.378304 249.960083,114.302200 
	C249.370651,117.544716 248.781219,120.787239 248.504150,124.739624 
z"/>
<path fill="#B58484" opacity="1.000000" stroke="none" 
	d="
M298.265320,281.322021 
	C296.609009,281.850983 294.950928,281.986420 292.884369,282.181580 
	C291.236328,280.474609 290.021790,277.290253 288.751343,277.267761 
	C286.761169,277.232605 284.523376,279.093872 282.789886,280.608887 
	C281.480499,281.753204 280.773651,283.598663 279.835938,285.154602 
	C274.385590,294.198578 269.165649,296.499573 258.320892,294.216736 
	C259.372253,292.095947 260.739136,290.238464 262.360291,288.215973 
	C267.479218,290.607025 270.347992,287.545776 272.878174,284.179199 
	C274.953430,281.417969 276.420868,278.186859 278.582550,275.506683 
	C281.604889,271.759491 285.417969,269.015625 290.607208,270.562927 
	C295.617554,272.056885 298.044434,275.748749 298.265320,281.322021 
z"/>
<path fill="#1C1C1C" opacity="1.000000" stroke="none" 
	d="
M124.750557,223.238098 
	C123.048744,222.599762 121.363472,221.912491 119.642532,221.330750 
	C104.872963,216.338013 99.086517,207.685028 100.399780,192.120529 
	C100.789146,187.505936 101.836662,182.949844 102.321732,178.339493 
	C102.788986,173.898376 102.919136,169.421799 103.285355,164.312988 
	C104.307983,163.206589 105.242638,162.747986 106.177299,162.289398 
	C105.626656,170.024719 104.855415,177.752640 104.594994,185.497711 
	C104.385742,191.721085 104.179520,198.056870 105.090057,204.176392 
	C106.164444,211.397095 111.152420,215.674561 118.244003,217.508041 
	C120.640488,218.127655 122.936829,219.134628 125.621872,220.394287 
	C125.560066,221.628708 125.155312,222.433411 124.750557,223.238098 
z"/>
<path fill="#975B60" opacity="1.000000" stroke="none" 
	d="
M131.960251,214.875473 
	C139.398575,210.257843 146.836884,205.640228 154.601654,201.345398 
	C151.300781,209.074020 147.569061,216.431427 144.098755,223.910141 
	C142.756210,226.803391 142.005920,229.971497 140.677231,233.034637 
	C139.701019,232.803726 138.549973,232.671158 138.453949,232.279785 
	C138.130630,230.961823 138.532761,229.404861 138.028564,228.203140 
	C136.140930,223.703888 134.003815,219.309296 131.960251,214.875473 
z"/>
<path fill="#6A3240" opacity="1.000000" stroke="none" 
	d="
M281.017975,230.110291 
	C283.746063,228.751221 286.474152,227.392136 289.648804,226.161255 
	C290.186066,226.335190 290.276764,226.380951 290.367462,226.426697 
	C290.247986,226.281998 290.128510,226.137299 290.009003,225.992599 
	C290.001526,220.358841 294.028351,218.091965 298.669617,216.005402 
	C303.759583,221.353897 303.673828,226.980484 298.776276,232.298492 
	C293.831451,237.667816 287.957825,238.378052 282.456848,234.251312 
	C281.529602,233.555710 280.660156,232.783081 279.486877,231.841827 
	C279.209747,231.637604 279.424896,231.424759 279.685913,231.226410 
	C280.303955,230.722137 280.660980,230.416214 281.017975,230.110291 
z"/>
<path fill="#6A3341" opacity="1.000000" stroke="none" 
	d="
M131.617584,214.927109 
	C134.003815,219.309296 136.140930,223.703888 138.028564,228.203140 
	C138.532761,229.404861 138.130630,230.961823 138.453949,232.279785 
	C138.549973,232.671158 139.701019,232.803726 140.823502,233.348511 
	C141.516068,234.750061 141.753754,235.857971 141.991455,236.965897 
	C135.934219,239.800156 129.740692,237.253464 126.916298,230.591888 
	C126.023796,228.486877 125.606575,226.180359 124.861206,223.602081 
	C125.155312,222.433411 125.560066,221.628708 125.982407,220.461884 
	C127.758308,218.392731 129.516617,216.685730 131.617584,214.927109 
z"/>
<path fill="#965A5F" opacity="1.000000" stroke="none" 
	d="
M216.953552,309.426483 
	C223.931625,307.401550 230.967422,305.767517 238.354492,304.043396 
	C239.184982,306.998505 239.664185,310.043732 239.701355,313.508423 
	C232.260712,314.030334 226.319489,319.388214 219.020966,317.999756 
	C218.351089,315.272308 217.681183,312.544830 216.953552,309.426483 
z"/>
<path fill="#E0DFDF" opacity="1.000000" stroke="none" 
	d="
M246.633636,144.215317 
	C253.687622,142.790665 258.412506,135.008057 256.639679,127.491051 
	C255.958817,124.604202 254.202591,121.806137 254.195862,118.964638 
	C254.186310,114.928932 255.340164,110.890488 256.013580,106.463959 
	C257.457245,105.863564 258.884216,105.652420 261.254578,105.301682 
	C259.627533,107.527695 258.117249,109.003433 257.324005,110.796402 
	C255.394714,115.157288 256.089752,119.425484 258.232544,123.645119 
	C259.714355,126.563148 261.215210,129.604095 261.905670,132.765274 
	C263.622070,140.623749 258.935944,145.465591 252.718597,149.729248 
	C250.397049,147.978607 248.515350,146.096970 246.633636,144.215317 
z"/>
<path fill="#965A5F" opacity="1.000000" stroke="none" 
	d="
M184.999115,306.375916 
	C191.932068,307.010101 198.813065,308.031403 206.197784,309.092743 
	C206.189270,311.855896 205.677017,314.579041 204.576569,317.662811 
	C199.687851,317.717133 195.364761,317.587219 191.095093,317.040222 
	C188.417282,316.697174 185.819763,315.727356 183.186234,315.038757 
	C183.773224,312.280151 184.360199,309.521576 184.999115,306.375916 
z"/>
<path fill="#E0DFDF" opacity="1.000000" stroke="none" 
	d="
M154.632706,109.043564 
	C158.514801,115.131783 158.742569,121.139038 156.397705,127.946609 
	C154.148499,134.476501 157.474609,143.824600 165.572052,147.164825 
	C163.868790,149.461990 162.016373,151.338669 160.163956,153.215332 
	C159.180771,151.990814 158.375320,150.547974 157.184525,149.578461 
	C151.065201,144.596283 149.453568,138.788895 152.358612,131.413315 
	C153.209671,129.252563 154.083374,127.098251 155.029221,124.977791 
	C157.655914,119.089165 154.803787,114.407677 151.280396,109.421829 
	C152.554733,109.253090 153.421127,109.138367 154.632706,109.043564 
z"/>
<path fill="#975B60" opacity="1.000000" stroke="none" 
	d="
M179.969894,147.031647 
	C177.967484,151.945160 175.965057,156.858673 173.887054,162.052597 
	C168.044113,164.345749 162.317429,165.127014 156.890228,161.345490 
	C159.103531,159.049805 161.054520,157.052292 163.224548,155.330917 
	C168.201691,151.382767 173.071396,147.135132 179.969894,147.031647 
z"/>
<path fill="#6A3341" opacity="1.000000" stroke="none" 
	d="
M183.066833,315.416870 
	C185.819763,315.727356 188.417282,316.697174 191.095093,317.040222 
	C195.364761,317.587219 199.687851,317.717133 204.415207,318.035095 
	C204.426910,320.579773 204.011765,323.112732 203.411713,326.773956 
	C196.163681,325.582184 189.121033,324.424194 181.684921,323.201538 
	C182.235748,319.970123 182.591599,317.882568 183.066833,315.416870 
z"/>
<path fill="#91535A" opacity="1.000000" stroke="none" 
	d="
M281.011780,229.683136 
	C280.660980,230.416214 280.303955,230.722137 279.717346,231.078400 
	C278.656464,229.067261 277.520569,227.073700 277.043488,224.933304 
	C273.979980,211.188629 267.913452,199.111359 257.765472,189.201385 
	C257.080627,188.532608 256.653473,187.599915 256.068787,186.455002 
	C259.572601,187.827759 263.114105,189.535507 266.866516,191.500214 
	C267.764923,193.395142 268.190277,195.215332 269.182007,196.641724 
	C276.021973,206.479446 279.373352,217.548416 281.011780,229.683136 
z"/>
<path fill="#905159" opacity="1.000000" stroke="none" 
	d="
M142.248398,236.979141 
	C141.753754,235.857971 141.516068,234.750061 141.132095,233.328262 
	C142.005920,229.971497 142.756210,226.803391 144.098755,223.910141 
	C147.569061,216.431427 151.300781,209.074020 154.955902,201.307159 
	C157.103775,199.662262 159.223846,198.378403 161.661362,196.946991 
	C162.441727,197.605179 162.904633,198.410919 163.421890,199.582932 
	C154.586395,208.866409 149.359787,219.779221 145.978500,231.744476 
	C145.519577,233.368484 144.292282,234.775345 143.206024,236.552917 
	C142.829315,236.879532 142.667328,236.935959 142.248398,236.979141 
z"/>
<path fill="#6A3341" opacity="1.000000" stroke="none" 
	d="
M218.975250,318.395752 
	C226.319489,319.388214 232.260712,314.030334 239.684738,313.930481 
	C240.734756,315.776886 241.359329,317.620789 242.120682,319.868530 
	C235.394058,324.052032 228.239563,325.534973 220.376633,325.205994 
	C219.858978,322.911499 219.394241,320.851654 218.975250,318.395752 
z"/>
<path fill="#AB7576" opacity="1.000000" stroke="none" 
	d="
M246.313446,144.104935 
	C248.515350,146.096970 250.397049,147.978607 252.553406,150.043320 
	C254.381500,152.496552 255.975693,154.740128 257.479309,157.042847 
	C260.033936,160.955078 259.637665,161.807190 254.372864,162.708344 
	C250.305527,157.734528 246.858871,152.954971 242.913361,148.630554 
	C241.577377,147.166260 238.980057,146.852783 236.959152,146.013397 
	C235.673065,144.298065 234.386978,142.582718 233.064178,140.544220 
	C237.349380,141.478882 241.671326,142.736710 246.313446,144.104935 
z"/>
<path fill="#AB7576" opacity="1.000000" stroke="none" 
	d="
M180.115906,146.737579 
	C173.071396,147.135132 168.201691,151.382767 163.224548,155.330917 
	C161.054520,157.052292 159.103531,159.049805 156.674561,160.999695 
	C157.484543,158.654037 158.673080,156.230591 160.012787,153.511230 
	C162.016373,151.338669 163.868790,149.461990 165.894836,147.305588 
	C171.438797,143.892029 176.528732,139.883286 183.721008,141.702072 
	C182.774521,143.438812 181.518219,144.941162 180.115906,146.737579 
z"/>
<path fill="#975B60" opacity="1.000000" stroke="none" 
	d="
M237.113480,146.334045 
	C238.980057,146.852783 241.577377,147.166260 242.913361,148.630554 
	C246.858871,152.954971 250.305527,157.734528 253.982681,162.690079 
	C250.557877,162.881302 247.097763,162.718491 243.210449,162.451309 
	C240.944778,157.116196 239.106293,151.885452 237.113480,146.334045 
z"/>
<path fill="#FBA61A" opacity="1.000000" stroke="none" 
	d="
M106.502678,162.066772 
	C105.242638,162.747986 104.307983,163.206589 103.193970,163.867981 
	C100.485344,164.134399 97.956070,164.197983 95.426804,164.261581 
	C96.041397,162.036621 96.655983,159.811676 97.367638,157.188644 
	C99.740768,156.185760 102.016838,155.580948 104.683624,154.957245 
	C106.818459,155.018646 108.562569,155.098907 112.014732,155.257782 
	C109.745003,158.140030 108.286530,159.992096 106.502678,162.066772 
z"/>
<path fill="#FEF2A5" opacity="1.000000" stroke="none" 
	d="
M48.059685,108.330597 
	C46.656364,88.629333 49.797848,70.138268 58.329937,52.790813 
	C61.076351,47.206810 64.886269,42.101246 68.574379,37.042717 
	C70.603996,34.258942 73.679237,34.146954 76.571709,36.081017 
	C79.729027,38.192177 78.792267,40.697418 77.309914,43.439209 
	C73.288910,50.876556 69.074303,58.239586 65.584549,65.926315 
	C60.942635,76.150864 58.910744,87.055374 58.946404,98.314995 
	C58.955891,101.310349 59.420937,104.433472 58.722786,107.262497 
	C58.124634,109.686317 56.640659,112.982437 54.700607,113.750114 
	C51.010841,115.210136 49.151253,112.029297 48.059685,108.330597 
M62.757710,60.546787 
	C66.717232,54.861084 70.775574,49.239227 74.533005,43.422970 
	C75.117355,42.518440 74.327477,40.726131 74.173088,39.344357 
	C72.821335,39.671185 70.778481,39.550488 70.229996,40.397484 
	C66.673172,45.890038 63.342613,51.539898 60.239849,57.300842 
	C59.886494,57.956921 61.409081,59.623360 62.757710,60.546787 
M54.981941,72.408195 
	C55.719490,73.478317 56.457039,74.548447 57.194588,75.618568 
	C58.102314,74.560387 59.423916,73.623383 59.780949,72.403961 
	C60.045261,71.501221 59.054657,70.231041 58.623104,69.124550 
	C57.431221,69.957703 56.239342,70.790848 54.981941,72.408195 
z"/>
<path fill="#FEFEFB" opacity="1.000000" stroke="none" 
	d="
M72.442505,110.023026 
	C74.714638,103.951134 78.926216,100.170418 85.424545,99.211426 
	C91.626404,98.296188 96.962318,99.594444 100.697067,106.074615 
	C103.177765,113.399986 101.745514,118.908165 96.815590,122.860580 
	C91.867096,126.827904 82.674156,128.441360 78.482773,125.699280 
	C72.822014,121.995911 71.142517,116.526573 72.442505,110.023026 
z"/>
<path fill="#FDF1A4" opacity="1.000000" stroke="none" 
	d="
M114.840157,87.249733 
	C117.784538,91.673706 120.968857,95.967972 123.485367,100.623238 
	C124.036011,101.641869 122.613724,104.493042 121.321587,105.459526 
	C120.524368,106.055832 118.196007,104.813408 116.672371,104.133575 
	C116.010139,103.838089 115.424316,102.955063 115.175514,102.214073 
	C112.816528,95.188568 106.847153,92.240883 100.806900,89.374130 
	C98.177505,88.126205 95.729584,86.100258 97.355644,83.340538 
	C98.390045,81.584961 102.032410,79.759682 103.723137,80.321136 
	C107.616554,81.614037 111.032516,84.344711 114.337570,86.797272 
	C110.663895,85.943398 107.294868,84.784248 103.925835,83.625099 
	C103.785866,84.043976 103.645889,84.462852 103.505913,84.881729 
	C105.960243,86.711662 108.434975,88.515060 110.861877,90.380676 
	C112.540115,91.670761 114.152313,93.046761 115.794006,94.384377 
	C115.516426,92.336716 115.238258,90.289139 114.961845,88.241325 
	C114.917297,87.911331 114.880524,87.580292 114.840157,87.249733 
z"/>
<path fill="#FCC923" opacity="1.000000" stroke="none" 
	d="
M72.064590,110.167854 
	C71.142517,116.526573 72.822014,121.995911 78.482773,125.699280 
	C82.674156,128.441360 91.867096,126.827904 96.815590,122.860580 
	C101.745514,118.908165 103.177765,113.399986 100.933243,106.299896 
	C105.409500,109.319046 105.009468,114.073471 103.834572,118.694359 
	C101.590317,127.521072 92.452675,132.658615 82.669388,130.939758 
	C75.248634,129.636017 69.627434,122.832687 70.044975,115.335693 
	C70.139633,113.636154 71.116112,111.985725 72.064590,110.167854 
z"/>
<path fill="#C29590" opacity="1.000000" stroke="none" 
	d="
M175.050613,212.359833 
	C187.644379,217.999573 201.021729,219.451981 214.770203,219.079559 
	C216.574768,219.030685 218.670929,219.748917 220.185867,220.772308 
	C226.094269,224.763596 230.397949,223.623459 233.018890,217.150024 
	C233.347458,216.338501 233.958801,215.474930 234.681030,215.016800 
	C238.855820,212.368561 243.103271,209.834854 247.631622,207.123444 
	C258.762115,231.250946 246.201309,261.086517 220.967056,269.320709 
	C202.181488,275.450592 180.134109,264.973328 174.758636,245.180328 
	C172.194611,235.739258 172.657700,226.549728 174.415146,217.198868 
	C174.688675,215.743423 174.825668,214.262299 175.050613,212.359833 
z"/>
<path fill="#AA7374" opacity="1.000000" stroke="none" 
	d="
M195.599640,288.513672 
	C193.681931,288.604156 191.948410,288.353088 190.214905,288.101990 
	C190.993713,286.763580 191.571640,284.485199 192.590012,284.267548 
	C195.358292,283.675903 196.259445,285.581421 195.599640,288.513672 
z"/>
<path fill="#B3807F" opacity="1.000000" stroke="none" 
	d="
M162.861710,289.053864 
	C162.907806,289.035889 162.815613,289.071808 162.861710,289.053864 
z"/>
<path fill="#D78C78" opacity="1.000000" stroke="none" 
	d="
M227.358932,182.469147 
	C231.360535,179.646835 233.685242,181.049789 235.087372,184.923813 
	C235.199356,185.233170 235.432358,185.577667 235.374680,185.857513 
	C234.649475,189.376083 234.012039,192.924866 232.987503,196.357056 
	C232.827301,196.893677 230.484436,197.477737 229.784134,197.035950 
	C226.333466,194.859131 225.519043,191.353012 225.972076,187.529434 
	C226.161316,185.932373 226.731750,184.380493 227.358932,182.469147 
z"/>
<path fill="#D78C78" opacity="1.000000" stroke="none" 
	d="
M188.052063,183.949829 
	C194.280197,186.119003 196.200882,195.399857 191.292770,198.887772 
	C190.156418,199.695312 187.050629,199.192871 185.830978,198.148682 
	C182.121719,194.972977 183.363251,186.926666 188.052063,183.949829 
z"/>
<path fill="#F9EEE9" opacity="1.000000" stroke="none" 
	d="
M170.202225,199.561127 
	C166.302490,190.702759 167.625916,183.344376 172.973541,181.472534 
	C172.973541,188.053314 172.973541,194.707932 172.973541,201.642014 
	C172.194000,201.086136 171.323898,200.465668 170.202225,199.561127 
z"/>
<path fill="#0C0908" opacity="1.000000" stroke="none" 
	d="
M225.426880,209.078888 
	C226.503052,211.153305 227.398270,213.157867 227.775192,215.255569 
	C227.841232,215.623138 225.243408,217.150208 224.717346,216.816254 
	C223.108871,215.795135 221.910599,214.127884 220.445175,212.375824 
	C221.915024,211.039993 223.492432,210.040344 225.426880,209.078888 
z"/>
<path fill="#1D191A" opacity="1.000000" stroke="none" 
	d="
M193.018967,159.745056 
	C192.196320,161.072037 191.472504,162.026932 190.660110,163.098663 
	C186.586929,157.912415 186.699387,152.334335 190.767960,148.005325 
	C194.125015,151.314194 194.252914,155.200165 193.018967,159.745056 
z"/>
<path fill="#1C1818" opacity="1.000000" stroke="none" 
	d="
M219.685913,149.661713 
	C221.082642,149.311096 222.993698,148.814590 223.411713,149.394455 
	C225.883011,152.822525 225.009766,158.453812 221.396942,162.405212 
	C217.961838,158.569855 218.186874,154.396698 219.685913,149.661713 
z"/>
<path fill="#FBFBFB" opacity="1.000000" stroke="none" 
	d="
M160.009888,119.514206 
	C160.859177,118.855362 161.699417,118.599716 162.539673,118.344070 
	C163.083786,121.404579 163.627884,124.465088 164.378479,128.687042 
	C158.982925,126.235931 160.305038,122.766312 160.009888,119.514206 
z"/>
<path fill="#FBFBFB" opacity="1.000000" stroke="none" 
	d="
M248.347961,124.384689 
	C248.781219,120.787239 249.370651,117.544716 249.960083,114.302200 
	C250.612747,114.378304 251.265411,114.454414 251.918076,114.530525 
	C251.918076,117.534172 252.079071,120.554871 251.764664,123.525238 
	C251.710251,124.039307 249.642120,124.340233 248.347961,124.384689 
z"/>
<path fill="#965A5F" opacity="1.000000" stroke="none" 
	d="
M290.004517,225.996307 
	C290.128510,226.137299 290.247986,226.281998 290.367462,226.426697 
	C290.276764,226.380951 290.186066,226.335190 290.044189,226.149139 
	C289.992981,226.008820 290.000000,226.000000 290.004517,225.996307 
z"/>
<path fill="#FEFDF8" opacity="1.000000" stroke="none" 
	d="
M62.409767,60.684052 
	C61.409081,59.623360 59.886494,57.956921 60.239849,57.300842 
	C63.342613,51.539898 66.673172,45.890038 70.229996,40.397484 
	C70.778481,39.550488 72.821335,39.671185 74.173088,39.344357 
	C74.327477,40.726131 75.117355,42.518440 74.533005,43.422970 
	C70.775574,49.239227 66.717232,54.861084 62.409767,60.684052 
z"/>
<path fill="#FCFBF1" opacity="1.000000" stroke="none" 
	d="
M55.014702,72.016098 
	C56.239342,70.790848 57.431221,69.957703 58.623104,69.124550 
	C59.054657,70.231041 60.045261,71.501221 59.780949,72.403961 
	C59.423916,73.623383 58.102314,74.560387 57.194588,75.618568 
	C56.457039,74.548447 55.719490,73.478317 55.014702,72.016098 
z"/>
<path fill="#FCFBF1" opacity="1.000000" stroke="none" 
	d="
M114.860573,87.184052 
	C114.880524,87.580292 114.917297,87.911331 114.961845,88.241325 
	C115.238258,90.289139 115.516426,92.336716 115.794006,94.384377 
	C114.152313,93.046761 112.540115,91.670761 110.861877,90.380676 
	C108.434975,88.515060 105.960243,86.711662 103.505913,84.881729 
	C103.645889,84.462852 103.785866,84.043976 103.925835,83.625099 
	C107.294868,84.784248 110.663895,85.943398 114.391663,87.132095 
	C114.750404,87.161636 114.880989,87.118362 114.860573,87.184052 
z"/>
</svg>