<svg version="1.1" id="Layer_1" xmlns="http://www.w3.org/2000/svg" xmlns:xlink="http://www.w3.org/1999/xlink" x="0px" y="0px"
	 width="100%" viewBox="0 0 226 192" enable-background="new 0 0 226 192" xml:space="preserve">
<path fill="#FDFDFE" opacity="1.000000" stroke="none" 
	d="
M156.000000,193.000000 
	C104.000000,193.000000 52.500008,193.000000 1.000007,193.000000 
	C1.000005,129.000000 1.000005,65.000015 1.000002,1.000015 
	C76.333321,1.000010 151.666641,1.000010 226.999969,1.000005 
	C226.999985,64.999985 226.999985,128.999969 227.000000,192.999969 
	C203.500000,193.000000 180.000000,193.000000 156.000000,193.000000 
M173.097366,92.266068 
	C170.765335,85.347054 166.064789,80.420959 158.789764,80.269562 
	C142.218094,79.924698 125.628128,80.458099 108.146584,80.380745 
	C97.772743,80.518005 87.398895,80.655258 76.379875,80.589958 
	C75.133148,81.014542 73.886414,81.439117 71.962616,81.920097 
	C64.909714,85.546219 61.545372,91.235474 61.625278,99.251945 
	C61.768101,113.580872 61.614601,127.912605 61.616501,142.243164 
	C61.617115,146.895462 61.269615,151.606049 61.867596,156.187347 
	C62.954659,164.515671 69.984207,170.561600 78.401711,170.651443 
	C104.729530,170.932480 131.058624,171.142197 157.387711,171.233322 
	C166.713135,171.265610 173.467133,164.721542 173.994873,155.468628 
	C174.174347,152.322052 173.970169,149.153580 174.107239,145.071579 
	C174.021698,138.387405 173.936157,131.703247 174.004318,124.090523 
	C173.918503,115.389404 173.832687,106.688278 173.890442,97.498421 
	C173.825821,97.341400 173.761185,97.184387 173.821426,96.341393 
	C173.550095,95.227753 173.278763,94.114105 173.097366,92.266068 
M95.861900,71.454086 
	C95.931938,68.956436 95.641846,66.384232 96.140594,63.975342 
	C97.548485,57.175377 100.012642,50.700710 106.321312,46.979572 
	C121.266701,38.164120 137.653915,46.777142 139.003113,64.051880 
	C139.306885,67.941261 139.047760,71.874611 139.047760,75.527802 
	C145.571426,75.527802 151.149551,75.527802 158.222183,75.527802 
	C156.634964,66.340965 156.079300,57.610554 153.516739,49.515434 
	C149.075256,35.484699 138.918304,27.103315 124.173347,25.097651 
	C109.246208,23.067207 96.474152,27.279387 87.039673,39.518860 
	C79.741287,48.987148 78.548233,60.202763 78.097916,71.663750 
	C77.953514,75.338921 79.585899,76.496132 82.701797,76.491531 
	C86.029007,76.486626 89.370903,76.027954 92.678642,76.227478 
	C95.843689,76.418388 96.438698,75.043816 95.861900,71.454086 
z"/>
<path fill="#0D0F41" opacity="1.000000" stroke="none" 
	d="
M173.746872,97.987160 
	C173.832687,106.688278 173.918503,115.389404 173.663925,124.872414 
	C173.529449,132.434570 173.735367,139.214844 173.941284,145.995117 
	C173.970169,149.153580 174.174347,152.322052 173.994873,155.468628 
	C173.467133,164.721542 166.713135,171.265610 157.387711,171.233322 
	C131.058624,171.142197 104.729530,170.932480 78.401711,170.651443 
	C69.984207,170.561600 62.954659,164.515671 61.867596,156.187347 
	C61.269615,151.606049 61.617115,146.895462 61.616501,142.243164 
	C61.614601,127.912605 61.768101,113.580872 61.625278,99.251945 
	C61.545372,91.235474 64.909714,85.546219 72.657585,81.936020 
	C74.576721,81.565475 75.800888,81.178993 77.025055,80.792519 
	C87.398895,80.655258 97.772743,80.518005 108.591415,80.926544 
	C109.980148,82.320068 110.789703,83.481987 111.894165,83.954254 
	C114.747543,85.174347 117.736038,86.076324 120.661453,87.130653 
	C124.176369,88.397430 127.594780,90.295197 131.213852,90.816223 
	C135.567261,91.442970 140.170670,90.351151 143.534958,94.517914 
	C144.117233,95.239082 146.068588,95.058670 147.364349,94.966919 
	C155.915588,94.361465 164.460480,93.666351 173.007431,93.000458 
	C173.278763,94.114105 173.550095,95.227753 173.625290,96.779449 
	C173.274460,97.563049 173.380371,97.819595 173.746872,97.987160 
M126.485390,114.314720 
	C121.585281,108.371246 116.305176,107.437187 111.067932,111.587326 
	C106.361145,115.317108 105.258041,122.118591 109.692802,126.535400 
	C112.800812,129.630814 113.000809,132.692123 112.764664,136.370178 
	C112.658348,138.025986 112.171486,139.942886 112.806129,141.296448 
	C113.862671,143.549866 115.683281,145.445053 117.182144,147.491089 
	C119.073402,145.473892 121.615158,143.741180 122.659340,141.353546 
	C123.568237,139.275284 122.449585,136.402313 122.845940,133.981888 
	C123.238388,131.585327 123.942177,128.981049 125.329666,127.060478 
	C128.133667,123.179199 128.977859,119.358154 126.485390,114.314720 
z"/>
<path fill="#24244A" opacity="1.000000" stroke="none" 
	d="
M95.867081,71.930969 
	C96.438698,75.043816 95.843689,76.418388 92.678642,76.227478 
	C89.370903,76.027954 86.029007,76.486626 82.701797,76.491531 
	C79.585899,76.496132 77.953514,75.338921 78.097916,71.663750 
	C78.548233,60.202763 79.741287,48.987148 87.039673,39.518860 
	C96.474152,27.279387 109.246208,23.067207 124.173347,25.097651 
	C138.918304,27.103315 149.075256,35.484699 153.516739,49.515434 
	C156.079300,57.610554 156.634964,66.340965 158.222183,75.527802 
	C151.149551,75.527802 145.571426,75.527802 139.047760,75.527802 
	C139.047760,71.874611 139.306885,67.941261 139.003113,64.051880 
	C137.653915,46.777142 121.266701,38.164120 106.321312,46.979572 
	C100.012642,50.700710 97.548485,57.175377 96.140594,63.975342 
	C95.641846,66.384232 95.931938,68.956436 95.867081,71.930969 
z"/>
<path fill="#181946" opacity="1.000000" stroke="none" 
	d="
M173.052399,92.633263 
	C164.460480,93.666351 155.915588,94.361465 147.364349,94.966919 
	C146.068588,95.058670 144.117233,95.239082 143.534958,94.517914 
	C140.170670,90.351151 135.567261,91.442970 131.213852,90.816223 
	C127.594780,90.295197 124.176369,88.397430 120.661453,87.130653 
	C117.736038,86.076324 114.747543,85.174347 111.894165,83.954254 
	C110.789703,83.481987 109.980148,82.320068 109.040924,81.053482 
	C125.628128,80.458099 142.218094,79.924698 158.789764,80.269562 
	C166.064789,80.420959 170.765335,85.347054 173.052399,92.633263 
z"/>
<path fill="#181946" opacity="1.000000" stroke="none" 
	d="
M174.024261,145.533356 
	C173.735367,139.214844 173.529449,132.434570 173.587082,125.336685 
	C173.936157,131.703247 174.021698,138.387405 174.024261,145.533356 
z"/>
<path fill="#181946" opacity="1.000000" stroke="none" 
	d="
M76.702469,80.691238 
	C75.800888,81.178993 74.576721,81.565475 72.996124,81.907822 
	C73.886414,81.439117 75.133148,81.014542 76.702469,80.691238 
z"/>
<path fill="#181946" opacity="1.000000" stroke="none" 
	d="
M173.818665,97.742790 
	C173.380371,97.819595 173.274460,97.563049 173.562866,97.122444 
	C173.761185,97.184387 173.825821,97.341400 173.818665,97.742790 
z"/>
<path fill="#F4F5F7" opacity="1.000000" stroke="none" 
	d="
M126.671829,114.657722 
	C128.977859,119.358154 128.133667,123.179199 125.329666,127.060478 
	C123.942177,128.981049 123.238388,131.585327 122.845940,133.981888 
	C122.449585,136.402313 123.568237,139.275284 122.659340,141.353546 
	C121.615158,143.741180 119.073402,145.473892 117.182144,147.491089 
	C115.683281,145.445053 113.862671,143.549866 112.806129,141.296448 
	C112.171486,139.942886 112.658348,138.025986 112.764664,136.370178 
	C113.000809,132.692123 112.800812,129.630814 109.692802,126.535400 
	C105.258041,122.118591 106.361145,115.317108 111.067932,111.587326 
	C116.305176,107.437187 121.585281,108.371246 126.671829,114.657722 
z"/>
</svg>