<svg version="1.1" id="Layer_1" xmlns="http://www.w3.org/2000/svg" xmlns:xlink="http://www.w3.org/1999/xlink" x="0px" y="0px"
	 width="100%" viewBox="0 0 472 347" enable-background="new 0 0 472 347" xml:space="preserve">
<path fill="#2491AC" opacity="1.000000" stroke="none" 
	d="
M473.000000,172.000000 
	C473.000000,230.635941 473.000000,289.271881 473.000000,347.953918 
	C315.779816,347.953918 158.559616,347.953918 1.000000,347.953918 
	C1.000000,285.646179 1.000000,223.291748 1.291505,160.634918 
	C17.175686,171.456467 32.768364,182.580429 48.324036,193.677994 
	C51.044167,190.559189 53.201759,188.085373 55.701118,185.676315 
	C65.668076,192.759094 75.293274,199.777130 85.045502,206.887787 
	C87.902328,203.208420 90.443665,199.935379 93.129944,196.565796 
	C93.450233,196.301239 93.548454,196.096207 93.620659,195.759705 
	C93.671761,195.665237 93.834373,195.524887 93.975113,195.432358 
	C94.277077,195.162796 94.350243,194.954651 94.398537,194.591171 
	C94.461716,194.466949 94.677216,194.290161 94.800049,194.247772 
	C95.072655,194.085022 95.128220,193.930588 95.184601,193.564072 
	C95.279594,193.386093 95.571762,193.107803 95.948486,193.259201 
	C98.212936,194.686691 100.126877,195.925949 101.982697,197.246841 
	C105.434349,199.703598 108.852127,202.207932 112.187180,204.815125 
	C112.090355,204.937790 112.299683,204.705017 112.403282,205.025345 
	C118.769203,211.210037 125.337341,216.920364 127.758392,225.581345 
	C128.685730,228.898804 128.695618,232.475113 129.096375,235.936630 
	C129.443008,238.930664 129.751114,241.929153 130.162872,245.069275 
	C130.249512,245.212891 130.341537,245.535461 130.387299,245.825958 
	C130.646362,246.442947 130.859695,246.769424 131.138245,247.166107 
	C131.203445,247.236328 131.237869,247.424835 131.306305,247.743057 
	C131.899582,248.728073 132.424393,249.394867 133.152069,250.250336 
	C133.826065,250.724503 134.297195,251.009979 135.003998,251.445404 
	C135.743179,251.831818 136.246689,252.068298 137.122330,252.440277 
	C143.547760,252.008713 147.265518,253.960175 146.910309,260.846985 
	C146.854782,261.923462 148.132416,263.068695 148.913757,264.427917 
	C149.347824,265.122192 149.661697,265.570648 150.097595,266.321411 
	C151.446823,267.784943 152.674026,268.946167 154.055542,270.284729 
	C154.425308,270.691895 154.663223,270.895508 155.174194,271.331482 
	C158.395523,272.382721 161.467468,272.921692 164.303024,274.053101 
	C166.350922,274.870239 168.377731,276.194580 169.899216,277.785095 
	C173.401947,281.446777 175.936172,286.489532 180.064011,288.989685 
	C185.926636,292.540558 192.490219,294.758881 195.164795,302.166321 
	C195.515472,302.592926 195.742722,302.810516 196.145020,303.186035 
	C196.516678,303.596588 196.755508,303.802612 197.209686,304.175934 
	C197.853058,304.673126 198.302124,304.978729 199.001877,305.489868 
	C200.266739,305.986023 201.280884,306.276581 202.282013,306.663147 
	C202.268967,306.759186 202.255249,306.565918 202.432556,306.834412 
	C204.124603,307.511414 205.639313,307.919891 207.485229,308.345215 
	C208.474838,308.439117 209.133209,308.516235 209.865234,308.730042 
	C210.364594,308.779205 210.790314,308.691650 211.499985,308.533264 
	C212.171066,308.415894 212.558197,308.369354 213.245193,308.423401 
	C216.139648,307.117004 218.734253,305.709991 221.509277,304.156555 
	C221.923096,303.804352 222.134720,303.578156 222.500580,303.171082 
	C222.900055,302.783417 223.098495,302.536133 223.494934,302.019226 
	C225.277344,299.141205 227.276886,298.903961 229.931793,300.266571 
	C231.921631,301.287872 234.159180,301.826508 236.317947,302.573273 
	C236.349442,302.566528 236.362076,302.629700 236.509216,302.940918 
	C247.740952,310.830261 262.546173,309.119446 270.136780,299.294189 
	C270.201965,299.197571 270.394501,299.066132 270.748962,298.997040 
	C272.535278,298.505554 273.947357,297.991913 275.402344,297.675812 
	C283.899414,295.829651 291.725128,293.186768 295.866333,284.369080 
	C296.478027,283.066620 299.713593,282.562775 301.774902,282.455841 
	C308.034698,282.131256 314.436859,282.919647 320.554535,281.900146 
	C328.143402,280.635437 330.933380,275.309723 329.308685,267.867371 
	C329.011139,266.504395 328.854523,265.110657 328.503418,262.925507 
	C331.029358,263.323456 332.754822,263.764008 334.496033,263.838715 
	C340.269836,264.086334 346.088928,264.683594 351.813690,264.212219 
	C356.177124,263.852997 359.525330,261.265900 359.353485,255.718384 
	C359.514038,254.944427 359.628326,254.506775 359.935699,253.831543 
	C360.006592,251.765182 359.884369,249.936417 359.690979,247.814453 
	C359.588226,247.120590 359.556732,246.719940 359.633240,245.915619 
	C359.394836,243.615738 359.507874,241.460205 358.612518,239.873810 
	C356.290466,235.759476 355.921265,232.097519 359.649841,228.628448 
	C359.657745,228.591721 359.732666,228.597321 360.048889,228.579376 
	C361.137726,227.914658 361.910339,227.267853 362.841614,226.802155 
	C363.000305,226.983261 362.684143,226.617310 363.039093,226.605499 
	C365.101654,225.258698 366.809265,223.923706 368.537109,222.540436 
	C368.557343,222.492157 368.660950,222.477097 368.884735,222.433258 
	C369.402863,222.264969 369.616455,222.057388 369.754486,221.743973 
	C369.759705,221.721268 369.805756,221.728333 370.117493,221.706299 
	C371.184937,221.060577 371.940674,220.436890 372.879913,219.612579 
	C373.379700,219.237503 373.696014,219.063065 374.285461,218.841705 
	C374.963165,218.431412 375.367767,218.068008 375.871887,217.848969 
	C375.971375,217.993347 375.763550,217.709320 376.077698,217.690369 
	C377.170380,217.049347 377.948914,216.427292 378.742188,215.766113 
	C378.756897,215.726990 378.839691,215.715408 379.145508,215.670624 
	C380.187408,214.959671 380.923492,214.293503 381.699402,213.658752 
	C381.739258,213.690155 381.694885,213.598923 382.017273,213.587723 
	C383.120605,212.933228 383.901520,212.289932 384.790222,211.748840 
	C384.898010,211.851028 384.700714,211.628708 384.997803,211.586594 
	C385.856323,211.024078 386.417786,210.503677 387.096619,209.869171 
	C387.214020,209.755066 387.503143,209.601471 387.911865,209.680420 
	C388.873566,209.788116 389.426575,209.816864 390.230225,210.081757 
	C391.728546,211.967728 392.976135,213.617523 394.233124,215.279739 
	C404.625092,208.202072 414.482910,201.488190 424.611572,194.966873 
	C429.647675,200.593201 429.659424,200.610703 435.921997,196.405640 
	C439.378296,194.084869 442.742584,191.625290 446.226593,189.347916 
	C455.127655,183.529480 464.072601,177.778152 473.000000,172.000000 
z"/>
<path fill="#2491AC" opacity="1.000000" stroke="none" 
	d="
M28.000000,1.000000 
	C166.023331,1.000000 304.046661,1.000000 442.657837,1.318071 
	C444.879974,2.951827 446.675232,4.115207 448.103973,5.625366 
	C449.577209,7.182555 450.693634,9.077347 451.805298,10.914532 
	C451.644379,11.004632 451.290466,11.108191 450.988525,11.184841 
	C450.133240,11.534195 449.579865,11.806900 449.088806,12.064781 
	C449.151123,12.049957 449.180817,12.174547 448.903809,12.275692 
	C448.084381,12.915004 447.541992,13.453170 447.000793,13.997320 
	C447.001984,14.003304 446.989990,13.998612 446.719574,14.116093 
	C445.984650,14.595832 445.520142,14.958091 444.832581,15.555479 
	C415.244812,35.796295 385.918335,55.858376 356.493256,75.774826 
	C347.118317,82.120285 346.998840,81.943039 352.147125,91.415352 
	C352.224854,91.558350 352.248169,91.730942 352.076569,92.180832 
	C342.186584,99.351143 332.516907,106.230354 323.079437,112.944397 
	C323.964508,115.290596 324.598663,116.971657 324.892242,118.784256 
	C320.287170,122.102837 315.861328,125.099625 311.808777,128.536575 
	C308.511414,131.333084 305.212158,131.792099 301.216492,130.521561 
	C291.546631,127.446770 281.790924,124.642487 272.114471,121.587746 
	C262.639252,118.596550 253.334625,114.262527 243.154419,118.933792 
	C242.445572,119.259041 241.511154,119.099174 240.680801,119.152122 
	C231.048218,119.766457 221.420410,120.734215 211.781067,120.867752 
	C205.177338,120.959221 199.866058,123.335297 194.987305,127.359955 
	C193.324036,128.732056 191.646835,130.087296 189.525574,131.487915 
	C174.870056,135.003891 162.096619,132.578033 151.193604,122.370514 
	C150.718643,121.925842 150.079712,121.656303 149.546692,120.989700 
	C152.691742,116.034546 155.807281,111.394882 159.043900,106.574875 
	C149.247955,99.139381 139.630096,91.839073 130.047577,84.219574 
	C131.333862,81.975021 132.584824,80.049652 133.954483,77.941582 
	C132.609726,76.853844 131.511414,75.869164 130.319366,75.015335 
	C100.662567,53.772907 70.980347,32.565914 41.347286,11.290451 
	C36.786449,8.015938 32.443642,4.437747 28.000000,1.000000 
z"/>
<path fill="#000101" opacity="1.000000" stroke="none" 
	d="
M27.531338,1.000000 
	C32.443642,4.437747 36.786449,8.015938 41.347286,11.290451 
	C70.980347,32.565914 100.662567,53.772907 130.319366,75.015335 
	C131.511414,75.869164 132.609726,76.853844 133.954483,77.941582 
	C132.584824,80.049652 131.333862,81.975021 129.710907,84.365837 
	C111.234749,109.263107 93.090736,133.665543 75.047165,158.142029 
	C68.363159,167.209045 61.915039,176.449951 55.359344,185.611557 
	C53.201759,188.085373 51.044167,190.559189 48.324036,193.677994 
	C32.768364,182.580429 17.175686,171.456467 1.291505,160.166260 
	C1.000000,106.999969 1.000000,53.999939 1.000000,1.000000 
	C9.770213,1.000000 18.416445,1.000000 27.531338,1.000000 
z"/>
<path fill="#1C3E6B" opacity="1.000000" stroke="none" 
	d="
M352.296906,91.889725 
	C352.248169,91.730942 352.224854,91.558350 352.147125,91.415352 
	C346.998840,81.943039 347.118317,82.120285 356.493256,75.774826 
	C385.918335,55.858376 415.244812,35.796295 445.108337,15.442287 
	C446.068085,14.728848 446.529053,14.363728 446.989990,13.998610 
	C446.989990,13.998612 447.001984,14.003304 447.279236,13.902240 
	C448.097931,13.258965 448.639374,12.716755 449.180817,12.174546 
	C449.180817,12.174547 449.151123,12.049957 449.405304,12.046440 
	C450.203156,11.731346 450.746796,11.419770 451.290466,11.108192 
	C451.290466,11.108191 451.644379,11.004632 452.111206,10.783430 
	C457.052002,7.374816 461.526001,4.187404 466.000000,0.999996 
	C468.327576,1.000000 470.655182,1.000000 473.000000,1.000000 
	C473.000000,57.687561 473.000000,114.375122 473.000000,171.531342 
	C464.072601,177.778152 455.127655,183.529480 446.226593,189.347916 
	C442.742584,191.625290 439.378296,194.084869 435.921997,196.405640 
	C429.659424,200.610703 429.647675,200.593201 424.545898,194.628845 
	C423.829620,193.368958 423.526581,192.585938 423.059021,191.918121 
	C405.527557,166.877563 388.017700,141.821747 370.415771,116.830765 
	C364.499176,108.430435 358.343384,100.198578 352.296906,91.889725 
z"/>
<path fill="#2588A3" opacity="1.000000" stroke="none" 
	d="
M465.531372,0.999996 
	C461.526001,4.187404 457.052002,7.374816 452.272095,10.693329 
	C450.693634,9.077347 449.577209,7.182555 448.103973,5.625366 
	C446.675232,4.115207 444.879974,2.951827 443.122864,1.318071 
	C450.354248,1.000000 457.708496,1.000000 465.531372,0.999996 
z"/>
<path fill="#ECB38F" opacity="1.000000" stroke="none" 
	d="
M149.517166,121.305183 
	C150.079712,121.656303 150.718643,121.925842 151.193604,122.370514 
	C162.096619,132.578033 174.870056,135.003891 189.501312,131.923660 
	C188.976532,135.909576 188.025574,139.497406 186.971161,143.430481 
	C181.856216,152.267990 176.980545,160.844467 171.786606,169.223663 
	C168.179749,175.042404 168.096115,176.171097 173.066040,181.444214 
	C177.410492,183.463684 181.654968,186.798645 185.753769,186.628311 
	C199.306534,186.065033 211.919418,180.773453 218.932907,169.213730 
	C224.842133,159.474075 231.096619,157.103561 240.988159,160.482773 
	C246.273270,162.288300 252.098206,163.095688 256.825439,165.830063 
	C266.443604,171.393478 275.531250,177.886429 284.746918,184.130096 
	C294.803741,190.943649 304.808563,197.837006 314.729767,204.846008 
	C318.246368,207.330338 321.258545,210.545242 324.834259,212.926163 
	C334.510986,219.369537 344.366516,225.544388 354.115845,232.023468 
	C354.002869,232.481659 353.906219,232.734879 353.790710,233.120407 
	C353.817444,233.539307 353.886353,233.808868 354.257812,234.306412 
	C356.187164,238.469254 357.856201,242.394272 359.525238,246.319290 
	C359.556732,246.719940 359.588226,247.120590 359.563538,248.159714 
	C359.585724,250.555176 359.664154,252.312149 359.742584,254.069138 
	C359.628326,254.506775 359.514038,254.944427 359.133240,255.986511 
	C356.743469,261.694550 352.672607,263.350525 347.419403,263.661804 
	C337.294861,264.261841 328.630676,260.844818 320.578156,254.598618 
	C312.724640,250.078812 305.045868,245.811371 297.181183,241.418274 
	C296.614227,241.362122 296.233185,241.431610 295.852173,241.501099 
	C296.180389,241.726974 296.508606,241.952835 297.052551,242.440674 
	C304.963470,247.134735 312.658630,251.566818 320.542969,256.315613 
	C322.651123,259.344116 324.852722,261.901459 326.435211,264.797150 
	C330.903625,272.973663 328.084778,279.864594 318.887177,280.880280 
	C311.806488,281.662201 304.475189,280.174316 297.000000,279.479675 
	C290.058167,275.534271 283.371674,271.804871 276.685150,268.075470 
	C276.425751,268.564575 276.166321,269.053680 275.906921,269.542786 
	C282.408813,273.052002 288.910675,276.561249 295.393616,280.448639 
	C291.811127,291.356628 284.604919,295.969391 271.100098,295.955933 
	C264.877777,292.506592 258.970703,289.264740 253.063614,286.022919 
	C252.805237,286.511383 252.546875,286.999847 252.288498,287.488312 
	C258.330444,290.697052 264.372406,293.905823 270.444580,297.440063 
	C270.447998,298.199066 270.421265,298.632599 270.394531,299.066132 
	C270.394501,299.066132 270.201965,299.197571 269.826050,299.397736 
	C259.827271,307.560669 249.419632,308.500854 238.284927,303.111420 
	C237.702667,302.829559 237.005661,302.784821 236.362076,302.629700 
	C236.362076,302.629700 236.349442,302.566528 236.121475,302.313263 
	C232.310089,300.097565 228.726669,298.135101 225.131134,295.816223 
	C225.109512,294.983856 225.100037,294.507935 225.311005,293.724915 
	C228.895554,285.058472 227.503662,280.214081 219.942261,273.906036 
	C219.594711,273.512024 219.274582,273.272491 218.973206,273.014679 
	C218.991943,272.996399 219.003204,273.047546 218.711746,272.888611 
	C216.961563,272.803192 215.502853,272.876709 213.704071,272.956390 
	C212.910538,272.960480 212.457047,272.958405 211.913391,272.578979 
	C211.132523,269.472168 210.441833,266.742676 209.579651,263.723206 
	C205.470459,254.502350 198.576187,250.147064 191.238693,252.641556 
	C188.233307,253.663284 185.732285,256.168549 182.744095,258.122955 
	C181.989227,258.529877 181.492096,258.812836 180.745697,259.086304 
	C180.496414,259.076782 179.997345,259.071930 179.840775,258.702332 
	C178.727936,254.235611 177.771667,250.138519 176.650925,245.757294 
	C172.742538,240.049179 167.645691,237.437668 160.780640,237.894226 
	C158.973907,236.514664 157.395279,235.268570 155.671326,233.798218 
	C155.345703,233.072769 155.165421,232.571579 154.942993,231.746078 
	C154.589310,230.620926 154.277756,229.820068 153.972183,229.010376 
	C153.978165,229.001526 153.981506,229.012405 153.794037,228.833099 
	C153.332672,228.439682 153.058762,228.225586 152.510971,227.814575 
	C144.707214,221.673416 136.620483,223.009003 132.725616,230.802261 
	C132.581085,230.788269 132.291840,230.762177 132.136292,230.443527 
	C130.384201,227.022980 128.515808,224.027954 127.246078,220.797592 
	C124.348099,213.424683 118.831696,208.627197 112.299683,204.705017 
	C112.299683,204.705017 112.090355,204.937790 112.052017,204.516083 
	C107.104485,199.816284 102.195297,195.538177 97.398026,190.941589 
	C108.227173,176.026428 118.861137,161.367599 129.693008,146.856506 
	C136.140244,138.219360 142.898651,129.814468 149.517166,121.305183 
M245.958237,283.613098 
	C246.179108,283.546936 246.399979,283.480804 246.620834,283.414642 
	C246.468689,283.225739 246.316559,283.036865 245.878784,282.530060 
	C245.580627,282.493011 245.282486,282.455933 244.984329,282.418884 
	C245.205948,282.738342 245.427582,283.057770 245.958237,283.613098 
M250.519394,285.299133 
	C250.519394,285.299133 250.371841,285.581207 250.371841,285.581207 
	C250.371841,285.581207 250.695572,285.528412 250.519394,285.299133 
M248.322113,284.480621 
	C248.322113,284.480621 248.582993,284.606018 248.582993,284.606018 
	C248.582993,284.606018 248.528717,284.331726 248.322113,284.480621 
z"/>
<path fill="#F1C8B1" opacity="1.000000" stroke="none" 
	d="
M354.151154,231.825729 
	C344.366516,225.544388 334.510986,219.369537 324.834259,212.926163 
	C321.258545,210.545242 318.246368,207.330338 314.729767,204.846008 
	C304.808563,197.837006 294.803741,190.943649 284.746918,184.130096 
	C275.531250,177.886429 266.443604,171.393478 256.825439,165.830063 
	C252.098206,163.095688 246.273270,162.288300 240.988159,160.482773 
	C231.096619,157.103561 224.842133,159.474075 218.932907,169.213730 
	C211.919418,180.773453 199.306534,186.065033 185.753769,186.628311 
	C181.654968,186.798645 177.410492,183.463684 173.457932,181.396606 
	C183.738205,179.599991 194.801132,164.672241 197.564163,155.765747 
	C197.856216,154.824371 197.556778,153.225876 196.898285,152.543732 
	C193.743301,149.275467 190.370209,146.217758 187.074615,143.085236 
	C188.025574,139.497406 188.976532,135.909576 189.951752,131.885986 
	C191.646835,130.087296 193.324036,128.732056 194.987305,127.359955 
	C199.866058,123.335297 205.177338,120.959221 211.781067,120.867752 
	C221.420410,120.734215 231.048218,119.766457 240.680801,119.152122 
	C241.511154,119.099174 242.445572,119.259041 243.154419,118.933792 
	C253.334625,114.262527 262.639252,118.596550 272.114471,121.587746 
	C281.790924,124.642487 291.546631,127.446770 301.216492,130.521561 
	C305.212158,131.792099 308.511414,131.333084 311.808777,128.536575 
	C315.861328,125.099625 320.287170,122.102837 325.154541,118.991287 
	C326.896484,120.266914 328.200012,121.350426 329.147064,122.686646 
	C334.247528,129.883163 339.227356,137.165085 344.308563,144.375397 
	C355.714264,160.560379 367.247864,176.656296 378.526215,192.929291 
	C381.991730,197.929504 384.798218,203.386505 387.788635,208.869034 
	C387.614960,209.269638 387.559052,209.435562 387.503143,209.601471 
	C387.503143,209.601471 387.214020,209.755066 386.811218,209.926392 
	C385.839203,210.608047 385.269958,211.118378 384.700714,211.628708 
	C384.700714,211.628708 384.898010,211.851028 384.489441,211.810120 
	C383.285553,212.379120 382.490204,212.989014 381.694885,213.598907 
	C381.694885,213.598923 381.739258,213.690155 381.400879,213.722748 
	C380.321564,214.408707 379.580627,215.062057 378.839691,215.715408 
	C378.839691,215.715408 378.756897,215.726990 378.443115,215.807404 
	C377.340729,216.494980 376.552155,217.102158 375.763550,217.709320 
	C375.763550,217.709320 375.971375,217.993347 375.594360,217.893906 
	C374.815643,218.159180 374.413971,218.523911 374.012299,218.888626 
	C373.696014,219.063065 373.379700,219.237503 372.588318,219.653412 
	C371.344055,220.506042 370.574921,221.117188 369.805756,221.728333 
	C369.805756,221.728333 369.759705,221.721268 369.527893,221.779678 
	C368.993378,221.960663 368.781677,222.173660 368.660950,222.477097 
	C368.660950,222.477097 368.557343,222.492157 368.223633,222.633148 
	C366.154694,224.055206 364.419403,225.336258 362.684143,226.617310 
	C362.684143,226.617310 363.000305,226.983261 362.544739,226.874969 
	C361.303711,227.376907 360.518188,227.987122 359.732666,228.597321 
	C359.732666,228.597321 359.657745,228.591721 359.321472,228.704559 
	C357.373871,229.820160 355.762512,230.822937 354.151154,231.825729 
z"/>
<path fill="#DCDFE1" opacity="1.000000" stroke="none" 
	d="
M149.546692,120.989700 
	C142.898651,129.814468 136.140244,138.219360 129.693008,146.856506 
	C118.861137,161.367599 108.227173,176.026428 97.170441,191.079895 
	C96.411201,192.060379 95.991486,192.584091 95.571762,193.107803 
	C95.571762,193.107803 95.279594,193.386093 95.069969,193.609985 
	C94.717033,193.952805 94.655991,194.104889 94.677216,194.290161 
	C94.677216,194.290161 94.461716,194.466949 94.260612,194.685684 
	C93.895782,195.079025 93.820740,195.285843 93.834373,195.524887 
	C93.834373,195.524887 93.671761,195.665237 93.459557,195.836578 
	C93.050064,196.181915 92.962616,196.400055 92.985001,196.662338 
	C90.443665,199.935379 87.902328,203.208420 85.045502,206.887787 
	C75.293274,199.777130 65.668076,192.759094 55.701111,185.676315 
	C61.915039,176.449951 68.363159,167.209045 75.047165,158.142029 
	C93.090736,133.665543 111.234749,109.263107 129.675568,84.685028 
	C139.630096,91.839073 149.247955,99.139381 159.043900,106.574875 
	C155.807281,111.394882 152.691742,116.034546 149.546692,120.989700 
z"/>
<path fill="#DCDFE2" opacity="1.000000" stroke="none" 
	d="
M387.906464,208.634338 
	C384.798218,203.386505 381.991730,197.929504 378.526215,192.929291 
	C367.247864,176.656296 355.714264,160.560379 344.308563,144.375397 
	C339.227356,137.165085 334.247528,129.883163 329.147064,122.686646 
	C328.200012,121.350426 326.896484,120.266914 325.495117,118.859749 
	C324.598663,116.971657 323.964508,115.290596 323.079437,112.944397 
	C332.516907,106.230354 342.186584,99.351143 352.076569,92.180824 
	C358.343384,100.198578 364.499176,108.430435 370.415771,116.830765 
	C388.017700,141.821747 405.527557,166.877563 423.059021,191.918121 
	C423.526581,192.585938 423.829620,193.368958 424.275055,194.436295 
	C414.482910,201.488190 404.625092,208.202072 394.233124,215.279739 
	C392.976135,213.617523 391.728546,211.967728 390.088623,209.795807 
	C389.099670,209.060577 388.503082,208.847458 387.906464,208.634338 
z"/>
<path fill="#699192" opacity="1.000000" stroke="none" 
	d="
M297.255310,279.695740 
	C304.475189,280.174316 311.806488,281.662201 318.887177,280.880280 
	C328.084778,279.864594 330.903625,272.973663 326.435211,264.797150 
	C324.852722,261.901459 322.651123,259.344116 320.672638,256.039734 
	C320.659698,255.248398 320.706329,255.049698 320.752930,254.850998 
	C328.630676,260.844818 337.294861,264.261841 347.419403,263.661804 
	C352.672607,263.350525 356.743469,261.694550 359.086975,256.322845 
	C359.525330,261.265900 356.177124,263.852997 351.813690,264.212219 
	C346.088928,264.683594 340.269836,264.086334 334.496033,263.838715 
	C332.754822,263.764008 331.029358,263.323456 328.503418,262.925507 
	C328.854523,265.110657 329.011139,266.504395 329.308685,267.867371 
	C330.933380,275.309723 328.143402,280.635437 320.554535,281.900146 
	C314.436859,282.919647 308.034698,282.131256 301.774902,282.455841 
	C299.713593,282.562775 296.478027,283.066620 295.866333,284.369080 
	C291.725128,293.186768 283.899414,295.829651 275.402344,297.675812 
	C273.947357,297.991913 272.535278,298.505554 270.748962,298.997040 
	C270.421265,298.632599 270.447998,298.199066 270.627991,297.302856 
	C271.023865,296.643921 271.235260,296.418335 271.415314,296.163422 
	C284.604919,295.969391 291.811127,291.356628 295.704468,280.411987 
	C296.441315,279.896667 296.848297,279.796204 297.255310,279.695740 
z"/>
<path fill="#699192" opacity="1.000000" stroke="none" 
	d="
M195.020157,301.979462 
	C192.490219,294.758881 185.926636,292.540558 180.064011,288.989685 
	C175.936172,286.489532 173.401947,281.446777 169.899216,277.785095 
	C168.377731,276.194580 166.350922,274.870239 164.303024,274.053101 
	C161.467468,272.921692 158.395523,272.382721 155.289215,271.203491 
	C155.153625,270.816925 155.382294,270.559784 155.731522,270.713379 
	C159.274567,271.542358 162.475143,272.187775 165.659409,272.905518 
	C167.329193,273.281891 168.970383,273.785065 170.664368,274.585724 
	C171.516052,276.635773 172.327835,278.331116 173.192413,280.250488 
	C173.389984,280.774414 173.625565,280.957336 173.960510,281.025604 
	C173.969086,281.027893 173.969833,281.045807 174.044601,281.293884 
	C174.403946,281.714020 174.688522,281.886108 174.982422,282.030884 
	C174.991730,282.003601 174.939590,282.028259 175.006668,282.290833 
	C175.373703,282.723877 175.673660,282.894409 175.901520,283.073486 
	C175.829437,283.082092 175.846497,283.226288 175.968048,283.537292 
	C181.067947,286.551361 186.046280,289.254395 191.289383,292.093292 
	C191.943390,292.295898 192.332611,292.362640 192.854233,292.684845 
	C193.140244,293.290955 193.293869,293.641541 193.373627,294.353546 
	C194.070541,296.967255 194.841309,299.219543 195.464142,301.598816 
	C195.316193,301.725739 195.020157,301.979462 195.020157,301.979462 
z"/>
<path fill="#699192" opacity="1.000000" stroke="none" 
	d="
M112.403282,205.025345 
	C118.831696,208.627197 124.348099,213.424683 127.246078,220.797592 
	C128.515808,224.027954 130.384201,227.022980 131.962173,230.824677 
	C131.321136,235.991547 130.698685,240.458618 130.076233,244.925674 
	C129.751114,241.929153 129.443008,238.930664 129.096375,235.936630 
	C128.695618,232.475113 128.685730,228.898804 127.758392,225.581345 
	C125.337341,216.920364 118.769203,211.210037 112.403282,205.025345 
z"/>
<path fill="#699192" opacity="1.000000" stroke="none" 
	d="
M236.509216,302.940918 
	C237.005661,302.784821 237.702667,302.829559 238.284927,303.111420 
	C249.419632,308.500854 259.827271,307.560669 269.760864,299.494385 
	C262.546173,309.119446 247.740952,310.830261 236.509216,302.940918 
z"/>
<path fill="#699192" opacity="1.000000" stroke="none" 
	d="
M95.948494,193.259201 
	C95.991486,192.584091 96.411201,192.060379 97.058517,191.398376 
	C102.195297,195.538177 107.104485,199.816284 112.148849,204.393417 
	C108.852127,202.207932 105.434349,199.703598 101.982697,197.246841 
	C100.126877,195.925949 98.212936,194.686691 95.948494,193.259201 
z"/>
<path fill="#699192" opacity="1.000000" stroke="none" 
	d="
M354.115845,232.023468 
	C355.762512,230.822937 357.373871,229.820160 359.313599,228.741272 
	C355.921265,232.097519 356.290466,235.759476 358.612518,239.873810 
	C359.507874,241.460205 359.394836,243.615738 359.633240,245.915619 
	C357.856201,242.394272 356.187164,238.469254 354.232056,234.028885 
	C353.894226,233.335999 353.842438,233.158447 353.790619,232.980881 
	C353.906219,232.734879 354.002869,232.481659 354.115845,232.023468 
z"/>
<path fill="#699192" opacity="1.000000" stroke="none" 
	d="
M148.793579,264.182129 
	C148.132416,263.068695 146.854782,261.923462 146.910309,260.846985 
	C147.265518,253.960175 143.547760,252.008713 137.222137,252.309494 
	C136.949814,252.043228 137.149658,251.781830 137.562668,251.802094 
	C141.333603,251.175415 144.691528,250.528503 148.114746,250.343628 
	C148.547318,255.132416 148.914597,259.459137 149.159729,263.884857 
	C149.037598,263.983856 148.793579,264.182129 148.793579,264.182129 
z"/>
<path fill="#699192" opacity="1.000000" stroke="none" 
	d="
M225.143250,296.172638 
	C228.726669,298.135101 232.310089,300.097565 236.089981,302.320007 
	C234.159180,301.826508 231.921631,301.287872 229.931793,300.266571 
	C227.276886,298.903961 225.277344,299.141205 223.362518,301.896301 
	C223.007050,302.022888 222.742233,301.777039 222.713928,301.621582 
	C222.685608,301.466125 222.587479,301.165802 222.759872,300.850983 
	C223.094589,300.087372 223.256897,299.638580 223.606522,298.967804 
	C224.243637,297.888092 224.693436,297.030365 225.143250,296.172638 
z"/>
<path fill="#EBC8B3" opacity="1.000000" stroke="none" 
	d="
M130.162872,245.069275 
	C130.698685,240.458618 131.321136,235.991547 132.117706,231.143341 
	C132.291840,230.762177 132.581085,230.788269 132.705673,231.237823 
	C132.813766,237.177078 132.797272,242.666763 132.520935,248.040009 
	C131.920029,247.757339 131.578949,247.591080 131.237869,247.424835 
	C131.237869,247.424835 131.203445,247.236328 131.112488,246.865234 
	C130.794861,246.174576 130.568192,245.855026 130.341537,245.535461 
	C130.341537,245.535461 130.249512,245.212891 130.162872,245.069275 
z"/>
<path fill="#EDC8B4" opacity="1.000000" stroke="none" 
	d="
M209.791595,308.593323 
	C209.133209,308.516235 208.474838,308.439117 207.162048,308.151367 
	C205.090195,307.482452 203.672729,307.024170 202.255249,306.565918 
	C202.255249,306.565918 202.268967,306.759186 202.145370,306.445984 
	C201.645584,305.794434 201.269379,305.456146 200.949799,305.053467 
	C201.006409,304.989136 201.119598,304.860413 201.532349,304.914459 
	C206.804260,305.392700 211.663437,305.816925 216.254791,306.459473 
	C214.973099,307.226135 213.959213,307.774445 212.945343,308.322754 
	C212.558197,308.369354 212.171066,308.415894 211.144150,308.460999 
	C210.266769,308.504120 210.029175,308.548737 209.791595,308.593323 
z"/>
<path fill="#699192" opacity="1.000000" stroke="none" 
	d="
M213.245178,308.423401 
	C213.959213,307.774445 214.973099,307.226135 216.397232,306.400665 
	C216.807480,306.123535 217.013306,305.892700 217.251801,305.831726 
	C217.821625,305.627289 218.016602,305.377411 218.053528,305.059326 
	C218.031815,305.097504 218.108215,305.140839 218.407913,305.070190 
	C219.440231,304.631927 220.172852,304.264282 221.011292,303.998260 
	C221.117096,304.099854 221.328857,304.302948 221.328857,304.302948 
	C218.734253,305.709991 216.139648,307.117004 213.245178,308.423401 
z"/>
<path fill="#699192" opacity="1.000000" stroke="none" 
	d="
M363.039093,226.605499 
	C364.419403,225.336258 366.154694,224.055206 368.203400,222.681427 
	C366.809265,223.923706 365.101654,225.258698 363.039093,226.605499 
z"/>
<path fill="#699192" opacity="1.000000" stroke="none" 
	d="
M359.935699,253.831543 
	C359.664154,252.312149 359.585724,250.555176 359.634766,248.452927 
	C359.884369,249.936417 360.006592,251.765182 359.935699,253.831543 
z"/>
<path fill="#699192" opacity="1.000000" stroke="none" 
	d="
M153.901230,270.107391 
	C152.674026,268.946167 151.446823,267.784943 150.236877,266.183655 
	C150.254150,265.743561 150.532410,265.467682 150.765366,265.680603 
	C152.125488,267.148895 153.252655,268.404236 154.259827,269.771179 
	C154.139816,269.882721 153.901230,270.107391 153.901230,270.107391 
z"/>
<path fill="#699192" opacity="1.000000" stroke="none" 
	d="
M202.432556,306.834412 
	C203.672729,307.024170 205.090195,307.482452 206.830841,308.134583 
	C205.639313,307.919891 204.124603,307.511414 202.432556,306.834412 
z"/>
<path fill="#699192" opacity="1.000000" stroke="none" 
	d="
M382.017273,213.587708 
	C382.490204,212.989014 383.285553,212.379120 384.381683,211.707916 
	C383.901520,212.289932 383.120605,212.933228 382.017273,213.587708 
z"/>
<path fill="#699192" opacity="1.000000" stroke="none" 
	d="
M360.048889,228.579391 
	C360.518188,227.987122 361.303711,227.376907 362.386078,226.693878 
	C361.910339,227.267853 361.137726,227.914658 360.048889,228.579391 
z"/>
<path fill="#699192" opacity="1.000000" stroke="none" 
	d="
M379.145508,215.670624 
	C379.580627,215.062057 380.321564,214.408707 381.361023,213.691345 
	C380.923492,214.293503 380.187408,214.959671 379.145508,215.670624 
z"/>
<path fill="#699192" opacity="1.000000" stroke="none" 
	d="
M370.117493,221.706299 
	C370.574921,221.117188 371.344055,220.506042 372.404816,219.854050 
	C371.940674,220.436890 371.184937,221.060577 370.117493,221.706299 
z"/>
<path fill="#699192" opacity="1.000000" stroke="none" 
	d="
M376.077698,217.690369 
	C376.552155,217.102158 377.340729,216.494980 378.428406,215.846527 
	C377.948914,216.427292 377.170380,217.049347 376.077698,217.690369 
z"/>
<path fill="#699192" opacity="1.000000" stroke="none" 
	d="
M384.997803,211.586594 
	C385.269958,211.118378 385.839203,210.608047 386.693848,210.040497 
	C386.417786,210.503677 385.856323,211.024078 384.997803,211.586594 
z"/>
<path fill="#699192" opacity="1.000000" stroke="none" 
	d="
M200.893188,305.117828 
	C201.269379,305.456146 201.645584,305.794434 202.158417,306.349945 
	C201.280884,306.276581 200.266739,305.986023 199.111084,305.360718 
	C198.969589,305.025940 199.188141,304.767700 199.472977,304.824615 
	C200.136276,304.960297 200.514725,305.039062 200.893188,305.117828 
z"/>
<path fill="#699192" opacity="1.000000" stroke="none" 
	d="
M131.306305,247.743057 
	C131.578949,247.591080 131.920029,247.757339 132.549316,248.061340 
	C132.837509,248.199081 132.887421,248.150284 132.944473,248.396271 
	C133.141663,248.948471 133.281784,249.254700 133.303650,249.686020 
	C133.185379,249.811111 132.949219,250.061661 132.949219,250.061661 
	C132.424393,249.394867 131.899582,248.728073 131.306305,247.743057 
z"/>
<path fill="#699192" opacity="1.000000" stroke="none" 
	d="
M198.860382,305.155121 
	C198.302124,304.978729 197.853058,304.673126 197.330170,304.030182 
	C197.256332,303.692810 197.497452,303.401398 197.739624,303.531128 
	C198.383911,304.029816 198.786026,304.398773 199.188141,304.767700 
	C199.188141,304.767700 198.969589,305.025940 198.860382,305.155121 
z"/>
<path fill="#699192" opacity="1.000000" stroke="none" 
	d="
M209.865234,308.730042 
	C210.029175,308.548737 210.266769,308.504120 210.860214,308.531799 
	C210.790314,308.691650 210.364594,308.779205 209.865234,308.730042 
z"/>
<path fill="#699192" opacity="1.000000" stroke="none" 
	d="
M387.788635,208.869034 
	C388.503082,208.847458 389.099670,209.060577 389.837921,209.559662 
	C389.426575,209.816864 388.873566,209.788116 387.911865,209.680420 
	C387.559052,209.435562 387.614960,209.269638 387.788635,208.869034 
z"/>
<path fill="#699192" opacity="1.000000" stroke="none" 
	d="
M374.285461,218.841705 
	C374.413971,218.523911 374.815643,218.159180 375.494843,217.749542 
	C375.367767,218.068008 374.963165,218.431412 374.285461,218.841705 
z"/>
<path fill="#699192" opacity="1.000000" stroke="none" 
	d="
M134.768311,251.295471 
	C134.297195,251.009979 133.826065,250.724503 133.152069,250.250336 
	C132.949219,250.061661 133.185379,249.811111 133.550552,249.795227 
	C134.320694,250.130493 134.725677,250.481644 135.040039,250.948456 
	C134.949448,251.064102 134.768311,251.295471 134.768311,251.295471 
z"/>
<path fill="#699192" opacity="1.000000" stroke="none" 
	d="
M136.850006,252.174011 
	C136.246689,252.068298 135.743179,251.831818 135.003998,251.445404 
	C134.768311,251.295471 134.949448,251.064102 135.316895,251.009674 
	C136.172775,251.230774 136.661209,251.506302 137.149658,251.781830 
	C137.149658,251.781830 136.949814,252.043228 136.850006,252.174011 
z"/>
<path fill="#699192" opacity="1.000000" stroke="none" 
	d="
M150.114868,265.881348 
	C149.661697,265.570648 149.347824,265.122192 148.913757,264.427917 
	C148.793579,264.182129 149.037598,263.983856 149.372345,264.045593 
	C149.982208,264.560760 150.257309,265.014221 150.532410,265.467682 
	C150.532410,265.467682 150.254150,265.743561 150.114868,265.881348 
z"/>
<path fill="#699192" opacity="1.000000" stroke="none" 
	d="
M197.135834,303.838562 
	C196.755508,303.802612 196.516678,303.596588 196.265610,303.067322 
	C196.232361,302.768433 196.473312,302.530731 196.672424,302.639954 
	C197.124023,302.924469 197.332657,303.141876 197.497452,303.401398 
	C197.497452,303.401398 197.256332,303.692810 197.135834,303.838562 
z"/>
<path fill="#699192" opacity="1.000000" stroke="none" 
	d="
M196.111771,302.887177 
	C195.742722,302.810516 195.515472,302.592926 195.164795,302.166321 
	C195.020157,301.979462 195.316193,301.725739 195.647476,301.740234 
	C196.203613,301.975159 196.368469,302.233826 196.473312,302.530731 
	C196.473312,302.530731 196.232361,302.768433 196.111771,302.887177 
z"/>
<path fill="#699192" opacity="1.000000" stroke="none" 
	d="
M93.975113,195.432358 
	C93.820740,195.285843 93.895782,195.079025 94.197433,194.809906 
	C94.350243,194.954651 94.277077,195.162796 93.975113,195.432358 
z"/>
<path fill="#699192" opacity="1.000000" stroke="none" 
	d="
M223.139465,302.145813 
	C223.098495,302.536133 222.900055,302.783417 222.391418,303.065826 
	C222.106293,303.121063 221.887695,302.910797 221.908325,302.691467 
	C221.928955,302.472168 221.924347,302.031738 221.987885,302.007324 
	C222.051407,301.982880 222.066010,301.847565 222.235764,301.836700 
	C222.405518,301.825836 222.742233,301.777039 222.742233,301.777039 
	C222.742233,301.777039 223.007050,302.022888 223.139465,302.145813 
z"/>
<path fill="#699192" opacity="1.000000" stroke="none" 
	d="
M130.387299,245.825958 
	C130.568192,245.855026 130.794861,246.174576 131.047272,246.795013 
	C130.859695,246.769424 130.646362,246.442947 130.387299,245.825958 
z"/>
<path fill="#699192" opacity="1.000000" stroke="none" 
	d="
M222.215454,303.226318 
	C222.134720,303.578156 221.923096,303.804352 221.509277,304.156555 
	C221.328857,304.302948 221.117096,304.099854 221.135651,303.797760 
	C221.355972,303.247101 221.600464,303.052155 221.887695,302.910797 
	C221.887695,302.910797 222.106293,303.121063 222.215454,303.226318 
z"/>
<path fill="#699192" opacity="1.000000" stroke="none" 
	d="
M368.884735,222.433258 
	C368.781677,222.173660 368.993378,221.960663 369.522675,221.802383 
	C369.616455,222.057388 369.402863,222.264969 368.884735,222.433258 
z"/>
<path fill="#699192" opacity="1.000000" stroke="none" 
	d="
M93.129944,196.565796 
	C92.962616,196.400055 93.050064,196.181915 93.408455,195.931046 
	C93.548454,196.096207 93.450233,196.301239 93.129944,196.565796 
z"/>
<path fill="#699192" opacity="1.000000" stroke="none" 
	d="
M94.800049,194.247772 
	C94.655991,194.104889 94.717033,193.952805 94.974976,193.787964 
	C95.128220,193.930588 95.072655,194.085022 94.800049,194.247772 
z"/>
<path fill="#699192" opacity="1.000000" stroke="none" 
	d="
M155.038620,270.944885 
	C154.663223,270.895508 154.425308,270.691895 154.055542,270.284729 
	C153.901230,270.107391 154.139816,269.882721 154.464859,269.875183 
	C155.049332,270.045288 155.246796,270.276031 155.382294,270.559784 
	C155.382294,270.559784 155.153625,270.816925 155.038620,270.944885 
z"/>
<path fill="#2588A3" opacity="1.000000" stroke="none" 
	d="
M448.903809,12.275691 
	C448.639374,12.716755 448.097931,13.258965 447.278046,13.896255 
	C447.541992,13.453170 448.084381,12.915004 448.903809,12.275691 
z"/>
<path fill="#2588A3" opacity="1.000000" stroke="none" 
	d="
M450.988525,11.184843 
	C450.746796,11.419770 450.203156,11.731346 449.343018,12.061264 
	C449.579865,11.806900 450.133240,11.534195 450.988525,11.184843 
z"/>
<path fill="#2588A3" opacity="1.000000" stroke="none" 
	d="
M446.719574,14.116089 
	C446.529053,14.363728 446.068085,14.728848 445.331421,15.207160 
	C445.520142,14.958091 445.984650,14.595832 446.719574,14.116089 
z"/>
<path fill="#ECC7B3" opacity="1.000000" stroke="none" 
	d="
M155.731522,270.713379 
	C155.246796,270.276031 155.049332,270.045288 154.584869,269.763611 
	C153.252655,268.404236 152.125488,267.148895 150.765366,265.680603 
	C150.257309,265.014221 149.982208,264.560760 149.494476,263.946594 
	C148.914597,259.459137 148.547318,255.132416 148.097809,250.115692 
	C147.527481,249.120132 146.852234,248.432236 146.579163,248.565918 
	C141.920624,250.846451 137.405167,249.674683 132.887421,248.150284 
	C132.887421,248.150284 132.837509,248.199081 132.809143,248.177765 
	C132.797272,242.666763 132.813766,237.177078 132.850189,231.251831 
	C136.620483,223.009003 144.707214,221.673416 152.691101,228.006760 
	C153.423920,228.601379 153.702713,228.806900 153.981506,229.012405 
	C153.981506,229.012405 153.978165,229.001526 153.994812,229.336014 
	C154.335999,230.470459 154.660568,231.270416 154.985138,232.070374 
	C155.165421,232.571579 155.345703,233.072769 155.709412,234.186218 
	C155.892807,236.798965 155.892807,238.799469 155.892807,241.097687 
	C157.968109,239.852341 159.488434,238.940033 161.008759,238.027710 
	C167.645691,237.437668 172.742538,240.049179 176.395218,245.876785 
	C175.532791,246.854156 174.761597,247.427917 173.757690,247.758972 
	C170.608536,244.132584 167.175049,240.516663 162.565750,242.531342 
	C159.842697,243.721588 157.286057,247.206100 156.369919,250.186203 
	C154.842896,255.153458 158.414932,258.594116 162.189499,261.340302 
	C163.656738,262.407745 165.387894,263.112457 167.022156,264.361206 
	C168.698624,266.825439 170.351746,268.910828 171.936584,271.345581 
	C171.453674,272.540283 171.039078,273.385651 170.624481,274.230988 
	C168.970383,273.785065 167.329193,273.281891 165.659409,272.905518 
	C162.475143,272.187775 159.274567,271.542358 155.731522,270.713379 
M140.614868,241.073868 
	C143.518997,241.268921 146.939133,242.460327 149.149414,241.315613 
	C150.673096,240.526505 151.396729,236.323792 150.913162,233.967819 
	C150.196548,230.476440 147.621674,227.454407 143.468475,228.134964 
	C141.085587,228.525436 137.975235,229.701447 136.866638,231.535706 
	C134.681747,235.150772 137.638458,237.992203 140.614868,241.073868 
z"/>
<path fill="#FAE3D6" opacity="1.000000" stroke="none" 
	d="
M186.971161,143.430481 
	C190.370209,146.217758 193.743301,149.275467 196.898285,152.543732 
	C197.556778,153.225876 197.856216,154.824371 197.564163,155.765747 
	C194.801132,164.672241 183.738205,179.599991 173.291229,181.106491 
	C168.096115,176.171097 168.179749,175.042404 171.786606,169.223663 
	C176.980545,160.844467 181.856216,152.267990 186.971161,143.430481 
z"/>
<path fill="#F2C8B2" opacity="1.000000" stroke="none" 
	d="
M170.664368,274.585724 
	C171.039078,273.385651 171.453674,272.540283 172.062744,271.096161 
	C172.511108,269.998932 172.764984,269.500458 173.176208,268.851562 
	C173.540314,268.498413 173.739578,268.288544 173.966400,268.041504 
	C174.001450,268.011475 174.070801,267.950531 174.378525,267.900452 
	C175.456543,266.231537 176.226852,264.612732 177.304688,262.916748 
	C178.407700,262.555359 179.203156,262.271088 180.152588,261.718140 
	C180.536011,260.664917 180.765488,259.880341 180.994965,259.095795 
	C181.492096,258.812836 181.989227,258.529877 182.744812,258.546570 
	C183.015991,260.258118 183.028717,261.670013 183.043243,263.402130 
	C183.032425,264.149750 183.019775,264.577179 182.751251,265.176086 
	C180.296173,267.677826 181.709183,268.935699 184.082474,270.228912 
	C186.207336,272.291412 188.118057,274.097046 190.128433,276.203308 
	C191.509338,276.974121 192.790588,277.444305 194.440460,277.940369 
	C195.540024,278.080841 196.270966,278.195374 197.005249,278.709930 
	C197.343246,281.741791 197.677887,284.373627 198.008224,287.240723 
	C198.003922,287.475952 197.996414,287.946442 197.723083,288.145020 
	C195.873779,289.705536 194.297806,291.067474 192.721832,292.429382 
	C192.332611,292.362640 191.943390,292.295898 191.186615,291.759460 
	C186.958084,288.720184 183.145660,286.071686 179.198364,283.642365 
	C178.326096,283.105560 176.976364,283.344543 175.846497,283.226288 
	C175.846497,283.226288 175.829437,283.082092 175.739655,282.890503 
	C175.427017,282.460632 175.190262,282.237091 174.939590,282.028259 
	C174.939590,282.028259 174.991730,282.003601 174.825562,281.852051 
	C174.443756,281.467285 174.213898,281.249054 173.969833,281.045807 
	C173.969833,281.045807 173.969086,281.027893 173.837341,280.849365 
	C173.533188,280.441803 173.344528,280.226990 173.139618,280.026428 
	C172.327835,278.331116 171.516052,276.635773 170.664368,274.585724 
z"/>
<path fill="#F1C8B1" opacity="1.000000" stroke="none" 
	d="
M192.854233,292.684875 
	C194.297806,291.067474 195.873779,289.705536 197.841522,288.099854 
	C198.320908,287.758179 198.500000,287.600098 198.481506,287.571991 
	C198.347549,287.368439 198.173721,287.191101 198.012512,287.005463 
	C197.677887,284.373627 197.343246,281.741791 197.366547,278.635986 
	C199.474213,277.439331 201.223938,276.716583 203.391327,275.995117 
	C205.201233,275.999329 206.593460,276.002289 208.174210,275.852051 
	C208.608032,275.485077 208.826355,275.246674 209.010056,274.991943 
	C209.002411,275.000275 208.991287,275.019989 209.252258,274.864288 
	C210.343338,274.124481 211.173447,273.540405 212.003571,272.956299 
	C212.457047,272.958405 212.910538,272.960480 214.114960,272.973083 
	C216.245010,273.004913 217.624115,273.026245 219.003204,273.047546 
	C219.003204,273.047546 218.991943,272.996399 219.123337,273.203918 
	C219.474609,273.648132 219.712921,273.864471 219.969681,274.060516 
	C227.503662,280.214081 228.895554,285.058472 224.962097,293.684570 
	C224.160614,293.925385 223.928513,293.899445 223.748718,293.435120 
	C223.837372,290.673279 224.149338,288.314789 223.859131,286.032898 
	C222.941071,278.814362 217.649231,275.991425 210.653900,279.033936 
	C205.139099,279.444244 205.672211,282.528473 206.865448,286.308014 
	C207.850815,289.386169 208.938995,292.131317 210.138519,295.165680 
	C210.833649,296.302765 211.417435,297.150696 211.719818,298.122498 
	C208.466431,295.925446 205.494461,293.604523 201.817398,290.732971 
	C201.212204,293.151703 200.605179,295.577667 199.707413,297.861389 
	C197.426941,296.476837 195.437210,295.234497 193.447479,293.992157 
	C193.293869,293.641541 193.140244,293.290955 192.854233,292.684875 
M203.081085,284.875336 
	C203.081085,284.875336 202.900162,285.115173 202.900162,285.115173 
	C202.900162,285.115173 203.159592,284.967468 203.081085,284.875336 
M198.491638,289.478760 
	C198.491638,289.478760 198.500931,289.512665 198.491638,289.478760 
z"/>
<path fill="#EDC8B4" opacity="1.000000" stroke="none" 
	d="
M207.985672,276.005249 
	C206.593460,276.002289 205.201233,275.999329 203.512451,275.651184 
	C203.648148,274.407654 204.115616,273.524292 204.506897,272.608398 
	C207.018326,266.729736 205.502441,260.807800 200.673813,257.565430 
	C196.365540,254.672485 190.956757,255.619003 186.346558,260.051514 
	C185.269379,261.087158 184.144409,262.073120 183.041443,263.081940 
	C183.028717,261.670013 183.015991,260.258118 183.002548,258.422577 
	C185.732285,256.168549 188.233307,253.663284 191.238693,252.641556 
	C198.576187,250.147064 205.470459,254.502350 209.613525,264.150482 
	C209.543030,268.251831 209.267166,271.635925 208.991287,275.019989 
	C208.991287,275.019989 209.002411,275.000275 208.817825,275.140686 
	C208.393875,275.501465 208.178024,275.742828 207.985672,276.005249 
z"/>
<path fill="#EDC8B4" opacity="1.000000" stroke="none" 
	d="
M179.998627,261.986847 
	C179.203156,262.271088 178.407700,262.555359 177.165253,262.662537 
	C176.141357,261.988861 175.564423,261.492279 175.078659,260.611359 
	C174.776688,256.151917 174.383545,252.076797 173.990417,248.001678 
	C174.761597,247.427917 175.532791,246.854156 176.559692,246.160919 
	C177.771667,250.138519 178.727936,254.235611 179.841141,259.065491 
	C179.998260,260.527832 179.998444,261.257324 179.998627,261.986847 
z"/>
<path fill="#A17553" opacity="1.000000" stroke="none" 
	d="
M320.578156,254.598618 
	C320.706329,255.049698 320.659698,255.248398 320.483459,255.723007 
	C312.658630,251.566818 304.963470,247.134735 297.186096,242.282776 
	C297.103912,241.862915 297.367126,241.543930 297.367126,241.543930 
	C305.045868,245.811371 312.724640,250.078812 320.578156,254.598618 
z"/>
<path fill="#EDC8B4" opacity="1.000000" stroke="none" 
	d="
M212.001221,297.998596 
	C211.417435,297.150696 210.833649,296.302765 210.530869,295.280426 
	C215.287704,296.587128 219.612366,296.487915 223.696426,293.873505 
	C223.928513,293.899445 224.160614,293.925385 224.741638,293.991669 
	C225.100037,294.507935 225.109512,294.983856 225.131119,295.816223 
	C224.693436,297.030365 224.243637,297.888092 223.139313,298.934723 
	C218.990280,298.748627 215.495743,298.373596 212.001221,297.998596 
z"/>
<path fill="#9C7553" opacity="1.000000" stroke="none" 
	d="
M297.000000,279.479706 
	C296.848297,279.796204 296.441315,279.896667 295.723450,280.033813 
	C288.910675,276.561249 282.408813,273.052002 275.906921,269.542786 
	C276.166321,269.053680 276.425751,268.564575 276.685150,268.075470 
	C283.371674,271.804871 290.058167,275.534271 297.000000,279.479706 
z"/>
<path fill="#A17756" opacity="1.000000" stroke="none" 
	d="
M271.100098,295.955933 
	C271.235260,296.418335 271.023865,296.643921 270.597778,296.977356 
	C264.372406,293.905823 258.330444,290.697052 252.288498,287.488312 
	C252.546875,286.999847 252.805237,286.511383 253.063614,286.022919 
	C258.970703,289.264740 264.877777,292.506592 271.100098,295.955933 
z"/>
<path fill="#DEAC90" opacity="1.000000" stroke="none" 
	d="
M160.780640,237.894226 
	C159.488434,238.940033 157.968109,239.852341 155.892807,241.097687 
	C155.892807,238.799469 155.892807,236.798965 155.854736,234.410461 
	C157.395279,235.268570 158.973907,236.514664 160.780640,237.894226 
z"/>
<path fill="#DEAD91" opacity="1.000000" stroke="none" 
	d="
M209.252258,274.864288 
	C209.267166,271.635925 209.543030,268.251831 209.785034,264.440491 
	C210.441833,266.742676 211.132523,269.472168 211.913391,272.578979 
	C211.173447,273.540405 210.343338,274.124481 209.252258,274.864288 
z"/>
<path fill="#DEAD91" opacity="1.000000" stroke="none" 
	d="
M218.711746,272.888611 
	C217.624115,273.026245 216.245010,273.004913 214.455017,272.966888 
	C215.502853,272.876709 216.961563,272.803192 218.711746,272.888611 
z"/>
<path fill="#ECC7B3" opacity="1.000000" stroke="none" 
	d="
M180.152588,261.718140 
	C179.998444,261.257324 179.998260,260.527832 179.997711,259.435120 
	C179.997345,259.071930 180.496414,259.076782 180.745697,259.086304 
	C180.765488,259.880341 180.536011,260.664917 180.152588,261.718140 
z"/>
<path fill="#DEAC90" opacity="1.000000" stroke="none" 
	d="
M154.942993,231.746078 
	C154.660568,231.270416 154.335999,230.470459 153.988831,229.344849 
	C154.277756,229.820068 154.589310,230.620926 154.942993,231.746078 
z"/>
<path fill="#A17756" opacity="1.000000" stroke="none" 
	d="
M245.649200,283.377228 
	C245.427582,283.057770 245.205948,282.738342 244.984329,282.418884 
	C245.282486,282.455933 245.580627,282.493011 245.892441,282.820984 
	C245.906097,283.111938 245.649200,283.377228 245.649200,283.377228 
z"/>
<path fill="#A17553" opacity="1.000000" stroke="none" 
	d="
M296.970367,242.020813 
	C296.508606,241.952835 296.180389,241.726974 295.852173,241.501099 
	C296.233185,241.431610 296.614227,241.362122 297.181183,241.418274 
	C297.367126,241.543930 297.103912,241.862915 296.970367,242.020813 
z"/>
<path fill="#DEAD91" opacity="1.000000" stroke="none" 
	d="
M219.942261,273.906036 
	C219.712921,273.864471 219.474609,273.648132 219.104584,273.222198 
	C219.274582,273.272491 219.594711,273.512024 219.942261,273.906036 
z"/>
<path fill="#F1C8B1" opacity="1.000000" stroke="none" 
	d="
M353.790710,233.120407 
	C353.842438,233.158447 353.894226,233.335999 353.971741,233.791077 
	C353.886353,233.808868 353.817444,233.539307 353.790710,233.120407 
z"/>
<path fill="#DEAC90" opacity="1.000000" stroke="none" 
	d="
M153.794037,228.833099 
	C153.702713,228.806900 153.423920,228.601379 152.964996,228.203674 
	C153.058762,228.225586 153.332672,228.439682 153.794037,228.833099 
z"/>
<path fill="#A17756" opacity="1.000000" stroke="none" 
	d="
M250.607483,285.413757 
	C250.695572,285.528412 250.371841,285.581207 250.371841,285.581207 
	C250.371841,285.581207 250.519394,285.299133 250.607483,285.413757 
z"/>
<path fill="#A17756" opacity="1.000000" stroke="none" 
	d="
M248.425415,284.406189 
	C248.528717,284.331726 248.582993,284.606018 248.582993,284.606018 
	C248.582993,284.606018 248.322113,284.480621 248.425415,284.406189 
z"/>
<path fill="#A17756" opacity="1.000000" stroke="none" 
	d="
M246.035248,282.979950 
	C246.316559,283.036865 246.468689,283.225739 246.620834,283.414673 
	C246.399979,283.480804 246.179108,283.546936 245.803711,283.495178 
	C245.649200,283.377228 245.906097,283.111938 246.035248,282.979950 
z"/>
<path fill="#EDC8B4" opacity="1.000000" stroke="none" 
	d="
M193.373627,294.353546 
	C195.437210,295.234497 197.426941,296.476837 199.715134,298.255981 
	C200.382263,300.815338 200.750931,302.837860 201.119598,304.860413 
	C201.119598,304.860413 201.006409,304.989136 200.949799,305.053467 
	C200.514725,305.039062 200.136276,304.960297 199.472977,304.824615 
	C198.786026,304.398773 198.383911,304.029816 197.739624,303.531128 
	C197.332657,303.141876 197.124023,302.924469 196.672424,302.639954 
	C196.368469,302.233826 196.203613,301.975159 195.795410,301.613281 
	C194.841309,299.219543 194.070541,296.967255 193.373627,294.353546 
z"/>
<path fill="#EDC8B4" opacity="1.000000" stroke="none" 
	d="
M175.968048,283.537292 
	C176.976364,283.344543 178.326096,283.105560 179.198364,283.642365 
	C183.145660,286.071686 186.958084,288.720184 190.921844,291.623596 
	C186.046280,289.254395 181.067947,286.551361 175.968048,283.537292 
z"/>
<path fill="#EDC8B4" opacity="1.000000" stroke="none" 
	d="
M175.006668,282.290833 
	C175.190262,282.237091 175.427017,282.460632 175.811737,282.881897 
	C175.673660,282.894409 175.373703,282.723877 175.006668,282.290833 
z"/>
<path fill="#EDC8B4" opacity="1.000000" stroke="none" 
	d="
M174.044601,281.293884 
	C174.213898,281.249054 174.443756,281.467285 174.816254,281.879333 
	C174.688522,281.886108 174.403946,281.714020 174.044601,281.293884 
z"/>
<path fill="#EDC8B4" opacity="1.000000" stroke="none" 
	d="
M173.192413,280.250488 
	C173.344528,280.226990 173.533188,280.441803 173.828766,280.847107 
	C173.625565,280.957336 173.389984,280.774414 173.192413,280.250488 
z"/>
<path fill="#EBC8B3" opacity="1.000000" stroke="none" 
	d="
M132.944473,248.396271 
	C137.405167,249.674683 141.920624,250.846451 146.579163,248.565918 
	C146.852234,248.432236 147.527481,249.120132 148.032516,249.653641 
	C144.691528,250.528503 141.333603,251.175415 137.562668,251.802094 
	C136.661209,251.506302 136.172775,251.230774 135.407486,250.894012 
	C134.725677,250.481644 134.320694,250.130493 133.668823,249.670135 
	C133.281784,249.254700 133.141663,248.948471 132.944473,248.396271 
z"/>
<path fill="#F2C8B2" opacity="1.000000" stroke="none" 
	d="
M201.532349,304.914459 
	C200.750931,302.837860 200.382263,300.815338 200.005875,298.398224 
	C200.605179,295.577667 201.212204,293.151703 201.817398,290.732971 
	C205.494461,293.604523 208.466431,295.925446 211.719818,298.122498 
	C215.495743,298.373596 218.990280,298.748627 222.952011,299.156708 
	C223.256897,299.638580 223.094589,300.087372 222.662689,300.956116 
	C222.270538,301.523834 222.161499,301.681000 222.066010,301.847565 
	C222.066010,301.847565 222.051407,301.982880 221.653473,302.052704 
	C220.206451,303.128632 219.157333,304.134735 218.108215,305.140839 
	C218.108215,305.140839 218.031815,305.097504 217.867493,305.193604 
	C217.459305,305.474823 217.229355,305.675812 217.013306,305.892700 
	C217.013306,305.892700 216.807480,306.123535 216.665039,306.182343 
	C211.663437,305.816925 206.804260,305.392700 201.532349,304.914459 
z"/>
<path fill="#EDC8B4" opacity="1.000000" stroke="none" 
	d="
M222.235764,301.836700 
	C222.161499,301.681000 222.270538,301.523834 222.490295,301.270935 
	C222.587479,301.165802 222.685608,301.466125 222.713928,301.621582 
	C222.742233,301.777039 222.405518,301.825836 222.235764,301.836700 
z"/>
<path fill="#EDC8B4" opacity="1.000000" stroke="none" 
	d="
M218.407913,305.070190 
	C219.157333,304.134735 220.206451,303.128632 221.589951,302.077148 
	C221.924347,302.031738 221.928955,302.472168 221.908325,302.691467 
	C221.600464,303.052155 221.355972,303.247101 221.029846,303.696167 
	C220.172852,304.264282 219.440231,304.631927 218.407913,305.070190 
z"/>
<path fill="#EDC8B4" opacity="1.000000" stroke="none" 
	d="
M217.251801,305.831726 
	C217.229355,305.675812 217.459305,305.474823 217.889191,305.155426 
	C218.016602,305.377411 217.821625,305.627289 217.251801,305.831726 
z"/>
<path fill="#FAE3D6" opacity="1.000000" stroke="none" 
	d="
M173.757690,247.758987 
	C174.383545,252.076797 174.776688,256.151917 174.839508,260.770294 
	C173.937302,261.821228 173.365433,262.328918 172.441071,262.944458 
	C170.391968,263.362335 168.695389,263.672363 166.998810,263.982361 
	C165.387894,263.112457 163.656738,262.407745 162.189499,261.340302 
	C158.414932,258.594116 154.842896,255.153458 156.369919,250.186203 
	C157.286057,247.206100 159.842697,243.721588 162.565750,242.531342 
	C167.175049,240.516663 170.608536,244.132584 173.757690,247.758987 
z"/>
<path fill="#FAE2D7" opacity="1.000000" stroke="none" 
	d="
M140.340271,240.816833 
	C137.638458,237.992203 134.681747,235.150772 136.866638,231.535706 
	C137.975235,229.701447 141.085587,228.525436 143.468475,228.134964 
	C147.621674,227.454407 150.196548,230.476440 150.913162,233.967819 
	C151.396729,236.323792 150.673096,240.526505 149.149414,241.315613 
	C146.939133,242.460327 143.518997,241.268921 140.340271,240.816833 
z"/>
<path fill="#EDC8B4" opacity="1.000000" stroke="none" 
	d="
M167.022156,264.361206 
	C168.695389,263.672363 170.391968,263.362335 172.692673,263.166138 
	C173.554794,264.836792 173.812805,266.393677 174.070801,267.950531 
	C174.070801,267.950531 174.001450,268.011475 173.808914,268.190033 
	C173.408859,268.571838 173.209686,268.782990 173.018860,269.001984 
	C172.764984,269.500458 172.511108,269.998932 172.131058,270.746796 
	C170.351746,268.910828 168.698624,266.825439 167.022156,264.361206 
z"/>
<path fill="#FAE3D7" opacity="1.000000" stroke="none" 
	d="
M183.043259,263.402130 
	C184.144409,262.073120 185.269379,261.087158 186.346558,260.051514 
	C190.956757,255.619003 196.365540,254.672485 200.673813,257.565430 
	C205.502441,260.807800 207.018326,266.729736 204.506897,272.608398 
	C204.115616,273.524292 203.648148,274.407654 203.094772,275.649963 
	C201.223938,276.716583 199.474213,277.439331 197.363190,278.235962 
	C196.270966,278.195374 195.540024,278.080841 194.184601,277.740051 
	C192.382996,276.976746 191.205902,276.439728 190.028778,275.902679 
	C188.118057,274.097046 186.207336,272.291412 184.057251,269.871216 
	C183.547653,267.839294 183.277390,266.421936 183.007126,265.004608 
	C183.019775,264.577179 183.032425,264.149750 183.043259,263.402130 
z"/>
<path fill="#ECC7B3" opacity="1.000000" stroke="none" 
	d="
M174.378525,267.900452 
	C173.812805,266.393677 173.554794,264.836792 173.045166,263.058258 
	C173.365433,262.328918 173.937302,261.821228 174.748322,261.154633 
	C175.564423,261.492279 176.141357,261.988861 176.857727,262.739685 
	C176.226852,264.612732 175.456543,266.231537 174.378525,267.900452 
z"/>
<path fill="#EDC8B4" opacity="1.000000" stroke="none" 
	d="
M182.751251,265.176086 
	C183.277390,266.421936 183.547653,267.839294 183.843140,269.614319 
	C181.709183,268.935699 180.296173,267.677826 182.751251,265.176086 
z"/>
<path fill="#EDC8B4" opacity="1.000000" stroke="none" 
	d="
M190.128448,276.203308 
	C191.205902,276.439728 192.382996,276.976746 193.815979,277.714142 
	C192.790588,277.444305 191.509338,276.974121 190.128448,276.203308 
z"/>
<path fill="#EDC8B4" opacity="1.000000" stroke="none" 
	d="
M198.008209,287.240723 
	C198.173721,287.191101 198.347549,287.368439 198.481506,287.571991 
	C198.500000,287.600098 198.320908,287.758179 198.114853,287.901245 
	C197.996414,287.946442 198.003922,287.475952 198.008209,287.240723 
z"/>
<path fill="#ECC7B3" opacity="1.000000" stroke="none" 
	d="
M173.176208,268.851562 
	C173.209686,268.782990 173.408859,268.571838 173.773865,268.220062 
	C173.739578,268.288544 173.540314,268.498413 173.176208,268.851562 
z"/>
<path fill="#FBE4D6" opacity="1.000000" stroke="none" 
	d="
M223.748718,293.435120 
	C219.612366,296.487915 215.287704,296.587128 210.419525,294.991241 
	C208.938995,292.131317 207.850815,289.386169 207.034607,286.018982 
	C208.553848,283.272339 209.801132,281.147705 211.048401,279.023071 
	C217.649231,275.991425 222.941071,278.814362 223.859131,286.032898 
	C224.149338,288.314789 223.837372,290.673279 223.748718,293.435120 
z"/>
<path fill="#EDC8B4" opacity="1.000000" stroke="none" 
	d="
M210.653900,279.033936 
	C209.801132,281.147705 208.553848,283.272339 207.137421,285.685974 
	C205.672211,282.528473 205.139099,279.444244 210.653900,279.033936 
z"/>
<path fill="#F2C8B2" opacity="1.000000" stroke="none" 
	d="
M203.120331,284.921387 
	C203.159592,284.967468 202.900162,285.115173 202.900162,285.115173 
	C202.900162,285.115173 203.081085,284.875336 203.120331,284.921387 
z"/>
<path fill="#EDC8B4" opacity="1.000000" stroke="none" 
	d="
M198.496277,289.495728 
	C198.500931,289.512665 198.491638,289.478760 198.496277,289.495728 
z"/>
<path fill="#DEAD91" opacity="1.000000" stroke="none" 
	d="
M208.174210,275.852051 
	C208.178024,275.742828 208.393875,275.501465 208.825470,275.132355 
	C208.826355,275.246674 208.608032,275.485077 208.174210,275.852051 
z"/>
</svg>