<?xml version="1.0" encoding="UTF-8"?>
<!DOCTYPE svg PUBLIC "-//W3C//DTD SVG 1.1//EN" "http://www.w3.org/Graphics/SVG/1.1/DTD/svg11.dtd">
<svg xmlns="http://www.w3.org/2000/svg" version="1.1" width="299px" height="302px" style="shape-rendering:geometricPrecision; text-rendering:geometricPrecision; image-rendering:optimizeQuality; fill-rule:evenodd; clip-rule:evenodd" xmlns:xlink="http://www.w3.org/1999/xlink">
<g><path style="opacity:1" fill="#f1f1f1" d="M -0.5,-0.5 C 99.1667,-0.5 198.833,-0.5 298.5,-0.5C 298.5,100.167 298.5,200.833 298.5,301.5C 198.833,301.5 99.1667,301.5 -0.5,301.5C -0.5,200.833 -0.5,100.167 -0.5,-0.5 Z"/></g>
<g><path style="opacity:1" fill="#f9d6cd" d="M 255.5,69.5 C 197.807,68.9012 140.14,69.7345 82.5,72C 65.2178,74.2826 55.7178,84.116 54,101.5C 54.9583,141.822 55.7916,182.156 56.5,222.5C 56.7964,234.168 57.1297,245.835 57.5,257.5C 54.1016,257.18 50.7683,257.513 47.5,258.5C 47.6236,259.107 47.9569,259.44 48.5,259.5C 50.6691,263.32 53.0024,267.154 55.5,271C 67.4954,271.5 79.4954,271.667 91.5,271.5C 92.4584,271.953 93.2917,272.619 94,273.5C 95.0855,278.437 95.7521,283.437 96,288.5C 96.7172,289.044 97.2172,289.711 97.5,290.5C 85.1622,290.667 72.8288,290.5 60.5,290C 52.7238,289.195 45.8904,286.361 40,281.5C 39.1224,278.785 37.6224,276.451 35.5,274.5C 33.8083,270.617 32.3083,266.617 31,262.5C 27.6061,226.917 26.6061,191.25 28,155.5C 30.3152,138.262 31.9819,120.928 33,103.5C 34.7931,94.1695 37.4598,85.1695 41,76.5C 50.8478,61.9731 64.6811,54.8064 82.5,55C 122.133,52.5895 161.799,51.9229 201.5,53C 212.161,55.3655 222.828,57.5322 233.5,59.5C 241.068,62.5655 248.402,65.8988 255.5,69.5 Z"/></g>
<g><path style="opacity:1" fill="#54545a" d="M 255.5,69.5 C 269.235,77.7104 274.902,89.7104 272.5,105.5C 270.355,105.738 268.688,106.738 267.5,108.5C 268.274,109.711 269.107,109.711 270,108.5C 270.353,109.672 270.187,110.838 269.5,112C 270.031,113.718 270.698,113.885 271.5,112.5C 272.486,116.97 272.819,121.637 272.5,126.5C 254.659,126.17 236.992,126.503 219.5,127.5C 200.521,128.699 181.521,129.365 162.5,129.5C 162.822,127.278 162.155,125.444 160.5,124C 155.941,122.738 152.608,120.071 150.5,116C 147.931,115.102 145.598,113.935 143.5,112.5C 143.5,111.167 144.167,110.5 145.5,110.5C 146.978,110.238 148.311,110.571 149.5,111.5C 150.167,112.833 151.167,113.833 152.5,114.5C 154.145,113.304 155.811,112.304 157.5,111.5C 159.261,112.078 161.261,112.078 163.5,111.5C 164.404,112.209 164.737,113.209 164.5,114.5C 165.5,114.5 166.5,114.5 167.5,114.5C 168.167,115.5 168.833,116.5 169.5,117.5C 170.585,119.582 172.085,119.916 174,118.5C 174.8,115.133 175.966,111.966 177.5,109C 176.552,108.517 175.552,108.351 174.5,108.5C 174.5,107.5 174.5,106.5 174.5,105.5C 173.448,105.351 172.448,105.517 171.5,106C 169.934,108.326 168.268,110.492 166.5,112.5C 166.5,110.5 166.5,108.5 166.5,106.5C 162.713,105.814 159.546,106.814 157,109.5C 156.667,107.5 156.333,105.5 156,103.5C 155.209,104.745 154.709,106.078 154.5,107.5C 152.642,114.166 151.308,114 150.5,107C 151.796,104.266 152.296,101.433 152,98.5C 149.499,96.9442 147.999,97.6108 147.5,100.5C 146.698,101.952 146.198,103.618 146,105.5C 144.293,107.037 142.793,108.704 141.5,110.5C 139.973,110.573 138.973,109.906 138.5,108.5C 138.5,107.5 138.5,106.5 138.5,105.5C 135.687,105.025 133.687,106.025 132.5,108.5C 131.5,108.5 130.5,108.5 129.5,108.5C 130.234,107.292 130.567,105.959 130.5,104.5C 128.62,104.229 127.287,104.896 126.5,106.5C 125.596,107.209 125.263,108.209 125.5,109.5C 122.545,110.159 119.545,110.492 116.5,110.5C 116.389,109.883 116.056,109.383 115.5,109C 120.777,106.56 124.443,102.727 126.5,97.5C 122.091,96.6185 118.591,97.9518 116,101.5C 115.505,99.5273 115.338,97.5273 115.5,95.5C 112.916,95.5688 110.916,96.7355 109.5,99C 110.951,98.7374 112.284,98.9041 113.5,99.5C 112.821,102.359 111.488,104.859 109.5,107C 110.016,109.669 110.683,112.169 111.5,114.5C 110.289,117.926 108.956,121.259 107.5,124.5C 105.379,124.325 103.379,124.659 101.5,125.5C 98.1401,125.384 94.8067,125.051 91.5,124.5C 91.4399,128.485 93.4399,130.152 97.5,129.5C 96.962,131.117 96.6287,132.784 96.5,134.5C 95.8476,135.449 95.5143,136.615 95.5,138C 96.0683,141.2 96.7349,144.367 97.5,147.5C 95.4985,150.334 92.9985,152.667 90,154.5C 88.4022,156.895 88.2355,159.228 89.5,161.5C 90.7496,164.006 91.4162,166.673 91.5,169.5C 88.2548,169.97 85.4214,171.303 83,173.5C 82.8922,177.177 82.8922,180.843 83,184.5C 80.2329,186.758 78.0662,189.425 76.5,192.5C 77.9917,194.972 78.6584,197.639 78.5,200.5C 79.8221,200.33 80.9887,200.663 82,201.5C 82.3951,204.207 82.8951,206.873 83.5,209.5C 81.7949,214.903 81.1282,220.57 81.5,226.5C 80.5489,227.919 80.2155,229.585 80.5,231.5C 79.353,235.646 79.1864,239.98 80,244.5C 80.2784,245.416 80.7784,246.082 81.5,246.5C 83.7009,250.24 85.3676,254.24 86.5,258.5C 77.25,257.528 67.9167,257.195 58.5,257.5C 58.7652,245.628 58.0985,233.961 56.5,222.5C 55.7916,182.156 54.9583,141.822 54,101.5C 55.7178,84.116 65.2178,74.2826 82.5,72C 140.14,69.7345 197.807,68.9012 255.5,69.5 Z"/></g>
<g><path style="opacity:1" fill="#ca624a" d="M 113.5,112.5 C 112.041,116.046 110.874,119.712 110,123.5C 109.329,124.252 108.496,124.586 107.5,124.5C 108.956,121.259 110.289,117.926 111.5,114.5C 111.833,113.5 112.5,112.833 113.5,112.5 Z"/></g>
<g><path style="opacity:1" fill="#dcdddf" d="M 169.5,117.5 C 169.682,112.206 170.182,112.206 171,117.5C 173.023,115.231 173.856,112.564 173.5,109.5C 170.474,109.837 168.474,111.504 167.5,114.5C 166.5,114.5 165.5,114.5 164.5,114.5C 164.737,113.209 164.404,112.209 163.5,111.5C 163.225,109.158 162.392,109.158 161,111.5C 160.51,110.207 160.343,108.873 160.5,107.5C 162.167,107.5 163.833,107.5 165.5,107.5C 165.216,109.415 165.549,111.081 166.5,112.5C 168.268,110.492 169.934,108.326 171.5,106C 172.448,105.517 173.448,105.351 174.5,105.5C 174.5,106.5 174.5,107.5 174.5,108.5C 175.552,108.351 176.552,108.517 177.5,109C 175.966,111.966 174.8,115.133 174,118.5C 172.085,119.916 170.585,119.582 169.5,117.5 Z"/></g>
<g><path style="opacity:1" fill="#cfd0d0" d="M 154.5,107.5 C 155.341,108.926 156.341,110.26 157.5,111.5C 155.811,112.304 154.145,113.304 152.5,114.5C 151.167,113.833 150.167,112.833 149.5,111.5C 148.311,110.571 146.978,110.238 145.5,110.5C 146.66,109.735 147.66,108.735 148.5,107.5C 147.626,105.253 147.292,102.92 147.5,100.5C 147.999,97.6108 149.499,96.9442 152,98.5C 152.296,101.433 151.796,104.266 150.5,107C 151.308,114 152.642,114.166 154.5,107.5 Z"/></g>
<g><path style="opacity:1" fill="#cdced1" d="M 251.5,101.5 C 252.482,100.859 253.482,100.193 254.5,99.5C 254.833,100.167 255.167,100.833 255.5,101.5C 253.773,103.937 252.94,106.604 253,109.5C 253.689,108.643 254.522,107.977 255.5,107.5C 256.167,109.833 256.833,112.167 257.5,114.5C 258.281,113.263 259.281,112.263 260.5,111.5C 261.784,114.263 260.784,115.93 257.5,116.5C 255.171,115.229 254.005,113.229 254,110.5C 251.852,114.614 250.518,114.281 250,109.5C 247.805,113.872 244.805,114.539 241,111.5C 240.275,112.059 239.442,112.392 238.5,112.5C 236.423,111.063 234.09,110.396 231.5,110.5C 230.833,106.5 232.5,104.833 236.5,105.5C 236.705,113.166 238.538,113.499 242,106.5C 242.783,104.567 242.283,103.067 240.5,102C 242.076,101.56 243.41,100.727 244.5,99.5C 246.5,100.833 248.5,100.833 250.5,99.5C 251.298,99.9569 251.631,100.624 251.5,101.5 Z"/></g>
<g><path style="opacity:1" fill="#9c9b9e" d="M 169.5,117.5 C 168.833,116.5 168.167,115.5 167.5,114.5C 168.474,111.504 170.474,109.837 173.5,109.5C 173.856,112.564 173.023,115.231 171,117.5C 170.182,112.206 169.682,112.206 169.5,117.5 Z"/></g>
<g><path style="opacity:1" fill="#a57569" d="M 126.5,106.5 C 126.285,108.179 126.952,109.179 128.5,109.5C 123.783,111.238 118.783,111.904 113.5,111.5C 114.209,110.596 115.209,110.263 116.5,110.5C 119.545,110.492 122.545,110.159 125.5,109.5C 125.263,108.209 125.596,107.209 126.5,106.5 Z"/></g>
<g><path style="opacity:1" fill="#c4c6c9" d="M 190.5,96.5 C 195.501,95.6714 197.668,97.6714 197,102.5C 196.671,98.9603 194.838,97.7936 191.5,99C 190.663,100.011 190.33,101.178 190.5,102.5C 195.532,102.332 195.699,103.332 191,105.5C 189.779,112.86 191.279,113.86 195.5,108.5C 193.665,107.572 193.332,106.406 194.5,105C 196.615,104.443 198.615,103.609 200.5,102.5C 200.833,102.833 201.167,103.167 201.5,103.5C 198.573,106.699 195.906,110.199 193.5,114C 189.294,114.835 187.294,113.002 187.5,108.5C 187.865,104.287 188.865,100.287 190.5,96.5 Z"/></g>
<g><path style="opacity:1" fill="#a2a3a6" d="M 166.5,112.5 C 165.549,111.081 165.216,109.415 165.5,107.5C 163.833,107.5 162.167,107.5 160.5,107.5C 160.343,108.873 160.51,110.207 161,111.5C 162.392,109.158 163.225,109.158 163.5,111.5C 161.261,112.078 159.261,112.078 157.5,111.5C 156.341,110.26 155.341,108.926 154.5,107.5C 154.709,106.078 155.209,104.745 156,103.5C 156.333,105.5 156.667,107.5 157,109.5C 159.546,106.814 162.713,105.814 166.5,106.5C 166.5,108.5 166.5,110.5 166.5,112.5 Z"/></g>
<g><path style="opacity:1" fill="#d7c8c7" d="M 138.5,108.5 C 136.5,108.5 134.5,108.5 132.5,108.5C 133.687,106.025 135.687,105.025 138.5,105.5C 138.5,106.5 138.5,107.5 138.5,108.5 Z"/></g>
<g><path style="opacity:1" fill="#5f6165" d="M 251.5,101.5 C 250.744,105.587 248.744,108.92 245.5,111.5C 242.918,105.322 244.918,101.989 251.5,101.5 Z"/></g>
<g><path style="opacity:1" fill="#a9a5a9" d="M 147.5,100.5 C 147.292,102.92 147.626,105.253 148.5,107.5C 147.66,108.735 146.66,109.735 145.5,110.5C 144.167,110.5 143.5,111.167 143.5,112.5C 142.5,112.167 141.833,111.5 141.5,110.5C 142.793,108.704 144.293,107.037 146,105.5C 146.198,103.618 146.698,101.952 147.5,100.5 Z"/></g>
<g><path style="opacity:1" fill="#b9babd" d="M 129.5,108.5 C 128.833,108.5 128.5,108.833 128.5,109.5C 126.952,109.179 126.285,108.179 126.5,106.5C 127.287,104.896 128.62,104.229 130.5,104.5C 130.567,105.959 130.234,107.292 129.5,108.5 Z"/></g>
<g><path style="opacity:1" fill="#cbcccf" d="M 116.5,110.5 C 115.209,110.263 114.209,110.596 113.5,111.5C 113.5,111.833 113.5,112.167 113.5,112.5C 112.5,112.833 111.833,113.5 111.5,114.5C 110.683,112.169 110.016,109.669 109.5,107C 111.488,104.859 112.821,102.359 113.5,99.5C 112.284,98.9041 110.951,98.7374 109.5,99C 110.916,96.7355 112.916,95.5688 115.5,95.5C 115.338,97.5273 115.505,99.5273 116,101.5C 118.591,97.9518 122.091,96.6185 126.5,97.5C 124.443,102.727 120.777,106.56 115.5,109C 116.056,109.383 116.389,109.883 116.5,110.5 Z"/></g>
<g><path style="opacity:1" fill="#c4c5c8" d="M 215.5,96.5 C 216.302,97.9516 216.802,99.6183 217,101.5C 218.92,98.562 221.42,97.8953 224.5,99.5C 226.071,97.585 228.071,96.585 230.5,96.5C 230.136,101.291 229.136,105.958 227.5,110.5C 230.447,114.4 229.447,115.9 224.5,115C 223.919,114.107 223.585,113.107 223.5,112C 225.036,107.392 226.536,102.892 228,98.5C 224.746,100.94 222.579,104.106 221.5,108C 220.668,108.688 220.002,108.521 219.5,107.5C 222.623,97.9479 221.623,97.2813 216.5,105.5C 215.701,102.57 215.368,99.5701 215.5,96.5 Z"/></g>
<g><path style="opacity:1" fill="#eeeff0" d="M 215.5,96.5 C 215.368,99.5701 215.701,102.57 216.5,105.5C 215.961,107.505 215.295,109.505 214.5,111.5C 213.511,107.893 213.177,104.226 213.5,100.5C 214.167,99.1667 214.833,97.8333 215.5,96.5 Z"/></g>
<g><path style="opacity:1" fill="#5c5d61" d="M 121.5,98.5 C 124.907,98.1253 125.407,99.1253 123,101.5C 120.667,103.167 118.333,104.833 116,106.5C 116.386,102.93 118.219,100.263 121.5,98.5 Z"/></g>
<g><path style="opacity:1" fill="#a6a7ab" d="M 215.5,96.5 C 214.833,97.8333 214.167,99.1667 213.5,100.5C 213.322,96.8979 212.322,96.8979 210.5,100.5C 209.653,98.939 209.986,97.439 211.5,96C 213.066,95.235 214.399,95.4017 215.5,96.5 Z"/></g>
<g><path style="opacity:1" fill="#dfdfe0" d="M 272.5,105.5 C 274.182,112.638 275.015,119.971 275,127.5C 275.766,123.731 276.599,123.898 277.5,128C 276.991,129.169 276.158,130.002 275,130.5C 274.5,144.496 274.333,158.496 274.5,172.5C 274.167,172.5 273.833,172.5 273.5,172.5C 273.5,169.833 273.5,167.167 273.5,164.5C 273.828,152.988 273.495,141.654 272.5,130.5C 272.443,129.391 272.11,128.391 271.5,127.5C 272.818,124.742 273.485,121.576 273.5,118C 273.333,114.833 273.167,111.667 273,108.5C 272.209,109.745 271.709,111.078 271.5,112.5C 270.698,113.885 270.031,113.718 269.5,112C 270.187,110.838 270.353,109.672 270,108.5C 269.107,109.711 268.274,109.711 267.5,108.5C 268.688,106.738 270.355,105.738 272.5,105.5 Z"/></g>
<g><path style="opacity:1" fill="#d9d5d5" d="M 101.5,125.5 C 100.598,127.341 99.2644,128.674 97.5,129.5C 93.4399,130.152 91.4399,128.485 91.5,124.5C 94.8067,125.051 98.1401,125.384 101.5,125.5 Z"/></g>
<g><path style="opacity:1" fill="#969699" d="M 271.5,127.5 C 254.167,127.5 236.833,127.5 219.5,127.5C 236.992,126.503 254.659,126.17 272.5,126.5C 272.819,121.637 272.486,116.97 271.5,112.5C 271.709,111.078 272.209,109.745 273,108.5C 273.167,111.667 273.333,114.833 273.5,118C 273.485,121.576 272.818,124.742 271.5,127.5 Z"/></g>
<g><path style="opacity:1" fill="#f3f3f3" d="M 219.5,127.5 C 236.833,127.5 254.167,127.5 271.5,127.5C 272.11,128.391 272.443,129.391 272.5,130.5C 257.657,130.171 242.99,130.504 228.5,131.5C 206.5,132.167 184.5,132.833 162.5,133.5C 162.5,132.167 162.5,130.833 162.5,129.5C 181.521,129.365 200.521,128.699 219.5,127.5 Z"/></g>
<g><path style="opacity:1" fill="#9e9ea1" d="M 228.5,131.5 C 242.99,130.504 257.657,130.171 272.5,130.5C 273.495,141.654 273.828,152.988 273.5,164.5C 272.505,153.679 272.172,142.679 272.5,131.5C 259.167,131.5 245.833,131.5 232.5,131.5C 231.167,131.5 229.833,131.5 228.5,131.5 Z"/></g>
<g><path style="opacity:1" fill="#aa5b48" d="M 96.5,134.5 C 96.4111,138.3 97.0778,141.966 98.5,145.5C 98.4573,146.416 98.1239,147.083 97.5,147.5C 96.7349,144.367 96.0683,141.2 95.5,138C 95.5143,136.615 95.8476,135.449 96.5,134.5 Z"/></g>
<g><path style="opacity:1" fill="#595a60" d="M 228.5,131.5 C 229.833,131.5 231.167,131.5 232.5,131.5C 232.082,132.222 231.416,132.722 230.5,133C 231.5,133.333 232.5,133.667 233.5,134C 230.86,134.839 228.527,134.339 226.5,132.5C 226.167,133 225.833,133.5 225.5,134C 226.721,135.982 228.388,137.482 230.5,138.5C 227.678,141.213 228.178,143.213 232,144.5C 232.333,143.167 232.667,141.833 233,140.5C 233.667,143.167 234.333,143.167 235,140.5C 235.357,143.856 234.191,146.689 231.5,149C 232.571,150.825 231.904,151.992 229.5,152.5C 229.167,152 228.833,151.5 228.5,151C 229.62,149.444 230.62,147.944 231.5,146.5C 229.728,143.723 227.895,143.39 226,145.5C 226.29,148.413 226.457,151.413 226.5,154.5C 227.5,154.5 228.5,154.5 229.5,154.5C 229.372,156.655 229.872,158.655 231,160.5C 231.232,159.263 231.732,158.263 232.5,157.5C 232.285,159.179 232.952,160.179 234.5,160.5C 232.316,162.957 229.982,162.957 227.5,160.5C 226.77,162.045 225.437,162.878 223.5,163C 224.167,163.333 224.833,163.667 225.5,164C 223.951,165.214 222.785,166.714 222,168.5C 221.517,167.552 221.351,166.552 221.5,165.5C 220.5,165.5 219.5,165.5 218.5,165.5C 218.198,162.941 218.532,160.607 219.5,158.5C 219.369,159.239 219.536,159.906 220,160.5C 221.498,157.535 221.665,154.535 220.5,151.5C 218.358,152.437 218.024,153.77 219.5,155.5C 217.952,155.821 217.285,156.821 217.5,158.5C 215.5,158.5 213.5,158.5 211.5,158.5C 211.5,159.5 211.5,160.5 211.5,161.5C 210.5,161.5 209.5,161.5 208.5,161.5C 208.216,159.585 208.549,157.919 209.5,156.5C 209.343,157.873 209.51,159.207 210,160.5C 211.498,157.535 211.665,154.535 210.5,151.5C 209.571,152.689 209.238,154.022 209.5,155.5C 208.833,155.5 208.167,155.5 207.5,155.5C 207.762,154.022 207.429,152.689 206.5,151.5C 205.83,153.291 205.163,154.958 204.5,156.5C 204.19,155.262 203.69,155.262 203,156.5C 201.07,152.67 202.237,149.837 206.5,148C 204.925,148.379 203.425,148.212 202,147.5C 200.682,150.477 199.182,153.31 197.5,156C 199.359,156.601 199.692,157.434 198.5,158.5C 195.316,155.529 191.983,155.196 188.5,157.5C 187.348,156.375 186.348,156.375 185.5,157.5C 184.542,157.953 183.708,158.619 183,159.5C 182.801,157.598 181.967,156.098 180.5,155C 181.93,153.12 181.596,151.62 179.5,150.5C 177.689,151.736 175.856,151.736 174,150.5C 171.474,151.128 170.641,152.461 171.5,154.5C 172.192,153.975 172.692,153.308 173,152.5C 173.333,155.5 173.667,158.5 174,161.5C 174.49,160.207 174.657,158.873 174.5,157.5C 175.833,157.5 177.167,157.5 178.5,157.5C 178.5,158.5 178.5,159.5 178.5,160.5C 180.5,160.5 182.5,160.5 184.5,160.5C 184.5,161.5 184.5,162.5 184.5,163.5C 183.849,162.909 183.182,162.243 182.5,161.5C 181.521,164.953 180.021,165.286 178,162.5C 175.894,164.291 173.394,164.958 170.5,164.5C 166.204,162.404 164.371,159.07 165,154.5C 166.94,152.955 168.106,150.955 168.5,148.5C 167.196,144.56 165.363,140.893 163,137.5C 162.51,136.207 162.343,134.873 162.5,133.5C 184.5,132.833 206.5,132.167 228.5,131.5 Z"/></g>
<g><path style="opacity:1" fill="#d5d6d9" d="M 188.5,157.5 C 188.5,158.167 188.5,158.833 188.5,159.5C 189.084,162.285 188.084,163.952 185.5,164.5C 186.833,162.167 186.833,159.833 185.5,157.5C 186.348,156.375 187.348,156.375 188.5,157.5 Z"/></g>
<g><path style="opacity:1" fill="#9fa1a4" d="M 198.5,158.5 C 197.735,159.66 196.735,160.66 195.5,161.5C 193.199,160.675 190.865,160.008 188.5,159.5C 188.5,158.833 188.5,158.167 188.5,157.5C 191.983,155.196 195.316,155.529 198.5,158.5 Z"/></g>
<g><path style="opacity:1" fill="#a0a2a5" d="M 185.5,157.5 C 186.833,159.833 186.833,162.167 185.5,164.5C 184.833,164.5 184.5,164.167 184.5,163.5C 184.5,162.5 184.5,161.5 184.5,160.5C 182.5,160.5 180.5,160.5 178.5,160.5C 178.5,159.5 178.5,158.5 178.5,157.5C 177.167,157.5 175.833,157.5 174.5,157.5C 174.657,158.873 174.49,160.207 174,161.5C 173.667,158.5 173.333,155.5 173,152.5C 172.692,153.308 172.192,153.975 171.5,154.5C 170.641,152.461 171.474,151.128 174,150.5C 175.856,151.736 177.689,151.736 179.5,150.5C 181.596,151.62 181.93,153.12 180.5,155C 181.967,156.098 182.801,157.598 183,159.5C 183.708,158.619 184.542,157.953 185.5,157.5 Z"/></g>
<g><path style="opacity:1" fill="#e86240" d="M 129.5,108.5 C 130.5,108.5 131.5,108.5 132.5,108.5C 134.5,108.5 136.5,108.5 138.5,108.5C 138.973,109.906 139.973,110.573 141.5,110.5C 141.833,111.5 142.5,112.167 143.5,112.5C 145.598,113.935 147.931,115.102 150.5,116C 152.608,120.071 155.941,122.738 160.5,124C 162.155,125.444 162.822,127.278 162.5,129.5C 162.5,130.833 162.5,132.167 162.5,133.5C 162.343,134.873 162.51,136.207 163,137.5C 165.363,140.893 167.196,144.56 168.5,148.5C 168.106,150.955 166.94,152.955 165,154.5C 164.371,159.07 166.204,162.404 170.5,164.5C 170.693,168.013 170.026,171.346 168.5,174.5C 168.685,175.584 169.018,176.584 169.5,177.5C 168.562,181.43 166.895,185.43 164.5,189.5C 163.833,186.5 163.167,183.5 162.5,180.5C 160.809,178.744 158.809,178.244 156.5,179C 157.328,179.915 158.328,180.581 159.5,181C 157.273,182.835 155.44,182.335 154,179.5C 154.619,177.398 155.453,175.231 156.5,173C 155.874,172.25 155.374,171.416 155,170.5C 153.377,173.327 152.21,176.327 151.5,179.5C 152.781,181.6 154.448,183.266 156.5,184.5C 157.221,186.686 157.887,188.853 158.5,191C 156.065,192.715 153.398,193.882 150.5,194.5C 150.5,195.833 150.5,197.167 150.5,198.5C 149.448,198.649 148.448,198.483 147.5,198C 148.531,194.471 150.531,191.638 153.5,189.5C 152.306,187.569 150.639,186.736 148.5,187C 147.333,189.5 145.5,191.333 143,192.5C 143.04,196.223 143.373,199.889 144,203.5C 142.245,204.67 141.245,206.337 141,208.5C 140.578,206.574 139.411,205.574 137.5,205.5C 138.927,201.812 138.594,198.312 136.5,195C 137.625,192.378 138.959,189.878 140.5,187.5C 139.317,183.45 137.651,179.617 135.5,176C 134.713,173.901 134.38,171.734 134.5,169.5C 137.141,170.263 139.808,170.43 142.5,170C 147.542,164.468 151.542,158.302 154.5,151.5C 155.047,147.022 155.047,142.355 154.5,137.5C 155.341,135.621 155.675,133.621 155.5,131.5C 153.5,131.5 151.5,131.5 149.5,131.5C 150.209,130.596 151.209,130.263 152.5,130.5C 152.66,128.801 152.494,127.134 152,125.5C 151.107,124.919 150.107,124.585 149,124.5C 142.513,126.662 136.013,128.829 129.5,131C 131.974,131.037 133.974,131.87 135.5,133.5C 132.167,133.5 128.833,133.5 125.5,133.5C 122.282,131.816 119.615,132.483 117.5,135.5C 115.397,136.65 113.397,137.983 111.5,139.5C 111.833,139.833 112.167,140.167 112.5,140.5C 114.075,139.544 115.742,138.877 117.5,138.5C 117.517,140.565 117.85,142.565 118.5,144.5C 116.964,146.025 115.964,148.025 115.5,150.5C 114.065,149.176 113.065,147.51 112.5,145.5C 110.776,144.339 109.11,144.505 107.5,146C 103.987,149.095 101.987,152.928 101.5,157.5C 105.547,157.465 108.214,155.465 109.5,151.5C 110.689,150.571 112.022,150.238 113.5,150.5C 112.339,153.478 111.005,156.478 109.5,159.5C 109.809,162.492 111.476,163.825 114.5,163.5C 114.351,164.552 114.517,165.552 115,166.5C 116.905,165.842 118.405,164.675 119.5,163C 117.392,160.984 117.058,158.817 118.5,156.5C 118.483,159.991 119.983,162.658 123,164.5C 124.042,170.155 121.708,173.822 116,175.5C 115.322,177.598 115.489,179.598 116.5,181.5C 115.521,182.765 114.521,184.099 113.5,185.5C 114.497,187.811 114.997,190.144 115,192.5C 114.667,192.167 114.333,191.833 114,191.5C 113.311,192.357 112.478,193.023 111.5,193.5C 110.28,192.289 109.113,192.289 108,193.5C 107.82,191.512 107.986,189.512 108.5,187.5C 106.167,187.5 103.833,187.5 101.5,187.5C 100.599,184.128 100.599,180.795 101.5,177.5C 103.838,174.329 106.671,171.662 110,169.5C 110.779,167.094 109.946,165.427 107.5,164.5C 106.985,162.775 106.318,161.108 105.5,159.5C 104.833,160.5 104.167,161.5 103.5,162.5C 102.094,161.332 100.928,161.665 100,163.5C 98.6532,159.625 97.4865,159.625 96.5,163.5C 95.7492,162.624 95.2492,161.624 95,160.5C 94.3333,161.833 93.6667,161.833 93,160.5C 91.9656,152.949 90.7989,153.282 89.5,161.5C 88.2355,159.228 88.4022,156.895 90,154.5C 92.9985,152.667 95.4985,150.334 97.5,147.5C 98.1239,147.083 98.4573,146.416 98.5,145.5C 97.0778,141.966 96.4111,138.3 96.5,134.5C 96.6287,132.784 96.962,131.117 97.5,129.5C 99.2644,128.674 100.598,127.341 101.5,125.5C 103.379,124.659 105.379,124.325 107.5,124.5C 108.496,124.586 109.329,124.252 110,123.5C 110.874,119.712 112.041,116.046 113.5,112.5C 113.5,112.167 113.5,111.833 113.5,111.5C 118.783,111.904 123.783,111.238 128.5,109.5C 128.5,108.833 128.833,108.5 129.5,108.5 Z"/></g>
<g><path style="opacity:1" fill="#ef603a" d="M 118.5,144.5 C 119.167,146.167 119.833,147.833 120.5,149.5C 120.6,152.108 119.933,154.442 118.5,156.5C 117.058,158.817 117.392,160.984 119.5,163C 118.405,164.675 116.905,165.842 115,166.5C 114.517,165.552 114.351,164.552 114.5,163.5C 111.476,163.825 109.809,162.492 109.5,159.5C 111.005,156.478 112.339,153.478 113.5,150.5C 112.022,150.238 110.689,150.571 109.5,151.5C 108.214,155.465 105.547,157.465 101.5,157.5C 101.987,152.928 103.987,149.095 107.5,146C 109.11,144.505 110.776,144.339 112.5,145.5C 113.065,147.51 114.065,149.176 115.5,150.5C 115.964,148.025 116.964,146.025 118.5,144.5 Z"/></g>
<g><path style="opacity:1" fill="#eab49c" d="M 153.5,137.5 C 153.108,140.315 152.108,142.815 150.5,145C 150.424,147.756 151.757,148.923 154.5,148.5C 154.5,149.5 154.5,150.5 154.5,151.5C 151.542,158.302 147.542,164.468 142.5,170C 139.808,170.43 137.141,170.263 134.5,169.5C 134.38,171.734 134.713,173.901 135.5,176C 137.651,179.617 139.317,183.45 140.5,187.5C 134.619,192.362 127.952,193.695 120.5,191.5C 125.26,185.907 123.927,182.574 116.5,181.5C 115.489,179.598 115.322,177.598 116,175.5C 121.708,173.822 124.042,170.155 123,164.5C 119.983,162.658 118.483,159.991 118.5,156.5C 119.933,154.442 120.6,152.108 120.5,149.5C 123.173,150.703 125.84,150.703 128.5,149.5C 129.631,147.926 129.798,146.259 129,144.5C 125.534,143.283 122.034,143.283 118.5,144.5C 117.85,142.565 117.517,140.565 117.5,138.5C 120.463,135.537 122.796,136.037 124.5,140C 130.35,141.012 136.016,140.512 141.5,138.5C 145.749,140.063 149.749,139.73 153.5,137.5 Z"/></g>
<g><path style="opacity:1" fill="#ee987a" d="M 120.5,149.5 C 119.833,147.833 119.167,146.167 118.5,144.5C 122.034,143.283 125.534,143.283 129,144.5C 129.798,146.259 129.631,147.926 128.5,149.5C 125.84,150.703 123.173,150.703 120.5,149.5 Z"/></g>
<g><path style="opacity:1" fill="#86695d" d="M 142.5,144.5 C 144.369,146.635 145.036,149.302 144.5,152.5C 142.801,152.66 141.134,152.494 139.5,152C 140.448,151.517 141.448,151.351 142.5,151.5C 142.5,149.167 142.5,146.833 142.5,144.5 Z"/></g>
<g><path style="opacity:1" fill="#ee8d6d" d="M 153.5,137.5 C 153.833,137.5 154.167,137.5 154.5,137.5C 155.047,142.355 155.047,147.022 154.5,151.5C 154.5,150.5 154.5,149.5 154.5,148.5C 151.757,148.923 150.424,147.756 150.5,145C 152.108,142.815 153.108,140.315 153.5,137.5 Z"/></g>
<g><path style="opacity:1" fill="#7c5c51" d="M 149.5,131.5 C 151.5,131.5 153.5,131.5 155.5,131.5C 155.675,133.621 155.341,135.621 154.5,137.5C 154.167,137.5 153.833,137.5 153.5,137.5C 149.749,139.73 145.749,140.063 141.5,138.5C 136.016,140.512 130.35,141.012 124.5,140C 122.796,136.037 120.463,135.537 117.5,138.5C 115.742,138.877 114.075,139.544 112.5,140.5C 112.167,140.167 111.833,139.833 111.5,139.5C 113.397,137.983 115.397,136.65 117.5,135.5C 120.006,134.25 122.673,133.584 125.5,133.5C 128.833,133.5 132.167,133.5 135.5,133.5C 136.742,134.043 138.075,134.377 139.5,134.5C 142.845,133.492 146.178,132.492 149.5,131.5 Z"/></g>
<g><path style="opacity:1" fill="#c49986" d="M 124.5,134.5 C 127.167,134.5 129.833,134.5 132.5,134.5C 132.622,138.838 132.955,139.172 133.5,135.5C 135.655,135.372 137.655,135.872 139.5,137C 138.833,137.667 138.167,138.333 137.5,139C 133.5,139.667 129.5,139.667 125.5,139C 124.62,137.644 124.286,136.144 124.5,134.5 Z"/></g>
<g><path style="opacity:1" fill="#e2a992" d="M 148.5,132.5 C 150.167,132.5 151.833,132.5 153.5,132.5C 153.5,133.833 153.5,135.167 153.5,136.5C 151.857,136.52 150.524,135.853 149.5,134.5C 148.614,135.325 148.281,136.325 148.5,137.5C 146.833,137.5 145.167,137.5 143.5,137.5C 143.5,136.5 143.5,135.5 143.5,134.5C 145.553,134.598 147.22,133.931 148.5,132.5 Z"/></g>
<g><path style="opacity:1" fill="#eaa78c" d="M 125.5,133.5 C 122.673,133.584 120.006,134.25 117.5,135.5C 119.615,132.483 122.282,131.816 125.5,133.5 Z"/></g>
<g><path style="opacity:1" fill="#eeb49d" d="M 149.5,131.5 C 146.178,132.492 142.845,133.492 139.5,134.5C 138.075,134.377 136.742,134.043 135.5,133.5C 133.974,131.87 131.974,131.037 129.5,131C 136.013,128.829 142.513,126.662 149,124.5C 150.107,124.585 151.107,124.919 152,125.5C 152.494,127.134 152.66,128.801 152.5,130.5C 151.209,130.263 150.209,130.596 149.5,131.5 Z"/></g>
<g><path style="opacity:1" fill="#363030" d="M 143.5,156.5 C 146.196,158.597 145.862,160.43 142.5,162C 139.208,162.896 136.875,161.729 135.5,158.5C 138.306,157.832 140.972,157.166 143.5,156.5 Z"/></g>
<g><path style="opacity:1" fill="#b8b3b4" d="M 172.5,179.5 C 175.423,180.453 178.256,180.786 181,180.5C 180.692,183.635 178.859,185.302 175.5,185.5C 174.912,191.146 174.246,191.479 173.5,186.5C 174.938,183.917 174.604,181.583 172.5,179.5 Z"/></g>
<g><path style="opacity:1" fill="#b1b2b4" d="M 273.5,172.5 C 273.833,172.5 274.167,172.5 274.5,172.5C 275.167,178.5 275.833,184.5 276.5,190.5C 275.167,190.5 273.833,190.5 272.5,190.5C 272.738,186.901 271.738,186.567 269.5,189.5C 264.416,186.693 260.75,188.026 258.5,193.5C 257.005,193.585 256.005,192.919 255.5,191.5C 256.348,189.591 256.682,187.591 256.5,185.5C 260.437,185.207 264.27,185.54 268,186.5C 269.789,184.771 271.956,184.104 274.5,184.5C 273.838,180.534 273.505,176.534 273.5,172.5 Z"/></g>
<g><path style="opacity:1" fill="#ee613c" d="M 169.5,177.5 C 169.973,178.906 170.973,179.573 172.5,179.5C 174.604,181.583 174.938,183.917 173.5,186.5C 169.261,188.358 167.927,191.358 169.5,195.5C 169.415,197.929 168.415,199.929 166.5,201.5C 163.163,198.276 159.163,196.609 154.5,196.5C 154.5,198.5 154.5,200.5 154.5,202.5C 148.769,202.231 146.102,204.898 146.5,210.5C 141.561,209.352 138.061,211.019 136,215.5C 132.617,211.676 133.117,208.343 137.5,205.5C 139.411,205.574 140.578,206.574 141,208.5C 141.245,206.337 142.245,204.67 144,203.5C 143.373,199.889 143.04,196.223 143,192.5C 145.5,191.333 147.333,189.5 148.5,187C 150.639,186.736 152.306,187.569 153.5,189.5C 150.531,191.638 148.531,194.471 147.5,198C 148.448,198.483 149.448,198.649 150.5,198.5C 150.5,197.167 150.5,195.833 150.5,194.5C 153.398,193.882 156.065,192.715 158.5,191C 157.887,188.853 157.221,186.686 156.5,184.5C 154.448,183.266 152.781,181.6 151.5,179.5C 152.21,176.327 153.377,173.327 155,170.5C 155.374,171.416 155.874,172.25 156.5,173C 155.453,175.231 154.619,177.398 154,179.5C 155.44,182.335 157.273,182.835 159.5,181C 158.328,180.581 157.328,179.915 156.5,179C 158.809,178.244 160.809,178.744 162.5,180.5C 163.167,183.5 163.833,186.5 164.5,189.5C 166.895,185.43 168.562,181.43 169.5,177.5 Z"/></g>
<g><path style="opacity:1" fill="#ee623d" d="M 116.5,181.5 C 123.927,182.574 125.26,185.907 120.5,191.5C 119.542,191.953 118.708,192.619 118,193.5C 116.071,199.107 117.905,202.44 123.5,203.5C 123.799,205.604 123.466,207.604 122.5,209.5C 118.215,211.104 115.882,214.104 115.5,218.5C 114.325,218.719 113.325,218.386 112.5,217.5C 112.025,214.247 111.025,211.247 109.5,208.5C 105.688,207.676 101.688,207.176 97.5,207C 96.9341,206.005 96.2674,205.172 95.5,204.5C 95.1667,203.833 94.8333,203.167 94.5,202.5C 94.2749,198.944 95.1082,198.61 97,201.5C 98.2575,201.15 98.5908,200.483 98,199.5C 95.595,198.726 93.095,198.226 90.5,198C 89.39,194.084 91.0567,192.084 95.5,192C 97.0097,190.649 98.0097,188.982 98.5,187C 97.6667,184.5 96.8333,182 96,179.5C 95.2496,178.874 94.4162,178.374 93.5,178C 94.6872,176.981 95.6872,175.814 96.5,174.5C 94.3886,173.152 92.5553,173.485 91,175.5C 90.5348,174.069 89.7014,172.903 88.5,172C 89.9423,171.623 90.9423,170.79 91.5,169.5C 91.4162,166.673 90.7496,164.006 89.5,161.5C 90.7989,153.282 91.9656,152.949 93,160.5C 93.6667,161.833 94.3333,161.833 95,160.5C 95.2492,161.624 95.7492,162.624 96.5,163.5C 97.4865,159.625 98.6532,159.625 100,163.5C 100.928,161.665 102.094,161.332 103.5,162.5C 104.167,161.5 104.833,160.5 105.5,159.5C 106.318,161.108 106.985,162.775 107.5,164.5C 109.946,165.427 110.779,167.094 110,169.5C 106.671,171.662 103.838,174.329 101.5,177.5C 100.599,180.795 100.599,184.128 101.5,187.5C 103.833,187.5 106.167,187.5 108.5,187.5C 107.986,189.512 107.82,191.512 108,193.5C 109.113,192.289 110.28,192.289 111.5,193.5C 112.478,193.023 113.311,192.357 114,191.5C 114.333,191.833 114.667,192.167 115,192.5C 114.997,190.144 114.497,187.811 113.5,185.5C 114.521,184.099 115.521,182.765 116.5,181.5 Z"/></g>
<g><path style="opacity:1" fill="#5b5c61" d="M 276.5,190.5 C 277.167,198.167 277.833,205.833 278.5,213.5C 273.469,213.802 268.302,213.802 263,213.5C 261.795,214.071 260.628,214.738 259.5,215.5C 259.92,217.326 259.92,219.326 259.5,221.5C 258.842,220.602 258.176,219.602 257.5,218.5C 255.684,219.735 254.017,219.735 252.5,218.5C 253.434,217.432 253.768,216.099 253.5,214.5C 251.193,214.986 249.027,214.986 247,214.5C 246.275,216.157 246.775,217.157 248.5,217.5C 247.791,218.404 246.791,218.737 245.5,218.5C 245.649,217.448 245.483,216.448 245,215.5C 242.385,217.708 239.551,218.375 236.5,217.5C 235.316,216.312 235.316,215.145 236.5,214C 235.906,213.536 235.239,213.369 234.5,213.5C 235.542,212.209 236.708,212.209 238,213.5C 239.845,210.598 242.012,208.765 244.5,208C 244.167,207.667 243.833,207.333 243.5,207C 244.448,206.517 245.448,206.351 246.5,206.5C 246.312,204.897 246.812,203.563 248,202.5C 248.317,204.301 248.984,204.634 250,203.5C 250.36,201.392 251.027,199.392 252,197.5C 255.997,199.355 258.163,198.022 258.5,193.5C 260.75,188.026 264.416,186.693 269.5,189.5C 271.738,186.567 272.738,186.901 272.5,190.5C 273.833,190.5 275.167,190.5 276.5,190.5 Z"/></g>
<g><path style="opacity:1" fill="#e96341" d="M 91.5,169.5 C 90.9423,170.79 89.9423,171.623 88.5,172C 89.7014,172.903 90.5348,174.069 91,175.5C 92.5553,173.485 94.3886,173.152 96.5,174.5C 95.6872,175.814 94.6872,176.981 93.5,178C 94.4162,178.374 95.2496,178.874 96,179.5C 96.8333,182 97.6667,184.5 98.5,187C 98.0097,188.982 97.0097,190.649 95.5,192C 91.0567,192.084 89.39,194.084 90.5,198C 93.095,198.226 95.595,198.726 98,199.5C 98.5908,200.483 98.2575,201.15 97,201.5C 95.1082,198.61 94.2749,198.944 94.5,202.5C 90.2411,202.102 88.4078,204.102 89,208.5C 87.8904,210.037 86.3904,210.703 84.5,210.5C 83.8333,210.5 83.5,210.167 83.5,209.5C 82.8951,206.873 82.3951,204.207 82,201.5C 80.9887,200.663 79.8221,200.33 78.5,200.5C 78.6584,197.639 77.9917,194.972 76.5,192.5C 78.0662,189.425 80.2329,186.758 83,184.5C 82.8922,180.843 82.8922,177.177 83,173.5C 85.4214,171.303 88.2548,169.97 91.5,169.5 Z"/></g>
<g><path style="opacity:1" fill="#ebb59e" d="M 211.5,209.5 C 210.624,209.369 209.957,209.702 209.5,210.5C 208.68,212.974 207.68,215.307 206.5,217.5C 203.408,221.822 199.741,225.655 195.5,229C 183.193,235.174 174.193,232.008 168.5,219.5C 170.823,215.676 174.156,213.343 178.5,212.5C 178.5,211.5 178.5,210.5 178.5,209.5C 180.177,212.092 181.343,215.092 182,218.5C 182.977,219.774 183.811,219.774 184.5,218.5C 186.819,218.008 188.819,217.008 190.5,215.5C 191.995,215.011 193.329,214.345 194.5,213.5C 199.955,209.885 205.288,206.052 210.5,202C 215.343,198.829 220.509,196.329 226,194.5C 226.833,194.667 227.667,194.833 228.5,195C 226.468,196.675 224.468,198.342 222.5,200C 225.366,201.696 226.7,204.196 226.5,207.5C 221.74,209.24 216.74,209.906 211.5,209.5 Z"/></g>
<g><path style="opacity:1" fill="#a8a9ad" d="M 234.5,213.5 C 235.239,213.369 235.906,213.536 236.5,214C 235.316,215.145 235.316,216.312 236.5,217.5C 235.417,217.461 234.417,217.127 233.5,216.5C 233.295,220.375 231.295,222.041 227.5,221.5C 226.095,218.964 224.595,216.63 223,214.5C 223.414,214.043 223.914,213.709 224.5,213.5C 225.167,214.5 225.833,215.5 226.5,216.5C 227.551,215.115 228.884,214.115 230.5,213.5C 231.865,214.807 233.198,214.807 234.5,213.5 Z"/></g>
<g><path style="opacity:1" fill="#afafb2" d="M 278.5,213.5 C 279.657,222.324 279.824,231.324 279,240.5C 278.79,242.058 278.29,243.391 277.5,244.5C 278.521,236.158 278.521,227.824 277.5,219.5C 274.719,218.093 271.886,216.76 269,215.5C 267.806,217.525 266.306,217.859 264.5,216.5C 264.302,219.785 262.635,221.452 259.5,221.5C 259.92,219.326 259.92,217.326 259.5,215.5C 260.628,214.738 261.795,214.071 263,213.5C 268.302,213.802 273.469,213.802 278.5,213.5 Z"/></g>
<g><path style="opacity:1" fill="#bcbdbf" d="M 252.5,218.5 C 251.432,217.566 250.099,217.232 248.5,217.5C 246.775,217.157 246.275,216.157 247,214.5C 249.027,214.986 251.193,214.986 253.5,214.5C 253.768,216.099 253.434,217.432 252.5,218.5 Z"/></g>
<g><path style="opacity:1" fill="#535459" d="M 232.5,131.5 C 245.833,131.5 259.167,131.5 272.5,131.5C 272.172,142.679 272.505,153.679 273.5,164.5C 273.5,167.167 273.5,169.833 273.5,172.5C 273.505,176.534 273.838,180.534 274.5,184.5C 271.956,184.104 269.789,184.771 268,186.5C 264.27,185.54 260.437,185.207 256.5,185.5C 256.682,187.591 256.348,189.591 255.5,191.5C 256.005,192.919 257.005,193.585 258.5,193.5C 258.163,198.022 255.997,199.355 252,197.5C 251.027,199.392 250.36,201.392 250,203.5C 248.984,204.634 248.317,204.301 248,202.5C 246.812,203.563 246.312,204.897 246.5,206.5C 245.448,206.351 244.448,206.517 243.5,207C 243.833,207.333 244.167,207.667 244.5,208C 242.012,208.765 239.845,210.598 238,213.5C 236.708,212.209 235.542,212.209 234.5,213.5C 233.198,214.807 231.865,214.807 230.5,213.5C 228.884,214.115 227.551,215.115 226.5,216.5C 225.833,215.5 225.167,214.5 224.5,213.5C 223.914,213.709 223.414,214.043 223,214.5C 224.595,216.63 226.095,218.964 227.5,221.5C 231.295,222.041 233.295,220.375 233.5,216.5C 234.417,217.127 235.417,217.461 236.5,217.5C 239.551,218.375 242.385,217.708 245,215.5C 245.483,216.448 245.649,217.448 245.5,218.5C 246.791,218.737 247.791,218.404 248.5,217.5C 250.099,217.232 251.432,217.566 252.5,218.5C 254.017,219.735 255.684,219.735 257.5,218.5C 258.176,219.602 258.842,220.602 259.5,221.5C 262.635,221.452 264.302,219.785 264.5,216.5C 266.306,217.859 267.806,217.525 269,215.5C 271.886,216.76 274.719,218.093 277.5,219.5C 278.521,227.824 278.521,236.158 277.5,244.5C 276.991,249.703 275.324,254.37 272.5,258.5C 235.197,259.481 197.864,259.815 160.5,259.5C 160.5,260.5 160.5,261.5 160.5,262.5C 159.487,259.487 157.487,257.487 154.5,256.5C 155.091,255.849 155.757,255.182 156.5,254.5C 153.987,250.149 152.653,245.482 152.5,240.5C 154.815,232.005 156.482,223.339 157.5,214.5C 159.984,216.483 162.317,218.65 164.5,221C 166.193,221.484 167.527,220.984 168.5,219.5C 174.193,232.008 183.193,235.174 195.5,229C 199.741,225.655 203.408,221.822 206.5,217.5C 207.376,217.631 208.043,217.298 208.5,216.5C 210.02,214.338 211.02,212.005 211.5,209.5C 216.74,209.906 221.74,209.24 226.5,207.5C 226.7,204.196 225.366,201.696 222.5,200C 224.468,198.342 226.468,196.675 228.5,195C 227.667,194.833 226.833,194.667 226,194.5C 220.509,196.329 215.343,198.829 210.5,202C 205.288,206.052 199.955,209.885 194.5,213.5C 194.062,213.565 193.728,213.399 193.5,213C 197.174,210.843 196.507,210.01 191.5,210.5C 191.371,212.216 191.038,213.883 190.5,215.5C 189.417,215.461 188.417,215.127 187.5,214.5C 186.808,215.025 186.308,215.692 186,216.5C 185.585,214.709 184.585,213.376 183,212.5C 182.262,214.881 182.762,216.881 184.5,218.5C 183.811,219.774 182.977,219.774 182,218.5C 181.343,215.092 180.177,212.092 178.5,209.5C 174.473,205.435 171.473,200.768 169.5,195.5C 167.927,191.358 169.261,188.358 173.5,186.5C 174.246,191.479 174.912,191.146 175.5,185.5C 178.859,185.302 180.692,183.635 181,180.5C 178.256,180.786 175.423,180.453 172.5,179.5C 170.973,179.573 169.973,178.906 169.5,177.5C 169.018,176.584 168.685,175.584 168.5,174.5C 170.026,171.346 170.693,168.013 170.5,164.5C 173.394,164.958 175.894,164.291 178,162.5C 180.021,165.286 181.521,164.953 182.5,161.5C 183.182,162.243 183.849,162.909 184.5,163.5C 184.5,164.167 184.833,164.5 185.5,164.5C 188.084,163.952 189.084,162.285 188.5,159.5C 190.865,160.008 193.199,160.675 195.5,161.5C 196.735,160.66 197.735,159.66 198.5,158.5C 199.692,157.434 199.359,156.601 197.5,156C 199.182,153.31 200.682,150.477 202,147.5C 203.425,148.212 204.925,148.379 206.5,148C 202.237,149.837 201.07,152.67 203,156.5C 203.69,155.262 204.19,155.262 204.5,156.5C 204.215,158.288 204.548,159.955 205.5,161.5C 206.295,159.505 206.961,157.505 207.5,155.5C 208.167,155.5 208.833,155.5 209.5,155.5C 209.5,155.833 209.5,156.167 209.5,156.5C 208.549,157.919 208.216,159.585 208.5,161.5C 209.5,161.5 210.5,161.5 211.5,161.5C 211.5,160.5 211.5,159.5 211.5,158.5C 213.5,158.5 215.5,158.5 217.5,158.5C 217.285,156.821 217.952,155.821 219.5,155.5C 219.5,156.5 219.5,157.5 219.5,158.5C 218.532,160.607 218.198,162.941 218.5,165.5C 219.5,165.5 220.5,165.5 221.5,165.5C 221.351,166.552 221.517,167.552 222,168.5C 222.785,166.714 223.951,165.214 225.5,164C 224.833,163.667 224.167,163.333 223.5,163C 225.437,162.878 226.77,162.045 227.5,160.5C 229.982,162.957 232.316,162.957 234.5,160.5C 236.575,160.698 238.575,160.865 240.5,161C 239.62,159.644 239.286,158.144 239.5,156.5C 237.549,156.227 236.049,156.893 235,158.5C 234.399,156.641 233.566,156.308 232.5,157.5C 231.732,158.263 231.232,159.263 231,160.5C 229.872,158.655 229.372,156.655 229.5,154.5C 228.5,154.5 227.5,154.5 226.5,154.5C 226.457,151.413 226.29,148.413 226,145.5C 227.895,143.39 229.728,143.723 231.5,146.5C 230.62,147.944 229.62,149.444 228.5,151C 228.833,151.5 229.167,152 229.5,152.5C 231.904,151.992 232.571,150.825 231.5,149C 234.191,146.689 235.357,143.856 235,140.5C 234.333,143.167 233.667,143.167 233,140.5C 232.667,141.833 232.333,143.167 232,144.5C 228.178,143.213 227.678,141.213 230.5,138.5C 228.388,137.482 226.721,135.982 225.5,134C 225.833,133.5 226.167,133 226.5,132.5C 228.527,134.339 230.86,134.839 233.5,134C 232.5,133.667 231.5,133.333 230.5,133C 231.416,132.722 232.082,132.222 232.5,131.5 Z"/></g>
<g><path style="opacity:1" fill="#b4b4b6" d="M 190.5,215.5 C 188.819,217.008 186.819,218.008 184.5,218.5C 182.762,216.881 182.262,214.881 183,212.5C 184.585,213.376 185.585,214.709 186,216.5C 186.308,215.692 186.808,215.025 187.5,214.5C 188.417,215.127 189.417,215.461 190.5,215.5 Z"/></g>
<g><path style="opacity:1" fill="#b8babd" d="M 216.5,213.5 C 218.288,213.215 219.955,213.548 221.5,214.5C 217.891,222.772 216.224,222.439 216.5,213.5 Z"/></g>
<g><path style="opacity:1" fill="#d8cecc" d="M 211.5,209.5 C 211.02,212.005 210.02,214.338 208.5,216.5C 208.043,217.298 207.376,217.631 206.5,217.5C 207.68,215.307 208.68,212.974 209.5,210.5C 209.957,209.702 210.624,209.369 211.5,209.5 Z"/></g>
<g><path style="opacity:1" fill="#bdbbbf" d="M 194.5,213.5 C 193.329,214.345 191.995,215.011 190.5,215.5C 191.038,213.883 191.371,212.216 191.5,210.5C 196.507,210.01 197.174,210.843 193.5,213C 193.728,213.399 194.062,213.565 194.5,213.5 Z"/></g>
<g><path style="opacity:1" fill="#a4a5aa" d="M 242.5,185.5 C 244.995,185.969 247.661,185.969 250.5,185.5C 250.413,188.598 250.913,188.932 252,186.5C 252.783,188.319 252.283,189.652 250.5,190.5C 248.224,189.787 245.891,189.287 243.5,189C 242.663,187.989 242.33,186.822 242.5,185.5 Z"/></g>
<g><path style="opacity:1" fill="#919397" d="M 228.5,179.5 C 229.995,179.415 230.995,180.081 231.5,181.5C 230.833,183.167 230.167,184.833 229.5,186.5C 230.376,187.251 231.376,187.751 232.5,188C 230.697,190.103 228.364,190.936 225.5,190.5C 225.884,187.231 227.218,184.397 229.5,182C 228.262,182.077 227.262,181.911 226.5,181.5C 227.243,180.818 227.909,180.151 228.5,179.5 Z"/></g>
<g><path style="opacity:1" fill="#a4a6a9" d="M 186.5,184.5 C 187.458,184.953 188.292,185.619 189,186.5C 192.379,184.077 195.879,183.91 199.5,186C 197.963,187.11 197.297,188.61 197.5,190.5C 194.626,190.377 192.126,189.377 190,187.5C 189.995,190.229 188.829,192.229 186.5,193.5C 184.889,192.68 184.222,191.346 184.5,189.5C 181.412,189.803 179.746,188.47 179.5,185.5C 181.143,185.48 182.476,186.147 183.5,187.5C 184.855,186.812 185.855,185.812 186.5,184.5 Z"/></g>
<g><path style="opacity:1" fill="#bbbcbf" d="M 214.5,179.5 C 215.5,179.5 216.5,179.5 217.5,179.5C 217.831,183.505 216.497,186.838 213.5,189.5C 213.167,189.167 212.833,188.833 212.5,188.5C 213.38,186.571 214.38,184.737 215.5,183C 213.805,181.954 213.472,180.787 214.5,179.5 Z"/></g>
<g><path style="opacity:1" fill="#b8b8bd" d="M 206.5,179.5 C 207.5,179.5 208.5,179.5 209.5,179.5C 209.831,183.505 208.497,186.838 205.5,189.5C 205.167,189.167 204.833,188.833 204.5,188.5C 206.207,186.358 207.041,184.025 207,181.5C 206.282,182.451 205.449,182.617 204.5,182C 205.381,181.292 206.047,180.458 206.5,179.5 Z"/></g>
<g><path style="opacity:1" fill="#bfc0c3" d="M 234.5,180.5 C 235.239,180.369 235.906,180.536 236.5,181C 235.327,184.11 235.827,184.277 238,181.5C 238.333,183.047 237.833,184.38 236.5,185.5C 237.939,187.343 237.772,189.01 236,190.5C 235.641,187.456 234.974,187.122 234,189.5C 233.833,189 233.667,188.5 233.5,188C 234.094,185.427 234.427,182.927 234.5,180.5 Z"/></g>
<g><path style="opacity:1" fill="#abacb0" d="M 261.5,156.5 C 262.5,156.5 263.5,156.5 264.5,156.5C 264.351,157.552 264.517,158.552 265,159.5C 265.654,158.304 266.154,158.304 266.5,159.5C 265.833,160.833 264.833,161.833 263.5,162.5C 262.523,160.589 261.857,158.589 261.5,156.5 Z"/></g>
<g><path style="opacity:1" fill="#b7b8bc" d="M 248.5,156.5 C 252.282,157.62 256.282,157.62 260.5,156.5C 260.643,161.117 258.976,161.784 255.5,158.5C 254.18,160.27 252.68,160.603 251,159.5C 250.563,162.772 248.73,164.439 245.5,164.5C 245.597,161.406 246.597,158.74 248.5,156.5 Z"/></g>
<g><path style="opacity:1" fill="#a8a9ac" d="M 234.5,160.5 C 232.952,160.179 232.285,159.179 232.5,157.5C 233.566,156.308 234.399,156.641 235,158.5C 236.049,156.893 237.549,156.227 239.5,156.5C 239.286,158.144 239.62,159.644 240.5,161C 238.575,160.865 236.575,160.698 234.5,160.5 Z"/></g>
<g><path style="opacity:1" fill="#b2b3b8" d="M 207.5,155.5 C 206.961,157.505 206.295,159.505 205.5,161.5C 204.548,159.955 204.215,158.288 204.5,156.5C 205.163,154.958 205.83,153.291 206.5,151.5C 207.429,152.689 207.762,154.022 207.5,155.5 Z"/></g>
<g><path style="opacity:1" fill="#afb0b4" d="M 227.5,160.5 C 225.99,161.728 224.49,161.728 223,160.5C 222.062,157.12 222.729,154.12 225,151.5C 225.494,153.134 225.66,154.801 225.5,156.5C 226.5,156.5 227.5,156.5 228.5,156.5C 228.567,157.959 228.234,159.292 227.5,160.5 Z"/></g>
<g><path style="opacity:1" fill="#b2b3b7" d="M 209.5,156.5 C 209.5,156.167 209.5,155.833 209.5,155.5C 209.238,154.022 209.571,152.689 210.5,151.5C 211.665,154.535 211.498,157.535 210,160.5C 209.51,159.207 209.343,157.873 209.5,156.5 Z"/></g>
<g><path style="opacity:1" fill="#babbbf" d="M 219.5,158.5 C 219.5,157.5 219.5,156.5 219.5,155.5C 218.024,153.77 218.358,152.437 220.5,151.5C 221.665,154.535 221.498,157.535 220,160.5C 219.536,159.906 219.369,159.239 219.5,158.5 Z"/></g>
<g><path style="opacity:1" fill="#ebb8a1" d="M 81.5,226.5 C 85.7047,226.191 89.7047,226.857 93.5,228.5C 91.5805,232.269 91.0805,236.269 92,240.5C 97.6179,249.858 101.118,259.858 102.5,270.5C 103.147,275.461 105.147,279.794 108.5,283.5C 106.635,284.666 104.968,284.333 103.5,282.5C 102.425,284.811 102.425,287.144 103.5,289.5C 101.735,290.461 99.7354,290.795 97.5,290.5C 97.2172,289.711 96.7172,289.044 96,288.5C 95.7521,283.437 95.0855,278.437 94,273.5C 93.2917,272.619 92.4584,271.953 91.5,271.5C 90.6697,266.84 89.0031,262.507 86.5,258.5C 85.3676,254.24 83.7009,250.24 81.5,246.5C 80.746,241.537 80.4126,236.537 80.5,231.5C 80.2155,229.585 80.5489,227.919 81.5,226.5 Z"/></g>
<g><path style="opacity:1" fill="#58585c" d="M 105.5,257.5 C 103.882,261.689 102.882,266.022 102.5,270.5C 101.118,259.858 97.6179,249.858 92,240.5C 91.0805,236.269 91.5805,232.269 93.5,228.5C 94.7079,229.234 96.0413,229.567 97.5,229.5C 99.2545,220.3 101.254,220.3 103.5,229.5C 105.314,238.729 105.981,248.062 105.5,257.5 Z"/></g>
<g><path style="opacity:1" fill="#5d2413" d="M 140.5,187.5 C 138.959,189.878 137.625,192.378 136.5,195C 138.594,198.312 138.927,201.812 137.5,205.5C 133.117,208.343 132.617,211.676 136,215.5C 138.061,211.019 141.561,209.352 146.5,210.5C 146.102,204.898 148.769,202.231 154.5,202.5C 154.5,200.5 154.5,198.5 154.5,196.5C 159.163,196.609 163.163,198.276 166.5,201.5C 168.415,199.929 169.415,197.929 169.5,195.5C 171.473,200.768 174.473,205.435 178.5,209.5C 178.5,210.5 178.5,211.5 178.5,212.5C 174.156,213.343 170.823,215.676 168.5,219.5C 167.527,220.984 166.193,221.484 164.5,221C 162.317,218.65 159.984,216.483 157.5,214.5C 156.482,223.339 154.815,232.005 152.5,240.5C 152.653,245.482 153.987,250.149 156.5,254.5C 155.757,255.182 155.091,255.849 154.5,256.5C 150.167,257.167 145.833,257.833 141.5,258.5C 134.8,258.83 128.134,258.497 121.5,257.5C 120.253,255.958 120.253,254.458 121.5,253C 120.049,253.263 118.716,253.096 117.5,252.5C 118.859,250.694 118.525,249.194 116.5,248C 117.451,247.282 117.617,246.449 117,245.5C 114.836,247.48 113.336,249.813 112.5,252.5C 110.5,252.5 108.5,252.5 106.5,252.5C 106.176,248.445 106.509,244.445 107.5,240.5C 109.224,241.661 110.89,241.495 112.5,240C 109.972,238.983 109.972,237.816 112.5,236.5C 111.147,235.476 110.48,234.143 110.5,232.5C 111.5,232.5 112.5,232.5 113.5,232.5C 113.5,231.5 113.5,230.5 113.5,229.5C 111.092,230.061 108.759,230.561 106.5,231C 106.957,230.586 107.291,230.086 107.5,229.5C 107.03,223.365 103.697,220.365 97.5,220.5C 96.5,218.833 95.1667,217.5 93.5,216.5C 92.8076,217.025 92.3076,217.692 92,218.5C 90.7592,216.579 89.2592,216.246 87.5,217.5C 88.4911,218.665 89.4911,219.832 90.5,221C 90.1667,221.5 89.8333,222 89.5,222.5C 88.2619,220.363 86.4286,219.029 84,218.5C 83.5045,216.527 83.3379,214.527 83.5,212.5C 86.249,213.085 88.9157,213.085 91.5,212.5C 91,211.5 90.5,210.5 90,209.5C 88.3796,211.632 86.5463,211.965 84.5,210.5C 86.3904,210.703 87.8904,210.037 89,208.5C 88.4078,204.102 90.2411,202.102 94.5,202.5C 94.8333,203.167 95.1667,203.833 95.5,204.5C 95.33,205.822 95.6634,206.989 96.5,208C 100.821,208.499 105.154,208.666 109.5,208.5C 111.025,211.247 112.025,214.247 112.5,217.5C 113.325,218.386 114.325,218.719 115.5,218.5C 115.882,214.104 118.215,211.104 122.5,209.5C 123.466,207.604 123.799,205.604 123.5,203.5C 117.905,202.44 116.071,199.107 118,193.5C 118.708,192.619 119.542,191.953 120.5,191.5C 127.952,193.695 134.619,192.362 140.5,187.5 Z"/></g>
<g><path style="opacity:1" fill="#953a21" d="M 95.5,204.5 C 96.2674,205.172 96.9341,206.005 97.5,207C 101.688,207.176 105.688,207.676 109.5,208.5C 105.154,208.666 100.821,208.499 96.5,208C 95.6634,206.989 95.33,205.822 95.5,204.5 Z"/></g>
<g><path style="opacity:1" fill="#99847c" d="M 80.5,231.5 C 80.4126,236.537 80.746,241.537 81.5,246.5C 80.7784,246.082 80.2784,245.416 80,244.5C 79.1864,239.98 79.353,235.646 80.5,231.5 Z"/></g>
<g><path style="opacity:1" fill="#602a1b" d="M 83.5,209.5 C 83.5,210.167 83.8333,210.5 84.5,210.5C 86.5463,211.965 88.3796,211.632 90,209.5C 90.5,210.5 91,211.5 91.5,212.5C 88.9157,213.085 86.249,213.085 83.5,212.5C 83.3379,214.527 83.5045,216.527 84,218.5C 86.4286,219.029 88.2619,220.363 89.5,222.5C 89.8333,222 90.1667,221.5 90.5,221C 89.4911,219.832 88.4911,218.665 87.5,217.5C 89.2592,216.246 90.7592,216.579 92,218.5C 92.3076,217.692 92.8076,217.025 93.5,216.5C 95.1667,217.5 96.5,218.833 97.5,220.5C 103.697,220.365 107.03,223.365 107.5,229.5C 107.291,230.086 106.957,230.586 106.5,231C 108.759,230.561 111.092,230.061 113.5,229.5C 113.5,230.5 113.5,231.5 113.5,232.5C 112.5,232.5 111.5,232.5 110.5,232.5C 110.48,234.143 111.147,235.476 112.5,236.5C 109.972,237.816 109.972,238.983 112.5,240C 110.89,241.495 109.224,241.661 107.5,240.5C 106.509,244.445 106.176,248.445 106.5,252.5C 108.5,252.5 110.5,252.5 112.5,252.5C 113.336,249.813 114.836,247.48 117,245.5C 117.617,246.449 117.451,247.282 116.5,248C 118.525,249.194 118.859,250.694 117.5,252.5C 118.716,253.096 120.049,253.263 121.5,253C 120.253,254.458 120.253,255.958 121.5,257.5C 128.134,258.497 134.8,258.83 141.5,258.5C 129.582,259.98 117.582,259.647 105.5,257.5C 105.981,248.062 105.314,238.729 103.5,229.5C 101.254,220.3 99.2545,220.3 97.5,229.5C 96.0413,229.567 94.7079,229.234 93.5,228.5C 89.7047,226.857 85.7047,226.191 81.5,226.5C 81.1282,220.57 81.7949,214.903 83.5,209.5 Z"/></g>
<g><path style="opacity:1" fill="#8c807f" d="M 56.5,222.5 C 58.0985,233.961 58.7652,245.628 58.5,257.5C 55.1667,258.167 51.8333,258.833 48.5,259.5C 47.9569,259.44 47.6236,259.107 47.5,258.5C 50.7683,257.513 54.1016,257.18 57.5,257.5C 57.1297,245.835 56.7964,234.168 56.5,222.5 Z"/></g>
<g><path style="opacity:1" fill="#3a3c3e" d="M 272.5,258.5 C 270.66,264.004 267.327,268.337 262.5,271.5C 229.833,271.5 197.167,271.5 164.5,271.5C 162.786,268.701 161.453,265.701 160.5,262.5C 160.5,261.5 160.5,260.5 160.5,259.5C 197.864,259.815 235.197,259.481 272.5,258.5 Z"/></g>
<g><path style="opacity:1" fill="#3d3e40" d="M 58.5,257.5 C 67.9167,257.195 77.25,257.528 86.5,258.5C 89.0031,262.507 90.6697,266.84 91.5,271.5C 79.4954,271.667 67.4954,271.5 55.5,271C 53.0024,267.154 50.6691,263.32 48.5,259.5C 51.8333,258.833 55.1667,258.167 58.5,257.5 Z"/></g>
<g><path style="opacity:1" fill="#7d7471" d="M 164.5,271.5 C 197.167,271.5 229.833,271.5 262.5,271.5C 262.5,272.167 262.167,272.5 261.5,272.5C 229.149,271.841 197.149,272.507 165.5,274.5C 164.596,273.791 164.263,272.791 164.5,271.5 Z"/></g>
<g><path style="opacity:1" fill="#f9d7ce" d="M 261.5,272.5 C 245.567,281.518 228.233,286.018 209.5,286C 196.517,286.984 183.517,287.484 170.5,287.5C 170.672,286.508 170.338,285.842 169.5,285.5C 168.451,281.735 167.118,278.068 165.5,274.5C 197.149,272.507 229.149,271.841 261.5,272.5 Z"/></g>
<g><path style="opacity:1" fill="#333b87" d="M 154.5,256.5 C 157.487,257.487 159.487,259.487 160.5,262.5C 161.453,265.701 162.786,268.701 164.5,271.5C 164.263,272.791 164.596,273.791 165.5,274.5C 167.118,278.068 168.451,281.735 169.5,285.5C 169.5,286.5 169.5,287.5 169.5,288.5C 161.316,288.174 153.316,288.508 145.5,289.5C 131.5,289.5 117.5,289.5 103.5,289.5C 102.425,287.144 102.425,284.811 103.5,282.5C 104.968,284.333 106.635,284.666 108.5,283.5C 105.147,279.794 103.147,275.461 102.5,270.5C 102.882,266.022 103.882,261.689 105.5,257.5C 117.582,259.647 129.582,259.98 141.5,258.5C 145.833,257.833 150.167,257.167 154.5,256.5 Z"/></g>
<g><path style="opacity:1" fill="#6f72a7" d="M 169.5,285.5 C 170.338,285.842 170.672,286.508 170.5,287.5C 162.567,289.468 154.234,290.135 145.5,289.5C 153.316,288.508 161.316,288.174 169.5,288.5C 169.5,287.5 169.5,286.5 169.5,285.5 Z"/></g>
</svg>
