<?xml version="1.0" standalone="no"?>
<!DOCTYPE svg PUBLIC "-//W3C//DTD SVG 20010904//EN"
 "http://www.w3.org/TR/2001/REC-SVG-20010904/DTD/svg10.dtd">
<svg version="1.0" xmlns="http://www.w3.org/2000/svg"
 width="450.000000pt" height="126.000000pt" viewBox="0 0 450.000000 126.000000"
 preserveAspectRatio="xMidYMid meet">

<g transform="translate(0.000000,126.000000) scale(0.100000,-0.100000)"
fill="#000000" stroke="none">
<path d="M0 630 l0 -630 2250 0 2250 0 0 630 0 630 -2250 0 -2250 0 0 -630z
m343 488 c12 -6 28 -17 36 -25 7 -8 28 -13 45 -11 20 2 31 -1 30 -9 -1 -7 -2
-24 -2 -38 -2 -17 -6 -23 -17 -19 -8 4 -12 10 -9 15 3 5 -11 9 -30 9 -36 0
-44 -11 -27 -39 6 -9 11 -10 15 -2 5 7 15 7 31 1 14 -5 25 -6 25 -2 0 4 4 1 9
-7 10 -15 41 -8 41 9 0 6 -4 8 -10 5 -6 -4 -10 8 -10 30 0 43 14 38 30 -11 22
-64 -11 -168 -61 -194 -17 -10 -18 -8 -8 17 8 22 8 25 -2 16 -15 -15 -39 -6
-32 13 4 11 -7 14 -53 14 -38 0 -54 -3 -45 -9 7 -5 11 -13 8 -17 -3 -5 16 -10
41 -12 51 -3 57 -6 47 -21 -3 -6 -27 -11 -52 -11 -37 0 -50 5 -74 31 -21 22
-29 41 -29 68 -1 37 -19 71 -39 71 -8 0 -7 10 3 35 8 19 11 35 5 35 -23 0 -5
19 43 43 59 31 62 31 91 15z m607 -53 c0 -30 -4 -55 -10 -55 -5 0 -10 25 -10
55 0 30 5 55 10 55 6 0 10 -25 10 -55z m90 -1 l0 -55 -32 3 c-30 3 -33 6 -33
38 0 29 4 36 23 38 12 2 22 10 22 18 0 8 5 14 10 14 6 0 10 -25 10 -56z m713
47 c45 -17 45 -90 0 -110 -33 -15 -80 4 -87 36 -8 29 9 70 31 76 29 8 31 7 56
-2z m-1089 -17 c9 -8 16 -20 16 -27 0 -6 6 -3 13 7 16 21 45 18 61 -6 23 -38
-35 -78 -61 -42 -12 16 -14 16 -31 1 -10 -9 -31 -17 -45 -17 -26 0 -27 2 -27
50 0 49 1 50 29 50 16 0 37 -7 45 -16z m454 -31 c-2 -39 -7 -48 -23 -50 -11
-2 -14 0 -7 3 7 3 12 24 12 50 0 24 5 44 11 44 6 0 9 -19 7 -47z m150 40 c-14
-3 -18 -15 -18 -49 0 -24 -4 -44 -10 -44 -5 0 -10 20 -10 44 0 34 -4 46 -17
49 -10 3 2 5 27 5 25 0 37 -2 28 -5z m-430 -55 c2 -21 -1 -38 -7 -38 -5 0 -11
15 -13 33 -2 17 -7 32 -13 32 -5 0 -11 -15 -13 -32 -5 -47 -22 -41 -22 8 0 39
1 40 33 37 29 -3 32 -6 35 -40z m76 26 c3 -9 6 -27 6 -40 0 -22 -4 -25 -32
-22 -42 4 -51 34 -14 44 14 3 23 10 20 15 -3 6 -15 7 -26 3 -14 -4 -18 -2 -14
5 11 17 53 13 60 -5z m400 -1 c-7 -8 -14 -25 -14 -39 0 -13 -4 -24 -10 -24 -5
0 -10 17 -10 39 0 34 3 39 24 39 22 0 23 -2 10 -15z m46 -18 c0 -19 5 -35 10
-35 6 0 10 16 10 35 0 19 5 35 10 35 6 0 10 -18 10 -41 0 -38 -1 -40 -27 -37
-24 3 -28 8 -31 41 -2 21 1 37 7 37 6 0 11 -16 11 -35z m168 -7 c2 -22 -1 -38
-7 -38 -6 0 -11 16 -11 35 0 19 -4 35 -10 35 -5 0 -10 -16 -10 -35 0 -24 -5
-35 -15 -35 -11 0 -15 11 -15 36 0 21 -4 33 -10 29 -5 -3 -10 -19 -10 -36 0
-16 -4 -29 -10 -29 -5 0 -10 18 -10 40 l0 40 53 -2 52 -3 3 -37z m82 27 c17
-20 9 -48 -18 -60 -12 -5 -22 -15 -22 -22 0 -7 -7 -13 -15 -13 -12 0 -15 13
-15 55 0 54 1 55 29 55 16 0 34 -7 41 -15z m-450 -55 c0 -5 -4 -10 -10 -10 -5
0 -10 5 -10 10 0 6 5 10 10 10 6 0 10 -4 10 -10z m-985 -38 c15 -11 14 -51 -2
-45 -7 3 -13 9 -13 13 0 5 -3 15 -6 24 -6 17 4 21 21 8z m485 -109 c0 -21 3
-49 5 -63 3 -14 3 -19 -1 -12 -7 15 -74 16 -74 0 0 -6 -2 -9 -5 -6 -3 3 2 31
12 62 15 46 22 56 41 56 19 0 22 -5 22 -37z m1270 23 l-24 -14 24 -4 c20 -2
25 -9 25 -33 0 -25 -4 -30 -24 -30 -13 0 -28 7 -34 16 -14 22 -1 67 21 72 33
9 37 6 12 -7z m730 -1 c-25 -14 -25 -14 -2 -15 12 0 25 -7 29 -15 5 -14 7 -14
23 0 28 25 55 15 55 -20 0 -35 -27 -45 -55 -20 -16 15 -18 15 -24 0 -3 -10
-15 -15 -28 -13 -46 6 -30 99 16 98 6 -1 0 -7 -14 -15z m690 5 c0 -5 -7 -7
-15 -4 -21 8 -45 -14 -45 -42 0 -23 30 -41 50 -29 5 3 10 1 10 -4 0 -15 -43
-14 -58 1 -7 7 -12 24 -12 38 0 14 5 31 12 38 14 14 58 16 58 2z m71 -27 c6
-21 14 -42 17 -47 7 -12 31 34 32 62 0 17 6 22 25 22 22 0 25 -4 25 -37 0 -21
3 -49 5 -63 3 -14 3 -19 -1 -12 -3 6 -21 12 -40 12 -20 0 -34 -5 -34 -12 0 -7
-8 -1 -18 15 -19 31 -46 35 -61 10 -16 -27 -13 -4 5 44 9 24 20 43 25 43 4 0
13 -17 20 -37z m-3231 17 c0 -5 -2 -10 -4 -10 -3 0 -8 5 -11 10 -3 6 -1 10 4
10 6 0 11 -4 11 -10z m173 -17 c-7 -2 -21 -2 -30 0 -10 3 -4 5 12 5 17 0 24
-2 18 -5z m382 -13 c8 -27 -12 -52 -39 -48 -21 3 -32 28 -22 54 8 22 54 18 61
-6z m47 8 c6 6 16 12 22 12 5 0 1 -6 -9 -14 -19 -14 -19 -15 -1 -35 20 -22 9
-30 -12 -9 -10 10 -15 10 -22 -2 -7 -11 -10 -4 -10 25 0 29 3 36 10 25 7 -12
12 -12 22 -2z m93 -23 c0 -35 -31 -47 -51 -20 -18 25 0 57 29 53 17 -2 22 -10
22 -33z m73 -2 c-1 -37 -1 -37 -5 -5 -5 39 -20 42 -25 5 -2 -14 -10 -28 -18
-31 -12 -4 -13 -2 -2 9 6 7 12 23 12 36 0 16 6 23 20 23 17 0 20 -6 18 -37z
m54 25 c18 18 36 15 43 -8 8 -26 21 -25 28 2 4 12 9 19 12 16 9 -9 -32 -98
-45 -98 -7 0 -7 5 1 18 7 12 7 25 0 45 -12 30 -23 34 -40 13 -10 -11 -7 -17
11 -30 12 -9 18 -16 12 -16 -5 0 -16 6 -22 12 -10 10 -15 10 -22 -2 -7 -11
-10 -4 -10 25 0 29 3 36 10 25 7 -12 12 -12 22 -2z m178 3 c0 -5 -8 -8 -17 -7
-12 1 -18 -6 -18 -19 0 -13 6 -20 18 -19 9 1 17 -3 17 -8 0 -5 -10 -8 -22 -6
-39 5 -37 68 2 68 11 0 20 -4 20 -9z m64 -7 c14 -37 7 -54 -24 -54 -35 0 -43
29 -10 37 25 7 26 20 3 26 -14 4 -13 5 3 6 12 0 25 -6 28 -15z m36 4 c0 -9 3
-9 12 0 20 20 33 14 14 -7 -15 -16 -15 -19 -1 -31 9 -7 13 -15 10 -18 -2 -3
-11 1 -20 8 -10 8 -15 9 -15 1 0 -6 -4 -11 -10 -11 -5 0 -10 16 -10 35 0 19 5
35 10 35 6 0 10 -5 10 -12z m100 -23 c0 -31 -3 -35 -25 -35 -31 0 -34 29 -5
37 11 3 20 10 20 15 0 6 -9 8 -20 5 -11 -3 -18 -1 -14 4 3 5 14 9 25 9 15 0
19 -7 19 -35z m53 28 c-7 -2 -14 -19 -14 -36 l-2 -32 -4 30 c-3 16 -10 33 -16
37 -7 4 2 7 18 7 17 0 24 -3 18 -6z m75 -15 c3 -14 -3 -18 -24 -18 -30 0 -23
-14 11 -23 12 -3 8 -5 -10 -4 -31 2 -43 23 -31 53 8 21 50 14 54 -8z m102 0
c0 -13 3 -34 5 -48 3 -14 3 -19 -1 -12 -3 6 -16 12 -29 12 -13 0 -25 -6 -28
-12 -2 -7 -8 -10 -12 -6 -4 4 1 25 11 47 21 45 54 56 54 19z m68 -16 c3 -31 1
-33 -23 -30 -32 4 -35 19 -5 34 13 7 18 14 11 18 -6 4 -15 4 -21 1 -5 -3 -10
-1 -10 5 0 6 10 10 23 8 17 -2 23 -11 25 -36z m110 1 c-1 -37 -1 -37 -5 -5 -3
23 -9 32 -23 32 -14 0 -20 -9 -23 -32 -4 -32 -4 -32 -5 5 -2 35 0 37 28 37 28
0 30 -2 28 -37z m77 2 c0 -25 -4 -30 -24 -30 -32 0 -49 28 -31 50 7 9 23 15
34 13 16 -2 21 -10 21 -33z m153 13 c3 -14 -3 -18 -23 -18 -15 0 -24 -4 -20
-10 3 -5 18 -10 31 -10 19 0 29 8 37 30 14 36 47 42 47 8 0 -13 3 -34 5 -48 3
-14 3 -19 -1 -12 -3 6 -19 12 -35 12 -16 0 -29 -5 -29 -12 0 -10 -2 -10 -8 -2
-4 7 -18 14 -32 15 -25 4 -37 28 -26 55 8 21 50 14 54 -8z m140 -16 c3 -31 1
-33 -23 -30 -32 4 -35 19 -5 34 13 7 18 14 11 18 -6 4 -15 4 -21 1 -5 -3 -10
-1 -10 5 0 6 10 10 23 8 17 -2 23 -11 25 -36z m46 11 l14 -28 7 28 c10 39 25
33 24 -10 -1 -33 -2 -35 -8 -13 l-7 25 -7 -25 c-7 -24 -8 -24 -21 -7 -14 18
-14 18 -19 0 -3 -10 -5 -1 -6 20 -1 44 3 46 23 10z m126 -3 c10 0 21 8 23 18
3 9 5 -1 5 -23 0 -22 -2 -32 -5 -22 -2 9 -13 17 -23 17 -10 0 -21 -8 -23 -17
-3 -10 -5 0 -5 22 0 22 2 32 5 23 2 -10 13 -18 23 -18z m98 -8 c3 -31 1 -33
-23 -30 -32 4 -35 19 -5 34 13 7 18 14 11 18 -6 4 -15 4 -21 1 -5 -3 -10 -1
-10 5 0 6 10 10 23 8 17 -2 23 -11 25 -36z m83 16 c20 32 29 27 28 -15 -1 -33
-2 -35 -8 -13 l-7 25 -15 -22 c-20 -33 -29 -28 -28 15 1 32 2 34 8 12 l7 -25
15 23z m84 -13 c0 -23 -5 -31 -22 -33 -13 -2 -23 1 -23 6 0 6 9 8 20 5 11 -3
20 0 20 6 0 6 -8 12 -17 12 -17 1 -17 2 0 6 9 2 17 9 17 15 0 6 -9 8 -20 5
-11 -3 -20 -1 -20 5 0 5 10 8 23 6 17 -2 22 -10 22 -33z m240 24 c13 -19 -4
-59 -25 -59 -11 0 -20 -7 -20 -15 0 -8 -4 -15 -10 -15 -5 0 -10 23 -10 50 0
49 1 50 29 50 17 0 33 -5 36 -11z m37 -9 c0 -11 1 -25 2 -32 1 -6 -5 -13 -11
-15 -9 -3 -13 7 -13 31 0 37 19 51 22 16z m37 -17 c-1 -24 -3 -30 -6 -15 -2
12 -9 20 -14 17 -13 -9 -11 9 3 23 17 17 18 16 17 -25z m64 29 c-6 -4 -13 -21
-16 -37 l-4 -30 -2 32 c0 21 -7 33 -18 36 -10 3 -2 5 17 6 19 0 30 -3 23 -7z
m67 4 c0 -2 3 -11 6 -20 5 -12 0 -16 -20 -16 -32 0 -35 -20 -3 -21 19 -1 20
-2 3 -6 -27 -7 -49 23 -35 48 8 16 49 28 49 15z m97 -16 c-3 -10 0 -21 6 -23
19 -6 -3 -27 -29 -27 -21 0 -24 5 -24 35 0 31 3 35 26 35 21 0 25 -4 21 -20z
m82 1 c13 -24 -8 -55 -35 -49 -20 3 -30 29 -20 54 8 20 43 17 55 -5z m403 -1
c0 -11 1 -25 2 -32 1 -6 -5 -13 -11 -15 -9 -3 -13 7 -13 31 0 37 19 51 22 16z
m37 -17 c-1 -24 -3 -30 -6 -15 -2 12 -9 20 -14 17 -13 -9 -11 9 3 23 17 17 18
16 17 -25z m71 28 c0 -5 -8 -8 -17 -7 -12 1 -18 -6 -18 -19 0 -13 6 -20 18
-19 9 1 17 -3 17 -8 0 -5 -10 -8 -22 -6 -39 5 -37 68 2 68 11 0 20 -4 20 -9z
m68 -28 c-1 -37 -1 -37 -5 -5 -6 42 -33 44 -33 2 0 -16 -4 -30 -10 -30 -5 0
-10 16 -10 35 0 32 2 35 30 35 28 0 30 -2 28 -37z m83 21 c16 -20 1 -48 -29
-52 -11 -2 -23 -11 -25 -20 -3 -9 -5 7 -6 36 -1 48 1 52 23 52 13 0 29 -7 37
-16z m69 -19 c0 -31 -3 -35 -25 -35 -31 0 -34 29 -5 37 11 3 20 10 20 15 0 6
-9 8 -20 5 -11 -3 -18 -1 -14 4 3 5 14 9 25 9 15 0 19 -7 19 -35z m63 28 c-7
-2 -13 -18 -13 -34 0 -16 -4 -29 -10 -29 -5 0 -10 13 -10 29 0 16 -6 32 -12
34 -7 3 3 5 22 5 19 0 29 -2 23 -5z m65 -16 c3 -13 -3 -17 -24 -17 -30 0 -23
-15 11 -23 15 -4 14 -5 -7 -6 -31 -1 -47 31 -27 55 16 19 43 14 47 -9z m55 16
c-7 -2 -14 -19 -14 -36 l-2 -32 -4 30 c-3 16 -10 33 -16 37 -7 4 2 7 18 7 17
0 24 -3 18 -6z m67 3 c0 -2 3 -11 6 -19 4 -11 -2 -17 -23 -19 l-28 -4 25 -12
25 -12 -25 3 c-40 4 -41 67 0 67 11 0 20 -2 20 -4z m-650 -66 c0 -11 -4 -20
-8 -20 -4 0 -8 9 -9 20 -1 11 2 20 8 20 5 0 9 -9 9 -20z m-2430 -102 c0 -7 -5
-6 -15 2 -12 10 -15 10 -15 -3 0 -8 10 -22 23 -31 l22 -15 -23 -21 c-19 -15
-28 -17 -43 -10 -10 6 -19 16 -19 22 0 7 5 6 15 -2 12 -10 15 -9 15 8 0 11 -7
22 -15 26 -20 7 -19 33 2 45 19 10 53 -3 53 -21z m-300 -28 c0 -27 -4 -50 -10
-50 -5 0 -10 16 -10 35 0 20 -5 35 -12 35 -9 0 19 28 30 30 1 0 2 -22 2 -50z
m90 25 c19 -51 -24 -97 -58 -63 -15 15 -15 61 0 76 20 20 48 14 58 -13z m89
11 c31 -37 -9 -103 -46 -80 -37 23 -24 94 17 94 10 0 23 -6 29 -14z m811 0
l-24 -14 24 -4 c20 -2 25 -9 25 -33 0 -25 -4 -30 -24 -30 -13 0 -28 7 -34 16
-14 22 -1 67 21 72 33 9 37 6 12 -7z m1145 4 c4 -7 -2 -9 -19 -4 -16 4 -26 2
-26 -4 0 -6 10 -12 23 -14 17 -2 22 -10 22 -33 0 -33 -25 -45 -50 -25 -18 15
-20 61 -3 78 15 15 45 16 53 2z m80 0 c4 -6 1 -17 -5 -25 -10 -12 -10 -15 -1
-15 24 0 7 -45 -18 -48 -25 -4 -50 13 -36 25 4 5 10 2 12 -4 6 -16 29 -17 39
-1 4 6 -1 17 -11 25 -11 7 -13 13 -7 13 7 0 12 7 12 16 0 12 -6 15 -26 10 -17
-5 -23 -3 -19 4 8 13 52 13 60 0z m79 -7 c4 -10 -1 -28 -13 -44 l-21 -28 23
-4 c13 -2 5 -5 -17 -6 l-40 -1 27 28 c30 31 36 62 12 62 -8 0 -15 -4 -15 -10
0 -5 -4 -10 -10 -10 -5 0 -7 7 -4 15 8 20 50 19 58 -2z m78 -23 c2 -23 0 -46
-4 -53 -6 -9 -8 -9 -8 1 0 7 -13 12 -30 12 l-30 0 26 40 c15 22 30 40 34 40 4
0 10 -18 12 -40z m66 33 c-32 -5 -38 -23 -8 -23 25 0 41 -30 29 -53 -11 -19
-36 -22 -59 -7 -11 7 -7 9 15 7 24 -2 30 2 30 18 0 15 -6 19 -22 18 -18 -2
-23 2 -23 22 0 22 4 25 33 24 30 -2 30 -2 5 -6z m102 -1 c0 -5 -10 -8 -21 -8
-12 1 -24 -4 -26 -11 -3 -7 3 -10 15 -7 10 3 25 -2 32 -11 18 -22 1 -50 -31
-50 -20 0 -25 6 -27 33 -2 19 -1 40 2 48 6 15 56 20 56 6z m80 -27 c0 -28 4
-35 20 -35 11 0 20 -4 20 -10 0 -14 27 -13 36 2 4 6 -1 17 -10 23 -15 11 -15
13 -1 19 22 8 7 29 -16 23 -11 -3 -17 -1 -13 4 9 15 44 10 51 -7 3 -9 0 -20
-8 -25 -10 -6 -10 -9 -1 -9 18 0 15 -40 -4 -47 -8 -3 -27 0 -40 8 -22 11 -27
11 -34 -1 -7 -10 -10 -11 -10 -2 0 6 -11 12 -25 12 -14 0 -25 3 -25 8 1 11 40
58 40 48 0 -5 -7 -18 -17 -28 -15 -17 -15 -18 7 -18 20 0 22 4 17 35 -3 19 -2
35 4 35 5 0 9 -16 9 -35z m168 12 c2 -11 -6 -29 -18 -42 l-22 -23 24 -5 c15
-3 9 -5 -16 -6 l-38 -1 31 29 c17 16 31 34 31 39 0 18 -20 24 -35 12 -8 -7
-15 -8 -15 -3 0 29 53 29 58 0z m60 16 c-32 -5 -38 -23 -8 -23 25 0 41 -30 29
-53 -11 -19 -36 -22 -59 -7 -11 7 -7 9 15 7 24 -2 30 2 30 18 0 15 -6 19 -22
18 -18 -2 -23 2 -23 22 0 22 4 25 33 24 30 -2 30 -2 5 -6z m79 -44 c-12 -29
-23 -45 -25 -36 -2 9 4 29 12 46 16 29 15 30 -12 34 -22 3 -20 4 10 6 l36 1
-21 -51z m88 26 c1 -11 4 -26 9 -33 11 -18 -13 -44 -37 -40 -11 2 -22 10 -25
18 -4 12 -2 13 9 3 7 -7 19 -13 26 -13 18 0 16 29 -2 36 -14 6 -13 8 1 19 20
14 3 31 -22 21 -9 -3 -12 -2 -9 5 12 18 50 6 50 -16z m165 -12 c0 -21 3 -49 5
-63 3 -14 3 -19 -1 -12 -7 15 -74 16 -74 0 0 -6 -2 -9 -5 -6 -3 3 2 31 12 62
15 46 22 56 41 56 19 0 22 -5 22 -37z m-3396 -18 c4 -14 11 -23 16 -20 6 3 10
2 10 -4 0 -22 -22 -22 -28 0 l-6 24 -7 -25 c-6 -22 -7 -20 -8 13 -1 42 14 50
23 12z m56 -10 c0 -19 -4 -35 -9 -35 -11 0 -24 48 -16 60 13 21 25 8 25 -25z
m32 15 c0 -11 1 -25 2 -32 1 -6 -5 -13 -11 -15 -9 -3 -13 7 -13 31 0 37 19 51
22 16z m37 -17 c-1 -24 -3 -30 -6 -15 -2 12 -9 20 -14 17 -13 -9 -11 9 3 23
17 17 18 16 17 -25z m471 7 c10 0 21 8 23 18 3 9 5 -1 5 -23 0 -22 -2 -32 -5
-22 -2 9 -13 17 -23 17 -10 0 -21 -8 -23 -17 -3 -10 -5 0 -5 22 0 22 2 32 5
23 2 -10 13 -18 23 -18z m98 -8 c3 -31 2 -33 -24 -30 -34 4 -44 27 -15 35 12
3 21 10 21 15 0 6 -7 8 -15 4 -8 -3 -15 -1 -15 5 0 6 10 9 23 7 17 -2 23 -11
25 -36z m76 11 l14 -28 7 28 c10 39 25 33 24 -10 -1 -33 -2 -35 -8 -13 l-7 25
-7 -25 c-7 -24 -8 -24 -21 -7 -14 18 -14 18 -19 0 -3 -10 -5 -1 -6 20 -1 44 3
46 23 10z m125 8 c13 -24 -8 -55 -35 -49 -20 3 -30 29 -20 54 8 20 43 17 55
-5z m27 -67 c-3 -8 -11 -14 -18 -13 -10 0 -10 2 0 6 7 2 13 25 14 51 1 45 1
46 5 8 3 -21 2 -44 -1 -52z m78 70 c14 -37 7 -54 -24 -54 -35 0 -43 29 -10 37
25 7 26 20 3 26 -14 4 -13 5 3 6 12 0 25 -6 28 -15z m59 9 c-7 -2 -13 -18 -13
-34 0 -16 -4 -29 -10 -29 -5 0 -10 13 -10 29 0 16 -6 32 -12 34 -7 3 3 5 22 5
19 0 29 -2 23 -5z m65 -31 c3 -31 2 -33 -24 -30 -34 4 -44 27 -15 35 12 3 21
10 21 15 0 6 -7 8 -15 4 -8 -3 -15 -1 -15 5 0 6 10 9 23 7 17 -2 23 -11 25
-36z m176 22 c14 -37 7 -54 -24 -54 -35 0 -43 29 -10 37 25 7 26 20 3 26 -14
4 -13 5 3 6 12 0 25 -6 28 -15z m36 1 c0 -21 28 -19 33 3 3 9 5 -1 5 -23 0
-22 -2 -32 -5 -22 -5 21 -33 23 -33 2 0 -8 -4 -15 -10 -15 -5 0 -10 16 -10 35
0 19 5 35 10 35 6 0 10 -7 10 -15z m92 3 c6 6 16 12 22 12 5 0 1 -6 -9 -14
-17 -12 -17 -16 -6 -30 12 -15 16 -15 31 -1 9 8 22 15 29 15 7 0 9 5 6 11 -4
6 -13 8 -21 5 -8 -3 -14 -1 -14 5 0 6 10 9 23 7 17 -2 23 -11 25 -36 3 -32 3
-33 -35 -31 -21 1 -44 7 -51 13 -10 7 -16 6 -23 -5 -6 -10 -9 -2 -9 26 0 29 3
36 10 25 7 -12 12 -12 22 -2z m163 -23 c0 -23 -5 -31 -22 -33 -12 -2 -24 -11
-26 -20 -3 -9 -5 7 -6 36 -1 52 -1 53 27 50 23 -3 27 -8 27 -33z m75 25 c0 -5
-7 -7 -16 -3 -19 7 -35 -14 -27 -34 4 -9 14 -13 26 -9 14 3 17 2 9 -6 -25 -25
-65 19 -42 47 14 17 50 20 50 5z m47 0 c17 14 17 14 0 -6 -16 -19 -16 -22 -1
-35 14 -11 17 -11 25 4 6 9 17 17 24 17 8 0 15 5 15 11 0 6 -7 9 -15 5 -8 -3
-15 -1 -15 5 0 6 10 9 23 7 17 -2 23 -11 25 -36 3 -32 3 -33 -35 -31 -21 1
-44 7 -51 13 -10 7 -16 6 -23 -5 -6 -10 -9 -2 -9 26 0 28 3 36 9 26 8 -13 12
-13 28 -1z m156 0 c-13 -5 -23 -16 -23 -25 0 -9 10 -20 23 -25 22 -10 22 -10
-3 -7 -43 4 -34 68 9 66 11 0 9 -3 -6 -9z m61 -17 l14 -28 7 28 c10 39 25 33
24 -10 -1 -33 -2 -35 -8 -13 l-7 25 -7 -25 c-7 -24 -8 -24 -21 -7 -14 18 -14
18 -19 0 -3 -10 -5 -1 -6 20 -1 44 3 46 23 10z m116 23 c0 -2 3 -11 6 -19 4
-11 -2 -17 -23 -19 l-28 -4 25 -12 25 -12 -25 3 c-40 4 -41 67 0 67 11 0 20
-2 20 -4z m63 -3 c-7 -2 -13 -18 -13 -34 0 -16 -4 -29 -10 -29 -5 0 -10 13
-10 29 0 16 -6 32 -12 34 -7 3 3 5 22 5 19 0 29 -2 23 -5z m54 -3 c17 14 17
14 0 -6 -16 -19 -16 -22 -1 -35 14 -11 17 -11 25 4 6 9 17 17 24 17 21 0 19
18 -2 23 -14 4 -13 5 3 6 22 1 34 -16 34 -50 0 -15 -7 -19 -38 -19 -21 0 -44
6 -50 12 -10 10 -15 10 -22 -2 -7 -11 -10 -4 -10 25 0 28 3 36 9 26 8 -13 12
-13 28 -1z m1303 -25 c0 -31 -3 -35 -25 -35 -31 0 -34 29 -5 37 11 3 20 10 20
15 0 6 -9 8 -20 5 -11 -3 -18 -1 -14 4 3 5 14 9 25 9 15 0 19 -7 19 -35z
m-190 -25 c0 -5 -4 -10 -10 -10 -5 0 -10 5 -10 10 0 6 5 10 10 10 6 0 10 -4
10 -10z m-2817 -145 c9 -25 12 -45 6 -45 -5 0 -9 7 -9 15 0 9 -9 15 -25 15
-16 0 -25 -6 -25 -15 0 -8 -4 -15 -10 -15 -6 0 -6 9 0 25 6 14 14 37 20 51 13
33 25 25 43 -31z m494 3 c-2 -13 -4 -5 -4 17 -1 22 1 32 4 23 2 -10 2 -28 0
-40z m-961 11 c4 -8 9 -7 15 2 8 12 10 12 18 0 6 -9 11 -10 15 -2 4 6 12 11
18 11 6 0 4 -8 -5 -18 -13 -14 -14 -21 -5 -30 20 -20 28 -14 29 21 1 30 2 30
8 7 l7 -25 15 23 c20 32 29 27 28 -15 -1 -33 -2 -35 -8 -13 l-7 25 -15 -22
c-15 -24 -53 -31 -65 -12 -4 8 -9 7 -15 -2 -8 -12 -10 -12 -18 0 -6 9 -11 10
-15 2 -4 -6 -12 -11 -18 -11 -6 0 -4 8 5 18 15 17 15 19 0 35 -10 10 -12 17
-6 17 7 0 15 -5 19 -11z m211 -9 c-3 -10 0 -21 6 -23 19 -6 -3 -27 -29 -27
-21 0 -24 5 -24 35 0 31 3 35 26 35 21 0 25 -4 21 -20z m73 16 c0 -2 3 -11 6
-20 5 -12 0 -16 -20 -16 -32 0 -35 -20 -3 -21 19 -1 20 -2 3 -6 -27 -7 -49 23
-35 48 8 16 49 28 49 15z m70 0 c0 -2 3 -11 6 -19 4 -11 -2 -17 -23 -19 l-28
-4 25 -12 25 -12 -25 3 c-40 4 -41 67 0 67 11 0 20 -2 20 -4z m164 -21 c4 -14
11 -23 16 -20 6 3 10 2 10 -4 0 -22 -22 -22 -28 0 l-6 24 -7 -25 c-6 -22 -7
-20 -8 13 -1 42 14 50 23 12z m56 -10 c0 -19 -4 -35 -9 -35 -11 0 -24 48 -16
60 13 21 25 8 25 -25z m68 13 c3 -14 -3 -18 -24 -18 -30 0 -23 -14 11 -23 12
-3 8 -5 -10 -4 -31 2 -43 23 -31 53 8 21 50 14 54 -8z m77 11 c13 -19 -4 -59
-25 -59 -11 0 -20 -7 -20 -15 0 -8 -4 -15 -10 -15 -5 0 -10 23 -10 50 0 49 1
50 29 50 17 0 33 -5 36 -11z m37 -9 c0 -11 1 -25 2 -32 1 -6 -5 -13 -11 -15
-9 -3 -13 7 -13 31 0 37 19 51 22 16z m37 -17 c-1 -24 -3 -30 -6 -15 -2 12 -9
20 -14 17 -13 -9 -11 9 3 23 17 17 18 16 17 -25z m53 25 c6 6 16 12 22 12 5 0
1 -6 -9 -14 -17 -12 -17 -16 -6 -30 12 -15 16 -15 31 -1 9 8 22 15 29 15 7 0
9 5 6 11 -4 6 -13 8 -21 5 -8 -3 -14 -1 -14 5 0 6 10 9 23 7 17 -2 23 -11 25
-36 3 -32 3 -33 -35 -31 -21 1 -44 7 -51 13 -10 7 -16 6 -23 -5 -6 -10 -9 -2
-9 26 0 29 3 36 10 25 7 -12 12 -12 22 -2z m118 -48 c0 -5 -5 -10 -11 -10 -5
0 -7 5 -4 10 3 6 8 10 11 10 2 0 4 -4 4 -10z"/>
<path d="M260 1024 c-25 -14 -25 -14 12 -14 20 0 43 -3 52 -6 12 -4 16 0 16
15 0 16 -6 21 -27 20 -16 -1 -39 -7 -53 -15z"/>
<path d="M312 953 c-11 -20 -9 -22 21 -31 36 -11 77 -14 77 -5 0 2 -10 17 -22
31 -12 15 -18 19 -15 10 5 -14 1 -18 -18 -18 -14 0 -25 7 -27 18 -3 15 -5 14
-16 -5z"/>
<path d="M443 955 c-7 -8 -13 -24 -12 -37 l0 -23 9 23 c5 12 14 22 20 22 5 0
10 7 10 15 0 19 -11 19 -27 0z"/>
<path d="M990 1050 c0 -21 4 -30 13 -27 6 2 12 14 12 27 0 13 -6 25 -12 28 -9
2 -13 -7 -13 -28z"/>
<path d="M1730 1074 c-7 -8 -19 -13 -26 -10 -18 7 -26 -5 -13 -21 16 -19 32
-16 52 12 19 26 7 44 -13 19z"/>
<path d="M610 1060 c0 -34 3 -41 18 -38 12 2 17 13 17 38 0 25 -5 36 -17 38
-15 3 -18 -4 -18 -38z"/>
<path d="M710 1050 c0 -21 4 -30 13 -27 6 2 12 14 12 27 0 13 -6 25 -12 28 -9
2 -13 -7 -13 -28z"/>
<path d="M875 1039 c-4 -6 -5 -13 -2 -16 7 -7 27 6 27 18 0 12 -17 12 -25 -2z"/>
<path d="M1566 1065 c-6 -17 2 -45 14 -45 12 0 20 28 14 45 -4 8 -10 15 -14
15 -4 0 -10 -7 -14 -15z"/>
<path d="M613 860 c-9 -36 -8 -40 8 -40 15 0 19 8 19 40 0 22 -4 40 -8 40 -4
0 -13 -18 -19 -40z"/>
<path d="M1910 845 c0 -20 4 -26 18 -23 9 2 17 12 17 23 0 11 -8 21 -17 23
-14 3 -18 -3 -18 -23z"/>
<path d="M2643 854 c-8 -21 13 -42 28 -27 13 13 5 43 -11 43 -6 0 -13 -7 -17
-16z"/>
<path d="M2717 857 c-3 -8 -2 -20 3 -27 11 -18 42 -4 38 17 -4 22 -34 29 -41
10z"/>
<path d="M3480 879 c0 -11 -5 -29 -10 -40 -9 -16 -7 -19 15 -19 23 0 25 4 25
40 0 29 -4 40 -15 40 -8 0 -15 -9 -15 -21z"/>
<path d="M3387 870 c-3 -13 0 -20 9 -20 15 0 19 26 5 34 -5 3 -11 -3 -14 -14z"/>
<path d="M694 855 c-7 -18 3 -35 21 -35 18 0 26 15 19 34 -8 20 -33 21 -40 1z"/>
<path d="M843 854 c-8 -21 13 -42 28 -27 13 13 5 43 -11 43 -6 0 -13 -7 -17
-16z"/>
<path d="M1210 830 c0 -5 7 -10 15 -10 8 0 15 5 15 10 0 6 -7 10 -15 10 -8 0
-15 -4 -15 -10z"/>
<path d="M1350 830 c0 -5 7 -10 15 -10 8 0 15 5 15 10 0 6 -7 10 -15 10 -8 0
-15 -4 -15 -10z"/>
<path d="M1475 860 c-3 -5 3 -10 15 -10 12 0 18 5 15 10 -3 6 -10 10 -15 10
-5 0 -12 -4 -15 -10z"/>
<path d="M1590 861 c0 -5 -3 -16 -6 -25 -4 -11 -1 -16 10 -16 10 0 16 9 16 25
0 14 -4 25 -10 25 -5 0 -10 -4 -10 -9z"/>
<path d="M1650 830 c0 -5 4 -10 9 -10 6 0 13 5 16 10 3 6 -1 10 -9 10 -9 0
-16 -4 -16 -10z"/>
<path d="M1827 857 c-3 -8 -2 -20 3 -27 11 -18 42 -4 38 17 -4 22 -34 29 -41
10z"/>
<path d="M1985 860 c-3 -5 3 -10 15 -10 12 0 18 5 15 10 -3 6 -10 10 -15 10
-5 0 -12 -4 -15 -10z"/>
<path d="M2066 852 c-4 -13 -5 -26 -2 -29 10 -11 18 4 14 29 l-4 23 -8 -23z"/>
<path d="M2130 830 c0 -5 4 -10 9 -10 6 0 13 5 16 10 3 6 -1 10 -9 10 -9 0
-16 -4 -16 -10z"/>
<path d="M2400 830 c0 -5 4 -10 9 -10 6 0 13 5 16 10 3 6 -1 10 -9 10 -9 0
-16 -4 -16 -10z"/>
<path d="M2807 864 c-15 -15 -7 -45 11 -42 9 2 17 12 17 22 0 20 -16 31 -28
20z"/>
<path d="M3010 860 c0 -5 7 -10 15 -10 8 0 15 5 15 10 0 6 -7 10 -15 10 -8 0
-15 -4 -15 -10z"/>
<path d="M3110 860 c0 -5 7 -10 15 -10 8 0 15 5 15 10 0 6 -7 10 -15 10 -8 0
-15 -4 -15 -10z"/>
<path d="M3110 830 c0 -5 7 -10 15 -10 8 0 15 5 15 10 0 6 -7 10 -15 10 -8 0
-15 -4 -15 -10z"/>
<path d="M3184 855 c-7 -18 3 -35 22 -35 8 0 14 10 14 25 0 27 -27 35 -36 10z"/>
<path d="M3844 855 c-7 -18 3 -35 22 -35 8 0 14 10 14 25 0 27 -27 35 -36 10z"/>
<path d="M3920 830 c0 -5 7 -10 15 -10 8 0 15 5 15 10 0 6 -7 10 -15 10 -8 0
-15 -4 -15 -10z"/>
<path d="M4050 860 c0 -5 7 -10 15 -10 8 0 15 5 15 10 0 6 -7 10 -15 10 -8 0
-15 -4 -15 -10z"/>
<path d="M4175 860 c-3 -5 3 -10 15 -10 12 0 18 5 15 10 -3 6 -10 10 -15 10
-5 0 -12 -4 -15 -10z"/>
<path d="M1081 704 c0 -11 3 -14 6 -6 3 7 2 16 -1 19 -3 4 -6 -2 -5 -13z"/>
<path d="M1100 655 c0 -8 5 -15 10 -15 6 0 10 7 10 15 0 8 -4 15 -10 15 -5 0
-10 -7 -10 -15z"/>
<path d="M865 701 c-9 -30 4 -63 23 -59 12 2 17 14 17 38 0 40 -29 55 -40 21z"/>
<path d="M964 707 c-9 -25 0 -62 16 -62 10 0 15 10 15 34 0 36 -21 54 -31 28z"/>
<path d="M1800 665 c0 -20 4 -26 18 -23 9 2 17 12 17 23 0 11 -8 21 -17 23
-14 3 -18 -3 -18 -23z"/>
<path d="M2922 668 c2 -12 10 -23 18 -23 22 0 19 39 -3 43 -15 3 -18 -1 -15
-20z"/>
<path d="M3162 680 c-11 -18 -10 -20 8 -20 13 0 20 7 20 20 0 11 -3 20 -8 20
-4 0 -13 -9 -20 -20z"/>
<path d="M3324 675 c-7 -18 3 -35 22 -35 8 0 14 10 14 25 0 27 -27 35 -36 10z"/>
<path d="M3963 680 c-9 -36 -8 -40 8 -40 15 0 19 8 19 40 0 22 -4 40 -8 40 -4
0 -13 -18 -19 -40z"/>
<path d="M1265 650 c-3 -5 1 -10 9 -10 9 0 16 5 16 10 0 6 -4 10 -9 10 -6 0
-13 -4 -16 -10z"/>
<path d="M1464 675 c-7 -18 3 -35 22 -35 8 0 14 10 14 25 0 27 -27 35 -36 10z"/>
<path d="M1570 650 c0 -5 7 -10 15 -10 8 0 15 5 15 10 0 6 -7 10 -15 10 -8 0
-15 -4 -15 -10z"/>
<path d="M1695 650 c-3 -5 1 -10 9 -10 9 0 16 5 16 10 0 6 -4 10 -9 10 -6 0
-13 -4 -16 -10z"/>
<path d="M1870 650 c0 -5 7 -10 15 -10 8 0 15 5 15 10 0 6 -7 10 -15 10 -8 0
-15 -4 -15 -10z"/>
<path d="M2090 650 c0 -5 4 -10 9 -10 6 0 13 5 16 10 3 6 -1 10 -9 10 -9 0
-16 -4 -16 -10z"/>
<path d="M2167 684 c-15 -15 -7 -45 11 -42 9 2 17 12 17 22 0 20 -16 31 -28
20z"/>
<path d="M2365 650 c-3 -5 1 -10 9 -10 9 0 16 5 16 10 0 6 -4 10 -9 10 -6 0
-13 -4 -16 -10z"/>
<path d="M2625 680 c-3 -5 3 -10 15 -10 12 0 18 5 15 10 -3 6 -10 10 -15 10
-5 0 -12 -4 -15 -10z"/>
<path d="M2810 650 c0 -5 7 -10 15 -10 8 0 15 5 15 10 0 6 -7 10 -15 10 -8 0
-15 -4 -15 -10z"/>
<path d="M4040 650 c0 -5 7 -10 15 -10 8 0 15 5 15 10 0 6 -7 10 -15 10 -8 0
-15 -4 -15 -10z"/>
<path d="M1036 515 c-9 -23 -8 -25 9 -25 17 0 19 9 6 28 -7 11 -10 10 -15 -3z"/>
<path d="M780 500 c0 -5 7 -10 15 -10 8 0 15 5 15 10 0 6 -7 10 -15 10 -8 0
-15 -4 -15 -10z"/>
<path d="M780 470 c0 -5 7 -10 15 -10 8 0 15 5 15 10 0 6 -7 10 -15 10 -8 0
-15 -4 -15 -10z"/>
<path d="M850 500 c0 -5 7 -10 15 -10 8 0 15 5 15 10 0 6 -7 10 -15 10 -8 0
-15 -4 -15 -10z"/>
<path d="M925 500 c-3 -5 3 -10 15 -10 12 0 18 5 15 10 -3 6 -10 10 -15 10 -5
0 -12 -4 -15 -10z"/>
<path d="M1205 500 c-3 -5 3 -10 15 -10 12 0 18 5 15 10 -3 6 -10 10 -15 10
-5 0 -12 -4 -15 -10z"/>
<path d="M1287 504 c-15 -15 -7 -45 11 -42 9 2 17 12 17 22 0 20 -16 31 -28
20z"/>
<path d="M1500 470 c0 -5 4 -10 9 -10 6 0 13 5 16 10 3 6 -1 10 -9 10 -9 0
-16 -4 -16 -10z"/>
</g>
</svg>
