<?xml version="1.0" encoding="UTF-8"?>
<!DOCTYPE svg PUBLIC "-//W3C//DTD SVG 1.1//EN" "http://www.w3.org/Graphics/SVG/1.1/DTD/svg11.dtd">
<svg xmlns="http://www.w3.org/2000/svg" version="1.1" width="463px" height="242px" style="shape-rendering:geometricPrecision; text-rendering:geometricPrecision; image-rendering:optimizeQuality; fill-rule:evenodd; clip-rule:evenodd" xmlns:xlink="http://www.w3.org/1999/xlink">
<g><path style="opacity:1" fill="#60bfa8" d="M -0.5,-0.5 C 153.833,-0.5 308.167,-0.5 462.5,-0.5C 462.5,80.1667 462.5,160.833 462.5,241.5C 308.167,241.5 153.833,241.5 -0.5,241.5C -0.5,160.833 -0.5,80.1667 -0.5,-0.5 Z"/></g>
<g><path style="opacity:1" fill="#1e1d26" d="M 221.5,32.5 C 220.817,34.1765 219.483,34.8432 217.5,34.5C 217.5,33.5 217.5,32.5 217.5,31.5C 217.917,30.8761 218.584,30.5427 219.5,30.5C 220.713,30.7472 221.38,31.4138 221.5,32.5 Z"/></g>
<g><path style="opacity:1" fill="#1e433f" d="M 217.5,31.5 C 217.5,32.5 217.5,33.5 217.5,34.5C 219.483,34.8432 220.817,34.1765 221.5,32.5C 255.818,42.322 290.151,52.1553 324.5,62C 325.416,62.3742 326.25,62.8742 327,63.5C 327.497,65.8098 327.663,68.1432 327.5,70.5C 328.791,70.2627 329.791,70.596 330.5,71.5C 328.708,71.634 327.042,71.3007 325.5,70.5C 325.756,68.2075 325.423,66.0408 324.5,64C 291.608,54.2882 258.608,44.9548 225.5,36C 223.287,35.3744 221.12,35.5411 219,36.5C 218.228,36.3552 217.561,36.0219 217,35.5C 216.235,33.9343 216.402,32.6009 217.5,31.5 Z"/></g>
<g><path style="opacity:1" fill="#73bdae" d="M 322.5,71.5 C 257.499,71.3333 192.499,71.5 127.5,72C 126.956,72.7172 126.289,73.2172 125.5,73.5C 125.5,72.5 125.5,71.5 125.5,70.5C 191.335,70.1675 257.002,70.5009 322.5,71.5 Z"/></g>
<g><path style="opacity:1" fill="#1c2126" d="M 325.5,70.5 C 327.042,71.3007 328.708,71.634 330.5,71.5C 336.176,71.3339 341.843,71.5006 347.5,72C 349.333,72.5 350.5,73.6667 351,75.5C 351.667,114.833 351.667,154.167 351,193.5C 350.487,195.521 349.32,197.021 347.5,198C 338.173,198.5 328.839,198.666 319.5,198.5C 328.652,197.344 337.985,196.51 347.5,196C 348.252,195.329 348.586,194.496 348.5,193.5C 349.832,154.098 349.832,114.598 348.5,75C 274.999,74.1678 201.666,74.3345 128.5,75.5C 128.167,75.5 127.833,75.5 127.5,75.5C 126.167,94.9886 125.5,114.822 125.5,135C 125.833,154.833 126.167,174.667 126.5,194.5C 136.315,196.276 146.315,197.109 156.5,197C 156.014,199.027 156.014,201.193 156.5,203.5C 156.167,203.5 155.833,203.5 155.5,203.5C 155.579,202.07 155.246,200.736 154.5,199.5C 145.518,198.668 136.518,198.168 127.5,198C 125.959,196.629 124.625,195.129 123.5,193.5C 123.178,153.457 123.512,113.457 124.5,73.5C 124.833,73.5 125.167,73.5 125.5,73.5C 126.289,73.2172 126.956,72.7172 127.5,72C 192.499,71.5 257.499,71.3333 322.5,71.5C 323.791,71.7373 324.791,71.404 325.5,70.5 Z"/></g>
<g><path style="opacity:1" fill="#df8d69" d="M 127.5,75.5 C 127.833,75.5 128.167,75.5 128.5,75.5C 160.833,75.5 193.167,75.5 225.5,75.5C 225.5,75.8333 225.5,76.1667 225.5,76.5C 193.832,76.3334 162.165,76.5 130.5,77C 128.533,88.9156 127.866,101.082 128.5,113.5C 127.505,101.345 127.171,89.0113 127.5,76.5C 127.5,76.1667 127.5,75.8333 127.5,75.5 Z"/></g>
<g><path style="opacity:1" fill="#f18555" d="M 225.5,76.5 C 225.5,77.5 225.5,78.5 225.5,79.5C 194.498,79.3334 163.498,79.5 132.5,80C 131.944,80.3826 131.611,80.8826 131.5,81.5C 130.505,92.3206 130.172,103.321 130.5,114.5C 129.833,114.5 129.167,114.5 128.5,114.5C 128.5,114.167 128.5,113.833 128.5,113.5C 127.866,101.082 128.533,88.9156 130.5,77C 162.165,76.5 193.832,76.3334 225.5,76.5 Z"/></g>
<g><path style="opacity:1" fill="#7a311f" d="M 225.5,79.5 C 250.5,79.5 275.5,79.5 300.5,79.5C 300.5,114.5 300.5,149.5 300.5,184.5C 300.167,184.5 299.833,184.5 299.5,184.5C 299.5,150.167 299.5,115.833 299.5,81.5C 274.833,81.5 250.167,81.5 225.5,81.5C 194.5,81.5 163.5,81.5 132.5,81.5C 132.5,92.8333 132.5,104.167 132.5,115.5C 132.5,140.167 132.5,164.833 132.5,189.5C 131.502,153.671 131.168,117.671 131.5,81.5C 131.611,80.8826 131.944,80.3826 132.5,80C 163.498,79.5 194.498,79.3334 225.5,79.5 Z"/></g>
<g><path style="opacity:1" fill="#f88b4f" d="M 144.5,100.5 C 144.5,105.5 144.5,110.5 144.5,115.5C 143.596,116.209 143.263,117.209 143.5,118.5C 139.845,119.075 136.845,118.075 134.5,115.5C 134.5,104.5 134.5,93.5 134.5,82.5C 138.798,83.1995 143.131,83.5328 147.5,83.5C 147.719,84.675 147.386,85.675 146.5,86.5C 145.604,85.4937 144.938,85.4937 144.5,86.5C 144.786,91.072 144.786,95.7386 144.5,100.5 Z"/></g>
<g><path style="opacity:1" fill="#ed8655" d="M 225.5,81.5 C 225.5,81.8333 225.5,82.1667 225.5,82.5C 212.167,83.1667 198.833,83.8333 185.5,84.5C 173.823,84.7042 162.156,85.2042 150.5,86C 147.179,87.8119 145.845,90.6453 146.5,94.5C 145.833,96.5 145.167,98.5 144.5,100.5C 144.786,95.7386 144.786,91.072 144.5,86.5C 144.938,85.4937 145.604,85.4937 146.5,86.5C 147.386,85.675 147.719,84.675 147.5,83.5C 143.131,83.5328 138.798,83.1995 134.5,82.5C 134.5,93.5 134.5,104.5 134.5,115.5C 134.167,115.5 133.833,115.5 133.5,115.5C 133.167,115.5 132.833,115.5 132.5,115.5C 132.5,104.167 132.5,92.8333 132.5,81.5C 163.5,81.5 194.5,81.5 225.5,81.5 Z"/></g>
<g><path style="opacity:1" fill="#4d2d28" d="M 185.5,84.5 C 219.183,84.1351 252.85,84.6351 286.5,86C 287.416,86.2784 288.082,86.7784 288.5,87.5C 256.364,85.3989 224.364,85.0656 192.5,86.5C 192.167,86.5 191.833,86.5 191.5,86.5C 177.472,86.5619 163.472,87.2286 149.5,88.5C 148.481,90.604 147.481,92.604 146.5,94.5C 145.845,90.6453 147.179,87.8119 150.5,86C 162.156,85.2042 173.823,84.7042 185.5,84.5 Z"/></g>
<g><path style="opacity:1" fill="#547e71" d="M 191.5,86.5 C 191.833,86.5 192.167,86.5 192.5,86.5C 213.169,86.3334 233.836,86.5 254.5,87C 258.528,87.3918 262.528,87.8918 266.5,88.5C 266.5,89.1667 266.5,89.8333 266.5,90.5C 230.609,87.3474 194.942,88.014 159.5,92.5C 155.662,92.0216 152.329,93.0216 149.5,95.5C 150.359,92.5479 152.359,90.7146 155.5,90C 167.67,89.0159 179.67,87.8492 191.5,86.5 Z"/></g>
<g><path style="opacity:1" fill="#3b2e33" d="M 192.5,86.5 C 224.364,85.0656 256.364,85.3989 288.5,87.5C 289.15,87.8039 289.817,88.1373 290.5,88.5C 291.48,91.0865 291.813,93.7531 291.5,96.5C 290.691,94.7078 290.191,92.7078 290,90.5C 289.193,94.449 288.693,94.449 288.5,90.5C 286.833,90.5 285.167,90.5 283.5,90.5C 277.93,89.1033 272.264,88.4366 266.5,88.5C 262.528,87.8918 258.528,87.3918 254.5,87C 233.836,86.5 213.169,86.3334 192.5,86.5 Z"/></g>
<g><path style="opacity:1" fill="#393436" d="M 191.5,86.5 C 179.67,87.8492 167.67,89.0159 155.5,90C 152.359,90.7146 150.359,92.5479 149.5,95.5C 148.5,96.1667 147.5,96.8333 146.5,97.5C 146.5,96.5 146.5,95.5 146.5,94.5C 147.481,92.604 148.481,90.604 149.5,88.5C 163.472,87.2286 177.472,86.5619 191.5,86.5 Z"/></g>
<g><path style="opacity:1" fill="#1c332f" d="M 266.5,90.5 C 271.01,90.8844 275.343,91.5511 279.5,92.5C 277.219,92.0773 275.552,92.744 274.5,94.5C 238.55,89.5921 202.55,89.2588 166.5,93.5C 164.393,92.5318 162.059,92.1984 159.5,92.5C 194.942,88.014 230.609,87.3474 266.5,90.5 Z"/></g>
<g><path style="opacity:1" fill="#475c58" d="M 266.5,88.5 C 272.264,88.4366 277.93,89.1033 283.5,90.5C 285.297,91.393 286.63,92.7263 287.5,94.5C 284.888,93.6295 282.221,92.9628 279.5,92.5C 275.343,91.5511 271.01,90.8844 266.5,90.5C 266.5,89.8333 266.5,89.1667 266.5,88.5 Z"/></g>
<g><path style="opacity:1" fill="#f5eba6" d="M 258.5,103.5 C 258.005,122.121 255.672,140.455 251.5,158.5C 226.107,163.572 200.441,166.572 174.5,167.5C 173.833,165.5 173.167,163.5 172.5,161.5C 173.57,146.32 173.57,131.154 172.5,116C 172.945,114.553 173.612,113.22 174.5,112C 173.763,109.201 172.93,109.034 172,111.5C 171.502,108.518 171.335,105.518 171.5,102.5C 175.644,101.756 179.811,101.09 184,100.5C 186.891,100.26 189.391,101.093 191.5,103C 194.482,103.498 197.482,103.665 200.5,103.5C 200.5,101.833 200.5,100.167 200.5,98.5C 219.16,97.4226 237.827,97.4226 256.5,98.5C 256.12,100.698 256.787,102.365 258.5,103.5 Z"/></g>
<g><path style="opacity:1" fill="#f2e9ab" d="M 258.5,97.5 C 258.5,97.8333 258.5,98.1667 258.5,98.5C 258.5,100.167 258.5,101.833 258.5,103.5C 256.787,102.365 256.12,100.698 256.5,98.5C 237.827,97.4226 219.16,97.4226 200.5,98.5C 200.5,100.167 200.5,101.833 200.5,103.5C 197.482,103.665 194.482,103.498 191.5,103C 189.391,101.093 186.891,100.26 184,100.5C 179.811,101.09 175.644,101.756 171.5,102.5C 171.335,105.518 171.502,108.518 172,111.5C 172.93,109.034 173.763,109.201 174.5,112C 173.612,113.22 172.945,114.553 172.5,116C 173.57,131.154 173.57,146.32 172.5,161.5C 169.228,153.08 166.895,144.414 165.5,135.5C 165.356,127.49 165.023,119.49 164.5,111.5C 165.268,112.263 165.768,113.263 166,114.5C 168.356,112.138 169.856,109.305 170.5,106C 169.586,104.594 168.92,103.094 168.5,101.5C 171.167,100.5 173.833,99.5 176.5,98.5C 178.833,98.5 181.167,98.5 183.5,98.5C 208.458,96.1815 233.458,95.8482 258.5,97.5 Z"/></g>
<g><path style="opacity:1" fill="#1e1b22" d="M 159.5,92.5 C 162.059,92.1984 164.393,92.5318 166.5,93.5C 161.361,93.4927 157.194,95.4927 154,99.5C 151.998,106.34 150.832,113.34 150.5,120.5C 149.833,128.343 149.167,136.343 148.5,144.5C 147.501,132.852 147.168,121.186 147.5,109.5C 147.118,104.638 147.784,99.9716 149.5,95.5C 152.329,93.0216 155.662,92.0216 159.5,92.5 Z"/></g>
<g><path style="opacity:1" fill="#694932" d="M 146.5,94.5 C 146.5,95.5 146.5,96.5 146.5,97.5C 146.156,103.678 145.489,109.678 144.5,115.5C 144.5,110.5 144.5,105.5 144.5,100.5C 145.167,98.5 145.833,96.5 146.5,94.5 Z"/></g>
<g><path style="opacity:1" fill="#63665e" d="M 149.5,95.5 C 147.784,99.9716 147.118,104.638 147.5,109.5C 146.504,125.325 146.17,141.325 146.5,157.5C 146.784,159.415 146.451,161.081 145.5,162.5C 145.817,158.298 145.483,154.298 144.5,150.5C 144.167,150.5 143.833,150.5 143.5,150.5C 143.5,139.833 143.5,129.167 143.5,118.5C 143.263,117.209 143.596,116.209 144.5,115.5C 145.489,109.678 146.156,103.678 146.5,97.5C 147.5,96.8333 148.5,96.1667 149.5,95.5 Z"/></g>
<g><path style="opacity:1" fill="#dfd696" d="M 258.5,98.5 C 264.011,98.2049 269.344,99.0382 274.5,101C 275.701,101.903 276.535,103.069 277,104.5C 279.313,124.254 278.813,143.921 275.5,163.5C 274.942,165.593 273.609,167.093 271.5,168C 239.208,170.706 206.874,171.206 174.5,169.5C 174.5,169.167 174.5,168.833 174.5,168.5C 198.827,169.432 223.161,169.599 247.5,169C 249.783,165.923 251.116,162.423 251.5,158.5C 255.672,140.455 258.005,122.121 258.5,103.5C 258.5,101.833 258.5,100.167 258.5,98.5 Z"/></g>
<g><path style="opacity:1" fill="#c15c46" d="M 225.5,76.5 C 225.5,76.1667 225.5,75.8333 225.5,75.5C 266.168,75.3333 306.835,75.5 347.5,76C 348.497,115.094 348.83,154.261 348.5,193.5C 275.069,194.831 201.736,194.831 128.5,193.5C 201.167,193.5 273.833,193.5 346.5,193.5C 346.5,154.5 346.5,115.5 346.5,76.5C 306.167,76.5 265.833,76.5 225.5,76.5 Z"/></g>
<g><path style="opacity:1" fill="#6a7976" d="M 292.5,144.5 C 292.5,146.5 292.5,148.5 292.5,150.5C 291.833,138.833 291.167,127.167 290.5,115.5C 290.5,112.833 290.5,110.167 290.5,107.5C 290.337,105.143 290.503,102.81 291,100.5C 292.328,115.133 292.828,129.8 292.5,144.5 Z"/></g>
<g><path style="opacity:1" fill="#507863" d="M 274.5,94.5 C 278.025,94.3459 280.859,95.6792 283,98.5C 285.683,105.929 286.849,113.596 286.5,121.5C 286.829,134.011 286.495,146.345 285.5,158.5C 285.667,147.828 285.5,137.161 285,126.5C 284.817,123.635 284.317,120.969 283.5,118.5C 283.643,112.361 282.81,106.361 281,100.5C 279.442,98.6411 277.609,97.1411 275.5,96C 269.759,95.5664 264.092,94.733 258.5,93.5C 256.833,93.5 255.167,93.5 253.5,93.5C 228.98,92.1126 204.314,92.2793 179.5,94C 172.931,94.4422 166.598,95.7755 160.5,98C 158.859,99.129 157.859,100.629 157.5,102.5C 153.075,120.568 152.408,138.901 155.5,157.5C 154.643,165.111 156.977,171.445 162.5,176.5C 159.495,176.747 156.995,175.747 155,173.5C 153.886,169.706 152.72,166.04 151.5,162.5C 150.682,148.516 150.349,134.516 150.5,120.5C 150.832,113.34 151.998,106.34 154,99.5C 157.194,95.4927 161.361,93.4927 166.5,93.5C 202.55,89.2588 238.55,89.5921 274.5,94.5 Z"/></g>
<g><path style="opacity:1" fill="#bfc194" d="M 176.5,98.5 C 173.833,99.5 171.167,100.5 168.5,101.5C 167.178,101.33 166.011,101.663 165,102.5C 164.502,105.482 164.335,108.482 164.5,111.5C 165.023,119.49 165.356,127.49 165.5,135.5C 165.539,136.756 165.039,137.756 164,138.5C 164.195,136.874 164.195,135.207 164,133.5C 163.167,134.5 162.333,135.5 161.5,136.5C 162.016,135.242 161.35,134.242 159.5,133.5C 159.611,135.109 159.278,136.775 158.5,138.5C 157.021,134.091 156.354,129.424 156.5,124.5C 157.038,117.173 157.371,109.84 157.5,102.5C 163.266,99.0496 169.6,97.7163 176.5,98.5 Z"/></g>
<g><path style="opacity:1" fill="#ebedd9" d="M 168.5,101.5 C 168.92,103.094 169.586,104.594 170.5,106C 169.856,109.305 168.356,112.138 166,114.5C 165.768,113.263 165.268,112.263 164.5,111.5C 164.335,108.482 164.502,105.482 165,102.5C 166.011,101.663 167.178,101.33 168.5,101.5 Z"/></g>
<g><path style="opacity:1" fill="#9cb290" d="M 253.5,93.5 C 234.488,93.1671 215.488,93.5004 196.5,94.5C 191.981,95.6499 187.648,96.9832 183.5,98.5C 181.167,98.5 178.833,98.5 176.5,98.5C 169.6,97.7163 163.266,99.0496 157.5,102.5C 157.859,100.629 158.859,99.129 160.5,98C 166.598,95.7755 172.931,94.4422 179.5,94C 204.314,92.2793 228.98,92.1126 253.5,93.5 Z"/></g>
<g><path style="opacity:1" fill="#b0b98f" d="M 253.5,93.5 C 255.167,93.5 256.833,93.5 258.5,93.5C 258.5,94.8333 258.5,96.1667 258.5,97.5C 233.458,95.8482 208.458,96.1815 183.5,98.5C 187.648,96.9832 191.981,95.6499 196.5,94.5C 215.488,93.5004 234.488,93.1671 253.5,93.5 Z"/></g>
<g><path style="opacity:1" fill="#6caea0" d="M 124.5,73.5 C 123.512,113.457 123.178,153.457 123.5,193.5C 122.833,173.669 122.5,153.669 122.5,133.5C 122.5,113.155 123.167,93.1553 124.5,73.5 Z"/></g>
<g><path style="opacity:1" fill="#1a2023" d="M 147.5,109.5 C 147.168,121.186 147.501,132.852 148.5,144.5C 149.167,136.343 149.833,128.343 150.5,120.5C 150.349,134.516 150.682,148.516 151.5,162.5C 150.258,156.975 149.091,151.308 148,145.5C 147.501,149.486 147.334,153.486 147.5,157.5C 147.167,157.5 146.833,157.5 146.5,157.5C 146.17,141.325 146.504,125.325 147.5,109.5 Z"/></g>
<g><path style="opacity:1" fill="#af573d" d="M 341.5,80.5 C 341.5,80.1667 341.5,79.8333 341.5,79.5C 342.5,79.5 343.5,79.5 344.5,79.5C 345.16,116.848 344.494,153.848 342.5,190.5C 342.5,190.167 342.5,189.833 342.5,189.5C 343.664,153.669 343.831,117.669 343,81.5C 342.617,80.944 342.117,80.6107 341.5,80.5 Z"/></g>
<g><path style="opacity:1" fill="#4c413c" d="M 283.5,90.5 C 285.167,90.5 286.833,90.5 288.5,90.5C 288.693,94.449 289.193,94.449 290,90.5C 290.191,92.7078 290.691,94.7078 291.5,96.5C 292.702,100.714 293.369,105.048 293.5,109.5C 293.5,113.5 293.5,117.5 293.5,121.5C 293.825,129.352 293.492,137.018 292.5,144.5C 292.828,129.8 292.328,115.133 291,100.5C 290.503,102.81 290.337,105.143 290.5,107.5C 289.955,103.11 288.955,98.7764 287.5,94.5C 286.63,92.7263 285.297,91.393 283.5,90.5 Z"/></g>
<g><path style="opacity:1" fill="#1e1722" d="M 279.5,92.5 C 282.221,92.9628 284.888,93.6295 287.5,94.5C 288.955,98.7764 289.955,103.11 290.5,107.5C 290.5,110.167 290.5,112.833 290.5,115.5C 290.5,132.167 290.5,148.833 290.5,165.5C 290.246,173.088 286.246,177.088 278.5,177.5C 279.263,176.732 280.263,176.232 281.5,176C 282.252,175.329 282.586,174.496 282.5,173.5C 284.093,172.652 285.26,171.319 286,169.5C 287.664,153.356 287.831,137.356 286.5,121.5C 286.849,113.596 285.683,105.929 283,98.5C 280.859,95.6792 278.025,94.3459 274.5,94.5C 275.552,92.744 277.219,92.0773 279.5,92.5 Z"/></g>
<g><path style="opacity:1" fill="#d26147" d="M 225.5,82.5 C 225.5,82.1667 225.5,81.8333 225.5,81.5C 250.167,81.5 274.833,81.5 299.5,81.5C 299.5,115.833 299.5,150.167 299.5,184.5C 298.502,150.671 298.168,116.671 298.5,82.5C 274.167,82.5 249.833,82.5 225.5,82.5 Z"/></g>
<g><path style="opacity:1" fill="#391817" d="M 128.5,75.5 C 201.666,74.3345 274.999,74.1678 348.5,75C 349.832,114.598 349.832,154.098 348.5,193.5C 348.83,154.261 348.497,115.094 347.5,76C 306.835,75.5 266.168,75.3333 225.5,75.5C 193.167,75.5 160.833,75.5 128.5,75.5 Z"/></g>
<g><path style="opacity:1" fill="#9cab81" d="M 157.5,102.5 C 157.371,109.84 157.038,117.173 156.5,124.5C 156.354,129.424 157.021,134.091 158.5,138.5C 158.353,148.224 160.186,157.557 164,166.5C 167.243,168.263 170.743,168.929 174.5,168.5C 174.5,168.833 174.5,169.167 174.5,169.5C 174.5,170.167 174.5,170.833 174.5,171.5C 170.785,171.577 167.119,171.244 163.5,170.5C 162.152,169.399 160.652,168.399 159,167.5C 157.514,164.15 156.347,160.816 155.5,157.5C 152.408,138.901 153.075,120.568 157.5,102.5 Z"/></g>
<g><path style="opacity:1" fill="#87996d" d="M 258.5,93.5 C 264.092,94.733 269.759,95.5664 275.5,96C 277.609,97.1411 279.442,98.6411 281,100.5C 282.81,106.361 283.643,112.361 283.5,118.5C 283.667,130.171 283.5,141.838 283,153.5C 282.934,159.012 282.1,164.346 280.5,169.5C 278.797,168.34 278.131,169.007 278.5,171.5C 276.641,171.461 275.308,172.294 274.5,174C 272.101,174.711 269.768,174.544 267.5,173.5C 261.187,176.122 254.854,176.122 248.5,173.5C 220.437,176.88 192.437,177.047 164.5,174C 162.505,173.076 162.172,171.91 163.5,170.5C 167.119,171.244 170.785,171.577 174.5,171.5C 203.095,172.658 231.761,172.824 260.5,172C 264.584,171.769 268.584,171.102 272.5,170C 274.919,168.491 275.919,166.325 275.5,163.5C 278.813,143.921 279.313,124.254 277,104.5C 276.535,103.069 275.701,101.903 274.5,101C 269.344,99.0382 264.011,98.2049 258.5,98.5C 258.5,98.1667 258.5,97.8333 258.5,97.5C 258.5,96.1667 258.5,94.8333 258.5,93.5 Z"/></g>
<g><path style="opacity:1" fill="#ad5946" d="M 127.5,76.5 C 127.171,89.0113 127.505,101.345 128.5,113.5C 128.5,113.833 128.5,114.167 128.5,114.5C 128.5,140.833 128.5,167.167 128.5,193.5C 127.883,193.389 127.383,193.056 127,192.5C 126.169,153.664 126.335,114.998 127.5,76.5 Z"/></g>
<g><path style="opacity:1" fill="#d35a3d" d="M 225.5,82.5 C 249.833,82.5 274.167,82.5 298.5,82.5C 298.168,116.671 298.502,150.671 299.5,184.5C 299.5,185.5 299.5,186.5 299.5,187.5C 288.162,187.667 276.828,187.5 265.5,187C 275.141,185.168 284.807,185.002 294.5,186.5C 294.745,181.946 294.412,177.446 293.5,173C 294.8,162.287 295.466,151.454 295.5,140.5C 295.499,129.811 294.832,119.478 293.5,109.5C 293.369,105.048 292.702,100.714 291.5,96.5C 291.813,93.7531 291.48,91.0865 290.5,88.5C 289.817,88.1373 289.15,87.8039 288.5,87.5C 288.082,86.7784 287.416,86.2784 286.5,86C 252.85,84.6351 219.183,84.1351 185.5,84.5C 198.833,83.8333 212.167,83.1667 225.5,82.5 Z"/></g>
<g><path style="opacity:1" fill="#301510" d="M 300.5,79.5 C 314.167,79.5 327.833,79.5 341.5,79.5C 341.5,79.8333 341.5,80.1667 341.5,80.5C 342.117,80.6107 342.617,80.944 343,81.5C 343.831,117.669 343.664,153.669 342.5,189.5C 342.737,188.209 342.404,187.209 341.5,186.5C 327.833,186.5 314.167,186.5 300.5,186.5C 300.5,185.833 300.5,185.167 300.5,184.5C 300.5,149.5 300.5,114.5 300.5,79.5 Z"/></g>
<g><path style="opacity:1" fill="#2d3836" d="M 301.5,82.5 C 301.833,82.5 302.167,82.5 302.5,82.5C 302.5,83.1667 302.5,83.8333 302.5,84.5C 302.5,112.167 302.5,139.833 302.5,167.5C 302.5,173.167 302.5,178.833 302.5,184.5C 315.5,184.5 328.5,184.5 341.5,184.5C 341.5,150.5 341.5,116.5 341.5,82.5C 342.498,116.663 342.832,150.996 342.5,185.5C 328.833,185.5 315.167,185.5 301.5,185.5C 301.5,151.167 301.5,116.833 301.5,82.5 Z"/></g>
<g><path style="opacity:1" fill="#59745f" d="M 340.5,106.5 C 340.824,131.878 340.491,157.211 339.5,182.5C 327.848,183.666 316.181,183.833 304.5,183C 303.529,177.928 303.195,172.762 303.5,167.5C 304.5,167.5 305.5,167.5 306.5,167.5C 306.833,167.5 307.167,167.5 307.5,167.5C 307.5,167.833 307.5,168.167 307.5,168.5C 307.577,169.75 308.244,170.583 309.5,171C 308.027,171.71 307.36,172.876 307.5,174.5C 316.167,174.5 324.833,174.5 333.5,174.5C 333.64,172.876 332.973,171.71 331.5,171C 332.094,170.536 332.761,170.369 333.5,170.5C 334.833,167.5 334.833,164.5 333.5,161.5C 333.5,160.833 333.5,160.167 333.5,159.5C 334.488,154.36 334.821,149.026 334.5,143.5C 333.5,143.5 332.5,143.5 331.5,143.5C 331.5,143.167 331.5,142.833 331.5,142.5C 332.376,142.631 333.043,142.298 333.5,141.5C 324.859,140.502 316.192,140.169 307.5,140.5C 307.5,139.5 307.5,138.5 307.5,137.5C 316.318,136.507 325.318,136.173 334.5,136.5C 334.5,133.833 334.5,131.167 334.5,128.5C 334.833,127.833 335.167,127.167 335.5,126.5C 336.468,124.393 336.802,122.059 336.5,119.5C 337.695,115.037 339.028,110.704 340.5,106.5 Z"/></g>
<g><path style="opacity:1" fill="#465f57" d="M 341.5,82.5 C 341.5,116.5 341.5,150.5 341.5,184.5C 328.5,184.5 315.5,184.5 302.5,184.5C 302.5,178.833 302.5,173.167 302.5,167.5C 302.833,167.5 303.167,167.5 303.5,167.5C 303.195,172.762 303.529,177.928 304.5,183C 316.181,183.833 327.848,183.666 339.5,182.5C 340.491,157.211 340.824,131.878 340.5,106.5C 340.666,99.1591 340.5,91.8258 340,84.5C 339.5,84 339,83.5 338.5,83C 327.167,82.3333 315.833,82.3333 304.5,83C 303.956,83.7172 303.289,84.2172 302.5,84.5C 302.5,83.8333 302.5,83.1667 302.5,82.5C 315.402,81.179 328.402,81.179 341.5,82.5 Z"/></g>
<g><path style="opacity:1" fill="#719986" d="M 340.5,106.5 C 339.028,110.704 337.695,115.037 336.5,119.5C 336.167,119.5 335.833,119.5 335.5,119.5C 326.343,118.342 317.009,118.176 307.5,119C 306.167,122 306.167,125 307.5,128C 316.494,128.5 325.494,128.666 334.5,128.5C 334.5,131.167 334.5,133.833 334.5,136.5C 325.318,136.173 316.318,136.507 307.5,137.5C 307.134,146.086 306.134,154.586 304.5,163C 306.107,164.049 306.773,165.549 306.5,167.5C 305.5,167.5 304.5,167.5 303.5,167.5C 303.167,167.5 302.833,167.5 302.5,167.5C 302.5,139.833 302.5,112.167 302.5,84.5C 303.289,84.2172 303.956,83.7172 304.5,83C 315.833,82.3333 327.167,82.3333 338.5,83C 339,83.5 339.5,84 340,84.5C 340.5,91.8258 340.666,99.1591 340.5,106.5 Z"/></g>
<g><path style="opacity:1" fill="#465d55" d="M 335.5,104.5 C 334.527,109.647 331.527,113.147 326.5,115C 323.167,115.667 319.833,115.667 316.5,115C 314.34,114.004 312.673,112.504 311.5,110.5C 321.506,115.928 329.506,113.928 335.5,104.5 Z"/></g>
<g><path style="opacity:1" fill="#4a615c" d="M 307.5,96.5 C 307.337,98.8568 307.503,101.19 308,103.5C 309.193,105.886 310.36,108.22 311.5,110.5C 306.787,106.76 305.454,102.094 307.5,96.5 Z"/></g>
<g><path style="opacity:1" fill="#2f3428" d="M 335.5,104.5 C 329.506,113.928 321.506,115.928 311.5,110.5C 310.36,108.22 309.193,105.886 308,103.5C 307.503,101.19 307.337,98.8568 307.5,96.5C 311.892,85.3172 319.559,82.4838 330.5,88C 336.108,92.3654 337.775,97.8654 335.5,104.5 Z"/></g>
<g><path style="opacity:1" fill="#c6bb8b" d="M 315.5,109.5 C 313.983,109.489 312.816,108.823 312,107.5C 309.165,102.657 308.832,97.6569 311,92.5C 312.129,90.8588 313.629,89.8588 315.5,89.5C 325.091,85.1248 331.424,88.1248 334.5,98.5C 332.506,110.242 326.172,113.909 315.5,109.5 Z"/></g>
<g><path style="opacity:1" fill="#f8eaaa" d="M 315.5,109.5 C 313.8,107.79 312.467,105.79 311.5,103.5C 314.131,101.995 313.797,101.329 310.5,101.5C 310.34,99.8008 310.506,98.1341 311,96.5C 316.612,99.7239 321.779,103.557 326.5,108C 323.042,109.415 319.375,109.915 315.5,109.5 Z"/></g>
<g><path style="opacity:1" fill="#271d1f" d="M 315.5,93.5 C 320.167,96.5 324.833,99.5 329.5,102.5C 329.5,103.5 329.5,104.5 329.5,105.5C 323.323,103.248 317.99,99.7475 313.5,95C 313.836,93.9701 314.503,93.4701 315.5,93.5 Z"/></g>
<g><path style="opacity:1" fill="#f7ecb2" d="M 329.5,102.5 C 324.833,99.5 320.167,96.5 315.5,93.5C 315.082,92.7784 314.416,92.2784 313.5,92C 314.381,91.2917 315.047,90.4584 315.5,89.5C 324.457,86.6316 329.791,89.7982 331.5,99C 331.392,100.681 330.725,101.848 329.5,102.5 Z"/></g>
<g><path style="opacity:1" fill="#1d1c1d" d="M 341.5,80.5 C 341.5,81.1667 341.5,81.8333 341.5,82.5C 328.402,81.179 315.402,81.179 302.5,82.5C 302.167,82.5 301.833,82.5 301.5,82.5C 314.458,80.5186 327.791,79.8519 341.5,80.5 Z"/></g>
<g><path style="opacity:1" fill="#ca5b43" d="M 293.5,109.5 C 294.832,119.478 295.499,129.811 295.5,140.5C 295.466,151.454 294.8,162.287 293.5,173C 294.412,177.446 294.745,181.946 294.5,186.5C 284.807,185.002 275.141,185.168 265.5,187C 276.828,187.5 288.162,187.667 299.5,187.5C 299.5,186.5 299.5,185.5 299.5,184.5C 299.833,184.5 300.167,184.5 300.5,184.5C 300.5,185.167 300.5,185.833 300.5,186.5C 313.66,187.331 326.994,187.831 340.5,188C 271.501,188.5 202.501,188.667 133.5,188.5C 133.5,164.833 133.5,141.167 133.5,117.5C 134.498,140.327 134.831,163.327 134.5,186.5C 139.214,186.827 143.88,186.493 148.5,185.5C 146.995,184.158 146.328,182.492 146.5,180.5C 147.364,181.688 148.364,182.855 149.5,184C 187.654,185.719 225.654,185.886 263.5,184.5C 271.84,184.666 280.173,184.5 288.5,184C 289.056,183.617 289.389,183.117 289.5,182.5C 290.222,182.082 290.722,181.416 291,180.5C 294.375,160.786 295.209,141.119 293.5,121.5C 293.5,117.5 293.5,113.5 293.5,109.5 Z"/></g>
<g><path style="opacity:1" fill="#b15443" d="M 131.5,81.5 C 131.168,117.671 131.502,153.671 132.5,189.5C 202.331,190.499 272.331,190.833 342.5,190.5C 272.335,191.665 202.001,191.832 131.5,191C 130.505,165.574 130.172,140.074 130.5,114.5C 130.172,103.321 130.505,92.3206 131.5,81.5 Z"/></g>
<g><path style="opacity:1" fill="#d55b3f" d="M 225.5,76.5 C 265.833,76.5 306.167,76.5 346.5,76.5C 346.5,115.5 346.5,154.5 346.5,193.5C 273.833,193.5 201.167,193.5 128.5,193.5C 128.5,167.167 128.5,140.833 128.5,114.5C 129.167,114.5 129.833,114.5 130.5,114.5C 130.172,140.074 130.505,165.574 131.5,191C 202.001,191.832 272.335,191.665 342.5,190.5C 344.494,153.848 345.16,116.848 344.5,79.5C 343.5,79.5 342.5,79.5 341.5,79.5C 327.833,79.5 314.167,79.5 300.5,79.5C 275.5,79.5 250.5,79.5 225.5,79.5C 225.5,78.5 225.5,77.5 225.5,76.5 Z"/></g>
<g><path style="opacity:1" fill="#611910" d="M 341.5,186.5 C 342.404,187.209 342.737,188.209 342.5,189.5C 342.5,189.833 342.5,190.167 342.5,190.5C 272.331,190.833 202.331,190.499 132.5,189.5C 202.167,189.5 271.833,189.5 341.5,189.5C 341.5,188.5 341.5,187.5 341.5,186.5 Z"/></g>
<g><path style="opacity:1" fill="#b1513c" d="M 132.5,115.5 C 132.833,115.5 133.167,115.5 133.5,115.5C 133.5,116.167 133.5,116.833 133.5,117.5C 133.5,141.167 133.5,164.833 133.5,188.5C 202.501,188.667 271.501,188.5 340.5,188C 326.994,187.831 313.66,187.331 300.5,186.5C 314.167,186.5 327.833,186.5 341.5,186.5C 341.5,187.5 341.5,188.5 341.5,189.5C 271.833,189.5 202.167,189.5 132.5,189.5C 132.5,164.833 132.5,140.167 132.5,115.5 Z"/></g>
<g><path style="opacity:1" fill="#4e2120" d="M 146.5,177.5 C 148.052,179.035 149.385,180.869 150.5,183C 188.15,184.382 225.817,184.882 263.5,184.5C 225.654,185.886 187.654,185.719 149.5,184C 148.364,182.855 147.364,181.688 146.5,180.5C 146.5,179.5 146.5,178.5 146.5,177.5 Z"/></g>
<g><path style="opacity:1" fill="#3d2a31" d="M 146.5,157.5 C 146.833,157.5 147.167,157.5 147.5,157.5C 146.988,164.11 148.321,170.277 151.5,176C 153.715,177.044 156.048,177.71 158.5,178C 169.143,179.043 179.809,179.543 190.5,179.5C 194.312,180.324 198.312,180.824 202.5,181C 189.5,181.333 176.5,181.667 163.5,182C 165.5,182.333 167.5,182.667 169.5,183C 206.167,183.667 242.833,183.667 279.5,183C 282.167,182.667 284.833,182.333 287.5,182C 283.687,180.738 279.687,180.071 275.5,180C 276.416,179.722 277.082,179.222 277.5,178.5C 278.167,178.5 278.5,178.167 278.5,177.5C 286.246,177.088 290.246,173.088 290.5,165.5C 290.833,165.5 291.167,165.5 291.5,165.5C 291.16,171.208 290.493,176.875 289.5,182.5C 289.389,183.117 289.056,183.617 288.5,184C 280.173,184.5 271.84,184.666 263.5,184.5C 225.817,184.882 188.15,184.382 150.5,183C 149.385,180.869 148.052,179.035 146.5,177.5C 146.5,176.5 146.5,175.5 146.5,174.5C 146.693,170.434 146.36,166.434 145.5,162.5C 146.451,161.081 146.784,159.415 146.5,157.5 Z"/></g>
<g><path style="opacity:1" fill="#30252d" d="M 277.5,178.5 C 277.082,179.222 276.416,179.722 275.5,180C 279.687,180.071 283.687,180.738 287.5,182C 284.833,182.333 282.167,182.667 279.5,183C 242.833,183.667 206.167,183.667 169.5,183C 167.5,182.667 165.5,182.333 163.5,182C 176.5,181.667 189.5,181.333 202.5,181C 198.312,180.824 194.312,180.324 190.5,179.5C 219.508,179.671 248.508,179.338 277.5,178.5 Z"/></g>
<g><path style="opacity:1" fill="#272f2e" d="M 282.5,173.5 C 282.586,174.496 282.252,175.329 281.5,176C 280.263,176.232 279.263,176.732 278.5,177.5C 278.5,178.167 278.167,178.5 277.5,178.5C 248.508,179.338 219.508,179.671 190.5,179.5C 190.5,179.167 190.5,178.833 190.5,178.5C 192.833,178.5 195.167,178.5 197.5,178.5C 220.558,178.981 243.558,178.314 266.5,176.5C 272.255,177.168 277.588,176.168 282.5,173.5 Z"/></g>
<g><path style="opacity:1" fill="#4e695a" d="M 164.5,176.5 C 175.694,176.472 186.694,177.139 197.5,178.5C 195.167,178.5 192.833,178.5 190.5,178.5C 181.628,178.581 172.961,177.915 164.5,176.5 Z"/></g>
<g><path style="opacity:1" fill="#c15f47" d="M 143.5,150.5 C 143.833,150.5 144.167,150.5 144.5,150.5C 144.065,158.743 144.731,166.743 146.5,174.5C 146.5,175.5 146.5,176.5 146.5,177.5C 146.5,178.5 146.5,179.5 146.5,180.5C 145.113,178.123 144.279,175.457 144,172.5C 143.5,165.174 143.334,157.841 143.5,150.5 Z"/></g>
<g><path style="opacity:1" fill="#7a936f" d="M 155.5,157.5 C 156.347,160.816 157.514,164.15 159,167.5C 160.652,168.399 162.152,169.399 163.5,170.5C 162.172,171.91 162.505,173.076 164.5,174C 192.437,177.047 220.437,176.88 248.5,173.5C 254.854,176.122 261.187,176.122 267.5,173.5C 269.768,174.544 272.101,174.711 274.5,174C 275.308,172.294 276.641,171.461 278.5,171.5C 278.131,169.007 278.797,168.34 280.5,169.5C 279.432,171.74 277.766,173.574 275.5,175C 272.305,175.181 269.305,175.681 266.5,176.5C 243.558,178.314 220.558,178.981 197.5,178.5C 186.694,177.139 175.694,176.472 164.5,176.5C 163.833,176.5 163.167,176.5 162.5,176.5C 156.977,171.445 154.643,165.111 155.5,157.5 Z"/></g>
<g><path style="opacity:1" fill="#444a45" d="M 307.5,168.5 C 316.565,167.864 325.231,168.53 333.5,170.5C 332.761,170.369 332.094,170.536 331.5,171C 332.973,171.71 333.64,172.876 333.5,174.5C 324.833,174.5 316.167,174.5 307.5,174.5C 307.36,172.876 308.027,171.71 309.5,171C 308.244,170.583 307.577,169.75 307.5,168.5 Z"/></g>
<g><path style="opacity:1" fill="#acb789" d="M 275.5,163.5 C 275.919,166.325 274.919,168.491 272.5,170C 268.584,171.102 264.584,171.769 260.5,172C 231.761,172.824 203.095,172.658 174.5,171.5C 174.5,170.833 174.5,170.167 174.5,169.5C 206.874,171.206 239.208,170.706 271.5,168C 273.609,167.093 274.942,165.593 275.5,163.5 Z"/></g>
<g><path style="opacity:1" fill="#5b6961" d="M 333.5,161.5 C 334.833,164.5 334.833,167.5 333.5,170.5C 325.231,168.53 316.565,167.864 307.5,168.5C 307.5,168.167 307.5,167.833 307.5,167.5C 307.5,167.167 307.5,166.833 307.5,166.5C 316.192,166.831 324.859,166.498 333.5,165.5C 331.257,164.526 328.924,164.192 326.5,164.5C 326.5,164.167 326.5,163.833 326.5,163.5C 329.388,164.01 331.721,163.344 333.5,161.5 Z"/></g>
<g><path style="opacity:1" fill="#578469" d="M 283.5,118.5 C 284.317,120.969 284.817,123.635 285,126.5C 285.5,137.161 285.667,147.828 285.5,158.5C 285.391,163.71 284.391,168.71 282.5,173.5C 277.588,176.168 272.255,177.168 266.5,176.5C 269.305,175.681 272.305,175.181 275.5,175C 277.766,173.574 279.432,171.74 280.5,169.5C 282.1,164.346 282.934,159.012 283,153.5C 283.5,141.838 283.667,130.171 283.5,118.5 Z"/></g>
<g><path style="opacity:1" fill="#384340" d="M 326.5,164.5 C 328.924,164.192 331.257,164.526 333.5,165.5C 324.859,166.498 316.192,166.831 307.5,166.5C 313.412,164.544 319.745,163.877 326.5,164.5 Z"/></g>
<g><path style="opacity:1" fill="#211b22" d="M 151.5,162.5 C 152.72,166.04 153.886,169.706 155,173.5C 156.995,175.747 159.495,176.747 162.5,176.5C 163.167,176.5 163.833,176.5 164.5,176.5C 172.961,177.915 181.628,178.581 190.5,178.5C 190.5,178.833 190.5,179.167 190.5,179.5C 179.809,179.543 169.143,179.043 158.5,178C 156.048,177.71 153.715,177.044 151.5,176C 148.321,170.277 146.988,164.11 147.5,157.5C 147.334,153.486 147.501,149.486 148,145.5C 149.091,151.308 150.258,156.975 151.5,162.5 Z"/></g>
<g><path style="opacity:1" fill="#758e83" d="M 307.5,137.5 C 307.5,138.5 307.5,139.5 307.5,140.5C 315.097,142.467 323.097,143.134 331.5,142.5C 331.5,142.833 331.5,143.167 331.5,143.5C 323.316,143.174 315.316,143.508 307.5,144.5C 314.76,146.465 322.427,147.132 330.5,146.5C 330.5,146.833 330.5,147.167 330.5,147.5C 322.804,147.169 315.138,147.503 307.5,148.5C 314.811,149.331 322.144,149.831 329.5,150C 322.5,150.333 315.5,150.667 308.5,151C 307.944,151.383 307.611,151.883 307.5,152.5C 307.5,153.167 307.5,153.833 307.5,154.5C 314.087,156.461 321.087,157.128 328.5,156.5C 321.274,156.849 314.274,157.849 307.5,159.5C 307.5,160.167 307.5,160.833 307.5,161.5C 313.412,163.456 319.745,164.123 326.5,163.5C 326.5,163.833 326.5,164.167 326.5,164.5C 319.745,163.877 313.412,164.544 307.5,166.5C 307.5,166.833 307.5,167.167 307.5,167.5C 307.167,167.5 306.833,167.5 306.5,167.5C 306.773,165.549 306.107,164.049 304.5,163C 306.134,154.586 307.134,146.086 307.5,137.5 Z"/></g>
<g><path style="opacity:1" fill="#343d39" d="M 307.5,161.5 C 316.167,161.5 324.833,161.5 333.5,161.5C 331.721,163.344 329.388,164.01 326.5,163.5C 319.745,164.123 313.412,163.456 307.5,161.5 Z"/></g>
<g><path style="opacity:1" fill="#5d6a67" d="M 307.5,159.5 C 316.167,159.5 324.833,159.5 333.5,159.5C 333.5,160.167 333.5,160.833 333.5,161.5C 324.833,161.5 316.167,161.5 307.5,161.5C 307.5,160.833 307.5,160.167 307.5,159.5 Z"/></g>
<g><path style="opacity:1" fill="#e8de9b" d="M 251.5,158.5 C 251.116,162.423 249.783,165.923 247.5,169C 223.161,169.599 198.827,169.432 174.5,168.5C 174.5,168.167 174.5,167.833 174.5,167.5C 200.441,166.572 226.107,163.572 251.5,158.5 Z"/></g>
<g><path style="opacity:1" fill="#5a382d" d="M 144.5,150.5 C 145.483,154.298 145.817,158.298 145.5,162.5C 146.36,166.434 146.693,170.434 146.5,174.5C 144.731,166.743 144.065,158.743 144.5,150.5 Z"/></g>
<g><path style="opacity:1" fill="#333c38" d="M 307.5,154.5 C 316.192,154.169 324.859,154.502 333.5,155.5C 331.955,156.452 330.288,156.785 328.5,156.5C 321.087,157.128 314.087,156.461 307.5,154.5 Z"/></g>
<g><path style="opacity:1" fill="#1e2829" d="M 286.5,121.5 C 287.831,137.356 287.664,153.356 286,169.5C 285.26,171.319 284.093,172.652 282.5,173.5C 284.391,168.71 285.391,163.71 285.5,158.5C 286.495,146.345 286.829,134.011 286.5,121.5 Z"/></g>
<g><path style="opacity:1" fill="#535e58" d="M 307.5,144.5 C 315.316,143.508 323.316,143.174 331.5,143.5C 332.5,143.5 333.5,143.5 334.5,143.5C 334.821,149.026 334.488,154.36 333.5,159.5C 324.833,159.5 316.167,159.5 307.5,159.5C 314.274,157.849 321.274,156.849 328.5,156.5C 330.288,156.785 331.955,156.452 333.5,155.5C 324.859,154.502 316.192,154.169 307.5,154.5C 307.5,153.833 307.5,153.167 307.5,152.5C 316.192,152.831 324.859,152.498 333.5,151.5C 332.167,150.5 332.167,149.5 333.5,148.5C 332.675,147.614 331.675,147.281 330.5,147.5C 330.5,147.167 330.5,146.833 330.5,146.5C 331.675,146.719 332.675,146.386 333.5,145.5C 324.859,144.502 316.192,144.169 307.5,144.5 Z"/></g>
<g><path style="opacity:1" fill="#5c332c" d="M 293.5,121.5 C 295.209,141.119 294.375,160.786 291,180.5C 290.722,181.416 290.222,182.082 289.5,182.5C 290.493,176.875 291.16,171.208 291.5,165.5C 291.751,160.493 292.084,155.493 292.5,150.5C 292.5,148.5 292.5,146.5 292.5,144.5C 293.492,137.018 293.825,129.352 293.5,121.5 Z"/></g>
<g><path style="opacity:1" fill="#3c4541" d="M 330.5,147.5 C 331.675,147.281 332.675,147.614 333.5,148.5C 332.167,149.5 332.167,150.5 333.5,151.5C 324.859,152.498 316.192,152.831 307.5,152.5C 307.611,151.883 307.944,151.383 308.5,151C 315.5,150.667 322.5,150.333 329.5,150C 322.144,149.831 314.811,149.331 307.5,148.5C 315.138,147.503 322.804,147.169 330.5,147.5 Z"/></g>
<g><path style="opacity:1" fill="#db603e" d="M 133.5,115.5 C 133.833,115.5 134.167,115.5 134.5,115.5C 136.845,118.075 139.845,119.075 143.5,118.5C 143.5,129.167 143.5,139.833 143.5,150.5C 143.334,157.841 143.5,165.174 144,172.5C 144.279,175.457 145.113,178.123 146.5,180.5C 146.328,182.492 146.995,184.158 148.5,185.5C 143.88,186.493 139.214,186.827 134.5,186.5C 134.831,163.327 134.498,140.327 133.5,117.5C 133.5,116.833 133.5,116.167 133.5,115.5 Z"/></g>
<g><path style="opacity:1" fill="#3f4c47" d="M 307.5,144.5 C 316.192,144.169 324.859,144.502 333.5,145.5C 332.675,146.386 331.675,146.719 330.5,146.5C 322.427,147.132 314.76,146.465 307.5,144.5 Z"/></g>
<g><path style="opacity:1" fill="#cfca93" d="M 165.5,135.5 C 166.895,144.414 169.228,153.08 172.5,161.5C 173.167,163.5 173.833,165.5 174.5,167.5C 174.5,167.833 174.5,168.167 174.5,168.5C 170.743,168.929 167.243,168.263 164,166.5C 160.186,157.557 158.353,148.224 158.5,138.5C 159.278,136.775 159.611,135.109 159.5,133.5C 161.35,134.242 162.016,135.242 161.5,136.5C 162.333,135.5 163.167,134.5 164,133.5C 164.195,135.207 164.195,136.874 164,138.5C 165.039,137.756 165.539,136.756 165.5,135.5 Z"/></g>
<g><path style="opacity:1" fill="#343c39" d="M 307.5,140.5 C 316.192,140.169 324.859,140.502 333.5,141.5C 333.043,142.298 332.376,142.631 331.5,142.5C 323.097,143.134 315.097,142.467 307.5,140.5 Z"/></g>
<g><path style="opacity:1" fill="#3a3f42" d="M 290.5,115.5 C 291.167,127.167 291.833,138.833 292.5,150.5C 292.084,155.493 291.751,160.493 291.5,165.5C 291.167,165.5 290.833,165.5 290.5,165.5C 290.5,148.833 290.5,132.167 290.5,115.5 Z"/></g>
<g><path style="opacity:1" fill="#3c4745" d="M 335.5,119.5 C 335.833,119.5 336.167,119.5 336.5,119.5C 336.802,122.059 336.468,124.393 335.5,126.5C 326.494,126.666 317.494,126.5 308.5,126C 341.793,125.662 341.793,124.662 308.5,123C 343.167,122.333 343.167,121.667 308.5,121C 317.676,120.83 326.676,120.33 335.5,119.5 Z"/></g>
<g><path style="opacity:1" fill="#222f2d" d="M 335.5,119.5 C 326.676,120.33 317.676,120.83 308.5,121C 343.167,121.667 343.167,122.333 308.5,123C 341.793,124.662 341.793,125.662 308.5,126C 317.494,126.5 326.494,126.666 335.5,126.5C 335.167,127.167 334.833,127.833 334.5,128.5C 325.494,128.666 316.494,128.5 307.5,128C 306.167,125 306.167,122 307.5,119C 317.009,118.176 326.343,118.342 335.5,119.5 Z"/></g>
<g><path style="opacity:1" fill="#27141b" d="M 127.5,75.5 C 127.5,75.8333 127.5,76.1667 127.5,76.5C 126.335,114.998 126.169,153.664 127,192.5C 127.383,193.056 127.883,193.389 128.5,193.5C 201.736,194.831 275.069,194.831 348.5,193.5C 348.586,194.496 348.252,195.329 347.5,196C 337.985,196.51 328.652,197.344 319.5,198.5C 318.518,201.763 317.851,205.097 317.5,208.5C 317.5,208.833 317.5,209.167 317.5,209.5C 311.25,211.459 304.584,212.126 297.5,211.5C 297.768,209.901 297.434,208.568 296.5,207.5C 296.072,204.215 295.072,201.215 293.5,198.5C 293.389,197.883 293.056,197.383 292.5,197C 255.167,196.333 217.833,196.333 180.5,197C 177.971,199.642 176.971,202.808 177.5,206.5C 177.5,207.167 177.5,207.833 177.5,208.5C 177.5,209.5 177.5,210.5 177.5,211.5C 171.158,211.666 164.825,211.5 158.5,211C 157.944,210.617 157.611,210.117 157.5,209.5C 157.737,208.209 157.404,207.209 156.5,206.5C 156.5,205.5 156.5,204.5 156.5,203.5C 156.014,201.193 156.014,199.027 156.5,197C 146.315,197.109 136.315,196.276 126.5,194.5C 126.167,174.667 125.833,154.833 125.5,135C 125.5,114.822 126.167,94.9886 127.5,75.5 Z"/></g>
<g><path style="opacity:1" fill="#162528" d="M 293.5,198.5 C 255.827,198.167 218.161,198.5 180.5,199.5C 179.691,201.071 179.357,202.738 179.5,204.5C 178.662,204.842 178.328,205.508 178.5,206.5C 178.167,206.5 177.833,206.5 177.5,206.5C 176.971,202.808 177.971,199.642 180.5,197C 217.833,196.333 255.167,196.333 292.5,197C 293.056,197.383 293.389,197.883 293.5,198.5 Z"/></g>
<g><path style="opacity:1" fill="#63bda7" d="M 293.5,198.5 C 293.466,201.199 294.133,203.699 295.5,206C 276.167,206.167 256.833,206.333 237.5,206.5C 217.822,206.5 198.488,205.833 179.5,204.5C 179.357,202.738 179.691,201.071 180.5,199.5C 218.161,198.5 255.827,198.167 293.5,198.5 Z"/></g>
<g><path style="opacity:1" fill="#382a34" d="M 158.5,202.5 C 164.167,202.5 169.833,202.5 175.5,202.5C 175.739,204.467 175.406,206.301 174.5,208C 169.511,208.499 164.511,208.666 159.5,208.5C 159.167,206.5 158.833,204.5 158.5,202.5 Z"/></g>
<g><path style="opacity:1" fill="#392933" d="M 298.5,202.5 C 304.167,202.5 309.833,202.5 315.5,202.5C 315.167,204.5 314.833,206.5 314.5,208.5C 309.5,208.5 304.5,208.5 299.5,208.5C 299.167,206.5 298.833,204.5 298.5,202.5 Z"/></g>
<g><path style="opacity:1" fill="#56817c" d="M 293.5,198.5 C 295.072,201.215 296.072,204.215 296.5,207.5C 256.996,207.832 217.663,207.499 178.5,206.5C 178.328,205.508 178.662,204.842 179.5,204.5C 198.488,205.833 217.822,206.5 237.5,206.5C 256.833,206.333 276.167,206.167 295.5,206C 294.133,203.699 293.466,201.199 293.5,198.5 Z"/></g>
<g><path style="opacity:1" fill="#5e8d87" d="M 155.5,203.5 C 155.833,203.5 156.167,203.5 156.5,203.5C 156.5,204.5 156.5,205.5 156.5,206.5C 150.926,208.453 144.926,209.12 138.5,208.5C 143.975,207.511 149.642,207.178 155.5,207.5C 155.5,206.167 155.5,204.833 155.5,203.5 Z"/></g>
<g><path style="opacity:1" fill="#332c38" d="M 177.5,206.5 C 177.833,206.5 178.167,206.5 178.5,206.5C 217.663,207.499 256.996,207.832 296.5,207.5C 257.004,208.499 217.337,208.832 177.5,208.5C 177.5,207.833 177.5,207.167 177.5,206.5 Z"/></g>
<g><path style="opacity:1" fill="#392635" d="M 296.5,207.5 C 297.434,208.568 297.768,209.901 297.5,211.5C 304.584,212.126 311.25,211.459 317.5,209.5C 331.526,209.3 345.526,209.8 359.5,211C 354.72,210.892 350.386,211.725 346.5,213.5C 268.167,213.5 189.833,213.5 111.5,213.5C 102.287,213.156 93.2871,212.156 84.5,210.5C 108.837,210.394 133.17,210.061 157.5,209.5C 157.611,210.117 157.944,210.617 158.5,211C 164.825,211.5 171.158,211.666 177.5,211.5C 177.5,210.5 177.5,209.5 177.5,208.5C 217.337,208.832 257.004,208.499 296.5,207.5 Z"/></g>
<g><path style="opacity:1" fill="#31373e" d="M 156.5,206.5 C 157.404,207.209 157.737,208.209 157.5,209.5C 133.17,210.061 108.837,210.394 84.5,210.5C 102.329,209.503 120.329,208.837 138.5,208.5C 144.926,209.12 150.926,208.453 156.5,206.5 Z"/></g>
<g><path style="opacity:1" fill="#362f3a" d="M 317.5,209.5 C 317.5,209.167 317.5,208.833 317.5,208.5C 352.845,208.74 388.178,209.407 423.5,210.5C 425.167,211.167 426.833,211.833 428.5,212.5C 424.833,212.5 421.167,212.5 417.5,212.5C 393.83,212.627 370.163,212.96 346.5,213.5C 350.386,211.725 354.72,210.892 359.5,211C 345.526,209.8 331.526,209.3 317.5,209.5 Z"/></g>
<g><path style="opacity:1" fill="#336960" d="M 72.5,210.5 C 70.5,211.167 68.5,211.833 66.5,212.5C 62.4862,212.666 58.4862,212.499 54.5,212C 60.4348,210.761 66.4348,210.261 72.5,210.5 Z"/></g>
<g><path style="opacity:1" fill="#30494a" d="M 72.5,210.5 C 76.5,210.5 80.5,210.5 84.5,210.5C 93.2871,212.156 102.287,213.156 111.5,213.5C 96.8253,213.452 82.1586,213.119 67.5,212.5C 67.1667,212.5 66.8333,212.5 66.5,212.5C 68.5,211.833 70.5,211.167 72.5,210.5 Z"/></g>
<g><path style="opacity:1" fill="#33615b" d="M 423.5,210.5 C 431.553,210.225 439.553,210.725 447.5,212C 441.175,212.5 434.842,212.666 428.5,212.5C 426.833,211.833 425.167,211.167 423.5,210.5 Z"/></g>
<g><path style="opacity:1" fill="#649e94" d="M 67.5,212.5 C 82.1586,213.119 96.8253,213.452 111.5,213.5C 189.833,213.5 268.167,213.5 346.5,213.5C 370.163,212.96 393.83,212.627 417.5,212.5C 404.002,213.517 390.335,214.35 376.5,215C 274.162,215.854 171.829,215.521 69.5,214C 68.5842,213.722 67.9175,213.222 67.5,212.5 Z"/></g>
</svg>
