<?xml version="1.0" encoding="UTF-8"?>
<svg version="1.1" xmlns="http://www.w3.org/2000/svg" width="256" height="256">
<path d="M0 0 C1.16692383 0.36206543 1.16692383 0.36206543 2.35742188 0.73144531 C19.51676195 6.19248429 34.16162787 14.56332882 48 26 C48.77085937 26.6290625 49.54171875 27.258125 50.3359375 27.90625 C55.0491663 31.87908653 59.12096201 36.21502957 63 41 C63.69996094 41.86238281 64.39992187 42.72476563 65.12109375 43.61328125 C75.66206627 57.11376426 82.93038452 71.66081205 88 88 C88.2259082 88.70833984 88.45181641 89.41667969 88.68457031 90.14648438 C95.12454176 111.29649814 94.70003659 138.99189667 88 160 C87.75862305 160.77794922 87.51724609 161.55589844 87.26855469 162.35742188 C81.80751571 179.51676195 73.43667118 194.16162787 62 208 C61.3709375 208.77085937 60.741875 209.54171875 60.09375 210.3359375 C56.12091347 215.0491663 51.78497043 219.12096201 47 223 C46.13761719 223.69996094 45.27523437 224.39992187 44.38671875 225.12109375 C30.88623574 235.66206627 16.33918795 242.93038452 0 248 C-0.70833984 248.2259082 -1.41667969 248.45181641 -2.14648438 248.68457031 C-23.29649814 255.12454176 -50.99189667 254.70003659 -72 248 C-72.77794922 247.75862305 -73.55589844 247.51724609 -74.35742188 247.26855469 C-91.51676195 241.80751571 -106.16162787 233.43667118 -120 222 C-121.15628906 221.05640625 -121.15628906 221.05640625 -122.3359375 220.09375 C-127.0491663 216.12091347 -131.12096201 211.78497043 -135 207 C-135.69996094 206.13761719 -136.39992187 205.27523437 -137.12109375 204.38671875 C-147.66206627 190.88623574 -154.93038452 176.33918795 -160 160 C-160.2259082 159.29166016 -160.45181641 158.58332031 -160.68457031 157.85351562 C-167.12454176 136.70350186 -166.70003659 109.00810333 -160 88 C-159.75862305 87.22205078 -159.51724609 86.44410156 -159.26855469 85.64257812 C-153.80751571 68.48323805 -145.43667118 53.83837213 -134 40 C-133.3709375 39.22914062 -132.741875 38.45828125 -132.09375 37.6640625 C-128.12091347 32.9508337 -123.78497043 28.87903799 -119 25 C-118.13761719 24.30003906 -117.27523437 23.60007812 -116.38671875 22.87890625 C-102.88623574 12.33793373 -88.33918795 5.06961548 -72 0 C-71.29166016 -0.2259082 -70.58332031 -0.45181641 -69.85351562 -0.68457031 C-48.70350186 -7.12454176 -21.00810333 -6.70003659 0 0 Z " fill="#CF152C" transform="translate(164,4)"/>
<path d="M0 0 C33 0 66 0 100 0 C95.31528634 18.73885466 95.31528634 18.73885466 92.8125 24.5625 C92.51843262 25.25811035 92.22436523 25.9537207 91.92138672 26.67041016 C86.66276834 38.70765234 79.61715912 49.1050112 71 59 C70.46632813 59.65484375 69.93265625 60.3096875 69.3828125 60.984375 C52.27160909 81.88779106 26.01152568 94.79769486 0 100 C0 67 0 34 0 0 Z " fill="#FDFDFD" transform="translate(154,154)"/>
<path d="M0 0 C33 0 66 0 100 0 C100 33 100 66 100 100 C81.26114534 95.31528634 81.26114534 95.31528634 75.4375 92.8125 C74.74188965 92.51843262 74.0462793 92.22436523 73.32958984 91.92138672 C61.29234766 86.66276834 50.8949888 79.61715912 41 71 C40.34515625 70.46632813 39.6903125 69.93265625 39.015625 69.3828125 C18.11220894 52.27160909 5.20230514 26.01152568 0 0 Z " fill="#FDFBFC" transform="translate(2,154)"/>
<path d="M0 0 C0 33 0 66 0 100 C-33 100 -66 100 -100 100 C-95.31528634 81.26114534 -95.31528634 81.26114534 -92.8125 75.4375 C-92.51843262 74.74188965 -92.22436523 74.0462793 -91.92138672 73.32958984 C-86.66276834 61.29234766 -79.61715912 50.8949888 -71 41 C-70.46632813 40.34515625 -69.93265625 39.6903125 -69.3828125 39.015625 C-54.84943933 21.26134211 -24.08071151 0 0 0 Z " fill="#FDFCFD" transform="translate(102,2)"/>
<path d="M0 0 C18.73885466 4.68471366 18.73885466 4.68471366 24.5625 7.1875 C25.25811035 7.48156738 25.9537207 7.77563477 26.67041016 8.07861328 C38.70765234 13.33723166 49.1050112 20.38284088 59 29 C59.65484375 29.53367187 60.3096875 30.06734375 60.984375 30.6171875 C81.88779106 47.72839091 94.79769486 73.98847432 100 100 C67 100 34 100 0 100 C0 67 0 34 0 0 Z " fill="#FCFBFC" transform="translate(154,2)"/>
<path d="M0 0 C0 23.1 0 46.2 0 70 C-5.9459902 68.01800327 -11.34654667 66.10436202 -16.875 63.3125 C-17.90971436 62.79030884 -17.90971436 62.79030884 -18.96533203 62.25756836 C-34.38435122 54.27521931 -46.76545761 42.04760975 -58 29 C-55.60926563 26.31390734 -53.13656793 24.87840156 -49.93359375 23.27270508 C-48.3868396 22.49223564 -48.3868396 22.49223564 -46.80883789 21.69599915 C-45.69629639 21.14276474 -44.58375488 20.58953033 -43.4375 20.01953125 C-41.72324829 19.16025276 -41.72324829 19.16025276 -39.97436523 18.28361511 C-37.55822427 17.07452395 -35.14101504 15.86793353 -32.72167969 14.6652832 C-29.62055006 13.12327548 -26.52494433 11.5705314 -23.43083191 10.01450062 C-20.47763118 8.53117978 -17.519876 7.05700559 -14.5625 5.58203125 C-13.4499585 5.02272415 -12.33741699 4.46341705 -11.19116211 3.88716125 C-10.15999268 3.37630478 -9.12882324 2.8654483 -8.06640625 2.33911133 C-7.15834229 1.88627274 -6.25027832 1.43343414 -5.31469727 0.96687317 C-3 0 -3 0 0 0 Z " fill="#01257D" transform="translate(85,179)"/>
<path d="M0 0 C0 23.1 0 46.2 0 70 C-4.13799039 69.17240192 -6.6570022 68.36077834 -10.32519531 66.53149414 C-11.36266907 66.0174855 -12.40014282 65.50347687 -13.46905518 64.97389221 C-14.57754822 64.41660934 -15.68604126 63.85932648 -16.828125 63.28515625 C-17.97287292 62.71421738 -19.11762085 62.1432785 -20.29705811 61.55503845 C-22.71259134 60.34829168 -25.12676778 59.13919685 -27.5390625 57.92602539 C-30.63429288 56.36983785 -33.73481498 54.82454437 -36.83705521 53.28238773 C-39.7953272 51.80996338 -42.74902236 50.32842334 -45.703125 48.84765625 C-46.81971497 48.29239761 -47.93630493 47.73713898 -49.08673096 47.16505432 C-50.11159607 46.64789352 -51.13646118 46.13073273 -52.19238281 45.59790039 C-53.09885559 45.14347061 -54.00532837 44.68904083 -54.93927002 44.22084045 C-57 43 -57 43 -58 41 C-54.13584022 36.51222942 -50.24317037 32.13709111 -46 28 C-45.54753906 27.50242187 -45.09507813 27.00484375 -44.62890625 26.4921875 C-35.42954914 16.62754022 -14.33798632 0 0 0 Z " fill="#01257D" transform="translate(85,7)"/>
<path d="M0 0 C4.15697625 1.38565875 7.6082324 2.68120945 11.45458984 4.61376953 C12.49521576 5.13415802 13.53584167 5.65454651 14.60800171 6.19070435 C15.71447052 6.74910004 16.82093933 7.30749573 17.9609375 7.8828125 C19.10664215 8.45707977 20.2523468 9.03134705 21.43276978 9.62301636 C24.46270615 11.1417829 27.49020785 12.66534082 30.51721191 14.18994141 C33.61287093 15.74804299 36.71083029 17.3015566 39.80859375 18.85546875 C45.87451574 21.89943967 51.93812913 24.94797023 58 28 C53.28548995 35.97915859 47.17469566 42.18368045 40 48 C39.13761719 48.69996094 38.27523437 49.39992187 37.38671875 50.12109375 C11.92655979 70 11.92655979 70 0 70 C0 46.9 0 23.8 0 0 Z " fill="#00247D" transform="translate(171,179)"/>
<path d="M0 0 C5.9459902 1.98199673 11.34654667 3.89563798 16.875 6.6875 C17.56480957 7.03562744 18.25461914 7.38375488 18.96533203 7.74243164 C34.38435122 15.72478069 46.76545761 27.95239025 58 41 C55.08051207 43.31700284 52.13425175 45.05935361 48.80419922 46.72729492 C47.76987762 47.24760788 46.73555603 47.76792084 45.66989136 48.30400085 C44.55937408 48.85723526 43.44885681 49.41046967 42.3046875 49.98046875 C41.1608963 50.55332108 40.0171051 51.1261734 38.83865356 51.71638489 C36.42383118 52.92447597 34.00826671 54.13092043 31.59130859 55.3347168 C28.49038717 56.87946265 25.39313159 58.43140215 22.29688835 59.98549938 C19.3430933 61.46687133 16.38626391 62.94215772 13.4296875 64.41796875 C12.31512177 64.97727585 11.20055603 65.53658295 10.05221558 66.11283875 C9.0241983 66.62369522 7.99618103 67.1345517 6.93701172 67.66088867 C6.02974335 68.11372726 5.12247498 68.56656586 4.18771362 69.03312683 C2 70 2 70 0 70 C0 46.9 0 23.8 0 0 Z " fill="#00247D" transform="translate(171,7)"/>
<path d="M0 0 C1.921875 2.65234375 1.921875 2.65234375 3.75 5.9375 C4.36359375 7.01902344 4.9771875 8.10054687 5.609375 9.21484375 C7 12 7 12 7 14 C-14.85623025 28.27788484 -33.33332637 29.87332956 -59 28 C-56.61228607 25.32154713 -54.1395417 23.87202887 -50.94946289 22.25683594 C-49.92152115 21.73329529 -48.89357941 21.20975464 -47.83448792 20.67034912 C-46.72508347 20.11397766 -45.61567902 19.5576062 -44.47265625 18.984375 C-43.33219345 18.409151 -42.19173065 17.833927 -41.01670837 17.24127197 C-38.60487337 16.027761 -36.19183039 14.81707129 -33.77661133 13.61035156 C-30.68237744 12.06338736 -27.5967408 10.50005099 -24.51296329 8.93236923 C-21.56743248 7.43892522 -18.61328725 5.9627188 -15.66015625 4.484375 C-13.99908592 3.63767242 -13.99908592 3.63767242 -12.30445862 2.77386475 C-11.27336472 2.26293274 -10.24227081 1.75200073 -9.17993164 1.22558594 C-7.82116661 0.54299713 -7.82116661 0.54299713 -6.43495178 -0.15338135 C-3.72246196 -1.09649837 -2.6027041 -1.16615081 0 0 Z " fill="#CF182F" transform="translate(236,57)"/>
<path d="M0 0 C-2.9157561 2.31094672 -5.86238749 4.06490848 -9.17993164 5.74316406 C-10.72657249 6.52847504 -10.72657249 6.52847504 -12.30445862 7.32965088 C-13.96552895 8.16420807 -13.96552895 8.16420807 -15.66015625 9.015625 C-16.80157578 9.590849 -17.9429953 10.166073 -19.1190033 10.75872803 C-21.52952121 11.97123421 -23.94092457 13.18178018 -26.35375977 14.38964844 C-29.44775664 15.93935008 -32.53506957 17.50190321 -35.62098026 19.06763077 C-38.56711577 20.55911149 -41.52033079 22.03644462 -44.47265625 23.515625 C-45.5820607 24.08009338 -46.69146515 24.64456177 -47.83448792 25.22613525 C-49.37640053 25.99253326 -49.37640053 25.99253326 -50.94946289 26.77441406 C-52.30703453 27.45700287 -52.30703453 27.45700287 -53.69203186 28.15338135 C-56 29 -56 29 -59 28 C-60.82421875 25.34765625 -60.82421875 25.34765625 -62.6875 22.0625 C-63.31011719 20.98097656 -63.93273437 19.89945313 -64.57421875 18.78515625 C-66 16 -66 16 -66 14 C-44.14376975 -0.27788484 -25.66667363 -1.87332956 0 0 Z " fill="#CF152B" transform="translate(79,171)"/>
<path d="M0 0 C11.88 0 23.76 0 36 0 C35.25923953 4.4445628 34.75072957 7.01457575 32.9375 10.875 C32.57527344 11.65617188 32.21304688 12.43734375 31.83984375 13.2421875 C31.56269531 13.82226562 31.28554687 14.40234375 31 15 C26.58735406 14.4408116 23.16956563 13.33663112 19.19921875 11.34765625 C17.61077148 10.55391602 17.61077148 10.55391602 15.99023438 9.74414062 C14.35538086 8.91172852 14.35538086 8.91172852 12.6875 8.0625 C11.57826172 7.51142578 10.46902344 6.96035156 9.32617188 6.39257812 C1.13124872 2.26249744 1.13124872 2.26249744 0 0 Z " fill="#D3273C" transform="translate(213,170)"/>
<path d="M0 0 C4.00225317 0.61646837 7.13536305 1.89229674 10.73828125 3.72265625 C11.80498047 4.26083984 12.87167969 4.79902344 13.97070312 5.35351562 C15.07349609 5.91748047 16.17628906 6.48144531 17.3125 7.0625 C18.43462891 7.63033203 19.55675781 8.19816406 20.71289062 8.78320312 C23.47804408 10.18342977 26.24023716 11.58918665 29 13 C29 13.33 29 13.66 29 14 C17.78 14 6.56 14 -5 14 C-1.625 3.875 -1.625 3.875 0 0 Z " fill="#CF152C" transform="translate(12,71)"/>
</svg>
