<?xml version="1.0" encoding="UTF-8"?>
<svg version="1.1" xmlns="http://www.w3.org/2000/svg" width="512" height="512">
<path d="M0 0 C4.52708393 3.43508273 9.09733054 6.80960505 13.67578125 10.17578125 C14.4646875 10.75682617 15.25359375 11.33787109 16.06640625 11.93652344 C20.17384963 14.96052045 24.28686826 17.97666094 28.40625 20.984375 C55.87634519 41.06859204 77.94985741 61.2843162 83.90081787 96.47991943 C84.39531431 100.56543762 84.51828462 104.58075429 84.52441406 108.68847656 C84.52937897 109.49778625 84.53434387 110.30709595 84.53945923 111.14093018 C84.55399193 113.80359777 84.56087172 116.46620559 84.56640625 119.12890625 C84.56923363 120.04757225 84.572061 120.96623825 84.57497406 121.91274261 C84.58993874 126.78460473 84.59918253 131.6564375 84.60351562 136.52832031 C84.60896362 141.50698436 84.63292112 146.48536984 84.66148758 151.4639473 C84.68032775 155.33698242 84.685331 159.20995368 84.6868515 163.0830307 C84.68983602 164.91504165 84.69771787 166.74705267 84.71103668 168.57901764 C84.83736778 187.30848301 81.97793232 204.56436271 76.67578125 222.48828125 C76.25481182 223.94305665 75.83488765 225.39813493 75.41601562 226.85351562 C74.41035091 230.33948045 73.39099674 233.82124404 72.36328125 237.30078125 C73.14106934 237.49124023 73.91885742 237.68169922 74.72021484 237.87792969 C92.51289333 242.27328373 109.0204862 247.28283456 119.2890625 263.70703125 C122.7994905 269.67279588 124.82823985 275.88159267 126.80078125 282.48828125 C127.16365234 283.62458984 127.52652344 284.76089844 127.90039062 285.93164062 C131.23494786 296.86618301 131.23494786 296.86618301 129.36328125 302.30078125 C127.30078125 303.73828125 127.30078125 303.73828125 125.36328125 304.30078125 C126.01490645 307.1054722 126.70653053 309.88840463 127.42578125 312.67578125 C127.60560547 313.46984375 127.78542969 314.26390625 127.97070312 315.08203125 C128.57914976 317.36129166 129.15303275 319.2724254 130.36328125 321.30078125 C132.68596205 322.00366304 135.02014225 322.66944259 137.36328125 323.30078125 C141.47232752 330.02369727 143.40724422 337.47147106 145.59375 344.9921875 C145.9918205 346.34157284 146.39054252 347.69076613 146.78987122 349.03977966 C147.84028176 352.59495116 148.88158872 356.15272625 149.92102051 359.71112061 C150.9462268 363.21468709 151.9803564 366.71561531 153.01367188 370.21679688 C154.86142752 376.48087393 156.69329504 382.74947532 158.52050591 389.0195713 C159.75372585 393.24207455 161.00733615 397.45790191 162.27777004 401.66935444 C163.11117296 404.43608585 163.93590169 407.20536621 164.75963783 409.97498894 C165.32747062 411.87261304 165.90679389 413.76678733 166.48661804 415.66078186 C171.36422084 432.12333346 174.8114038 451.84110001 168.36328125 468.30078125 C163.61327125 476.80761734 156.68328204 482.54308064 147.36328125 485.30078125 C143.58440453 485.67797941 143.58440453 485.67797941 139.59486485 485.68109798 C138.85219953 485.6857579 138.10953422 485.69041782 137.3443639 485.69521895 C134.8659137 485.70713111 132.38801554 485.69778839 129.90956116 485.6884613 C128.11065461 485.69263587 126.31175069 485.69811407 124.51285166 485.70478112 C119.57716323 485.71923815 114.64164175 485.71499016 109.70594418 485.7076143 C104.38001189 485.70288562 99.05411587 485.71538981 93.72819519 485.72563171 C83.2974154 485.74283065 72.86669582 485.74365748 62.43590552 485.73841881 C53.95838247 485.73437807 45.48087722 485.73581952 37.00335503 485.74116707 C35.19379241 485.7422897 35.19379241 485.7422897 33.34767298 485.74343501 C30.89696483 485.74496648 28.44625668 485.74650483 25.99554854 485.74804998 C3.01184745 485.76177888 -19.97181961 485.75633449 -42.95551992 485.74486477 C-63.98457564 485.73493103 -85.01354339 485.74787484 -106.04258554 485.77179896 C-127.63403837 485.79617792 -149.22545021 485.80580085 -170.81691653 485.79914623 C-182.93938636 485.79565147 -195.06178853 485.79790316 -207.18424797 485.81539726 C-217.50331816 485.83010413 -227.82227302 485.83077442 -238.1413409 485.81332635 C-243.40625149 485.80480173 -248.67095592 485.80270262 -253.93585587 485.81797791 C-258.75649455 485.83179113 -263.5767498 485.8271051 -268.39736611 485.80773867 C-270.1402085 485.80396804 -271.88308136 485.80693118 -273.62589668 485.81735032 C-285.75895424 485.88472168 -294.69036282 484.8027407 -303.84765625 476.2109375 C-312.24766981 467.24236407 -312.84806428 457.56894597 -312.90234375 445.6953125 C-312.43591526 434.51406659 -310.28629141 423.91487108 -307.01953125 413.24609375 C-306.63096144 411.94620498 -306.24349145 410.64598707 -305.85696411 409.3454895 C-304.97130834 406.37271349 -304.07863073 403.40215131 -303.1817627 400.43273926 C-301.44133811 394.66330975 -299.72811594 388.88588058 -298.01464844 383.10839844 C-294.58012937 371.5349976 -291.12794906 359.96693252 -287.67041016 348.40039062 C-285.8645254 342.35871604 -284.0628743 336.31578751 -282.26217461 330.27256584 C-280.85047853 325.53755532 -279.43575228 320.80345392 -278.02023697 316.06958389 C-277.35505194 313.84323824 -276.69093449 311.61657327 -276.02801132 309.38955307 C-272.76668474 298.43728887 -269.44778654 287.50677001 -265.89501953 276.64501953 C-265.61884733 275.78627165 -265.34267513 274.92752377 -265.05813408 274.04275322 C-262.93022677 267.63521334 -260.19541979 262.34900723 -255.63671875 257.30078125 C-255.07082031 256.65238281 -254.50492188 256.00398438 -253.921875 255.3359375 C-247.65729285 248.6167825 -240.38796488 244.83550643 -231.69921875 242.11328125 C-230.95220703 241.86642578 -230.20519531 241.61957031 -229.43554688 241.36523438 C-224.23167136 239.68149553 -218.99291222 238.39991431 -213.63671875 237.30078125 C-214.02210815 235.99596802 -214.02210815 235.99596802 -214.4152832 234.66479492 C-215.39201766 231.33668711 -216.35782614 228.0057614 -217.31713867 224.67260742 C-217.72902918 223.24920673 -218.14485389 221.82693676 -218.56518555 220.40600586 C-223.89121459 202.37698094 -226.10883586 184.94159652 -226.03515625 166.16015625 C-226.03718597 164.29510383 -226.04010478 162.4300522 -226.04385376 160.56500244 C-226.04823061 156.6926707 -226.04199523 152.82054914 -226.02783203 148.94824219 C-226.01069465 144.0277736 -226.02063992 139.10779457 -226.03854942 134.1873436 C-226.04947299 130.34877946 -226.04590277 126.5103284 -226.03816605 122.67176056 C-226.03619014 120.85878692 -226.03852947 119.0458024 -226.04560471 117.23284149 C-226.13457439 88.06076938 -217.46917454 63.8140262 -197.13671875 42.42578125 C-191.18992657 36.61476058 -184.57662087 31.79248268 -177.86230469 26.91894531 C-174.79641453 24.6898185 -171.74994596 22.43474898 -168.70166016 20.18164062 C-166.30741924 18.41337397 -163.91003203 16.6494572 -161.51171875 14.88671875 C-157.41962583 11.87850414 -153.33427457 8.86127435 -149.25048828 5.84179688 C-146.10123798 3.5170937 -142.94453721 1.20260664 -139.78808594 -1.11230469 C-137.81364308 -2.56871396 -135.85258817 -4.04121413 -133.89453125 -5.51953125 C-90.7006254 -37.7836951 -41.0138873 -31.13920006 0 0 Z " fill="#010101" transform="translate(326.63671875,26.69921875)"/>
<path d="M0 0 C1.51301424 -0.00701996 1.51301424 -0.00701996 3.05659443 -0.01418173 C6.44061862 -0.02615931 9.82423992 -0.01666345 13.20826721 -0.00723267 C15.63273861 -0.01129715 18.05720816 -0.01663834 20.48167419 -0.02316284 C26.38594056 -0.03543473 32.29010209 -0.0336212 38.19436555 -0.02492492 C42.99349917 -0.01814912 47.79260072 -0.0172312 52.59173775 -0.02049637 C53.27484219 -0.02095607 53.95794663 -0.02141577 54.6617512 -0.0218894 C56.04948815 -0.02284858 57.43722509 -0.02382122 58.82496203 -0.02480717 C71.83816992 -0.03336197 84.85131442 -0.02352587 97.86451191 -0.00740607 C109.02779414 0.0059942 120.19098277 0.00367162 131.35426331 -0.01016235 C144.31942713 -0.02622178 157.28453537 -0.03253482 170.24970776 -0.02332556 C171.63263864 -0.02236992 173.01556954 -0.02142681 174.39850044 -0.02049637 C175.41912448 -0.01980213 175.41912448 -0.01980213 176.46036718 -0.01909386 C181.25261837 -0.01650484 186.04483428 -0.02087315 190.83708 -0.02793503 C197.28933404 -0.03723411 203.74145292 -0.03060038 210.19369125 -0.01325226 C212.56324406 -0.00928206 214.93281172 -0.01043054 217.30235863 -0.01704025 C220.53413086 -0.02522457 223.76533441 -0.01497119 226.99707031 0 C227.93724689 -0.00669217 228.87742348 -0.01338433 229.84609026 -0.02027929 C234.99902219 0.02609644 238.61977581 0.47313894 243.06202698 3.38095093 C248.54658005 9.80490507 247.59932329 17.34451795 247.51612854 25.40414429 C247.51490209 26.956904 247.51543906 28.50966595 247.51758957 30.06242466 C247.51848993 34.20800918 247.49536411 38.35312871 247.46714783 42.49860382 C247.44431067 46.39336051 247.44329228 50.28800603 247.44044495 54.18283081 C247.41948388 65.56143206 247.36363897 76.93994742 247.31202698 88.31845093 C247.22952698 113.74907593 247.14702698 139.17970093 247.06202698 165.38095093 C159.28202698 165.38095093 71.50202698 165.38095093 -18.93797302 165.38095093 C-19.26797302 132.05095093 -19.59797302 98.72095093 -19.93797302 64.38095093 C-23.41622383 60.30641533 -23.41622383 60.30641533 -26.93797302 59.38095093 C-26.93797302 54.43095093 -26.93797302 49.48095093 -26.93797302 44.38095093 C-24.95797302 43.39095093 -22.97797302 42.40095093 -20.93797302 41.38095093 C-19.53768671 38.5803783 -19.79240994 36.2178448 -19.76219177 33.08798218 C-19.73834412 31.81761108 -19.71449646 30.54723999 -19.68992615 29.2383728 C-19.64351162 26.56093598 -19.61585746 23.88509388 -19.59617615 21.2071228 C-19.32511773 8.71952461 -19.32511773 8.71952461 -14.93797302 3.38095093 C-10.29222168 -0.40972587 -5.71506245 -0.04058345 0 0 Z " fill="#DBE5EA" transform="translate(141.93797302246094,331.6190490722656)"/>
<path d="M0 0 C4.94818822 3.78597373 9.9515005 7.45148852 15.06835938 11.00488281 C34.62470147 24.726026 48.92936898 43.02135306 53.67382812 66.79003906 C56.09215733 82.78416023 54.86908842 99.56836624 54.50585938 115.69238281 C46.25968726 114.33661032 38.16736267 112.47123805 30.05923462 110.46548462 C26.41050111 109.56341863 22.75890827 108.67307204 19.10742188 107.78222656 C18.37544083 107.60346481 17.64345978 107.42470306 16.88929749 107.24052429 C7.1124213 104.85791504 -2.69518976 102.61034308 -12.50683594 100.37597656 C-15.47065948 99.69775607 -18.43183492 99.00891442 -21.39257812 98.31738281 C-38.91911869 94.24224187 -56.28991328 90.5801321 -74.35742188 90.48925781 C-75.27009323 90.48355774 -76.18276459 90.47785767 -77.12309265 90.47198486 C-79.04664985 90.46260131 -80.97022265 90.45602759 -82.89379883 90.45214844 C-85.76153609 90.44253403 -88.62852669 90.41148407 -91.49609375 90.37988281 C-109.88797379 90.27196004 -127.26755799 92.77967047 -145.05664062 97.37988281 C-147.89880649 98.09591617 -150.74318252 98.80293135 -153.58789062 99.50878906 C-154.67379234 99.77934113 -154.67379234 99.77934113 -155.78163147 100.05535889 C-164.17182571 102.13220667 -172.61294619 103.972868 -181.05664062 105.81738281 C-192.59967 108.34230498 -204.09248917 110.98893696 -215.52954102 113.96630859 C-216.41633545 114.19560059 -217.30312988 114.42489258 -218.21679688 114.66113281 C-218.97742432 114.86158203 -219.73805176 115.06203125 -220.52172852 115.26855469 C-222.49414062 115.69238281 -222.49414062 115.69238281 -225.49414062 115.69238281 C-225.59442476 109.73743375 -225.66626425 103.7829962 -225.71386719 97.82739258 C-225.73375045 95.80940163 -225.76086688 93.79146646 -225.79589844 91.77368164 C-226.06217678 76.02018495 -225.51998228 60.47664337 -217.74414062 46.31738281 C-217.4005249 45.66439209 -217.05690918 45.01140137 -216.70288086 44.33862305 C-207.75305462 27.75769923 -195.08035395 17.3922234 -180.07763672 6.5703125 C-175.84568534 3.49412936 -171.67189548 0.34154702 -167.49414062 -2.80761719 C-164.16217117 -5.30943726 -160.82825788 -7.80866042 -157.49414062 -10.30761719 C-156.66817383 -10.92733398 -155.84220703 -11.54705078 -154.99121094 -12.18554688 C-95.14565341 -57.00515037 -55.22266555 -42.37223464 0 0 Z " fill="#3966C0" transform="translate(341.494140625,57.3076171875)"/>
<path d="M0 0 C5.23636687 0.55119651 9.93276976 1.48904407 15 3 C15.58182268 24.65673298 12.28040245 42.98774549 6.12890625 63.7421875 C3.70744433 71.91503441 1.5130854 80.1434243 -0.65332031 88.38696289 C-2.06207324 93.69974161 -3.57187864 98.90295494 -5.47412109 104.06201172 C-6.33636988 107.23960266 -5.82986735 109.87203846 -5 113 C-3.06268472 115.36410488 -3.06268472 115.36410488 0.4375 115.3125 C3.86945845 115.33277124 3.86945845 115.33277124 5.63598633 113.74487305 C7.18954661 111.75752825 7.74808925 110.20322743 8.38671875 107.76953125 C8.60263672 106.96708984 8.81855469 106.16464844 9.04101562 105.33789062 C9.25435547 104.50451172 9.46769531 103.67113281 9.6875 102.8125 C10.02491211 101.5450293 10.02491211 101.5450293 10.36914062 100.25195312 C10.92187781 98.1703684 11.46215399 96.08548196 12 94 C25.96213476 96.32060688 40.96169682 100.06067611 50.33984375 111.3828125 C55.79822117 119.98778397 58.38732187 130.79026941 61.140625 140.5234375 C61.84560082 143.13641535 61.84560082 143.13641535 64 145 C65.13566406 145.20625 66.27132812 145.4125 67.44140625 145.625 C71 147 71 147 72.03857422 148.625 C72.81718027 150.73284559 73.40513461 152.81711109 73.9375 155 C74.14439453 155.73734375 74.35128906 156.4746875 74.56445312 157.234375 C76 162.46148256 76 162.46148256 76 165 C75.154375 165.53625 74.30875 166.0725 73.4375 166.625 C72.633125 167.40875 71.82875 168.1925 71 169 C71.31570241 174.48386772 72.56107003 179.51111017 74.1875 184.75 C74.40672119 185.47533936 74.62594238 186.20067871 74.85180664 186.94799805 C75.32115671 188.49980421 75.79314646 190.05081409 76.26757812 191.60107422 C77.25460763 194.83392484 78.22149883 198.07267624 79.18945312 201.3112793 C80.67818084 206.28909112 82.17668572 211.26397154 83.67382812 216.23925781 C87.15334579 227.80475908 90.60793953 239.37767868 94.05410767 250.95315552 C94.55786265 252.64487304 95.06190918 254.33650378 95.56625366 256.02804565 C96.28071319 258.42468997 96.99401776 260.82167515 97.70703125 263.21875 C97.92344269 263.94397354 98.13985413 264.66919708 98.36282349 265.41639709 C98.91514163 267.27565233 99.45810982 269.13767876 100 271 C100.20737793 271.69947754 100.41475586 272.39895508 100.62841797 273.11962891 C101.57962564 277.93316469 101.27243924 282.98758781 101.3125 287.875 C101.34150391 289.04675781 101.37050781 290.21851563 101.40039062 291.42578125 C101.47941338 302.13640336 101.47941338 302.13640336 97 307 C92.20136892 311.33047195 88.97561583 312.12566784 82.60083008 312.11352539 C81.63456947 312.11374443 81.63456947 312.11374443 80.64878845 312.1139679 C78.52233498 312.11327195 76.3959694 312.10549448 74.26953125 312.09765625 C72.79408313 312.09579094 71.31863439 312.09436757 69.84318542 312.09336853 C65.96174405 312.08955226 62.08034015 312.07972956 58.19891357 312.06866455 C53.54080225 312.05663178 48.88267839 312.05204395 44.22455597 312.04621124 C37.14967792 312.03651734 30.07488209 312.01735458 23 312 C23 293.19 23 274.38 23 255 C27.95 254.67 32.9 254.34 38 254 C42.23125 250.56875 42.23125 250.56875 42.4375 246.9375 C42.21316289 244.10278487 42.21316289 244.10278487 40.984375 242.359375 C37.86750143 240.22419389 34.47228608 240.42437119 30.8125 240.3125 C30.06291016 240.27833984 29.31332031 240.24417969 28.54101562 240.20898438 C26.69453162 240.12665706 24.84729006 240.06164719 23 240 C22.99453156 238.43597946 22.99453156 238.43597946 22.98895264 236.84036255 C22.95190919 226.98347653 22.89403474 217.12690023 22.81609726 207.27025032 C22.7766952 202.20359177 22.74447112 197.13710513 22.72900391 192.0703125 C22.71378936 187.17472797 22.679259 182.27961629 22.63169098 177.38424301 C22.61692653 175.52252197 22.60896184 173.6607334 22.60811615 171.79895401 C22.59774848 160.41272917 22.26561513 151.45936005 15.8125 141.6875 C8.80976442 134.99599711 1.86371033 132.87097408 -7.61425781 132.79467773 C-8.37562042 132.78477814 -9.13698303 132.77487854 -9.92141724 132.76467896 C-12.43195512 132.73315224 -14.94251191 132.70834153 -17.453125 132.68359375 C-19.19619227 132.66301659 -20.93925464 132.64201992 -22.68231201 132.62062073 C-27.26566592 132.56547871 -31.84906428 132.51603477 -36.43249512 132.46777344 C-41.11128689 132.4175009 -45.79001428 132.36184488 -50.46875 132.30664062 C-59.6457783 132.19915533 -68.82286256 132.09768903 -78 132 C-78.12365152 126.37670921 -78.2143631 120.75421047 -78.2746582 115.12988281 C-78.29979381 113.21698217 -78.33390784 111.30417749 -78.37719727 109.39160156 C-78.43789252 106.64103527 -78.46621845 103.89173901 -78.48828125 101.140625 C-78.51408768 100.28631897 -78.5398941 99.43201294 -78.56648254 98.55181885 C-78.56930217 92.57496457 -78.56930217 92.57496457 -75.59448242 89.57055664 C-74.73830322 89.05227295 -73.88212402 88.53398926 -73 88 C-71.62087993 86.43502195 -70.28951461 84.82709768 -69 83.1875 C-65.82066387 79.20803094 -62.56341739 75.3415862 -59.18408203 71.53076172 C-48.14072534 59.03374195 -37.87909211 45.569977 -34 29 C-32.72125 28.97421875 -31.4425 28.9484375 -30.125 28.921875 C-28.41663435 28.86555525 -26.70830233 28.80820882 -25 28.75 C-24.16082031 28.73582031 -23.32164062 28.72164062 -22.45703125 28.70703125 C-15.31358654 28.43015355 -9.69657018 26.76753256 -4.625 21.5625 C-1.5015101 16.6369967 -0.70114311 12.50371888 -0.375 6.6875 C-0.30023438 5.43324219 -0.22546875 4.17898437 -0.1484375 2.88671875 C-0.07496094 1.45779297 -0.07496094 1.45779297 0 0 Z " fill="#3966C0" transform="translate(381,185)"/>
<path d="M0 0 C0.02578125 0.9178125 0.0515625 1.835625 0.078125 2.78125 C0.48171463 11.51346195 1.01686683 18.11899845 7.4375 24.375 C13.0174792 27.9135234 17.85101105 28.380208 24.3125 28.625 C25.14845703 28.66367188 25.98441406 28.70234375 26.84570312 28.7421875 C28.89679259 28.83595159 30.94836515 28.91904245 33 29 C33.235979 29.55349121 33.47195801 30.10698242 33.71508789 30.67724609 C40.0094229 45.610887 40.0094229 45.610887 49 59 C49.40476563 59.48984375 49.80953125 59.9796875 50.2265625 60.484375 C52.53433605 63.26449986 54.86964609 66.0192616 57.2265625 68.7578125 C59.78584098 71.73507695 62.27574814 74.76401904 64.75 77.8125 C70.54228999 85.86519951 70.54228999 85.86519951 78 92 C78 105.2 78 118.4 78 132 C72.48539063 132.02578125 66.97078125 132.0515625 61.2890625 132.078125 C57.77990247 132.10331365 54.27082691 132.12966201 50.76171875 132.16015625 C45.20100669 132.20836953 39.64049035 132.25245976 34.07958984 132.27099609 C29.59246799 132.28622317 25.10586074 132.32077497 20.61896896 132.36830902 C18.91355252 132.38306073 17.20806258 132.39103742 15.50258255 132.39188385 C4.6764293 132.40265324 -4.04999687 133.07075265 -13.3125 139.1875 C-21.60548429 147.86620448 -22.20791263 156.43058299 -22.24023438 167.89941406 C-22.24996857 169.99323841 -22.28103215 172.08609199 -22.3125 174.1796875 C-22.31902827 175.5156192 -22.32427943 176.85155788 -22.328125 178.1875 C-22.3374707 179.39792969 -22.34681641 180.60835937 -22.35644531 181.85546875 C-21.97075232 185.25802066 -21.4440698 186.63981625 -19 189 C-15.89802603 189.80946422 -15.89802603 189.80946422 -13 190 C-13.99 190.33 -14.98 190.66 -16 191 C-16 195.95 -16 200.9 -16 206 C-15.01 206.33 -14.02 206.66 -13 207 C-14.670625 207.433125 -14.670625 207.433125 -16.375 207.875 C-20.00291092 208.69241329 -20.00291092 208.69241329 -22 211 C-22.37296556 214.00972657 -22.37296556 214.00972657 -22.4140625 217.5390625 C-22.45273438 218.84101563 -22.49140625 220.14296875 -22.53125 221.484375 C-22.56270763 222.86457862 -22.59395491 224.24478704 -22.625 225.625 C-22.66317934 227.01304541 -22.70223105 228.40106711 -22.7421875 229.7890625 C-22.83672943 233.19257185 -22.92227897 236.59607165 -23 240 C-24.12019531 240.03738281 -25.24039063 240.07476562 -26.39453125 240.11328125 C-27.8672209 240.17894257 -29.33987566 240.24538986 -30.8125 240.3125 C-31.55048828 240.33505859 -32.28847656 240.35761719 -33.04882812 240.38085938 C-37.26053577 240.56844062 -37.26053577 240.56844062 -40.984375 242.359375 C-42.62934725 245.01663786 -42.4346087 246.95773909 -42 250 C-37.1690299 255.70897624 -37.1690299 255.70897624 -23 255 C-23 273.81 -23 292.62 -23 312 C-39.4802641 312.16043524 -39.4802641 312.16043524 -46.5234375 312.1953125 C-51.32309735 312.21919296 -56.12245099 312.2473956 -60.921875 312.30175781 C-64.79279809 312.34532699 -68.66339265 312.36916032 -72.53454208 312.37950897 C-74.00891158 312.3868806 -75.48326378 312.40127592 -76.95749283 312.42292023 C-79.02820459 312.45210357 -81.0975716 312.4559501 -83.16845703 312.45410156 C-84.93384323 312.46742523 -84.93384323 312.46742523 -86.7348938 312.48101807 C-91.86987385 311.72452868 -94.94186198 309.20112965 -98.3125 305.375 C-101.73946478 300.55186438 -101.18369717 296.39769703 -101.1875 290.625 C-101.20586914 289.21541016 -101.20586914 289.21541016 -101.22460938 287.77734375 C-101.25089968 274.93014854 -98.10657448 263.28158854 -94.3125 251.125 C-93.86114134 249.65830431 -93.41038301 248.19142376 -92.96020508 246.72436523 C-90.15238043 237.59879334 -87.26269909 228.49982807 -84.33325195 219.41259766 C-82.36000954 213.25185924 -80.59450398 207.05368498 -78.90844727 200.80908203 C-77.31216718 194.96229471 -75.49446674 189.20211594 -73.625 183.4375 C-71.10403514 175.65032272 -68.79359292 167.82982793 -66.625 159.9375 C-64.16865844 151.07185 -61.66657725 142.22070069 -59.01068115 133.41262817 C-58.45409628 131.55537954 -57.91260067 129.69362976 -57.37158203 127.83178711 C-54.69019579 119.03321907 -51.21264379 111.20186639 -44.0625 105.125 C-43.45535156 104.59132813 -42.84820312 104.05765625 -42.22265625 103.5078125 C-36.81768389 99.84117044 -30.52374245 98.11752305 -24.3125 96.3125 C-23.19391602 95.97508789 -23.19391602 95.97508789 -22.05273438 95.63085938 C-18.53376119 94.59808312 -15.69585688 94 -12 94 C-11.67386719 95.26457031 -11.34773438 96.52914062 -11.01171875 97.83203125 C-10.57084848 99.49232992 -10.12941267 101.15247848 -9.6875 102.8125 C-9.47416016 103.64587891 -9.26082031 104.47925781 -9.04101562 105.33789062 C-8.82509766 106.14033203 -8.60917969 106.94277344 -8.38671875 107.76953125 C-8.19295654 108.50792236 -7.99919434 109.24631348 -7.79956055 110.00708008 C-6.87232814 112.31822454 -5.96619922 113.4785118 -4 115 C-0.5 115.58333333 -0.5 115.58333333 3 115 C5.18547684 113.55851025 5.18547684 113.55851025 6 111 C5.46056098 104.44714239 3.54885552 98.19487107 1.8125 91.875 C1.34384521 90.15108032 1.34384521 90.15108032 0.86572266 88.39233398 C-1.07931727 81.26725741 -3.08151659 74.15988973 -5.125 67.0625 C-11.36446283 45.33509693 -15.42331771 25.74844239 -15 3 C-12.87562952 2.49733206 -10.75048274 1.9979439 -8.625 1.5 C-7.44164063 1.2215625 -6.25828125 0.943125 -5.0390625 0.65625 C-2 0 -2 0 0 0 Z " fill="#3966C0" transform="translate(131,185)"/>
<path d="M0 0 C1.33436096 -0.00110275 1.33436096 -0.00110275 2.69567871 -0.00222778 C29.37581738 0.05518788 54.59046123 5.81021125 80.3125 12.4375 C80.7673414 41.28144225 76.71021482 60.94881574 57.296875 83.015625 C54.66939748 86.00367123 52.16698701 89.07495247 49.6875 92.1875 C39.36330266 104.81836485 27.094129 115.9872897 10.3125 118.4375 C-1.10442296 119.17618918 -12.16610283 119.45083031 -22.6875 114.4375 C-23.46867187 114.086875 -24.24984375 113.73625 -25.0546875 113.375 C-46.72775658 102.57596212 -69.26667972 73.0013405 -77.01342773 50.59057617 C-79.69503216 42.02517616 -79.94180779 33.73473763 -79.8125 24.8125 C-79.80347656 23.61753906 -79.79445312 22.42257813 -79.78515625 21.19140625 C-79.76181077 18.27322166 -79.72906656 15.35547224 -79.6875 12.4375 C-75.17154546 11.33213198 -70.65492284 10.22954876 -66.13769531 9.12939453 C-64.60528809 8.7557858 -63.07305693 8.38145407 -61.54101562 8.00634766 C-40.93930116 2.96349979 -21.23310188 -0.00773038 0 0 Z " fill="#F0CFA3" transform="translate(255.6875,161.5625)"/>
<path d="M0 0 C11.24659736 7.63277717 18.83572244 18.7264594 22.3125 31.875 C22.61517655 35.12922716 22.64631725 38.35828347 22.625 41.625 C22.61936035 42.51952881 22.6137207 43.41405762 22.60791016 44.33569336 C22.40007715 55.61320641 19.14697779 66.7556562 11.15234375 75.140625 C8.19386558 79.537514 8.79883357 84.03593689 8.82421875 89.19335938 C8.70360281 95.7449979 6.66772819 99.1398963 2.375 104.125 C-2.86455918 108.57068658 -8.48613114 108.18198126 -15.02734375 108.17578125 C-16.02705704 108.18006638 -17.02677032 108.1843515 -18.05677795 108.18876648 C-20.16732019 108.19449966 -22.27788218 108.19501751 -24.38842773 108.19067383 C-27.61020749 108.18751451 -30.83106809 108.21098392 -34.05273438 108.23632812 C-36.10676968 108.23860134 -38.16080744 108.23930451 -40.21484375 108.23828125 C-41.17438461 108.247491 -42.13392548 108.25670074 -43.12254333 108.26618958 C-49.30172488 108.22363053 -53.86424543 107.53252894 -58.55078125 103.12109375 C-59.26814453 102.22583984 -59.26814453 102.22583984 -60 101.3125 C-60.49113281 100.71308594 -60.98226562 100.11367188 -61.48828125 99.49609375 C-63.88597401 96.25491298 -63.74555286 93.78233545 -63.77441406 89.80712891 C-63.90047744 81.75685112 -64.48510334 76.59172937 -69.8359375 70.25 C-78.38390308 59.28552094 -78.85746878 45.12240437 -77.6875 31.875 C-75.01904459 19.67990939 -67.06560123 7.89449241 -56.6875 0.875 C-38.2490445 -9.44224814 -18.75582906 -10.91295143 0 0 Z " fill="#AAD67E" transform="translate(283.6875,367.125)"/>
<path d="M0 0 C5.23636687 0.55119651 9.93276976 1.48904407 15 3 C15.58182268 24.65673298 12.28040245 42.98774549 6.12890625 63.7421875 C3.70744433 71.91503441 1.5130854 80.1434243 -0.65332031 88.38696289 C-2.06207324 93.69974161 -3.57187864 98.90295494 -5.47412109 104.06201172 C-6.33636988 107.23960266 -5.82986735 109.87203846 -5 113 C-2.64046906 115.35953094 -1.22104383 115.49141413 2 116 C1.01 116.66 0.02 117.32 -1 118 C-1.99 122.62 -2.98 127.24 -4 132 C-28.42 132 -52.84 132 -78 132 C-78.103125 125.4825 -78.20625 118.965 -78.3125 112.25 C-78.35802002 110.19813477 -78.40354004 108.14626953 -78.45043945 106.03222656 C-78.46504558 104.40170934 -78.47778596 102.77117387 -78.48828125 101.140625 C-78.526651 99.87581299 -78.526651 99.87581299 -78.5657959 98.58544922 C-78.57026992 92.57594195 -78.57026992 92.57594195 -75.59448242 89.57055664 C-74.73830322 89.05227295 -73.88212402 88.53398926 -73 88 C-71.62087993 86.43502195 -70.28951461 84.82709768 -69 83.1875 C-65.82066387 79.20803094 -62.56341739 75.3415862 -59.18408203 71.53076172 C-48.14072534 59.03374195 -37.87909211 45.569977 -34 29 C-32.72125 28.97421875 -31.4425 28.9484375 -30.125 28.921875 C-28.41663435 28.86555525 -26.70830233 28.80820882 -25 28.75 C-24.16082031 28.73582031 -23.32164062 28.72164062 -22.45703125 28.70703125 C-15.31358654 28.43015355 -9.69657018 26.76753256 -4.625 21.5625 C-1.5015101 16.6369967 -0.70114311 12.50371888 -0.375 6.6875 C-0.30023438 5.43324219 -0.22546875 4.17898437 -0.1484375 2.88671875 C-0.07496094 1.45779297 -0.07496094 1.45779297 0 0 Z " fill="#25437C" transform="translate(381,185)"/>
<path d="M0 0 C0.03867188 1.37671875 0.03867188 1.37671875 0.078125 2.78125 C0.48171463 11.51346195 1.01686683 18.11899845 7.4375 24.375 C13.0174792 27.9135234 17.85101105 28.380208 24.3125 28.625 C25.14845703 28.66367188 25.98441406 28.70234375 26.84570312 28.7421875 C28.89679259 28.83595159 30.94836515 28.91904245 33 29 C33.35396851 29.83023682 33.35396851 29.83023682 33.71508789 30.67724609 C40.0094229 45.610887 40.0094229 45.610887 49 59 C49.40476562 59.48984375 49.80953125 59.9796875 50.2265625 60.484375 C52.53433605 63.26449986 54.86964609 66.0192616 57.2265625 68.7578125 C59.78584098 71.73507695 62.27574814 74.76401904 64.75 77.8125 C70.54228999 85.86519951 70.54228999 85.86519951 78 92 C78 105.2 78 118.4 78 132 C53.58 132 29.16 132 4 132 C2.515 125.07 2.515 125.07 1 118 C0.01 117.34 -0.98 116.68 -2 116 C-0.576875 115.5978125 -0.576875 115.5978125 0.875 115.1875 C4.25267273 114.25013412 4.25267273 114.25013412 6 111 C5.60795008 104.46583459 3.53935363 98.16028671 1.8125 91.875 C1.50006348 90.72572021 1.18762695 89.57644043 0.86572266 88.39233398 C-1.07931727 81.26725741 -3.08151659 74.15988973 -5.125 67.0625 C-11.36446283 45.33509693 -15.42331771 25.74844239 -15 3 C-12.87562952 2.49733206 -10.75048274 1.9979439 -8.625 1.5 C-7.44164063 1.2215625 -6.25828125 0.943125 -5.0390625 0.65625 C-2 0 -2 0 0 0 Z " fill="#25437D" transform="translate(131,185)"/>
<path d="M0 0 C11.24659736 7.63277717 18.83572244 18.7264594 22.3125 31.875 C22.61517655 35.12922716 22.64631725 38.35828347 22.625 41.625 C22.61936035 42.51952881 22.6137207 43.41405762 22.60791016 44.33569336 C22.40007715 55.61320641 19.14697779 66.7556562 11.15234375 75.140625 C8.19386558 79.537514 8.79883357 84.03593689 8.82421875 89.19335938 C8.70360281 95.7449979 6.66772819 99.1398963 2.375 104.125 C-2.86455918 108.57068658 -8.48613114 108.18198126 -15.02734375 108.17578125 C-16.02705704 108.18006638 -17.02677032 108.1843515 -18.05677795 108.18876648 C-20.16732019 108.19449966 -22.27788218 108.19501751 -24.38842773 108.19067383 C-27.61020749 108.18751451 -30.83106809 108.21098392 -34.05273438 108.23632812 C-36.10676968 108.23860134 -38.16080744 108.23930451 -40.21484375 108.23828125 C-41.17438461 108.247491 -42.13392548 108.25670074 -43.12254333 108.26618958 C-49.30172488 108.22363053 -53.86424543 107.53252894 -58.55078125 103.12109375 C-59.26814453 102.22583984 -59.26814453 102.22583984 -60 101.3125 C-60.49113281 100.71308594 -60.98226562 100.11367188 -61.48828125 99.49609375 C-63.88597401 96.25491298 -63.74555286 93.78233545 -63.77441406 89.80712891 C-63.90047744 81.75685112 -64.48510334 76.59172937 -69.8359375 70.25 C-78.38390308 59.28552094 -78.85746878 45.12240437 -77.6875 31.875 C-75.01904459 19.67990939 -67.06560123 7.89449241 -56.6875 0.875 C-38.2490445 -9.44224814 -18.75582906 -10.91295143 0 0 Z M-48.6875 13.875 C-49.60402344 14.44927734 -49.60402344 14.44927734 -50.5390625 15.03515625 C-56.37951581 19.21332669 -60.55770168 27.1241255 -62.6875 33.875 C-63.96215271 48.50386307 -61.48543111 57.80531147 -52.39453125 69.52734375 C-48.83186925 74.42702307 -49.33856941 80.07576003 -49.08203125 85.890625 C-49.25104441 89.69563972 -49.25104441 89.69563972 -47.6875 92.875 C-44.7421443 92.97610353 -41.8207244 93.01469279 -38.875 93.0078125 C-37.54891724 93.00924759 -37.54891724 93.00924759 -36.19604492 93.01071167 C-34.32307871 93.01139351 -32.45011014 93.00953893 -30.57714844 93.00537109 C-27.69981612 93.00002289 -24.82263992 93.00531593 -21.9453125 93.01171875 C-20.13020799 93.01105797 -18.31510357 93.00977681 -16.5 93.0078125 C-15.20002075 93.01084885 -15.20002075 93.01084885 -13.8737793 93.01394653 C-9.96746781 93.38760414 -9.96746781 93.38760414 -6.6875 91.875 C-6.59261515 89.96676016 -6.50358702 88.05799606 -6.44848633 86.14819336 C-6.14095843 76.37371035 -4.62304512 70.64858583 1.375 62.875 C7.64987813 54.59851518 8.42489671 46.08552808 7.62304688 35.95654297 C6.83054146 30.64451377 4.2418182 26.27951442 1.3125 21.875 C0.92964844 21.26269531 0.54679687 20.65039062 0.15234375 20.01953125 C-4.03445777 14.18201945 -11.93377838 10.00673423 -18.6875 7.875 C-29.81732502 6.39486286 -39.23455153 7.49655419 -48.6875 13.875 Z " fill="#030403" transform="translate(283.6875,367.125)"/>
<path d="M0 0 C1.33436096 -0.00110275 1.33436096 -0.00110275 2.69567871 -0.00222778 C29.38796947 0.05521404 54.57384338 5.84125639 80.3125 12.4375 C80.3125 20.3575 80.3125 28.2775 80.3125 36.4375 C79.9825 36.4375 79.6525 36.4375 79.3125 36.4375 C79.3125 34.4575 79.3125 32.4775 79.3125 30.4375 C78.44753906 30.29054687 77.58257812 30.14359375 76.69140625 29.9921875 C66.84250403 28.23813531 57.15216604 26.02461152 47.44750977 23.59521484 C13.50148835 15.20698784 -20.7666603 16.87480702 -54.37841797 25.45556641 C-55.38662598 25.71128418 -56.39483398 25.96700195 -57.43359375 26.23046875 C-58.32747803 26.4627417 -59.2213623 26.69501465 -60.14233398 26.93432617 C-62.72468438 27.44485127 -65.06249648 27.52868899 -67.6875 27.4375 C-65.83848179 49.11480562 -60.38264454 66.80016279 -45.6875 83.4375 C-44.31619314 85.04390242 -42.95371192 86.65747423 -41.5925293 88.27246094 C-40.6569525 89.38117228 -39.71831322 90.48730669 -38.77661133 91.59082031 C-35.80337668 95.07872318 -32.95374598 98.6429747 -30.125 102.25 C-25.90270626 107.46667452 -21.0967001 111.49635003 -15.6875 115.4375 C-16.6775 115.9325 -16.6775 115.9325 -17.6875 116.4375 C-41.01418494 107.47052165 -63.24740577 80.96609844 -73.6640625 58.76953125 C-78.63062984 47.45258202 -79.99181187 37.1850193 -79.8125 24.8125 C-79.80347656 23.61753906 -79.79445312 22.42257813 -79.78515625 21.19140625 C-79.76181077 18.27322166 -79.72906656 15.35547224 -79.6875 12.4375 C-75.17154546 11.33213198 -70.65492284 10.22954876 -66.13769531 9.12939453 C-64.60528809 8.7557858 -63.07305693 8.38145407 -61.54101562 8.00634766 C-40.93930116 2.96349979 -21.23310188 -0.00773038 0 0 Z " fill="#EFB986" transform="translate(255.6875,161.5625)"/>
<path d="M0 0 C-0.87011719 0.69222656 -0.87011719 0.69222656 -1.7578125 1.3984375 C-13.48906412 11.19383902 -16.88318011 22.80416861 -21 37 C-21.41323494 38.39998412 -21.82725405 39.7997371 -22.2421875 41.19921875 C-23.05205419 43.93825059 -23.85386779 46.67950348 -24.65234375 49.421875 C-26.22435418 54.79459903 -27.86377452 60.14655416 -29.5 65.5 C-31.74715535 72.85711679 -33.96525851 80.22100668 -36.1227417 87.60490417 C-37.59575656 92.6415061 -39.0946771 97.66992755 -40.60546875 102.6953125 C-41.13731008 104.46670899 -41.6691283 106.23811242 -42.20092773 108.00952148 C-43.13366823 111.11542221 -44.06646769 114.22130523 -44.9992981 117.32717896 C-47.20506748 124.67286963 -49.40725111 132.01962359 -51.60595703 139.36743164 C-52.37465685 141.93419351 -53.14426252 144.50066046 -53.91552734 147.06665039 C-55.04618214 150.8285332 -56.17165982 154.59195516 -57.296875 158.35546875 C-57.81093903 160.06188789 -57.81093903 160.06188789 -58.33538818 161.80278015 C-61.34740176 171.90382266 -63.36111838 180.93609058 -63.375 191.5 C-63.39949219 192.48097656 -63.42398438 193.46195313 -63.44921875 194.47265625 C-63.47640777 201.27897382 -62.10088589 205.99706365 -59 212 C-58.67 212.99 -58.34 213.98 -58 215 C-67.73032529 215.62329486 -67.73032529 215.62329486 -72.4375 213.3125 C-79.81227207 206.65721789 -79.81227207 206.65721789 -80.14526367 201.94384766 C-80.17015231 199.17077204 -80.18567312 196.39819629 -80.1875 193.625 C-80.19974609 192.68527344 -80.21199219 191.74554688 -80.22460938 190.77734375 C-80.25089968 177.93014854 -77.10657448 166.28158854 -73.3125 154.125 C-72.86114134 152.65830431 -72.41038301 151.19142376 -71.96020508 149.72436523 C-69.15238043 140.59879334 -66.26269909 131.49982807 -63.33325195 122.41259766 C-61.36000954 116.25185924 -59.59450398 110.05368498 -57.90844727 103.80908203 C-56.31216718 97.96229471 -54.49446674 92.20211594 -52.625 86.4375 C-50.10403514 78.65032272 -47.79359292 70.82982793 -45.625 62.9375 C-43.16865844 54.07185 -40.66657725 45.22070069 -38.01068115 36.41262817 C-37.45409628 34.55537954 -36.91260067 32.69362976 -36.37158203 30.83178711 C-33.06493988 19.9815353 -28.32702106 11.68041039 -19 5 C-4.76363636 -2.38181818 -4.76363636 -2.38181818 0 0 Z " fill="#2F559D" transform="translate(110,282)"/>
<path d="M0 0 C-0.73016437 1.52088525 -0.73016437 1.52088525 -1.47507954 3.07249546 C-3.0385427 6.73873977 -3.38276652 9.82750321 -3.39872742 13.84007263 C-3.40537424 14.49125488 -3.41202107 15.14243713 -3.41886932 15.81335217 C-3.43738497 17.9752592 -3.43490194 20.1366072 -3.43237305 22.29858398 C-3.44139725 23.85625483 -3.45172608 25.41391857 -3.46325684 26.97157288 C-3.49077582 31.18591889 -3.5001044 35.40012996 -3.50611091 39.61455417 C-3.51550788 44.02418256 -3.54171234 48.4337107 -3.56611633 52.84327698 C-3.60974864 61.18702582 -3.63831567 69.53075517 -3.66143972 77.8745833 C-3.68850892 87.37643644 -3.73241937 96.87818854 -3.77772844 106.37996948 C-3.8705279 125.91992809 -3.94163279 145.45991028 -4 165 C-9.28 165 -14.56 165 -20 165 C-20.00546844 163.11532013 -20.00546844 163.11532013 -20.01104736 161.19256592 C-20.04796026 149.36187543 -20.1056924 137.53144613 -20.18390274 125.70095444 C-20.22344165 119.61849627 -20.25559873 113.53618427 -20.27099609 107.45361328 C-20.2861203 101.58551268 -20.32049071 95.71781376 -20.36830902 89.84989166 C-20.38316654 87.6091994 -20.39104351 85.3684498 -20.39188385 83.12770844 C-20.39424207 79.99322997 -20.42123009 76.85987198 -20.45410156 73.72558594 C-20.4490712 72.79554245 -20.44404083 71.86549896 -20.43885803 70.90727234 C-20.48662868 65.83271654 -20.48662868 65.83271654 -22.84661865 61.45465088 C-25.02585136 59.84193777 -25.02585136 59.84193777 -28 59 C-28 54.05 -28 49.1 -28 44 C-26.02 43.01 -24.04 42.02 -22 41 C-20.59971369 38.19942738 -20.85443691 35.83689388 -20.82421875 32.70703125 C-20.80037109 31.43666016 -20.77652344 30.16628906 -20.75195312 28.85742188 C-20.70553859 26.17998505 -20.67788444 23.50414296 -20.65820312 20.82617188 C-20.39451912 8.67831123 -20.39451912 8.67831123 -16 3 C-11.50822829 -1.21954312 -5.78363947 -0.27348208 0 0 Z " fill="#C5CFD9" transform="translate(143,332)"/>
<path d="M0 0 C0.06058594 0.96421875 0.12117187 1.9284375 0.18359375 2.921875 C0.26738281 4.18515625 0.35117188 5.4484375 0.4375 6.75 C0.55931641 8.62945312 0.55931641 8.62945312 0.68359375 10.546875 C0.88239556 13.79218199 0.88239556 13.79218199 1.546875 16.0390625 C2.21346272 18.92377833 1.93151829 21.6720596 1.8125 24.625 C1.79533728 30.24771724 2.26372108 35.39226857 3.546875 40.87890625 C3.72021866 41.6380986 3.89356232 42.39729095 4.07215881 43.17948914 C6.77335745 54.66607406 10.16063462 65.98043985 13.4375 77.3125 C20.90842625 103.16692083 20.90842625 103.16692083 23.97265625 115.79296875 C24.18208359 116.64151932 24.39151093 117.49006989 24.60728455 118.36433411 C24.79367996 119.15442368 24.98007538 119.94451324 25.17211914 120.75854492 C25.3334584 121.43705002 25.49479767 122.11555511 25.661026 122.81462097 C26 125 26 125 26 131 C43.16 131 60.32 131 78 131 C78 131.33 78 131.66 78 132 C53.58 132 29.16 132 4 132 C2.515 125.07 2.515 125.07 1 118 C0.01 117.34 -0.98 116.68 -2 116 C-0.576875 115.5978125 -0.576875 115.5978125 0.875 115.1875 C4.25267273 114.25013412 4.25267273 114.25013412 6 111 C5.60795008 104.46583459 3.53935363 98.16028671 1.8125 91.875 C1.50006348 90.72572021 1.18762695 89.57644043 0.86572266 88.39233398 C-1.07931727 81.26725741 -3.08151659 74.15988973 -5.125 67.0625 C-11.36446283 45.33509693 -15.42331771 25.74844239 -15 3 C-12.87562952 2.49733206 -10.75048274 1.9979439 -8.625 1.5 C-7.44164063 1.2215625 -6.25828125 0.943125 -5.0390625 0.65625 C-2 0 -2 0 0 0 Z " fill="#1F3869" transform="translate(131,185)"/>
<path d="M0 0 C-0.76699219 0.4640625 -1.53398437 0.928125 -2.32421875 1.40625 C-11.01767161 6.81820207 -19.13665639 12.80363352 -27.24560547 19.05371094 C-32.20802496 22.87702348 -37.19102502 26.64236837 -42.3125 30.25 C-49.9973488 35.67117453 -57.52096218 41.29885039 -65 47 C-65.96292969 47.73347656 -66.92585938 48.46695313 -67.91796875 49.22265625 C-88.33688168 65.14624262 -99.3041887 85.51086572 -103 111 C-103.65346825 117.88049389 -103.69404839 124.78138013 -103.75 131.6875 C-103.77826684 133.47984501 -103.80820841 135.27216441 -103.83984375 137.06445312 C-103.91241405 141.37625365 -103.96275074 145.68775575 -104 150 C-109.08940744 152.05362055 -113.54520815 153.43179252 -119 154 C-119.10028413 148.04505094 -119.17212362 142.09061338 -119.21972656 136.13500977 C-119.23960983 134.11701882 -119.26672625 132.09908365 -119.30175781 130.08129883 C-119.56803616 114.32780214 -119.02584165 98.78426056 -111.25 84.625 C-110.90638428 83.97200928 -110.56276855 83.31901855 -110.20874023 82.64624023 C-101.25891399 66.06531641 -88.58621333 55.69984059 -73.58349609 44.87792969 C-69.35154471 41.80174654 -65.17775486 38.64916421 -61 35.5 C-57.66803054 32.99817993 -54.33411726 30.49895677 -51 28 C-50.1740332 27.3802832 -49.34806641 26.76056641 -48.49707031 26.12207031 C-8.83898272 -3.57871008 -8.83898272 -3.57871008 0 0 Z " fill="#2E549B" transform="translate(235,19)"/>
<path d="M0 0 C6 2 6 2 8.2734375 2.81640625 C8.96695313 3.06261719 9.66046875 3.30882812 10.375 3.5625 C11.06335938 3.81128906 11.75171875 4.06007813 12.4609375 4.31640625 C27.20221905 8.28521282 46.62523267 7.64594551 60.2578125 0.8046875 C62 0 62 0 64 0 C64 9.57 64 19.14 64 29 C42.88 29 21.76 29 0 29 C0 19.43 0 9.86 0 0 Z " fill="#CD9359" transform="translate(224,288)"/>
<path d="M0 0 C1.42165113 -0.01147014 2.84326089 -0.03184287 4.26464844 -0.06152344 C15.32032365 -0.29217214 23.57194917 0.66156366 32.0234375 8.29516602 C34.71639744 7.32270826 36.75393329 6.5377198 38.8984375 4.60766602 C41.0234375 3.29516602 41.0234375 3.29516602 44.5859375 3.42016602 C48.0234375 4.29516602 48.0234375 4.29516602 49.9609375 5.48266602 C51.65401313 8.37085385 51.5953939 9.99052903 51.0234375 13.29516602 C47.76620497 18.80740569 43.06655775 22.32283834 37.0234375 24.29516602 C31.00307802 25.38080461 28.34734604 24.14226411 23.2109375 20.85766602 C22.29699219 20.21958008 21.38304687 19.58149414 20.44140625 18.92407227 C12.6178509 13.6535996 -0.97443067 15.23440526 -9.9765625 16.29516602 C-14.38619874 17.64738928 -17.5731086 20.24958603 -20.9765625 23.29516602 C-25.77725591 24.89539715 -29.77832639 25.36905841 -34.359375 23.13110352 C-38.55373638 20.43176203 -42.45408476 17.68208382 -44.9765625 13.29516602 C-45.58042542 9.59650562 -45.47627129 8.02550963 -43.3515625 4.92016602 C-40.16560464 2.74030011 -38.78895797 2.63532834 -34.9765625 3.29516602 C-32.16225616 4.76327889 -29.5622179 6.45764441 -26.9765625 8.29516602 C-26.21730469 7.80145508 -25.45804688 7.30774414 -24.67578125 6.79907227 C-23.18498047 5.83807617 -23.18498047 5.83807617 -21.6640625 4.85766602 C-20.67792969 4.21958008 -19.69179687 3.58149414 -18.67578125 2.92407227 C-12.82209405 -0.60847124 -6.61667602 0.03711277 0 0 Z " fill="#040303" transform="translate(252.9765625,203.704833984375)"/>
<path d="M0 0 C0.66 0.33 1.32 0.66 2 1 C1.54109375 1.59425781 1.0821875 2.18851562 0.609375 2.80078125 C-7.79601812 14.15512532 -10.83560754 25.00100747 -9 39 C-6.84159417 47.87238503 -2.43918852 54.79161306 3 62 C5.68741925 67.3748385 4 73.99074787 4 80 C15.22 80 26.44 80 38 80 C38 80.33 38 80.66 38 81 C32.32169922 81.02464705 26.64342931 81.04283462 20.96508789 81.05493164 C19.03181415 81.05997256 17.09854424 81.06680519 15.1652832 81.07543945 C12.39273128 81.08751565 9.62022959 81.09323057 6.84765625 81.09765625 C5.54297142 81.10539818 5.54297142 81.10539818 4.21192932 81.11329651 C2.14094186 81.11349185 0.07005676 81.06208168 -2 81 C-3.8112967 79.1887033 -3.16927271 76.69043137 -3.23901367 74.27319336 C-3.54654157 64.49871035 -5.06445488 58.77358583 -11.0625 51 C-17.33737813 42.72351518 -18.11239671 34.21052808 -17.31054688 24.08154297 C-16.12847564 16.1583202 -10.75606018 7.59246351 -4.35546875 2.7578125 C-2.93393321 1.79236682 -1.47047741 0.88912588 0 0 Z " fill="#88C250" transform="translate(238,379)"/>
<path d="M0 0 C0.96679688 0.09539062 1.93359375 0.19078125 2.9296875 0.2890625 C3.84105469 0.39347656 4.75242188 0.49789062 5.69140625 0.60546875 C8.1793987 0.72358171 9.87113459 0.40262647 12.2421875 -0.2734375 C16.30199068 -0.75712499 19.25301388 -0.87659215 22.8046875 1.2890625 C24.2421875 3.7265625 24.2421875 3.7265625 24.1796875 7.2890625 C22.91947834 11.90982943 22.91947834 11.90982943 20.2421875 13.7265625 C15.41357354 16.28790979 10.63236763 16.0584641 5.3046875 16.0390625 C4.42361328 16.05517578 3.54253906 16.07128906 2.63476562 16.08789062 C-2.59461378 16.09180776 -6.2312925 15.63291522 -10.7578125 12.7265625 C-12.95904208 10.52533292 -13.65907937 9.29075179 -14.1953125 6.2265625 C-13.7578125 3.7265625 -13.7578125 3.7265625 -12.1953125 1.4140625 C-8.23166089 -1.330004 -4.63783655 -0.45984215 0 0 Z " fill="#040403" transform="translate(250.7578125,235.2734375)"/>
<path d="M0 0 C1.0621875 0.27714844 2.124375 0.55429687 3.21875 0.83984375 C4.64576737 1.20598636 6.07285448 1.57185722 7.5 1.9375 C8.19609375 2.11990234 8.8921875 2.30230469 9.609375 2.49023438 C27.23993909 6.97949838 44.75804051 5.17033987 62 0 C62 2.97 62 5.94 62 9 C41.54 9 21.08 9 0 9 C0 6.03 0 3.06 0 0 Z " fill="#E2A66E" transform="translate(225,307)"/>
<path d="M0 0 C11.625 1.875 11.625 1.875 15 3 C15.05382106 5.62527189 15.09358313 8.24944713 15.125 10.875 C15.14175781 11.62136719 15.15851563 12.36773437 15.17578125 13.13671875 C15.1933959 15.09194461 15.10320189 17.04742021 15 19 C13 21 13 21 9.9609375 21.1953125 C6.640625 21.13020833 3.3203125 21.06510417 0 21 C0 14.07 0 7.14 0 0 Z " fill="#DAA16B" transform="translate(351,178)"/>
<path d="M0 0 C0 6.93 0 13.86 0 21 C-9.9609375 21.1953125 -9.9609375 21.1953125 -13 21 C-15 19 -15 19 -15.1953125 15.3046875 C-15.182009 13.82799892 -15.15814835 12.35137642 -15.125 10.875 C-15.11146484 9.74384766 -15.11146484 9.74384766 -15.09765625 8.58984375 C-15.0740687 6.72642746 -15.03819719 4.86317407 -15 3 C-12.87562952 2.49733206 -10.75048274 1.9979439 -8.625 1.5 C-7.44164062 1.2215625 -6.25828125 0.943125 -5.0390625 0.65625 C-2 0 -2 0 0 0 Z " fill="#DBA16B" transform="translate(161,178)"/>
<path d="M0 0 C3.39896029 0.65151861 5.01355752 1.7135028 7.16015625 4.4140625 C7.78214693 8.28422673 7.71881878 10.4237062 5.78515625 13.8515625 C1.69385947 16.2868582 -2.20921442 16.28183795 -6.83984375 15.4140625 C-10.10320366 13.12971056 -11.49823723 11.7804886 -12.46484375 7.9140625 C-10.80580286 1.27789893 -6.23516057 -0.39555276 0 0 Z " fill="#050704" transform="translate(272.83984375,401.5859375)"/>
<path d="M0 0 C3.4203866 1.17013226 3.91540482 1.87310723 6 5 C5.77693903 11.24570718 5.77693903 11.24570718 3.2578125 13.69140625 C-0.65075873 15.95675462 -4.62206331 15.63996417 -9 15 C-11.625 13.4375 -11.625 13.4375 -13 11 C-13.5625 7.5 -13.5625 7.5 -13 4 C-9.16154426 -0.67811794 -5.64477487 -0.53759761 0 0 Z " fill="#050604" transform="translate(245,402)"/>
<path d="M0 0 C1.051875 -0.00773437 2.10375 -0.01546875 3.1875 -0.0234375 C6 0.375 6 0.375 7.8515625 1.6484375 C9.22929923 3.71972877 9.40310699 4.90158511 9.375 7.375 C9.38273437 8.055625 9.39046875 8.73625 9.3984375 9.4375 C8.86384293 12.03709714 8.18854506 12.86979812 6 14.375 C3.1875 14.7734375 3.1875 14.7734375 0 14.75 C-1.051875 14.75773437 -2.10375 14.76546875 -3.1875 14.7734375 C-6 14.375 -6 14.375 -7.8515625 13.1015625 C-9.22929923 11.03027123 -9.40310699 9.84841489 -9.375 7.375 C-9.38273438 6.694375 -9.39046875 6.01375 -9.3984375 5.3125 C-8.32512394 0.09324975 -4.72430401 -0.03473753 0 0 Z " fill="#030402" transform="translate(256,424.625)"/>
</svg>
