<?xml version="1.0" encoding="UTF-8"?>
<!DOCTYPE svg PUBLIC "-//W3C//DTD SVG 1.1//EN" "http://www.w3.org/Graphics/SVG/1.1/DTD/svg11.dtd">
<svg xmlns="http://www.w3.org/2000/svg" version="1.1" width="457px" height="431px" style="shape-rendering:geometricPrecision; text-rendering:geometricPrecision; image-rendering:optimizeQuality; fill-rule:evenodd; clip-rule:evenodd" xmlns:xlink="http://www.w3.org/1999/xlink">
<g><path style="opacity:1" fill="#fefefe" d="M -0.5,-0.5 C 151.833,-0.5 304.167,-0.5 456.5,-0.5C 456.5,143.167 456.5,286.833 456.5,430.5C 304.167,430.5 151.833,430.5 -0.5,430.5C -0.5,286.833 -0.5,143.167 -0.5,-0.5 Z"/></g>
<g><path style="opacity:1" fill="#eafcfc" d="M 269.5,88.5 C 267.713,84.509 265.046,81.1756 261.5,78.5C 260.486,77.2353 258.986,76.5687 257,76.5C 255.293,76.5085 253.793,76.8418 252.5,77.5C 249.728,79.3904 246.728,81.057 243.5,82.5C 243.787,79.5159 245.454,78.1826 248.5,78.5C 248.5,77.5 248.5,76.5 248.5,75.5C 251.592,74.664 254.759,73.9973 258,73.5C 262.439,72.4349 264.939,74.1015 265.5,78.5C 268.432,81.0462 269.766,84.3796 269.5,88.5 Z"/></g>
<g><path style="opacity:1" fill="#ebfdfc" d="M 204.5,84.5 C 203.833,84.1667 203.167,83.8333 202.5,83.5C 201.833,82.1667 200.833,81.1667 199.5,80.5C 198.71,79.5987 197.71,78.9321 196.5,78.5C 195.833,78.5 195.167,78.5 194.5,78.5C 194.389,77.8826 194.056,77.3826 193.5,77C 190.518,76.502 187.518,76.3354 184.5,76.5C 185.514,75.2353 187.014,74.5687 189,74.5C 190.5,74.6667 192,74.8333 193.5,75C 196.857,77.0533 200.524,78.5533 204.5,79.5C 204.5,81.1667 204.5,82.8333 204.5,84.5 Z"/></g>
<g><path style="opacity:1" fill="#9fcce3" d="M 184.5,77.5 C 184.5,77.1667 184.5,76.8333 184.5,76.5C 187.518,76.3354 190.518,76.502 193.5,77C 194.056,77.3826 194.389,77.8826 194.5,78.5C 193.833,78.5 193.167,78.5 192.5,78.5C 190.052,77.5269 187.385,77.1936 184.5,77.5 Z"/></g>
<g><path style="opacity:1" fill="#a1cde1" d="M 252.5,77.5 C 253.793,76.8418 255.293,76.5085 257,76.5C 258.986,76.5687 260.486,77.2353 261.5,78.5C 258.609,77.5975 255.609,77.2641 252.5,77.5 Z"/></g>
<g><path style="opacity:1" fill="#afe1f6" d="M 196.5,78.5 C 197.71,78.9321 198.71,79.5987 199.5,80.5C 197.821,80.7148 196.821,80.0481 196.5,78.5 Z"/></g>
<g><path style="opacity:1" fill="#66b4cf" d="M 192.5,78.5 C 193.167,78.5 193.833,78.5 194.5,78.5C 195.167,78.5 195.833,78.5 196.5,78.5C 196.821,80.0481 197.821,80.7148 199.5,80.5C 200.833,81.1667 201.833,82.1667 202.5,83.5C 198.502,82.9581 195.168,81.2914 192.5,78.5 Z"/></g>
<g><path style="opacity:1" fill="#67b7d3" d="M 252.5,77.5 C 255.609,77.2641 258.609,77.5975 261.5,78.5C 265.046,81.1756 267.713,84.509 269.5,88.5C 269.5,88.8333 269.5,89.1667 269.5,89.5C 269.5,90.5 269.5,91.5 269.5,92.5C 267.326,89.3699 265.326,86.0366 263.5,82.5C 259.988,79.4388 255.988,78.7721 251.5,80.5C 246.59,84.4454 241.257,87.4454 235.5,89.5C 235.833,88.8333 236.167,88.1667 236.5,87.5C 239.255,86.369 241.589,84.7024 243.5,82.5C 246.728,81.057 249.728,79.3904 252.5,77.5 Z"/></g>
<g><path style="opacity:1" fill="#41beee" d="M 269.5,92.5 C 269.833,92.5 270.167,92.5 270.5,92.5C 270.182,95.4815 271.182,97.8148 273.5,99.5C 273.368,102.57 273.701,105.57 274.5,108.5C 273.626,110.69 271.959,111.69 269.5,111.5C 269.5,122.833 269.5,134.167 269.5,145.5C 270.833,145.5 272.167,145.5 273.5,145.5C 273.941,139.195 273.274,133.029 271.5,127C 271.833,126.167 272.167,125.333 272.5,124.5C 275.518,123.035 278.351,121.369 281,119.5C 283.192,121.462 285.859,122.462 289,122.5C 291.907,122.569 294.24,121.569 296,119.5C 296.862,122.591 298.028,125.591 299.5,128.5C 297.979,130.291 296.146,131.624 294,132.5C 293.023,137.793 292.523,143.126 292.5,148.5C 294.167,148.5 295.833,148.5 297.5,148.5C 296.325,152.183 296.325,155.85 297.5,159.5C 302.682,159.557 302.682,160.224 297.5,161.5C 296.893,165.489 296.227,169.489 295.5,173.5C 294.692,173.808 294.025,174.308 293.5,175C 296.277,175.051 298.943,175.218 301.5,175.5C 302.121,178.564 302.955,181.564 304,184.5C 304.414,184.043 304.914,183.709 305.5,183.5C 306.833,186.167 306.833,188.833 305.5,191.5C 302.144,188.795 298.811,188.461 295.5,190.5C 293.673,189.068 292.006,187.401 290.5,185.5C 291.025,184.808 291.692,184.308 292.5,184C 289.94,183.616 287.606,182.783 285.5,181.5C 283.413,179.401 281.08,177.735 278.5,176.5C 278.167,175.5 277.5,174.833 276.5,174.5C 275.493,173.172 274.16,172.172 272.5,171.5C 270.082,173.232 267.415,174.565 264.5,175.5C 262.425,174.238 260.425,174.405 258.5,176C 261.215,176.875 262.548,178.708 262.5,181.5C 262.167,181.5 261.833,181.5 261.5,181.5C 261.586,180.504 261.252,179.671 260.5,179C 258.341,178.088 256.175,177.255 254,176.5C 253.86,173.719 252.694,171.553 250.5,170C 252.886,168.156 254.053,165.656 254,162.5C 254.824,159.118 254.657,155.784 253.5,152.5C 252.667,153.5 251.833,154.5 251,155.5C 250.821,152.447 250.321,149.447 249.5,146.5C 248.216,147.585 246.716,148.252 245,148.5C 242.761,147.909 240.594,147.242 238.5,146.5C 238.579,145.07 238.246,143.736 237.5,142.5C 237.808,141.692 238.308,141.025 239,140.5C 240.434,142.136 242.267,143.136 244.5,143.5C 244.935,139.657 246.935,137.324 250.5,136.5C 250.735,129.385 250.068,122.385 248.5,115.5C 254.362,117.138 256.196,115.138 254,109.5C 253.51,110.793 253.343,112.127 253.5,113.5C 252.5,113.5 251.5,113.5 250.5,113.5C 250.34,109.764 249.507,109.764 248,113.5C 243.936,106.054 246.103,103.387 254.5,105.5C 254.563,102.092 256.23,99.7589 259.5,98.5C 256.833,97.1667 254.167,97.1667 251.5,98.5C 250.754,99.7362 250.421,101.07 250.5,102.5C 249.5,102.5 248.5,102.5 247.5,102.5C 248.122,97.9682 246.122,95.8015 241.5,96C 242.833,94.6667 242.833,93.3333 241.5,92C 239.071,91.2967 236.738,91.4634 234.5,92.5C 234.5,91.8333 234.5,91.1667 234.5,90.5C 235.167,90.5 235.5,90.1667 235.5,89.5C 241.257,87.4454 246.59,84.4454 251.5,80.5C 255.988,78.7721 259.988,79.4388 263.5,82.5C 265.326,86.0366 267.326,89.3699 269.5,92.5 Z"/></g>
<g><path style="opacity:1" fill="#69b5d2" d="M 184.5,77.5 C 187.385,77.1936 190.052,77.5269 192.5,78.5C 190.076,78.1924 187.743,78.5258 185.5,79.5C 184.91,80.7989 183.91,81.6322 182.5,82C 181.119,85.9382 179.119,89.4382 176.5,92.5C 176.5,91.5 176.5,90.5 176.5,89.5C 178.267,84.7949 180.934,80.7949 184.5,77.5 Z"/></g>
<g><path style="opacity:1" fill="#44b9eb" d="M 192.5,78.5 C 195.168,81.2914 198.502,82.9581 202.5,83.5C 203.896,85.7478 205.563,87.9144 207.5,90C 208.448,90.4828 209.448,90.6495 210.5,90.5C 211.778,90.7822 212.778,91.4489 213.5,92.5C 213.511,94.0174 214.177,95.1841 215.5,96C 222.526,97.4922 228.859,96.3255 234.5,92.5C 236.738,91.4634 239.071,91.2967 241.5,92C 242.833,93.3333 242.833,94.6667 241.5,96C 246.122,95.8015 248.122,97.9682 247.5,102.5C 248.5,102.5 249.5,102.5 250.5,102.5C 250.421,101.07 250.754,99.7362 251.5,98.5C 254.167,97.1667 256.833,97.1667 259.5,98.5C 256.23,99.7589 254.563,102.092 254.5,105.5C 246.103,103.387 243.936,106.054 248,113.5C 249.507,109.764 250.34,109.764 250.5,113.5C 251.5,113.5 252.5,113.5 253.5,113.5C 253.343,112.127 253.51,110.793 254,109.5C 256.196,115.138 254.362,117.138 248.5,115.5C 250.068,122.385 250.735,129.385 250.5,136.5C 246.935,137.324 244.935,139.657 244.5,143.5C 242.267,143.136 240.434,142.136 239,140.5C 238.308,141.025 237.808,141.692 237.5,142.5C 238.246,143.736 238.579,145.07 238.5,146.5C 240.594,147.242 242.761,147.909 245,148.5C 246.716,148.252 248.216,147.585 249.5,146.5C 250.321,149.447 250.821,152.447 251,155.5C 251.833,154.5 252.667,153.5 253.5,152.5C 254.657,155.784 254.824,159.118 254,162.5C 254.053,165.656 252.886,168.156 250.5,170C 252.694,171.553 253.86,173.719 254,176.5C 256.175,177.255 258.341,178.088 260.5,179C 261.252,179.671 261.586,180.504 261.5,181.5C 259.811,182.931 257.811,183.764 255.5,184C 254.671,186.823 252.838,188.657 250,189.5C 249.682,191.061 248.849,192.228 247.5,193C 247.833,193.333 248.167,193.667 248.5,194C 245.583,194.662 244.25,196.495 244.5,199.5C 243.178,199.67 242.011,199.337 241,198.5C 239.754,201.913 237.587,204.579 234.5,206.5C 234.414,205.504 234.748,204.671 235.5,204C 232.89,203.853 230.556,203.019 228.5,201.5C 227.749,202.376 227.249,203.376 227,204.5C 226.333,202.5 226.333,200.5 227,198.5C 228.707,199.138 230.54,199.138 232.5,198.5C 232.402,193.734 231.736,189.067 230.5,184.5C 228.167,184.5 225.833,184.5 223.5,184.5C 223.5,172.167 223.5,159.833 223.5,147.5C 220.5,147.5 217.5,147.5 214.5,147.5C 214.5,144.5 214.5,141.5 214.5,138.5C 211.167,138.5 207.833,138.5 204.5,138.5C 204.5,129.167 204.5,119.833 204.5,110.5C 202.257,111.312 199.924,111.979 197.5,112.5C 195.514,112.213 193.68,111.547 192,110.5C 188.223,111.13 184.39,111.13 180.5,110.5C 180.5,107.833 180.5,105.167 180.5,102.5C 176.616,102.942 174.616,101.275 174.5,97.5C 175.441,95.9505 176.107,94.2838 176.5,92.5C 179.119,89.4382 181.119,85.9382 182.5,82C 183.91,81.6322 184.91,80.7989 185.5,79.5C 187.743,78.5258 190.076,78.1924 192.5,78.5 Z"/></g>
<g><path style="opacity:1" fill="#68b7d2" d="M 202.5,83.5 C 203.167,83.8333 203.833,84.1667 204.5,84.5C 205.5,85.1667 206.5,85.8333 207.5,86.5C 208.5,87.8333 209.5,89.1667 210.5,90.5C 209.448,90.6495 208.448,90.4828 207.5,90C 205.563,87.9144 203.896,85.7478 202.5,83.5 Z"/></g>
<g><path style="opacity:1" fill="#e4fafa" d="M 207.5,86.5 C 211.916,88.1844 216.249,90.0177 220.5,92C 219.584,92.2784 218.918,92.7784 218.5,93.5C 216.883,92.962 215.216,92.6287 213.5,92.5C 212.778,91.4489 211.778,90.7822 210.5,90.5C 209.5,89.1667 208.5,87.8333 207.5,86.5 Z"/></g>
<g><path style="opacity:1" fill="#d1f3f4" d="M 176.5,89.5 C 176.5,90.5 176.5,91.5 176.5,92.5C 175,93.6252 173.667,94.9586 172.5,96.5C 172.076,92.9983 173.41,90.665 176.5,89.5 Z"/></g>
<g><path style="opacity:1" fill="#dff9f9" d="M 236.5,87.5 C 236.167,88.1667 235.833,88.8333 235.5,89.5C 235.5,90.1667 235.167,90.5 234.5,90.5C 230.258,94.2751 225.258,95.7751 219.5,95C 218.944,94.6174 218.611,94.1174 218.5,93.5C 222.969,93.5421 227.302,92.8755 231.5,91.5C 231.746,88.5299 233.412,87.1966 236.5,87.5 Z"/></g>
<g><path style="opacity:1" fill="#bceceb" d="M 269.5,89.5 C 270.906,89.9731 271.573,90.9731 271.5,92.5C 271.167,92.5 270.833,92.5 270.5,92.5C 270.167,92.5 269.833,92.5 269.5,92.5C 269.5,91.5 269.5,90.5 269.5,89.5 Z"/></g>
<g><path style="opacity:1" fill="#68b7cf" d="M 176.5,92.5 C 176.107,94.2838 175.441,95.9505 174.5,97.5C 173.833,98.1667 173.167,98.8333 172.5,99.5C 172.5,98.5 172.5,97.5 172.5,96.5C 173.667,94.9586 175,93.6252 176.5,92.5 Z"/></g>
<g><path style="opacity:1" fill="#77bcd4" d="M 234.5,90.5 C 234.5,91.1667 234.5,91.8333 234.5,92.5C 228.859,96.3255 222.526,97.4922 215.5,96C 214.177,95.1841 213.511,94.0174 213.5,92.5C 215.216,92.6287 216.883,92.962 218.5,93.5C 218.611,94.1174 218.944,94.6174 219.5,95C 225.258,95.7751 230.258,94.2751 234.5,90.5 Z"/></g>
<g><path style="opacity:1" fill="#72c1da" d="M 270.5,92.5 C 270.833,92.5 271.167,92.5 271.5,92.5C 272.449,94.7373 273.116,97.0706 273.5,99.5C 271.182,97.8148 270.182,95.4815 270.5,92.5 Z"/></g>
<g><path style="opacity:1" fill="#e7fcfc" d="M 172.5,96.5 C 172.5,97.5 172.5,98.5 172.5,99.5C 172.167,99.5 171.833,99.5 171.5,99.5C 170.207,101.808 168.874,104.142 167.5,106.5C 165.083,108.937 162.083,110.27 158.5,110.5C 155.5,109.833 152.5,109.167 149.5,108.5C 154.519,108.248 159.519,107.748 164.5,107C 165.145,102.838 166.812,99.3376 169.5,96.5C 170.5,96.5 171.5,96.5 172.5,96.5 Z"/></g>
<g><path style="opacity:1" fill="#45b7ea" d="M 174.5,97.5 C 174.616,101.275 176.616,102.942 180.5,102.5C 180.5,105.167 180.5,107.833 180.5,110.5C 184.39,111.13 188.223,111.13 192,110.5C 193.68,111.547 195.514,112.213 197.5,112.5C 199.924,111.979 202.257,111.312 204.5,110.5C 204.5,119.833 204.5,129.167 204.5,138.5C 207.833,138.5 211.167,138.5 214.5,138.5C 214.5,141.5 214.5,144.5 214.5,147.5C 217.5,147.5 220.5,147.5 223.5,147.5C 223.5,159.833 223.5,172.167 223.5,184.5C 225.833,184.5 228.167,184.5 230.5,184.5C 231.736,189.067 232.402,193.734 232.5,198.5C 230.54,199.138 228.707,199.138 227,198.5C 226.333,200.5 226.333,202.5 227,204.5C 227.249,203.376 227.749,202.376 228.5,201.5C 230.556,203.019 232.89,203.853 235.5,204C 234.748,204.671 234.414,205.504 234.5,206.5C 233.449,207.222 232.782,208.222 232.5,209.5C 230.534,210.441 228.534,211.441 226.5,212.5C 224.297,209.891 223.297,206.891 223.5,203.5C 218.833,203.5 214.167,203.5 209.5,203.5C 209.5,200.5 209.5,197.5 209.5,194.5C 207.833,194.5 206.167,194.5 204.5,194.5C 204.5,191.167 204.5,187.833 204.5,184.5C 202.833,184.5 201.167,184.5 199.5,184.5C 199.5,178.833 199.5,173.167 199.5,167.5C 206.52,167.498 213.52,167.165 220.5,166.5C 220.5,165.167 220.5,163.833 220.5,162.5C 214.836,163.501 212.502,161.167 213.5,155.5C 209.935,156.324 207.935,158.657 207.5,162.5C 204.971,160.937 203.971,158.604 204.5,155.5C 202.857,155.48 201.524,156.147 200.5,157.5C 199.914,157.291 199.414,156.957 199,156.5C 198.506,158.134 198.34,159.801 198.5,161.5C 197.5,161.5 196.5,161.5 195.5,161.5C 195.5,160.167 195.5,158.833 195.5,157.5C 189.167,157.5 182.833,157.5 176.5,157.5C 176.5,148.167 176.5,138.833 176.5,129.5C 173.5,129.5 170.5,129.5 167.5,129.5C 167.811,125.754 166.811,122.42 164.5,119.5C 165.313,118.186 166.313,117.019 167.5,116C 166.072,115.421 164.738,115.588 163.5,116.5C 163.5,114.833 163.5,113.167 163.5,111.5C 165.483,111.843 166.817,111.176 167.5,109.5C 167.5,108.5 167.5,107.5 167.5,106.5C 170.987,105.555 172.32,103.222 171.5,99.5C 171.833,99.5 172.167,99.5 172.5,99.5C 173.167,98.8333 173.833,98.1667 174.5,97.5 Z"/></g>
<g><path style="opacity:1" fill="#cbedf8" d="M 123.5,106.5 C 130.321,105.345 137.321,105.179 144.5,106C 146.744,106.05 148.411,106.883 149.5,108.5C 140.929,106.91 132.263,106.244 123.5,106.5 Z"/></g>
<g><path style="opacity:1" fill="#6fb6cb" d="M 171.5,99.5 C 172.32,103.222 170.987,105.555 167.5,106.5C 168.874,104.142 170.207,101.808 171.5,99.5 Z"/></g>
<g><path style="opacity:1" fill="#7dbbd3" d="M 123.5,106.5 C 132.263,106.244 140.929,106.91 149.5,108.5C 152.5,109.167 155.5,109.833 158.5,110.5C 150.067,110.261 141.733,109.261 133.5,107.5C 130.5,107.667 127.5,107.833 124.5,108C 123.748,108.671 123.414,109.504 123.5,110.5C 122.833,110.833 122.167,111.167 121.5,111.5C 121.392,109.486 122.058,107.82 123.5,106.5 Z"/></g>
<g><path style="opacity:1" fill="#c4ecf4" d="M 278.5,105.5 C 279.973,106.072 281.307,106.905 282.5,108C 288.85,108.524 295.184,108.358 301.5,107.5C 301.5,107.833 301.5,108.167 301.5,108.5C 296.627,109.74 291.627,110.74 286.5,111.5C 284.465,110.959 282.465,110.292 280.5,109.5C 279.147,108.476 278.48,107.143 278.5,105.5 Z"/></g>
<g><path style="opacity:1" fill="#3cc2f0" d="M 274.5,108.5 C 274.67,109.822 274.337,110.989 273.5,112C 275.476,112.188 277.476,112.021 279.5,111.5C 281.369,112.068 283.203,112.734 285,113.5C 291.591,112.541 298.091,111.208 304.5,109.5C 310.463,108.504 316.463,108.171 322.5,108.5C 322.727,118.864 323.727,128.864 325.5,138.5C 325.5,138.833 325.5,139.167 325.5,139.5C 325.5,143.167 325.5,146.833 325.5,150.5C 330.753,151.824 336.087,152.824 341.5,153.5C 346.43,155.958 351.763,157.292 357.5,157.5C 358.167,157.5 358.833,157.5 359.5,157.5C 360.474,159.085 361.974,160.085 364,160.5C 364.3,166.504 364.134,172.504 363.5,178.5C 363.167,179.5 362.5,180.167 361.5,180.5C 358.659,182.64 357.326,185.64 357.5,189.5C 356.85,189.804 356.183,190.137 355.5,190.5C 354.189,194.984 354.189,199.317 355.5,203.5C 356.526,204.853 357.859,205.853 359.5,206.5C 360.789,207.637 361.789,208.97 362.5,210.5C 363.833,212.833 365.167,215.167 366.5,217.5C 368.322,217.831 369.989,218.498 371.5,219.5C 372.682,221.003 373.182,222.67 373,224.5C 371.047,228.422 369.881,228.088 369.5,223.5C 368.178,223.67 367.011,223.337 366,222.5C 366.019,224.107 366.185,225.774 366.5,227.5C 367.5,227.5 368.5,227.5 369.5,227.5C 369.5,228.833 369.5,230.167 369.5,231.5C 368.167,231.5 366.833,231.5 365.5,231.5C 365.54,236.193 365.873,240.859 366.5,245.5C 365.167,247.5 363.833,249.5 362.5,251.5C 362.5,251.833 362.5,252.167 362.5,252.5C 360.712,252.215 359.045,252.548 357.5,253.5C 358.609,255.214 357.942,255.881 355.5,255.5C 355.5,256.833 355.5,258.167 355.5,259.5C 354.213,260.871 353.547,262.705 353.5,265C 354.063,269.403 355.397,273.57 357.5,277.5C 357.657,278.873 357.49,280.207 357,281.5C 356.439,280.978 355.772,280.645 355,280.5C 353.667,281.833 352.333,283.167 351,284.5C 349.7,283.293 348.2,282.626 346.5,282.5C 344.704,285.896 343.704,289.563 343.5,293.5C 340.04,292.784 338.04,290.617 337.5,287C 335.866,286.506 334.199,286.34 332.5,286.5C 332.5,285.167 332.5,283.833 332.5,282.5C 334.833,282.5 337.167,282.5 339.5,282.5C 338.756,279.05 340.09,277.384 343.5,277.5C 344.263,274.859 344.43,272.192 344,269.5C 343.586,269.043 343.086,268.709 342.5,268.5C 341.571,269.689 341.238,271.022 341.5,272.5C 338.813,272.664 336.146,272.497 333.5,272C 328.83,268.245 325.997,263.411 325,257.5C 324,256.167 323,256.167 322,257.5C 320.372,253.889 318.038,250.889 315,248.5C 314.667,248.833 314.333,249.167 314,249.5C 313.481,248.484 312.647,247.818 311.5,247.5C 309.864,248.304 308.364,249.304 307,250.5C 306.586,250.043 306.086,249.709 305.5,249.5C 305.167,246.5 304.833,243.5 304.5,240.5C 304.589,236.972 305.256,233.638 306.5,230.5C 302.179,229.519 300.179,226.853 300.5,222.5C 296.96,222.623 294.96,220.957 294.5,217.5C 297.833,217.5 301.167,217.5 304.5,217.5C 304.5,215.833 304.5,214.167 304.5,212.5C 302.194,212.993 299.861,213.326 297.5,213.5C 296.537,210.333 297.204,207.333 299.5,204.5C 300.524,205.853 301.857,206.52 303.5,206.5C 304.685,202.125 303.185,198.792 299,196.5C 298.617,197.056 298.117,197.389 297.5,197.5C 297.834,194.812 297.168,192.479 295.5,190.5C 298.811,188.461 302.144,188.795 305.5,191.5C 306.833,188.833 306.833,186.167 305.5,183.5C 304.914,183.709 304.414,184.043 304,184.5C 302.955,181.564 302.121,178.564 301.5,175.5C 298.943,175.218 296.277,175.051 293.5,175C 294.025,174.308 294.692,173.808 295.5,173.5C 296.227,169.489 296.893,165.489 297.5,161.5C 302.682,160.224 302.682,159.557 297.5,159.5C 296.325,155.85 296.325,152.183 297.5,148.5C 295.833,148.5 294.167,148.5 292.5,148.5C 292.523,143.126 293.023,137.793 294,132.5C 296.146,131.624 297.979,130.291 299.5,128.5C 298.028,125.591 296.862,122.591 296,119.5C 294.24,121.569 291.907,122.569 289,122.5C 285.859,122.462 283.192,121.462 281,119.5C 278.351,121.369 275.518,123.035 272.5,124.5C 272.167,125.333 271.833,126.167 271.5,127C 273.274,133.029 273.941,139.195 273.5,145.5C 272.167,145.5 270.833,145.5 269.5,145.5C 269.5,134.167 269.5,122.833 269.5,111.5C 271.959,111.69 273.626,110.69 274.5,108.5 Z"/></g>
<g><path style="opacity:1" fill="#46b5e3" d="M 158.5,110.5 C 158.62,111.586 159.287,112.253 160.5,112.5C 162.748,111.207 165.082,110.207 167.5,109.5C 166.817,111.176 165.483,111.843 163.5,111.5C 163.5,113.167 163.5,114.833 163.5,116.5C 162.504,116.586 161.671,116.252 161,115.5C 160.506,117.134 160.34,118.801 160.5,120.5C 155.246,121.231 153.079,118.898 154,113.5C 153.5,114 153,114.5 152.5,115C 153.337,116.011 153.67,117.178 153.5,118.5C 148.563,118.623 146.063,121.289 146,126.5C 143.993,125.331 141.827,124.665 139.5,124.5C 139.785,126.288 139.452,127.955 138.5,129.5C 136.73,126.807 136.063,123.807 136.5,120.5C 137.5,120.5 138.5,120.5 139.5,120.5C 139.5,116.5 139.5,112.5 139.5,108.5C 134.821,108.334 130.155,108.501 125.5,109C 124.956,109.717 124.289,110.217 123.5,110.5C 123.414,109.504 123.748,108.671 124.5,108C 127.5,107.833 130.5,107.667 133.5,107.5C 141.733,109.261 150.067,110.261 158.5,110.5 Z"/></g>
<g><path style="opacity:1" fill="#6ec1d9" d="M 167.5,106.5 C 167.5,107.5 167.5,108.5 167.5,109.5C 165.082,110.207 162.748,111.207 160.5,112.5C 159.287,112.253 158.62,111.586 158.5,110.5C 162.083,110.27 165.083,108.937 167.5,106.5 Z"/></g>
<g><path style="opacity:1" fill="#54b9db" d="M 273.5,99.5 C 275.162,101.363 276.829,103.363 278.5,105.5C 278.48,107.143 279.147,108.476 280.5,109.5C 282.465,110.292 284.465,110.959 286.5,111.5C 291.627,110.74 296.627,109.74 301.5,108.5C 307.966,107.91 314.3,107.243 320.5,106.5C 322.062,106.733 323.395,107.4 324.5,108.5C 324.433,109.959 324.766,111.292 325.5,112.5C 325.5,121.167 325.5,129.833 325.5,138.5C 323.727,128.864 322.727,118.864 322.5,108.5C 316.463,108.171 310.463,108.504 304.5,109.5C 298.091,111.208 291.591,112.541 285,113.5C 283.203,112.734 281.369,112.068 279.5,111.5C 277.476,112.021 275.476,112.188 273.5,112C 274.337,110.989 274.67,109.822 274.5,108.5C 273.701,105.57 273.368,102.57 273.5,99.5 Z"/></g>
<g><path style="opacity:1" fill="#6fc6d8" d="M 320.5,106.5 C 314.3,107.243 307.966,107.91 301.5,108.5C 301.5,108.167 301.5,107.833 301.5,107.5C 307.744,106.542 314.077,106.209 320.5,106.5 Z"/></g>
<g><path style="opacity:1" fill="#bbe9f0" d="M 325.5,112.5 C 326.167,121.167 326.833,129.833 327.5,138.5C 327.5,138.833 327.5,139.167 327.5,139.5C 326.833,139.5 326.167,139.5 325.5,139.5C 325.5,139.167 325.5,138.833 325.5,138.5C 325.5,129.833 325.5,121.167 325.5,112.5 Z"/></g>
<g><path style="opacity:1" fill="#6fb3cc" d="M 120.5,111.5 C 120.833,111.5 121.167,111.5 121.5,111.5C 121.666,120.839 121.5,130.173 121,139.5C 120.963,141.974 120.13,143.974 118.5,145.5C 120.323,134.354 120.989,123.021 120.5,111.5 Z"/></g>
<g><path style="opacity:1" fill="#dffefe" d="M 324.5,108.5 C 325.151,109.091 325.818,109.757 326.5,110.5C 327.498,119.81 327.832,129.143 327.5,138.5C 326.833,129.833 326.167,121.167 325.5,112.5C 324.766,111.292 324.433,109.959 324.5,108.5 Z"/></g>
<g><path style="opacity:1" fill="#43b5e7" d="M 163.5,116.5 C 164.738,115.588 166.072,115.421 167.5,116C 166.313,117.019 165.313,118.186 164.5,119.5C 166.811,122.42 167.811,125.754 167.5,129.5C 170.5,129.5 173.5,129.5 176.5,129.5C 176.5,138.833 176.5,148.167 176.5,157.5C 182.833,157.5 189.167,157.5 195.5,157.5C 195.5,158.833 195.5,160.167 195.5,161.5C 196.5,161.5 197.5,161.5 198.5,161.5C 198.34,159.801 198.506,158.134 199,156.5C 199.414,156.957 199.914,157.291 200.5,157.5C 201.524,156.147 202.857,155.48 204.5,155.5C 203.971,158.604 204.971,160.937 207.5,162.5C 207.935,158.657 209.935,156.324 213.5,155.5C 212.502,161.167 214.836,163.501 220.5,162.5C 220.5,163.833 220.5,165.167 220.5,166.5C 213.52,167.165 206.52,167.498 199.5,167.5C 199.5,173.167 199.5,178.833 199.5,184.5C 201.167,184.5 202.833,184.5 204.5,184.5C 204.5,187.833 204.5,191.167 204.5,194.5C 206.167,194.5 207.833,194.5 209.5,194.5C 209.5,197.5 209.5,200.5 209.5,203.5C 214.167,203.5 218.833,203.5 223.5,203.5C 223.297,206.891 224.297,209.891 226.5,212.5C 228.534,211.441 230.534,210.441 232.5,209.5C 232.5,210.167 232.5,210.833 232.5,211.5C 230.05,213.229 227.383,214.729 224.5,216C 223.74,217.441 223.074,218.941 222.5,220.5C 221.311,221.429 219.978,221.762 218.5,221.5C 218.5,222.5 218.5,223.5 218.5,224.5C 215.165,225.461 213.499,227.794 213.5,231.5C 212.5,232.167 211.5,232.833 210.5,233.5C 208.009,233.84 205.842,234.84 204,236.5C 201.774,235.967 199.607,235.3 197.5,234.5C 196.833,233.5 196.167,232.5 195.5,231.5C 192.158,225.828 187.491,221.494 181.5,218.5C 179.527,217.194 177.861,215.527 176.5,213.5C 178.17,213.751 179.67,214.418 181,215.5C 183.45,211.967 182.784,209.3 179,207.5C 177.617,203.912 176.451,200.246 175.5,196.5C 173.132,194.777 170.466,194.11 167.5,194.5C 167.5,191.5 167.5,188.5 167.5,185.5C 164.167,185.5 160.833,185.5 157.5,185.5C 157.5,182.5 157.5,179.5 157.5,176.5C 154.5,176.5 151.5,176.5 148.5,176.5C 148.5,169.833 148.5,163.167 148.5,156.5C 146.5,156.5 144.5,156.5 142.5,156.5C 142.924,151.581 142.09,146.914 140,142.5C 135.889,145.245 131.556,147.245 127,148.5C 125.334,147.66 125.167,148.16 126.5,150C 121.326,149.515 117.66,151.515 115.5,156C 112.594,157.318 109.594,157.652 106.5,157C 109.447,156.925 110.447,155.758 109.5,153.5C 113.329,153.682 116.329,152.348 118.5,149.5C 120.136,147 121.636,144.334 123,141.5C 123.5,131.172 123.666,120.839 123.5,110.5C 124.289,110.217 124.956,109.717 125.5,109C 130.155,108.501 134.821,108.334 139.5,108.5C 139.5,112.5 139.5,116.5 139.5,120.5C 138.5,120.5 137.5,120.5 136.5,120.5C 136.063,123.807 136.73,126.807 138.5,129.5C 139.452,127.955 139.785,126.288 139.5,124.5C 141.827,124.665 143.993,125.331 146,126.5C 146.063,121.289 148.563,118.623 153.5,118.5C 153.67,117.178 153.337,116.011 152.5,115C 153,114.5 153.5,114 154,113.5C 153.079,118.898 155.246,121.231 160.5,120.5C 160.34,118.801 160.506,117.134 161,115.5C 161.671,116.252 162.504,116.586 163.5,116.5 Z"/></g>
<g><path style="opacity:1" fill="#4faeda" d="M 123.5,110.5 C 123.666,120.839 123.5,131.172 123,141.5C 121.636,144.334 120.136,147 118.5,149.5C 118.5,148.5 118.5,147.5 118.5,146.5C 118.5,146.167 118.5,145.833 118.5,145.5C 120.13,143.974 120.963,141.974 121,139.5C 121.5,130.173 121.666,120.839 121.5,111.5C 122.167,111.167 122.833,110.833 123.5,110.5 Z"/></g>
<g><path style="opacity:1" fill="#def7f9" d="M 120.5,111.5 C 120.989,123.021 120.323,134.354 118.5,145.5C 118.5,145.833 118.5,146.167 118.5,146.5C 112.188,150.64 105.188,152.974 97.5,153.5C 97.9528,152.542 98.6195,151.708 99.5,151C 104.026,150.547 108.359,149.38 112.5,147.5C 113.429,146.311 113.762,144.978 113.5,143.5C 114.833,143.5 116.167,143.5 117.5,143.5C 117.941,134.501 118.441,125.501 119,116.5C 119.198,114.618 119.698,112.952 120.5,111.5 Z"/></g>
<g><path style="opacity:1" fill="#5ac0da" d="M 325.5,139.5 C 326.167,139.5 326.833,139.5 327.5,139.5C 327.5,139.833 327.5,140.167 327.5,140.5C 327.905,149.215 332.571,152.882 341.5,151.5C 341.5,152.167 341.5,152.833 341.5,153.5C 336.087,152.824 330.753,151.824 325.5,150.5C 325.5,146.833 325.5,143.167 325.5,139.5 Z"/></g>
<g><path style="opacity:1" fill="#47b1e5" d="M 176.5,213.5 C 176.5,213.167 176.5,212.833 176.5,212.5C 176.918,211.778 177.584,211.278 178.5,211C 174.218,209.175 169.885,209.008 165.5,210.5C 165.657,211.873 165.49,213.207 165,214.5C 160.267,217.065 156.767,220.731 154.5,225.5C 150.389,225.778 148.722,227.945 149.5,232C 149.569,233.986 150.235,235.486 151.5,236.5C 152.167,237.833 152.833,239.167 153.5,240.5C 154.075,242.411 155.075,244.078 156.5,245.5C 154.436,245.762 153.103,246.929 152.5,249C 150.109,249.287 147.776,249.787 145.5,250.5C 144.026,247.677 143.692,244.844 144.5,242C 143.095,240.731 141.429,240.231 139.5,240.5C 139.672,238.508 139.005,236.842 137.5,235.5C 138.093,233.618 138.76,231.785 139.5,230C 133.391,231.311 127.058,231.811 120.5,231.5C 120.5,228.5 120.5,225.5 120.5,222.5C 118.167,222.5 115.833,222.5 113.5,222.5C 113.762,223.978 113.429,225.311 112.5,226.5C 111.511,222.893 111.177,219.226 111.5,215.5C 110.167,215.5 108.833,215.5 107.5,215.5C 107.238,207.21 105.071,206.543 101,213.5C 100.51,214.793 100.343,216.127 100.5,217.5C 98.1667,217.5 95.8333,217.5 93.5,217.5C 93.3601,215.876 94.0267,214.71 95.5,214C 92.8108,212.786 90.1441,212.619 87.5,213.5C 86.3527,213.182 85.5194,212.516 85,211.5C 84.9428,213.91 83.7761,215.244 81.5,215.5C 82.9418,214.18 83.6085,212.514 83.5,210.5C 83.5,209.833 83.8333,209.5 84.5,209.5C 87.028,208.816 89.1947,207.482 91,205.5C 91.8119,201.311 91.6453,197.311 90.5,193.5C 90.0113,192.005 89.3446,190.671 88.5,189.5C 88.1667,189.5 87.8333,189.5 87.5,189.5C 87.3259,187.139 86.9926,184.806 86.5,182.5C 86.6621,180.473 86.4955,178.473 86,176.5C 84.9887,175.663 83.8221,175.33 82.5,175.5C 82.5,170.833 82.5,166.167 82.5,161.5C 84.3492,160.407 86.0158,159.074 87.5,157.5C 90.7345,156.424 94.0678,155.757 97.5,155.5C 101.682,155.68 105.682,155.013 109.5,153.5C 110.447,155.758 109.447,156.925 106.5,157C 109.594,157.652 112.594,157.318 115.5,156C 117.66,151.515 121.326,149.515 126.5,150C 125.167,148.16 125.334,147.66 127,148.5C 131.556,147.245 135.889,145.245 140,142.5C 142.09,146.914 142.924,151.581 142.5,156.5C 144.5,156.5 146.5,156.5 148.5,156.5C 148.5,163.167 148.5,169.833 148.5,176.5C 151.5,176.5 154.5,176.5 157.5,176.5C 157.5,179.5 157.5,182.5 157.5,185.5C 160.833,185.5 164.167,185.5 167.5,185.5C 167.5,188.5 167.5,191.5 167.5,194.5C 170.466,194.11 173.132,194.777 175.5,196.5C 176.451,200.246 177.617,203.912 179,207.5C 182.784,209.3 183.45,211.967 181,215.5C 179.67,214.418 178.17,213.751 176.5,213.5 Z"/></g>
<g><path style="opacity:1" fill="#dbf7fa" d="M 327.5,140.5 C 328.302,141.952 328.802,143.618 329,145.5C 330.011,146.337 331.178,146.67 332.5,146.5C 332.5,147.5 332.5,148.5 332.5,149.5C 334.734,149.62 336.901,149.287 339,148.5C 340.31,149.13 341.144,150.13 341.5,151.5C 332.571,152.882 327.905,149.215 327.5,140.5 Z"/></g>
<g><path style="opacity:1" fill="#d6f8fb" d="M 341.5,151.5 C 346.495,151.593 351.161,152.593 355.5,154.5C 350.833,154.167 346.167,153.833 341.5,153.5C 341.5,152.833 341.5,152.167 341.5,151.5 Z"/></g>
<g><path style="opacity:1" fill="#60afd0" d="M 118.5,146.5 C 118.5,147.5 118.5,148.5 118.5,149.5C 116.329,152.348 113.329,153.682 109.5,153.5C 105.682,155.013 101.682,155.68 97.5,155.5C 97.5,155.167 97.5,154.833 97.5,154.5C 97.5,154.167 97.5,153.833 97.5,153.5C 105.188,152.974 112.188,150.64 118.5,146.5 Z"/></g>
<g><path style="opacity:1" fill="#65c2da" d="M 341.5,153.5 C 346.167,153.833 350.833,154.167 355.5,154.5C 355.782,155.778 356.449,156.778 357.5,157.5C 351.763,157.292 346.43,155.958 341.5,153.5 Z"/></g>
<g><path style="opacity:1" fill="#96c7dd" d="M 97.5,154.5 C 97.5,154.833 97.5,155.167 97.5,155.5C 94.0678,155.757 90.7345,156.424 87.5,157.5C 87.1667,157.5 86.8333,157.5 86.5,157.5C 89.7588,155.379 93.4255,154.379 97.5,154.5 Z"/></g>
<g><path style="opacity:1" fill="#d6f6f8" d="M 355.5,154.5 C 357.833,154.5 360.167,154.5 362.5,154.5C 362.5,155.5 362.5,156.5 362.5,157.5C 363.822,157.33 364.989,157.663 366,158.5C 366.554,160.61 367.388,162.61 368.5,164.5C 368.457,165.416 368.124,166.083 367.5,166.5C 366.69,164.202 365.856,161.868 365,159.5C 363.185,158.756 361.352,158.089 359.5,157.5C 358.833,157.5 358.167,157.5 357.5,157.5C 356.449,156.778 355.782,155.778 355.5,154.5 Z"/></g>
<g><path style="opacity:1" fill="#53aad3" d="M 82.5,161.5 C 82.5,166.167 82.5,170.833 82.5,175.5C 83.8221,175.33 84.9887,175.663 86,176.5C 86.4955,178.473 86.6621,180.473 86.5,182.5C 85.2223,182.218 84.2223,181.551 83.5,180.5C 83.5,180.167 83.5,179.833 83.5,179.5C 83.0679,178.29 82.4013,177.29 81.5,176.5C 81.5,176.167 81.5,175.833 81.5,175.5C 81.1805,170.637 81.5139,165.97 82.5,161.5 Z"/></g>
<g><path style="opacity:1" fill="#6dabc7" d="M 86.5,157.5 C 86.8333,157.5 87.1667,157.5 87.5,157.5C 86.0158,159.074 84.3492,160.407 82.5,161.5C 81.5139,165.97 81.1805,170.637 81.5,175.5C 80.9797,172.092 79.9797,168.759 78.5,165.5C 79.9501,164.15 80.6168,162.484 80.5,160.5C 82.2504,159.13 84.2504,158.13 86.5,157.5 Z"/></g>
<g><path style="opacity:1" fill="#6cc2d7" d="M 359.5,157.5 C 361.352,158.089 363.185,158.756 365,159.5C 365.856,161.868 366.69,164.202 367.5,166.5C 367.5,167.167 367.167,167.5 366.5,167.5C 365.566,170.656 364.899,173.989 364.5,177.5C 364.5,177.833 364.5,178.167 364.5,178.5C 364.167,178.5 363.833,178.5 363.5,178.5C 364.134,172.504 364.3,166.504 364,160.5C 361.974,160.085 360.474,159.085 359.5,157.5 Z"/></g>
<g><path style="opacity:1" fill="#59bbdb" d="M 276.5,174.5 C 271.531,173.309 268.197,174.976 266.5,179.5C 265.395,180.6 264.062,181.267 262.5,181.5C 262.548,178.708 261.215,176.875 258.5,176C 260.425,174.405 262.425,174.238 264.5,175.5C 267.415,174.565 270.082,173.232 272.5,171.5C 274.16,172.172 275.493,173.172 276.5,174.5 Z"/></g>
<g><path style="opacity:1" fill="#c3f4f9" d="M 366.5,167.5 C 366.664,170.187 366.497,172.854 366,175.5C 365.722,176.416 365.222,177.082 364.5,177.5C 364.899,173.989 365.566,170.656 366.5,167.5 Z"/></g>
<g><path style="opacity:1" fill="#a1cde0" d="M 81.5,176.5 C 82.4013,177.29 83.0679,178.29 83.5,179.5C 81.9519,179.179 81.2852,178.179 81.5,176.5 Z"/></g>
<g><path style="opacity:1" fill="#fcfdfd" d="M 283.5,182.5 C 284.52,186.277 286.686,189.277 290,191.5C 290.667,194.167 290.667,196.833 290,199.5C 288.294,200.308 287.461,201.641 287.5,203.5C 283.65,204.928 279.983,206.594 276.5,208.5C 276.818,212.689 275.152,215.855 271.5,218C 270.207,218.49 268.873,218.657 267.5,218.5C 267.043,221.406 266.043,224.072 264.5,226.5C 259.5,232.167 254.167,237.5 248.5,242.5C 246.167,242.833 244.833,244.167 244.5,246.5C 242.565,247.15 240.565,247.483 238.5,247.5C 238.6,250.108 237.933,252.442 236.5,254.5C 236.167,255.5 235.5,256.167 234.5,256.5C 232.952,256.821 232.285,257.821 232.5,259.5C 228.833,262.833 225.167,266.167 221.5,269.5C 219.738,270.262 218.738,271.596 218.5,273.5C 215.141,276.529 211.808,279.529 208.5,282.5C 205.555,283.468 202.555,283.634 199.5,283C 198.663,281.989 198.33,280.822 198.5,279.5C 197.325,279.719 196.325,279.386 195.5,278.5C 193.007,275.873 190.674,273.04 188.5,270C 186.846,269.392 185.179,268.892 183.5,268.5C 181.841,266.124 180.507,263.457 179.5,260.5C 178.264,259.754 176.93,259.421 175.5,259.5C 175.471,256.344 173.804,254.678 170.5,254.5C 167.385,250.578 164.052,246.911 160.5,243.5C 159.675,242.614 158.675,242.281 157.5,242.5C 157.143,240.411 156.477,238.411 155.5,236.5C 154.833,236.833 154.167,237.167 153.5,237.5C 152.271,234.801 152.271,232.135 153.5,229.5C 154.833,227.5 156.5,225.833 158.5,224.5C 160.283,223.886 161.616,222.72 162.5,221C 163.793,220.51 165.127,220.343 166.5,220.5C 166.5,219.5 166.5,218.5 166.5,217.5C 169.598,215.818 172.931,215.318 176.5,216C 178.037,217.11 178.703,218.61 178.5,220.5C 182.8,220.815 184.467,223.149 183.5,227.5C 187.264,228.548 190.931,229.881 194.5,231.5C 195.371,234.112 196.037,236.779 196.5,239.5C 200.598,240.801 204.598,240.635 208.5,239C 209.047,238.075 209.713,237.242 210.5,236.5C 211.833,237.833 213.167,237.833 214.5,236.5C 215.472,234.364 217.139,233.197 219.5,233C 215.918,232.405 215.584,231.071 218.5,229C 220.686,227.691 222.853,227.524 225,228.5C 225.36,226.579 226.194,224.912 227.5,223.5C 226.873,222.583 226.539,221.583 226.5,220.5C 227.167,219.5 227.833,218.5 228.5,217.5C 229.3,215.427 230.633,213.76 232.5,212.5C 235.025,210.823 237.691,209.323 240.5,208C 241.38,206.644 241.714,205.144 241.5,203.5C 242.167,203.5 242.5,203.167 242.5,202.5C 246.948,200.206 250.948,197.372 254.5,194C 257.564,191.793 259.564,188.959 260.5,185.5C 261.167,184.167 261.833,182.833 262.5,181.5C 264.062,181.267 265.395,180.6 266.5,179.5C 268.283,178.886 269.616,177.72 270.5,176C 272.473,175.505 274.473,175.338 276.5,175.5C 276.238,176.978 276.571,178.311 277.5,179.5C 278.951,181.559 280.951,182.559 283.5,182.5 Z"/></g>
<g><path style="opacity:1" fill="#dbf9fb" d="M 276.5,174.5 C 277.5,174.833 278.167,175.5 278.5,176.5C 280.156,178.46 281.823,180.46 283.5,182.5C 280.951,182.559 278.951,181.559 277.5,179.5C 276.571,178.311 276.238,176.978 276.5,175.5C 274.473,175.338 272.473,175.505 270.5,176C 269.616,177.72 268.283,178.886 266.5,179.5C 268.197,174.976 271.531,173.309 276.5,174.5 Z"/></g>
<g><path style="opacity:1" fill="#ebf8f8" d="M 80.5,160.5 C 80.6168,162.484 79.9501,164.15 78.5,165.5C 79.9797,168.759 80.9797,172.092 81.5,175.5C 81.5,175.833 81.5,176.167 81.5,176.5C 81.2852,178.179 81.9519,179.179 83.5,179.5C 83.5,179.833 83.5,180.167 83.5,180.5C 84.1667,182.5 84.8333,184.5 85.5,186.5C 83.8762,186.36 82.7096,187.027 82,188.5C 80.5126,186.015 78.6792,183.848 76.5,182C 78.8157,176.525 79.1491,170.858 77.5,165C 77.9586,163.058 78.9586,161.558 80.5,160.5 Z"/></g>
<g><path style="opacity:1" fill="#dbf7fb" d="M 363.5,178.5 C 363.833,178.5 364.167,178.5 364.5,178.5C 364.662,180.527 364.495,182.527 364,184.5C 361.559,187.386 359.393,190.386 357.5,193.5C 357.5,192.167 357.5,190.833 357.5,189.5C 359.616,186.927 360.95,183.927 361.5,180.5C 362.5,180.167 363.167,179.5 363.5,178.5 Z"/></g>
<g><path style="opacity:1" fill="#7ec4d7" d="M 278.5,176.5 C 281.08,177.735 283.413,179.401 285.5,181.5C 287.252,183.246 288.585,185.246 289.5,187.5C 287.5,185.833 285.5,184.167 283.5,182.5C 281.823,180.46 280.156,178.46 278.5,176.5 Z"/></g>
<g><path style="opacity:1" fill="#94c8df" d="M 83.5,180.5 C 84.2223,181.551 85.2223,182.218 86.5,182.5C 86.9926,184.806 87.3259,187.139 87.5,189.5C 86.8333,188.5 86.1667,187.5 85.5,186.5C 84.8333,184.5 84.1667,182.5 83.5,180.5 Z"/></g>
<g><path style="opacity:1" fill="#63bedb" d="M 361.5,180.5 C 360.95,183.927 359.616,186.927 357.5,189.5C 357.326,185.64 358.659,182.64 361.5,180.5 Z"/></g>
<g><path style="opacity:1" fill="#57bbdd" d="M 285.5,181.5 C 287.606,182.783 289.94,183.616 292.5,184C 291.692,184.308 291.025,184.808 290.5,185.5C 292.006,187.401 293.673,189.068 295.5,190.5C 297.168,192.479 297.834,194.812 297.5,197.5C 297.666,201.373 296.666,202.04 294.5,199.5C 293.833,199.5 293.167,199.5 292.5,199.5C 293.897,198.181 294.563,196.514 294.5,194.5C 293.581,191.589 291.914,189.255 289.5,187.5C 288.585,185.246 287.252,183.246 285.5,181.5 Z"/></g>
<g><path style="opacity:1" fill="#59b7db" d="M 261.5,181.5 C 261.833,181.5 262.167,181.5 262.5,181.5C 261.833,182.833 261.167,184.167 260.5,185.5C 255.182,190.076 249.848,194.743 244.5,199.5C 244.25,196.495 245.583,194.662 248.5,194C 248.167,193.667 247.833,193.333 247.5,193C 248.849,192.228 249.682,191.061 250,189.5C 252.838,188.657 254.671,186.823 255.5,184C 257.811,183.764 259.811,182.931 261.5,181.5 Z"/></g>
<g><path style="opacity:1" fill="#9acde6" d="M 88.5,189.5 C 89.3446,190.671 90.0113,192.005 90.5,193.5C 88.8235,192.817 88.1568,191.483 88.5,189.5 Z"/></g>
<g><path style="opacity:1" fill="#d6f5f9" d="M 260.5,185.5 C 259.564,188.959 257.564,191.793 254.5,194C 250.948,197.372 246.948,200.206 242.5,202.5C 243.167,201.5 243.833,200.5 244.5,199.5C 249.848,194.743 255.182,190.076 260.5,185.5 Z"/></g>
<g><path style="opacity:1" fill="#e1f9fb" d="M 283.5,182.5 C 285.5,184.167 287.5,185.833 289.5,187.5C 291.914,189.255 293.581,191.589 294.5,194.5C 294.563,196.514 293.897,198.181 292.5,199.5C 290.858,200.803 289.191,202.136 287.5,203.5C 287.461,201.641 288.294,200.308 290,199.5C 290.667,196.833 290.667,194.167 290,191.5C 286.686,189.277 284.52,186.277 283.5,182.5 Z"/></g>
<g><path style="opacity:1" fill="#dcf7fc" d="M 357.5,193.5 C 357.5,196.167 357.5,198.833 357.5,201.5C 357.831,203.322 358.498,204.989 359.5,206.5C 357.859,205.853 356.526,204.853 355.5,203.5C 354.931,199.671 355.598,196.337 357.5,193.5 Z"/></g>
<g><path style="opacity:1" fill="#eafbfd" d="M 85.5,186.5 C 86.1667,187.5 86.8333,188.5 87.5,189.5C 87.8333,189.5 88.1667,189.5 88.5,189.5C 88.1568,191.483 88.8235,192.817 90.5,193.5C 91.069,197.329 90.4023,200.663 88.5,203.5C 88.2723,197.651 87.2723,191.984 85.5,186.5 Z"/></g>
<g><path style="opacity:1" fill="#41bdee" d="M 357.5,277.5 C 360.796,280.641 362.796,284.641 363.5,289.5C 364.634,293.831 364.634,298.164 363.5,302.5C 360.607,302.031 358.607,303.031 357.5,305.5C 354.664,306.776 351.664,307.442 348.5,307.5C 346.143,307.337 343.81,307.503 341.5,308C 336.997,309.91 332.33,311.41 327.5,312.5C 327.924,309.646 328.924,306.979 330.5,304.5C 328.94,300.143 328.107,295.81 328,291.5C 326.587,296.378 324.087,300.545 320.5,304C 322.968,307.593 321.801,309.427 317,309.5C 314.992,309.693 313.492,309.026 312.5,307.5C 314.301,305.862 315.967,304.029 317.5,302C 312.338,300.856 310.671,297.856 312.5,293C 309.986,291.748 307.32,291.248 304.5,291.5C 304.714,289.856 304.38,288.356 303.5,287C 304.448,286.517 305.448,286.351 306.5,286.5C 306.5,280.5 306.5,274.5 306.5,268.5C 303.5,268.5 300.5,268.5 297.5,268.5C 297.5,265.5 297.5,262.5 297.5,259.5C 294.167,259.5 290.833,259.5 287.5,259.5C 287.5,253.167 287.5,246.833 287.5,240.5C 283.436,240.64 279.603,240.973 276,241.5C 274.108,240.383 273.275,238.716 273.5,236.5C 280.51,237.535 281.843,235.535 277.5,230.5C 274.305,232.861 271.638,235.695 269.5,239C 268.181,239.195 266.847,239.028 265.5,238.5C 262.558,237.279 261.891,235.279 263.5,232.5C 273.202,221.814 283.369,211.48 294,201.5C 294.464,200.906 294.631,200.239 294.5,199.5C 296.666,202.04 297.666,201.373 297.5,197.5C 298.117,197.389 298.617,197.056 299,196.5C 303.185,198.792 304.685,202.125 303.5,206.5C 301.857,206.52 300.524,205.853 299.5,204.5C 297.204,207.333 296.537,210.333 297.5,213.5C 299.861,213.326 302.194,212.993 304.5,212.5C 304.5,214.167 304.5,215.833 304.5,217.5C 301.167,217.5 297.833,217.5 294.5,217.5C 294.96,220.957 296.96,222.623 300.5,222.5C 300.179,226.853 302.179,229.519 306.5,230.5C 305.256,233.638 304.589,236.972 304.5,240.5C 304.833,243.5 305.167,246.5 305.5,249.5C 306.086,249.709 306.586,250.043 307,250.5C 308.364,249.304 309.864,248.304 311.5,247.5C 312.647,247.818 313.481,248.484 314,249.5C 314.333,249.167 314.667,248.833 315,248.5C 318.038,250.889 320.372,253.889 322,257.5C 323,256.167 324,256.167 325,257.5C 325.997,263.411 328.83,268.245 333.5,272C 336.146,272.497 338.813,272.664 341.5,272.5C 341.238,271.022 341.571,269.689 342.5,268.5C 343.086,268.709 343.586,269.043 344,269.5C 344.43,272.192 344.263,274.859 343.5,277.5C 340.09,277.384 338.756,279.05 339.5,282.5C 337.167,282.5 334.833,282.5 332.5,282.5C 332.5,283.833 332.5,285.167 332.5,286.5C 334.199,286.34 335.866,286.506 337.5,287C 338.04,290.617 340.04,292.784 343.5,293.5C 343.704,289.563 344.704,285.896 346.5,282.5C 348.2,282.626 349.7,283.293 351,284.5C 352.333,283.167 353.667,281.833 355,280.5C 355.772,280.645 356.439,280.978 357,281.5C 357.49,280.207 357.657,278.873 357.5,277.5 Z"/></g>
<g><path style="opacity:1" fill="#7acde7" d="M 357.5,189.5 C 357.5,190.833 357.5,192.167 357.5,193.5C 355.598,196.337 354.931,199.671 355.5,203.5C 354.189,199.317 354.189,194.984 355.5,190.5C 356.183,190.137 356.85,189.804 357.5,189.5 Z"/></g>
<g><path style="opacity:1" fill="#eefdf9" d="M 373.5,217.5 C 372.833,217.5 372.167,217.5 371.5,217.5C 368.933,214.638 365.933,212.305 362.5,210.5C 361.789,208.97 360.789,207.637 359.5,206.5C 358.498,204.989 357.831,203.322 357.5,201.5C 359.042,200.699 360.708,200.366 362.5,200.5C 361.116,207.113 363.782,210.446 370.5,210.5C 370.15,213.453 371.15,215.787 373.5,217.5 Z"/></g>
<g><path style="opacity:1" fill="#72b4d2" d="M 90.5,193.5 C 91.6453,197.311 91.8119,201.311 91,205.5C 89.1947,207.482 87.028,208.816 84.5,209.5C 85.8333,207.833 87.1667,206.167 88.5,204.5C 88.5,204.167 88.5,203.833 88.5,203.5C 90.4023,200.663 91.069,197.329 90.5,193.5 Z"/></g>
<g><path style="opacity:1" fill="#5fb2d5" d="M 244.5,199.5 C 243.833,200.5 243.167,201.5 242.5,202.5C 242.5,203.167 242.167,203.5 241.5,203.5C 238.5,206.167 235.5,208.833 232.5,211.5C 232.5,210.833 232.5,210.167 232.5,209.5C 232.782,208.222 233.449,207.222 234.5,206.5C 237.587,204.579 239.754,201.913 241,198.5C 242.011,199.337 243.178,199.67 244.5,199.5 Z"/></g>
<g><path style="opacity:1" fill="#45ace2" d="M 156.5,245.5 C 159.672,247.332 161.672,249.999 162.5,253.5C 159.772,254.205 156.939,254.872 154,255.5C 152.889,258.955 154.056,260.955 157.5,261.5C 157.5,263.833 157.5,266.167 157.5,268.5C 154.5,268.5 151.5,268.5 148.5,268.5C 148.567,263.3 147.567,258.3 145.5,253.5C 143.077,254.712 142.077,256.712 142.5,259.5C 141.5,259.5 140.5,259.5 139.5,259.5C 139.5,256.5 139.5,253.5 139.5,250.5C 136.5,250.5 133.5,250.5 130.5,250.5C 130.5,248.833 130.5,247.167 130.5,245.5C 126.233,245.797 122.066,245.464 118,244.5C 115.913,245.834 114.413,247.667 113.5,250C 109.121,248.884 107.454,250.718 108.5,255.5C 112.892,253.319 115.225,254.652 115.5,259.5C 114.5,259.5 113.5,259.5 112.5,259.5C 112.248,262.37 113.248,264.703 115.5,266.5C 119.907,268.701 124.573,269.701 129.5,269.5C 129.5,273.833 129.5,278.167 129.5,282.5C 126.833,282.5 124.167,282.5 121.5,282.5C 121.238,283.978 121.571,285.311 122.5,286.5C 124.747,287.374 127.08,287.708 129.5,287.5C 129.5,288.5 129.5,289.5 129.5,290.5C 126.749,290.528 124.415,291.528 122.5,293.5C 119.693,291.255 117.026,291.255 114.5,293.5C 115.167,294.167 115.833,294.833 116.5,295.5C 115.147,296.685 113.98,298.019 113,299.5C 110.281,298.556 107.448,298.223 104.5,298.5C 104.39,301.059 105.056,303.392 106.5,305.5C 108.661,306.035 110.661,306.868 112.5,308C 109.854,308.497 107.187,308.664 104.5,308.5C 102.5,308.5 100.5,308.5 98.5,308.5C 98.5,307.5 98.5,306.5 98.5,305.5C 96.1667,305.5 93.8333,305.5 91.5,305.5C 90.5,305.5 89.5,305.5 88.5,305.5C 86.7152,303.477 84.5486,301.811 82,300.5C 81.7208,296.83 81.8875,293.163 82.5,289.5C 83.1495,287.565 83.4828,285.565 83.5,283.5C 83.5,283.167 83.5,282.833 83.5,282.5C 86.2883,280.148 87.955,277.148 88.5,273.5C 88.5,273.167 88.5,272.833 88.5,272.5C 89.4013,271.71 90.0679,270.71 90.5,269.5C 91.3532,264.908 92.3532,260.241 93.5,255.5C 91.0108,255.702 88.6775,255.202 86.5,254C 87.2931,252.915 87.9598,251.748 88.5,250.5C 82.8061,248.297 77.4728,245.463 72.5,242C 71.5939,240.301 71.2606,238.467 71.5,236.5C 70.1667,236.5 68.8333,236.5 67.5,236.5C 67.5,233.167 67.5,229.833 67.5,226.5C 68.8734,226.657 70.2068,226.49 71.5,226C 72.3805,220.429 75.7139,217.929 81.5,218.5C 80.3473,217.313 80.3473,216.313 81.5,215.5C 83.7761,215.244 84.9428,213.91 85,211.5C 85.5194,212.516 86.3527,213.182 87.5,213.5C 90.1441,212.619 92.8108,212.786 95.5,214C 94.0267,214.71 93.3601,215.876 93.5,217.5C 95.8333,217.5 98.1667,217.5 100.5,217.5C 100.343,216.127 100.51,214.793 101,213.5C 105.071,206.543 107.238,207.21 107.5,215.5C 108.833,215.5 110.167,215.5 111.5,215.5C 111.177,219.226 111.511,222.893 112.5,226.5C 113.429,225.311 113.762,223.978 113.5,222.5C 115.833,222.5 118.167,222.5 120.5,222.5C 120.5,225.5 120.5,228.5 120.5,231.5C 127.058,231.811 133.391,231.311 139.5,230C 138.76,231.785 138.093,233.618 137.5,235.5C 139.005,236.842 139.672,238.508 139.5,240.5C 141.429,240.231 143.095,240.731 144.5,242C 143.692,244.844 144.026,247.677 145.5,250.5C 147.776,249.787 150.109,249.287 152.5,249C 153.103,246.929 154.436,245.762 156.5,245.5 Z"/></g>
<g><path style="opacity:1" fill="#daf7fa" d="M 88.5,204.5 C 87.1667,206.167 85.8333,207.833 84.5,209.5C 83.8333,209.5 83.5,209.833 83.5,210.5C 82.1667,211.5 80.8333,212.5 79.5,213.5C 79.3505,212.448 79.5172,211.448 80,210.5C 82.0559,209.417 83.3892,207.75 84,205.5C 85.3561,204.62 86.8561,204.286 88.5,204.5 Z"/></g>
<g><path style="opacity:1" fill="#c9eff8" d="M 241.5,203.5 C 241.714,205.144 241.38,206.644 240.5,208C 237.691,209.323 235.025,210.823 232.5,212.5C 232.5,212.167 232.5,211.833 232.5,211.5C 235.5,208.833 238.5,206.167 241.5,203.5 Z"/></g>
<g><path style="opacity:1" fill="#79bfd9" d="M 174.5,212.5 C 171.812,212.166 169.479,212.832 167.5,214.5C 167.5,213.5 167.5,212.5 167.5,211.5C 170.059,211.198 172.393,211.532 174.5,212.5 Z"/></g>
<g><path style="opacity:1" fill="#61c3d9" d="M 362.5,210.5 C 365.933,212.305 368.933,214.638 371.5,217.5C 371.5,217.833 371.5,218.167 371.5,218.5C 371.5,218.833 371.5,219.167 371.5,219.5C 369.989,218.498 368.322,217.831 366.5,217.5C 365.167,215.167 363.833,212.833 362.5,210.5 Z"/></g>
<g><path style="opacity:1" fill="#e2f8fb" d="M 174.5,212.5 C 175.167,212.5 175.833,212.5 176.5,212.5C 176.5,212.833 176.5,213.167 176.5,213.5C 177.861,215.527 179.527,217.194 181.5,218.5C 186.061,222.64 190.395,226.973 194.5,231.5C 190.931,229.881 187.264,228.548 183.5,227.5C 184.467,223.149 182.8,220.815 178.5,220.5C 178.703,218.61 178.037,217.11 176.5,216C 172.931,215.318 169.598,215.818 166.5,217.5C 166.5,218.5 166.5,219.5 166.5,220.5C 165.127,220.343 163.793,220.51 162.5,221C 161.616,222.72 160.283,223.886 158.5,224.5C 159.46,222.539 160.793,220.873 162.5,219.5C 164.027,219.573 165.027,218.906 165.5,217.5C 166.167,216.5 166.833,215.5 167.5,214.5C 169.479,212.832 171.812,212.166 174.5,212.5 Z"/></g>
<g><path style="opacity:1" fill="#88c0d1" d="M 79.5,213.5 C 78.1938,214.467 77.5271,215.801 77.5,217.5C 76.5,217.5 75.5,217.5 74.5,217.5C 74.5,216.833 74.5,216.167 74.5,215.5C 76.0109,214.498 77.6776,213.831 79.5,213.5 Z"/></g>
<g><path style="opacity:1" fill="#5daed4" d="M 176.5,212.5 C 175.833,212.5 175.167,212.5 174.5,212.5C 172.393,211.532 170.059,211.198 167.5,211.5C 167.5,212.5 167.5,213.5 167.5,214.5C 166.833,215.5 166.167,216.5 165.5,217.5C 163.973,217.427 162.973,218.094 162.5,219.5C 160.793,220.873 159.46,222.539 158.5,224.5C 156.5,225.833 154.833,227.5 153.5,229.5C 151.656,231.279 150.99,233.612 151.5,236.5C 150.235,235.486 149.569,233.986 149.5,232C 148.722,227.945 150.389,225.778 154.5,225.5C 156.767,220.731 160.267,217.065 165,214.5C 165.49,213.207 165.657,211.873 165.5,210.5C 169.885,209.008 174.218,209.175 178.5,211C 177.584,211.278 176.918,211.778 176.5,212.5 Z"/></g>
<g><path style="opacity:1" fill="#a8e1f1" d="M 371.5,218.5 C 371.5,218.167 371.5,217.833 371.5,217.5C 372.167,217.5 372.833,217.5 373.5,217.5C 373.833,218.5 374.5,219.167 375.5,219.5C 376.11,220.391 376.443,221.391 376.5,222.5C 374.833,221.167 373.167,219.833 371.5,218.5 Z"/></g>
<g><path style="opacity:1" fill="#a9d2e3" d="M 74.5,217.5 C 73.8333,218.833 72.8333,219.833 71.5,220.5C 71.5,218.5 72.5,217.5 74.5,217.5 Z"/></g>
<g><path style="opacity:1" fill="#b2dbf0" d="M 165.5,217.5 C 165.027,218.906 164.027,219.573 162.5,219.5C 162.973,218.094 163.973,217.427 165.5,217.5 Z"/></g>
<g><path style="opacity:1" fill="#e3f8fb" d="M 287.5,203.5 C 280.167,211.5 272.5,219.167 264.5,226.5C 266.043,224.072 267.043,221.406 267.5,218.5C 268.873,218.657 270.207,218.49 271.5,218C 275.152,215.855 276.818,212.689 276.5,208.5C 279.983,206.594 283.65,204.928 287.5,203.5 Z"/></g>
<g><path style="opacity:1" fill="#e9fafa" d="M 74.5,215.5 C 74.5,216.167 74.5,216.833 74.5,217.5C 72.5,217.5 71.5,218.5 71.5,220.5C 64.7395,223.971 62.7395,229.304 65.5,236.5C 68.2148,239.882 71.2148,242.882 74.5,245.5C 70.2094,246.18 67.5427,244.514 66.5,240.5C 65.1779,240.67 64.0113,240.337 63,239.5C 62.3333,233.833 62.3333,228.167 63,222.5C 64.7889,220.771 66.9556,220.104 69.5,220.5C 69.8333,217.5 71.5,215.833 74.5,215.5 Z"/></g>
<g><path style="opacity:1" fill="#bfeaf6" d="M 228.5,217.5 C 227.833,218.5 227.167,219.5 226.5,220.5C 225.609,221.11 224.609,221.443 223.5,221.5C 224.585,219.413 226.251,218.08 228.5,217.5 Z"/></g>
<g><path style="opacity:1" fill="#dcfbfb" d="M 375.5,219.5 C 378.388,219.22 379.888,220.553 380,223.5C 382.991,225.003 384.157,227.503 383.5,231C 383.453,233.295 382.787,235.129 381.5,236.5C 381.665,233.15 381.498,229.817 381,226.5C 379.629,224.959 378.129,223.625 376.5,222.5C 376.443,221.391 376.11,220.391 375.5,219.5 Z"/></g>
<g><path style="opacity:1" fill="#63afce" d="M 181.5,218.5 C 187.491,221.494 192.158,225.828 195.5,231.5C 195.167,231.5 194.833,231.5 194.5,231.5C 190.395,226.973 186.061,222.64 181.5,218.5 Z"/></g>
<g><path style="opacity:1" fill="#5fb3d4" d="M 232.5,211.5 C 232.5,211.833 232.5,212.167 232.5,212.5C 230.633,213.76 229.3,215.427 228.5,217.5C 226.251,218.08 224.585,219.413 223.5,221.5C 223.5,221.833 223.5,222.167 223.5,222.5C 221.251,223.08 219.585,224.413 218.5,226.5C 216.473,227.861 214.806,229.527 213.5,231.5C 213.499,227.794 215.165,225.461 218.5,224.5C 218.5,223.5 218.5,222.5 218.5,221.5C 219.978,221.762 221.311,221.429 222.5,220.5C 223.074,218.941 223.74,217.441 224.5,216C 227.383,214.729 230.05,213.229 232.5,211.5 Z"/></g>
<g><path style="opacity:1" fill="#42c3ec" d="M 371.5,218.5 C 373.167,219.833 374.833,221.167 376.5,222.5C 378.129,223.625 379.629,224.959 381,226.5C 381.498,229.817 381.665,233.15 381.5,236.5C 380.167,236.5 379.5,237.167 379.5,238.5C 376.953,239.934 374.619,241.6 372.5,243.5C 370.5,244.167 368.5,244.833 366.5,245.5C 365.873,240.859 365.54,236.193 365.5,231.5C 366.833,231.5 368.167,231.5 369.5,231.5C 369.5,230.167 369.5,228.833 369.5,227.5C 368.5,227.5 367.5,227.5 366.5,227.5C 366.185,225.774 366.019,224.107 366,222.5C 367.011,223.337 368.178,223.67 369.5,223.5C 369.881,228.088 371.047,228.422 373,224.5C 373.182,222.67 372.682,221.003 371.5,219.5C 371.5,219.167 371.5,218.833 371.5,218.5 Z"/></g>
<g><path style="opacity:1" fill="#c3e9f6" d="M 223.5,222.5 C 222.415,224.587 220.749,225.92 218.5,226.5C 219.585,224.413 221.251,223.08 223.5,222.5 Z"/></g>
<g><path style="opacity:1" fill="#eafafb" d="M 226.5,220.5 C 226.539,221.583 226.873,222.583 227.5,223.5C 226.194,224.912 225.36,226.579 225,228.5C 222.853,227.524 220.686,227.691 218.5,229C 215.584,231.071 215.918,232.405 219.5,233C 217.139,233.197 215.472,234.364 214.5,236.5C 213.167,237.833 211.833,237.833 210.5,236.5C 209.713,237.242 209.047,238.075 208.5,239C 204.598,240.635 200.598,240.801 196.5,239.5C 196.037,236.779 195.371,234.112 194.5,231.5C 194.833,231.5 195.167,231.5 195.5,231.5C 196.167,232.5 196.833,233.5 197.5,234.5C 202.064,241.014 206.398,240.68 210.5,233.5C 211.5,232.833 212.5,232.167 213.5,231.5C 214.806,229.527 216.473,227.861 218.5,226.5C 220.749,225.92 222.415,224.587 223.5,222.5C 223.5,222.167 223.5,221.833 223.5,221.5C 224.609,221.443 225.609,221.11 226.5,220.5 Z"/></g>
<g><path style="opacity:1" fill="#d7f3f7" d="M 153.5,229.5 C 152.271,232.135 152.271,234.801 153.5,237.5C 154.167,237.167 154.833,236.833 155.5,236.5C 156.477,238.411 157.143,240.411 157.5,242.5C 156.167,241.833 154.833,241.167 153.5,240.5C 152.833,239.167 152.167,237.833 151.5,236.5C 150.99,233.612 151.656,231.279 153.5,229.5 Z"/></g>
<g><path style="opacity:1" fill="#64b0cb" d="M 210.5,233.5 C 206.398,240.68 202.064,241.014 197.5,234.5C 199.607,235.3 201.774,235.967 204,236.5C 205.842,234.84 208.009,233.84 210.5,233.5 Z"/></g>
<g><path style="opacity:1" fill="#5caccf" d="M 83.5,210.5 C 83.6085,212.514 82.9418,214.18 81.5,215.5C 80.3473,216.313 80.3473,217.313 81.5,218.5C 75.7139,217.929 72.3805,220.429 71.5,226C 70.2068,226.49 68.8734,226.657 67.5,226.5C 67.5,229.833 67.5,233.167 67.5,236.5C 68.8333,236.5 70.1667,236.5 71.5,236.5C 71.2606,238.467 71.5939,240.301 72.5,242C 77.4728,245.463 82.8061,248.297 88.5,250.5C 87.9598,251.748 87.2931,252.915 86.5,254C 88.6775,255.202 91.0108,255.702 93.5,255.5C 92.3532,260.241 91.3532,264.908 90.5,269.5C 90.665,266.15 90.4983,262.817 90,259.5C 89.6174,258.944 89.1174,258.611 88.5,258.5C 87.5,257.167 86.5,255.833 85.5,254.5C 84.5,252.833 83.1667,251.5 81.5,250.5C 80.8333,250.167 80.1667,249.833 79.5,249.5C 77.8577,248.197 76.1911,246.864 74.5,245.5C 71.2148,242.882 68.2148,239.882 65.5,236.5C 62.7395,229.304 64.7395,223.971 71.5,220.5C 72.8333,219.833 73.8333,218.833 74.5,217.5C 75.5,217.5 76.5,217.5 77.5,217.5C 77.5271,215.801 78.1938,214.467 79.5,213.5C 80.8333,212.5 82.1667,211.5 83.5,210.5 Z"/></g>
<g><path style="opacity:1" fill="#3e8fb4" d="M 292.5,199.5 C 293.167,199.5 293.833,199.5 294.5,199.5C 294.631,200.239 294.464,200.906 294,201.5C 283.369,211.48 273.202,221.814 263.5,232.5C 262.761,232.369 262.094,232.536 261.5,233C 250.257,244.715 238.924,256.215 227.5,267.5C 225.457,268.579 224.124,270.246 223.5,272.5C 222.761,272.369 222.094,272.536 221.5,273C 217.606,277.72 213.606,282.22 209.5,286.5C 206.567,288.583 203.4,288.916 200,287.5C 198.97,287.164 198.47,286.497 198.5,285.5C 201.572,285.817 204.572,285.484 207.5,284.5C 207.863,283.817 208.196,283.15 208.5,282.5C 211.808,279.529 215.141,276.529 218.5,273.5C 220.262,272.738 221.262,271.404 221.5,269.5C 225.167,266.167 228.833,262.833 232.5,259.5C 233.401,258.71 234.068,257.71 234.5,256.5C 235.5,256.167 236.167,255.5 236.5,254.5C 239.599,252.34 242.265,249.673 244.5,246.5C 246.5,245.833 247.833,244.5 248.5,242.5C 254.167,237.5 259.5,232.167 264.5,226.5C 272.5,219.167 280.167,211.5 287.5,203.5C 289.191,202.136 290.858,200.803 292.5,199.5 Z"/></g>
<g><path style="opacity:1" fill="#44b7ea" d="M 263.5,232.5 C 261.891,235.279 262.558,237.279 265.5,238.5C 264.227,239.077 264.227,239.743 265.5,240.5C 266.478,240.977 267.311,241.643 268,242.5C 268.333,242.167 268.667,241.833 269,241.5C 269.497,244.146 269.664,246.813 269.5,249.5C 270.873,249.343 272.207,249.51 273.5,250C 274.102,252.036 275.102,253.87 276.5,255.5C 272.39,258.465 273.057,259.799 278.5,259.5C 278.5,262.5 278.5,265.5 278.5,268.5C 280.167,268.5 281.833,268.5 283.5,268.5C 283.855,273.849 284.022,279.182 284,284.5C 278.937,288.853 279.603,291.853 286,293.5C 290.286,293.185 291.119,291.519 288.5,288.5C 290.978,287.278 291.978,285.278 291.5,282.5C 290.5,282.5 289.5,282.5 288.5,282.5C 288.5,280.833 288.5,279.167 288.5,277.5C 290.833,277.5 293.167,277.5 295.5,277.5C 297.311,283.604 297.978,289.938 297.5,296.5C 298.833,296.5 300.167,296.5 301.5,296.5C 301.5,299.5 301.5,302.5 301.5,305.5C 303.167,305.5 304.833,305.5 306.5,305.5C 306.5,306.5 306.5,307.5 306.5,308.5C 308.621,308.675 310.621,308.341 312.5,307.5C 313.492,309.026 314.992,309.693 317,309.5C 321.801,309.427 322.968,307.593 320.5,304C 324.087,300.545 326.587,296.378 328,291.5C 328.107,295.81 328.94,300.143 330.5,304.5C 328.924,306.979 327.924,309.646 327.5,312.5C 323.247,312.566 322.58,314.066 325.5,317C 324.552,317.483 323.552,317.649 322.5,317.5C 322.759,328.836 323.093,340.169 323.5,351.5C 323.5,351.833 323.5,352.167 323.5,352.5C 322.711,352.783 322.044,353.283 321.5,354C 315.5,354.667 309.5,354.667 303.5,354C 300.043,352.257 296.377,351.257 292.5,351C 293.167,350.667 293.833,350.333 294.5,350C 294.07,349.08 293.736,348.247 293.5,347.5C 291.271,348.577 288.937,349.244 286.5,349.5C 284.175,347.564 281.508,346.23 278.5,345.5C 278.5,341.5 278.5,337.5 278.5,333.5C 275.5,333.5 272.5,333.5 269.5,333.5C 269.5,330.5 269.5,327.5 269.5,324.5C 267.833,324.5 266.167,324.5 264.5,324.5C 264.5,321.5 264.5,318.5 264.5,315.5C 261.5,315.5 258.5,315.5 255.5,315.5C 255.5,309.167 255.5,302.833 255.5,296.5C 253.833,296.5 252.167,296.5 250.5,296.5C 250.5,293.5 250.5,290.5 250.5,287.5C 248.833,287.5 247.167,287.5 245.5,287.5C 245.666,292.511 245.499,297.511 245,302.5C 242.869,291.863 240.869,281.196 239,270.5C 237.933,269.809 236.766,269.309 235.5,269C 238.259,266.516 237.926,265.35 234.5,265.5C 234.548,268.292 233.215,270.125 230.5,271C 232.25,272.754 232.917,274.921 232.5,277.5C 230.833,277.5 229.167,277.5 227.5,277.5C 226.481,274.128 226.481,270.794 227.5,267.5C 238.924,256.215 250.257,244.715 261.5,233C 262.094,232.536 262.761,232.369 263.5,232.5 Z"/></g>
<g><path style="opacity:1" fill="#44baed" d="M 312.5,307.5 C 310.621,308.341 308.621,308.675 306.5,308.5C 306.5,307.5 306.5,306.5 306.5,305.5C 304.833,305.5 303.167,305.5 301.5,305.5C 301.5,302.5 301.5,299.5 301.5,296.5C 300.167,296.5 298.833,296.5 297.5,296.5C 297.978,289.938 297.311,283.604 295.5,277.5C 293.167,277.5 290.833,277.5 288.5,277.5C 288.5,279.167 288.5,280.833 288.5,282.5C 289.5,282.5 290.5,282.5 291.5,282.5C 291.978,285.278 290.978,287.278 288.5,288.5C 291.119,291.519 290.286,293.185 286,293.5C 279.603,291.853 278.937,288.853 284,284.5C 284.022,279.182 283.855,273.849 283.5,268.5C 281.833,268.5 280.167,268.5 278.5,268.5C 278.5,265.5 278.5,262.5 278.5,259.5C 273.057,259.799 272.39,258.465 276.5,255.5C 275.102,253.87 274.102,252.036 273.5,250C 272.207,249.51 270.873,249.343 269.5,249.5C 269.664,246.813 269.497,244.146 269,241.5C 268.667,241.833 268.333,242.167 268,242.5C 267.311,241.643 266.478,240.977 265.5,240.5C 264.227,239.743 264.227,239.077 265.5,238.5C 266.847,239.028 268.181,239.195 269.5,239C 271.638,235.695 274.305,232.861 277.5,230.5C 281.843,235.535 280.51,237.535 273.5,236.5C 273.275,238.716 274.108,240.383 276,241.5C 279.603,240.973 283.436,240.64 287.5,240.5C 287.5,246.833 287.5,253.167 287.5,259.5C 290.833,259.5 294.167,259.5 297.5,259.5C 297.5,262.5 297.5,265.5 297.5,268.5C 300.5,268.5 303.5,268.5 306.5,268.5C 306.5,274.5 306.5,280.5 306.5,286.5C 305.448,286.351 304.448,286.517 303.5,287C 304.38,288.356 304.714,289.856 304.5,291.5C 307.32,291.248 309.986,291.748 312.5,293C 310.671,297.856 312.338,300.856 317.5,302C 315.967,304.029 314.301,305.862 312.5,307.5 Z"/></g>
<g><path style="opacity:1" fill="#c3f1f8" d="M 379.5,238.5 C 377.824,241.543 375.491,243.877 372.5,245.5C 372.5,244.833 372.5,244.167 372.5,243.5C 374.619,241.6 376.953,239.934 379.5,238.5 Z"/></g>
<g><path style="opacity:1" fill="#cff6fc" d="M 248.5,242.5 C 247.833,244.5 246.5,245.833 244.5,246.5C 244.833,244.167 246.167,242.833 248.5,242.5 Z"/></g>
<g><path style="opacity:1" fill="#51bcd5" d="M 372.5,243.5 C 372.5,244.167 372.5,244.833 372.5,245.5C 372.167,245.5 371.833,245.5 371.5,245.5C 369.363,247.171 367.363,248.838 365.5,250.5C 364.391,250.557 363.391,250.89 362.5,251.5C 363.833,249.5 365.167,247.5 366.5,245.5C 368.5,244.833 370.5,244.167 372.5,243.5 Z"/></g>
<g><path style="opacity:1" fill="#afd9e4" d="M 74.5,245.5 C 76.1911,246.864 77.8577,248.197 79.5,249.5C 76.6333,249.631 74.9666,248.297 74.5,245.5 Z"/></g>
<g><path style="opacity:1" fill="#e0f5fb" d="M 244.5,246.5 C 242.265,249.673 239.599,252.34 236.5,254.5C 237.933,252.442 238.6,250.108 238.5,247.5C 240.565,247.483 242.565,247.15 244.5,246.5 Z"/></g>
<g><path style="opacity:1" fill="#aae7f0" d="M 371.5,245.5 C 371.267,247.062 370.6,248.395 369.5,249.5C 368.041,249.433 366.708,249.766 365.5,250.5C 367.363,248.838 369.363,247.171 371.5,245.5 Z"/></g>
<g><path style="opacity:1" fill="#9bd0df" d="M 81.5,250.5 C 83.1667,251.5 84.5,252.833 85.5,254.5C 83.1667,254.167 81.8333,252.833 81.5,250.5 Z"/></g>
<g><path style="opacity:1" fill="#99dee8" d="M 365.5,250.5 C 365.027,251.906 364.027,252.573 362.5,252.5C 362.5,252.167 362.5,251.833 362.5,251.5C 363.391,250.89 364.391,250.557 365.5,250.5 Z"/></g>
<g><path style="opacity:1" fill="#46b0e3" d="M 162.5,253.5 C 169.436,257.106 175.103,262.106 179.5,268.5C 179.027,271.833 180.36,274 183.5,275C 179.728,275.611 179.728,276.611 183.5,278C 182.069,278.465 180.903,279.299 180,280.5C 176.329,277.804 172.162,276.804 167.5,277.5C 167.5,276.167 167.5,274.833 167.5,273.5C 166.5,273.5 165.5,273.5 164.5,273.5C 164.5,271.833 164.5,270.167 164.5,268.5C 162.167,268.5 159.833,268.5 157.5,268.5C 157.5,266.167 157.5,263.833 157.5,261.5C 154.056,260.955 152.889,258.955 154,255.5C 156.939,254.872 159.772,254.205 162.5,253.5 Z"/></g>
<g><path style="opacity:1" fill="#5199be" d="M 153.5,240.5 C 154.833,241.167 156.167,241.833 157.5,242.5C 165.446,251.779 174.112,260.446 183.5,268.5C 184.11,269.391 184.443,270.391 184.5,271.5C 182.646,270.759 180.979,269.759 179.5,268.5C 175.103,262.106 169.436,257.106 162.5,253.5C 161.672,249.999 159.672,247.332 156.5,245.5C 155.075,244.078 154.075,242.411 153.5,240.5 Z"/></g>
<g><path style="opacity:1" fill="#61bede" d="M 362.5,252.5 C 360.833,254.5 359.167,256.5 357.5,258.5C 356.833,258.833 356.167,259.167 355.5,259.5C 355.5,258.167 355.5,256.833 355.5,255.5C 357.942,255.881 358.609,255.214 357.5,253.5C 359.045,252.548 360.712,252.215 362.5,252.5 Z"/></g>
<g><path style="opacity:1" fill="#bfe9f6" d="M 234.5,256.5 C 234.068,257.71 233.401,258.71 232.5,259.5C 232.285,257.821 232.952,256.821 234.5,256.5 Z"/></g>
<g><path style="opacity:1" fill="#dbf9fc" d="M 369.5,249.5 C 365.905,252.972 361.905,255.972 357.5,258.5C 359.167,256.5 360.833,254.5 362.5,252.5C 364.027,252.573 365.027,251.906 365.5,250.5C 366.708,249.766 368.041,249.433 369.5,249.5 Z"/></g>
<g><path style="opacity:1" fill="#e2f6fa" d="M 157.5,242.5 C 158.675,242.281 159.675,242.614 160.5,243.5C 164.052,246.911 167.385,250.578 170.5,254.5C 173.804,254.678 175.471,256.344 175.5,259.5C 176.93,259.421 178.264,259.754 179.5,260.5C 180.507,263.457 181.841,266.124 183.5,268.5C 174.112,260.446 165.446,251.779 157.5,242.5 Z"/></g>
<g><path style="opacity:1" fill="#caecf7" d="M 88.5,258.5 C 89.1174,258.611 89.6174,258.944 90,259.5C 90.4983,262.817 90.665,266.15 90.5,269.5C 90.0679,270.71 89.4013,271.71 88.5,272.5C 89.7624,267.819 89.7624,263.152 88.5,258.5 Z"/></g>
<g><path style="opacity:1" fill="#cdf8fc" d="M 357.5,258.5 C 356.167,262.5 356.167,266.5 357.5,270.5C 356.883,270.389 356.383,270.056 356,269.5C 355.502,266.183 355.335,262.85 355.5,259.5C 356.167,259.167 356.833,258.833 357.5,258.5 Z"/></g>
<g><path style="opacity:1" fill="#45ace2" d="M 157.5,268.5 C 159.833,268.5 162.167,268.5 164.5,268.5C 164.5,270.167 164.5,271.833 164.5,273.5C 165.5,273.5 166.5,273.5 167.5,273.5C 167.5,274.833 167.5,276.167 167.5,277.5C 172.162,276.804 176.329,277.804 180,280.5C 180.903,279.299 182.069,278.465 183.5,278C 179.728,276.611 179.728,275.611 183.5,275C 180.36,274 179.027,271.833 179.5,268.5C 180.979,269.759 182.646,270.759 184.5,271.5C 184.833,271.5 185.167,271.5 185.5,271.5C 185.238,272.978 185.571,274.311 186.5,275.5C 190.106,279.474 194.106,282.808 198.5,285.5C 198.47,286.497 198.97,287.164 200,287.5C 203.4,288.916 206.567,288.583 209.5,286.5C 212.837,288.452 214.171,291.452 213.5,295.5C 211.61,295.297 210.11,295.963 209,297.5C 208.503,300.146 208.336,302.813 208.5,305.5C 205.513,304.742 202.513,303.909 199.5,303C 196.271,299.669 194.604,300.502 194.5,305.5C 196.167,305.5 197.833,305.5 199.5,305.5C 199.5,308.833 199.5,312.167 199.5,315.5C 201.167,315.5 202.833,315.5 204.5,315.5C 204.5,322.5 204.5,329.5 204.5,336.5C 200.932,336.759 199.599,338.759 200.5,342.5C 203.91,342.384 205.244,344.05 204.5,347.5C 207.5,347.5 210.5,347.5 213.5,347.5C 213.166,353.331 210.166,356.831 204.5,358C 200.323,361.867 201.156,364.367 207,365.5C 209.12,364.541 211.287,364.374 213.5,365C 212.748,365.671 212.414,366.504 212.5,367.5C 209.77,368.511 209.103,370.178 210.5,372.5C 204.054,375.561 198.054,379.394 192.5,384C 190.167,384.667 187.833,384.667 185.5,384C 183.973,381.31 181.973,379.143 179.5,377.5C 178.987,374.551 178.987,371.718 179.5,369C 176.692,367.684 174.359,365.85 172.5,363.5C 172.5,362.167 172.5,360.833 172.5,359.5C 171.496,357.508 170.83,355.341 170.5,353C 171.662,349.542 172.162,346.042 172,342.5C 171.667,341.833 171.333,341.167 171,340.5C 169.798,342.677 169.298,345.011 169.5,347.5C 165.987,347.307 162.654,347.974 159.5,349.5C 155.467,348.932 151.467,347.599 147.5,345.5C 148.272,341.548 148.605,337.548 148.5,333.5C 150.833,333.5 153.167,333.5 155.5,333.5C 155.5,331.167 155.5,328.833 155.5,326.5C 152.436,326.072 149.436,325.406 146.5,324.5C 146.5,319.5 146.5,314.5 146.5,309.5C 153.104,307.913 159.771,306.579 166.5,305.5C 166.5,304.167 166.5,302.833 166.5,301.5C 167.5,301.5 168.5,301.5 169.5,301.5C 169.64,298.267 168.473,295.601 166,293.5C 161.095,295.714 155.929,296.714 150.5,296.5C 150.817,293.428 150.484,290.428 149.5,287.5C 148.672,286.585 147.672,285.919 146.5,285.5C 143.371,286.956 141.371,289.289 140.5,292.5C 139.5,292.5 138.5,292.5 137.5,292.5C 137.5,293.833 137.5,295.167 137.5,296.5C 135.167,296.5 132.833,296.5 130.5,296.5C 130.5,299.5 130.5,302.5 130.5,305.5C 127.15,305.335 123.817,305.502 120.5,306C 119.747,307.487 118.914,307.654 118,306.5C 117.652,309.342 116.152,311.009 113.5,311.5C 112.833,311.5 112.167,311.5 111.5,311.5C 108.612,312.01 106.279,311.344 104.5,309.5C 104.5,309.167 104.5,308.833 104.5,308.5C 107.187,308.664 109.854,308.497 112.5,308C 110.661,306.868 108.661,306.035 106.5,305.5C 105.056,303.392 104.39,301.059 104.5,298.5C 107.448,298.223 110.281,298.556 113,299.5C 113.98,298.019 115.147,296.685 116.5,295.5C 115.833,294.833 115.167,294.167 114.5,293.5C 117.026,291.255 119.693,291.255 122.5,293.5C 124.415,291.528 126.749,290.528 129.5,290.5C 129.5,289.5 129.5,288.5 129.5,287.5C 127.08,287.708 124.747,287.374 122.5,286.5C 121.571,285.311 121.238,283.978 121.5,282.5C 124.167,282.5 126.833,282.5 129.5,282.5C 129.5,278.167 129.5,273.833 129.5,269.5C 124.573,269.701 119.907,268.701 115.5,266.5C 113.248,264.703 112.248,262.37 112.5,259.5C 113.5,259.5 114.5,259.5 115.5,259.5C 115.225,254.652 112.892,253.319 108.5,255.5C 107.454,250.718 109.121,248.884 113.5,250C 114.413,247.667 115.913,245.834 118,244.5C 122.066,245.464 126.233,245.797 130.5,245.5C 130.5,247.167 130.5,248.833 130.5,250.5C 133.5,250.5 136.5,250.5 139.5,250.5C 139.5,253.5 139.5,256.5 139.5,259.5C 140.5,259.5 141.5,259.5 142.5,259.5C 142.077,256.712 143.077,254.712 145.5,253.5C 147.567,258.3 148.567,263.3 148.5,268.5C 151.5,268.5 154.5,268.5 157.5,268.5 Z"/></g>
<g><path style="opacity:1" fill="#97cce2" d="M 221.5,269.5 C 221.262,271.404 220.262,272.738 218.5,273.5C 218.738,271.596 219.738,270.262 221.5,269.5 Z"/></g>
<g><path style="opacity:1" fill="#cef5fa" d="M 357.5,270.5 C 359.913,271.68 360.913,273.68 360.5,276.5C 358.386,275.216 357.386,273.216 357.5,270.5 Z"/></g>
<g><path style="opacity:1" fill="#daf4f9" d="M 183.5,268.5 C 185.179,268.892 186.846,269.392 188.5,270C 190.674,273.04 193.007,275.873 195.5,278.5C 196.325,279.386 197.325,279.719 198.5,279.5C 198.33,280.822 198.663,281.989 199.5,283C 202.555,283.634 205.555,283.468 208.5,282.5C 208.196,283.15 207.863,283.817 207.5,284.5C 204.572,285.484 201.572,285.817 198.5,285.5C 194.584,280.579 190.251,275.912 185.5,271.5C 185.167,271.5 184.833,271.5 184.5,271.5C 184.443,270.391 184.11,269.391 183.5,268.5 Z"/></g>
<g><path style="opacity:1" fill="#d2f2f8" d="M 87.5,273.5 C 86.9708,275.784 85.9708,277.784 84.5,279.5C 84.0311,276.607 85.0311,274.607 87.5,273.5 Z"/></g>
<g><path style="opacity:1" fill="#77b2c9" d="M 87.5,273.5 C 87.8333,273.5 88.1667,273.5 88.5,273.5C 87.955,277.148 86.2883,280.148 83.5,282.5C 83.5,281.5 83.5,280.5 83.5,279.5C 83.8333,279.5 84.1667,279.5 84.5,279.5C 85.9708,277.784 86.9708,275.784 87.5,273.5 Z"/></g>
<g><path style="opacity:1" fill="#5299bc" d="M 185.5,271.5 C 190.251,275.912 194.584,280.579 198.5,285.5C 194.106,282.808 190.106,279.474 186.5,275.5C 185.571,274.311 185.238,272.978 185.5,271.5 Z"/></g>
<g><path style="opacity:1" fill="#e4fbfc" d="M 83.5,279.5 C 83.5,280.5 83.5,281.5 83.5,282.5C 83.5,282.833 83.5,283.167 83.5,283.5C 81.9724,284.802 80.9724,286.469 80.5,288.5C 80.3359,285.813 80.5026,283.146 81,280.5C 81.6708,279.748 82.5041,279.414 83.5,279.5 Z"/></g>
<g><path style="opacity:1" fill="#47b1e5" d="M 223.5,272.5 C 222.278,274.286 221.611,276.286 221.5,278.5C 222.182,279.817 222.849,281.15 223.5,282.5C 229.611,281.937 233.611,284.604 235.5,290.5C 237.289,292.033 239.289,293.033 241.5,293.5C 241.52,295.143 240.853,296.476 239.5,297.5C 241.433,306.303 242.1,315.303 241.5,324.5C 244.466,324.11 247.132,324.777 249.5,326.5C 250.495,331.792 250.828,337.125 250.5,342.5C 253.079,342.083 255.246,342.75 257,344.5C 258.402,342.027 259.902,342.027 261.5,344.5C 263.399,342.419 264.232,343.086 264,346.5C 263.261,347.574 262.261,348.241 261,348.5C 259.7,347.548 258.533,347.548 257.5,348.5C 259.073,349.66 260.739,350.66 262.5,351.5C 264.087,350.638 265.754,349.971 267.5,349.5C 270.056,350.524 272.723,351.358 275.5,352C 275.167,352.333 274.833,352.667 274.5,353C 275.823,353.816 276.489,354.983 276.5,356.5C 274.408,358.515 272.574,360.848 271,363.5C 270.667,363.167 270.333,362.833 270,362.5C 269.503,365.146 269.336,367.813 269.5,370.5C 269.5,371.5 269.5,372.5 269.5,373.5C 266.932,375.027 265.599,377.361 265.5,380.5C 265.167,380.5 264.833,380.5 264.5,380.5C 262.804,380.685 261.471,381.519 260.5,383C 257.833,383.667 255.167,383.667 252.5,383C 249.02,380.354 245.686,377.521 242.5,374.5C 241.833,375.167 241.167,375.833 240.5,376.5C 239.395,374.389 237.729,373.055 235.5,372.5C 234.5,371.833 233.5,371.167 232.5,370.5C 231.525,368.807 230.192,367.307 228.5,366C 222.92,365.004 217.587,365.504 212.5,367.5C 212.414,366.504 212.748,365.671 213.5,365C 211.287,364.374 209.12,364.541 207,365.5C 201.156,364.367 200.323,361.867 204.5,358C 210.166,356.831 213.166,353.331 213.5,347.5C 210.5,347.5 207.5,347.5 204.5,347.5C 205.244,344.05 203.91,342.384 200.5,342.5C 199.599,338.759 200.932,336.759 204.5,336.5C 204.5,329.5 204.5,322.5 204.5,315.5C 202.833,315.5 201.167,315.5 199.5,315.5C 199.5,312.167 199.5,308.833 199.5,305.5C 197.833,305.5 196.167,305.5 194.5,305.5C 194.604,300.502 196.271,299.669 199.5,303C 202.513,303.909 205.513,304.742 208.5,305.5C 208.336,302.813 208.503,300.146 209,297.5C 210.11,295.963 211.61,295.297 213.5,295.5C 214.171,291.452 212.837,288.452 209.5,286.5C 213.606,282.22 217.606,277.72 221.5,273C 222.094,272.536 222.761,272.369 223.5,272.5 Z"/></g>
<g><path style="opacity:1" fill="#e2fbfd" d="M 360.5,276.5 C 365.028,279.167 366.695,283.167 365.5,288.5C 363.693,284.607 362.026,280.607 360.5,276.5 Z"/></g>
<g><path style="opacity:1" fill="#7bb4c8" d="M 83.5,283.5 C 83.4828,285.565 83.1495,287.565 82.5,289.5C 81.8333,290.833 81.1667,292.167 80.5,293.5C 80.5,291.833 80.5,290.167 80.5,288.5C 80.9724,286.469 81.9724,284.802 83.5,283.5 Z"/></g>
<g><path style="opacity:1" fill="#e1fafc" d="M 365.5,288.5 C 369.403,291.554 370.403,295.554 368.5,300.5C 365.452,305.207 361.119,307.874 355.5,308.5C 356.802,306.972 358.469,305.972 360.5,305.5C 364.162,304.162 366.495,301.495 367.5,297.5C 365.936,294.694 365.27,291.694 365.5,288.5 Z"/></g>
<g><path style="opacity:1" fill="#43b4e7" d="M 286.5,349.5 C 282.209,348.82 279.543,350.486 278.5,354.5C 278.5,355.167 278.5,355.833 278.5,356.5C 277.833,356.5 277.167,356.5 276.5,356.5C 276.489,354.983 275.823,353.816 274.5,353C 274.833,352.667 275.167,352.333 275.5,352C 272.723,351.358 270.056,350.524 267.5,349.5C 265.754,349.971 264.087,350.638 262.5,351.5C 260.739,350.66 259.073,349.66 257.5,348.5C 258.533,347.548 259.7,347.548 261,348.5C 262.261,348.241 263.261,347.574 264,346.5C 264.232,343.086 263.399,342.419 261.5,344.5C 259.902,342.027 258.402,342.027 257,344.5C 255.246,342.75 253.079,342.083 250.5,342.5C 250.828,337.125 250.495,331.792 249.5,326.5C 247.132,324.777 244.466,324.11 241.5,324.5C 242.1,315.303 241.433,306.303 239.5,297.5C 240.853,296.476 241.52,295.143 241.5,293.5C 239.289,293.033 237.289,292.033 235.5,290.5C 233.611,284.604 229.611,281.937 223.5,282.5C 222.849,281.15 222.182,279.817 221.5,278.5C 221.611,276.286 222.278,274.286 223.5,272.5C 224.124,270.246 225.457,268.579 227.5,267.5C 226.481,270.794 226.481,274.128 227.5,277.5C 229.167,277.5 230.833,277.5 232.5,277.5C 232.917,274.921 232.25,272.754 230.5,271C 233.215,270.125 234.548,268.292 234.5,265.5C 237.926,265.35 238.259,266.516 235.5,269C 236.766,269.309 237.933,269.809 239,270.5C 240.869,281.196 242.869,291.863 245,302.5C 245.499,297.511 245.666,292.511 245.5,287.5C 247.167,287.5 248.833,287.5 250.5,287.5C 250.5,290.5 250.5,293.5 250.5,296.5C 252.167,296.5 253.833,296.5 255.5,296.5C 255.5,302.833 255.5,309.167 255.5,315.5C 258.5,315.5 261.5,315.5 264.5,315.5C 264.5,318.5 264.5,321.5 264.5,324.5C 266.167,324.5 267.833,324.5 269.5,324.5C 269.5,327.5 269.5,330.5 269.5,333.5C 272.5,333.5 275.5,333.5 278.5,333.5C 278.5,337.5 278.5,341.5 278.5,345.5C 281.508,346.23 284.175,347.564 286.5,349.5 Z"/></g>
<g><path style="opacity:1" fill="#6cbcd8" d="M 355.5,259.5 C 355.335,262.85 355.502,266.183 356,269.5C 356.383,270.056 356.883,270.389 357.5,270.5C 357.386,273.216 358.386,275.216 360.5,276.5C 362.026,280.607 363.693,284.607 365.5,288.5C 365.27,291.694 365.936,294.694 367.5,297.5C 366.495,301.495 364.162,304.162 360.5,305.5C 359.5,305.5 358.5,305.5 357.5,305.5C 358.607,303.031 360.607,302.031 363.5,302.5C 364.634,298.164 364.634,293.831 363.5,289.5C 362.796,284.641 360.796,280.641 357.5,277.5C 355.397,273.57 354.063,269.403 353.5,265C 353.547,262.705 354.213,260.871 355.5,259.5 Z"/></g>
<g><path style="opacity:1" fill="#6ea8c7" d="M 82.5,289.5 C 81.8875,293.163 81.7208,296.83 82,300.5C 84.5486,301.811 86.7152,303.477 88.5,305.5C 87.5,305.5 86.5,305.5 85.5,305.5C 79.127,303.37 77.4603,299.37 80.5,293.5C 81.1667,292.167 81.8333,290.833 82.5,289.5 Z"/></g>
<g><path style="opacity:1" fill="#e8fafb" d="M 80.5,288.5 C 80.5,290.167 80.5,291.833 80.5,293.5C 77.4603,299.37 79.127,303.37 85.5,305.5C 87.5313,305.972 89.1979,306.972 90.5,308.5C 84.3758,309.769 79.7091,307.769 76.5,302.5C 77.2878,298.704 77.9544,294.871 78.5,291C 78.6842,289.624 79.3509,288.791 80.5,288.5 Z"/></g>
<g><path style="opacity:1" fill="#5fa8c6" d="M 91.5,305.5 C 93.8333,305.5 96.1667,305.5 98.5,305.5C 98.5,306.5 98.5,307.5 98.5,308.5C 100.5,308.5 102.5,308.5 104.5,308.5C 104.5,308.833 104.5,309.167 104.5,309.5C 101.941,309.802 99.6074,309.468 97.5,308.5C 95.1561,308.06 93.1561,307.06 91.5,305.5 Z"/></g>
<g><path style="opacity:1" fill="#9dccdd" d="M 85.5,305.5 C 86.5,305.5 87.5,305.5 88.5,305.5C 89.5,305.5 90.5,305.5 91.5,305.5C 93.1561,307.06 95.1561,308.06 97.5,308.5C 95.1667,308.5 92.8333,308.5 90.5,308.5C 89.1979,306.972 87.5313,305.972 85.5,305.5 Z"/></g>
<g><path style="opacity:1" fill="#9ed5ea" d="M 357.5,305.5 C 358.5,305.5 359.5,305.5 360.5,305.5C 358.469,305.972 356.802,306.972 355.5,308.5C 353.167,308.5 350.833,308.5 348.5,308.5C 348.5,308.167 348.5,307.833 348.5,307.5C 351.664,307.442 354.664,306.776 357.5,305.5 Z"/></g>
<g><path style="opacity:1" fill="#e7f8fa" d="M 90.5,308.5 C 92.8333,308.5 95.1667,308.5 97.5,308.5C 99.6074,309.468 101.941,309.802 104.5,309.5C 106.279,311.344 108.612,312.01 111.5,311.5C 111.5,311.833 111.5,312.167 111.5,312.5C 103.847,313.477 96.8474,312.144 90.5,308.5 Z"/></g>
<g><path style="opacity:1" fill="#45a9df" d="M 172.5,359.5 C 169.379,358.264 168.045,355.931 168.5,352.5C 165.833,352.5 163.167,352.5 160.5,352.5C 160.158,351.662 159.492,351.328 158.5,351.5C 147.324,353.735 135.991,354.735 124.5,354.5C 124.167,352.5 123.833,350.5 123.5,348.5C 123.832,339.143 123.498,329.81 122.5,320.5C 120.465,318.062 118.799,315.395 117.5,312.5C 116.311,311.571 114.978,311.238 113.5,311.5C 116.152,311.009 117.652,309.342 118,306.5C 118.914,307.654 119.747,307.487 120.5,306C 123.817,305.502 127.15,305.335 130.5,305.5C 130.5,302.5 130.5,299.5 130.5,296.5C 132.833,296.5 135.167,296.5 137.5,296.5C 137.5,295.167 137.5,293.833 137.5,292.5C 138.5,292.5 139.5,292.5 140.5,292.5C 141.371,289.289 143.371,286.956 146.5,285.5C 147.672,285.919 148.672,286.585 149.5,287.5C 150.484,290.428 150.817,293.428 150.5,296.5C 155.929,296.714 161.095,295.714 166,293.5C 168.473,295.601 169.64,298.267 169.5,301.5C 168.5,301.5 167.5,301.5 166.5,301.5C 166.5,302.833 166.5,304.167 166.5,305.5C 159.771,306.579 153.104,307.913 146.5,309.5C 146.5,314.5 146.5,319.5 146.5,324.5C 149.436,325.406 152.436,326.072 155.5,326.5C 155.5,328.833 155.5,331.167 155.5,333.5C 153.167,333.5 150.833,333.5 148.5,333.5C 148.605,337.548 148.272,341.548 147.5,345.5C 151.467,347.599 155.467,348.932 159.5,349.5C 162.654,347.974 165.987,347.307 169.5,347.5C 169.298,345.011 169.798,342.677 171,340.5C 171.333,341.167 171.667,341.833 172,342.5C 172.162,346.042 171.662,349.542 170.5,353C 170.83,355.341 171.496,357.508 172.5,359.5 Z"/></g>
<g><path style="opacity:1" fill="#dff8fb" d="M 348.5,308.5 C 350.833,308.5 353.167,308.5 355.5,308.5C 352.759,309.083 350.092,310.083 347.5,311.5C 343.217,312.492 338.884,312.826 334.5,312.5C 339.167,311.167 343.833,309.833 348.5,308.5 Z"/></g>
<g><path style="opacity:1" fill="#68b8d0" d="M 348.5,307.5 C 348.5,307.833 348.5,308.167 348.5,308.5C 343.833,309.833 339.167,311.167 334.5,312.5C 334.5,313.167 334.167,313.5 333.5,313.5C 331.053,313.615 329.053,314.615 327.5,316.5C 327.5,315.167 327.5,313.833 327.5,312.5C 332.33,311.41 336.997,309.91 341.5,308C 343.81,307.503 346.143,307.337 348.5,307.5 Z"/></g>
<g><path style="opacity:1" fill="#e0f6f8" d="M 111.5,313.5 C 114.325,313.081 116.491,314.081 118,316.5C 118.117,319.504 118.951,322.171 120.5,324.5C 120.5,333.5 120.5,342.5 120.5,351.5C 119.778,351.082 119.278,350.416 119,349.5C 118.765,340.463 118.098,331.463 117,322.5C 116.293,320.919 115.46,319.419 114.5,318C 114.833,317.667 115.167,317.333 115.5,317C 113.456,316.502 112.122,315.335 111.5,313.5 Z"/></g>
<g><path style="opacity:1" fill="#58b6dc" d="M 327.5,312.5 C 327.5,313.833 327.5,315.167 327.5,316.5C 325.839,328.086 325.173,339.752 325.5,351.5C 324.833,351.5 324.167,351.5 323.5,351.5C 323.093,340.169 322.759,328.836 322.5,317.5C 323.552,317.649 324.552,317.483 325.5,317C 322.58,314.066 323.247,312.566 327.5,312.5 Z"/></g>
<g><path style="opacity:1" fill="#55a7d3" d="M 111.5,311.5 C 112.167,311.5 112.833,311.5 113.5,311.5C 114.978,311.238 116.311,311.571 117.5,312.5C 118.799,315.395 120.465,318.062 122.5,320.5C 123.498,329.81 123.832,339.143 123.5,348.5C 122.833,341.833 122.167,335.167 121.5,328.5C 121.768,326.901 121.434,325.568 120.5,324.5C 118.951,322.171 118.117,319.504 118,316.5C 116.491,314.081 114.325,313.081 111.5,313.5C 111.5,313.167 111.5,312.833 111.5,312.5C 111.5,312.167 111.5,311.833 111.5,311.5 Z"/></g>
<g><path style="opacity:1" fill="#59a2c6" d="M 121.5,328.5 C 122.167,335.167 122.833,341.833 123.5,348.5C 123.833,350.5 124.167,352.5 124.5,354.5C 135.991,354.735 147.324,353.735 158.5,351.5C 158.5,351.833 158.5,352.167 158.5,352.5C 154.988,351.945 151.988,352.612 149.5,354.5C 146.612,353.99 144.279,354.656 142.5,356.5C 135.549,357.066 128.882,356.399 122.5,354.5C 121.66,345.862 121.327,337.195 121.5,328.5 Z"/></g>
<g><path style="opacity:1" fill="#c4eef2" d="M 333.5,313.5 C 330.178,316.485 328.178,320.151 327.5,324.5C 326.833,333.5 326.167,342.5 325.5,351.5C 325.173,339.752 325.839,328.086 327.5,316.5C 329.053,314.615 331.053,313.615 333.5,313.5 Z"/></g>
<g><path style="opacity:1" fill="#74aec9" d="M 120.5,324.5 C 121.434,325.568 121.768,326.901 121.5,328.5C 121.327,337.195 121.66,345.862 122.5,354.5C 121.833,353.5 121.167,352.5 120.5,351.5C 120.5,342.5 120.5,333.5 120.5,324.5 Z"/></g>
<g><path style="opacity:1" fill="#d8f7fb" d="M 327.5,324.5 C 327.832,333.857 327.498,343.19 326.5,352.5C 325.026,353.436 324.026,354.77 323.5,356.5C 316.678,357.818 310.011,357.818 303.5,356.5C 309.868,356.83 316.202,356.496 322.5,355.5C 323.127,354.583 323.461,353.583 323.5,352.5C 323.5,352.167 323.5,351.833 323.5,351.5C 324.167,351.5 324.833,351.5 325.5,351.5C 326.167,342.5 326.833,333.5 327.5,324.5 Z"/></g>
<g><path style="opacity:1" fill="#6eafcf" d="M 160.5,352.5 C 163.167,352.5 165.833,352.5 168.5,352.5C 168.045,355.931 169.379,358.264 172.5,359.5C 172.5,360.833 172.5,362.167 172.5,363.5C 172.167,363.5 171.833,363.5 171.5,363.5C 171.167,363.5 170.833,363.5 170.5,363.5C 170.649,362.448 170.483,361.448 170,360.5C 168.509,358.336 167.009,356.336 165.5,354.5C 163.833,353.833 162.167,353.167 160.5,352.5 Z"/></g>
<g><path style="opacity:1" fill="#59b1d4" d="M 323.5,352.5 C 323.461,353.583 323.127,354.583 322.5,355.5C 316.202,356.496 309.868,356.83 303.5,356.5C 303.167,356.5 302.833,356.5 302.5,356.5C 301.082,354.692 299.082,354.025 296.5,354.5C 293.61,352.77 290.276,351.77 286.5,351.5C 284.343,352.05 282.343,352.717 280.5,353.5C 280.158,354.338 279.492,354.672 278.5,354.5C 279.543,350.486 282.209,348.82 286.5,349.5C 288.937,349.244 291.271,348.577 293.5,347.5C 293.736,348.247 294.07,349.08 294.5,350C 293.833,350.333 293.167,350.667 292.5,351C 296.377,351.257 300.043,352.257 303.5,354C 309.5,354.667 315.5,354.667 321.5,354C 322.044,353.283 322.711,352.783 323.5,352.5 Z"/></g>
<g><path style="opacity:1" fill="#9dd5e8" d="M 296.5,354.5 C 291.26,353.551 285.927,353.218 280.5,353.5C 282.343,352.717 284.343,352.05 286.5,351.5C 290.276,351.77 293.61,352.77 296.5,354.5 Z"/></g>
<g><path style="opacity:1" fill="#e0f9fb" d="M 280.5,353.5 C 285.927,353.218 291.26,353.551 296.5,354.5C 299.082,354.025 301.082,354.692 302.5,356.5C 295.488,355.498 288.488,355.498 281.5,356.5C 278.667,361.5 275.833,366.5 273,371.5C 272.241,373.063 271.074,374.063 269.5,374.5C 269.5,374.167 269.5,373.833 269.5,373.5C 269.5,372.5 269.5,371.5 269.5,370.5C 272.967,366.133 275.967,361.467 278.5,356.5C 278.5,355.833 278.5,355.167 278.5,354.5C 279.492,354.672 280.158,354.338 280.5,353.5 Z"/></g>
<g><path style="opacity:1" fill="#e6fafc" d="M 120.5,351.5 C 121.167,352.5 121.833,353.5 122.5,354.5C 128.882,356.399 135.549,357.066 142.5,356.5C 144.952,355.935 147.285,355.268 149.5,354.5C 152.61,353.912 155.61,353.245 158.5,352.5C 158.5,352.167 158.5,351.833 158.5,351.5C 159.492,351.328 160.158,351.662 160.5,352.5C 162.167,353.167 163.833,353.833 165.5,354.5C 157.285,353.462 149.785,355.129 143,359.5C 136.872,358.395 130.706,358.228 124.5,359C 123.603,361.127 122.269,361.627 120.5,360.5C 121.167,359.5 121.833,358.5 122.5,357.5C 120.896,355.821 120.229,353.821 120.5,351.5 Z"/></g>
<g><path style="opacity:1" fill="#a9d5df" d="M 149.5,354.5 C 147.285,355.268 144.952,355.935 142.5,356.5C 144.279,354.656 146.612,353.99 149.5,354.5 Z"/></g>
<g><path style="opacity:1" fill="#93c8db" d="M 158.5,352.5 C 155.61,353.245 152.61,353.912 149.5,354.5C 151.988,352.612 154.988,351.945 158.5,352.5 Z"/></g>
<g><path style="opacity:1" fill="#e3f9fb" d="M 165.5,354.5 C 167.009,356.336 168.509,358.336 170,360.5C 170.483,361.448 170.649,362.448 170.5,363.5C 169.18,362.058 167.514,361.392 165.5,361.5C 165.85,358.959 165.85,356.626 165.5,354.5 Z"/></g>
<g><path style="opacity:1" fill="#59abd0" d="M 172.5,363.5 C 174.359,365.85 176.692,367.684 179.5,369C 178.987,371.718 178.987,374.551 179.5,377.5C 178.503,377.53 177.836,377.03 177.5,376C 175.784,371.784 174.117,367.617 172.5,363.5 Z"/></g>
<g><path style="opacity:1" fill="#60acd0" d="M 232.5,370.5 C 230.216,369.971 228.216,368.971 226.5,367.5C 225.551,366.848 224.385,366.514 223,366.5C 221.319,366.608 220.152,367.275 219.5,368.5C 217.03,368.654 215.03,369.654 213.5,371.5C 212.609,372.11 211.609,372.443 210.5,372.5C 209.103,370.178 209.77,368.511 212.5,367.5C 217.587,365.504 222.92,365.004 228.5,366C 230.192,367.307 231.525,368.807 232.5,370.5 Z"/></g>
<g><path style="opacity:1" fill="#9ad3ef" d="M 226.5,367.5 C 224.05,367.298 221.717,367.631 219.5,368.5C 220.152,367.275 221.319,366.608 223,366.5C 224.385,366.514 225.551,366.848 226.5,367.5 Z"/></g>
<g><path style="opacity:1" fill="#5caed2" d="M 276.5,356.5 C 277.167,356.5 277.833,356.5 278.5,356.5C 275.967,361.467 272.967,366.133 269.5,370.5C 269.336,367.813 269.503,365.146 270,362.5C 270.333,362.833 270.667,363.167 271,363.5C 272.574,360.848 274.408,358.515 276.5,356.5 Z"/></g>
<g><path style="opacity:1" fill="#e5f9f9" d="M 226.5,367.5 C 228.216,368.971 230.216,369.971 232.5,370.5C 233.5,371.167 234.5,371.833 235.5,372.5C 236.925,373.922 237.925,375.589 238.5,377.5C 237.5,377.5 236.5,377.5 235.5,377.5C 235.5,376.5 235.5,375.5 235.5,374.5C 232.687,374.452 230.021,373.785 227.5,372.5C 226.289,371.726 226.289,370.893 227.5,370C 222.669,369.222 218.003,369.722 213.5,371.5C 215.03,369.654 217.03,368.654 219.5,368.5C 221.717,367.631 224.05,367.298 226.5,367.5 Z"/></g>
<g><path style="opacity:1" fill="#e1f9fa" d="M 213.5,371.5 C 213.5,372.833 213.5,374.167 213.5,375.5C 212.127,375.343 210.793,375.51 209.5,376C 208.111,378.188 206.111,379.354 203.5,379.5C 206.453,377.854 208.786,375.521 210.5,372.5C 211.609,372.443 212.609,372.11 213.5,371.5 Z"/></g>
<g><path style="opacity:1" fill="#66b1d4" d="M 235.5,372.5 C 237.729,373.055 239.395,374.389 240.5,376.5C 241.167,375.833 241.833,375.167 242.5,374.5C 245.686,377.521 249.02,380.354 252.5,383C 255.167,383.667 257.833,383.667 260.5,383C 261.471,381.519 262.804,380.685 264.5,380.5C 262.717,385.565 259.05,387.565 253.5,386.5C 253.167,386.5 252.833,386.5 252.5,386.5C 248.855,383.798 245.189,380.965 241.5,378C 240.552,377.517 239.552,377.351 238.5,377.5C 237.925,375.589 236.925,373.922 235.5,372.5 Z"/></g>
<g><path style="opacity:1" fill="#79bed7" d="M 269.5,373.5 C 269.5,373.833 269.5,374.167 269.5,374.5C 268.167,376.5 266.833,378.5 265.5,380.5C 265.599,377.361 266.932,375.027 269.5,373.5 Z"/></g>
<g><path style="opacity:1" fill="#e0f5f9" d="M 171.5,363.5 C 171.833,363.5 172.167,363.5 172.5,363.5C 174.117,367.617 175.784,371.784 177.5,376C 177.836,377.03 178.503,377.53 179.5,377.5C 179.433,378.959 179.766,380.292 180.5,381.5C 179.883,381.611 179.383,381.944 179,382.5C 177.743,378.743 175.743,375.409 173,372.5C 172.304,369.522 171.804,366.522 171.5,363.5 Z"/></g>
<g><path style="opacity:1" fill="#e3f8fc" d="M 238.5,377.5 C 239.552,377.351 240.552,377.517 241.5,378C 245.189,380.965 248.855,383.798 252.5,386.5C 246.237,385.891 241.57,382.891 238.5,377.5 Z"/></g>
<g><path style="opacity:1" fill="#6baccc" d="M 210.5,372.5 C 208.786,375.521 206.453,377.854 203.5,379.5C 201.071,381.009 198.737,382.676 196.5,384.5C 194.103,385.368 191.603,386.035 189,386.5C 187.5,386.167 186,385.833 184.5,385.5C 183.479,383.812 182.145,382.479 180.5,381.5C 179.766,380.292 179.433,378.959 179.5,377.5C 181.973,379.143 183.973,381.31 185.5,384C 187.833,384.667 190.167,384.667 192.5,384C 198.054,379.394 204.054,375.561 210.5,372.5 Z"/></g>
<g><path style="opacity:1" fill="#d8f2fa" d="M 203.5,379.5 C 202.614,383.037 200.281,384.704 196.5,384.5C 198.737,382.676 201.071,381.009 203.5,379.5 Z"/></g>
<g><path style="opacity:1" fill="#eafbfb" d="M 269.5,374.5 C 269.784,377.777 269.451,380.943 268.5,384C 265.914,383.29 263.914,384.29 262.5,387C 259.304,387.805 256.304,387.638 253.5,386.5C 259.05,387.565 262.717,385.565 264.5,380.5C 264.833,380.5 265.167,380.5 265.5,380.5C 266.833,378.5 268.167,376.5 269.5,374.5 Z"/></g>
</svg>
