<?xml version="1.0" encoding="UTF-8"?>
<!DOCTYPE svg PUBLIC "-//W3C//DTD SVG 1.1//EN" "http://www.w3.org/Graphics/SVG/1.1/DTD/svg11.dtd">
<svg xmlns="http://www.w3.org/2000/svg" version="1.1" width="331px" height="274px" style="shape-rendering:geometricPrecision; text-rendering:geometricPrecision; image-rendering:optimizeQuality; fill-rule:evenodd; clip-rule:evenodd" xmlns:xlink="http://www.w3.org/1999/xlink">
<g><path style="opacity:1" fill="#e69f02" d="M -0.5,-0.5 C 11.5,-0.5 23.5,-0.5 35.5,-0.5C 35.1788,1.04814 34.1788,1.71481 32.5,1.5C 32.0686,4.44924 30.9019,7.11591 29,9.5C 28.6667,12.8333 28.3333,16.1667 28,19.5C 26.9887,20.3366 25.8221,20.67 24.5,20.5C 24.5,21.8333 24.5,23.1667 24.5,24.5C 23.5,24.5 22.5,24.5 21.5,24.5C 21.0074,26.8056 20.6741,29.139 20.5,31.5C 19.5,31.5 18.5,31.5 17.5,31.5C 16.7353,36.5589 15.0686,41.2256 12.5,45.5C 11.675,46.3857 10.675,46.719 9.5,46.5C 9.66331,48.8568 9.49665,51.1902 9,53.5C 8.66667,49.5 8.33333,45.5 8,41.5C 5.92405,48.6337 3.09072,55.3004 -0.5,61.5C -0.5,40.8333 -0.5,20.1667 -0.5,-0.5 Z"/></g>
<g><path style="opacity:1" fill="#ebab02" d="M 60.5,-0.5 C 72.5,-0.5 84.5,-0.5 96.5,-0.5C 94.0828,1.75634 91.7494,4.25634 89.5,7C 88.1667,7.33333 86.8333,7.66667 85.5,8C 81.7261,12.7476 77.0595,16.2476 71.5,18.5C 70.5,16.8333 69.1667,15.5 67.5,14.5C 67.1667,14.8333 66.8333,15.1667 66.5,15.5C 67.4911,16.6652 68.4911,17.8319 69.5,19C 69.1667,19.5 68.8333,20 68.5,20.5C 66.062,22.5346 63.3953,24.2013 60.5,25.5C 58.0578,28.2016 55.7244,31.035 53.5,34C 55.6347,38.3497 54.3013,40.683 49.5,41C 48.5871,43.3326 47.0871,45.1659 45,46.5C 36.7227,62.2858 31.2227,78.9525 28.5,96.5C 28.5106,103.955 28.844,111.455 29.5,119C 29.3333,119.5 29.1667,120 29,120.5C 28.0347,118.74 26.868,118.406 25.5,119.5C 27.0267,121.193 28.3601,123.027 29.5,125C 28.0997,126.438 26.433,127.271 24.5,127.5C 24.2965,125.61 24.9632,124.11 26.5,123C 25.5509,122.383 24.7175,122.549 24,123.5C 22.9431,126.549 22.7764,129.549 23.5,132.5C 24.3857,131.675 24.719,130.675 24.5,129.5C 26.7224,129.822 28.5557,129.155 30,127.5C 30.6924,128.025 31.1924,128.692 31.5,129.5C 31.6335,133.641 31.3002,137.808 30.5,142C 32.928,143.162 33.5947,144.829 32.5,147C 34.6612,149.477 35.4945,152.311 35,155.5C 34.0853,154.672 33.4186,153.672 33,152.5C 32.5828,155.284 33.7495,157.284 36.5,158.5C 37.7111,159.72 37.7111,160.887 36.5,162C 39.001,163.418 38.6677,164.418 35.5,165C 39.3305,165.407 39.9972,166.74 37.5,169C 41.1667,170 41.5,171.667 38.5,174C 39.9961,174.507 41.1627,174.007 42,172.5C 42.3333,173.167 42.6667,173.833 43,174.5C 43.0976,172.381 43.9309,170.714 45.5,169.5C 47.444,170.189 49.444,170.689 51.5,171C 53.3444,173.804 54.0111,176.97 53.5,180.5C 50.0901,180.457 46.7568,180.957 43.5,182C 45.2205,182.739 46.8872,183.573 48.5,184.5C 49.4544,186.911 50.7877,189.077 52.5,191C 52.3552,191.772 52.0219,192.439 51.5,193C 55.2594,194.001 56.9261,196.501 56.5,200.5C 60.3354,201.004 60.3354,202.004 56.5,203.5C 57.8848,204.551 58.8848,205.884 59.5,207.5C 63.3172,212.039 67.9839,215.205 73.5,217C 72.3529,219.853 73.1862,220.686 76,219.5C 77.5413,221.017 79.3746,222.184 81.5,223C 80.6433,223.689 79.9767,224.522 79.5,225.5C 91.6325,236.151 105.466,243.818 121,248.5C 121.822,246.212 122.489,243.878 123,241.5C 123.251,243.433 123.751,245.266 124.5,247C 124.043,247.414 123.709,247.914 123.5,248.5C 126.086,249.48 128.753,249.813 131.5,249.5C 131.351,248.448 131.517,247.448 132,246.5C 132.979,248.32 134.479,249.487 136.5,250C 134.875,250.853 134.542,251.853 135.5,253C 137.167,253.667 138.833,253.667 140.5,253C 140.167,252.667 139.833,252.333 139.5,252C 140.448,251.517 141.448,251.351 142.5,251.5C 144.193,254.19 146.527,256.19 149.5,257.5C 153.871,262.093 159.371,264.426 166,264.5C 180.344,263.386 193.51,258.886 205.5,251C 211.113,246.255 214.779,240.422 216.5,233.5C 217.41,238.334 216.077,242.334 212.5,245.5C 218.272,244.79 223.939,242.957 229.5,240C 230.227,238.601 230.727,237.101 231,235.5C 232.011,234.663 233.178,234.33 234.5,234.5C 235.031,231.221 237.031,229.887 240.5,230.5C 240.5,229.5 240.5,228.5 240.5,227.5C 244.805,227.524 247.472,225.524 248.5,221.5C 257.747,217.254 264.747,210.588 269.5,201.5C 270.728,199.679 272.394,198.679 274.5,198.5C 277.245,193.01 280.078,187.343 283,181.5C 283.743,179.559 283.576,177.726 282.5,176C 284.394,174.921 284.727,173.587 283.5,172C 284.448,171.517 285.448,171.351 286.5,171.5C 286.351,172.552 286.517,173.552 287,174.5C 293.322,161.879 297.155,148.545 298.5,134.5C 298.818,133.353 299.484,132.519 300.5,132C 299.167,122 299.167,112 300.5,102C 299.033,100.902 298.199,99.4025 298,97.5C 297.504,88.6714 295.671,80.1714 292.5,72C 293.943,69.9223 293.276,69.0889 290.5,69.5C 290.149,65.6311 288.816,62.1311 286.5,59C 287.943,56.9223 287.276,56.0889 284.5,56.5C 282.324,52.4666 280.99,48.1333 280.5,43.5C 277.221,42.9694 275.887,40.9694 276.5,37.5C 272.456,36.4491 270.122,33.7824 269.5,29.5C 263.174,24.5071 257.507,18.8404 252.5,12.5C 248.497,10.4943 244.497,8.49429 240.5,6.5C 240.162,4.3448 240.162,2.01147 240.5,-0.5C 248.167,-0.5 255.833,-0.5 263.5,-0.5C 264.778,0.749473 265.778,2.24947 266.5,4C 267.448,4.48278 268.448,4.64945 269.5,4.5C 269.5,5.5 269.5,6.5 269.5,7.5C 270.552,7.35055 271.552,7.51722 272.5,8C 273.667,9.83333 275.167,11.3333 277,12.5C 281.863,18.3581 286.696,24.1914 291.5,30C 290.5,30.3333 289.5,30.6667 288.5,31C 289.667,31.5 290.5,32.3333 291,33.5C 291.333,32.8333 291.667,32.1667 292,31.5C 308.547,57.0142 316.713,85.0142 316.5,115.5C 316.939,117.104 317.606,118.604 318.5,120C 316.836,122.264 316.503,124.597 317.5,127C 315.891,131.757 315.558,136.591 316.5,141.5C 317.842,139.995 319.508,139.328 321.5,139.5C 321.26,135.422 323.26,133.256 327.5,133C 328.191,131.933 328.691,130.766 329,129.5C 329.383,130.056 329.883,130.389 330.5,130.5C 330.5,131.5 330.5,132.5 330.5,133.5C 328.821,133.892 327.154,134.392 325.5,135C 325.185,136.902 325.185,138.902 325.5,141C 324.551,141.617 323.718,141.451 323,140.5C 320.645,143.628 321.145,144.795 324.5,144C 322.191,147.286 320.024,147.119 318,143.5C 318.783,145.345 319.116,147.345 319,149.5C 316.062,151.155 313.562,153.321 311.5,156C 312.022,156.561 312.355,157.228 312.5,158C 301.877,192.144 282.544,219.978 254.5,241.5C 245.005,246.078 236.005,251.411 227.5,257.5C 228.376,258.251 229.376,258.751 230.5,259C 219.652,263.14 208.652,266.806 197.5,270C 188.465,271.769 179.465,272.935 170.5,273.5C 167.167,273.5 163.833,273.5 160.5,273.5C 157.375,272.521 154.042,272.187 150.5,272.5C 150.657,271.127 150.49,269.793 150,268.5C 148.383,269.536 148.216,270.703 149.5,272C 136.889,271.114 124.723,268.28 113,263.5C 111.5,265.333 110,267.167 108.5,269C 106.324,269.163 104.491,269.996 103,271.5C 103.802,268.489 103.635,265.489 102.5,262.5C 105.999,262.259 106.332,263.092 103.5,265C 105.626,268.415 107.293,268.248 108.5,264.5C 107.376,263.086 106.376,261.586 105.5,260C 104.551,259.383 103.718,259.549 103,260.5C 100.239,259.204 97.4055,258.037 94.5,257C 99.5402,256.256 99.7069,255.09 95,253.5C 94.4806,254.516 93.6473,255.182 92.5,255.5C 82.1832,249.339 72.1832,242.673 62.5,235.5C 54.1623,227.662 46.3289,219.328 39,210.5C 37.5563,207.895 37.723,205.729 39.5,204C 33.6367,194.55 28.1367,184.716 23,174.5C 19.9041,163.953 17.0708,153.286 14.5,142.5C 13.2101,140.208 11.5435,138.208 9.5,136.5C 9.16667,136.833 8.83333,137.167 8.5,137.5C 11.2896,140.922 11.123,141.589 8,139.5C 7.20245,137.741 7.36912,136.074 8.5,134.5C 11.1153,132.554 13.4486,130.387 15.5,128C 14.552,127.517 13.552,127.351 12.5,127.5C 11.5377,114.546 12.5377,101.712 15.5,89C 15.1667,88 14.8333,87 14.5,86C 18.306,72.0381 23.306,58.5381 29.5,45.5C 28.9781,44.3926 28.6448,43.2259 28.5,42C 34.1496,33.1689 39.8163,24.3355 45.5,15.5C 51.4233,10.948 56.4233,5.61466 60.5,-0.5 Z"/></g>
<g><path style="opacity:1" fill="#edb202" d="M 178.5,-0.5 C 199.167,-0.5 219.833,-0.5 240.5,-0.5C 240.162,2.01147 240.162,4.3448 240.5,6.5C 244.497,8.49429 248.497,10.4943 252.5,12.5C 257.507,18.8404 263.174,24.5071 269.5,29.5C 270.122,33.7824 272.456,36.4491 276.5,37.5C 275.887,40.9694 277.221,42.9694 280.5,43.5C 280.99,48.1333 282.324,52.4666 284.5,56.5C 287.276,56.0889 287.943,56.9223 286.5,59C 288.816,62.1311 290.149,65.6311 290.5,69.5C 293.276,69.0889 293.943,69.9223 292.5,72C 295.671,80.1714 297.504,88.6714 298,97.5C 298.199,99.4025 299.033,100.902 300.5,102C 299.167,112 299.167,122 300.5,132C 299.484,132.519 298.818,133.353 298.5,134.5C 297.155,148.545 293.322,161.879 287,174.5C 286.517,173.552 286.351,172.552 286.5,171.5C 285.448,171.351 284.448,171.517 283.5,172C 284.727,173.587 284.394,174.921 282.5,176C 283.576,177.726 283.743,179.559 283,181.5C 280.078,187.343 277.245,193.01 274.5,198.5C 272.394,198.679 270.728,199.679 269.5,201.5C 264.747,210.588 257.747,217.254 248.5,221.5C 247.472,225.524 244.805,227.524 240.5,227.5C 240.5,228.5 240.5,229.5 240.5,230.5C 237.031,229.887 235.031,231.221 234.5,234.5C 233.178,234.33 232.011,234.663 231,235.5C 230.727,237.101 230.227,238.601 229.5,240C 223.939,242.957 218.272,244.79 212.5,245.5C 216.077,242.334 217.41,238.334 216.5,233.5C 216.882,228.633 216.215,223.966 214.5,219.5C 215.756,219.904 216.923,220.571 218,221.5C 223.02,219.583 227.187,216.583 230.5,212.5C 230.291,211.914 229.957,211.414 229.5,211C 253.572,194.033 269.072,171.2 276,142.5C 282.679,113.9 278.512,86.9 263.5,61.5C 262.186,62.3128 261.019,63.3128 260,64.5C 259.667,64.1667 259.333,63.8333 259,63.5C 258.722,60.2221 259.222,57.0554 260.5,54C 259.672,53.0853 258.672,52.4186 257.5,52C 257.833,51.6667 258.167,51.3333 258.5,51C 256.333,48.1667 253.833,45.6667 251,43.5C 250.505,45.4727 250.338,47.4727 250.5,49.5C 248.734,45.7152 247.234,41.7152 246,37.5C 244.884,34.2444 243.051,31.5777 240.5,29.5C 239.008,26.6769 236.674,25.0102 233.5,24.5C 233.389,23.8826 233.056,23.3826 232.5,23C 230.109,22.7132 227.776,22.2132 225.5,21.5C 224.614,20.675 224.281,19.675 224.5,18.5C 225.675,18.719 226.675,18.3857 227.5,17.5C 211.987,8.89448 195.654,2.89448 178.5,-0.5 Z"/></g>
<g><path style="opacity:1" fill="#f1b805" d="M 150.5,-0.5 C 159.833,-0.5 169.167,-0.5 178.5,-0.5C 195.654,2.89448 211.987,8.89448 227.5,17.5C 226.675,18.3857 225.675,18.719 224.5,18.5C 224.281,19.675 224.614,20.675 225.5,21.5C 227.776,22.2132 230.109,22.7132 232.5,23C 233.056,23.3826 233.389,23.8826 233.5,24.5C 205.719,17.6399 177.719,16.8066 149.5,22C 123.047,32.5463 100.047,48.0463 80.5,68.5C 79.6295,71.003 78.9628,73.6697 78.5,76.5C 76.8235,77.1834 76.1568,78.5168 76.5,80.5C 75.5,80.5 74.5,80.5 73.5,80.5C 73.1549,86.7238 71.9883,92.7238 70,98.5C 69.6667,107.5 69.3333,116.5 69,125.5C 65.6667,126.833 65.6667,128.167 69,129.5C 69.9358,133.114 70.4358,136.78 70.5,140.5C 71.5,140.5 72.5,140.5 73.5,140.5C 73.7461,144.151 73.7461,147.651 73.5,151C 74.7932,151.49 76.1266,151.657 77.5,151.5C 77.3379,153.527 77.5045,155.527 78,157.5C 78.7096,158.973 79.8762,159.64 81.5,159.5C 81.4698,163.279 82.4698,166.779 84.5,170C 83.8524,171.44 83.5191,172.94 83.5,174.5C 85.288,174.215 86.9547,174.548 88.5,175.5C 90.5378,176.754 92.2044,178.421 93.5,180.5C 94.325,181.386 95.325,181.719 96.5,181.5C 96.5,182.833 96.5,184.167 96.5,185.5C 97.9778,185.238 99.3112,185.571 100.5,186.5C 101.083,188.002 101.916,189.335 103,190.5C 103.984,188.205 104.817,188.539 105.5,191.5C 104.282,191.109 103.448,191.776 103,193.5C 101.69,196.503 101.524,199.503 102.5,202.5C 103.281,201.271 103.781,199.938 104,198.5C 105.388,199.554 106.888,199.72 108.5,199C 109.833,198.333 109.833,197.667 108.5,197C 110.886,196.716 111.552,195.716 110.5,194C 112.167,193.333 113.833,193.333 115.5,194C 114.833,194.333 114.167,194.667 113.5,195C 114.859,196.204 115.859,197.704 116.5,199.5C 118.535,200.041 120.535,200.708 122.5,201.5C 122.167,202.167 121.833,202.833 121.5,203.5C 124.06,204.747 126.727,205.747 129.5,206.5C 129.977,207.931 130.643,209.264 131.5,210.5C 132.258,209.189 133.258,208.689 134.5,209C 133.723,213.368 134.389,213.201 136.5,208.5C 138.263,211.441 140.263,214.274 142.5,217C 139.818,221.196 137.818,225.696 136.5,230.5C 135.71,229.391 135.21,228.058 135,226.5C 134.277,229.638 132.443,230.305 129.5,228.5C 116.564,225.2 105.23,219.033 95.5,210C 96.3128,208.686 97.3128,207.519 98.5,206.5C 97.675,205.614 96.675,205.281 95.5,205.5C 95.826,208.757 94.4927,210.257 91.5,210C 92.1667,209.333 92.8333,208.667 93.5,208C 91.925,208.379 90.425,208.212 89,207.5C 88.2888,209.367 88.7888,210.867 90.5,212C 85.1715,218.251 82.1715,217.084 81.5,208.5C 84.1684,208.334 86.5017,207.334 88.5,205.5C 89.8333,204.833 89.8333,204.167 88.5,203.5C 87.3914,204.59 86.3914,204.59 85.5,203.5C 86.5,202.833 87.5,202.167 88.5,201.5C 72.6962,186.498 61.5295,168.498 55,147.5C 54.2646,143.187 53.7646,138.853 53.5,134.5C 52.1667,134.5 50.8333,134.5 49.5,134.5C 47.8014,127.031 47.1347,119.365 47.5,111.5C 50.026,111.313 51.6927,109.98 52.5,107.5C 51.7976,104.012 50.7976,100.678 49.5,97.5C 51.817,88.8548 54.1503,80.1882 56.5,71.5C 64.1816,55.6146 74.1816,41.4479 86.5,29C 92.6792,24.3268 99.0125,19.8268 105.5,15.5C 107.611,14.1515 109.445,14.4848 111,16.5C 115.499,12.4648 120.666,10.2982 126.5,10C 127.667,9.5 128.5,8.66667 129,7.5C 130.868,8.67194 132.702,8.50528 134.5,7C 133.027,6.29044 132.36,5.12377 132.5,3.5C 138.044,2.14347 143.711,1.31014 149.5,1C 150.056,0.617425 150.389,0.117425 150.5,-0.5 Z"/></g>
<g><path style="opacity:1" fill="#eeb202" d="M 96.5,-0.5 C 114.5,-0.5 132.5,-0.5 150.5,-0.5C 150.389,0.117425 150.056,0.617425 149.5,1C 143.711,1.31014 138.044,2.14347 132.5,3.5C 132.36,5.12377 133.027,6.29044 134.5,7C 132.702,8.50528 130.868,8.67194 129,7.5C 128.5,8.66667 127.667,9.5 126.5,10C 120.666,10.2982 115.499,12.4648 111,16.5C 109.445,14.4848 107.611,14.1515 105.5,15.5C 99.0125,19.8268 92.6792,24.3268 86.5,29C 74.1816,41.4479 64.1816,55.6146 56.5,71.5C 54.1503,80.1882 51.817,88.8548 49.5,97.5C 50.7976,100.678 51.7976,104.012 52.5,107.5C 51.6927,109.98 50.026,111.313 47.5,111.5C 47.1347,119.365 47.8014,127.031 49.5,134.5C 50.8333,134.5 52.1667,134.5 53.5,134.5C 53.7646,138.853 54.2646,143.187 55,147.5C 61.5295,168.498 72.6962,186.498 88.5,201.5C 87.5,202.167 86.5,202.833 85.5,203.5C 86.3914,204.59 87.3914,204.59 88.5,203.5C 89.8333,204.167 89.8333,204.833 88.5,205.5C 86.5017,207.334 84.1684,208.334 81.5,208.5C 82.1715,217.084 85.1715,218.251 90.5,212C 88.7888,210.867 88.2888,209.367 89,207.5C 90.425,208.212 91.925,208.379 93.5,208C 92.8333,208.667 92.1667,209.333 91.5,210C 94.4927,210.257 95.826,208.757 95.5,205.5C 96.675,205.281 97.675,205.614 98.5,206.5C 97.3128,207.519 96.3128,208.686 95.5,210C 105.23,219.033 116.564,225.2 129.5,228.5C 132.443,230.305 134.277,229.638 135,226.5C 135.21,228.058 135.71,229.391 136.5,230.5C 136.478,238.11 138.478,245.11 142.5,251.5C 141.448,251.351 140.448,251.517 139.5,252C 139.833,252.333 140.167,252.667 140.5,253C 138.833,253.667 137.167,253.667 135.5,253C 134.542,251.853 134.875,250.853 136.5,250C 134.479,249.487 132.979,248.32 132,246.5C 131.517,247.448 131.351,248.448 131.5,249.5C 128.753,249.813 126.086,249.48 123.5,248.5C 123.709,247.914 124.043,247.414 124.5,247C 123.751,245.266 123.251,243.433 123,241.5C 122.489,243.878 121.822,246.212 121,248.5C 105.466,243.818 91.6325,236.151 79.5,225.5C 79.9767,224.522 80.6433,223.689 81.5,223C 79.3746,222.184 77.5413,221.017 76,219.5C 73.1862,220.686 72.3529,219.853 73.5,217C 67.9839,215.205 63.3172,212.039 59.5,207.5C 58.8848,205.884 57.8848,204.551 56.5,203.5C 60.3354,202.004 60.3354,201.004 56.5,200.5C 56.9261,196.501 55.2594,194.001 51.5,193C 52.0219,192.439 52.3552,191.772 52.5,191C 50.7877,189.077 49.4544,186.911 48.5,184.5C 46.8872,183.573 45.2205,182.739 43.5,182C 46.7568,180.957 50.0901,180.457 53.5,180.5C 54.0111,176.97 53.3444,173.804 51.5,171C 49.444,170.689 47.444,170.189 45.5,169.5C 43.9309,170.714 43.0976,172.381 43,174.5C 42.6667,173.833 42.3333,173.167 42,172.5C 41.1627,174.007 39.9961,174.507 38.5,174C 41.5,171.667 41.1667,170 37.5,169C 39.9972,166.74 39.3305,165.407 35.5,165C 38.6677,164.418 39.001,163.418 36.5,162C 37.7111,160.887 37.7111,159.72 36.5,158.5C 33.7495,157.284 32.5828,155.284 33,152.5C 33.4186,153.672 34.0853,154.672 35,155.5C 35.4945,152.311 34.6612,149.477 32.5,147C 33.5947,144.829 32.928,143.162 30.5,142C 31.3002,137.808 31.6335,133.641 31.5,129.5C 31.1924,128.692 30.6924,128.025 30,127.5C 28.5557,129.155 26.7224,129.822 24.5,129.5C 24.719,130.675 24.3857,131.675 23.5,132.5C 22.7764,129.549 22.9431,126.549 24,123.5C 24.7175,122.549 25.5509,122.383 26.5,123C 24.9632,124.11 24.2965,125.61 24.5,127.5C 26.433,127.271 28.0997,126.438 29.5,125C 28.3601,123.027 27.0267,121.193 25.5,119.5C 26.868,118.406 28.0347,118.74 29,120.5C 29.1667,120 29.3333,119.5 29.5,119C 28.844,111.455 28.5106,103.955 28.5,96.5C 31.2227,78.9525 36.7227,62.2858 45,46.5C 47.0871,45.1659 48.5871,43.3326 49.5,41C 54.3013,40.683 55.6347,38.3497 53.5,34C 55.7244,31.035 58.0578,28.2016 60.5,25.5C 63.3953,24.2013 66.062,22.5346 68.5,20.5C 68.8333,20 69.1667,19.5 69.5,19C 68.4911,17.8319 67.4911,16.6652 66.5,15.5C 66.8333,15.1667 67.1667,14.8333 67.5,14.5C 69.1667,15.5 70.5,16.8333 71.5,18.5C 77.0595,16.2476 81.7261,12.7476 85.5,8C 86.8333,7.66667 88.1667,7.33333 89.5,7C 91.7494,4.25634 94.0828,1.75634 96.5,-0.5 Z"/></g>
<g><path style="opacity:1" fill="#e9a602" d="M 263.5,-0.5 C 271.167,-0.5 278.833,-0.5 286.5,-0.5C 287.635,1.21321 289.302,1.87988 291.5,1.5C 291.5,2.83333 291.5,4.16667 291.5,5.5C 292.833,5.5 294.167,5.5 295.5,5.5C 295.156,8.6201 295.823,11.4534 297.5,14C 296.757,16.8821 297.757,17.2155 300.5,15C 299.289,14.1072 299.289,13.2739 300.5,12.5C 302.432,13.5202 304.432,13.6869 306.5,13C 305.289,12.1072 305.289,11.2739 306.5,10.5C 307.515,13.1677 309.182,13.8344 311.5,12.5C 308.71,9.07801 308.877,8.41134 312,10.5C 312.374,11.4162 312.874,12.2496 313.5,13C 311.269,14.6097 309.269,16.443 307.5,18.5C 306.281,17.7366 305.281,16.7366 304.5,15.5C 304.167,15.8333 303.833,16.1667 303.5,16.5C 305.922,18.2855 305.922,19.9522 303.5,21.5C 304.325,22.3857 305.325,22.719 306.5,22.5C 306.5,24.1667 306.5,25.8333 306.5,27.5C 307.822,27.33 308.989,27.6634 310,28.5C 311.322,32.2945 312.822,35.9612 314.5,39.5C 315.5,39.5 316.5,39.5 317.5,39.5C 318.147,45.7681 319.647,51.7681 322,57.5C 323.011,58.3366 324.178,58.67 325.5,58.5C 325.78,62.2865 325.78,65.9532 325.5,69.5C 329.06,73.8074 330.06,78.9741 328.5,85C 328.667,85.5 328.833,86 329,86.5C 329.278,85.5842 329.778,84.9175 330.5,84.5C 330.5,99.8333 330.5,115.167 330.5,130.5C 329.883,130.389 329.383,130.056 329,129.5C 328.691,130.766 328.191,131.933 327.5,133C 323.26,133.256 321.26,135.422 321.5,139.5C 319.508,139.328 317.842,139.995 316.5,141.5C 315.558,136.591 315.891,131.757 317.5,127C 316.503,124.597 316.836,122.264 318.5,120C 317.606,118.604 316.939,117.104 316.5,115.5C 316.713,85.0142 308.547,57.0142 292,31.5C 291.667,32.1667 291.333,32.8333 291,33.5C 290.5,32.3333 289.667,31.5 288.5,31C 289.5,30.6667 290.5,30.3333 291.5,30C 286.696,24.1914 281.863,18.3581 277,12.5C 275.167,11.3333 273.667,9.83333 272.5,8C 271.552,7.51722 270.552,7.35055 269.5,7.5C 269.5,6.5 269.5,5.5 269.5,4.5C 268.448,4.64945 267.448,4.48278 266.5,4C 265.778,2.24947 264.778,0.749473 263.5,-0.5 Z"/></g>
<g><path style="opacity:1" fill="#e69f03" d="M 286.5,-0.5 C 301.167,-0.5 315.833,-0.5 330.5,-0.5C 330.5,27.8333 330.5,56.1667 330.5,84.5C 329.778,84.9175 329.278,85.5842 329,86.5C 328.833,86 328.667,85.5 328.5,85C 330.06,78.9741 329.06,73.8074 325.5,69.5C 325.78,65.9532 325.78,62.2865 325.5,58.5C 324.178,58.67 323.011,58.3366 322,57.5C 319.647,51.7681 318.147,45.7681 317.5,39.5C 316.5,39.5 315.5,39.5 314.5,39.5C 312.822,35.9612 311.322,32.2945 310,28.5C 308.989,27.6634 307.822,27.33 306.5,27.5C 306.5,25.8333 306.5,24.1667 306.5,22.5C 305.325,22.719 304.325,22.3857 303.5,21.5C 305.922,19.9522 305.922,18.2855 303.5,16.5C 303.833,16.1667 304.167,15.8333 304.5,15.5C 305.281,16.7366 306.281,17.7366 307.5,18.5C 309.269,16.443 311.269,14.6097 313.5,13C 312.874,12.2496 312.374,11.4162 312,10.5C 308.877,8.41134 308.71,9.07801 311.5,12.5C 309.182,13.8344 307.515,13.1677 306.5,10.5C 305.289,11.2739 305.289,12.1072 306.5,13C 304.432,13.6869 302.432,13.5202 300.5,12.5C 299.289,13.2739 299.289,14.1072 300.5,15C 297.757,17.2155 296.757,16.8821 297.5,14C 295.823,11.4534 295.156,8.6201 295.5,5.5C 294.167,5.5 292.833,5.5 291.5,5.5C 291.5,4.16667 291.5,2.83333 291.5,1.5C 289.302,1.87988 287.635,1.21321 286.5,-0.5 Z"/></g>
<g><path style="opacity:1" fill="#f0b801" d="M 214.5,219.5 C 214.13,216.733 212.796,214.733 210.5,213.5C 207.361,207.693 202.695,203.693 196.5,201.5C 199.606,200.069 202.773,198.403 206,196.5C 205.72,188.335 208.387,181.335 214,175.5C 225.883,165.949 238.05,156.782 250.5,148C 251.211,146.745 252.044,145.579 253,144.5C 257.659,123.106 258.659,101.44 256,79.5C 253.877,69.5744 252.044,59.5744 250.5,49.5C 250.338,47.4727 250.505,45.4727 251,43.5C 253.833,45.6667 256.333,48.1667 258.5,51C 258.167,51.3333 257.833,51.6667 257.5,52C 258.672,52.4186 259.672,53.0853 260.5,54C 259.222,57.0554 258.722,60.2221 259,63.5C 259.333,63.8333 259.667,64.1667 260,64.5C 261.019,63.3128 262.186,62.3128 263.5,61.5C 278.512,86.9 282.679,113.9 276,142.5C 269.072,171.2 253.572,194.033 229.5,211C 229.957,211.414 230.291,211.914 230.5,212.5C 227.187,216.583 223.02,219.583 218,221.5C 216.923,220.571 215.756,219.904 214.5,219.5 Z"/></g>
<g><path style="opacity:1" fill="#f5f4f0" d="M 233.5,24.5 C 236.674,25.0102 239.008,26.6769 240.5,29.5C 255.214,65.7779 258.381,103.111 250,141.5C 249.215,143.286 248.049,144.786 246.5,146C 233.091,155.405 220.258,165.572 208,176.5C 204.904,181.707 203.237,187.374 203,193.5C 201.786,195.049 200.286,196.215 198.5,197C 186.809,197.102 186.142,198.602 196.5,201.5C 202.695,203.693 207.361,207.693 210.5,213.5C 216.216,227.521 213.216,239.354 201.5,249C 191.552,254.982 180.885,258.982 169.5,261C 162.34,262.352 155.673,261.186 149.5,257.5C 146.527,256.19 144.193,254.19 142.5,251.5C 138.478,245.11 136.478,238.11 136.5,230.5C 137.818,225.696 139.818,221.196 142.5,217C 140.263,214.274 138.263,211.441 136.5,208.5C 132.36,195.092 132.527,181.758 137,168.5C 140.259,162.308 143.759,156.308 147.5,150.5C 150.538,148.51 152.538,146.177 153.5,143.5C 144.498,147.585 135.165,150.752 125.5,153C 120.167,156 114.833,159 109.5,162C 108.207,162.49 106.873,162.657 105.5,162.5C 103.871,161.375 102.371,160.041 101,158.5C 89.2099,138.653 82.0432,117.319 79.5,94.5C 79.464,85.8154 79.7974,77.1487 80.5,68.5C 100.047,48.0463 123.047,32.5463 149.5,22C 177.719,16.8066 205.719,17.6399 233.5,24.5 Z"/></g>
<g><path style="opacity:1" fill="#f2bf08" d="M 78.5,76.5 C 78.1771,82.69 78.5104,88.69 79.5,94.5C 82.0432,117.319 89.2099,138.653 101,158.5C 102.371,160.041 103.871,161.375 105.5,162.5C 105.611,163.117 105.944,163.617 106.5,164C 108.833,164.667 111.167,164.667 113.5,164C 123.951,157.239 135.284,152.739 147.5,150.5C 143.759,156.308 140.259,162.308 137,168.5C 132.527,181.758 132.36,195.092 136.5,208.5C 134.389,213.201 133.723,213.368 134.5,209C 133.258,208.689 132.258,209.189 131.5,210.5C 130.643,209.264 129.977,207.931 129.5,206.5C 126.727,205.747 124.06,204.747 121.5,203.5C 121.833,202.833 122.167,202.167 122.5,201.5C 120.535,200.708 118.535,200.041 116.5,199.5C 115.859,197.704 114.859,196.204 113.5,195C 114.167,194.667 114.833,194.333 115.5,194C 113.833,193.333 112.167,193.333 110.5,194C 111.552,195.716 110.886,196.716 108.5,197C 109.833,197.667 109.833,198.333 108.5,199C 106.888,199.72 105.388,199.554 104,198.5C 103.781,199.938 103.281,201.271 102.5,202.5C 101.524,199.503 101.69,196.503 103,193.5C 103.448,191.776 104.282,191.109 105.5,191.5C 104.817,188.539 103.984,188.205 103,190.5C 101.916,189.335 101.083,188.002 100.5,186.5C 99.3112,185.571 97.9778,185.238 96.5,185.5C 96.5,184.167 96.5,182.833 96.5,181.5C 95.325,181.719 94.325,181.386 93.5,180.5C 92.2044,178.421 90.5378,176.754 88.5,175.5C 86.9547,174.548 85.288,174.215 83.5,174.5C 83.5191,172.94 83.8524,171.44 84.5,170C 82.4698,166.779 81.4698,163.279 81.5,159.5C 79.8762,159.64 78.7096,158.973 78,157.5C 77.5045,155.527 77.3379,153.527 77.5,151.5C 76.1266,151.657 74.7932,151.49 73.5,151C 73.7461,147.651 73.7461,144.151 73.5,140.5C 72.5,140.5 71.5,140.5 70.5,140.5C 70.4358,136.78 69.9358,133.114 69,129.5C 65.6667,128.167 65.6667,126.833 69,125.5C 69.3333,116.5 69.6667,107.5 70,98.5C 71.9883,92.7238 73.1549,86.7238 73.5,80.5C 74.5,80.5 75.5,80.5 76.5,80.5C 76.1568,78.5168 76.8235,77.1834 78.5,76.5 Z"/></g>
<g><path style="opacity:1" fill="#12100c" d="M 140.5,195.5 C 140.375,189.797 140.708,184.13 141.5,178.5C 143.117,170.267 146.617,162.933 152,156.5C 158.706,150.126 165.706,144.126 173,138.5C 178.716,132.441 182.216,125.274 183.5,117C 182.883,112.321 180.217,109.321 175.5,108C 169.154,106.716 163.32,107.883 158,111.5C 157.333,114.833 157.333,118.167 158,121.5C 159.278,125.165 160.444,128.832 161.5,132.5C 147.14,138.677 132.474,144.177 117.5,149C 114.323,150.85 111.157,152.683 108,154.5C 103.125,148.083 99.2912,141.083 96.5,133.5C 95.2042,128.607 93.5376,123.94 91.5,119.5C 89.7321,110.828 87.8988,102.161 86,93.5C 85.1994,86.1108 85.5328,78.7775 87,71.5C 105.74,53.2089 127.24,39.0422 151.5,29C 179.054,23.6201 206.388,24.6201 233.5,32C 236.327,36.4916 238.494,41.325 240,46.5C 247.463,74.8566 249.13,103.523 245,132.5C 244.319,134.895 243.485,137.228 242.5,139.5C 228.509,149.088 215.342,159.755 203,171.5C 198.849,176.799 196.682,182.799 196.5,189.5C 177.833,193.276 160.166,199.609 143.5,208.5C 142.376,204.214 141.376,199.881 140.5,195.5 Z"/></g>
<g><path style="opacity:1" fill="#a6910f" d="M 154.5,36.5 C 150.183,38.9405 145.517,40.6072 140.5,41.5C 144.695,38.7459 149.362,37.0792 154.5,36.5 Z"/></g>
<g><path style="opacity:1" fill="#fcdb01" d="M 238.5,66.5 C 238.625,73.0978 239.625,79.4312 241.5,85.5C 241.5,96.8333 241.5,108.167 241.5,119.5C 240.143,125.31 239.143,131.31 238.5,137.5C 228.196,144.657 217.862,151.824 207.5,159C 200.728,164.255 195.728,170.755 192.5,178.5C 190.735,181.123 190.068,184.123 190.5,187.5C 185.29,187.608 180.29,188.275 175.5,189.5C 166.924,190.915 158.924,193.915 151.5,198.5C 149.833,198.5 148.167,198.5 146.5,198.5C 146.309,190.799 146.642,183.132 147.5,175.5C 148.462,172.243 149.962,169.243 152,166.5C 158.255,160.241 165.088,154.741 172.5,150C 179.518,144.323 185.018,137.489 189,129.5C 193.843,116.518 189.676,108.185 176.5,104.5C 170.601,102.886 164.935,103.552 159.5,106.5C 156.628,107.526 154.128,109.192 152,111.5C 151.519,117.579 152.019,123.579 153.5,129.5C 147.434,131.021 141.434,132.855 135.5,135C 126.722,140.387 117.722,145.22 108.5,149.5C 103.707,133.48 99.374,117.48 95.5,101.5C 95.7489,97.5422 95.0823,93.8756 93.5,90.5C 92.4464,83.857 91.9464,77.1903 92,70.5C 106.052,57.3869 122.219,47.7202 140.5,41.5C 145.517,40.6072 150.183,38.9405 154.5,36.5C 178.905,31.1329 203.572,30.2996 228.5,34C 233.903,44.1695 237.237,55.0028 238.5,66.5 Z"/></g>
<g><path style="opacity:1" fill="#837413" d="M 238.5,66.5 C 240.453,72.5555 241.453,78.8888 241.5,85.5C 239.625,79.4312 238.625,73.0978 238.5,66.5 Z"/></g>
<g><path style="opacity:1" fill="#f4df8e" d="M 80.5,68.5 C 79.7974,77.1487 79.464,85.8154 79.5,94.5C 78.5104,88.69 78.1771,82.69 78.5,76.5C 78.9628,73.6697 79.6295,71.003 80.5,68.5 Z"/></g>
<g><path style="opacity:1" fill="#564b10" d="M 93.5,90.5 C 95.0823,93.8756 95.7489,97.5422 95.5,101.5C 93.783,98.1552 93.1164,94.4885 93.5,90.5 Z"/></g>
<g><path style="opacity:1" fill="#60540e" d="M 176.5,104.5 C 170.712,104.312 165.045,104.978 159.5,106.5C 164.935,103.552 170.601,102.886 176.5,104.5 Z"/></g>
<g><path style="opacity:1" fill="#bf811b" d="M 176.5,117.5 C 173.552,117.223 170.719,117.556 168,118.5C 167.505,121.531 167.671,124.531 168.5,127.5C 165.075,124.313 163.741,120.313 164.5,115.5C 168.182,115.335 171.848,115.501 175.5,116C 176.056,116.383 176.389,116.883 176.5,117.5 Z"/></g>
<g><path style="opacity:1" fill="#f4d023" d="M 176.5,117.5 C 175.22,122.726 172.887,127.393 169.5,131.5C 168.571,130.311 168.238,128.978 168.5,127.5C 167.671,124.531 167.505,121.531 168,118.5C 170.719,117.556 173.552,117.223 176.5,117.5 Z"/></g>
<g><path style="opacity:1" fill="#9c9c9c" d="M 91.5,119.5 C 93.5376,123.94 95.2042,128.607 96.5,133.5C 93.6761,129.37 92.0094,124.703 91.5,119.5 Z"/></g>
<g><path style="opacity:1" fill="#6b5d0d" d="M 241.5,119.5 C 241.6,125.82 240.6,131.82 238.5,137.5C 239.143,131.31 240.143,125.31 241.5,119.5 Z"/></g>
<g><path style="opacity:1" fill="#e9a502" d="M 35.5,-0.5 C 43.8333,-0.5 52.1667,-0.5 60.5,-0.5C 56.4233,5.61466 51.4233,10.948 45.5,15.5C 39.8163,24.3355 34.1496,33.1689 28.5,42C 28.6448,43.2259 28.9781,44.3926 29.5,45.5C 23.306,58.5381 18.306,72.0381 14.5,86C 14.8333,87 15.1667,88 15.5,89C 12.5377,101.712 11.5377,114.546 12.5,127.5C 13.552,127.351 14.552,127.517 15.5,128C 13.4486,130.387 11.1153,132.554 8.5,134.5C 7.36912,136.074 7.20245,137.741 8,139.5C 11.123,141.589 11.2896,140.922 8.5,137.5C 8.83333,137.167 9.16667,136.833 9.5,136.5C 11.5435,138.208 13.2101,140.208 14.5,142.5C 17.0708,153.286 19.9041,163.953 23,174.5C 28.1367,184.716 33.6367,194.55 39.5,204C 37.723,205.729 37.5563,207.895 39,210.5C 46.3289,219.328 54.1623,227.662 62.5,235.5C 72.1832,242.673 82.1832,249.339 92.5,255.5C 93.6473,255.182 94.4806,254.516 95,253.5C 99.7069,255.09 99.5402,256.256 94.5,257C 97.4055,258.037 100.239,259.204 103,260.5C 103.718,259.549 104.551,259.383 105.5,260C 106.376,261.586 107.376,263.086 108.5,264.5C 107.293,268.248 105.626,268.415 103.5,265C 106.332,263.092 105.999,262.259 102.5,262.5C 103.635,265.489 103.802,268.489 103,271.5C 104.491,269.996 106.324,269.163 108.5,269C 110,267.167 111.5,265.333 113,263.5C 124.723,268.28 136.889,271.114 149.5,272C 148.216,270.703 148.383,269.536 150,268.5C 150.49,269.793 150.657,271.127 150.5,272.5C 154.042,272.187 157.375,272.521 160.5,273.5C 137.5,273.5 114.5,273.5 91.5,273.5C 87.5956,272.508 83.5956,271.508 79.5,270.5C 77.8393,266.814 74.8393,264.814 70.5,264.5C 70.719,263.325 70.3857,262.325 69.5,261.5C 65.2481,259.206 60.9148,257.206 56.5,255.5C 54.9295,250.641 53.7628,245.641 53,240.5C 49.9269,239.383 46.7603,239.216 43.5,240C 42.8742,240.75 42.3742,241.584 42,242.5C 37.0034,237.171 34.1701,230.837 33.5,223.5C 32.6399,221.069 30.9732,219.736 28.5,219.5C 28.5,218.167 28.5,216.833 28.5,215.5C 27.1667,215.5 25.8333,215.5 24.5,215.5C 24.5,213.167 24.5,210.833 24.5,208.5C 23.5,208.5 22.5,208.5 21.5,208.5C 20.6865,204.061 19.0199,200.061 16.5,196.5C 15.5,196.5 14.5,196.5 13.5,196.5C 13.5,194.167 13.5,191.833 13.5,189.5C 12.1667,189.5 10.8333,189.5 9.5,189.5C 10.3529,184.218 9.18623,179.552 6,175.5C 5.50649,173.866 5.33982,172.199 5.5,170.5C 4.5,170.5 3.5,170.5 2.5,170.5C 2.64358,166.625 2.31024,162.792 1.5,159C 1.84426,157.635 2.51093,156.468 3.5,155.5C 2.62402,154.749 1.62402,154.249 0.5,154C 2.85719,152.78 2.52386,151.947 -0.5,151.5C -0.5,121.5 -0.5,91.5 -0.5,61.5C 3.09072,55.3004 5.92405,48.6337 8,41.5C 8.33333,45.5 8.66667,49.5 9,53.5C 9.49665,51.1902 9.66331,48.8568 9.5,46.5C 10.675,46.719 11.675,46.3857 12.5,45.5C 15.0686,41.2256 16.7353,36.5589 17.5,31.5C 18.5,31.5 19.5,31.5 20.5,31.5C 20.6741,29.139 21.0074,26.8056 21.5,24.5C 22.5,24.5 23.5,24.5 24.5,24.5C 24.5,23.1667 24.5,21.8333 24.5,20.5C 25.8221,20.67 26.9887,20.3366 28,19.5C 28.3333,16.1667 28.6667,12.8333 29,9.5C 30.9019,7.11591 32.0686,4.44924 32.5,1.5C 34.1788,1.71481 35.1788,1.04814 35.5,-0.5 Z"/></g>
<g><path style="opacity:1" fill="#e9a501" d="M 330.5,133.5 C 330.5,138.5 330.5,143.5 330.5,148.5C 329.514,152.997 328.68,157.664 328,162.5C 327.333,163.167 326.667,163.833 326,164.5C 325.502,167.817 325.335,171.15 325.5,174.5C 323.876,174.36 322.71,175.027 322,176.5C 321.502,179.482 321.335,182.482 321.5,185.5C 320.325,185.281 319.325,185.614 318.5,186.5C 317.626,188.747 317.292,191.08 317.5,193.5C 316.325,193.281 315.325,193.614 314.5,194.5C 311.943,200.261 309.11,205.928 306,211.5C 301.661,214.341 299.161,218.341 298.5,223.5C 297.5,223.5 296.5,223.5 295.5,223.5C 295.833,226.5 294.5,227.833 291.5,227.5C 291.719,228.675 291.386,229.675 290.5,230.5C 288.867,232.503 286.867,233.836 284.5,234.5C 284.833,237.5 283.5,238.833 280.5,238.5C 280.5,239.833 280.5,241.167 280.5,242.5C 279.167,242.5 277.833,242.5 276.5,242.5C 276.833,245.5 275.5,246.833 272.5,246.5C 272.649,247.552 272.483,248.552 272,249.5C 270.853,248.542 269.853,248.875 269,250.5C 268.517,251.448 268.351,252.448 268.5,253.5C 266.167,253.5 263.833,253.5 261.5,253.5C 261.5,254.833 261.5,256.167 261.5,257.5C 260.127,257.343 258.793,257.51 257.5,258C 256.167,258.667 256.167,259.333 257.5,260C 247.639,263.922 238.639,268.422 230.5,273.5C 210.5,273.5 190.5,273.5 170.5,273.5C 179.465,272.935 188.465,271.769 197.5,270C 208.652,266.806 219.652,263.14 230.5,259C 229.376,258.751 228.376,258.251 227.5,257.5C 236.005,251.411 245.005,246.078 254.5,241.5C 282.544,219.978 301.877,192.144 312.5,158C 312.355,157.228 312.022,156.561 311.5,156C 313.562,153.321 316.062,151.155 319,149.5C 319.116,147.345 318.783,145.345 318,143.5C 320.024,147.119 322.191,147.286 324.5,144C 321.145,144.795 320.645,143.628 323,140.5C 323.718,141.451 324.551,141.617 325.5,141C 325.185,138.902 325.185,136.902 325.5,135C 327.154,134.392 328.821,133.892 330.5,133.5 Z"/></g>
<g><path style="opacity:1" fill="#be7e15" d="M 240.5,29.5 C 243.051,31.5777 244.884,34.2444 246,37.5C 247.234,41.7152 248.734,45.7152 250.5,49.5C 252.044,59.5744 253.877,69.5744 256,79.5C 258.659,101.44 257.659,123.106 253,144.5C 252.044,145.579 251.211,146.745 250.5,148C 238.05,156.782 225.883,165.949 214,175.5C 208.387,181.335 205.72,188.335 206,196.5C 202.773,198.403 199.606,200.069 196.5,201.5C 186.142,198.602 186.809,197.102 198.5,197C 200.286,196.215 201.786,195.049 203,193.5C 203.237,187.374 204.904,181.707 208,176.5C 220.258,165.572 233.091,155.405 246.5,146C 248.049,144.786 249.215,143.286 250,141.5C 258.381,103.111 255.214,65.7779 240.5,29.5 Z"/></g>
<g><path style="opacity:1" fill="#be7e16" d="M 147.5,150.5 C 135.284,152.739 123.951,157.239 113.5,164C 111.167,164.667 108.833,164.667 106.5,164C 105.944,163.617 105.611,163.117 105.5,162.5C 106.873,162.657 108.207,162.49 109.5,162C 114.833,159 120.167,156 125.5,153C 135.165,150.752 144.498,147.585 153.5,143.5C 152.538,146.177 150.538,148.51 147.5,150.5 Z"/></g>
<g><path style="opacity:1" fill="#e79f02" d="M -0.5,151.5 C 2.52386,151.947 2.85719,152.78 0.5,154C 1.62402,154.249 2.62402,154.749 3.5,155.5C 2.51093,156.468 1.84426,157.635 1.5,159C 2.31024,162.792 2.64358,166.625 2.5,170.5C 3.5,170.5 4.5,170.5 5.5,170.5C 5.33982,172.199 5.50649,173.866 6,175.5C 9.18623,179.552 10.3529,184.218 9.5,189.5C 10.8333,189.5 12.1667,189.5 13.5,189.5C 13.5,191.833 13.5,194.167 13.5,196.5C 14.5,196.5 15.5,196.5 16.5,196.5C 19.0199,200.061 20.6865,204.061 21.5,208.5C 22.5,208.5 23.5,208.5 24.5,208.5C 24.5,210.833 24.5,213.167 24.5,215.5C 25.8333,215.5 27.1667,215.5 28.5,215.5C 28.5,216.833 28.5,218.167 28.5,219.5C 30.9732,219.736 32.6399,221.069 33.5,223.5C 34.1701,230.837 37.0034,237.171 42,242.5C 42.3742,241.584 42.8742,240.75 43.5,240C 46.7603,239.216 49.9269,239.383 53,240.5C 53.7628,245.641 54.9295,250.641 56.5,255.5C 60.9148,257.206 65.2481,259.206 69.5,261.5C 70.3857,262.325 70.719,263.325 70.5,264.5C 74.8393,264.814 77.8393,266.814 79.5,270.5C 83.5956,271.508 87.5956,272.508 91.5,273.5C 78.8333,273.5 66.1667,273.5 53.5,273.5C 49.6337,271.648 46.3003,268.981 43.5,265.5C 42.7542,264.264 42.4208,262.93 42.5,261.5C 41.5,261.5 40.5,261.5 39.5,261.5C 39.5,260.5 39.5,259.5 39.5,258.5C 38.1667,258.5 36.8333,258.5 35.5,258.5C 35.6567,257.127 35.49,255.793 35,254.5C 33.4152,253.624 32.4152,252.291 32,250.5C 30.9887,249.663 29.8221,249.33 28.5,249.5C 28.8333,246.5 27.5,245.167 24.5,245.5C 24.5,244.5 24.5,243.5 24.5,242.5C 23.5,242.5 22.5,242.5 21.5,242.5C 21.5,241.167 21.5,239.833 21.5,238.5C 20.1667,238.5 18.8333,238.5 17.5,238.5C 17.6633,236.143 17.4966,233.81 17,231.5C 16.586,231.043 16.086,230.709 15.5,230.5C 14.6922,232.423 14.1922,234.423 14,236.5C 9.25123,229.364 4.4179,222.364 -0.5,215.5C -0.5,194.167 -0.5,172.833 -0.5,151.5 Z"/></g>
<g><path style="opacity:1" fill="#e6a002" d="M 330.5,148.5 C 330.5,167.167 330.5,185.833 330.5,204.5C 327.253,205.252 323.919,205.752 320.5,206C 319.549,209.057 319.216,212.223 319.5,215.5C 321.5,215.833 323.5,216.167 325.5,216.5C 325.5,217.5 325.5,218.5 325.5,219.5C 324.167,219.5 322.833,219.5 321.5,219.5C 321.5,220.833 321.5,222.167 321.5,223.5C 320.167,223.5 318.833,223.5 317.5,223.5C 317.5,225.833 317.5,228.167 317.5,230.5C 316.167,230.5 314.833,230.5 313.5,230.5C 313.5,231.833 313.5,233.167 313.5,234.5C 312.5,234.5 311.5,234.5 310.5,234.5C 310.5,235.833 310.5,237.167 310.5,238.5C 309.167,238.5 307.833,238.5 306.5,238.5C 306.5,239.833 306.5,241.167 306.5,242.5C 305.167,242.5 303.833,242.5 302.5,242.5C 300.078,247.01 296.578,250.677 292,253.5C 291.51,254.793 291.343,256.127 291.5,257.5C 289.266,258.704 286.933,259.87 284.5,261C 283.663,262.011 283.33,263.178 283.5,264.5C 282.5,264.5 281.5,264.5 280.5,264.5C 280.5,265.833 280.5,267.167 280.5,268.5C 279.167,268.5 277.833,268.5 276.5,268.5C 276.5,269.833 276.5,271.167 276.5,272.5C 273.615,272.194 270.948,272.527 268.5,273.5C 255.833,273.5 243.167,273.5 230.5,273.5C 238.639,268.422 247.639,263.922 257.5,260C 256.167,259.333 256.167,258.667 257.5,258C 258.793,257.51 260.127,257.343 261.5,257.5C 261.5,256.167 261.5,254.833 261.5,253.5C 263.833,253.5 266.167,253.5 268.5,253.5C 268.351,252.448 268.517,251.448 269,250.5C 269.853,248.875 270.853,248.542 272,249.5C 272.483,248.552 272.649,247.552 272.5,246.5C 275.5,246.833 276.833,245.5 276.5,242.5C 277.833,242.5 279.167,242.5 280.5,242.5C 280.5,241.167 280.5,239.833 280.5,238.5C 283.5,238.833 284.833,237.5 284.5,234.5C 286.867,233.836 288.867,232.503 290.5,230.5C 291.386,229.675 291.719,228.675 291.5,227.5C 294.5,227.833 295.833,226.5 295.5,223.5C 296.5,223.5 297.5,223.5 298.5,223.5C 299.161,218.341 301.661,214.341 306,211.5C 309.11,205.928 311.943,200.261 314.5,194.5C 315.325,193.614 316.325,193.281 317.5,193.5C 317.292,191.08 317.626,188.747 318.5,186.5C 319.325,185.614 320.325,185.281 321.5,185.5C 321.335,182.482 321.502,179.482 322,176.5C 322.71,175.027 323.876,174.36 325.5,174.5C 325.335,171.15 325.502,167.817 326,164.5C 326.667,163.833 327.333,163.167 328,162.5C 328.68,157.664 329.514,152.997 330.5,148.5 Z"/></g>
<g><path style="opacity:1" fill="#a0a0a0" d="M 141.5,178.5 C 140.708,184.13 140.375,189.797 140.5,195.5C 139.837,193.359 139.503,191.025 139.5,188.5C 139.315,184.859 139.981,181.526 141.5,178.5 Z"/></g>
<g><path style="opacity:1" fill="#3f370e" d="M 192.5,178.5 C 191.949,181.807 191.616,185.14 191.5,188.5C 186.178,188.98 180.845,189.313 175.5,189.5C 180.29,188.275 185.29,187.608 190.5,187.5C 190.068,184.123 190.735,181.123 192.5,178.5 Z"/></g>
<g><path style="opacity:1" fill="#c1aa0e" d="M 147.5,175.5 C 146.642,183.132 146.309,190.799 146.5,198.5C 148.167,198.5 149.833,198.5 151.5,198.5C 149.97,200.346 147.97,201.346 145.5,201.5C 144.513,195.195 144.347,188.862 145,182.5C 145.39,179.896 146.224,177.562 147.5,175.5 Z"/></g>
<g><path style="opacity:1" fill="#e49802" d="M 330.5,204.5 C 330.5,227.5 330.5,250.5 330.5,273.5C 309.833,273.5 289.167,273.5 268.5,273.5C 270.948,272.527 273.615,272.194 276.5,272.5C 276.5,271.167 276.5,269.833 276.5,268.5C 277.833,268.5 279.167,268.5 280.5,268.5C 280.5,267.167 280.5,265.833 280.5,264.5C 281.5,264.5 282.5,264.5 283.5,264.5C 283.33,263.178 283.663,262.011 284.5,261C 286.933,259.87 289.266,258.704 291.5,257.5C 291.343,256.127 291.51,254.793 292,253.5C 296.578,250.677 300.078,247.01 302.5,242.5C 303.833,242.5 305.167,242.5 306.5,242.5C 306.5,241.167 306.5,239.833 306.5,238.5C 307.833,238.5 309.167,238.5 310.5,238.5C 310.5,237.167 310.5,235.833 310.5,234.5C 311.5,234.5 312.5,234.5 313.5,234.5C 313.5,233.167 313.5,231.833 313.5,230.5C 314.833,230.5 316.167,230.5 317.5,230.5C 317.5,228.167 317.5,225.833 317.5,223.5C 318.833,223.5 320.167,223.5 321.5,223.5C 321.5,222.167 321.5,220.833 321.5,219.5C 322.833,219.5 324.167,219.5 325.5,219.5C 325.5,218.5 325.5,217.5 325.5,216.5C 323.5,216.167 321.5,215.833 319.5,215.5C 319.216,212.223 319.549,209.057 320.5,206C 323.919,205.752 327.253,205.252 330.5,204.5 Z"/></g>
<g><path style="opacity:1" fill="#13120f" d="M 173.5,205.5 C 184.888,203.8 194.722,206.8 203,214.5C 209.371,226.222 207.204,236.056 196.5,244C 183.935,251.847 170.268,254.847 155.5,253C 143.137,245.569 140.303,235.402 147,222.5C 154.058,213.898 162.892,208.231 173.5,205.5 Z"/></g>
<g><path style="opacity:1" fill="#f9d804" d="M 179.5,210.5 C 187.969,209.157 195.136,211.49 201,217.5C 202.537,226.259 199.371,232.759 191.5,237C 180.645,243.969 168.978,246.302 156.5,244C 150.314,238.67 149.147,232.503 153,225.5C 160.218,217.479 169.051,212.479 179.5,210.5 Z"/></g>
<g><path style="opacity:1" fill="#e59802" d="M -0.5,215.5 C 4.4179,222.364 9.25123,229.364 14,236.5C 14.1922,234.423 14.6922,232.423 15.5,230.5C 16.086,230.709 16.586,231.043 17,231.5C 17.4966,233.81 17.6633,236.143 17.5,238.5C 18.8333,238.5 20.1667,238.5 21.5,238.5C 21.5,239.833 21.5,241.167 21.5,242.5C 22.5,242.5 23.5,242.5 24.5,242.5C 24.5,243.5 24.5,244.5 24.5,245.5C 27.5,245.167 28.8333,246.5 28.5,249.5C 29.8221,249.33 30.9887,249.663 32,250.5C 32.4152,252.291 33.4152,253.624 35,254.5C 35.49,255.793 35.6567,257.127 35.5,258.5C 36.8333,258.5 38.1667,258.5 39.5,258.5C 39.5,259.5 39.5,260.5 39.5,261.5C 40.5,261.5 41.5,261.5 42.5,261.5C 42.4208,262.93 42.7542,264.264 43.5,265.5C 46.3003,268.981 49.6337,271.648 53.5,273.5C 35.5,273.5 17.5,273.5 -0.5,273.5C -0.5,254.167 -0.5,234.833 -0.5,215.5 Z"/></g>
<g><path style="opacity:1" fill="#bf7d12" d="M 210.5,213.5 C 212.796,214.733 214.13,216.733 214.5,219.5C 216.215,223.966 216.882,228.633 216.5,233.5C 214.779,240.422 211.113,246.255 205.5,251C 193.51,258.886 180.344,263.386 166,264.5C 159.371,264.426 153.871,262.093 149.5,257.5C 155.673,261.186 162.34,262.352 169.5,261C 180.885,258.982 191.552,254.982 201.5,249C 213.216,239.354 216.216,227.521 210.5,213.5 Z"/></g>
</svg>
