<?xml version="1.0" encoding="UTF-8"?>
<!DOCTYPE svg PUBLIC "-//W3C//DTD SVG 1.1//EN" "http://www.w3.org/Graphics/SVG/1.1/DTD/svg11.dtd">
<svg xmlns="http://www.w3.org/2000/svg" version="1.1" width="289px" height="302px" style="shape-rendering:geometricPrecision; text-rendering:geometricPrecision; image-rendering:optimizeQuality; fill-rule:evenodd; clip-rule:evenodd" xmlns:xlink="http://www.w3.org/1999/xlink">
<g><path style="opacity:1" fill="#f1f2f3" d="M -0.5,-0.5 C 95.8333,-0.5 192.167,-0.5 288.5,-0.5C 288.5,1.83333 288.5,4.16667 288.5,6.5C 285.371,4.83044 282.538,5.16378 280,7.5C 278.582,5.63681 276.749,5.13681 274.5,6C 275.476,8.14691 275.309,10.3136 274,12.5C 272.919,10.272 272.419,7.93868 272.5,5.5C 266.475,5.98345 260.641,5.98345 255,5.5C 253.903,7.05264 252.57,8.38598 251,9.5C 250.682,7.93908 249.849,6.77241 248.5,6C 246.343,5.92191 244.343,5.75524 242.5,5.5C 241.719,6.72865 241.219,8.06199 241,9.5C 240.781,8.06199 240.281,6.72865 239.5,5.5C 238.808,6.02527 238.308,6.69194 238,7.5C 235.771,4.84376 233.938,5.1771 232.5,8.5C 232.846,9.69559 233.346,9.69559 234,8.5C 235.251,11.7022 236.085,14.7022 236.5,17.5C 235.277,18.6139 233.944,18.7805 232.5,18C 233.516,17.4806 234.182,16.6473 234.5,15.5C 233.682,12.705 232.015,10.5383 229.5,9C 231.559,7.81452 231.726,6.64786 230,5.5C 224.258,5.99789 218.758,5.99789 213.5,5.5C 212.167,5.66667 210.833,5.83333 209.5,6C 211.5,7 213.5,8 215.5,9C 214.671,10.8161 213.837,12.6494 213,14.5C 212.329,15.2524 211.496,15.5858 210.5,15.5C 210.294,11.9837 208.961,8.98365 206.5,6.5C 201.52,6.75157 196.52,6.41824 191.5,5.5C 191.218,10.579 190.218,10.7457 188.5,6C 186.167,5.83333 183.833,5.66667 181.5,5.5C 176.262,6.17682 170.929,6.34348 165.5,6C 164.033,7.09754 163.199,8.59754 163,10.5C 161.644,9.61983 160.144,9.28649 158.5,9.5C 158.474,13.3669 159.641,14.0336 162,11.5C 163.057,12.6274 164.223,13.1274 165.5,13C 165.64,11.7361 165.64,10.5695 165.5,9.5C 168.276,12.9216 170.776,12.9216 173,9.5C 172.503,11.1984 172.67,12.8651 173.5,14.5C 172.689,15.2164 172.022,16.0497 171.5,17C 171.85,18.2575 172.517,18.5908 173.5,18C 174.865,13.2773 175.532,13.444 175.5,18.5C 175.351,20.3197 174.684,21.8197 173.5,23C 174.517,24.0495 174.684,25.2161 174,26.5C 172.989,25.6634 171.822,25.33 170.5,25.5C 171.263,28.1411 171.43,30.8078 171,33.5C 168.004,32.0283 167.171,29.8616 168.5,27C 164.305,23.2681 164.472,22.4348 169,24.5C 172.247,23.3559 172.081,22.3559 168.5,21.5C 170.225,19.0433 170.725,16.3766 170,13.5C 167.619,16.2199 165.619,19.2199 164,22.5C 163.667,21.8333 163.333,21.1667 163,20.5C 162,20.8333 161,21.1667 160,21.5C 159.71,19.9559 159.044,18.6226 158,17.5C 157.333,20.1667 156.667,20.1667 156,17.5C 154.926,18.6184 153.76,19.6184 152.5,20.5C 154.269,22.557 156.269,24.3903 158.5,26C 157.833,26.3333 157.167,26.6667 156.5,27C 158.442,29.0338 160.275,31.2005 162,33.5C 161.638,35.8734 162.305,38.2068 164,40.5C 164.833,39.6667 165.667,38.8333 166.5,38C 164.424,36.1159 164.09,33.9492 165.5,31.5C 165.384,34.4366 167.05,36.4366 170.5,37.5C 169.5,38.1667 168.5,38.8333 167.5,39.5C 168.609,41.2141 167.942,41.8808 165.5,41.5C 165.649,42.552 165.483,43.552 165,44.5C 163.579,41.9906 161.912,39.6572 160,37.5C 159.667,37.8333 159.333,38.1667 159,38.5C 158.333,37.5 158.333,36.5 159,35.5C 159.889,36.8882 160.389,36.7215 160.5,35C 158.107,32.0067 156.107,28.84 154.5,25.5C 152.958,24.2532 151.458,24.2532 150,25.5C 149.316,24.2161 149.483,23.0495 150.5,22C 148.248,22.0496 146.582,23.2163 145.5,25.5C 144.617,23.2567 145.451,21.59 148,20.5C 148.688,19.6683 148.521,19.0016 147.5,18.5C 144.903,20.4081 142.569,22.2415 140.5,24C 140.13,22.3903 140.797,20.8903 142.5,19.5C 141.659,16.7485 142.659,14.5818 145.5,13C 146.5,12.3333 147.5,12.3333 148.5,13C 150.058,19.2699 152.558,19.7699 156,14.5C 156.333,14.8333 156.667,15.1667 157,15.5C 156.391,12.2805 157.225,9.28051 159.5,6.5C 159,6.16667 158.5,5.83333 158,5.5C 156.674,6.7989 155.34,8.13224 154,9.5C 154.148,8.17503 153.982,7.00836 153.5,6C 149.74,4.92884 146.74,5.92884 144.5,9C 145.738,8.92273 146.738,9.0894 147.5,9.5C 147.113,10.7199 146.28,11.3865 145,11.5C 143.726,10.4647 142.56,9.29799 141.5,8C 141.957,7.58605 142.291,7.08605 142.5,6.5C 138.229,4.79943 135.229,6.13276 133.5,10.5C 134.36,12.9307 136.027,14.264 138.5,14.5C 140.159,17.5336 139.659,20.2003 137,22.5C 136.308,21.9747 135.808,21.3081 135.5,20.5C 136.811,19.7425 137.311,18.7425 137,17.5C 135.265,14.6377 133.098,12.3044 130.5,10.5C 133.251,7.29308 132.584,6.29308 128.5,7.5C 127.353,7.18223 126.519,6.51556 126,5.5C 125.915,7.08462 125.749,8.41795 125.5,9.5C 124.571,8.31116 124.238,6.97782 124.5,5.5C 118.858,5.76686 113.191,6.1002 107.5,6.5C 109.743,6.73456 111.743,8.06789 113.5,10.5C 111.009,11.5407 111.009,12.3741 113.5,13C 110.941,16.0391 109.774,15.2057 110,10.5C 109.667,10.8333 109.333,11.1667 109,11.5C 107.829,10.1068 106.329,9.27346 104.5,9C 106.868,7.26459 106.368,6.09793 103,5.5C 100.578,5.95443 98.0777,6.1211 95.5,6C 96.6226,7.04373 97.9559,7.71039 99.5,8C 98.2341,8.30945 97.0674,8.80945 96,9.5C 94.2691,4.38694 92.9358,4.38694 92,9.5C 91.7104,7.95594 91.0437,6.62261 90,5.5C 87.1417,6.11244 83.975,6.44577 80.5,6.5C 82.9212,9.92527 84.9212,13.5919 86.5,17.5C 87.6753,16.1451 88.6753,16.3117 89.5,18C 88.5,18.3333 87.5,18.6667 86.5,19C 87.4506,19.7175 87.6172,20.5509 87,21.5C 85.0565,19.8492 83.5565,17.8492 82.5,15.5C 81.2798,16.7111 80.1131,16.7111 79,15.5C 78.5983,14.1279 78.0983,12.7946 77.5,11.5C 78.5,10.6667 79.5,9.83333 80.5,9C 77.9182,7.28712 75.2516,6.78712 72.5,7.5C 70.1192,5.60752 67.4525,5.10752 64.5,6C 65.7112,6.89277 65.7112,7.7261 64.5,8.5C 63.1861,7.68723 62.0195,6.68723 61,5.5C 59.6667,6.83333 58.3333,6.83333 57,5.5C 54.8025,8.10521 54.3025,10.9385 55.5,14C 54.2744,15.6349 52.941,17.1349 51.5,18.5C 51.1667,18 50.8333,17.5 50.5,17C 51.2887,15.3745 52.2887,13.8745 53.5,12.5C 52.8333,11.1667 52.1667,9.83333 51.5,8.5C 52.376,7.74917 53.376,7.24917 54.5,7C 54,6.5 53.5,6 53,5.5C 49.0431,6.74128 45.2098,6.74128 41.5,5.5C 41.4567,8.08775 40.4567,10.2544 38.5,12C 39.6226,13.0437 40.9559,13.7104 42.5,14C 44.2112,15.1332 44.7112,16.6332 44,18.5C 40.6623,13.0938 39.829,13.5938 41.5,20C 41.1416,22.0324 40.3083,23.8657 39,25.5C 37.8647,25.273 36.698,24.9396 35.5,24.5C 37.5881,20.1563 36.2548,18.1563 31.5,18.5C 31.5,19.8333 31.5,21.1667 31.5,22.5C 29.4727,22.3379 27.4727,22.5045 25.5,23C 29.1658,23.3905 29.3324,24.5571 26,26.5C 24.575,25.7877 23.075,25.621 21.5,26C 24.4685,23.8223 24.1351,22.6556 20.5,22.5C 20.528,24.5824 19.8613,26.4157 18.5,28C 20.3348,28.9277 20.6682,30.0944 19.5,31.5C 20.0016,32.521 20.6683,32.6877 21.5,32C 22.0712,30.7949 22.7379,29.6283 23.5,28.5C 23.8333,29.1667 24.1667,29.8333 24.5,30.5C 23.2935,32.4486 21.6268,33.9486 19.5,35C 20.5634,36.1882 21.8967,36.6882 23.5,36.5C 22.5189,40.46 23.1856,44.2933 25.5,48C 25,48.5 24.5,49 24,49.5C 22.2347,44.5934 20.4014,40.0934 18.5,36C 18.1667,35.8333 17.8333,35.6667 17.5,35.5C 16.1667,39.5 14.8333,39.5 13.5,35.5C 12.5224,35.9767 11.6891,36.6433 11,37.5C 10.3189,35.4708 9.98558,33.4708 10,31.5C 10.9147,32.3279 11.5814,33.3279 12,34.5C 12.3333,33.8333 12.6667,33.1667 13,32.5C 14.4007,34.1922 16.2341,34.8588 18.5,34.5C 18.6567,33.1266 18.49,31.7932 18,30.5C 16.2434,30.8671 14.7434,30.0338 13.5,28C 14.7155,25.9045 15.5488,26.0712 16,28.5C 19.152,25.1456 18.4853,22.479 14,20.5C 12.7387,20.7591 11.7387,21.4258 11,22.5C 8.35348,19.6386 6.52014,20.1386 5.5,24C 5.6448,24.772 5.97814,25.4387 6.5,26C 6,26.1667 5.5,26.3333 5,26.5C 4.29753,25.2052 3.63086,23.8719 3,22.5C 2.66667,24.1667 2.33333,25.8333 2,27.5C 1.58309,28.756 0.749754,29.4226 -0.5,29.5C -0.5,19.5 -0.5,9.5 -0.5,-0.5 Z"/></g>
<g><path style="opacity:1" fill="#f2f2f2" d="M 130.5,10.5 C 128.873,13.0642 127.206,15.7308 125.5,18.5C 125.833,19.1667 126.167,19.8333 126.5,20.5C 124.581,23.9421 122.914,27.4421 121.5,31C 121.833,31.3333 122.167,31.6667 122.5,32C 120.15,34.3728 119.983,36.8728 122,39.5C 123.729,36.0725 125.563,32.7392 127.5,29.5C 127.498,31.741 127.832,34.0743 128.5,36.5C 130.391,32.3092 133.058,31.6426 136.5,34.5C 137.647,34.1822 138.481,33.5156 139,32.5C 139.862,34.087 140.529,35.7536 141,37.5C 141.308,36.6919 141.808,36.0253 142.5,35.5C 143.711,36.2739 143.711,37.1072 142.5,38C 144.329,38.2735 145.829,39.1068 147,40.5C 147.75,39.8742 148.584,39.3742 149.5,39C 148.044,38.5774 147.544,37.7441 148,36.5C 149.205,37.0712 150.372,37.7379 151.5,38.5C 149.993,40.9686 150.327,43.1353 152.5,45C 150.82,45.0343 149.32,45.201 148,45.5C 146.167,48.6667 144.333,51.8333 142.5,55C 143.167,55.6667 143.833,56.3333 144.5,57C 143.141,58.2045 142.141,59.7045 141.5,61.5C 140.749,60.624 140.249,59.624 140,58.5C 139.086,59.6537 138.253,59.487 137.5,58C 138.91,57.6322 139.91,56.7989 140.5,55.5C 139.846,53.8849 139.346,52.2182 139,50.5C 138.581,51.6721 137.915,52.6721 137,53.5C 136.808,51.4233 136.308,49.4233 135.5,47.5C 134.131,49.124 132.464,49.624 130.5,49C 132.037,47.8904 132.703,46.3904 132.5,44.5C 128.794,44.7698 127.461,46.6031 128.5,50C 126.667,50.5 125.5,51.6667 125,53.5C 124.091,56.5127 123.258,59.5127 122.5,62.5C 105.254,64.0644 87.921,65.0644 70.5,65.5C 55.7934,65.1271 41.1267,65.6271 26.5,67C 25.944,67.3826 25.6107,67.8826 25.5,68.5C 22.3189,69.3485 19.6523,71.0152 17.5,73.5C 14.6257,77.2593 12.7924,81.5926 12,86.5C 11.5002,96.4944 11.3335,106.494 11.5,116.5C 11.8293,122.537 11.4959,128.537 10.5,134.5C 6.43505,132.326 5.60172,129.326 8,125.5C 8.41395,125.957 8.91395,126.291 9.5,126.5C 10.8333,124.833 10.8333,123.167 9.5,121.5C 8.74917,122.376 8.24917,123.376 8,124.5C 6.93422,122.901 5.43422,121.901 3.5,121.5C 2.4763,122.853 1.14297,123.52 -0.5,123.5C -0.5,92.1667 -0.5,60.8333 -0.5,29.5C 0.749754,29.4226 1.58309,28.756 2,27.5C 2.33333,25.8333 2.66667,24.1667 3,22.5C 3.63086,23.8719 4.29753,25.2052 5,26.5C 5.5,26.3333 6,26.1667 6.5,26C 5.97814,25.4387 5.6448,24.772 5.5,24C 6.52014,20.1386 8.35348,19.6386 11,22.5C 11.7387,21.4258 12.7387,20.7591 14,20.5C 18.4853,22.479 19.152,25.1456 16,28.5C 15.5488,26.0712 14.7155,25.9045 13.5,28C 14.7434,30.0338 16.2434,30.8671 18,30.5C 18.49,31.7932 18.6567,33.1266 18.5,34.5C 16.2341,34.8588 14.4007,34.1922 13,32.5C 12.6667,33.1667 12.3333,33.8333 12,34.5C 11.5814,33.3279 10.9147,32.3279 10,31.5C 9.98558,33.4708 10.3189,35.4708 11,37.5C 11.6891,36.6433 12.5224,35.9767 13.5,35.5C 14.8333,39.5 16.1667,39.5 17.5,35.5C 17.8333,35.6667 18.1667,35.8333 18.5,36C 20.4014,40.0934 22.2347,44.5934 24,49.5C 24.5,49 25,48.5 25.5,48C 23.1856,44.2933 22.5189,40.46 23.5,36.5C 21.8967,36.6882 20.5634,36.1882 19.5,35C 21.6268,33.9486 23.2935,32.4486 24.5,30.5C 24.1667,29.8333 23.8333,29.1667 23.5,28.5C 22.7379,29.6283 22.0712,30.7949 21.5,32C 20.6683,32.6877 20.0016,32.521 19.5,31.5C 20.6682,30.0944 20.3348,28.9277 18.5,28C 19.8613,26.4157 20.528,24.5824 20.5,22.5C 24.1351,22.6556 24.4685,23.8223 21.5,26C 23.075,25.621 24.575,25.7877 26,26.5C 29.3324,24.5571 29.1658,23.3905 25.5,23C 27.4727,22.5045 29.4727,22.3379 31.5,22.5C 31.5,21.1667 31.5,19.8333 31.5,18.5C 36.2548,18.1563 37.5881,20.1563 35.5,24.5C 36.698,24.9396 37.8647,25.273 39,25.5C 40.3083,23.8657 41.1416,22.0324 41.5,20C 39.829,13.5938 40.6623,13.0938 44,18.5C 44.7112,16.6332 44.2112,15.1332 42.5,14C 40.9559,13.7104 39.6226,13.0437 38.5,12C 40.4567,10.2544 41.4567,8.08775 41.5,5.5C 45.2098,6.74128 49.0431,6.74128 53,5.5C 53.5,6 54,6.5 54.5,7C 53.376,7.24917 52.376,7.74917 51.5,8.5C 52.1667,9.83333 52.8333,11.1667 53.5,12.5C 52.2887,13.8745 51.2887,15.3745 50.5,17C 50.8333,17.5 51.1667,18 51.5,18.5C 52.941,17.1349 54.2744,15.6349 55.5,14C 54.3025,10.9385 54.8025,8.10521 57,5.5C 58.3333,6.83333 59.6667,6.83333 61,5.5C 62.0195,6.68723 63.1861,7.68723 64.5,8.5C 65.7112,7.7261 65.7112,6.89277 64.5,6C 67.4525,5.10752 70.1192,5.60752 72.5,7.5C 75.2516,6.78712 77.9182,7.28712 80.5,9C 79.5,9.83333 78.5,10.6667 77.5,11.5C 78.0983,12.7946 78.5983,14.1279 79,15.5C 80.1131,16.7111 81.2798,16.7111 82.5,15.5C 83.5565,17.8492 85.0565,19.8492 87,21.5C 87.6172,20.5509 87.4506,19.7175 86.5,19C 87.5,18.6667 88.5,18.3333 89.5,18C 88.6753,16.3117 87.6753,16.1451 86.5,17.5C 84.9212,13.5919 82.9212,9.92527 80.5,6.5C 83.975,6.44577 87.1417,6.11244 90,5.5C 91.0437,6.62261 91.7104,7.95594 92,9.5C 92.9358,4.38694 94.2691,4.38694 96,9.5C 97.0674,8.80945 98.2341,8.30945 99.5,8C 97.9559,7.71039 96.6226,7.04373 95.5,6C 98.0777,6.1211 100.578,5.95443 103,5.5C 106.368,6.09793 106.868,7.26459 104.5,9C 106.329,9.27346 107.829,10.1068 109,11.5C 109.333,11.1667 109.667,10.8333 110,10.5C 109.774,15.2057 110.941,16.0391 113.5,13C 111.009,12.3741 111.009,11.5407 113.5,10.5C 111.743,8.06789 109.743,6.73456 107.5,6.5C 113.191,6.1002 118.858,5.76686 124.5,5.5C 124.238,6.97782 124.571,8.31116 125.5,9.5C 125.749,8.41795 125.915,7.08462 126,5.5C 126.519,6.51556 127.353,7.18223 128.5,7.5C 132.584,6.29308 133.251,7.29308 130.5,10.5 Z"/></g>
<g><path style="opacity:1" fill="#f1f1f2" d="M 210.5,15.5 C 209.04,13.6651 207.707,11.6651 206.5,9.5C 205.762,13.1291 205.929,16.7957 207,20.5C 207.984,18.2053 208.817,18.5386 209.5,21.5C 209.154,22.6956 208.654,22.6956 208,21.5C 207.808,23.5767 207.308,25.5767 206.5,27.5C 203.994,25.4936 201.827,23.1603 200,20.5C 197.924,24.0439 196.591,23.3772 196,18.5C 195.727,20.1012 195.227,21.6012 194.5,23C 195.685,24.353 197.019,25.5197 198.5,26.5C 198.192,27.3081 197.692,27.9747 197,28.5C 195.951,27.4829 194.784,27.3162 193.5,28C 193.037,30.5849 191.87,32.7516 190,34.5C 189.517,33.552 189.351,32.552 189.5,31.5C 188.448,31.3505 187.448,31.5172 186.5,32C 187.43,33.1939 188.097,34.5272 188.5,36C 186.966,37.7499 186.133,39.5833 186,41.5C 185.308,40.9747 184.808,40.3081 184.5,39.5C 185.975,36.7546 185.309,34.588 182.5,33C 183.479,31.2215 183.146,29.5548 181.5,28C 180.275,27.4372 179.275,27.7705 178.5,29C 179.872,30.2419 180.872,31.7419 181.5,33.5C 179.2,34.2779 177.034,35.2779 175,36.5C 174.228,36.3552 173.561,36.0219 173,35.5C 171.835,38.4212 171.335,41.5879 171.5,45C 172.025,45.6924 172.692,46.1924 173.5,46.5C 174.281,45.2713 174.781,43.938 175,42.5C 175.333,43.1667 175.667,43.8333 176,44.5C 177.505,42.7017 177.672,40.8684 176.5,39C 178.243,36.9362 180.243,36.4362 182.5,37.5C 181.62,40.9524 182.953,43.4524 186.5,45C 184.381,45.0976 182.714,45.9309 181.5,47.5C 184.341,49.8323 187.508,51.4989 191,52.5C 193.005,49.1298 195.005,45.7965 197,42.5C 198.085,44.6574 199.251,44.8241 200.5,43C 199.073,41.2531 197.573,40.0865 196,39.5C 195.304,36.5219 194.804,33.5219 194.5,30.5C 196.367,30.955 198.2,31.6216 200,32.5C 201.366,32.2935 202.699,31.9602 204,31.5C 205.28,31.6135 206.113,32.2801 206.5,33.5C 203.833,34.1667 201.167,34.8333 198.5,35.5C 197.754,36.7362 197.421,38.0695 197.5,39.5C 200.942,39.0318 203.609,40.1984 205.5,43C 204.953,43.9246 204.287,44.7579 203.5,45.5C 201.833,45.5 200.167,45.5 198.5,45.5C 197.686,47.7662 197.186,50.0995 197,52.5C 196.781,51.062 196.281,49.7287 195.5,48.5C 194.686,50.7662 194.186,53.0995 194,55.5C 193.25,56.1258 192.416,56.6258 191.5,57C 194.5,57.6667 197.5,57.6667 200.5,57C 198.485,55.4447 198.152,53.6114 199.5,51.5C 200.806,52.9122 201.64,54.5789 202,56.5C 202.583,54.9984 203.416,53.6651 204.5,52.5C 205.906,53.9507 207.406,55.2841 209,56.5C 209.333,54.8333 209.667,53.1667 210,51.5C 211.594,52.5734 213.094,53.5734 214.5,54.5C 213.271,55.2811 211.938,55.7811 210.5,56C 213.662,56.4455 216.662,55.9455 219.5,54.5C 219.5,53.5 219.5,52.5 219.5,51.5C 221.592,51.5614 223.092,52.5614 224,54.5C 225.297,53.2164 226.464,53.3831 227.5,55C 226.833,55.3333 226.167,55.6667 225.5,56C 227.833,56.3333 230.167,56.6667 232.5,57C 229.833,57.3333 227.167,57.6667 224.5,58C 226.983,58.2872 229.65,58.9538 232.5,60C 231.241,60.9234 229.908,61.7568 228.5,62.5C 229.602,63.1757 230.602,63.8423 231.5,64.5C 222.935,62.5169 214.268,61.1836 205.5,60.5C 205.553,63.0606 204.553,65.0606 202.5,66.5C 202.08,64.674 202.08,62.674 202.5,60.5C 175.818,60.6578 149.152,61.3245 122.5,62.5C 123.258,59.5127 124.091,56.5127 125,53.5C 125.5,51.6667 126.667,50.5 128.5,50C 127.461,46.6031 128.794,44.7698 132.5,44.5C 132.703,46.3904 132.037,47.8904 130.5,49C 132.464,49.624 134.131,49.124 135.5,47.5C 136.308,49.4233 136.808,51.4233 137,53.5C 137.915,52.6721 138.581,51.6721 139,50.5C 139.346,52.2182 139.846,53.8849 140.5,55.5C 139.91,56.7989 138.91,57.6322 137.5,58C 138.253,59.487 139.086,59.6537 140,58.5C 140.249,59.624 140.749,60.624 141.5,61.5C 142.141,59.7045 143.141,58.2045 144.5,57C 143.833,56.3333 143.167,55.6667 142.5,55C 144.333,51.8333 146.167,48.6667 148,45.5C 149.32,45.201 150.82,45.0343 152.5,45C 150.327,43.1353 149.993,40.9686 151.5,38.5C 150.372,37.7379 149.205,37.0712 148,36.5C 147.544,37.7441 148.044,38.5774 149.5,39C 148.584,39.3742 147.75,39.8742 147,40.5C 145.829,39.1068 144.329,38.2735 142.5,38C 143.711,37.1072 143.711,36.2739 142.5,35.5C 141.808,36.0253 141.308,36.6919 141,37.5C 140.529,35.7536 139.862,34.087 139,32.5C 138.481,33.5156 137.647,34.1822 136.5,34.5C 133.058,31.6426 130.391,32.3092 128.5,36.5C 127.832,34.0743 127.498,31.741 127.5,29.5C 125.563,32.7392 123.729,36.0725 122,39.5C 119.983,36.8728 120.15,34.3728 122.5,32C 122.167,31.6667 121.833,31.3333 121.5,31C 122.914,27.4421 124.581,23.9421 126.5,20.5C 126.167,19.8333 125.833,19.1667 125.5,18.5C 127.206,15.7308 128.873,13.0642 130.5,10.5C 133.098,12.3044 135.265,14.6377 137,17.5C 137.311,18.7425 136.811,19.7425 135.5,20.5C 135.808,21.3081 136.308,21.9747 137,22.5C 139.659,20.2003 140.159,17.5336 138.5,14.5C 136.027,14.264 134.36,12.9307 133.5,10.5C 135.229,6.13276 138.229,4.79943 142.5,6.5C 142.291,7.08605 141.957,7.58605 141.5,8C 142.56,9.29799 143.726,10.4647 145,11.5C 146.28,11.3865 147.113,10.7199 147.5,9.5C 146.738,9.0894 145.738,8.92273 144.5,9C 146.74,5.92884 149.74,4.92884 153.5,6C 153.982,7.00836 154.148,8.17503 154,9.5C 155.34,8.13224 156.674,6.7989 158,5.5C 158.5,5.83333 159,6.16667 159.5,6.5C 157.225,9.28051 156.391,12.2805 157,15.5C 156.667,15.1667 156.333,14.8333 156,14.5C 152.558,19.7699 150.058,19.2699 148.5,13C 147.5,12.3333 146.5,12.3333 145.5,13C 142.659,14.5818 141.659,16.7485 142.5,19.5C 140.797,20.8903 140.13,22.3903 140.5,24C 142.569,22.2415 144.903,20.4081 147.5,18.5C 148.521,19.0016 148.688,19.6683 148,20.5C 145.451,21.59 144.617,23.2567 145.5,25.5C 146.582,23.2163 148.248,22.0496 150.5,22C 149.483,23.0495 149.316,24.2161 150,25.5C 151.458,24.2532 152.958,24.2532 154.5,25.5C 156.107,28.84 158.107,32.0067 160.5,35C 160.389,36.7215 159.889,36.8882 159,35.5C 158.333,36.5 158.333,37.5 159,38.5C 159.333,38.1667 159.667,37.8333 160,37.5C 161.912,39.6572 163.579,41.9906 165,44.5C 165.483,43.552 165.649,42.552 165.5,41.5C 167.942,41.8808 168.609,41.2141 167.5,39.5C 168.5,38.8333 169.5,38.1667 170.5,37.5C 167.05,36.4366 165.384,34.4366 165.5,31.5C 164.09,33.9492 164.424,36.1159 166.5,38C 165.667,38.8333 164.833,39.6667 164,40.5C 162.305,38.2068 161.638,35.8734 162,33.5C 160.275,31.2005 158.442,29.0338 156.5,27C 157.167,26.6667 157.833,26.3333 158.5,26C 156.269,24.3903 154.269,22.557 152.5,20.5C 153.76,19.6184 154.926,18.6184 156,17.5C 156.667,20.1667 157.333,20.1667 158,17.5C 159.044,18.6226 159.71,19.9559 160,21.5C 161,21.1667 162,20.8333 163,20.5C 163.333,21.1667 163.667,21.8333 164,22.5C 165.619,19.2199 167.619,16.2199 170,13.5C 170.725,16.3766 170.225,19.0433 168.5,21.5C 172.081,22.3559 172.247,23.3559 169,24.5C 164.472,22.4348 164.305,23.2681 168.5,27C 167.171,29.8616 168.004,32.0283 171,33.5C 171.43,30.8078 171.263,28.1411 170.5,25.5C 171.822,25.33 172.989,25.6634 174,26.5C 174.684,25.2161 174.517,24.0495 173.5,23C 174.684,21.8197 175.351,20.3197 175.5,18.5C 175.532,13.444 174.865,13.2773 173.5,18C 172.517,18.5908 171.85,18.2575 171.5,17C 172.022,16.0497 172.689,15.2164 173.5,14.5C 172.67,12.8651 172.503,11.1984 173,9.5C 170.776,12.9216 168.276,12.9216 165.5,9.5C 165.64,10.5695 165.64,11.7361 165.5,13C 164.223,13.1274 163.057,12.6274 162,11.5C 159.641,14.0336 158.474,13.3669 158.5,9.5C 160.144,9.28649 161.644,9.61983 163,10.5C 163.199,8.59754 164.033,7.09754 165.5,6C 170.929,6.34348 176.262,6.17682 181.5,5.5C 183.833,5.66667 186.167,5.83333 188.5,6C 190.218,10.7457 191.218,10.579 191.5,5.5C 196.52,6.41824 201.52,6.75157 206.5,6.5C 208.961,8.98365 210.294,11.9837 210.5,15.5 Z"/></g>
<g><path style="opacity:1" fill="#f2f2f2" d="M 288.5,6.5 C 288.5,104.833 288.5,203.167 288.5,301.5C 238.833,301.5 189.167,301.5 139.5,301.5C 138.737,300.732 137.737,300.232 136.5,300C 137.479,298.221 137.146,296.555 135.5,295C 137.807,294.221 139.807,294.721 141.5,296.5C 142.308,296.192 142.975,295.692 143.5,295C 148.019,294.825 152.353,294.325 156.5,293.5C 161.88,293.676 167.213,293.342 172.5,292.5C 176.733,292.461 180.733,291.795 184.5,290.5C 185.167,290.5 185.833,290.5 186.5,290.5C 192.712,290.477 198.712,289.81 204.5,288.5C 205.5,288.5 206.5,288.5 207.5,288.5C 208.708,287.766 210.041,287.433 211.5,287.5C 218.163,286.885 224.83,286.218 231.5,285.5C 233.03,285.36 234.03,284.693 234.5,283.5C 235.289,283.783 235.956,284.283 236.5,285C 242.681,285.819 248.681,285.653 254.5,284.5C 256.527,284.662 258.527,284.495 260.5,284C 261.127,281.657 262.127,279.49 263.5,277.5C 264.578,279.475 264.245,281.308 262.5,283C 266.574,283.878 270.24,283.044 273.5,280.5C 275.629,278.344 277.962,276.677 280.5,275.5C 281.739,246.851 282.239,218.184 282,189.5C 281.802,187.618 281.302,185.952 280.5,184.5C 280.817,180.298 280.483,176.298 279.5,172.5C 279.768,170.901 279.434,169.568 278.5,168.5C 278.374,160.972 277.707,153.639 276.5,146.5C 276.802,143.941 276.468,141.607 275.5,139.5C 275.737,138.209 275.404,137.209 274.5,136.5C 274.306,130.88 273.306,125.547 271.5,120.5C 270.785,114.897 269.452,109.564 267.5,104.5C 266.046,98.9318 264.046,93.5984 261.5,88.5C 261.101,85.3043 260.101,82.3043 258.5,79.5C 254.335,75.6587 249.668,72.6587 244.5,70.5C 240.611,67.725 236.278,65.725 231.5,64.5C 230.602,63.8423 229.602,63.1757 228.5,62.5C 229.908,61.7568 231.241,60.9234 232.5,60C 229.65,58.9538 226.983,58.2872 224.5,58C 227.167,57.6667 229.833,57.3333 232.5,57C 230.167,56.6667 227.833,56.3333 225.5,56C 226.167,55.6667 226.833,55.3333 227.5,55C 226.464,53.3831 225.297,53.2164 224,54.5C 223.092,52.5614 221.592,51.5614 219.5,51.5C 219.5,52.5 219.5,53.5 219.5,54.5C 216.662,55.9455 213.662,56.4455 210.5,56C 211.938,55.7811 213.271,55.2811 214.5,54.5C 213.094,53.5734 211.594,52.5734 210,51.5C 209.667,53.1667 209.333,54.8333 209,56.5C 207.406,55.2841 205.906,53.9507 204.5,52.5C 203.416,53.6651 202.583,54.9984 202,56.5C 201.64,54.5789 200.806,52.9122 199.5,51.5C 198.152,53.6114 198.485,55.4447 200.5,57C 197.5,57.6667 194.5,57.6667 191.5,57C 192.416,56.6258 193.25,56.1258 194,55.5C 194.186,53.0995 194.686,50.7662 195.5,48.5C 196.281,49.7287 196.781,51.062 197,52.5C 197.186,50.0995 197.686,47.7662 198.5,45.5C 200.167,45.5 201.833,45.5 203.5,45.5C 204.287,44.7579 204.953,43.9246 205.5,43C 203.609,40.1984 200.942,39.0318 197.5,39.5C 197.421,38.0695 197.754,36.7362 198.5,35.5C 201.167,34.8333 203.833,34.1667 206.5,33.5C 206.113,32.2801 205.28,31.6135 204,31.5C 202.699,31.9602 201.366,32.2935 200,32.5C 198.2,31.6216 196.367,30.955 194.5,30.5C 194.804,33.5219 195.304,36.5219 196,39.5C 197.573,40.0865 199.073,41.2531 200.5,43C 199.251,44.8241 198.085,44.6574 197,42.5C 195.005,45.7965 193.005,49.1298 191,52.5C 187.508,51.4989 184.341,49.8323 181.5,47.5C 182.714,45.9309 184.381,45.0976 186.5,45C 182.953,43.4524 181.62,40.9524 182.5,37.5C 180.243,36.4362 178.243,36.9362 176.5,39C 177.672,40.8684 177.505,42.7017 176,44.5C 175.667,43.8333 175.333,43.1667 175,42.5C 174.781,43.938 174.281,45.2713 173.5,46.5C 172.692,46.1924 172.025,45.6924 171.5,45C 171.335,41.5879 171.835,38.4212 173,35.5C 173.561,36.0219 174.228,36.3552 175,36.5C 177.034,35.2779 179.2,34.2779 181.5,33.5C 180.872,31.7419 179.872,30.2419 178.5,29C 179.275,27.7705 180.275,27.4372 181.5,28C 183.146,29.5548 183.479,31.2215 182.5,33C 185.309,34.588 185.975,36.7546 184.5,39.5C 184.808,40.3081 185.308,40.9747 186,41.5C 186.133,39.5833 186.966,37.7499 188.5,36C 188.097,34.5272 187.43,33.1939 186.5,32C 187.448,31.5172 188.448,31.3505 189.5,31.5C 189.351,32.552 189.517,33.552 190,34.5C 191.87,32.7516 193.037,30.5849 193.5,28C 194.784,27.3162 195.951,27.4829 197,28.5C 197.692,27.9747 198.192,27.3081 198.5,26.5C 197.019,25.5197 195.685,24.353 194.5,23C 195.227,21.6012 195.727,20.1012 196,18.5C 196.591,23.3772 197.924,24.0439 200,20.5C 201.827,23.1603 203.994,25.4936 206.5,27.5C 207.308,25.5767 207.808,23.5767 208,21.5C 208.654,22.6956 209.154,22.6956 209.5,21.5C 208.817,18.5386 207.984,18.2053 207,20.5C 205.929,16.7957 205.762,13.1291 206.5,9.5C 207.707,11.6651 209.04,13.6651 210.5,15.5C 211.496,15.5858 212.329,15.2524 213,14.5C 213.837,12.6494 214.671,10.8161 215.5,9C 213.5,8 211.5,7 209.5,6C 210.833,5.83333 212.167,5.66667 213.5,5.5C 218.758,5.99789 224.258,5.99789 230,5.5C 231.726,6.64786 231.559,7.81452 229.5,9C 232.015,10.5383 233.682,12.705 234.5,15.5C 234.182,16.6473 233.516,17.4806 232.5,18C 233.944,18.7805 235.277,18.6139 236.5,17.5C 236.085,14.7022 235.251,11.7022 234,8.5C 233.346,9.69559 232.846,9.69559 232.5,8.5C 233.938,5.1771 235.771,4.84376 238,7.5C 238.308,6.69194 238.808,6.02527 239.5,5.5C 240.281,6.72865 240.781,8.06199 241,9.5C 241.219,8.06199 241.719,6.72865 242.5,5.5C 244.343,5.75524 246.343,5.92191 248.5,6C 249.849,6.77241 250.682,7.93908 251,9.5C 252.57,8.38598 253.903,7.05264 255,5.5C 260.641,5.98345 266.475,5.98345 272.5,5.5C 272.419,7.93868 272.919,10.272 274,12.5C 275.309,10.3136 275.476,8.14691 274.5,6C 276.749,5.13681 278.582,5.63681 280,7.5C 282.538,5.16378 285.371,4.83044 288.5,6.5 Z"/></g>
<g><path style="opacity:1" fill="#bfcce7" d="M 231.5,64.5 C 236.278,65.725 240.611,67.725 244.5,70.5C 242.736,108.477 241.403,146.477 240.5,184.5C 239.691,182.708 239.191,180.708 239,178.5C 238.193,180.577 237.026,182.411 235.5,184C 236.448,184.483 237.448,184.649 238.5,184.5C 238.5,186.167 238.5,187.833 238.5,189.5C 236.323,189.586 234.323,190.253 232.5,191.5C 231.167,190.5 229.833,189.5 228.5,188.5C 229.376,187.749 230.376,187.249 231.5,187C 229.453,185.927 227.453,184.761 225.5,183.5C 222.936,185.019 222.936,186.519 225.5,188C 223.871,189.056 222.538,190.556 221.5,192.5C 219.902,190.027 218.402,190.027 217,192.5C 214.761,191.111 212.928,189.444 211.5,187.5C 206.457,186.909 201.79,187.909 197.5,190.5C 193.457,192.925 192.79,195.925 195.5,199.5C 196.167,201.833 196.833,204.167 197.5,206.5C 195.656,208.279 194.99,210.612 195.5,213.5C 195.167,213.5 194.833,213.5 194.5,213.5C 194.5,211.167 194.5,208.833 194.5,206.5C 191.733,206.142 189.067,205.475 186.5,204.5C 184.738,203.738 183.738,202.404 183.5,200.5C 187.473,197.194 191.14,193.527 194.5,189.5C 195.5,189.167 196.167,188.5 196.5,187.5C 197.5,186.167 198.5,184.833 199.5,183.5C 200.674,182.486 201.34,181.153 201.5,179.5C 213.928,156.291 213.428,133.291 200,110.5C 193.84,103.838 186.34,99.505 177.5,97.5C 162.792,91.7738 147.459,89.6071 131.5,91C 130.263,91.2321 129.263,91.7321 128.5,92.5C 122.244,93.9143 116.244,96.081 110.5,99C 103.358,100.832 97.1918,99.3325 92,94.5C 89.9272,86.2826 85.0938,80.6159 77.5,77.5C 81.8945,79.146 85.5612,78.146 88.5,74.5C 88.1667,74.1667 87.8333,73.8333 87.5,73.5C 86.2507,75.4755 84.7507,75.8088 83,74.5C 81.5822,76.3632 79.7489,76.8632 77.5,76C 73.341,75.6103 72.841,74.4437 76,72.5C 77.5565,73.2052 78.7232,72.5385 79.5,70.5C 76.0488,70.9878 72.8822,69.9878 70,67.5C 68.6439,68.3802 67.1439,68.7135 65.5,68.5C 66.8021,66.9724 68.4687,65.9724 70.5,65.5C 87.921,65.0644 105.254,64.0644 122.5,62.5C 149.152,61.3245 175.818,60.6578 202.5,60.5C 202.08,62.674 202.08,64.674 202.5,66.5C 204.553,65.0606 205.553,63.0606 205.5,60.5C 214.268,61.1836 222.935,62.5169 231.5,64.5 Z"/></g>
<g><path style="opacity:1" fill="#dde4f0" d="M 70.5,65.5 C 68.4687,65.9724 66.8021,66.9724 65.5,68.5C 65.5,69.8333 65.5,71.1667 65.5,72.5C 64.1779,72.33 63.0113,72.6634 62,73.5C 61.9822,71.2028 62.1489,68.8695 62.5,66.5C 53.1667,66.5 43.8333,66.5 34.5,66.5C 34.838,69.1569 34.1713,71.4902 32.5,73.5C 31.5344,71.604 31.2011,69.604 31.5,67.5C 29.4352,67.5172 27.4352,67.8505 25.5,68.5C 25.6107,67.8826 25.944,67.3826 26.5,67C 41.1267,65.6271 55.7934,65.1271 70.5,65.5 Z"/></g>
<g><path style="opacity:1" fill="#becbe7" d="M 65.5,68.5 C 67.1439,68.7135 68.6439,68.3802 70,67.5C 72.8822,69.9878 76.0488,70.9878 79.5,70.5C 78.7232,72.5385 77.5565,73.2052 76,72.5C 72.841,74.4437 73.341,75.6103 77.5,76C 79.7489,76.8632 81.5822,76.3632 83,74.5C 84.7507,75.8088 86.2507,75.4755 87.5,73.5C 87.8333,73.8333 88.1667,74.1667 88.5,74.5C 85.5612,78.146 81.8945,79.146 77.5,77.5C 75.1432,77.3367 72.8098,77.5034 70.5,78C 72.6166,79.7309 74.1166,81.8976 75,84.5C 75.3333,92.8333 75.6667,101.167 76,109.5C 77.5255,114.19 80.3588,117.857 84.5,120.5C 81.2156,121.657 77.8823,121.824 74.5,121C 61.2988,116.108 47.6321,114.108 33.5,115C 29.3634,114.349 25.8634,112.515 23,109.5C 22.678,111.689 23.178,113.689 24.5,115.5C 23.2794,114.972 22.1127,114.305 21,113.5C 20.6667,113.833 20.3333,114.167 20,114.5C 19.4604,112.865 19.9604,111.532 21.5,110.5C 19.585,108.929 18.585,106.929 18.5,104.5C 16.6096,104.297 15.1096,104.963 14,106.5C 13.913,99.3111 13.913,91.9778 14,84.5C 14.414,84.0426 14.914,83.7093 15.5,83.5C 16.6808,85.1353 16.6808,86.802 15.5,88.5C 16.6283,89.2621 17.7949,89.9288 19,90.5C 19.9533,87.5682 20.4533,84.5682 20.5,81.5C 18.8561,81.2865 17.3561,81.6198 16,82.5C 15.4138,79.2714 15.9138,76.2714 17.5,73.5C 19.6523,71.0152 22.3189,69.3485 25.5,68.5C 27.4352,67.8505 29.4352,67.5172 31.5,67.5C 31.2011,69.604 31.5344,71.604 32.5,73.5C 34.1713,71.4902 34.838,69.1569 34.5,66.5C 43.8333,66.5 53.1667,66.5 62.5,66.5C 62.1489,68.8695 61.9822,71.2028 62,73.5C 63.0113,72.6634 64.1779,72.33 65.5,72.5C 65.5,71.1667 65.5,69.8333 65.5,68.5 Z"/></g>
<g><path style="opacity:1" fill="#959595" d="M 261.5,88.5 C 264.046,93.5984 266.046,98.9318 267.5,104.5C 268.321,107.554 268.321,110.554 267.5,113.5C 261.587,114.822 255.587,115.489 249.5,115.5C 249.5,106.167 249.5,96.8333 249.5,87.5C 253.6,87.2367 257.6,87.5701 261.5,88.5 Z"/></g>
<g><path style="opacity:1" fill="#2d292a" d="M 177.5,97.5 C 177.96,98.5414 179.293,99.3747 181.5,100C 180.221,101.646 178.555,102.813 176.5,103.5C 178.688,104.241 180.688,104.574 182.5,104.5C 180.5,105.5 178.5,106.5 176.5,107.5C 175.353,107.182 174.519,106.516 174,105.5C 173.517,106.448 173.351,107.448 173.5,108.5C 175.39,108.297 176.89,108.963 178,110.5C 178.287,112.891 178.787,115.224 179.5,117.5C 177.668,118.248 176.001,119.248 174.5,120.5C 173.386,119.277 173.219,117.944 174,116.5C 175.156,117.993 175.99,117.826 176.5,116C 176.387,114.72 175.72,113.887 174.5,113.5C 173.248,115.001 172.248,116.668 171.5,118.5C 169.816,119.15 168.483,120.15 167.5,121.5C 164.143,119.134 160.81,116.801 157.5,114.5C 158.5,114.5 159.5,114.5 160.5,114.5C 160.042,111.606 160.709,109.106 162.5,107C 162.043,106.586 161.709,106.086 161.5,105.5C 157.748,104.349 154.081,103.015 150.5,101.5C 149.281,102.263 148.281,103.263 147.5,104.5C 146.914,104.291 146.414,103.957 146,103.5C 145.689,104.742 146.189,105.742 147.5,106.5C 145.433,107.134 143.6,108.134 142,109.5C 141.363,105.345 143.029,102.678 147,101.5C 148.438,100.1 149.271,98.433 149.5,96.5C 148.178,96.67 147.011,96.3366 146,95.5C 144.901,98.0443 143.735,98.0443 142.5,95.5C 148.141,92.8164 147.808,91.4831 141.5,91.5C 135.356,91.6185 135.022,93.2852 140.5,96.5C 140.167,97.5 139.5,98.1667 138.5,98.5C 136.146,97.9399 133.813,97.2733 131.5,96.5C 131.167,95.8333 130.833,95.1667 130.5,94.5C 132.078,93.7022 133.744,93.2022 135.5,93C 133.19,92.5034 130.857,92.3367 128.5,92.5C 129.263,91.7321 130.263,91.2321 131.5,91C 147.459,89.6071 162.792,91.7738 177.5,97.5 Z"/></g>
<g><path style="opacity:1" fill="#282425" d="M 77.5,77.5 C 85.0938,80.6159 89.9272,86.2826 92,94.5C 97.1918,99.3325 103.358,100.832 110.5,99C 116.244,96.081 122.244,93.9143 128.5,92.5C 130.857,92.3367 133.19,92.5034 135.5,93C 133.744,93.2022 132.078,93.7022 130.5,94.5C 130.833,95.1667 131.167,95.8333 131.5,96.5C 133.813,97.2733 136.146,97.9399 138.5,98.5C 139.5,98.1667 140.167,97.5 140.5,96.5C 135.022,93.2852 135.356,91.6185 141.5,91.5C 147.808,91.4831 148.141,92.8164 142.5,95.5C 143.735,98.0443 144.901,98.0443 146,95.5C 147.011,96.3366 148.178,96.67 149.5,96.5C 149.271,98.433 148.438,100.1 147,101.5C 143.029,102.678 141.363,105.345 142,109.5C 143.6,108.134 145.433,107.134 147.5,106.5C 146.189,105.742 145.689,104.742 146,103.5C 146.414,103.957 146.914,104.291 147.5,104.5C 148.281,103.263 149.281,102.263 150.5,101.5C 154.081,103.015 157.748,104.349 161.5,105.5C 161.709,106.086 162.043,106.586 162.5,107C 160.709,109.106 160.042,111.606 160.5,114.5C 159.5,114.5 158.5,114.5 157.5,114.5C 153.354,113.353 149.02,113.186 144.5,114C 143.058,114.377 142.058,115.21 141.5,116.5C 136.538,120.453 131.538,124.453 126.5,128.5C 124.863,132.683 123.863,137.016 123.5,141.5C 122.656,143.843 121.656,146.176 120.5,148.5C 119.839,150.134 119.506,151.967 119.5,154C 119.421,157.451 120.087,160.618 121.5,163.5C 121.5,164.167 121.833,164.5 122.5,164.5C 122.5,165.5 122.5,166.5 122.5,167.5C 122.5,168.167 122.5,168.833 122.5,169.5C 121.221,168.032 119.554,167.365 117.5,167.5C 117.682,165.409 117.348,163.409 116.5,161.5C 115.349,160.269 114.183,160.269 113,161.5C 112.975,158.083 112.808,154.75 112.5,151.5C 111.186,152.313 110.019,153.313 109,154.5C 108.887,156.974 107.887,158.974 106,160.5C 105.571,158.331 106.071,156.331 107.5,154.5C 104.46,151.373 101.126,151.373 97.5,154.5C 96.8333,155.833 96.1667,157.167 95.5,158.5C 94.7492,157.624 94.2492,156.624 94,155.5C 92.9568,157.701 92.1235,160.034 91.5,162.5C 90.2704,158.838 90.9371,155.505 93.5,152.5C 91.2756,151.22 89.2756,151.553 87.5,153.5C 86.6667,152.5 85.8333,151.5 85,150.5C 84.6121,151.428 83.9454,152.095 83,152.5C 81.5936,151.586 80.0936,150.92 78.5,150.5C 81.0094,149.079 83.3428,147.412 85.5,145.5C 86.0431,145.44 86.3764,145.107 86.5,144.5C 78.188,143.521 69.8547,142.854 61.5,142.5C 54.0263,140.431 47.0263,137.264 40.5,133C 34.5631,127.57 29.2297,121.737 24.5,115.5C 23.178,113.689 22.678,111.689 23,109.5C 25.8634,112.515 29.3634,114.349 33.5,115C 47.6321,114.108 61.2988,116.108 74.5,121C 77.8823,121.824 81.2156,121.657 84.5,120.5C 80.3588,117.857 77.5255,114.19 76,109.5C 75.6667,101.167 75.3333,92.8333 75,84.5C 74.1166,81.8976 72.6166,79.7309 70.5,78C 72.8098,77.5034 75.1432,77.3367 77.5,77.5 Z"/></g>
<g><path style="opacity:1" fill="#b2b3b3" d="M 244.5,70.5 C 249.668,72.6587 254.335,75.6587 258.5,79.5C 260.101,82.3043 261.101,85.3043 261.5,88.5C 257.6,87.5701 253.6,87.2367 249.5,87.5C 249.5,96.8333 249.5,106.167 249.5,115.5C 255.587,115.489 261.587,114.822 267.5,113.5C 268.321,110.554 268.321,107.554 267.5,104.5C 269.452,109.564 270.785,114.897 271.5,120.5C 270.432,121.434 269.099,121.768 267.5,121.5C 267.5,126.5 267.5,131.5 267.5,136.5C 266.833,136.5 266.5,136.167 266.5,135.5C 266.5,130.833 266.5,126.167 266.5,121.5C 260.5,121.5 254.5,121.5 248.5,121.5C 247.507,129.65 247.174,137.983 247.5,146.5C 256.852,146.566 266.185,146.232 275.5,145.5C 275.5,143.5 275.5,141.5 275.5,139.5C 276.468,141.607 276.802,143.941 276.5,146.5C 276.5,148.5 276.5,150.5 276.5,152.5C 273.167,152.5 269.833,152.5 266.5,152.5C 266.768,154.099 266.434,155.432 265.5,156.5C 265.5,155.5 265.5,154.5 265.5,153.5C 259.5,153.5 253.5,153.5 247.5,153.5C 246.508,161.316 246.174,169.316 246.5,177.5C 257.5,177.5 268.5,177.5 279.5,177.5C 279.5,175.833 279.5,174.167 279.5,172.5C 280.483,176.298 280.817,180.298 280.5,184.5C 267.167,184.5 253.833,184.5 240.5,184.5C 241.403,146.477 242.736,108.477 244.5,70.5 Z"/></g>
<g><path style="opacity:1" fill="#7c695d" d="M 157.5,114.5 C 152.009,114.15 146.676,114.816 141.5,116.5C 142.058,115.21 143.058,114.377 144.5,114C 149.02,113.186 153.354,113.353 157.5,114.5 Z"/></g>
<g><path style="opacity:1" fill="#e9c0a1" d="M 157.5,114.5 C 160.81,116.801 164.143,119.134 167.5,121.5C 170.634,126.974 174.967,130.974 180.5,133.5C 180.567,134.959 180.234,136.292 179.5,137.5C 178.672,143.653 178.172,149.987 178,156.5C 174.242,162.466 168.742,165.466 161.5,165.5C 161.624,166.107 161.957,166.44 162.5,166.5C 163.833,168.5 165.5,170.167 167.5,171.5C 167.611,172.117 167.944,172.617 168.5,173C 170.833,173.333 173.167,173.667 175.5,174C 171.688,174.795 168.021,175.629 164.5,176.5C 162.743,175.708 161.409,174.375 160.5,172.5C 162.856,171.346 163.023,170.013 161,168.5C 159.314,171.022 157.981,170.689 157,167.5C 156.243,169.315 155.41,170.981 154.5,172.5C 153.947,170.343 152.947,170.51 151.5,173C 149.613,173.78 147.946,173.613 146.5,172.5C 148.048,172.179 148.715,171.179 148.5,169.5C 147.022,169.762 145.689,169.429 144.5,168.5C 145.066,167.709 145.899,167.709 147,168.5C 148.169,167.991 149.002,167.158 149.5,166C 146.967,164.309 144.3,162.809 141.5,161.5C 140.548,159.955 140.215,158.288 140.5,156.5C 145.974,155.299 146.974,152.299 143.5,147.5C 141.502,149.334 139.168,150.334 136.5,150.5C 136.357,148.738 136.691,147.071 137.5,145.5C 136.726,144.289 135.893,144.289 135,145.5C 134.572,150.498 133.739,150.665 132.5,146C 133.768,143.373 135.101,140.873 136.5,138.5C 137.609,137.71 138.942,137.21 140.5,137C 143.901,132.338 142.901,130.838 137.5,132.5C 139.041,131.333 140.375,130 141.5,128.5C 139.034,127.366 136.367,127.199 133.5,128C 132.944,128.383 132.611,128.883 132.5,129.5C 131.883,129.611 131.383,129.944 131,130.5C 130.505,132.473 130.338,134.473 130.5,136.5C 132.664,136.279 134.33,135.279 135.5,133.5C 134.879,136.857 132.879,138.024 129.5,137C 128.887,134.853 128.221,132.686 127.5,130.5C 126.491,133.473 126.491,136.473 127.5,139.5C 125.801,139.527 124.467,140.194 123.5,141.5C 123.863,137.016 124.863,132.683 126.5,128.5C 131.538,124.453 136.538,120.453 141.5,116.5C 146.676,114.816 152.009,114.15 157.5,114.5 Z"/></g>
<g><path style="opacity:1" fill="#282425" d="M 177.5,97.5 C 186.34,99.505 193.84,103.838 200,110.5C 213.428,133.291 213.928,156.291 201.5,179.5C 200.984,174.294 200.651,168.961 200.5,163.5C 198.327,170.083 197.993,176.749 199.5,183.5C 198.5,184.833 197.5,186.167 196.5,187.5C 194.83,187.249 193.33,186.582 192,185.5C 191.667,182.833 191.333,180.167 191,177.5C 187.922,175.045 184.756,172.711 181.5,170.5C 180.479,171.002 180.312,171.668 181,172.5C 183.846,174.257 186.512,176.257 189,178.5C 189.333,181.167 189.667,183.833 190,186.5C 191.878,187.053 193.378,188.053 194.5,189.5C 191.14,193.527 187.473,197.194 183.5,200.5C 181.215,199.043 179.382,197.043 178,194.5C 176.733,189.565 175.9,184.565 175.5,179.5C 172.123,179.932 169.123,179.265 166.5,177.5C 169.931,176.865 173.264,175.865 176.5,174.5C 177.404,173.791 177.737,172.791 177.5,171.5C 174.833,171.5 172.167,171.5 169.5,171.5C 168.833,171.5 168.167,171.5 167.5,171.5C 165.5,170.167 163.833,168.5 162.5,166.5C 166.013,165.669 169.679,165.503 173.5,166C 173.043,165.586 172.709,165.086 172.5,164.5C 173.274,163.289 174.107,163.289 175,164.5C 175.308,163.692 175.808,163.025 176.5,162.5C 177.113,163.98 177.446,165.313 177.5,166.5C 179.167,165.5 180.5,164.167 181.5,162.5C 182.478,162.977 183.311,163.643 184,164.5C 182.299,160.774 180.966,156.774 180,152.5C 179.501,147.511 179.334,142.511 179.5,137.5C 180.234,136.292 180.567,134.959 180.5,133.5C 174.967,130.974 170.634,126.974 167.5,121.5C 168.483,120.15 169.816,119.15 171.5,118.5C 172.248,116.668 173.248,115.001 174.5,113.5C 175.72,113.887 176.387,114.72 176.5,116C 175.99,117.826 175.156,117.993 174,116.5C 173.219,117.944 173.386,119.277 174.5,120.5C 176.001,119.248 177.668,118.248 179.5,117.5C 178.787,115.224 178.287,112.891 178,110.5C 176.89,108.963 175.39,108.297 173.5,108.5C 173.351,107.448 173.517,106.448 174,105.5C 174.519,106.516 175.353,107.182 176.5,107.5C 178.5,106.5 180.5,105.5 182.5,104.5C 180.688,104.574 178.688,104.241 176.5,103.5C 178.555,102.813 180.221,101.646 181.5,100C 179.293,99.3747 177.96,98.5414 177.5,97.5 Z"/></g>
<g><path style="opacity:1" fill="#bfcce8" d="M 17.5,73.5 C 15.9138,76.2714 15.4138,79.2714 16,82.5C 17.3561,81.6198 18.8561,81.2865 20.5,81.5C 20.4533,84.5682 19.9533,87.5682 19,90.5C 17.7949,89.9288 16.6283,89.2621 15.5,88.5C 16.6808,86.802 16.6808,85.1353 15.5,83.5C 14.914,83.7093 14.414,84.0426 14,84.5C 13.913,91.9778 13.913,99.3111 14,106.5C 15.1096,104.963 16.6096,104.297 18.5,104.5C 18.585,106.929 19.585,108.929 21.5,110.5C 19.9604,111.532 19.4604,112.865 20,114.5C 20.3333,114.167 20.6667,113.833 21,113.5C 22.1127,114.305 23.2794,114.972 24.5,115.5C 29.2297,121.737 34.5631,127.57 40.5,133C 47.0263,137.264 54.0263,140.431 61.5,142.5C 69.4388,143.988 77.4388,144.988 85.5,145.5C 83.3428,147.412 81.0094,149.079 78.5,150.5C 73.8333,150.5 69.1667,150.5 64.5,150.5C 58.8512,147.955 53.1846,145.622 47.5,143.5C 43.0376,141.269 38.371,139.602 33.5,138.5C 33.7286,140.433 34.5619,142.1 36,143.5C 40.3149,148.649 44.8149,153.649 49.5,158.5C 42.673,164.438 34.673,166.772 25.5,165.5C 27.9829,178.649 35.3163,187.982 47.5,193.5C 50.6599,196 54.3266,197.333 58.5,197.5C 63.9846,198.652 69.6513,198.818 75.5,198C 81.0516,197.574 86.3849,196.407 91.5,194.5C 94.0409,193.897 96.3743,193.897 98.5,194.5C 97.5416,194.953 96.7083,195.619 96,196.5C 94.6686,200.489 93.3353,204.489 92,208.5C 89.9125,212.302 86.7459,214.802 82.5,216C 78.5,216.333 74.5,216.667 70.5,217C 71.2438,218.039 72.2438,218.539 73.5,218.5C 76.6952,220.03 80.1952,220.696 84,220.5C 86.6903,220.497 89.1903,220.164 91.5,219.5C 99.4823,218.653 107.482,217.986 115.5,217.5C 113.393,218.468 111.059,218.802 108.5,218.5C 107.75,223.609 105.583,227.942 102,231.5C 99.8152,235.87 97.6485,240.203 95.5,244.5C 95.1667,248.167 94.8333,251.833 94.5,255.5C 94.5112,259.565 95.1778,263.232 96.5,266.5C 96.2945,273.396 96.9611,280.063 98.5,286.5C 98.9926,288.806 99.3259,291.139 99.5,293.5C 78.7822,293.85 58.1156,293.017 37.5,291C 33.0676,288.744 28.401,287.078 23.5,286C 20.6872,282.353 17.6872,278.853 14.5,275.5C 10.7831,266.573 9.61639,257.24 11,247.5C 13.3037,245.22 14.8037,242.554 15.5,239.5C 14.5,239.5 13.5,239.5 12.5,239.5C 14.2085,225.07 15.2085,210.57 15.5,196C 15.0621,169.295 13.7288,142.795 11.5,116.5C 11.3335,106.494 11.5002,96.4944 12,86.5C 12.7924,81.5926 14.6257,77.2593 17.5,73.5 Z"/></g>
<g><path style="opacity:1" fill="#8e908f" d="M 248.5,121.5 C 254.5,121.5 260.5,121.5 266.5,121.5C 266.5,126.167 266.5,130.833 266.5,135.5C 261.389,139.561 255.723,142.894 249.5,145.5C 248.502,137.528 248.169,129.528 248.5,121.5 Z"/></g>
<g><path style="opacity:1" fill="#6f5d53" d="M 141.5,128.5 C 138.43,128.368 135.43,128.701 132.5,129.5C 132.611,128.883 132.944,128.383 133.5,128C 136.367,127.199 139.034,127.366 141.5,128.5 Z"/></g>
<g><path style="opacity:1" fill="#c5c6c6" d="M 271.5,120.5 C 273.306,125.547 274.306,130.88 274.5,136.5C 272.167,136.5 269.833,136.5 267.5,136.5C 267.5,131.5 267.5,126.5 267.5,121.5C 269.099,121.768 270.432,121.434 271.5,120.5 Z"/></g>
<g><path style="opacity:1" fill="#342d2c" d="M 141.5,128.5 C 140.375,130 139.041,131.333 137.5,132.5C 136.833,132.833 136.167,133.167 135.5,133.5C 134.33,135.279 132.664,136.279 130.5,136.5C 130.338,134.473 130.505,132.473 131,130.5C 131.383,129.944 131.883,129.611 132.5,129.5C 135.43,128.701 138.43,128.368 141.5,128.5 Z"/></g>
<g><path style="opacity:1" fill="#352f2d" d="M 159.5,129.5 C 166.352,129.017 169.352,132.017 168.5,138.5C 165.507,135.671 162.173,133.338 158.5,131.5C 158.863,130.817 159.196,130.15 159.5,129.5 Z"/></g>
<g><path style="opacity:1" fill="#a0a09f" d="M 248.5,121.5 C 248.169,129.528 248.502,137.528 249.5,145.5C 255.723,142.894 261.389,139.561 266.5,135.5C 266.5,136.167 266.833,136.5 267.5,136.5C 269.833,136.5 272.167,136.5 274.5,136.5C 275.404,137.209 275.737,138.209 275.5,139.5C 275.5,141.5 275.5,143.5 275.5,145.5C 266.185,146.232 256.852,146.566 247.5,146.5C 247.174,137.983 247.507,129.65 248.5,121.5 Z"/></g>
<g><path style="opacity:1" fill="#352b2b" d="M 136.5,138.5 C 137.5,138.5 138.5,138.5 139.5,138.5C 139.5,140.167 139.5,141.833 139.5,143.5C 138.5,143.5 137.5,143.5 136.5,143.5C 136.5,141.833 136.5,140.167 136.5,138.5 Z"/></g>
<g><path style="opacity:1" fill="#2e2729" d="M 160.5,140.5 C 161.5,140.5 162.5,140.5 163.5,140.5C 163.5,142.167 163.5,143.833 163.5,145.5C 162.5,145.5 161.5,145.5 160.5,145.5C 160.5,143.833 160.5,142.167 160.5,140.5 Z"/></g>
<g><path style="opacity:1" fill="#989faf" d="M 47.5,143.5 C 53.1846,145.622 58.8512,147.955 64.5,150.5C 58.0249,149.903 52.3582,147.57 47.5,143.5 Z"/></g>
<g><path style="opacity:1" fill="#666a77" d="M 61.5,142.5 C 69.8547,142.854 78.188,143.521 86.5,144.5C 86.3764,145.107 86.0431,145.44 85.5,145.5C 77.4388,144.988 69.4388,143.988 61.5,142.5 Z"/></g>
<g><path style="opacity:1" fill="#efad93" d="M 120.5,152.5 C 123.667,152.4 126.667,153.067 129.5,154.5C 130.909,157.397 130.576,160.063 128.5,162.5C 126.369,163.169 124.369,163.835 122.5,164.5C 121.833,164.5 121.5,164.167 121.5,163.5C 121.058,159.846 120.724,156.179 120.5,152.5 Z"/></g>
<g><path style="opacity:1" fill="#8f9090" d="M 247.5,153.5 C 253.5,153.5 259.5,153.5 265.5,153.5C 265.5,154.5 265.5,155.5 265.5,156.5C 265.5,158.167 265.5,159.833 265.5,161.5C 264.527,163.948 264.194,166.615 264.5,169.5C 258.983,172.089 253.316,174.422 247.5,176.5C 247.5,168.833 247.5,161.167 247.5,153.5 Z"/></g>
<g><path style="opacity:1" fill="#c7c7c7" d="M 276.5,146.5 C 277.707,153.639 278.374,160.972 278.5,168.5C 274.167,168.5 269.833,168.5 265.5,168.5C 265.5,166.167 265.5,163.833 265.5,161.5C 265.5,159.833 265.5,158.167 265.5,156.5C 266.434,155.432 266.768,154.099 266.5,152.5C 269.833,152.5 273.167,152.5 276.5,152.5C 276.5,150.5 276.5,148.5 276.5,146.5 Z"/></g>
<g><path style="opacity:1" fill="#f3ac93" d="M 158.5,153.5 C 162.833,153.5 167.167,153.5 171.5,153.5C 171.5,155.5 171.5,157.5 171.5,159.5C 168.924,160.107 166.591,161.274 164.5,163C 157.026,165.508 153.859,163.008 155,155.5C 156.302,154.915 157.469,154.249 158.5,153.5 Z"/></g>
<g><path style="opacity:1" fill="#262324" d="M 47.5,143.5 C 52.3582,147.57 58.0249,149.903 64.5,150.5C 69.1667,150.5 73.8333,150.5 78.5,150.5C 80.0936,150.92 81.5936,151.586 83,152.5C 83.9454,152.095 84.6121,151.428 85,150.5C 85.8333,151.5 86.6667,152.5 87.5,153.5C 89.2756,151.553 91.2756,151.22 93.5,152.5C 90.9371,155.505 90.2704,158.838 91.5,162.5C 92.1235,160.034 92.9568,157.701 94,155.5C 94.2492,156.624 94.7492,157.624 95.5,158.5C 96.1667,157.167 96.8333,155.833 97.5,154.5C 101.126,151.373 104.46,151.373 107.5,154.5C 106.071,156.331 105.571,158.331 106,160.5C 107.887,158.974 108.887,156.974 109,154.5C 110.019,153.313 111.186,152.313 112.5,151.5C 112.808,154.75 112.975,158.083 113,161.5C 114.183,160.269 115.349,160.269 116.5,161.5C 117.348,163.409 117.682,165.409 117.5,167.5C 119.554,167.365 121.221,168.032 122.5,169.5C 122.796,171.403 123.463,173.07 124.5,174.5C 126.792,180.918 130.459,186.418 135.5,191C 139.46,192.757 143.46,192.923 147.5,191.5C 148.833,191.5 150.167,191.5 151.5,191.5C 151.6,194.108 150.933,196.442 149.5,198.5C 147.861,200.806 145.861,202.806 143.5,204.5C 141.847,204.66 140.514,205.326 139.5,206.5C 134.05,207.916 129.384,210.582 125.5,214.5C 122.296,215.901 118.963,216.901 115.5,217.5C 107.482,217.986 99.4823,218.653 91.5,219.5C 85.4638,219.64 79.4638,219.307 73.5,218.5C 72.2438,218.539 71.2438,218.039 70.5,217C 74.5,216.667 78.5,216.333 82.5,216C 86.7459,214.802 89.9125,212.302 92,208.5C 93.3353,204.489 94.6686,200.489 96,196.5C 96.7083,195.619 97.5416,194.953 98.5,194.5C 99.0431,194.44 99.3764,194.107 99.5,193.5C 96.5818,192.287 93.9151,192.621 91.5,194.5C 86.3849,196.407 81.0516,197.574 75.5,198C 69.6513,198.818 63.9846,198.652 58.5,197.5C 55.1996,195.358 51.533,194.025 47.5,193.5C 35.3163,187.982 27.9829,178.649 25.5,165.5C 34.673,166.772 42.673,164.438 49.5,158.5C 44.8149,153.649 40.3149,148.649 36,143.5C 34.5619,142.1 33.7286,140.433 33.5,138.5C 38.371,139.602 43.0376,141.269 47.5,143.5 Z"/></g>
<g><path style="opacity:1" fill="#353032" d="M 179.5,137.5 C 179.334,142.511 179.501,147.511 180,152.5C 180.966,156.774 182.299,160.774 184,164.5C 183.311,163.643 182.478,162.977 181.5,162.5C 180.5,164.167 179.167,165.5 177.5,166.5C 177.446,165.313 177.113,163.98 176.5,162.5C 175.808,163.025 175.308,163.692 175,164.5C 174.107,163.289 173.274,163.289 172.5,164.5C 172.709,165.086 173.043,165.586 173.5,166C 169.679,165.503 166.013,165.669 162.5,166.5C 161.957,166.44 161.624,166.107 161.5,165.5C 168.742,165.466 174.242,162.466 178,156.5C 178.172,149.987 178.672,143.653 179.5,137.5 Z"/></g>
<g><path style="opacity:1" fill="#705a50" d="M 120.5,148.5 C 120.5,149.833 120.5,151.167 120.5,152.5C 120.724,156.179 121.058,159.846 121.5,163.5C 120.087,160.618 119.421,157.451 119.5,154C 119.506,151.967 119.839,150.134 120.5,148.5 Z"/></g>
<g><path style="opacity:1" fill="#464651" d="M 186.5,146.5 C 187.976,148.769 189.476,151.102 191,153.5C 191,157.5 191,161.5 191,165.5C 194.715,167.52 196.048,170.52 195,174.5C 193.392,171.228 191.392,168.228 189,165.5C 188.447,162.641 188.614,159.808 189.5,157C 187.501,153.821 186.501,150.321 186.5,146.5 Z"/></g>
<g><path style="opacity:1" fill="#f1f1f2" d="M 11.5,116.5 C 13.7288,142.795 15.0621,169.295 15.5,196C 15.2085,210.57 14.2085,225.07 12.5,239.5C 13.5,239.5 14.5,239.5 15.5,239.5C 14.8037,242.554 13.3037,245.22 11,247.5C 9.61639,257.24 10.7831,266.573 14.5,275.5C 17.6872,278.853 20.6872,282.353 23.5,286C 28.401,287.078 33.0676,288.744 37.5,291C 58.1156,293.017 78.7822,293.85 99.5,293.5C 106.5,293.5 113.5,293.5 120.5,293.5C 120.187,289.958 120.521,286.625 121.5,283.5C 121.5,286.833 121.5,290.167 121.5,293.5C 122.833,293.5 124.167,293.5 125.5,293.5C 128.167,293.5 130.833,293.5 133.5,293.5C 141.167,293.5 148.833,293.5 156.5,293.5C 152.353,294.325 148.019,294.825 143.5,295C 142.975,295.692 142.308,296.192 141.5,296.5C 139.807,294.721 137.807,294.221 135.5,295C 137.146,296.555 137.479,298.221 136.5,300C 137.737,300.232 138.737,300.732 139.5,301.5C 92.8333,301.5 46.1667,301.5 -0.5,301.5C -0.5,242.167 -0.5,182.833 -0.5,123.5C 1.14297,123.52 2.4763,122.853 3.5,121.5C 5.43422,121.901 6.93422,122.901 8,124.5C 8.24917,123.376 8.74917,122.376 9.5,121.5C 10.8333,123.167 10.8333,124.833 9.5,126.5C 8.91395,126.291 8.41395,125.957 8,125.5C 5.60172,129.326 6.43505,132.326 10.5,134.5C 11.4959,128.537 11.8293,122.537 11.5,116.5 Z"/></g>
<g><path style="opacity:1" fill="#a1a1a1" d="M 247.5,153.5 C 247.5,161.167 247.5,168.833 247.5,176.5C 253.316,174.422 258.983,172.089 264.5,169.5C 264.194,166.615 264.527,163.948 265.5,161.5C 265.5,163.833 265.5,166.167 265.5,168.5C 269.833,168.5 274.167,168.5 278.5,168.5C 279.434,169.568 279.768,170.901 279.5,172.5C 279.5,174.167 279.5,175.833 279.5,177.5C 268.5,177.5 257.5,177.5 246.5,177.5C 246.174,169.316 246.508,161.316 247.5,153.5 Z"/></g>
<g><path style="opacity:1" fill="#6b5a50" d="M 122.5,167.5 C 123.924,169.515 124.59,171.848 124.5,174.5C 123.463,173.07 122.796,171.403 122.5,169.5C 122.5,168.833 122.5,168.167 122.5,167.5 Z"/></g>
<g><path style="opacity:1" fill="#726258" d="M 169.5,171.5 C 172.167,171.5 174.833,171.5 177.5,171.5C 177.737,172.791 177.404,173.791 176.5,174.5C 174.492,172.917 172.159,171.917 169.5,171.5 Z"/></g>
<g><path style="opacity:1" fill="#edc3a3" d="M 135.5,133.5 C 136.167,133.167 136.833,132.833 137.5,132.5C 142.901,130.838 143.901,132.338 140.5,137C 138.942,137.21 137.609,137.71 136.5,138.5C 135.101,140.873 133.768,143.373 132.5,146C 133.739,150.665 134.572,150.498 135,145.5C 135.893,144.289 136.726,144.289 137.5,145.5C 136.691,147.071 136.357,148.738 136.5,150.5C 139.168,150.334 141.502,149.334 143.5,147.5C 146.974,152.299 145.974,155.299 140.5,156.5C 140.215,158.288 140.548,159.955 141.5,161.5C 144.3,162.809 146.967,164.309 149.5,166C 149.002,167.158 148.169,167.991 147,168.5C 145.899,167.709 145.066,167.709 144.5,168.5C 145.689,169.429 147.022,169.762 148.5,169.5C 148.715,171.179 148.048,172.179 146.5,172.5C 142.416,172.957 138.583,172.29 135,170.5C 134.721,172.412 135.554,173.746 137.5,174.5C 141.122,177.491 145.122,178.158 149.5,176.5C 151.749,175.92 153.415,174.587 154.5,172.5C 155.41,170.981 156.243,169.315 157,167.5C 157.981,170.689 159.314,171.022 161,168.5C 163.023,170.013 162.856,171.346 160.5,172.5C 161.409,174.375 162.743,175.708 164.5,176.5C 165.167,176.833 165.833,177.167 166.5,177.5C 169.123,179.265 172.123,179.932 175.5,179.5C 175.9,184.565 176.733,189.565 178,194.5C 179.382,197.043 181.215,199.043 183.5,200.5C 183.738,202.404 184.738,203.738 186.5,204.5C 187.336,214.831 187.836,225.164 188,235.5C 185.081,239.198 181.247,240.864 176.5,240.5C 168.715,240.868 161.049,240.202 153.5,238.5C 150.788,237.953 149.288,236.287 149,233.5C 148.686,228.226 147.353,223.226 145,218.5C 144.006,213.882 143.506,209.215 143.5,204.5C 145.861,202.806 147.861,200.806 149.5,198.5C 151.772,196.982 153.105,194.815 153.5,192C 157.662,190.669 161.328,188.502 164.5,185.5C 164.167,185.167 163.833,184.833 163.5,184.5C 158.748,188.408 153.415,190.742 147.5,191.5C 143.46,192.923 139.46,192.757 135.5,191C 130.459,186.418 126.792,180.918 124.5,174.5C 124.59,171.848 123.924,169.515 122.5,167.5C 122.5,166.5 122.5,165.5 122.5,164.5C 124.369,163.835 126.369,163.169 128.5,162.5C 130.576,160.063 130.909,157.397 129.5,154.5C 126.667,153.067 123.667,152.4 120.5,152.5C 120.5,151.167 120.5,149.833 120.5,148.5C 121.656,146.176 122.656,143.843 123.5,141.5C 124.467,140.194 125.801,139.527 127.5,139.5C 126.491,136.473 126.491,133.473 127.5,130.5C 128.221,132.686 128.887,134.853 129.5,137C 132.879,138.024 134.879,136.857 135.5,133.5 Z"/></g>
<g><path style="opacity:1" fill="#826c5e" d="M 146.5,172.5 C 147.946,173.613 149.613,173.78 151.5,173C 152.947,170.51 153.947,170.343 154.5,172.5C 153.415,174.587 151.749,175.92 149.5,176.5C 149.611,175.883 149.944,175.383 150.5,175C 146.042,173.553 141.709,173.386 137.5,174.5C 135.554,173.746 134.721,172.412 135,170.5C 138.583,172.29 142.416,172.957 146.5,172.5 Z"/></g>
<g><path style="opacity:1" fill="#454551" d="M 201.5,179.5 C 201.34,181.153 200.674,182.486 199.5,183.5C 197.993,176.749 198.327,170.083 200.5,163.5C 200.651,168.961 200.984,174.294 201.5,179.5 Z"/></g>
<g><path style="opacity:1" fill="#3a3230" d="M 137.5,174.5 C 141.709,173.386 146.042,173.553 150.5,175C 149.944,175.383 149.611,175.883 149.5,176.5C 145.122,178.158 141.122,177.491 137.5,174.5 Z"/></g>
<g><path style="opacity:1" fill="#bc9c84" d="M 167.5,171.5 C 168.167,171.5 168.833,171.5 169.5,171.5C 172.159,171.917 174.492,172.917 176.5,174.5C 173.264,175.865 169.931,176.865 166.5,177.5C 165.833,177.167 165.167,176.833 164.5,176.5C 168.021,175.629 171.688,174.795 175.5,174C 173.167,173.667 170.833,173.333 168.5,173C 167.944,172.617 167.611,172.117 167.5,171.5 Z"/></g>
<g><path style="opacity:1" fill="#464651" d="M 196.5,187.5 C 196.167,188.5 195.5,189.167 194.5,189.5C 193.378,188.053 191.878,187.053 190,186.5C 189.667,183.833 189.333,181.167 189,178.5C 186.512,176.257 183.846,174.257 181,172.5C 180.312,171.668 180.479,171.002 181.5,170.5C 184.756,172.711 187.922,175.045 191,177.5C 191.333,180.167 191.667,182.833 192,185.5C 193.33,186.582 194.83,187.249 196.5,187.5 Z"/></g>
<g><path style="opacity:1" fill="#bfcce7" d="M 240.5,184.5 C 253.833,184.5 267.167,184.5 280.5,184.5C 281.302,185.952 281.802,187.618 282,189.5C 282.239,218.184 281.739,246.851 280.5,275.5C 277.962,276.677 275.629,278.344 273.5,280.5C 270.24,283.044 266.574,283.878 262.5,283C 264.245,281.308 264.578,279.475 263.5,277.5C 262.127,279.49 261.127,281.657 260.5,284C 258.527,284.495 256.527,284.662 254.5,284.5C 254.649,281.393 254.149,278.393 253,275.5C 248.917,269.599 245.083,263.599 241.5,257.5C 242.209,256.596 243.209,256.263 244.5,256.5C 244.884,252.511 244.217,248.845 242.5,245.5C 248.397,228.129 242.731,216.629 225.5,211C 220.42,203.655 215.753,196.155 211.5,188.5C 211.5,188.167 211.5,187.833 211.5,187.5C 212.928,189.444 214.761,191.111 217,192.5C 218.402,190.027 219.902,190.027 221.5,192.5C 222.538,190.556 223.871,189.056 225.5,188C 222.936,186.519 222.936,185.019 225.5,183.5C 227.453,184.761 229.453,185.927 231.5,187C 230.376,187.249 229.376,187.749 228.5,188.5C 229.833,189.5 231.167,190.5 232.5,191.5C 234.323,190.253 236.323,189.586 238.5,189.5C 238.5,187.833 238.5,186.167 238.5,184.5C 237.448,184.649 236.448,184.483 235.5,184C 237.026,182.411 238.193,180.577 239,178.5C 239.191,180.708 239.691,182.708 240.5,184.5 Z"/></g>
<g><path style="opacity:1" fill="#c9a58b" d="M 149.5,198.5 C 150.933,196.442 151.6,194.108 151.5,191.5C 150.167,191.5 148.833,191.5 147.5,191.5C 153.415,190.742 158.748,188.408 163.5,184.5C 163.833,184.833 164.167,185.167 164.5,185.5C 161.328,188.502 157.662,190.669 153.5,192C 153.105,194.815 151.772,196.982 149.5,198.5 Z"/></g>
<g><path style="opacity:1" fill="#707683" d="M 98.5,194.5 C 96.3743,193.897 94.0409,193.897 91.5,194.5C 93.9151,192.621 96.5818,192.287 99.5,193.5C 99.3764,194.107 99.0431,194.44 98.5,194.5 Z"/></g>
<g><path style="opacity:1" fill="#583923" d="M 211.5,187.5 C 211.5,187.833 211.5,188.167 211.5,188.5C 211.896,191.044 211.229,193.211 209.5,195C 207.336,195.914 205.336,197.081 203.5,198.5C 200.914,199.48 198.247,199.813 195.5,199.5C 192.79,195.925 193.457,192.925 197.5,190.5C 201.79,187.909 206.457,186.909 211.5,187.5 Z"/></g>
<g><path style="opacity:1" fill="#585b66" d="M 47.5,193.5 C 51.533,194.025 55.1996,195.358 58.5,197.5C 54.3266,197.333 50.6599,196 47.5,193.5 Z"/></g>
<g><path style="opacity:1" fill="#895125" d="M 211.5,188.5 C 215.753,196.155 220.42,203.655 225.5,211C 242.731,216.629 248.397,228.129 242.5,245.5C 240.527,248.139 238.194,250.473 235.5,252.5C 230.324,254.184 224.991,254.85 219.5,254.5C 216.687,254.025 214.687,255.025 213.5,257.5C 206.846,262.641 199.179,265.308 190.5,265.5C 190.405,262.303 191.072,259.303 192.5,256.5C 197.288,252.779 201.621,248.612 205.5,244C 202.998,240.003 201.664,235.67 201.5,231C 202.786,226.59 203.62,222.09 204,217.5C 201.497,213.877 199.33,210.21 197.5,206.5C 196.833,204.167 196.167,201.833 195.5,199.5C 198.247,199.813 200.914,199.48 203.5,198.5C 205.336,197.081 207.336,195.914 209.5,195C 211.229,193.211 211.896,191.044 211.5,188.5 Z"/></g>
<g><path style="opacity:1" fill="#707484" d="M 73.5,218.5 C 79.4638,219.307 85.4638,219.64 91.5,219.5C 89.1903,220.164 86.6903,220.497 84,220.5C 80.1952,220.696 76.6952,220.03 73.5,218.5 Z"/></g>
<g><path style="opacity:1" fill="#bce1ef" d="M 143.5,204.5 C 143.506,209.215 144.006,213.882 145,218.5C 147.353,223.226 148.686,228.226 149,233.5C 149.288,236.287 150.788,237.953 153.5,238.5C 154.058,239.79 155.058,240.623 156.5,241C 163.346,241.821 170.013,241.654 176.5,240.5C 181.247,240.864 185.081,239.198 188,235.5C 187.836,225.164 187.336,214.831 186.5,204.5C 189.067,205.475 191.733,206.142 194.5,206.5C 194.5,208.833 194.5,211.167 194.5,213.5C 194.042,223.161 193.709,232.828 193.5,242.5C 191.05,247.176 187.05,249.343 181.5,249C 169.451,249.891 157.451,249.557 145.5,248C 143.879,245.834 143.045,243.334 143,240.5C 141.691,229.175 140.525,217.842 139.5,206.5C 140.514,205.326 141.847,204.66 143.5,204.5 Z"/></g>
<g><path style="opacity:1" fill="#784724" d="M 219.5,223.5 C 235.122,222.618 240.122,229.451 234.5,244C 229.353,245.2 224.186,245.7 219,245.5C 215.544,240.819 214.211,235.486 215,229.5C 216.277,227.253 217.777,225.253 219.5,223.5 Z"/></g>
<g><path style="opacity:1" fill="#bce3f1" d="M 125.5,214.5 C 127.129,216.858 128.295,219.524 129,222.5C 130.651,238.152 130.651,253.819 129,269.5C 127.015,277.376 125.849,285.376 125.5,293.5C 124.167,293.5 122.833,293.5 121.5,293.5C 121.5,290.167 121.5,286.833 121.5,283.5C 121.785,281.712 121.452,280.045 120.5,278.5C 114.724,273.023 108.058,269.356 100.5,267.5C 99.4324,266.566 98.099,266.232 96.5,266.5C 95.1778,263.232 94.5112,259.565 94.5,255.5C 94.8333,251.833 95.1667,248.167 95.5,244.5C 97.6485,240.203 99.8152,235.87 102,231.5C 105.583,227.942 107.75,223.609 108.5,218.5C 111.059,218.802 113.393,218.468 115.5,217.5C 118.963,216.901 122.296,215.901 125.5,214.5 Z"/></g>
<g><path style="opacity:1" fill="#2a2566" d="M 139.5,206.5 C 140.525,217.842 141.691,229.175 143,240.5C 143.045,243.334 143.879,245.834 145.5,248C 157.451,249.557 169.451,249.891 181.5,249C 187.05,249.343 191.05,247.176 193.5,242.5C 195.019,233.042 195.685,223.375 195.5,213.5C 194.99,210.612 195.656,208.279 197.5,206.5C 199.33,210.21 201.497,213.877 204,217.5C 203.62,222.09 202.786,226.59 201.5,231C 201.664,235.67 202.998,240.003 205.5,244C 201.621,248.612 197.288,252.779 192.5,256.5C 185.344,257.833 182.178,262.166 183,269.5C 182.184,270.823 181.017,271.489 179.5,271.5C 175.605,272.462 171.939,273.796 168.5,275.5C 162.151,277.896 155.818,280.396 149.5,283C 145.44,284.689 141.773,286.856 138.5,289.5C 136.251,290.08 134.585,291.413 133.5,293.5C 130.833,293.5 128.167,293.5 125.5,293.5C 125.849,285.376 127.015,277.376 129,269.5C 130.651,253.819 130.651,238.152 129,222.5C 128.295,219.524 127.129,216.858 125.5,214.5C 129.384,210.582 134.05,207.916 139.5,206.5 Z"/></g>
<g><path style="opacity:1" fill="#d8d3c8" d="M 153.5,238.5 C 161.049,240.202 168.715,240.868 176.5,240.5C 170.013,241.654 163.346,241.821 156.5,241C 155.058,240.623 154.058,239.79 153.5,238.5 Z"/></g>
<g><path style="opacity:1" fill="#566091" d="M 194.5,213.5 C 194.833,213.5 195.167,213.5 195.5,213.5C 195.685,223.375 195.019,233.042 193.5,242.5C 193.709,232.828 194.042,223.161 194.5,213.5 Z"/></g>
<g><path style="opacity:1" fill="#8380a6" d="M 157.5,255.5 C 149.833,255.5 142.167,255.5 134.5,255.5C 134.5,258.5 134.5,261.5 134.5,264.5C 133.521,261.375 133.187,258.042 133.5,254.5C 141.684,254.174 149.684,254.508 157.5,255.5 Z"/></g>
<g><path style="opacity:1" fill="#a39482" d="M 235.5,252.5 C 234.653,253.966 233.32,254.8 231.5,255C 227.311,255.812 223.311,255.645 219.5,254.5C 224.991,254.85 230.324,254.184 235.5,252.5 Z"/></g>
<g><path style="opacity:1" fill="#e1e1e6" d="M 157.5,255.5 C 157.5,258.5 157.5,261.5 157.5,264.5C 149.833,264.5 142.167,264.5 134.5,264.5C 134.5,261.5 134.5,258.5 134.5,255.5C 142.167,255.5 149.833,255.5 157.5,255.5 Z"/></g>
<g><path style="opacity:1" fill="#c0e3f0" d="M 242.5,245.5 C 244.217,248.845 244.884,252.511 244.5,256.5C 243.209,256.263 242.209,256.596 241.5,257.5C 240.448,257.351 239.448,257.517 238.5,258C 233.466,262.699 228.8,267.699 224.5,273C 223.473,273.513 222.473,274.013 221.5,274.5C 219.648,275.089 217.815,275.756 216,276.5C 213.934,279.961 212.434,283.627 211.5,287.5C 210.041,287.433 208.708,287.766 207.5,288.5C 208.573,286.347 208.573,284.347 207.5,282.5C 209.455,281.553 209.789,280.219 208.5,278.5C 213.021,277.335 214.354,274.668 212.5,270.5C 216.028,266.357 216.361,262.023 213.5,257.5C 214.687,255.025 216.687,254.025 219.5,254.5C 223.311,255.645 227.311,255.812 231.5,255C 233.32,254.8 234.653,253.966 235.5,252.5C 238.194,250.473 240.527,248.139 242.5,245.5 Z"/></g>
<g><path style="opacity:1" fill="#868485" d="M 142.5,258.5 C 146.833,257.167 151.167,257.167 155.5,258.5C 153.019,258.774 151.353,260.107 150.5,262.5C 148.833,262.5 147.167,262.5 145.5,262.5C 146.278,261.844 146.944,261.011 147.5,260C 146.576,258.189 145.743,258.355 145,260.5C 144.292,259.619 143.458,258.953 142.5,258.5 Z"/></g>
<g><path style="opacity:1" fill="#5b585a" d="M 155.5,258.5 C 155.5,259.833 155.5,261.167 155.5,262.5C 153.833,262.5 152.167,262.5 150.5,262.5C 151.353,260.107 153.019,258.774 155.5,258.5 Z"/></g>
<g><path style="opacity:1" fill="#636162" d="M 142.5,258.5 C 143.458,258.953 144.292,259.619 145,260.5C 145.743,258.355 146.576,258.189 147.5,260C 146.944,261.011 146.278,261.844 145.5,262.5C 142.676,262.108 139.676,262.108 136.5,262.5C 136.343,261.127 136.51,259.793 137,258.5C 138,259.833 139,259.833 140,258.5C 140.333,259.167 140.667,259.833 141,260.5C 141.278,259.584 141.778,258.918 142.5,258.5 Z"/></g>
<g><path style="opacity:1" fill="#eec5a6" d="M 241.5,257.5 C 245.083,263.599 248.917,269.599 253,275.5C 254.149,278.393 254.649,281.393 254.5,284.5C 248.681,285.653 242.681,285.819 236.5,285C 235.956,284.283 235.289,283.783 234.5,283.5C 230.158,281.998 226.158,279.831 222.5,277C 221.748,276.329 221.414,275.496 221.5,274.5C 222.473,274.013 223.473,273.513 224.5,273C 228.8,267.699 233.466,262.699 238.5,258C 239.448,257.517 240.448,257.351 241.5,257.5 Z"/></g>
<g><path style="opacity:1" fill="#d7c7c2" d="M 96.5,266.5 C 98.099,266.232 99.4324,266.566 100.5,267.5C 99.5,267.5 98.5,267.5 97.5,267.5C 98.014,273.822 98.3473,280.155 98.5,286.5C 96.9611,280.063 96.2945,273.396 96.5,266.5 Z"/></g>
<g><path style="opacity:1" fill="#eec4a5" d="M 100.5,267.5 C 108.058,269.356 114.724,273.023 120.5,278.5C 121.452,280.045 121.785,281.712 121.5,283.5C 120.521,286.625 120.187,289.958 120.5,293.5C 113.5,293.5 106.5,293.5 99.5,293.5C 99.3259,291.139 98.9926,288.806 98.5,286.5C 98.3473,280.155 98.014,273.822 97.5,267.5C 98.5,267.5 99.5,267.5 100.5,267.5 Z"/></g>
<g><path style="opacity:1" fill="#9e848c" d="M 179.5,271.5 C 176.374,273.99 172.708,275.323 168.5,275.5C 171.939,273.796 175.605,272.462 179.5,271.5 Z"/></g>
<g><path style="opacity:1" fill="#bfcce8" d="M 221.5,274.5 C 221.414,275.496 221.748,276.329 222.5,277C 226.158,279.831 230.158,281.998 234.5,283.5C 234.03,284.693 233.03,285.36 231.5,285.5C 224.83,286.218 218.163,286.885 211.5,287.5C 212.434,283.627 213.934,279.961 216,276.5C 217.815,275.756 219.648,275.089 221.5,274.5 Z"/></g>
<g><path style="opacity:1" fill="#eac1a2" d="M 192.5,256.5 C 191.072,259.303 190.405,262.303 190.5,265.5C 199.179,265.308 206.846,262.641 213.5,257.5C 216.361,262.023 216.028,266.357 212.5,270.5C 214.354,274.668 213.021,277.335 208.5,278.5C 209.789,280.219 209.455,281.553 207.5,282.5C 204.58,284.613 201.247,285.613 197.5,285.5C 192.562,284.127 187.562,283.294 182.5,283C 179.429,285.518 176.429,288.018 173.5,290.5C 173.167,290.5 172.833,290.5 172.5,290.5C 160.633,292.529 148.633,293.029 136.5,292C 137.381,291.292 138.047,290.458 138.5,289.5C 141.773,286.856 145.44,284.689 149.5,283C 155.818,280.396 162.151,277.896 168.5,275.5C 172.708,275.323 176.374,273.99 179.5,271.5C 181.017,271.489 182.184,270.823 183,269.5C 182.178,262.166 185.344,257.833 192.5,256.5 Z"/></g>
<g><path style="opacity:1" fill="#302a69" d="M 207.5,282.5 C 208.573,284.347 208.573,286.347 207.5,288.5C 206.5,288.5 205.5,288.5 204.5,288.5C 198.261,288.276 192.261,288.943 186.5,290.5C 185.833,290.5 185.167,290.5 184.5,290.5C 180.611,290.806 176.945,290.806 173.5,290.5C 176.429,288.018 179.429,285.518 182.5,283C 187.562,283.294 192.562,284.127 197.5,285.5C 201.247,285.613 204.58,284.613 207.5,282.5 Z"/></g>
<g><path style="opacity:1" fill="#acacc4" d="M 204.5,288.5 C 198.712,289.81 192.712,290.477 186.5,290.5C 192.261,288.943 198.261,288.276 204.5,288.5 Z"/></g>
<g><path style="opacity:1" fill="#a9a9bf" d="M 172.5,290.5 C 172.833,290.5 173.167,290.5 173.5,290.5C 176.945,290.806 180.611,290.806 184.5,290.5C 180.733,291.795 176.733,292.461 172.5,292.5C 172.5,291.833 172.5,291.167 172.5,290.5 Z"/></g>
<g><path style="opacity:1" fill="#e2cbbd" d="M 138.5,289.5 C 138.047,290.458 137.381,291.292 136.5,292C 148.633,293.029 160.633,292.529 172.5,290.5C 172.5,291.167 172.5,291.833 172.5,292.5C 167.213,293.342 161.88,293.676 156.5,293.5C 148.833,293.5 141.167,293.5 133.5,293.5C 134.585,291.413 136.251,290.08 138.5,289.5 Z"/></g>
</svg>
