<?xml version="1.0" encoding="UTF-8"?>
<!DOCTYPE svg PUBLIC "-//W3C//DTD SVG 1.1//EN" "http://www.w3.org/Graphics/SVG/1.1/DTD/svg11.dtd">
<svg xmlns="http://www.w3.org/2000/svg" version="1.1" width="257px" height="184px" style="shape-rendering:geometricPrecision; text-rendering:geometricPrecision; image-rendering:optimizeQuality; fill-rule:evenodd; clip-rule:evenodd" xmlns:xlink="http://www.w3.org/1999/xlink">
<g><path style="opacity:1" fill="#fdcd05" d="M -0.5,-0.5 C 85.1667,-0.5 170.833,-0.5 256.5,-0.5C 256.5,60.8333 256.5,122.167 256.5,183.5C 170.833,183.5 85.1667,183.5 -0.5,183.5C -0.5,122.167 -0.5,60.8333 -0.5,-0.5 Z"/></g>
<g><path style="opacity:1" fill="#242420" d="M 178.5,63.5 C 183.975,64.4889 189.642,64.8222 195.5,64.5C 195.5,72.8333 195.5,81.1667 195.5,89.5C 195.182,91.8184 193.848,93.1517 191.5,93.5C 189.734,92.9091 188.067,92.0758 186.5,91C 180.426,89.5377 176.759,91.871 175.5,98C 178.718,106.163 184.051,107.663 191.5,102.5C 193.258,103.128 194.758,104.128 196,105.5C 196.5,114.494 196.666,123.494 196.5,132.5C 173.5,132.5 150.5,132.5 127.5,132.5C 127.334,123.827 127.5,115.16 128,106.5C 128.956,105.106 130.289,104.439 132,104.5C 142.287,107.206 146.287,103.54 144,93.5C 140.473,90.3565 136.473,89.6899 132,91.5C 130.289,91.5607 128.956,90.8941 128,89.5C 127.501,83.8431 127.334,78.1764 127.5,72.5C 124.5,72.5 121.5,72.5 118.5,72.5C 118.56,87.2708 111.227,93.7708 96.5,92C 88.5729,87.9859 84.9062,81.4859 85.5,72.5C 82.8333,72.5 80.1667,72.5 77.5,72.5C 77.5,89.5 77.5,106.5 77.5,123.5C 80.1667,123.5 82.8333,123.5 85.5,123.5C 85.5089,108.655 92.8422,102.155 107.5,104C 116.723,108.279 120.223,115.446 118,125.5C 116.744,128.752 114.744,131.419 112,133.5C 109.551,132.056 107.385,130.222 105.5,128C 109.9,123.867 110.567,119.2 107.5,114C 98.9124,110.606 94.7457,113.439 95,122.5C 97.9837,125.403 98.1504,128.403 95.5,131.5C 86.5542,132.472 77.5542,132.806 68.5,132.5C 68.5,109.833 68.5,87.1667 68.5,64.5C 77.1667,64.5 85.8333,64.5 94.5,64.5C 96.4387,65.0138 97.4387,66.3472 97.5,68.5C 93.173,73.6851 93.5064,78.5184 98.5,83C 102.987,84.3782 106.487,83.2115 109,79.5C 109.715,75.5082 109.215,71.6749 107.5,68C 107.439,66.2894 108.106,64.956 109.5,64C 118.494,63.5002 127.494,63.3336 136.5,63.5C 136.5,69.5 136.5,75.5 136.5,81.5C 147.331,81.7464 153.331,87.2464 154.5,98C 153.441,108.892 147.441,114.392 136.5,114.5C 136.5,117.5 136.5,120.5 136.5,123.5C 153.167,123.5 169.833,123.5 186.5,123.5C 186.5,120.5 186.5,117.5 186.5,114.5C 171.734,113.891 165.567,106.224 168,91.5C 171.977,84.0951 178.144,80.7618 186.5,81.5C 186.5,78.5 186.5,75.5 186.5,72.5C 181.156,72.666 175.823,72.4994 170.5,72C 169.106,71.044 168.439,69.7106 168.5,68C 170.762,58.5945 167.095,54.5945 157.5,56C 156.667,56.8333 155.833,57.6667 155,58.5C 154.361,62.6883 154.694,66.6883 156,70.5C 150.793,75.3188 147.46,74.3188 146,67.5C 144.383,51.4499 151.55,44.6165 167.5,47C 174.55,50.2722 178.217,55.7722 178.5,63.5 Z"/></g>
<g><path style="opacity:1" fill="#786622" d="M 94.5,64.5 C 85.8333,64.5 77.1667,64.5 68.5,64.5C 68.5,87.1667 68.5,109.833 68.5,132.5C 67.5025,109.673 67.1692,86.6727 67.5,63.5C 76.6822,63.1734 85.6822,63.5067 94.5,64.5 Z"/></g>
<g><path style="opacity:1" fill="#685923" d="M 178.5,63.5 C 184.5,63.5 190.5,63.5 196.5,63.5C 196.826,72.3494 196.493,81.0161 195.5,89.5C 195.5,81.1667 195.5,72.8333 195.5,64.5C 189.642,64.8222 183.975,64.4889 178.5,63.5 Z"/></g>
</svg>
